<?xml version="1.0" encoding="UTF-8" standalone="no"?>
<!-- Created with Inkscape (http://www.inkscape.org/) -->

<svg
   width="256"
   height="115"
   id="svg2"
   sodipodi:version="0.32"
   inkscape:version="1.3.2 (1:1.3.2+202311252150+091e20ef0f)"
   version="1.0"
   sodipodi:docname="creme_powered.svg"
   inkscape:output_extension="org.inkscape.output.svg.inkscape"
   style="display:inline;enable-background:new"
   inkscape:export-filename="creme_powered.png"
   inkscape:export-xdpi="31.304348"
   inkscape:export-ydpi="31.304348"
   xmlns:inkscape="http://www.inkscape.org/namespaces/inkscape"
   xmlns:sodipodi="http://sodipodi.sourceforge.net/DTD/sodipodi-0.dtd"
   xmlns="http://www.w3.org/2000/svg"
   xmlns:svg="http://www.w3.org/2000/svg"
   xmlns:rdf="http://www.w3.org/1999/02/22-rdf-syntax-ns#"
   xmlns:cc="http://creativecommons.org/ns#"
   xmlns:dc="http://purl.org/dc/elements/1.1/">
  <defs
     id="defs4" />
  <sodipodi:namedview
     id="base"
     pagecolor="#ffffff"
     bordercolor="#666666"
     borderopacity="1.0"
     inkscape:pageopacity="1"
     inkscape:pageshadow="2"
     inkscape:zoom="1"
     inkscape:cx="275"
     inkscape:cy="74.5"
     inkscape:document-units="px"
     inkscape:current-layer="layer2"
     showgrid="false"
     inkscape:window-width="1868"
     inkscape:window-height="1016"
     inkscape:window-x="52"
     inkscape:window-y="27"
     showguides="true"
     inkscape:guide-bbox="true"
     inkscape:window-maximized="1"
     inkscape:showpageshadow="2"
     inkscape:pagecheckerboard="true"
     inkscape:deskcolor="#d1d1d1" />
  <metadata
     id="metadata7">
    <rdf:RDF>
      <cc:Work
         rdf:about="">
        <dc:format>image/svg+xml</dc:format>
        <dc:type
           rdf:resource="http://purl.org/dc/dcmitype/StillImage" />
        <cc:license
           rdf:resource="http://creativecommons.org/licenses/by-sa/4.0/" />
      </cc:Work>
      <cc:License
         rdf:about="http://creativecommons.org/licenses/by-sa/4.0/">
        <cc:permits
           rdf:resource="http://creativecommons.org/ns#Reproduction" />
        <cc:permits
           rdf:resource="http://creativecommons.org/ns#Distribution" />
        <cc:requires
           rdf:resource="http://creativecommons.org/ns#Notice" />
        <cc:requires
           rdf:resource="http://creativecommons.org/ns#Attribution" />
        <cc:permits
           rdf:resource="http://creativecommons.org/ns#DerivativeWorks" />
        <cc:requires
           rdf:resource="http://creativecommons.org/ns#ShareAlike" />
      </cc:License>
    </rdf:RDF>
  </metadata>
  <g
     inkscape:groupmode="layer"
     id="layer2"
     inkscape:label="main"
     style="display:inline"
     transform="translate(-1.718751,13.40625)">
    <path
       style="fill:#f7cbc6;fill-opacity:1;fill-rule:nonzero;stroke:#f3b1aa;stroke-width:2;stroke-linecap:butt;stroke-linejoin:round;stroke-miterlimit:4;stroke-opacity:1;stroke-dasharray:none;stroke-dashoffset:0;marker:none;visibility:visible;display:inline;overflow:visible;enable-background:accumulate"
       d="M 32.9375,2.09375 C 15.915567,2.09375 2.0937499,18.63272 2.09375,39 c 0,20.36728 13.821814,36.90625 30.84375,36.90625 15.269713,0 27.95453,-13.30716 30.40625,-30.75 l -17.8125,0 C 43.553026,51.388616 38.672839,55.8125 32.9375,55.8125 25.455863,55.812499 19.375,48.289913 19.375,39.03125 19.375001,29.772588 25.455864,22.25 32.9375,22.25 c 5.706493,-1e-6 10.564965,4.379728 12.5625,10.5625 l 17.84375,0 C 60.881465,15.38474 48.198255,2.09375 32.9375,2.09375 z"
       transform="translate(1.718751,23.59375)"
       id="path3524" />
    <path
       sodipodi:nodetypes="ccccccccc"
       id="path3526"
       d="m 72.267163,56.96875 0,38.5625 12.3125,0 0,-18.62576 c 3.743788,-2.57469 7.891309,-5.41796 12.343751,-5.4375 l 0,-12.34375 c -4.285612,0.0022 -8.039931,2.22464 -12.343751,5.4375 l 0,-7.59299 -12.3125,0 z"
       style="fill:#f7cbc6;fill-opacity:1;fill-rule:nonzero;stroke:#f3b1aa;stroke-width:2;stroke-linecap:butt;stroke-linejoin:round;stroke-miterlimit:4;stroke-opacity:1;stroke-dasharray:none;stroke-dashoffset:0;marker:none;visibility:visible;display:inline;overflow:visible;enable-background:accumulate" />
    <path
       sodipodi:nodetypes="cssccsccsccccc"
       id="path3528"
       d="m 122.73591,56.9375 c -10.5355,0 -19.09375,8.66678 -19.09375,19.3125 0,10.64571 8.55825,19.28125 19.09375,19.28125 8.30634,0 15.34774,-5.3851 17.96875,-12.875 l -11.21875,0 c 0,2.63114 -3.02309,4.25 -6.75,4.25 -4.41196,0 -6.69286,-3.97548 -6.78125,-9 l 25.75,0 c 0.0464,-0.54792 0.0937,-1.09627 0.0937,-1.65625 0,-10.64571 -8.527,-19.3125 -19.0625,-19.3125 z m 0,8.15625 c 3.71157,0 6.72505,2.10264 6.75,4.71875 l -13.5,0 c 0.0249,-2.61611 3.03843,-4.71875 6.75,-4.71875 z"
       style="font-size:69.54857635px;font-style:normal;font-variant:normal;font-weight:bold;font-stretch:normal;text-indent:0;text-align:start;text-decoration:none;line-height:normal;letter-spacing:normal;word-spacing:normal;text-transform:none;direction:ltr;block-progression:tb;writing-mode:lr-tb;text-anchor:start;fill:#f7cbc6;fill-opacity:1;fill-rule:nonzero;stroke:#f3b1aa;stroke-width:2;stroke-linecap:butt;stroke-linejoin:round;stroke-miterlimit:4;stroke-opacity:1;stroke-dasharray:none;stroke-dashoffset:0;marker:none;visibility:visible;display:inline;overflow:visible;enable-background:accumulate;font-family:Bitstream Vera Sans;-inkscape-font-specification:Bitstream Vera Sans Bold" />
    <path
       sodipodi:nodetypes="cccczcccczccccscsccc"
       id="path3530"
       d="m 148.80355,56.96875 0,38.5625 12.34375,0 0,-18.65625 c 0,0 1.40008,-5.41406 6.15625,-5.41406 4.88108,0 6.15625,5.4375 6.15625,5.4375 l 0,18.63281 12.34375,0 0,-18.65625 c 0,0 1.62221,-5.54081 6.14062,-5.41406 4.45596,0.125 6.14063,5.41406 6.14063,5.41406 l 0,18.65625 12.34375,0 0,-18.65625 c -0.26783,-9.17491 -3.15611,-17.788636 -12.4598,-17.75781 -6.7028,0.02242 -9.16901,2.944491 -12.3125,5.35156 -2.125,-2.061227 -3.90719,-5.315255 -12.0625,-5.35156 -4.72566,-0.02104 -8.27483,2.578252 -12.44645,5.41406 l 0,-7.5625 -12.34375,0 z"
       style="fill:#f7cbc6;fill-opacity:1;fill-rule:nonzero;stroke:#f3b1aa;stroke-width:2;stroke-linecap:butt;stroke-linejoin:round;stroke-miterlimit:4;stroke-opacity:1;stroke-dasharray:none;stroke-dashoffset:0;marker:none;visibility:visible;display:inline;overflow:visible;enable-background:accumulate" />
    <path
       style="font-size:69.54857635px;font-style:normal;font-variant:normal;font-weight:bold;font-stretch:normal;text-indent:0;text-align:start;text-decoration:none;line-height:normal;letter-spacing:normal;word-spacing:normal;text-transform:none;direction:ltr;block-progression:tb;writing-mode:lr-tb;text-anchor:start;fill:#f7cbc6;fill-opacity:1;fill-rule:nonzero;stroke:#f3b1aa;stroke-width:2;stroke-linecap:butt;stroke-linejoin:round;stroke-miterlimit:4;stroke-opacity:1;stroke-dasharray:none;stroke-dashoffset:0;marker:none;visibility:visible;display:inline;overflow:visible;enable-background:accumulate;font-family:Bitstream Vera Sans;-inkscape-font-specification:Bitstream Vera Sans Bold"
       d="m 236.55913,56.9375 c -10.5355,0 -19.09375,8.66678 -19.09375,19.3125 0,10.64571 8.55825,19.28125 19.09375,19.28125 8.30634,0 15.34774,-5.3851 17.96875,-12.875 l -11.21875,0 c 0,2.63114 -3.02309,4.25 -6.75,4.25 -4.41196,0 -6.69286,-3.97548 -6.78125,-9 l 25.75,0 c 0.0464,-0.54792 0.0937,-1.09627 0.0937,-1.65625 0,-10.64571 -8.527,-19.3125 -19.0625,-19.3125 z m 0,8.15625 c 3.71157,0 6.72505,2.10264 6.75,4.71875 l -13.5,0 c 0.0249,-2.61611 3.03843,-4.71875 6.75,-4.71875 z"
       id="path3532"
       sodipodi:nodetypes="cssccsccsccccc" />
    <path
       style="fill:#b4e6fb;fill-opacity:1;fill-rule:evenodd;stroke:#86d8fb;stroke-width:2;stroke-linecap:butt;stroke-linejoin:round;stroke-miterlimit:4;stroke-opacity:1;stroke-dasharray:none"
       d="M 32.9375,2.09375 C 15.915567,2.09375 2.0937499,18.63272 2.09375,39 c 0,1.736424 0.086904,3.452105 0.28125,5.125 2.4727534,1.469259 5.0783984,3.133419 6,2.875 4.985963,-1.398075 4.178842,-9.948131 11,-8.34375 C 19.537512,29.571375 25.557752,22.25 32.9375,22.25 c 5.706493,-1e-6 10.564965,4.379728 12.5625,10.5625 l 17.84375,0 C 60.881465,15.38474 48.198255,2.09375 32.9375,2.09375 z m 12.59375,43.0625 c -0.50396,1.58772 -1.215708,3.034011 -2.0625,4.34375 3.690462,3.080605 8.460633,-0.975209 12.3125,4.4375 0.604548,0.849521 2.629898,1.379359 4.71875,1.59375 1.352491,-3.22078 2.327449,-6.701758 2.84375,-10.375 l -17.8125,0 z"
       transform="translate(1.718751,23.59375)"
       id="path3810"
       sodipodi:nodetypes="cscscscccccsccc" />
    <path
       style="fill:#b4e6fb;fill-opacity:1;fill-rule:evenodd;stroke:#86d8fb;stroke-width:2;stroke-linecap:butt;stroke-linejoin:round;stroke-miterlimit:4;stroke-opacity:1;stroke-dasharray:none"
       d="m 121.03125,33.34375 c -10.33687,0 -18.74817,8.34929 -19.0625,18.71875 4.2753,-2.64461 8.46028,-5.7013 10.96875,3.125 0.46634,0.17549 0.92081,0.31142 1.375,0.375 -0.0384,-0.40572 -0.0551,-0.82772 -0.0625,-1.25 l 5.21875,0 c 6.69093,-4.81546 9.80314,-8.51214 14.59375,0 l 5.9375,0 c 0.0463,-0.54792 0.0937,-1.09627 0.0937,-1.65625 -1e-5,-10.64571 -8.527,-19.3125 -19.0625,-19.3125 z m 0,8.15625 c 3.71157,0 6.72505,2.10264 6.75,4.71875 l -13.5,0 c 0.025,-2.61611 3.03843,-4.71875 6.75,-4.71875 z"
       transform="translate(1.718751,23.59375)"
       id="path3808" />
    <path
       style="fill:#b4e6fb;fill-opacity:1;fill-rule:evenodd;stroke:#86d8fb;stroke-width:2;stroke-linecap:butt;stroke-linejoin:round;stroke-miterlimit:4;stroke-opacity:1;stroke-dasharray:none"
       d="m 234.84375,33.34375 c -10.5355,0 -19.09375,8.66678 -19.09375,19.3125 0,0.93853 0.0902,1.84725 0.21875,2.75 5.03199,-2.28461 9.89976,-7.07968 14.5,-1.09375 l 23.34375,0 c 0.0464,-0.54792 0.0937,-1.09627 0.0937,-1.65625 0,-10.64571 -8.527,-19.3125 -19.0625,-19.3125 z m 0,8.15625 c 3.71157,0 6.72505,2.10264 6.75,4.71875 l -13.5,0 c 0.0249,-2.61611 3.03843,-4.71875 6.75,-4.71875 z"
       transform="translate(1.718751,23.59375)"
       id="path3806" />
    <path
       style="fill:#b4e6fb;fill-opacity:1;fill-rule:evenodd;stroke:#86d8fb;stroke-width:2;stroke-linecap:butt;stroke-linejoin:round;stroke-miterlimit:4;stroke-opacity:1;stroke-dasharray:none"
       d="m 72.281251,56.96875 0,14.25 c 2.034172,-0.57104 4.190904,0.07942 6.71875,3.40625 2.539799,5.01524 6.811066,-1.19222 11.28125,-1.28125 2.129037,-1.0957 4.349835,-1.86488 6.65625,-1.875 l 0,-12.34375 c -4.285615,0.0022 -8.03993,2.22464 -12.34375,5.4375 l 0,-7.59375 -12.3125,0 z"
       id="path3804" />
    <path
       style="fill:#b4e6fb;fill-opacity:1;fill-rule:evenodd;stroke:#86d8fb;stroke-width:2;stroke-linecap:butt;stroke-linejoin:round;stroke-miterlimit:4;stroke-opacity:1;stroke-dasharray:none"
       d="m 147.09375,33.375 0,15.28125 c 4.45625,2.648581 0.6348,13.538193 9.15625,10.78125 0.88561,-0.427308 2.11905,-0.927629 3.1875,-1.65625 l 0,-4.5 c 0,0 0.23267,-0.890817 0.8125,-1.9375 0.0113,-0.02272 0.0183,-0.03953 0.0312,-0.0625 0.79525,-2.57135 1.70587,-4.45724 3.78125,-3.21875 0.21279,-0.05962 0.42705,-0.09458 0.65625,-0.125 0.27568,-0.03658 0.57035,-0.0625 0.875,-0.0625 0.9152,0 1.69797,0.189362 2.375,0.5 0.22568,0.103546 0.42351,0.216309 0.625,0.34375 0.008,0.0047 0.0237,-0.0048 0.0312,0 0.39409,0.251803 0.75506,0.562107 1.0625,0.875 1.56525,1.593018 2.0625,3.71875 2.0625,3.71875 l 0,2.625 c 3.75612,1.3638 2.63342,-4.13559 5.8125,-4.21875 3.17993,-0.08318 1.0354,7.11495 6.53125,7.65625 l 0,-6.09375 c 1e-5,0 1.60659,-5.533 6.125,-5.40625 0.83549,0.02344 1.57095,0.213619 2.21875,0.53125 0.86513,0.422912 1.56321,1.05902 2.125,1.71875 0.13994,0.165173 0.28398,0.332764 0.40625,0.5 6.79071,-4.51836 11.18793,-2.01168 13.75,4.9375 l 0,-2.28125 c -0.26782,-9.17491 -3.16506,-17.780826 -12.46875,-17.75 -6.7028,0.02242 -9.16901,2.936681 -12.3125,5.34375 -2.125,-2.061227 -3.90719,-5.307445 -12.0625,-5.34375 -4.72566,-0.02104 -8.26588,2.570442 -12.4375,5.40625 l 0,-7.5625 -12.34375,0 z"
       transform="translate(1.718751,23.59375)"
       id="path3802" />
    <path
       style="fill:#b4e6fb;fill-opacity:1;fill-rule:evenodd;stroke:#86d8fb;stroke-width:2;stroke-linecap:butt;stroke-linejoin:round;stroke-miterlimit:4;stroke-opacity:1;stroke-dasharray:none"
       d="m 243.3125,82.65625 c 0,0.56802 -0.1478,1.09494 -0.40625,1.5625 2.86116,2.418772 5.84646,0.532054 6.46875,-1.5625 l -6.0625,0 z"
       id="path3534"
       sodipodi:nodetypes="cccc" />
    <path
       style="font-size:33.04305267px;font-style:normal;font-variant:normal;font-weight:bold;font-stretch:normal;fill:#000000;fill-opacity:1;stroke:none;font-family:Purisa;-inkscape-font-specification:Bitstream Vera Sans"
       d="m 194.03125,-11.53125 c -3.26855,0.118686 -2.0673,4.2983289 -2.47772,6.4581221 -0.10147,4.14369431 0.0904,8.32977 -0.20978,12.4481279 -2.57468,-3.2359476 -7.30171,-5.8277715 -11.01423,-2.6357528 -4.38692,3.3017554 -6.96895,10.4003108 -3.18388,15.0660638 3.55159,3.887669 10.3521,2.191818 12.94009,-1.979945 2.85324,-1.997527 -0.002,4.81244 2.85162,5.612134 3.25501,0.365426 1.6883,-4.179299 1.78954,-6.108213 -0.44789,-8.794353 0.0799,-17.59530486 0.14796,-26.391787 0.32732,-0.8643847 0.19351,-2.165449 -0.8436,-2.46875 z m 28.25,4.5625 c -2.78452,1.4743266 -0.90664,5.0917017 -1.09024,7.51155004 0.84096,5.65150976 1.35538,11.33793996 1.33715,17.05313796 -0.35294,3.478518 3.46552,6.109583 6.48589,4.370996 6.14792,-2.182456 10.94371,-9.198197 8.94415,-15.7304613 -1.40672,-4.4737135 -6.91195,-3.5439138 -9.45928,-0.7560264 -1.56056,1.0177899 -3.92161,5.1271507 -3.59903,1.1425902 -0.74453,-4.156931 -0.78155,-8.4015057 -1.44669,-12.5554269 -0.13285,-0.5270263 -0.53211,-1.1328907 -1.17195,-1.0363596 z M 62.5,-5.84375 c -4.047353,0.4086584 -8.936701,-0.4451514 -11.28094,3.7492337 -1.825781,1.39327533 0.379187,3.9203246 2.06219,2.34451634 -0.03971,7.34202066 0.63979,14.67258396 1.241818,21.96300996 0.892273,2.992832 4.177824,0.532857 3.062861,-1.821383 0.78865,-2.892526 -1.73424,-8.325865 0.570321,-9.672877 C 64.345508,10.591715 70.252378,4.6099828 69.444945,-1.7156264 69.050591,-5.1528907 65.297142,-5.7653718 62.5,-5.84375 z M 61.59375,-2.375 c 3.373619,-0.4371812 6.457115,2.08928274 3.809057,5.3530248 C 64.080799,5.880363 60.780565,7.2954676 57.84375,7.4375 55.983552,5.1982204 55.502945,0.23915184 57.8125,-1.78125 58.98148,-2.3410795 60.319799,-2.4060685 61.59375,-2.375 z M 84.75,2.09375 C 79.179635,2.019845 73.827756,6.273687 72.448243,11.629066 70.938383,16.858508 75.439512,23.083925 81.0625,22.34375 86.78025,22.022386 90.04196,16.061367 90.66278,10.947468 91.37563,7.784515 90.73828,3.0518272 86.916124,2.3806787 86.207162,2.2077686 85.479583,2.1108181 84.75,2.09375 z m 39.84375,0.6875 c -3.49869,0.1547371 -6.21134,3.3069848 -7.46348,6.351094 -1.83435,4.896642 0.62897,11.444125 6.03366,12.747229 4.10256,0.866473 8.18034,-1.967154 10.45576,-5.172086 0.2096,-0.611012 1.6471,-2.640745 0.38001,-2.876132 -3.42466,1.644438 -5.69305,6.255576 -10.02096,5.49811 -2.53894,-0.220658 -6.2928,-5.188854 -4.01004,-6.798215 3.97776,-0.482152 8.99756,0.272043 11.97684,-2.890419 1.67068,-2.8065752 -1.83721,-5.7398122 -4.28916,-6.4832222 -0.98603,-0.3161287 -2.02886,-0.4472782 -3.06263,-0.3763588 z m 37.75,0 c -3.63822,0.1827868 -6.4414,3.5330319 -7.58536,6.765075 -1.51842,4.818958 0.89287,11.073111 6.15243,12.333358 4.10364,0.866772 8.18289,-1.965988 10.45887,-5.172201 0.20961,-0.611009 1.6471,-2.640741 0.38001,-2.876127 -3.42466,1.644446 -5.69305,6.255572 -10.02096,5.49811 -2.53894,-0.220658 -6.2928,-5.188854 -4.01004,-6.798215 3.97776,-0.482152 8.99756,0.272043 11.97684,-2.890419 1.67068,-2.8065753 -1.8372,-5.739813 -4.28916,-6.4832225 -0.98603,-0.3161284 -2.02886,-0.4472778 -3.06263,-0.3763585 z m -48.96875,0.125 c -1.88404,-0.4809155 -1.6114,2.1010301 -2.20851,3.1460108 -0.96478,3.4268932 -1.30501,6.9949792 -2.29149,10.4164892 -1.98083,-1.884084 -3.01556,-6.914992 -6.71875,-5.375 -1.88164,1.222308 -1.77063,6.306384 -2.85497,6.151529 C 98.33477,13.245762 97.14425,9.314413 96.47855,5.2609245 97.02249,2.5552037 92.67404,2.5696128 93.63936,4.863378 c 1.13465,4.572378 2.28532,9.139602 3.14442,13.771743 0.37071,1.240277 1.20399,4.03922 2.886,3.788897 2.19894,-2.298457 2.28353,-7.007694 4.25643,-8.58438 2.45449,1.824301 2.2764,6.955032 6.05818,6.869469 2.37461,-5.237008 2.76884,-11.156534 4.25501,-16.6613274 0.002,-0.5133682 -0.32616,-1.0524644 -0.8644,-1.1415296 z m 26.5625,0.40625 c -2.80042,1.1193232 -0.74932,5.628747 -1.26122,7.870353 0.80515,3.749804 -0.48921,8.129236 1.74513,11.451285 3.66773,-0.739716 1.88173,-6.75218 4.08436,-9.397564 1.27509,-2.175656 2.46073,-4.602564 4.96298,-5.549074 3.7414,-2.0398098 -1.78915,-4.2178391 -3.28112,-1.5053167 -2.05704,0.7953019 -3.44588,5.1115597 -4.45435,5.0449627 C 141.09897,8.722392 141.41633,6.0627141 140.6563,3.625 l -0.31632,-0.2338859 -0.40243,-0.078614 -5e-5,0 z m 112,0.25 c -1.40834,1.3803106 -1.20583,3.9899177 -1.875,5.78125 -0.50068,2.080202 -2.7627,8.340823 -5.2135,5.831555 -0.63799,-2.622004 -0.0242,-5.378956 -0.0727,-8.0761276 -0.0446,-0.7289152 -0.17971,-3.1292609 -1.38089,-2.7149166 -2.45946,3.3653583 -1.00584,7.7585722 -1.219,11.5960492 0.3917,4.415369 6.21594,3.304229 7.82354,0.33219 0.86734,3.536156 -5.8559,5.205029 -3.33308,9.495562 0.67395,2.490135 3.83326,5.208428 6.33783,3.504701 0.53075,-3.218243 0.45458,-6.503412 0.2765,-9.750263 2.73354,-0.172203 3.41034,-4.897291 0,-3.09375 -1.87384,-1.082257 -0.35513,-6.055492 0.0348,-8.4372532 C 253.87325,6.4921602 254.80744,3.183689 251.9375,3.5625 z M 84.8125,5.09375 c 3.63344,-0.03443 3.99615,4.616392 2.689814,7.122195 C 86.564912,15.47173 84.520631,19.816188 80.53125,19.625 75.955693,19.44878 74.011052,13.353749 76.648256,9.98961 78.236486,6.6873048 81.443807,5.481189 84.8125,5.09375 z M 125.25,5.125 c 2.79143,-0.4793366 6.71295,4.166397 1.79971,4.166273 -2.25098,0.157059 -9.28104,2.642084 -6.03127,-1.6760081 C 122.06858,6.3258617 123.55798,5.2850879 125.25,5.125 z m 37.75,0 c 2.79143,-0.4793359 6.71295,4.166397 1.79971,4.166273 -2.25098,0.157061 -9.28104,2.642082 -6.03127,-1.6760077 C 159.81858,6.3258618 161.30798,5.2850878 163,5.125 z m 70.625,0.9375 c 3.398,0.390103 2.05504,4.928486 1.3911,7.110847 -1.39965,2.918767 -3.89564,5.778661 -7.1411,6.545403 -4.33093,-1.356603 -1.59993,-8.566977 1.06244,-10.84905 1.35587,-1.3122202 2.49097,-2.9900533 4.68756,-2.8072 z M 184.4375,6.375 c 2.71631,0.6881705 5.22479,3.241415 6.0578,5.955436 -1.19441,3.252578 -4.86823,6.574664 -8.62019,6.688211 -4.10833,-0.553005 -4.44215,-6.661083 -1.89823,-9.132307 1.17519,-1.455662 2.46823,-3.2336292 4.46062,-3.51134 z M 250.5,21.46875 c 0.0892,1.519961 1.61483,7.477161 -1.24284,4.095792 -0.69166,-1.398304 0.59871,-2.9341 1.24284,-4.095792 z"
       id="path2957" />
  </g>
</svg>
