<?xml version="1.0" encoding="UTF-8" standalone="no"?>
<!-- Created with Inkscape (http://www.inkscape.org/) -->

<svg
   width="128"
   height="128"
   id="svg2"
   sodipodi:version="0.32"
   inkscape:version="1.3.2 (1:1.3.2+202311252150+091e20ef0f)"
   sodipodi:docname="creme_grey.svg"
   inkscape:output_extension="org.inkscape.output.svg.inkscape"
   version="1.0"
   style="display:inline"
   inkscape:export-filename="creme_256_cropped.png"
   inkscape:export-xdpi="180"
   inkscape:export-ydpi="180"
   xmlns:inkscape="http://www.inkscape.org/namespaces/inkscape"
   xmlns:sodipodi="http://sodipodi.sourceforge.net/DTD/sodipodi-0.dtd"
   xmlns:xlink="http://www.w3.org/1999/xlink"
   xmlns="http://www.w3.org/2000/svg"
   xmlns:svg="http://www.w3.org/2000/svg"
   xmlns:rdf="http://www.w3.org/1999/02/22-rdf-syntax-ns#"
   xmlns:cc="http://creativecommons.org/ns#"
   xmlns:dc="http://purl.org/dc/elements/1.1/">
  <defs
     id="defs4">
    <linearGradient
       inkscape:collect="always"
       xlink:href="#linearGradient3834-0-7-118-6-4-8-4-0"
       id="linearGradient4860-2"
       gradientUnits="userSpaceOnUse"
       gradientTransform="matrix(0.06787012,-0.11721473,0.06144434,0.1061171,-246.84004,68.261397)"
       x1="2401.3184"
       y1="2127.8779"
       x2="2164.6956"
       y2="2861.2183" />
    <linearGradient
       id="linearGradient3834-0-7-118-6-4-8-4-0">
      <stop
         id="stop3836-1-1-88-7-5-5-7-9"
         offset="0"
         style="stop-color:#626262;stop-opacity:1;" />
      <stop
         id="stop3838-0-6-22-3-8-6-4-6"
         offset="1"
         style="stop-color:#707070;stop-opacity:1;" />
    </linearGradient>
    <filter
       id="filter3822-9-6-4-3-9-7-1-5"
       inkscape:collect="always"
       color-interpolation-filters="sRGB"
       x="-0.080166109"
       y="-0.056181653"
       width="1.1603322"
       height="1.1123633">
      <feGaussianBlur
         id="feGaussianBlur3824-5-7-3-1-6-3-2-5"
         stdDeviation="2.8610366"
         inkscape:collect="always" />
    </filter>
    <filter
       id="filter3822-2-7-6-8-3-5-7-2"
       inkscape:collect="always"
       color-interpolation-filters="sRGB"
       x="-0.080649802"
       y="-0.054468916"
       width="1.1612996"
       height="1.1089378">
      <feGaussianBlur
         id="feGaussianBlur3824-4-8-9-4-4-3-5-7"
         stdDeviation="2.8610366"
         inkscape:collect="always" />
    </filter>
    <mask
       maskUnits="userSpaceOnUse"
       id="mask5071">
      <path
         inkscape:connector-curvature="0"
         id="path5073"
         d="m 64.875,0.65625 c -3.20599,0.047269 -5.98789,2.2371633 -8.28125,4.71875 -2.48334,2.6871669 -4.44139,6.036229 -5.75,9.09375 -0.0161,0.0377 -0.0778,0.05614 -0.0937,0.09375 l -4.09375,5.59375 c -2.49065,2.319889 -4.07525,5.357734 -5.5625,8.28125 -1.56684,3.079964 -3.09106,6.018335 -5.03125,8.03125 -2.96807,2.19334 -6.45171,5.210681 -9.28125,8.8125 -2.67436,3.404274 -4.73357,7.360574 -4.96875,11.625 -1.8029,1.708088 -2.3897,4.285232 -2.21875,6.5625 0.13456,1.792511 0.70652,3.477582 1.5,5 0.083,0.801106 0.16529,1.586305 0.28125,2.375 -0.37457,1.24367 -0.72095,2.573369 -1,4.1875 -0.45257,2.617832 -0.86385,4.987631 -0.4375,7.125 l 0,0.03125 c 0.338,1.602637 1.04589,3.116977 2.3125,4.3125 1.13139,1.06789 2.90591,1.771594 4.6875,1.46875 -0.2987,-0.566875 -0.54695,-1.326702 -0.75,-2.1875 -0.17139,-0.57339 -0.43168,-2.245445 -0.5,-2.75 -1.2973,-0.338109 -0.96643,-0.784638 -1.28125,-2.25 -0.007,-0.03208 0.008,-0.06065 0,-0.09375 -0.14004,-2.590421 0.37765,-7.542738 3.09375,-10.96875 -1.49615,-1.302715 -2.65083,-3.399712 -2.65625,-3.375 -0.51655,-1.063087 -0.81631,-1.96096 -0.90625,-3.1875 -0.0294,-2.171983 0.48368,-3.034081 2.15625,-3.96875 l -0.0313,-1.21875 c -0.103,-3.157632 1.58628,-6.724795 4.15625,-10 2.56997,-3.275205 5.95178,-6.204505 8.71875,-8.21875 l 0.125,-0.125 0.125,-0.125 c 2.5939,-2.691135 4.22733,-6.03748 5.78125,-9.09375 1.55392,-3.05627 3.04912,-5.801007 4.875,-7.375 L 50,22.90625 l 0.15625,-0.1875 4.1875,-5.6875 0.125,-0.21875 0.0937,-0.21875 c 1.06377,-2.626989 2.99264,-5.65754 5.15625,-7.90625 2.04845,-2.1290209 4.26922,-3.3546913 5.875,-3.5 0.58478,0.2820185 1.09685,0.5855653 1.15625,0.6875 0.0786,0.1348316 0.10585,0.2802365 0,0.75 -0.10585,0.4697635 -0.38486,1.1335955 -0.6875,1.875 -0.30264,0.7414045 -0.73279,1.543337 -0.59375,2.8125 l 0.0625,0.375 0.1875,0.34375 c 2.50701,4.679338 5.81095,9.217606 9.34375,11.875 l 0.625,0.5 0.8125,-0.125 c 3.93438,-0.523054 7.28404,1.488869 10.0625,5.1875 l 0.3125,0.4375 0.5,0.21875 c 3.29426,1.391198 7.24183,5.371696 10,10.5 2.75817,5.128304 4.36418,11.348602 3.71875,16.96875 L 101.0312,58.25 c 1.40339,1.299194 2.14951,2.5625 3.375,4.28125 0.002,-0.01346 -0.002,-0.04812 0,-0.0625 0.003,-0.0096 -0.003,-0.02161 0,-0.03125 1.68043,-5.416567 1.3485,-11.335392 -0.25,-16.6875 -2.59824,-8.699487 -8.09672,-16.189732 -14.4375,-19.21875 -3.09251,-3.936999 -7.45131,-6.6513 -12.46875,-6.5 -2.40434,-1.964023 -5.16751,-5.594765 -7.3125,-9.4375 C 69.97345,10.52727 69.96325,10.50246 70.1562,10 70.43058,9.2854661 70.8189,8.3604642 71.06245,7.25 71.306,6.1395354 71.36836,4.618065 70.49995,3.25 69.63155,1.881935 68.10154,1.1074138 66.2812,0.78125 65.80573,0.696056 65.33295,0.6494972 64.87495,0.65625 z m 39.53125,61.875 c -1.10671,3.513689 -3.09586,6.832797 -6.15625,9.625 -0.71066,1.783206 -1.78406,3.173925 -3.15625,3.8125 -0.57055,0.265516 -1.10181,0.358125 -1.625,0.46875 0.44228,1.69911 0.92439,3.322951 1.125,5.25 0.153,1.469581 0.21464,2.926222 0.0937,4.28125 -0.10926,1.224738 -0.39212,2.392416 -1.09375,3.5 l 0.0625,0 c -0.0281,0.05635 -0.0957,0.101081 -0.125,0.15625 -0.0476,0.07033 -0.0418,0.148981 -0.0937,0.21875 l -0.0312,-0.0625 c -1.52542,2.642165 -4.56728,4.112268 -7.40625,3.3125 -1.644,-0.463132 -2.83502,-2.34325 -3.125,-3.90625 -0.53416,-3.277148 0.39932,-6.631869 1.21875,-9.5 l 0,-0.03125 c 0.0242,-0.08326 0.0105,-0.228828 0.0312,-0.34375 -0.63588,0.584632 -1.70126,1.43675 -3.25,1.53125 l 0,0.03125 c -0.0438,0.0034 -0.0817,-0.0027 -0.125,0 -0.0144,8.79e-4 -0.0169,-8.04e-4 -0.0312,0 -1.33332,0.07449 -2.46096,-0.158349 -3.3125,-0.28125 -0.88829,-0.128206 -1.43915,-0.135485 -1.875,0 l -0.125,0.03125 -0.0625,0 c -1.82005,0.409165 -3.72208,0.583333 -5.65625,0.4375 l 0,0.03125 c -1.00311,-0.01223 -1.92338,-0.07423 -2.40625,0 -0.48287,0.07423 -0.27825,-0.01865 -0.34375,0.125 l -0.0312,0.0625 -0.0312,0.0625 c -0.65504,1.170272 -1.25043,2.937154 -2.4375,4.5625 -0.59354,0.812672 -1.46335,1.681812 -2.71875,2.0625 -1.2554,0.380687 -2.63254,0.162357 -3.875,-0.4375 C 54.89324,86.106728 52.77307,83.430909 52.25,80.4375 49.92942,80.268135 47.4281,80.006588 44.9375,78.78125 44.17837,78.445054 42.76583,78.603445 40.625,78.34375 L 40.5,78.3125 l -0.0625,0 c -0.91539,-0.188116 -1.37963,-0.604455 -1.84375,-0.96875 -0.0826,0.148581 -0.11622,0.19781 -0.21875,0.375 -0.33484,0.578661 -0.78038,1.392744 -1.875,1.96875 -1.09462,0.576006 -2.61122,0.475017 -3.71875,-0.0625 -1.87588,-0.910419 -3.10226,-2.512318 -3.46875,-4 -0.10642,-0.431975 -0.004,-0.621414 -0.0312,-1 -0.0403,0.5018 -0.2571,1.268079 -0.21875,1.625 l 0,0.03125 0,0.0625 c 0.0734,0.869755 0.71501,2.546048 1.09375,4.46875 0.18937,0.961351 0.31621,2.001483 0.125,3.15625 -0.19121,1.154768 -0.76374,2.428082 -1.78125,3.34375 l -0.40625,0.34375 -0.5,0.15625 c -0.21149,0.0655 -0.44332,0.120054 -0.65625,0.15625 3.98296,7.551197 9.69506,13.74686 16.53125,17.875 -0.0146,0.15206 -0.0937,0.28331 -0.0937,0.4375 0,0.35091 0.24034,0.60422 0.3125,0.9375 -2.84848,2.42687 -4.8125,5.58519 -4.8125,9.15625 0,1.96407 1.07409,3.65215 2.46875,4.9375 1.39466,1.28535 3.19126,2.26633 5.3125,3.09375 4.24248,1.65483 9.79499,2.65625 15.9375,2.65625 6.14251,0 11.72627,-1.00141 15.96875,-2.65625 2.12124,-0.82742 3.91784,-1.8084 5.3125,-3.09375 1.39466,-1.28535 2.4375,-2.97344 2.4375,-4.9375 0,-3.57106 -1.96402,-6.72938 -4.8125,-9.15625 0.0722,-0.33328 0.34375,-0.58659 0.34375,-0.9375 0,-0.16008 -0.14051,-0.28061 -0.15625,-0.4375 13.55255,-8.179998 22.69527,-24.505141 22.71875,-43.3125 z M 63.375,14.34375 c -11.91487,9.68642 -2.95104,17.463504 -3.78125,35.625 -0.32195,4.834582 -8.35389,11.885176 -17.0625,19.375 C 52.25845,67.439529 67.33314,59.310508 68,50.3125 69.09445,34.332869 56.33522,28.716428 61.625,22.875 c 2.39499,3.198979 2.17253,1.978739 7.59375,6.6875 C 75.95088,35.409886 82.13549,41.661345 71.1875,56.75 96.14322,45.115492 85.06105,32.341989 66.3125,24.5625 63.20898,21.790297 61.32187,18.876256 63.375,14.34375 z m -10.15625,12 c -3.53054,2.556114 -2.01214,10.931994 -5.25,18.5 -3.03712,7.098808 -17.58771,9.634299 -16.875,22.5625 2.61529,-2.378954 21.01988,-11.143429 21.1875,-22.46875 0.26697,-18.037962 -0.36757,-11.553446 0.9375,-18.59375 z m 32.125,6.6875 c 7.30735,7.667755 9.08996,28.674963 -1.03125,37.71875 2.48669,7.127036 5.27446,16.700225 2.09375,15.75 1.46552,2.380341 3.24086,1.165112 3.84375,0.46875 C 92.25516,84.793548 91.3379,77.959267 90,74.3125 112.41228,58.726847 95.46586,36.562297 85.34375,33.03125 z M 88,48 C 83.98403,58.229129 70.37512,66.585816 56.625,72.21875 81.00466,74.641664 85.48688,64.971393 88,48 z M 64.5,75.25 c -3.42075,3.391871 -5.16247,7.214956 -8.5,6.40625 0.20187,0.894466 2.73526,3.698255 4.6875,3.53125 4.60141,-1.885533 5.0578,-7.875223 3.8125,-9.9375 z"
         style="font-size:medium;font-style:normal;font-variant:normal;font-weight:normal;font-stretch:normal;text-indent:0;text-align:start;text-decoration:none;line-height:normal;letter-spacing:normal;word-spacing:normal;text-transform:none;direction:ltr;block-progression:tb;writing-mode:lr-tb;text-anchor:start;baseline-shift:baseline;color:#000000;fill:#ffffff;fill-opacity:1;fill-rule:nonzero;stroke:none;stroke-width:9.3633728;marker:none;visibility:visible;display:inline;overflow:visible;enable-background:accumulate;font-family:Sans;-inkscape-font-specification:Sans" />
    </mask>
  </defs>
  <sodipodi:namedview
     id="base"
     pagecolor="#ffffff"
     bordercolor="#666666"
     borderopacity="1.0"
     inkscape:pageopacity="0.0"
     inkscape:pageshadow="2"
     inkscape:zoom="1.4142136"
     inkscape:cx="164.04877"
     inkscape:cy="34.294678"
     inkscape:document-units="px"
     inkscape:current-layer="layer1"
     showgrid="true"
     inkscape:window-width="1868"
     inkscape:window-height="1016"
     inkscape:window-x="52"
     inkscape:window-y="27"
     showguides="true"
     inkscape:guide-bbox="true"
     inkscape:window-maximized="1"
     inkscape:snap-global="true"
     inkscape:showpageshadow="2"
     inkscape:pagecheckerboard="true"
     inkscape:deskcolor="#d1d1d1">
    <sodipodi:guide
       orientation="1,0"
       position="390,355"
       id="guide3305"
       inkscape:locked="false" />
    <sodipodi:guide
       orientation="1,0"
       position="64,46.130858"
       id="guide5031"
       inkscape:locked="false" />
    <inkscape:grid
       type="xygrid"
       id="grid4720"
       empspacing="4"
       visible="true"
       enabled="true"
       snapvisiblegridlinesonly="true"
       originx="0"
       originy="0"
       spacingy="1"
       spacingx="1"
       units="px" />
  </sodipodi:namedview>
  <metadata
     id="metadata7">
    <rdf:RDF>
      <cc:Work
         rdf:about="">
        <dc:format>image/svg+xml</dc:format>
        <dc:type
           rdf:resource="http://purl.org/dc/dcmitype/StillImage" />
        <cc:license
           rdf:resource="http://creativecommons.org/licenses/by-sa/4.0/" />
      </cc:Work>
      <cc:License
         rdf:about="http://creativecommons.org/licenses/by-sa/4.0/">
        <cc:permits
           rdf:resource="http://creativecommons.org/ns#Reproduction" />
        <cc:permits
           rdf:resource="http://creativecommons.org/ns#Distribution" />
        <cc:requires
           rdf:resource="http://creativecommons.org/ns#Notice" />
        <cc:requires
           rdf:resource="http://creativecommons.org/ns#Attribution" />
        <cc:permits
           rdf:resource="http://creativecommons.org/ns#DerivativeWorks" />
        <cc:requires
           rdf:resource="http://creativecommons.org/ns#ShareAlike" />
      </cc:License>
    </rdf:RDF>
  </metadata>
  <g
     inkscape:groupmode="layer"
     id="layer1"
     inkscape:label="bg"
     style="display:none">
    <rect
       style="color:#000000;fill:#e6e6e6;fill-opacity:1;stroke:none;stroke-width:2;marker:none;visibility:visible;display:inline;overflow:visible;enable-background:accumulate"
       id="rect3815"
       width="128"
       height="128"
       x="0"
       y="0" />
  </g>
  <g
     inkscape:groupmode="layer"
     id="layer3"
     inkscape:label="outline"
     style="display:inline">
    <path
       inkscape:connector-curvature="0"
       id="path3039"
       d="m 64.875,0.65625 c -3.20599,0.047269 -5.98789,2.2371633 -8.28125,4.71875 -2.48334,2.6871669 -4.44139,6.036229 -5.75,9.09375 -0.0161,0.0377 -0.0778,0.05614 -0.0937,0.09375 l -4.09375,5.59375 c -2.49065,2.319889 -4.07525,5.357734 -5.5625,8.28125 -1.56684,3.079964 -3.09106,6.018335 -5.03125,8.03125 -2.96807,2.19334 -6.45171,5.210681 -9.28125,8.8125 -2.67436,3.404274 -4.73357,7.360574 -4.96875,11.625 -1.8029,1.708088 -2.3897,4.285232 -2.21875,6.5625 0.13456,1.792511 0.70652,3.477582 1.5,5 0.083,0.801106 0.16529,1.586305 0.28125,2.375 -0.37457,1.24367 -0.72095,2.573369 -1,4.1875 -0.45257,2.617832 -0.86385,4.987631 -0.4375,7.125 l 0,0.03125 c 0.338,1.602637 1.04589,3.116977 2.3125,4.3125 1.13139,1.06789 2.90591,1.771594 4.6875,1.46875 -0.2987,-0.566875 -0.54695,-1.326702 -0.75,-2.1875 -0.17139,-0.57339 -0.43168,-2.245445 -0.5,-2.75 -1.2973,-0.338109 -0.96643,-0.784638 -1.28125,-2.25 -0.007,-0.03208 0.008,-0.06065 0,-0.09375 -0.14004,-2.590421 0.37765,-7.542738 3.09375,-10.96875 -1.49615,-1.302715 -2.65083,-3.399712 -2.65625,-3.375 -0.51655,-1.063087 -0.81631,-1.96096 -0.90625,-3.1875 -0.0294,-2.171983 0.48368,-3.034081 2.15625,-3.96875 l -0.0313,-1.21875 c -0.103,-3.157632 1.58628,-6.724795 4.15625,-10 2.56997,-3.275205 5.95178,-6.204505 8.71875,-8.21875 l 0.125,-0.125 0.125,-0.125 c 2.5939,-2.691135 4.22733,-6.03748 5.78125,-9.09375 1.55392,-3.05627 3.04912,-5.801007 4.875,-7.375 L 50,22.90625 l 0.15625,-0.1875 4.1875,-5.6875 0.125,-0.21875 0.0937,-0.21875 c 1.06377,-2.626989 2.99264,-5.65754 5.15625,-7.90625 2.04845,-2.1290209 4.26922,-3.3546913 5.875,-3.5 0.58478,0.2820185 1.09685,0.5855653 1.15625,0.6875 0.0786,0.1348316 0.10585,0.2802365 0,0.75 -0.10585,0.4697635 -0.38486,1.1335955 -0.6875,1.875 -0.30264,0.7414045 -0.73279,1.543337 -0.59375,2.8125 l 0.0625,0.375 0.1875,0.34375 c 2.50701,4.679338 5.81095,9.217606 9.34375,11.875 l 0.625,0.5 0.8125,-0.125 c 3.93438,-0.523054 7.28404,1.488869 10.0625,5.1875 l 0.3125,0.4375 0.5,0.21875 c 3.29426,1.391198 7.24183,5.371696 10,10.5 2.75817,5.128304 4.36418,11.348602 3.71875,16.96875 L 101.0312,58.25 c 1.40339,1.299194 2.14951,2.5625 3.375,4.28125 0.002,-0.01346 -0.002,-0.04812 0,-0.0625 0.003,-0.0096 -0.003,-0.02161 0,-0.03125 1.68043,-5.416567 1.3485,-11.335392 -0.25,-16.6875 -2.59824,-8.699487 -8.09672,-16.189732 -14.4375,-19.21875 -3.09251,-3.936999 -7.45131,-6.6513 -12.46875,-6.5 -2.40434,-1.964023 -5.16751,-5.594765 -7.3125,-9.4375 C 69.97345,10.52727 69.96325,10.50246 70.1562,10 70.43058,9.2854661 70.8189,8.3604642 71.06245,7.25 71.306,6.1395354 71.36836,4.618065 70.49995,3.25 69.63155,1.881935 68.10154,1.1074138 66.2812,0.78125 65.80573,0.696056 65.33295,0.6494972 64.87495,0.65625 z m 39.53125,61.875 c -1.10671,3.513689 -3.09586,6.832797 -6.15625,9.625 -0.71066,1.783206 -1.78406,3.173925 -3.15625,3.8125 -0.57055,0.265516 -1.10181,0.358125 -1.625,0.46875 0.44228,1.69911 0.92439,3.322951 1.125,5.25 0.153,1.469581 0.21464,2.926222 0.0937,4.28125 -0.10926,1.224738 -0.39212,2.392416 -1.09375,3.5 l 0.0625,0 c -0.0281,0.05635 -0.0957,0.101081 -0.125,0.15625 -0.0476,0.07033 -0.0418,0.148981 -0.0937,0.21875 l -0.0312,-0.0625 c -1.52542,2.642165 -4.56728,4.112268 -7.40625,3.3125 -1.644,-0.463132 -2.83502,-2.34325 -3.125,-3.90625 -0.53416,-3.277148 0.39932,-6.631869 1.21875,-9.5 l 0,-0.03125 c 0.0242,-0.08326 0.0105,-0.228828 0.0312,-0.34375 -0.63588,0.584632 -1.70126,1.43675 -3.25,1.53125 l 0,0.03125 c -0.0438,0.0034 -0.0817,-0.0027 -0.125,0 -0.0144,8.79e-4 -0.0169,-8.04e-4 -0.0312,0 -1.33332,0.07449 -2.46096,-0.158349 -3.3125,-0.28125 -0.88829,-0.128206 -1.43915,-0.135485 -1.875,0 l -0.125,0.03125 -0.0625,0 c -1.82005,0.409165 -3.72208,0.583333 -5.65625,0.4375 l 0,0.03125 c -1.00311,-0.01223 -1.92338,-0.07423 -2.40625,0 -0.48287,0.07423 -0.27825,-0.01865 -0.34375,0.125 l -0.0312,0.0625 -0.0312,0.0625 c -0.65504,1.170272 -1.25043,2.937154 -2.4375,4.5625 -0.59354,0.812672 -1.46335,1.681812 -2.71875,2.0625 -1.2554,0.380687 -2.63254,0.162357 -3.875,-0.4375 C 54.89324,86.106728 52.77307,83.430909 52.25,80.4375 49.92942,80.268135 47.4281,80.006588 44.9375,78.78125 44.17837,78.445054 42.76583,78.603445 40.625,78.34375 L 40.5,78.3125 l -0.0625,0 c -0.91539,-0.188116 -1.37963,-0.604455 -1.84375,-0.96875 -0.0826,0.148581 -0.11622,0.19781 -0.21875,0.375 -0.33484,0.578661 -0.78038,1.392744 -1.875,1.96875 -1.09462,0.576006 -2.61122,0.475017 -3.71875,-0.0625 -1.87588,-0.910419 -3.10226,-2.512318 -3.46875,-4 -0.10642,-0.431975 -0.004,-0.621414 -0.0312,-1 -0.0403,0.5018 -0.2571,1.268079 -0.21875,1.625 l 0,0.03125 0,0.0625 c 0.0734,0.869755 0.71501,2.546048 1.09375,4.46875 0.18937,0.961351 0.31621,2.001483 0.125,3.15625 -0.19121,1.154768 -0.76374,2.428082 -1.78125,3.34375 l -0.40625,0.34375 -0.5,0.15625 c -0.21149,0.0655 -0.44332,0.120054 -0.65625,0.15625 3.98296,7.551197 9.69506,13.74686 16.53125,17.875 -0.0146,0.15206 -0.0937,0.28331 -0.0937,0.4375 0,0.35091 0.24034,0.60422 0.3125,0.9375 -2.84848,2.42687 -4.8125,5.58519 -4.8125,9.15625 0,1.96407 1.07409,3.65215 2.46875,4.9375 1.39466,1.28535 3.19126,2.26633 5.3125,3.09375 4.24248,1.65483 9.79499,2.65625 15.9375,2.65625 6.14251,0 11.72627,-1.00141 15.96875,-2.65625 2.12124,-0.82742 3.91784,-1.8084 5.3125,-3.09375 1.39466,-1.28535 2.4375,-2.97344 2.4375,-4.9375 0,-3.57106 -1.96402,-6.72938 -4.8125,-9.15625 0.0722,-0.33328 0.34375,-0.58659 0.34375,-0.9375 0,-0.16008 -0.14051,-0.28061 -0.15625,-0.4375 13.55255,-8.179998 22.69527,-24.505141 22.71875,-43.3125 z M 63.375,14.34375 c -11.91487,9.68642 -2.95104,17.463504 -3.78125,35.625 -0.32195,4.834582 -8.35389,11.885176 -17.0625,19.375 C 52.25845,67.439529 67.33314,59.310508 68,50.3125 69.09445,34.332869 56.33522,28.716428 61.625,22.875 c 2.39499,3.198979 2.17253,1.978739 7.59375,6.6875 C 75.95088,35.409886 82.13549,41.661345 71.1875,56.75 96.14322,45.115492 85.06105,32.341989 66.3125,24.5625 63.20898,21.790297 61.32187,18.876256 63.375,14.34375 z m -10.15625,12 c -3.53054,2.556114 -2.01214,10.931994 -5.25,18.5 -3.03712,7.098808 -17.58771,9.634299 -16.875,22.5625 2.61529,-2.378954 21.01988,-11.143429 21.1875,-22.46875 0.26697,-18.037962 -0.36757,-11.553446 0.9375,-18.59375 z m 32.125,6.6875 c 7.30735,7.667755 9.08996,28.674963 -1.03125,37.71875 2.48669,7.127036 5.27446,16.700225 2.09375,15.75 1.46552,2.380341 3.24086,1.165112 3.84375,0.46875 C 92.25516,84.793548 91.3379,77.959267 90,74.3125 112.41228,58.726847 95.46586,36.562297 85.34375,33.03125 z M 88,48 C 83.98403,58.229129 70.37512,66.585816 56.625,72.21875 81.00466,74.641664 85.48688,64.971393 88,48 z M 64.5,75.25 c -3.42075,3.391871 -5.16247,7.214956 -8.5,6.40625 0.20187,0.894466 2.73526,3.698255 4.6875,3.53125 4.60141,-1.885533 5.0578,-7.875223 3.8125,-9.9375 z"
       style="display:inline;font-size:medium;font-style:normal;font-variant:normal;font-weight:normal;font-stretch:normal;text-indent:0;text-align:start;text-decoration:none;line-height:normal;letter-spacing:normal;word-spacing:normal;text-transform:none;direction:ltr;block-progression:tb;writing-mode:lr-tb;text-anchor:start;baseline-shift:baseline;color:#000000;fill:none;fill-opacity:1;fill-rule:nonzero;stroke:#ffffff;stroke-width:2;marker:none;visibility:visible;overflow:visible;enable-background:accumulate;font-family:Sans;-inkscape-font-specification:Sans;stroke-opacity:1;stroke-miterlimit:4;stroke-dasharray:none" />
  </g>
  <g
     inkscape:groupmode="layer"
     id="layer2"
     inkscape:label="icon"
     style="display:inline">
    <path
       style="font-size:medium;font-style:normal;font-variant:normal;font-weight:normal;font-stretch:normal;text-indent:0;text-align:start;text-decoration:none;line-height:normal;letter-spacing:normal;word-spacing:normal;text-transform:none;direction:ltr;block-progression:tb;writing-mode:lr-tb;text-anchor:start;baseline-shift:baseline;color:#000000;fill:url(#linearGradient4860-2);fill-opacity:1;fill-rule:nonzero;stroke:none;stroke-width:9.3633728;marker:none;visibility:visible;display:inline;overflow:visible;enable-background:accumulate;font-family:Sans;-inkscape-font-specification:Sans"
       d="m 64.875,0.65625 c -3.20599,0.047269 -5.98789,2.2371633 -8.28125,4.71875 -2.48334,2.6871669 -4.44139,6.036229 -5.75,9.09375 -0.0161,0.0377 -0.0778,0.05614 -0.0937,0.09375 l -4.09375,5.59375 c -2.49065,2.319889 -4.07525,5.357734 -5.5625,8.28125 -1.56684,3.079964 -3.09106,6.018335 -5.03125,8.03125 -2.96807,2.19334 -6.45171,5.210681 -9.28125,8.8125 -2.67436,3.404274 -4.73357,7.360574 -4.96875,11.625 -1.8029,1.708088 -2.3897,4.285232 -2.21875,6.5625 0.13456,1.792511 0.70652,3.477582 1.5,5 0.083,0.801106 0.16529,1.586305 0.28125,2.375 -0.37457,1.24367 -0.72095,2.573369 -1,4.1875 -0.45257,2.617832 -0.86385,4.987631 -0.4375,7.125 l 0,0.03125 c 0.338,1.602637 1.04589,3.116977 2.3125,4.3125 1.13139,1.06789 2.90591,1.771594 4.6875,1.46875 -0.2987,-0.566875 -0.54695,-1.326702 -0.75,-2.1875 -0.17139,-0.57339 -0.43168,-2.245445 -0.5,-2.75 -1.2973,-0.338109 -0.96643,-0.784638 -1.28125,-2.25 -0.007,-0.03208 0.008,-0.06065 0,-0.09375 -0.14004,-2.590421 0.37765,-7.542738 3.09375,-10.96875 -1.49615,-1.302715 -2.65083,-3.399712 -2.65625,-3.375 -0.51655,-1.063087 -0.81631,-1.96096 -0.90625,-3.1875 -0.0294,-2.171983 0.48368,-3.034081 2.15625,-3.96875 l -0.0313,-1.21875 c -0.103,-3.157632 1.58628,-6.724795 4.15625,-10 2.56997,-3.275205 5.95178,-6.204505 8.71875,-8.21875 l 0.125,-0.125 0.125,-0.125 c 2.5939,-2.691135 4.22733,-6.03748 5.78125,-9.09375 1.55392,-3.05627 3.04912,-5.801007 4.875,-7.375 L 50,22.90625 l 0.15625,-0.1875 4.1875,-5.6875 0.125,-0.21875 0.0937,-0.21875 c 1.06377,-2.626989 2.99264,-5.65754 5.15625,-7.90625 2.04845,-2.1290209 4.26922,-3.3546913 5.875,-3.5 0.58478,0.2820185 1.09685,0.5855653 1.15625,0.6875 0.0786,0.1348316 0.10585,0.2802365 0,0.75 -0.10585,0.4697635 -0.38486,1.1335955 -0.6875,1.875 -0.30264,0.7414045 -0.73279,1.543337 -0.59375,2.8125 l 0.0625,0.375 0.1875,0.34375 c 2.50701,4.679338 5.81095,9.217606 9.34375,11.875 l 0.625,0.5 0.8125,-0.125 c 3.93438,-0.523054 7.28404,1.488869 10.0625,5.1875 l 0.3125,0.4375 0.5,0.21875 c 3.29426,1.391198 7.24183,5.371696 10,10.5 2.75817,5.128304 4.36418,11.348602 3.71875,16.96875 L 101.0312,58.25 c 1.40339,1.299194 2.14951,2.5625 3.375,4.28125 0.002,-0.01346 -0.002,-0.04812 0,-0.0625 0.003,-0.0096 -0.003,-0.02161 0,-0.03125 1.68043,-5.416567 1.3485,-11.335392 -0.25,-16.6875 -2.59824,-8.699487 -8.09672,-16.189732 -14.4375,-19.21875 -3.09251,-3.936999 -7.45131,-6.6513 -12.46875,-6.5 -2.40434,-1.964023 -5.16751,-5.594765 -7.3125,-9.4375 C 69.97345,10.52727 69.96325,10.50246 70.1562,10 70.43058,9.2854661 70.8189,8.3604642 71.06245,7.25 71.306,6.1395354 71.36836,4.618065 70.49995,3.25 69.63155,1.881935 68.10154,1.1074138 66.2812,0.78125 65.80573,0.696056 65.33295,0.6494972 64.87495,0.65625 z m 39.53125,61.875 c -1.10671,3.513689 -3.09586,6.832797 -6.15625,9.625 -0.71066,1.783206 -1.78406,3.173925 -3.15625,3.8125 -0.57055,0.265516 -1.10181,0.358125 -1.625,0.46875 0.44228,1.69911 0.92439,3.322951 1.125,5.25 0.153,1.469581 0.21464,2.926222 0.0937,4.28125 -0.10926,1.224738 -0.39212,2.392416 -1.09375,3.5 l 0.0625,0 c -0.0281,0.05635 -0.0957,0.101081 -0.125,0.15625 -0.0476,0.07033 -0.0418,0.148981 -0.0937,0.21875 l -0.0312,-0.0625 c -1.52542,2.642165 -4.56728,4.112268 -7.40625,3.3125 -1.644,-0.463132 -2.83502,-2.34325 -3.125,-3.90625 -0.53416,-3.277148 0.39932,-6.631869 1.21875,-9.5 l 0,-0.03125 c 0.0242,-0.08326 0.0105,-0.228828 0.0312,-0.34375 -0.63588,0.584632 -1.70126,1.43675 -3.25,1.53125 l 0,0.03125 c -0.0438,0.0034 -0.0817,-0.0027 -0.125,0 -0.0144,8.79e-4 -0.0169,-8.04e-4 -0.0312,0 -1.33332,0.07449 -2.46096,-0.158349 -3.3125,-0.28125 -0.88829,-0.128206 -1.43915,-0.135485 -1.875,0 l -0.125,0.03125 -0.0625,0 c -1.82005,0.409165 -3.72208,0.583333 -5.65625,0.4375 l 0,0.03125 c -1.00311,-0.01223 -1.92338,-0.07423 -2.40625,0 -0.48287,0.07423 -0.27825,-0.01865 -0.34375,0.125 l -0.0312,0.0625 -0.0312,0.0625 c -0.65504,1.170272 -1.25043,2.937154 -2.4375,4.5625 -0.59354,0.812672 -1.46335,1.681812 -2.71875,2.0625 -1.2554,0.380687 -2.63254,0.162357 -3.875,-0.4375 C 54.89324,86.106728 52.77307,83.430909 52.25,80.4375 49.92942,80.268135 47.4281,80.006588 44.9375,78.78125 44.17837,78.445054 42.76583,78.603445 40.625,78.34375 L 40.5,78.3125 l -0.0625,0 c -0.91539,-0.188116 -1.37963,-0.604455 -1.84375,-0.96875 -0.0826,0.148581 -0.11622,0.19781 -0.21875,0.375 -0.33484,0.578661 -0.78038,1.392744 -1.875,1.96875 -1.09462,0.576006 -2.61122,0.475017 -3.71875,-0.0625 -1.87588,-0.910419 -3.10226,-2.512318 -3.46875,-4 -0.10642,-0.431975 -0.004,-0.621414 -0.0312,-1 -0.0403,0.5018 -0.2571,1.268079 -0.21875,1.625 l 0,0.03125 0,0.0625 c 0.0734,0.869755 0.71501,2.546048 1.09375,4.46875 0.18937,0.961351 0.31621,2.001483 0.125,3.15625 -0.19121,1.154768 -0.76374,2.428082 -1.78125,3.34375 l -0.40625,0.34375 -0.5,0.15625 c -0.21149,0.0655 -0.44332,0.120054 -0.65625,0.15625 3.98296,7.551197 9.69506,13.74686 16.53125,17.875 -0.0146,0.15206 -0.0937,0.28331 -0.0937,0.4375 0,0.35091 0.24034,0.60422 0.3125,0.9375 -2.84848,2.42687 -4.8125,5.58519 -4.8125,9.15625 0,1.96407 1.07409,3.65215 2.46875,4.9375 1.39466,1.28535 3.19126,2.26633 5.3125,3.09375 4.24248,1.65483 9.79499,2.65625 15.9375,2.65625 6.14251,0 11.72627,-1.00141 15.96875,-2.65625 2.12124,-0.82742 3.91784,-1.8084 5.3125,-3.09375 1.39466,-1.28535 2.4375,-2.97344 2.4375,-4.9375 0,-3.57106 -1.96402,-6.72938 -4.8125,-9.15625 0.0722,-0.33328 0.34375,-0.58659 0.34375,-0.9375 0,-0.16008 -0.14051,-0.28061 -0.15625,-0.4375 13.55255,-8.179998 22.69527,-24.505141 22.71875,-43.3125 z M 63.375,14.34375 c -11.91487,9.68642 -2.95104,17.463504 -3.78125,35.625 -0.32195,4.834582 -8.35389,11.885176 -17.0625,19.375 C 52.25845,67.439529 67.33314,59.310508 68,50.3125 69.09445,34.332869 56.33522,28.716428 61.625,22.875 c 2.39499,3.198979 2.17253,1.978739 7.59375,6.6875 C 75.95088,35.409886 82.13549,41.661345 71.1875,56.75 96.14322,45.115492 85.06105,32.341989 66.3125,24.5625 63.20898,21.790297 61.32187,18.876256 63.375,14.34375 z m -10.15625,12 c -3.53054,2.556114 -2.01214,10.931994 -5.25,18.5 -3.03712,7.098808 -17.58771,9.634299 -16.875,22.5625 2.61529,-2.378954 21.01988,-11.143429 21.1875,-22.46875 0.26697,-18.037962 -0.36757,-11.553446 0.9375,-18.59375 z m 32.125,6.6875 c 7.30735,7.667755 9.08996,28.674963 -1.03125,37.71875 2.48669,7.127036 5.27446,16.700225 2.09375,15.75 1.46552,2.380341 3.24086,1.165112 3.84375,0.46875 C 92.25516,84.793548 91.3379,77.959267 90,74.3125 112.41228,58.726847 95.46586,36.562297 85.34375,33.03125 z M 88,48 C 83.98403,58.229129 70.37512,66.585816 56.625,72.21875 81.00466,74.641664 85.48688,64.971393 88,48 z M 64.5,75.25 c -3.42075,3.391871 -5.16247,7.214956 -8.5,6.40625 0.20187,0.894466 2.73526,3.698255 4.6875,3.53125 4.60141,-1.885533 5.0578,-7.875223 3.8125,-9.9375 z"
       id="path4760"
       inkscape:connector-curvature="0" />
    <g
       id="g5065"
       mask="url(#mask5071)">
      <path
         sodipodi:nodetypes="sscccscscsccsccsccccccccscccccscccsccccccsccsscsssccccccccscccccccccccccccccccccccccccccccscccscccccccccccccccccccccccccccccccccscccsccccccccsccccsccccccssccsccccsscsssccccccccccccsscccccccccsccscccccccscssscccscccscccccsscscsccsccc"
         inkscape:connector-curvature="0"
         id="path4974"
         d="m 64.875,0.65625 c -3.20599,0.047269 -5.98789,2.2371633 -8.28125,4.71875 -2.48334,2.6871669 -4.44139,6.036229 -5.75,9.09375 -0.0161,0.0377 -0.0778,0.05614 -0.0937,0.09375 l -4.09375,5.59375 c -2.49065,2.319889 -4.07525,5.357734 -5.5625,8.28125 -1.56684,3.079964 -3.09106,6.018335 -5.03125,8.03125 -2.96807,2.19334 -6.45171,5.210681 -9.28125,8.8125 -2.67436,3.404274 -4.73357,7.360574 -4.96875,11.625 -1.8029,1.708088 -2.3897,4.285232 -2.21875,6.5625 0.13456,1.792511 0.70652,3.477582 1.5,5 0.083,0.801106 0.16529,1.586305 0.28125,2.375 -0.37457,1.24367 -0.72095,2.573369 -1,4.1875 -0.45257,2.617832 -0.86385,4.987631 -0.4375,7.125 l 0,0.03125 c 0.338,1.602637 1.04589,3.116977 2.3125,4.3125 0.58732,0.554361 1.34253,1.013036 2.1875,1.28125 -0.20863,-0.516615 -0.38479,-1.04749 -0.5,-1.59375 l 0,-0.03125 c -0.42635,-2.137369 -0.0151,-4.507168 0.4375,-7.125 0.0117,-0.06759 0.0193,-0.120895 0.0312,-0.1875 0.08,-1.421954 0.33958,-3.124197 0.875,-4.8125 -0.001,-0.01023 0.001,-0.02102 0,-0.03125 -0.0622,-0.508716 -0.13395,-1.014504 -0.1875,-1.53125 -0.79348,-1.522418 -1.36544,-3.207489 -1.5,-5 -0.0885,-1.179152 0.0248,-2.447326 0.40625,-3.625 -0.0338,-0.218962 -0.0449,-0.446987 -0.0625,-0.6875 -0.0286,-2.114633 0.46204,-2.999053 2.03125,-3.90625 0.0249,-0.15125 0.0958,-0.287152 0.125,-0.4375 l -0.0313,-0.84375 c -0.103,-3.157632 1.58628,-6.724795 4.15625,-10 2.56997,-3.275205 5.95178,-6.204505 8.71875,-8.21875 l 0.125,-0.125 0.125,-0.125 c 2.5939,-2.691135 4.22733,-6.03748 5.78125,-9.09375 1.55392,-3.05627 3.04912,-5.801007 4.875,-7.375 l 0.15625,-0.125 0.15625,-0.1875 4.1875,-5.6875 0.125,-0.21875 0.0937,-0.21875 c 1.06377,-2.626989 2.99264,-5.65754 5.15625,-7.90625 2.04845,-2.1290209 4.26922,-3.3546913 5.875,-3.5 0.116,0.055942 0.20519,0.1003555 0.3125,0.15625 0.94547,-0.4004735 1.9325,-0.6722215 2.96875,-0.6875 0.458,-0.00675 0.93078,0.039806 1.40625,0.125 C 70.58454,4.835611 70.87061,4.9200585 71.15615,5 71.06417,4.4139455 70.86418,3.8237235 70.5,3.25 69.6316,1.881935 68.10159,1.1074138 66.28125,0.78125 65.80578,0.696056 65.333,0.6494972 64.875,0.65625 z M 66.78125,5.875 c -0.028,0.048179 -2.40922,4.788566 -1.3125,5.4375 l 0.0625,0.375 0.1875,0.34375 c 2.43362,4.542355 5.61535,8.939948 9.03125,11.625 -1.87051,-2.27352 -3.58308,-4.921994 -5.03125,-7.625 l -0.1875,-0.34375 -0.0625,-0.375 c -0.13904,-1.269163 0.29111,-2.071095 0.59375,-2.8125 0.14735,-0.360978 0.28736,-0.689246 0.40625,-1 -0.004,-0.0077 0.004,-0.02357 0,-0.03125 -0.17149,-0.291803 -0.36661,-0.580041 -0.53125,-0.875 C 69.9735,10.52727 69.9633,10.50246 70.15625,10 70.20505,9.8729308 70.25795,9.7027408 70.3125,9.5625 70.11119,9.4453214 69.86294,9.3173209 69.59375,9.1875 68.43637,9.2922325 67.61093,6.7765648 66.78125,5.875 z M 63.375,14.34375 c -1.39627,1.135127 -2.50281,2.241279 -3.375,3.34375 -0.81383,1.525342 -2.06275,2.256928 -2.25,4.15625 -2.22915,7.017859 2.45479,14.758104 1.84375,28.125 -0.32195,4.834582 -8.35389,11.885176 -17.0625,19.375 4.62869,-0.906124 10.45321,-3.226949 15.375,-6.375 3.29947,-3.426052 5.52156,-6.508101 5.6875,-9 C 64.1152,42.561622 60.76211,35.259982 61.15625,29 60.1032,26.72517 59.87019,24.812807 61.625,22.875 c 0.35369,0.472427 0.64012,0.812005 0.90625,1.125 0.36111,-0.703039 0.7736,-1.422762 1.3125,-2.125 -1.42412,-2.064205 -1.8786,-4.418839 -0.46875,-7.53125 z m 11.5625,3.4375 c 1.25946,1.63353 5.11033,5.267989 6.3125,6.25 5.01744,-0.1513 9.37624,2.563001 12.46875,6.5 1.31281,0.627136 2.59017,1.456751 3.8125,2.4375 -2.31499,-2.848985 -4.9763,-5.082634 -7.8125,-6.4375 -3.04097,-3.871382 -9.86918,-8.805299 -14.78125,-8.75 z m -10.625,4.65625 c 0.67637,1.276841 4.7352,4.995222 6,6.125 5.08406,2.109572 9.60914,4.590764 13,7.3125 -3.08522,-4.115582 -11.96028,-10.401838 -19,-13.4375 z M 53.46875,25.65625 C 52.80399,26.415932 50.70302,28.048605 51,30.6875 c -0.81834,3.79504 -0.88868,9.148334 -3.03125,14.15625 -3.03712,7.098808 -17.58771,9.634299 -16.875,22.5625 0.79383,-0.722089 3.09208,-2.083249 5.84375,-3.875 3.23081,-5.435792 9.83258,-8.280826 13.3125,-12.125 1.22689,-2.035057 1.99762,-4.196672 2.03125,-6.46875 0.23396,-15.80749 0.42611,-15.532894 1.1875,-19.28125 z M 86.8125,29.8125 86.875,29.90625 87.09375,30 c -0.094,-0.0664 -0.1863,-0.124554 -0.28125,-0.1875 z m -1.46875,3.21875 c 4.01175,4.209607 6.3429,12.43618 5.96875,20.5 C 91.56008,53.029262 91.7992,52.511456 92,52 c -1.25354,8.465298 -3.01047,15.106182 -7.46875,19.34375 1.46032,4.237909 2.95247,9.171677 3.25,12.25 0.11636,-0.09738 0.24733,-0.192597 0.34375,-0.28125 -0.0208,0.114922 -0.007,0.26049 -0.0312,0.34375 l 0,0.03125 c -0.0836,0.292427 -0.16576,0.604304 -0.25,0.90625 0.001,0.846105 -0.14405,1.447293 -0.46875,1.75 -0.0836,0.347148 -0.14619,0.70816 -0.21875,1.0625 1.27302,1.08009 2.59134,0.142802 3.09375,-0.4375 0.50129,-0.543801 0.82492,-1.371418 1,-2.375 -0.67152,-3.006883 -1.82465,-6.654242 -2.9375,-9.84375 10.12121,-9.043787 8.3386,-30.050995 1.03125,-37.71875 1.71834,0.599433 3.61427,1.762426 5.5,3.3125 -2.98006,-3.612644 -6.52731,-6.275492 -9.5,-7.3125 z M 73.96875,34.25 c 3.91907,4.807239 5.3027,10.976247 -2.25,21.75 -0.055,0.203919 -0.15009,0.391169 -0.21875,0.59375 3.74273,-1.768611 6.65864,-3.545311 8.84375,-5.34375 2.61704,-8.142536 -1.57572,-12.758779 -6.375,-17 z m 20.25,1.625 c 1.13873,1.420268 2.21966,3.008593 3.15625,4.75 0.71992,1.338554 1.36287,2.761496 1.90625,4.21875 1.4741,3.145969 1.85766,8.61998 1.78125,13.28125 -0.0316,1.928978 3.1126,2.841737 3.28125,4.4375 0.10359,-0.489734 0.82528,-3.359303 0.875,-3.6875 -0.0357,-4.851478 -1.52391,-9.936695 -3.84375,-14.25 -1.99273,-3.70511 -4.61676,-6.786775 -7.15625,-8.75 z m -6.9375,16.4375 c -1.35789,1.714954 -3.32539,3.415067 -6,5.125 -0.0158,0.01517 -0.0466,0.01609 -0.0625,0.03125 -6.2431,5.96391 -15.38058,10.975694 -24.59375,14.75 5.07015,0.503884 9.27097,0.467823 12.78125,-0.03125 5.46196,-2.791344 10.5678,-5.998613 14.625,-9.59375 1.4912,-2.880119 2.49455,-6.347032 3.25,-10.28125 z m 17.0625,10.3125 c -1.31213,4.528107 -5.57494,9.298137 -11.4375,13.375 1.3379,3.646767 2.09891,11.668548 0.0937,13.84375 -3.49367,4.175109 -7.13506,3.588583 -9.5,0.9375 0.3106,1.549613 4.8789,5.855817 6.5,6.3125 0.61581,0.173479 1.2264,0.216415 1.84375,0.1875 2.66374,-3.039325 4.95416,-6.488844 6.84375,-10.25 -0.0271,-0.446309 -0.0468,-0.892432 -0.0937,-1.34375 -0.20061,-1.927049 -0.68272,-3.55089 -1.125,-5.25 0.52319,-0.110625 1.05445,-0.203234 1.625,-0.46875 1.37219,-0.638575 2.44559,-2.029294 3.15625,-3.8125 0.21626,-0.197307 0.41937,-0.391298 0.625,-0.59375 0.79011,-3.311366 1.29765,-9.270466 1.46875,-12.875 0.001,-0.0052 -0.001,-0.05592 0,-0.0625 z m -75.375,11.34375 c -0.13653,0.33063 0.0189,3.352547 -0.0937,3.6875 0.23737,0.857726 1.05269,1.995945 1.28125,3.15625 0.18937,0.961351 0.31621,2.001483 0.125,3.15625 -0.11695,0.706303 -0.36812,1.467668 -0.78125,2.15625 -0.0269,-0.06262 -0.0437,-0.156518 -0.0625,-0.15625 -0.13066,0.0019 -2.4634,0.898066 -2.4375,2.09375 0.0373,1.719558 2.45969,3.934167 2.28125,3.90625 2.31008,3.534482 5.04261,6.681853 8.09375,9.375 -2.46756,-2.804961 -4.59615,-5.943284 -6.40625,-9.375 0.68038,-0.05973 0.9979,-0.33248 1.53125,-0.65625 1.01751,-0.915668 1.59004,-2.188982 1.78125,-3.34375 0.19121,-1.154767 0.0644,-2.194899 -0.125,-3.15625 -0.35981,-1.826567 -0.94074,-3.410942 -1.0625,-4.3125 1.25212,1.341702 2.73571,2.663069 3.6875,3.125 1.10753,0.537517 2.62413,0.638506 3.71875,0.0625 1.09462,-0.576006 1.54016,-1.390089 1.875,-1.96875 0.10253,-0.17719 0.13616,-0.226419 0.21875,-0.375 0.46412,0.364295 0.92836,0.780634 1.84375,0.96875 l 0.0625,0 0.125,0.03125 c 2.14083,0.259695 3.55337,0.101304 4.3125,0.4375 1.66389,0.818611 3.32112,1.188063 4.9375,1.40625 -0.81463,-1.134777 -1.38921,-2.400622 -1.625,-3.75 -2.32058,-0.169365 -4.8219,-0.430912 -7.3125,-1.65625 -0.75913,-0.336196 -2.17167,-0.177805 -4.3125,-0.4375 l -0.125,-0.03125 -0.0625,0 c -0.91539,-0.188116 -1.37963,-0.604455 -1.84375,-0.96875 -0.0826,0.148581 -0.11622,0.19781 -0.21875,0.375 -0.33484,0.578661 -0.78038,1.392744 -1.875,1.96875 -0.91294,0.480403 -4.60713,-1.896827 -5.625,-2.21875 -0.832,-1.322404 -1.5709,-2.860178 -1.90625,-3.5 z M 64.125,74.3125 c -2.72053,3.027991 -5.17339,8.058945 -8.125,7.34375 0.20187,0.894466 2.73526,3.698255 4.6875,3.53125 3.8607,-1.58201 5.28205,-6.570929 4.75,-9.1875 -0.50508,-0.02162 -0.78736,-1.653365 -1.3125,-1.6875 z m 20,5 c -0.63588,0.584632 -1.70126,1.43675 -3.25,1.53125 l 0,0.03125 c -0.0438,0.0034 -0.0817,-0.0027 -0.125,0 -0.0144,8.79e-4 -0.0169,-8.04e-4 -0.0312,0 -1.33332,0.07449 -2.46096,-0.158349 -3.3125,-0.28125 -0.88829,-0.128206 -1.43915,-0.135485 -1.875,0 l -0.125,0.03125 -0.0625,0 c -1.82005,0.409165 -3.72208,0.583333 -5.65625,0.4375 l 0,0.03125 c -0.23395,-0.0029 -2.96707,-0.244093 -3.1875,-0.25 -1.31817,4.924242 -2.26332,5.316335 -4.78125,7.125 -1.2554,0.380687 -2.63254,0.162357 -3.875,-0.4375 -0.20787,-0.10036 -0.39439,-0.231295 -0.59375,-0.34375 0.99819,1.824176 2.59418,3.378347 4.59375,4.34375 1.24246,0.599857 2.6196,0.818187 3.875,0.4375 1.2554,-0.380688 2.12521,-1.249828 2.71875,-2.0625 1.18707,-1.625346 1.78246,-3.392228 2.4375,-4.5625 l 0.0312,-0.0625 0.0312,-0.0625 c 0.0655,-0.14365 -0.13912,-0.05077 0.34375,-0.125 0.48287,-0.07423 1.40314,-0.01223 2.40625,0 l 0,-0.03125 c 2.08959,0.06022 4.06395,-0.08903 5.84375,-0.46875 0.43585,-0.135485 0.98671,-0.128206 1.875,0 0.43333,0.06254 0.93295,0.154256 1.5,0.21875 0.25487,-1.793125 0.7332,-3.534866 1.1875,-5.125 l 0,-0.03125 c 0.0242,-0.08326 0.0105,-0.228828 0.0312,-0.34375 z M 43.65625,107.25 c -2.83021,2.42303 -4.78125,5.56808 -4.78125,9.125 0,1.96407 1.07409,3.65215 2.46875,4.9375 0.63452,0.58479 1.36261,1.08951 2.15625,1.5625 -0.37747,-0.77089 -0.625,-1.60144 -0.625,-2.5 0,-3.57106 1.96402,-6.72938 4.8125,-9.15625 -0.0722,-0.33328 -0.3125,-0.58659 -0.3125,-0.9375 0,-0.15419 0.0791,-0.28544 0.0937,-0.4375 -1.3135,-0.79318 -2.74254,-3.1061 -3.96875,-4.04688 -0.319109,0.52455 0.02801,1.00316 0.1563,1.45313 z"
         style="font-size:medium;font-style:normal;font-variant:normal;font-weight:normal;font-stretch:normal;text-indent:0;text-align:start;text-decoration:none;line-height:normal;letter-spacing:normal;word-spacing:normal;text-transform:none;direction:ltr;block-progression:tb;writing-mode:lr-tb;text-anchor:start;baseline-shift:baseline;color:#000000;fill:#141414;fill-opacity:0.73170734;fill-rule:nonzero;stroke:none;stroke-width:0.96344244;marker:none;visibility:visible;display:inline;overflow:visible;filter:url(#filter3822-9-6-4-3-9-7-1-5);enable-background:accumulate;font-family:Sans;-inkscape-font-specification:Sans" />
      <path
         sodipodi:nodetypes="cscccccccsssccsccscccccccccccccccccccccccccsccccccccccccccscccccccccccccccccccccccccccccscsccscccscccccccsccccccccccccscssssscsssssscscccccccccscccscsccccccccccccccscccscccccccccccccccccccc"
         inkscape:connector-curvature="0"
         id="path5062"
         d="m 67.15625,1 c 0.127488,0.8114143 0.04766,1.6052294 -0.09375,2.25 -0.200238,0.9129847 -0.264558,1.366155 -0.40625,2.125 0.236012,0.1373763 0.592943,0.8512386 0.625,0.90625 0.0786,0.1348316 0.137105,-0.032264 0.03125,0.4375 -0.08394,0.3227162 -0.136705,0.9120265 -0.4375,1.15625 2.060151,3.500923 4.16007,6.34695 6.375,8.15625 0.08362,-0.0025 0.166745,9.37e-4 0.25,0 -1.259459,-1.63353 -2.490005,-3.516132 -3.5625,-5.4375 C 69.9735,10.52727 69.9633,10.50246 70.15625,10 70.43063,9.2854661 70.81895,8.3604642 71.0625,7.25 71.30605,6.1395354 71.36841,4.618065 70.5,3.25 69.776333,2.1099458 68.583958,1.3997077 67.15625,1 z m -5.0625,1.59375 c -1.979638,0.8385201 -3.072911,2.1642738 -4.625,3.84375 -2.48334,2.6871669 -4.37889,5.536229 -5.6875,8.59375 -1.591657,1.79547 -2.280258,3.698653 -4.625,5.78125 -2.49065,2.319889 -3.88775,5.451484 -5.375,8.375 -1.56684,3.079964 -3.40356,6.362085 -5.34375,8.375 -2.96807,2.19334 -6.23296,4.741931 -9.0625,8.34375 -2.880644,3.976318 -4.180761,6.9911 -4.5,11.3125 -1.138333,1.298013 -2.529307,4.006946 -2.03125,5.125 0.28665,0.50654 1.1601,2.072285 2.65625,3.375 -1.018538,1.284755 -1.737269,2.772264 -2.21875,4.28125 0.0013,0.01023 -0.0013,0.02102 0,0.03125 0.03316,0.269679 0.05409,0.542779 0.09375,0.8125 -0.358886,1.191595 -0.696048,2.475946 -0.96875,4 -0.03872,0.688338 -0.02844,1.317672 0,1.84375 0.008,0.0331 -0.007,0.06167 0,0.09375 0.31482,1.465362 -0.01605,1.911891 1.28125,2.25 0.06832,0.504555 0.32861,2.17661 0.5,2.75 0.20305,0.860798 0.4513,1.620625 0.75,2.1875 0.21293,-0.0362 0.44476,-0.09075 0.65625,-0.15625 l 0.5,-0.15625 L 24.5,83.3125 c 0.18771,-0.168922 0.373428,-0.340974 0.53125,-0.53125 -0.526797,-0.335565 -0.381014,-0.864344 -0.625,-2 -0.007,-0.03208 0.008,-0.06065 0,-0.09375 0.657338,-6.570114 1.186665,-7.283182 3.09375,-10.96875 -1.49615,-1.302715 -2.65083,-3.399712 -2.65625,-3.375 -0.51655,-1.063087 -0.81631,-1.96096 -0.90625,-3.1875 -0.0294,-2.171983 0.48368,-3.034081 2.15625,-3.96875 L 26.0625,57.96875 c -0.103,-3.157632 1.58628,-6.724795 4.15625,-10 2.56997,-3.275205 5.95178,-6.204505 8.71875,-8.21875 l 0.125,-0.125 0.125,-0.125 c 2.5939,-2.691135 4.22733,-6.03748 5.78125,-9.09375 2.732166,-4.91616 4.464908,-6.962281 4.875,-7.375 L 50,22.90625 l 0.15625,-0.1875 4.46875,-4.625 c 0.44465,-1.399855 0.28234,-3.025093 1.375,-4.40625 1.030399,-1.78046 2.325087,-3.551521 3.71875,-5 C 62.166204,7.2748163 65.95256,6.7992884 66.375,5.65625 65.179979,4.5082133 63.801855,2.4349035 62.09375,2.59375 z m -39.15625,81.375 c -0.856735,0.145632 -1.717266,0.06096 -2.5,-0.1875 0.40346,0.999049 0.977615,1.930722 1.8125,2.71875 0.774581,0.731107 1.857888,1.285173 3.03125,1.46875 -0.840922,-1.286633 -1.614919,-2.618226 -2.34375,-4 z m 40.4375,-69.625 c -1.475122,1.199229 -1.950467,3.148474 -2.84375,4.3125 1.574249,1.815563 3.25651,3.863961 5.75,5.90625 C 65.297964,22.706281 62.158598,17.029088 63.375,14.34375 z m 7.375,5.3125 c 1.600263,1.902677 2.973978,3.407307 4.9375,4.75 2.545164,-0.41626 5.388474,0.388369 7.15625,1.53125 l 0.6875,0.40625 c 1.072169,0.832502 2.091497,1.874018 3.03125,3.125 l 0.3125,0.4375 0.5,0.21875 c 0.914215,0.386082 1.868289,0.995893 2.84375,1.75 -1.168061,-1.456856 -2.39993,-2.714644 -3.625,-3.71875 L 86.5625,28.125 C 83.526466,24.322357 76.423294,19.75967 72.5,20.28125 l -0.8125,0.125 -0.625,-0.5 c -0.103419,-0.07779 -0.209487,-0.169027 -0.3125,-0.25 z M 59.25,20.625 c -0.8384,1.632286 -1.141182,3.052925 -1.25,4.78125 2.121319,4.582536 6.731382,10.227625 6,20.90625 -0.349534,4.716302 -3.891146,10.282419 -9.3125,13.75 -3.101893,3.220899 -8.155087,5.870672 -12.375,9.5 C 52.878517,66.695175 66.946935,60.756502 68,50.3125 69.09445,34.332869 56.33522,28.716428 61.625,22.875 60.665383,22.150669 60.128731,21.658472 59.25,20.625 z m 2.375,2.25 c 2.39499,3.198979 2.17253,1.978739 7.59375,6.6875 0.230257,0.199996 0.459187,0.392471 0.6875,0.59375 C 68.550799,28.512127 66.988126,26.918561 65.21875,25.5625 63.175467,23.996514 62.342702,23.416731 61.625,22.875 z M 54,25.84375 c -3.53054,2.556114 -2.01214,11.431994 -5.25,19 -0.395239,0.923811 -1.117555,2.197791 -1.84375,3 -3.032364,5.029825 -8.75488,9.166755 -13.25,12.09375 -1.275798,2.146513 -2.738008,4.285127 -2.5625,7.46875 C 33.70904,65.027296 52.11363,56.262821 52.28125,44.9375 52.54822,26.899538 52.69493,32.884054 54,25.84375 z m 39.53125,3.125 c 2.860537,3.520372 5.188941,7.973005 6.625,12.78125 1.54643,5.956975 2.74561,11.675947 2.0625,16.71875 1.40339,1.299194 0.96201,2.34375 2.1875,4.0625 0.002,-0.01346 -0.002,-0.04812 0,-0.0625 0.003,-0.0096 -0.003,-0.02161 0,-0.03125 1.68043,-5.416567 1.3485,-11.335392 -0.25,-16.6875 -2.06029,-6.898323 -5.943555,-13.025055 -10.625,-16.78125 z m 10.875,33.5625 c -1.02851,3.265399 -2.82694,6.368692 -5.53125,9.03125 -0.970053,4.065511 -2.395278,7.901395 -4.1875,11.46875 0.06117,1.006961 0.0838,1.99861 0,2.9375 -0.10926,1.224738 -0.39212,2.392416 -1.09375,3.5 l 0.0625,0 c -0.0281,0.05635 -0.0957,0.101081 -0.125,0.15625 -0.0476,0.07033 -0.04185,0.148981 -0.09375,0.21875 l -0.03125,-0.0625 c -1.194538,2.069048 -3.333758,3.395612 -5.5625,3.5 -2.978905,3.398933 -6.399215,6.294843 -10.15625,8.5625 0.01574,0.15689 0.15625,0.27742 0.15625,0.4375 0,0.35091 -0.27155,0.60422 -0.34375,0.9375 2.84848,2.42687 4.8125,5.58519 4.8125,9.15625 0,1.96406 -1.04284,3.65215 -2.4375,4.9375 -1.39466,1.28535 -3.19126,2.26633 -5.3125,3.09375 -4.24248,1.65484 -9.82624,2.65625 -15.96875,2.65625 -6.14251,0 -11.69502,-1.00142 -15.9375,-2.65625 -1.15615,-0.45097 -2.205493,-0.96463 -3.15625,-1.53125 0.447604,0.91412 1.087147,1.7402 1.84375,2.4375 1.39466,1.28535 3.19126,2.26633 5.3125,3.09375 4.24248,1.65483 9.79499,2.65625 15.9375,2.65625 6.14251,0 11.72627,-1.00141 15.96875,-2.65625 2.12124,-0.82742 3.91784,-1.8084 5.3125,-3.09375 1.39466,-1.28535 2.4375,-2.97344 2.4375,-4.9375 0,-3.57106 -1.96402,-6.72938 -4.8125,-9.15625 0.0722,-0.33328 0.34375,-0.58659 0.34375,-0.9375 0,-0.16008 -0.14051,-0.28061 -0.15625,-0.4375 13.55255,-8.179998 22.69527,-24.505141 22.71875,-43.3125 z M 79.3125,31.875 c 3.592809,4.792685 4.608013,10.647626 -1.78125,15.90625 -0.878562,2.733518 -3.697575,5.321759 -6.34375,8.96875 5.713899,-2.982267 8.075209,-3.33241 12.09375,-8.4375 4.590228,-5.797267 2.159669,-11.518404 -3.96875,-16.4375 z m 11.53125,4.46875 C 98.010896,45.032276 101.83018,59.304087 86,70.3125 c 1.003425,2.735075 2.830794,9.071897 2.96875,12.125 0.171689,3.79964 -0.773979,5.181228 -2.625,4.0625 0.416427,0.676373 0.9113,1.059851 1.34375,1.25 1.132729,1.003311 3.607941,-1.088705 3.875,-3.75 0.12094,-1.355028 -0.2845,-4.936669 -0.4375,-6.40625 -0.20061,-1.927049 -0.557723,-1.61339 -1,-3.3125 0.52319,-0.110625 1.6482,-0.796984 2.21875,-1.0625 1.37219,-0.638575 4.10184,-2.935544 4.8125,-4.71875 3.06039,-2.792203 3.20579,-6.298811 3.75,-9.875 0.35853,-4.082489 0.11934,-3.895996 -0.40625,-7.9375 0.47697,-4.153216 -2.575457,-6.115681 -5.21875,-9.84375 -1.370358,-1.735553 -2.908094,-3.242826 -4.4375,-4.5 z m -3.21875,14.125 c -1.592565,3.229028 -3.678783,5.94548 -6.84375,8.75 -1.441114,4.964756 -3.658054,9.937893 -14.28125,9.75 -2.862624,1.462949 -5.810078,2.814067 -8.78125,4.03125 7.235941,1.213627 16.783297,0.06858 22.8125,-5.4375 5.05261,-4.749334 6.811214,-11.449908 7.09375,-17.09375 z M 64.5,75.25 c -3.42075,3.391871 -5.16247,7.214956 -8.5,6.40625 0.106467,0.471744 0.867526,1.463244 1.84375,2.28125 1.186522,-0.39947 2.020688,-1.246617 2.59375,-2.03125 1.18707,-1.625346 1.78246,-3.392228 2.4375,-4.5625 l 0.03125,-0.0625 0.03125,-0.0625 c 0.0655,-0.14365 -0.13912,-0.05077 0.34375,-0.125 0.370256,-0.05692 1.025249,-0.01942 1.75,0 C 64.947273,76.350832 64.772409,75.701123 64.5,75.25 z m 19.84375,3.90625 c -0.651012,0.544803 -2.15486,1.60733 -3.46875,1.6875 l 0,0.03125 c -0.0438,0.0034 -0.0817,-0.0027 -0.125,0 -0.0144,8.79e-4 -0.01695,-8.04e-4 -0.03125,0 -0.654816,0.03658 -1.265244,-2.58e-4 -1.8125,-0.0625 -0.204844,1.441142 -0.269264,2.914751 -0.03125,4.375 0.181497,0.978271 0.722412,2.073455 1.5,2.875 1.334426,1.419715 2.582316,2.737667 4.0625,4.09375 3.530064,0.842366 -0.668626,-9.811014 -0.09375,-13 z M 49.875,80.1875 c 0.865216,1.205219 2.020172,2.235795 3.375,3 -0.474717,-0.867527 -0.831416,-1.785234 -1,-2.75 -0.770271,-0.05622 -1.571904,-0.141594 -2.375,-0.25 z M 33.40625,97.375 c 1.910995,2.168127 6.581059,7.0031 10.0625,8.4375 -2.448806,-2.2025 -3.14352,-3.0833 -4,-3.96875 -2.136309,-1.29004 -4.164204,-2.796621 -6.0625,-4.46875 z"
         style="font-size:medium;font-style:normal;font-variant:normal;font-weight:normal;font-stretch:normal;text-indent:0;text-align:start;text-decoration:none;line-height:normal;letter-spacing:normal;word-spacing:normal;text-transform:none;direction:ltr;block-progression:tb;writing-mode:lr-tb;text-anchor:start;baseline-shift:baseline;color:#000000;fill:#ffffff;fill-opacity:0.39430895;fill-rule:nonzero;stroke:none;stroke-width:0.96344244;marker:none;visibility:visible;display:inline;overflow:visible;filter:url(#filter3822-2-7-6-8-3-5-7-2);enable-background:accumulate;font-family:Sans;-inkscape-font-specification:Sans" />
    </g>
    <path
       inkscape:connector-curvature="0"
       id="path5086"
       d="m 64.875,0.65625 c -3.20599,0.047269 -5.98789,2.2371633 -8.28125,4.71875 -2.48334,2.6871669 -4.44139,6.036229 -5.75,9.09375 -0.0161,0.0377 -0.0778,0.05614 -0.0937,0.09375 l -4.09375,5.59375 c -2.49065,2.319889 -4.07525,5.357734 -5.5625,8.28125 -1.56684,3.079964 -3.09106,6.018335 -5.03125,8.03125 -2.96807,2.19334 -6.45171,5.210681 -9.28125,8.8125 -2.67436,3.404274 -4.73357,7.360574 -4.96875,11.625 -1.8029,1.708088 -2.3897,4.285232 -2.21875,6.5625 0.13456,1.792511 0.70652,3.477582 1.5,5 0.083,0.801106 0.16529,1.586305 0.28125,2.375 -0.37457,1.24367 -0.72095,2.573369 -1,4.1875 -0.45257,2.617832 -0.86385,4.987631 -0.4375,7.125 l 0,0.03125 c 0.338,1.602637 1.04589,3.116977 2.3125,4.3125 1.13139,1.06789 2.90591,1.771594 4.6875,1.46875 -0.2987,-0.566875 -0.54695,-1.326702 -0.75,-2.1875 -0.17139,-0.57339 -0.43168,-2.245445 -0.5,-2.75 -1.2973,-0.338109 -0.96643,-0.784638 -1.28125,-2.25 -0.007,-0.03208 0.008,-0.06065 0,-0.09375 -0.14004,-2.590421 0.37765,-7.542738 3.09375,-10.96875 -1.49615,-1.302715 -2.65083,-3.399712 -2.65625,-3.375 -0.51655,-1.063087 -0.81631,-1.96096 -0.90625,-3.1875 -0.0294,-2.171983 0.48368,-3.034081 2.15625,-3.96875 l -0.0313,-1.21875 c -0.103,-3.157632 1.58628,-6.724795 4.15625,-10 2.56997,-3.275205 5.95178,-6.204505 8.71875,-8.21875 l 0.125,-0.125 0.125,-0.125 c 2.5939,-2.691135 4.22733,-6.03748 5.78125,-9.09375 1.55392,-3.05627 3.04912,-5.801007 4.875,-7.375 L 50,22.90625 l 0.15625,-0.1875 4.1875,-5.6875 0.125,-0.21875 0.0937,-0.21875 c 1.06377,-2.626989 2.99264,-5.65754 5.15625,-7.90625 2.04845,-2.1290209 4.26922,-3.3546913 5.875,-3.5 0.58478,0.2820185 1.09685,0.5855653 1.15625,0.6875 0.0786,0.1348316 0.10585,0.2802365 0,0.75 -0.10585,0.4697635 -0.38486,1.1335955 -0.6875,1.875 -0.30264,0.7414045 -0.73279,1.543337 -0.59375,2.8125 l 0.0625,0.375 0.1875,0.34375 c 2.50701,4.679338 5.81095,9.217606 9.34375,11.875 l 0.625,0.5 0.8125,-0.125 c 3.93438,-0.523054 7.28404,1.488869 10.0625,5.1875 l 0.3125,0.4375 0.5,0.21875 c 3.29426,1.391198 7.24183,5.371696 10,10.5 2.75817,5.128304 4.36418,11.348602 3.71875,16.96875 L 101.0312,58.25 c 1.40339,1.299194 2.14951,2.5625 3.375,4.28125 0.002,-0.01346 -0.002,-0.04812 0,-0.0625 0.003,-0.0096 -0.003,-0.02161 0,-0.03125 1.68043,-5.416567 1.3485,-11.335392 -0.25,-16.6875 -2.59824,-8.699487 -8.09672,-16.189732 -14.4375,-19.21875 -3.09251,-3.936999 -7.45131,-6.6513 -12.46875,-6.5 -2.40434,-1.964023 -5.16751,-5.594765 -7.3125,-9.4375 C 69.97345,10.52727 69.96325,10.50246 70.1562,10 70.43058,9.2854661 70.8189,8.3604642 71.06245,7.25 71.306,6.1395354 71.36836,4.618065 70.49995,3.25 69.63155,1.881935 68.10154,1.1074138 66.2812,0.78125 65.80573,0.696056 65.33295,0.6494972 64.87495,0.65625 z m 39.53125,61.875 c -1.10671,3.513689 -3.09586,6.832797 -6.15625,9.625 -0.71066,1.783206 -1.78406,3.173925 -3.15625,3.8125 -0.57055,0.265516 -1.10181,0.358125 -1.625,0.46875 0.44228,1.69911 0.92439,3.322951 1.125,5.25 0.153,1.469581 0.21464,2.926222 0.0937,4.28125 -0.10926,1.224738 -0.39212,2.392416 -1.09375,3.5 l 0.0625,0 c -0.0281,0.05635 -0.0957,0.101081 -0.125,0.15625 -0.0476,0.07033 -0.0418,0.148981 -0.0937,0.21875 l -0.0312,-0.0625 c -1.52542,2.642165 -4.56728,4.112268 -7.40625,3.3125 -1.644,-0.463132 -2.83502,-2.34325 -3.125,-3.90625 -0.53416,-3.277148 0.39932,-6.631869 1.21875,-9.5 l 0,-0.03125 c 0.0242,-0.08326 0.0105,-0.228828 0.0312,-0.34375 -0.63588,0.584632 -1.70126,1.43675 -3.25,1.53125 l 0,0.03125 c -0.0438,0.0034 -0.0817,-0.0027 -0.125,0 -0.0144,8.79e-4 -0.0169,-8.04e-4 -0.0312,0 -1.33332,0.07449 -2.46096,-0.158349 -3.3125,-0.28125 -0.88829,-0.128206 -1.43915,-0.135485 -1.875,0 l -0.125,0.03125 -0.0625,0 c -1.82005,0.409165 -3.72208,0.583333 -5.65625,0.4375 l 0,0.03125 c -1.00311,-0.01223 -1.92338,-0.07423 -2.40625,0 -0.48287,0.07423 -0.27825,-0.01865 -0.34375,0.125 l -0.0312,0.0625 -0.0312,0.0625 c -0.65504,1.170272 -1.25043,2.937154 -2.4375,4.5625 -0.59354,0.812672 -1.46335,1.681812 -2.71875,2.0625 -1.2554,0.380687 -2.63254,0.162357 -3.875,-0.4375 C 54.89324,86.106728 52.77307,83.430909 52.25,80.4375 49.92942,80.268135 47.4281,80.006588 44.9375,78.78125 44.17837,78.445054 42.76583,78.603445 40.625,78.34375 L 40.5,78.3125 l -0.0625,0 c -0.91539,-0.188116 -1.37963,-0.604455 -1.84375,-0.96875 -0.0826,0.148581 -0.11622,0.19781 -0.21875,0.375 -0.33484,0.578661 -0.78038,1.392744 -1.875,1.96875 -1.09462,0.576006 -2.61122,0.475017 -3.71875,-0.0625 -1.87588,-0.910419 -3.10226,-2.512318 -3.46875,-4 -0.10642,-0.431975 -0.004,-0.621414 -0.0312,-1 -0.0403,0.5018 -0.2571,1.268079 -0.21875,1.625 l 0,0.03125 0,0.0625 c 0.0734,0.869755 0.71501,2.546048 1.09375,4.46875 0.18937,0.961351 0.31621,2.001483 0.125,3.15625 -0.19121,1.154768 -0.76374,2.428082 -1.78125,3.34375 l -0.40625,0.34375 -0.5,0.15625 c -0.21149,0.0655 -0.44332,0.120054 -0.65625,0.15625 3.98296,7.551197 9.69506,13.74686 16.53125,17.875 -0.0146,0.15206 -0.0937,0.28331 -0.0937,0.4375 0,0.35091 0.24034,0.60422 0.3125,0.9375 -2.84848,2.42687 -4.8125,5.58519 -4.8125,9.15625 0,1.96407 1.07409,3.65215 2.46875,4.9375 1.39466,1.28535 3.19126,2.26633 5.3125,3.09375 4.24248,1.65483 9.79499,2.65625 15.9375,2.65625 6.14251,0 11.72627,-1.00141 15.96875,-2.65625 2.12124,-0.82742 3.91784,-1.8084 5.3125,-3.09375 1.39466,-1.28535 2.4375,-2.97344 2.4375,-4.9375 0,-3.57106 -1.96402,-6.72938 -4.8125,-9.15625 0.0722,-0.33328 0.34375,-0.58659 0.34375,-0.9375 0,-0.16008 -0.14051,-0.28061 -0.15625,-0.4375 13.55255,-8.179998 22.69527,-24.505141 22.71875,-43.3125 z M 63.375,14.34375 c -11.91487,9.68642 -2.95104,17.463504 -3.78125,35.625 -0.32195,4.834582 -8.35389,11.885176 -17.0625,19.375 C 52.25845,67.439529 67.33314,59.310508 68,50.3125 69.09445,34.332869 56.33522,28.716428 61.625,22.875 c 2.39499,3.198979 2.17253,1.978739 7.59375,6.6875 C 75.95088,35.409886 82.13549,41.661345 71.1875,56.75 96.14322,45.115492 85.06105,32.341989 66.3125,24.5625 63.20898,21.790297 61.32187,18.876256 63.375,14.34375 z m -10.15625,12 c -3.53054,2.556114 -2.01214,10.931994 -5.25,18.5 -3.03712,7.098808 -17.58771,9.634299 -16.875,22.5625 2.61529,-2.378954 21.01988,-11.143429 21.1875,-22.46875 0.26697,-18.037962 -0.36757,-11.553446 0.9375,-18.59375 z m 32.125,6.6875 c 7.30735,7.667755 9.08996,28.674963 -1.03125,37.71875 2.48669,7.127036 5.27446,16.700225 2.09375,15.75 1.46552,2.380341 3.24086,1.165112 3.84375,0.46875 C 92.25516,84.793548 91.3379,77.959267 90,74.3125 112.41228,58.726847 95.46586,36.562297 85.34375,33.03125 z M 88,48 C 83.98403,58.229129 70.37512,66.585816 56.625,72.21875 81.00466,74.641664 85.48688,64.971393 88,48 z M 64.5,75.25 c -3.42075,3.391871 -5.16247,7.214956 -8.5,6.40625 0.20187,0.894466 2.73526,3.698255 4.6875,3.53125 4.60141,-1.885533 5.0578,-7.875223 3.8125,-9.9375 z"
       style="font-size:medium;font-style:normal;font-variant:normal;font-weight:normal;font-stretch:normal;text-indent:0;text-align:start;text-decoration:none;line-height:normal;letter-spacing:normal;word-spacing:normal;text-transform:none;direction:ltr;block-progression:tb;writing-mode:lr-tb;text-anchor:start;baseline-shift:baseline;color:#000000;fill:none;fill-opacity:1;fill-rule:nonzero;stroke:#ffffff;stroke-width:0.96344244000000001;marker:none;visibility:visible;display:inline;overflow:visible;enable-background:accumulate;font-family:Sans;-inkscape-font-specification:Sans;stroke-linecap:round;stroke-linejoin:round;stroke-miterlimit:4;stroke-opacity:1;stroke-dasharray:none;stroke-dashoffset:0" />
  </g>
</svg>
