<?xml version="1.0" encoding="UTF-8" standalone="no"?>
<!-- Created with Inkscape (http://www.inkscape.org/) -->

<svg
   xmlns:dc="http://purl.org/dc/elements/1.1/"
   xmlns:cc="http://creativecommons.org/ns#"
   xmlns:rdf="http://www.w3.org/1999/02/22-rdf-syntax-ns#"
   xmlns:svg="http://www.w3.org/2000/svg"
   xmlns="http://www.w3.org/2000/svg"
   xmlns:xlink="http://www.w3.org/1999/xlink"
   xmlns:sodipodi="http://sodipodi.sourceforge.net/DTD/sodipodi-0.dtd"
   xmlns:inkscape="http://www.inkscape.org/namespaces/inkscape"
   width="128"
   height="128"
   id="svg2690"
   sodipodi:version="0.32"
   inkscape:version="0.47 r22583"
   version="1.0"
   sodipodi:docname="image.svg"
   inkscape:output_extension="org.inkscape.output.svg.inkscape"
   inkscape:export-filename="/home/guitouze/HG/cremecrm/creme/media/images/image_22.png"
   inkscape:export-xdpi="15.46875"
   inkscape:export-ydpi="15.46875"
   enable-background="new">
  <defs
     id="defs2692">
    <linearGradient
       inkscape:collect="always"
       id="linearGradient4835">
      <stop
         style="stop-color:#648e37;stop-opacity:1"
         offset="0"
         id="stop4837" />
      <stop
         style="stop-color:#456226;stop-opacity:1"
         offset="1"
         id="stop4839" />
    </linearGradient>
    <linearGradient
       inkscape:collect="always"
       id="linearGradient4741">
      <stop
         style="stop-color:#bd897f;stop-opacity:1"
         offset="0"
         id="stop4743" />
      <stop
         style="stop-color:#a05f52;stop-opacity:0.98770493"
         offset="1"
         id="stop4745" />
    </linearGradient>
    <linearGradient
       inkscape:collect="always"
       id="linearGradient4713">
      <stop
         style="stop-color:#689ee5;stop-opacity:1;"
         offset="0"
         id="stop4715" />
      <stop
         style="stop-color:#d2e2f7;stop-opacity:1"
         offset="1"
         id="stop4717" />
    </linearGradient>
    <linearGradient
       id="linearGradient4664">
      <stop
         style="stop-color:#f0f9f9;stop-opacity:1"
         offset="0"
         id="stop4666" />
      <stop
         id="stop4676"
         offset="0.57770711"
         style="stop-color:#eff6f7;stop-opacity:1;" />
      <stop
         id="stop4674"
         offset="0.67766207"
         style="stop-color:#f7fafb;stop-opacity:1" />
      <stop
         id="stop4672"
         offset="0.78180164"
         style="stop-color:#d4e6e9;stop-opacity:1;" />
      <stop
         style="stop-color:#eef7f7;stop-opacity:1;"
         offset="1"
         id="stop4668" />
    </linearGradient>
    <linearGradient
       inkscape:collect="always"
       xlink:href="#linearGradient4664"
       id="linearGradient4670"
       x1="23.786901"
       y1="17.20451"
       x2="107.50159"
       y2="117.17036"
       gradientUnits="userSpaceOnUse"
       gradientTransform="matrix(1.2422795,0,0,0.86079475,-16.553771,10.408662)" />
    <linearGradient
       inkscape:collect="always"
       xlink:href="#linearGradient4713"
       id="linearGradient4719"
       x1="50.192944"
       y1="38.065857"
       x2="59.414394"
       y2="93.436981"
       gradientUnits="userSpaceOnUse" />
    <linearGradient
       inkscape:collect="always"
       xlink:href="#linearGradient4741"
       id="linearGradient4747"
       x1="20.18494"
       y1="66.624557"
       x2="115.93511"
       y2="94.281784"
       gradientUnits="userSpaceOnUse" />
    <filter
       inkscape:collect="always"
       id="filter4800"
       x="-0.04751772"
       width="1.0950354"
       y="-0.32031918"
       height="1.6406384">
      <feGaussianBlur
         inkscape:collect="always"
         stdDeviation="1.6763"
         id="feGaussianBlur4802" />
    </filter>
    <linearGradient
       inkscape:collect="always"
       xlink:href="#linearGradient4835"
       id="linearGradient4841"
       x1="53.007065"
       y1="82.656166"
       x2="58.121521"
       y2="98.983925"
       gradientUnits="userSpaceOnUse" />
    <filter
       color-interpolation-filters="sRGB"
       inkscape:collect="always"
       id="filter4800-9"
       x="-0.047517721"
       width="1.0950354"
       y="-0.32031918"
       height="1.6406384">
      <feGaussianBlur
         inkscape:collect="always"
         stdDeviation="1.6763"
         id="feGaussianBlur4802-4" />
    </filter>
    <filter
       color-interpolation-filters="sRGB"
       inkscape:collect="always"
       id="filter4800-9-9"
       x="-0.047517721"
       width="1.0950354"
       y="-0.32031918"
       height="1.6406384">
      <feGaussianBlur
         inkscape:collect="always"
         stdDeviation="1.6763"
         id="feGaussianBlur4802-4-6" />
    </filter>
    <filter
       color-interpolation-filters="sRGB"
       inkscape:collect="always"
       id="filter4800-9-2"
       x="-0.047517721"
       width="1.0950354"
       y="-0.32031918"
       height="1.6406384">
      <feGaussianBlur
         inkscape:collect="always"
         stdDeviation="1.6763"
         id="feGaussianBlur4802-4-2" />
    </filter>
    <filter
       inkscape:collect="always"
       id="filter5139"
       x="-0.021152794"
       width="1.0423056"
       y="-0.14084661"
       height="1.2816932">
      <feGaussianBlur
         inkscape:collect="always"
         stdDeviation="0.87474418"
         id="feGaussianBlur5141" />
    </filter>
    <filter
       inkscape:collect="always"
       id="filter5163">
      <feGaussianBlur
         inkscape:collect="always"
         stdDeviation="1.5759276"
         id="feGaussianBlur5165" />
    </filter>
    <mask
       maskUnits="userSpaceOnUse"
       id="mask5388">
      <rect
         y="36.610111"
         x="13.200317"
         height="58.989471"
         width="95.223412"
         id="rect5390"
         style="color:#000000;fill:#fafdff;fill-opacity:1;stroke:none;stroke-width:1;marker:none;visibility:visible;display:inline;overflow:visible;enable-background:accumulate" />
    </mask>
    <linearGradient
       inkscape:collect="always"
       xlink:href="#linearGradient4713"
       id="linearGradient5392"
       gradientUnits="userSpaceOnUse"
       x1="50.192944"
       y1="38.065857"
       x2="59.414394"
       y2="93.436981" />
    <linearGradient
       inkscape:collect="always"
       xlink:href="#linearGradient4741"
       id="linearGradient5394"
       gradientUnits="userSpaceOnUse"
       x1="20.18494"
       y1="66.624557"
       x2="115.93511"
       y2="94.281784" />
    <linearGradient
       inkscape:collect="always"
       xlink:href="#linearGradient4835"
       id="linearGradient5396"
       gradientUnits="userSpaceOnUse"
       x1="53.007065"
       y1="82.656166"
       x2="58.121521"
       y2="98.983925" />
    <filter
       inkscape:collect="always"
       id="filter5406">
      <feGaussianBlur
         inkscape:collect="always"
         stdDeviation="1.1629011"
         id="feGaussianBlur5408" />
    </filter>
  </defs>
  <sodipodi:namedview
     id="base"
     pagecolor="#ffffff"
     bordercolor="#666666"
     borderopacity="1.0"
     inkscape:pageopacity="0"
     inkscape:pageshadow="2"
     inkscape:zoom="1.0610224"
     inkscape:cx="-37.961758"
     inkscape:cy="131.06543"
     inkscape:document-units="px"
     inkscape:current-layer="layer1"
     inkscape:window-width="1440"
     inkscape:window-height="825"
     inkscape:window-x="0"
     inkscape:window-y="25"
     showgrid="false"
     showguides="false"
     inkscape:guide-bbox="true"
     inkscape:snap-global="false"
     inkscape:window-maximized="1">
    <sodipodi:guide
       orientation="1,0"
       position="62.557589,109.68195"
       id="guide3605" />
    <sodipodi:guide
       orientation="0,1"
       position="210.59475,65.311029"
       id="guide3607" />
  </sodipodi:namedview>
  <metadata
     id="metadata2695">
    <rdf:RDF>
      <cc:Work
         rdf:about="">
        <dc:format>image/svg+xml</dc:format>
        <dc:type
           rdf:resource="http://purl.org/dc/dcmitype/StillImage" />
        <dc:title></dc:title>
      </cc:Work>
    </rdf:RDF>
  </metadata>
  <g
     inkscape:groupmode="layer"
     id="shadow"
     style="display:inline;opacity:0.86">
    <rect
       y="8.8843346"
       x="19.210798"
       height="111.94113"
       width="90.867584"
       id="rect4680"
       style="color:#000000;fill:#3b6d74;fill-opacity:0.20901639000000000;fill-rule:nonzero;stroke:none;stroke-width:1;marker:none;visibility:visible;display:inline;overflow:visible;enable-background:accumulate;filter:url(#filter5406)"
       transform="matrix(1.3203929,0,0,0.91469998,-18.795847,11.066454)" />
  </g>
  <g
     inkscape:label="main"
     inkscape:groupmode="layer"
     id="layer1"
     style="display:inline">
    <rect
       y="15.3467"
       x="4.7171745"
       height="100.05643"
       width="117.2435"
       id="rect4678"
       style="color:#000000;fill:none;stroke:#80b6c0;stroke-width:3.99999976;stroke-miterlimit:4;stroke-opacity:1;stroke-dasharray:none;marker:none;visibility:visible;display:inline;overflow:visible;enable-background:accumulate" />
    <rect
       style="color:#000000;fill:url(#linearGradient4670);fill-opacity:1;fill-rule:nonzero;stroke:#bbd8dc;stroke-width:0.99999994;stroke-opacity:1;marker:none;visibility:visible;display:inline;overflow:visible;enable-background:accumulate"
       id="rect4662"
       width="117.2435"
       height="100.05643"
       x="4.7171745"
       y="15.3467" />
    <g
       id="g5282"
       mask="url(#mask5388)"
       transform="matrix(1.0934923,0,0,1.0938767,-3.15856,-6.9356358)">
      <rect
         style="color:#000000;fill:url(#linearGradient5392);fill-opacity:1;fill-rule:nonzero;stroke:none;stroke-width:1;marker:none;visibility:visible;display:inline;overflow:visible;enable-background:accumulate"
         id="rect4707"
         width="95.223412"
         height="58.989471"
         x="13.20032"
         y="36.610111" />
      <path
         sodipodi:nodetypes="ccccccccccccccc"
         id="path4728"
         d="m 125.76491,42.449397 c -1.00401,0.03739 -6.58729,-0.219642 -7.16507,-0.17697 -6.5658,0.128538 -13.24254,-0.261777 -19.749998,0.1875 -0.523784,0.157134 -1.052828,0.219407 -1.59375,0.28125 -10.525626,0.124185 -21.068128,-0.383649 -31.59375,-0.21875 1.074052,4.557096 9.310278,1.481653 9.125,7 -3.995382,1.747576 -8.980779,0.211257 -13.375,0.78125 -6.744692,0.0022 -13.505317,-0.02549 -20.25,0 -0.822678,4.530049 6.621973,2.36805 9.28125,4.3125 7.428206,0.347697 14.897352,0.06956 22.34375,0.15625 l 33.406248,0 c 4.81388,-2.393636 -5.53785,-2.776333 -6.874998,-4.3125 0.481293,-3.546744 7.711208,-2.991141 11.031248,-3.84375 3.5495,-0.70173 11.82759,-0.253707 15.41507,-0.44803 l 0,-3.71875 z"
         style="fill:#fbfdfe;fill-opacity:0.78688528;stroke:none;filter:url(#filter4800)" />
      <path
         sodipodi:nodetypes="ccccscccccccccccc"
         id="path4852"
         d="m 115.78125,44.59375 c -3.30334,-0.02535 -6.62127,-0.0059 -9.875,0.21875 -0.52379,0.157134 -3.88029,0.808461 -4.42121,0.870304 -10.525632,0.124185 -18.711912,-1.208325 -29.237534,-1.043426 4.362784,2.244161 9.798722,2.010316 16.465289,4.056976 0.674724,0.207143 -6.749725,2.082733 -6.869045,3.178646 -3.995382,1.747576 -8.980779,0.211257 -13.375,0.78125 -6.744692,0.0022 -13.505317,-0.02549 -20.25,0 -0.08207,0.451916 -0.06952,0.826812 0,1.15625 0.872799,0.145938 2.949159,-0.07224 3.51467,0.341256 7.428206,0.347697 13.601432,0.540804 21.04783,0.627494 l 31.99252,-0.471244 c 1.14595,-0.569809 2.09817,-0.300508 1.85149,-0.685091 -0.45266,-0.173804 -0.0689,-0.604071 -0.25026,-0.812415 -2.48757,-0.142465 -5.15917,-1.772291 -7.312415,-2.926884 0.481293,-3.546744 8.127735,-2.907836 11.447775,-3.760445 11.34099,0.229244 25.03639,-1.340236 5.27089,-1.531421 z"
         style="fill:#bad3f2;fill-opacity:0.78688528;stroke:none;filter:url(#filter4800)" />
      <path
         id="path4721"
         d="m 76.28125,52.320537 c -0.86531,0.05164 -1.592972,0.661784 -1.625,1.783091 -1.36616,1.565341 -1.903415,4.192934 -4.21875,4.870232 -1.932923,0.549573 -4.481413,0.625549 -5.3125,-1.304051 -1.95943,-2.470139 -3.262173,0.813596 -4.53125,1.969383 -1.898122,2.472607 -3.63643,5.08085 -4.53125,7.957375 -1.101604,2.416767 -3.318017,3.842037 -6.21875,4.311353 -2.368174,1.014855 -2.671906,3.811098 -4.8125,5.136366 -2.192824,0.598705 -3.905561,1.86645 -6.125,2.395196 -2.275471,0.895027 -4.683442,1.370553 -6.6875,-0.425812 -1.153584,-1.863806 -4.739442,-2.959316 -4.875,0.02661 -0.276742,2.038945 -2.676414,3.16513 -4.90625,3.007303 -2.121664,0.264487 -4.045974,-1.014723 -6.1875,-0.558879 -1.021992,0.0099 -2.042761,-0.0587 -3.0625,-0.133067 l 0,14.238111 95.25,0 0,-26.613292 c -1.21788,-1.440526 -2.66879,-2.755249 -4.1875,-3.965381 -2.22369,-1.279895 -3.07792,1.975776 -3.5625,3.300049 -0.25721,2.126136 -1.83602,4.345328 -4.34375,4.710553 -2.496246,0.975123 -4.767299,-1.004084 -5.40625,-2.927463 -0.843392,-1.745778 -2.990875,-3.349947 -2.96875,-5.349271 -1.117928,-2.164959 -3.695227,-3.506669 -4.78125,-5.748471 -1.645007,-1.915595 -2.609982,-4.250859 -4.90625,-5.721858 -0.573098,-0.693822 -1.326981,-0.998245 -2,-0.958079 z"
         style="fill:url(#linearGradient5394);fill-opacity:1;stroke:none" />
      <path
         sodipodi:nodetypes="csccccccccccccccccscccccccccsccccccc"
         id="path4752"
         d="m 78.5,55.75 c -0.03907,-0.0142 -0.07298,0.01082 -0.09375,0.03125 -0.766825,0.754308 0.951611,10.773703 -1.25,11.15625 -2.0392,0.582811 -6.104211,-3.518966 -7.53125,-5.3125 -0.949609,-2.047445 -0.597333,3.943073 -1.5,4.5625 -1.864053,2.30408 -2.57694,11.711675 -3.5625,14.5 -1.336502,2.508012 -7.133849,-6.23835 -9.875,-5.75 -2.101442,1.242572 -1.103732,5.19963 -3.46875,6.15625 -2.884283,1.038755 4.3749,14.911943 -8.25,3.0625 -2.507096,0.762946 -10.108273,-2.36281 -11.6875,-4.4375 -2.021076,-1.281735 0.908706,4.658358 -0.4375,5.375 -2.365089,2.191434 -2.559638,5.647438 -5.46875,4.96875 -2.895451,-6.21259 -8.05464,1.049095 -15.21875,-0.25 L 9.1875,100.25 l 101.75,0.34375 -0.15625,-30.65625 c -1.17452,-1.084088 -4.95742,-2.778913 -5.90625,-3.21875 -1.29196,2.590303 0.44568,14.699227 -2.34375,14.375 -1.60358,-0.292269 -4.126666,-1.166184 -5.40625,-1.46875 -2.136376,-0.505161 -6.636553,-6.278431 -7.5,-8.78125 -0.991287,-1.806079 -2.733253,-3.261758 -3,-5.40625 C 85.242536,63.568673 83.265457,62.606936 82.09375,60.53125 81.6186,59.872286 79.086032,55.963009 78.5,55.75 z m -0.8125,21.9375 c 0.944261,-0.06779 1.917625,0.297261 2.84375,0.875 0.505304,0.310996 0.9072,0.760093 1.3125,1.125 0.09095,0.668635 1.207815,1.397697 -0.28125,2 -0.34611,1.258402 -0.722682,2.403053 0.0625,3.5625 0.132376,0.29602 0.436015,0.482525 0.5625,0.78125 0.0817,0.240505 0.142953,0.60256 -0.125,0.75 -0.809595,0.09352 -1.451855,-0.170788 -2.1875,-0.46875 -1.382484,-0.609722 -0.666678,-0.747434 -2.125,-1.15625 -0.972115,-0.321632 -1.744517,-0.575834 -2.21875,-1.5625 -0.001,-1.187021 -0.46345,-2.844227 -0.46875,-4.03125 0.08529,-0.815609 0.576952,-0.781783 0.96875,-1.25 0.533953,-0.389236 1.089693,-0.584326 1.65625,-0.625 z"
         style="fill:#4c2d27;fill-opacity:0.49180328;stroke:none;filter:url(#filter5163)" />
      <path
         sodipodi:nodetypes="ccccccccccccccccccccccccccccc"
         id="path4825"
         d="m 104.09375,80.71875 c -0.2374,0.03513 -0.36589,0.298726 -0.1875,0.96875 -0.32403,2.352211 1.04092,6.343324 -1.75,7.40625 -2.01216,-0.167259 -2.589455,-5.400544 -4.625,-3.125 0.261181,1.409432 -0.236884,4.977093 -2.0625,2.78125 -1.500454,-1.472652 -2.44373,-3.919663 -4.96875,-3.5 -1.590031,0.428223 -3.90178,-1.898856 -4.625,-1.46875 1.382342,1.675021 -0.276422,4.755872 -2.40625,3.09375 -1.88618,-1.395078 -3.227928,-3.424481 -5.6875,-3.9375 -2.033821,-1.534093 -4.108878,-0.234926 -3.4375,2.15625 -0.310754,1.61644 0.127006,3.738373 -2.21875,3.46875 -1.508244,0.320798 -3.333309,-0.677083 -3.78125,1.15625 -1.804772,1.138418 -2.916415,-0.788425 -3.15625,-2.1875 -1.510012,-0.6802 -3.979864,-0.441428 -3.5,-2.8125 -1.505002,-1.805795 -3.091304,0.779156 -3.8125,1.96875 -0.517678,1.916714 -2.762721,2.515711 -4.40625,1.8125 -1.754941,-1.134229 -3.92842,-0.822912 -5.8125,-1.71875 -1.839301,-0.0569 -3.689593,-2.391546 -5.375,-1.15625 -1.615591,1.199988 2.010733,2.275212 -0.15625,3.15625 -2.404093,0.547803 -4.781193,-0.720825 -7,-1.46875 -2.239953,-0.474758 -4.899416,-1.171544 -6.65625,0.78125 -1.812707,1.806496 -4.693413,2.685025 -7.09375,1.59375 -1.161507,-1.470782 -3.595513,-0.940561 -4.34375,1.010189 -1.276207,-0.106307 -2.473851,0.261984 -3.84375,-0.853939 l 0,5.75 95.25,0 0,-11.53125 c -0.90726,-0.849689 -1.92016,-1.568693 -2.90625,-2.3125 -0.30951,-0.481995 -1.04183,-1.089799 -1.4375,-1.03125 z"
         style="fill:url(#linearGradient5396);fill-opacity:1;stroke:none" />
      <path
         id="path4889"
         d="m 104.09375,80.71875 c -0.2374,0.03513 -0.36589,0.298726 -0.1875,0.96875 -0.32403,2.352211 1.04092,6.343324 -1.75,7.40625 -2.01216,-0.167259 -2.589455,-5.400544 -4.625,-3.125 0.179562,0.968984 0.0041,2.971241 -0.71875,3.40625 1.087954,0.72693 1.839341,2.076123 2.8125,3.03125 1.82562,2.195843 2.32369,-1.371818 2.0625,-2.78125 2.03555,-2.275544 2.61284,2.957741 4.625,3.125 2.79092,-1.062926 1.42597,-5.054039 1.75,-7.40625 -0.17839,-0.670024 -0.0499,-0.93362 0.1875,-0.96875 0.0575,-0.0085 0.11814,0.01406 0.1875,0.03125 l 0,-0.34375 c -0.90726,-0.849689 -1.92016,-1.568693 -2.90625,-2.3125 -0.30951,-0.481995 -1.04183,-1.089799 -1.4375,-1.03125 z m -28.15625,1.5625 c -1.22881,0.04582 -2.055322,1.168566 -1.59375,2.8125 -0.310754,1.61644 0.127006,3.738373 -2.21875,3.46875 -1.508244,0.320798 -3.333309,-0.677083 -3.78125,1.15625 -1.118693,0.705652 -1.987735,0.231593 -2.53125,-0.5625 0.171918,1.55203 2.209989,1.436075 3.53125,2.03125 0.239835,1.399075 1.351478,3.325918 3.15625,2.1875 0.447941,-1.833333 2.273006,-0.835452 3.78125,-1.15625 2.345756,0.269623 1.907996,-1.85231 2.21875,-3.46875 -0.671378,-2.391176 1.403679,-3.690343 3.4375,-2.15625 2.459572,0.513019 3.80132,2.542422 5.6875,3.9375 2.129828,1.662122 3.788592,-1.418729 2.40625,-3.09375 0.72322,-0.430106 3.034969,1.896973 4.625,1.46875 0.338679,-0.05629 0.650573,-0.06884 0.9375,-0.03125 -0.04188,-0.04577 -0.08163,-0.07284 -0.125,-0.125 -1.500454,-1.472652 -2.44373,-3.919663 -4.96875,-3.5 -1.590031,0.428223 -3.90178,-1.898856 -4.625,-1.46875 1.382342,1.675021 -0.276422,4.755872 -2.40625,3.09375 -1.88618,-1.395078 -3.227928,-3.424481 -5.6875,-3.9375 -0.635569,-0.479404 -1.2852,-0.677078 -1.84375,-0.65625 z m -15.375,1.8125 c -1.114876,0.02096 -2.146603,1.701555 -2.6875,2.59375 -0.517678,1.916714 -2.762721,2.515711 -4.40625,1.8125 -1.754941,-1.134229 -3.92842,-0.822912 -5.8125,-1.71875 -1.839301,-0.0569 -3.689593,-2.391546 -5.375,-1.15625 -1.615591,1.199988 2.010733,2.275212 -0.15625,3.15625 -2.404093,0.547803 -4.781193,-0.720825 -7,-1.46875 -2.239953,-0.474758 -4.899416,-1.171544 -6.65625,0.78125 -1.812707,1.806496 -4.693413,2.685025 -7.09375,1.59375 -1.161507,-1.470782 -3.595513,-0.95075 -4.34375,1 -1.276207,-0.106307 -2.473851,0.272173 -3.84375,-0.84375 l 0,5.75 4.15625,0 0,-2.09375 c 1.369899,1.115923 2.567543,0.768693 3.84375,0.875 0.748237,-1.95075 3.182243,-2.502032 4.34375,-1.03125 2.400337,1.091275 5.281043,0.212746 7.09375,-1.59375 1.756834,-1.952794 4.416297,-1.256008 6.65625,-0.78125 2.218807,0.747925 4.595907,2.016553 7,1.46875 2.166983,-0.881038 -1.459341,-1.956262 0.15625,-3.15625 1.685407,-1.235296 3.535699,1.09935 5.375,1.15625 1.88408,0.895838 4.057559,0.584521 5.8125,1.71875 1.643529,0.703211 3.888572,0.104214 4.40625,-1.8125 0.631046,-1.040895 1.928278,-3.136202 3.25,-2.4375 -0.03477,-0.129632 -0.07252,-0.251147 -0.09375,-0.375 -1.510012,-0.6802 -3.979864,-0.441428 -3.5,-2.8125 -0.37625,-0.451449 -0.753375,-0.631987 -1.125,-0.625 z"
         style="fill:#b7d696;fill-opacity:0.09016395;stroke:none" />
      <path
         sodipodi:type="arc"
         style="color:#000000;fill:#623f38;fill-opacity:1;fill-rule:nonzero;stroke:none;stroke-width:4;marker:none;visibility:visible;display:inline;overflow:visible;filter:url(#filter4800-9);enable-background:accumulate"
         id="path4918"
         sodipodi:cx="77.283951"
         sodipodi:cy="74.04261"
         sodipodi:rx="2.5918398"
         sodipodi:ry="1.6493526"
         d="m 79.875791,74.04261 c 0,0.910912 -1.160407,1.649353 -2.59184,1.649353 -1.431434,0 -2.59184,-0.738441 -2.59184,-1.649353 0,-0.910912 1.160406,-1.649352 2.59184,-1.649352 1.431433,0 2.59184,0.73844 2.59184,1.649352 z"
         transform="matrix(0.2173697,0,0,0.314627,90.290918,52.513969)" />
      <path
         transform="matrix(0.7412636,0,0,-0.7412636,0.18873306,113.34039)"
         style="fill:#f4f8fd;fill-opacity:0.78688528;stroke:none;filter:url(#filter4800)"
         d="M 60.248886,64.572804 C 60.485809,63.596433 54.461988,61.602517 48.872104,62.727043 42.550433,63.998783 39.046613,61.670603 32.539155,62.11988 32.015371,62.277014 9.0768413,62.021422 6.6287283,61.924333 L 1.3908138,76.33957 C 12.378915,74.86642 29.041086,74.657289 38.611443,73.001987 43.61976,72.135742 33.159351,71.168551 32.848972,69.325217 32.303496,66.08564 40.719113,67.128739 44.039153,66.27613 49.38942,65.628888 59.8508,66.21333 60.248886,64.572804 z"
         id="path4823"
         sodipodi:nodetypes="cscccsscs" />
      <path
         sodipodi:nodetypes="ccccccccccccccccccccscccsccccc"
         style="fill:#212f12;fill-opacity:0.38934428;stroke:none;filter:url(#filter5139)"
         d="m 106.92612,85.550433 c -0.2374,0.03513 0.88368,3.297702 1.06207,3.967726 -0.32403,2.352211 0.79101,4.427311 -1.99991,5.490237 -2.01216,-0.167259 -4.00565,-4.900714 -6.874234,-6.290585 0.26118,1.409432 1.012684,7.059715 -0.81293,4.863872 -1.500454,-1.472652 -3.360084,-5.669066 -5.885104,-5.249403 -0.568424,2.811973 -2.709387,-1.365837 -3.625341,-1.385445 1.382342,1.675021 -0.359727,6.42197 -2.489555,4.759848 -1.88618,-1.395078 -5.393855,-6.673371 -7.853427,-7.18639 -0.617638,2.048017 -0.443463,3.180574 0.227915,5.57175 -0.310754,1.61644 -1.622397,0.406177 -3.968153,0.136554 -1.508244,0.320798 -3.083394,2.488503 -3.531335,4.321836 -1.804772,1.138418 -2.916415,-0.788425 -3.15625,-2.1875 -1.510012,-0.6802 -5.895876,-1.940916 -5.416012,-4.311988 -1.505002,-1.805795 -1.175292,2.278644 -1.896488,3.468238 -0.517678,1.916714 -1.846367,5.181467 -3.489896,4.478256 -1.754941,-1.134229 -5.844433,-4.238412 -7.728513,-5.13425 -1.839301,-0.0569 -2.023495,-2.724765 -3.708902,-1.489469 -1.615591,1.199988 1.344294,3.358175 -0.822689,4.239213 -2.404093,0.547803 -4.781193,-0.720825 -7,-1.46875 -1.268698,-0.2689 -2.139159,1.795747 -3.552661,1.535354 -1.082111,-0.199344 -2.758341,-2.933724 -3.520113,-2.086982 0.454582,3.724971 -3.946202,4.297715 -6.677226,2.926628 -1.161507,-1.470782 -3.678818,-0.857256 -4.427055,1.093494 -0.586736,-0.04888 -2.852713,-2.52366 -4.35477,-2.666297 -1.765062,-0.167613 -2.709227,1.24703 -3.404309,1.229224 l 0.333219,5.250167 98.082369,-0.833045 0.83305,-9.698543 c -0.75652,-2.703653 -1.36384,-3.288274 -4.34375,-3.34375 z"
         id="path4833" />
      <path
         sodipodi:nodetypes="cccccccccccccccccccccccccccccccccccccccc"
         id="path4843"
         d="m 76.28125,52.3125 c -0.86531,0.05164 -1.592972,0.659943 -1.625,1.78125 -1.36616,1.565341 -1.903415,4.197702 -4.21875,4.875 -1.932923,0.549573 -4.481413,0.6171 -5.3125,-1.3125 -1.95943,-2.470139 -3.262173,0.812963 -4.53125,1.96875 -1.898122,2.472607 -3.63643,5.092225 -4.53125,7.96875 -1.101604,2.416767 -3.318017,3.843184 -6.21875,4.3125 -2.368174,1.014855 -2.671906,3.799732 -4.8125,5.125 -2.192824,0.598705 -3.905561,1.877504 -6.125,2.40625 -2.275471,0.895027 -4.683442,1.358865 -6.6875,-0.4375 -1.153584,-1.863806 -4.739442,-2.954676 -4.875,0.03125 -0.276742,2.038945 -2.676414,3.189077 -4.90625,3.03125 C 20.315836,82.326987 18.391526,81.044156 16.25,81.5 15.228008,81.5099 14.207239,81.41812 13.1875,81.34375 l 0.11575,3.614555 c 1.019739,0.07437 5.456008,0.08285 6.478,0.07295 2.141526,-0.455844 4.065836,0.826987 6.1875,0.5625 2.229836,0.157827 3.29663,-3.408147 3.573372,-5.447092 0.135558,-2.985926 7.053611,0.468731 8.207195,2.332537 2.004058,1.796365 3.74559,0.634838 6.021061,-0.260189 2.219439,-0.528746 2.599298,-1.026551 4.792122,-1.625256 2.140594,-1.325268 0.944838,-6.723846 3.313012,-7.738701 2.900733,-0.469316 9.032476,3.768999 10.13408,1.352232 0.89482,-2.876525 -0.03263,-9.005351 1.865493,-11.477958 1.269077,-1.155787 0.989028,-4.064017 3.489939,-2.510232 2.205618,1.221509 8.002998,3.496921 9.935921,2.947348 2.315335,-0.677298 -0.979434,-5.725501 0.386726,-7.290842 0.03203,-1.121307 1.259519,0.01979 2.124829,-0.03185 3.800628,5.114955 0.728949,-0.440619 -1.53125,-2.5625 -0.573098,-0.693822 -1.326981,-1.008916 -2,-0.96875 z M 103.125,64.71875 c -1.41805,0.15729 -2.04378,2.517778 -2.4375,3.59375 -0.25721,2.126136 -1.83602,4.353525 -4.34375,4.71875 -0.743264,0.290346 -4.791,-1.772337 -5.457195,-1.926372 0.08638,0.143825 2.179034,4.290652 3.165671,3.68639 0.638951,1.923379 3.326528,2.746355 5.822774,1.771232 2.50773,-0.365225 3.83663,-2.717571 4.09384,-4.843707 0.48458,-1.324273 -0.63969,-6.164764 1.584,-4.884869 1.71817,1.638774 -0.45222,-1.1367 -1.30284,-1.833924 -0.41694,-0.23998 -0.79776,-0.317548 -1.125,-0.28125 z"
         style="fill:#e7d5d2;fill-opacity:0.27459017;stroke:none" />
      <path
         sodipodi:nodetypes="cccccccccccccccccccccc"
         style="fill:none;stroke:#53312b;stroke-width:0.91434044px;stroke-linecap:butt;stroke-linejoin:miter;stroke-opacity:1"
         d="m 108.4375,68.980456 c -1.21788,-1.440526 -2.66879,-2.755249 -4.1875,-3.965381 -2.22369,-1.279895 -3.07792,1.975776 -3.5625,3.300049 -0.25721,2.126136 -1.83602,4.345328 -4.34375,4.710553 -2.496246,0.975123 -4.767299,-1.004084 -5.40625,-2.927463 -0.843392,-1.745778 -2.990875,-3.349947 -2.96875,-5.349271 -1.117928,-2.164959 -3.695227,-3.506669 -4.78125,-5.748471 -1.645007,-1.915595 -2.609982,-4.250859 -4.90625,-5.721858 -0.573098,-0.693822 -1.326981,-0.998245 -2,-0.958079 -0.86531,0.05164 -1.592972,0.661786 -1.625,1.783093 -1.36616,1.565341 -1.903415,4.192934 -4.21875,4.870232 -1.932923,0.549573 -4.481413,0.625549 -5.3125,-1.304051 -1.95943,-2.470139 -3.262173,0.813596 -4.53125,1.969383 -1.898122,2.472607 -3.63643,5.08085 -4.53125,7.957375 -1.101604,2.416767 -3.318017,3.842037 -6.21875,4.311353 -2.368174,1.014855 -2.671906,3.811098 -4.8125,5.136366 -2.192824,0.598705 -3.905561,1.86645 -6.125,2.395196 -2.275471,0.895027 -4.683442,1.370553 -6.6875,-0.425812 -1.153584,-1.863806 -4.739442,-2.959316 -4.875,0.02661 -0.276742,2.038945 -2.676414,3.16513 -4.90625,3.007303 -2.121664,0.264487 -4.045974,-1.014723 -6.1875,-0.558879 -1.021992,0.0099 -2.042761,-0.0587 -3.0625,-0.133067"
         id="path4850" />
      <path
         sodipodi:nodetypes="ccccscscc"
         id="path4872"
         d="m 5.0625,59.75 2.6979451,7.32303 C 12.381201,66.990009 23.976799,66.680712 24.3125,66.781421 c 2.787519,0.192451 4.835517,-0.292159 6.96875,-0.5625 -1.738299,-0.193856 10.143267,0.71543 10.339227,-0.448372 0.06687,-0.39714 -12.794224,-0.229899 -11.922447,-0.531421 -2.690904,-0.144777 -8.454401,-1.087539 -8.165756,-2.801799 0.03529,-0.209582 4.35491,-2.630635 5.508738,-1.895378 C 20.448581,61.247357 10.784181,61.936282 5.0625,59.75 z"
         style="color:#000000;fill:#ccdef6;fill-opacity:0.78688528;fill-rule:nonzero;stroke:none;marker:none;visibility:visible;display:inline;overflow:visible;filter:url(#filter4800-9);enable-background:accumulate" />
      <path
         transform="matrix(0.2173697,0,0,0.314627,60.956005,51.866009)"
         d="m 79.875791,74.04261 c 0,0.910912 -1.160407,1.649353 -2.59184,1.649353 -1.431434,0 -2.59184,-0.738441 -2.59184,-1.649353 0,-0.910912 1.160406,-1.649352 2.59184,-1.649352 1.431433,0 2.59184,0.73844 2.59184,1.649352 z"
         sodipodi:ry="1.6493526"
         sodipodi:rx="2.5918398"
         sodipodi:cy="74.04261"
         sodipodi:cx="77.283951"
         id="path4894"
         style="color:#000000;fill:#623f38;fill-opacity:1;fill-rule:nonzero;stroke:none;stroke-width:4;marker:none;visibility:visible;display:inline;overflow:visible;filter:url(#filter4800-9);enable-background:accumulate"
         sodipodi:type="arc" />
      <path
         sodipodi:type="arc"
         style="color:#000000;fill:#623f38;fill-opacity:1;fill-rule:nonzero;stroke:none;stroke-width:4;marker:none;visibility:visible;display:inline;overflow:visible;filter:url(#filter4800-9);enable-background:accumulate"
         id="path4896"
         sodipodi:cx="77.283951"
         sodipodi:cy="74.04261"
         sodipodi:rx="2.5918398"
         sodipodi:ry="1.6493526"
         d="m 79.875791,74.04261 c 0,0.910912 -1.160407,1.649353 -2.59184,1.649353 -1.431434,0 -2.59184,-0.738441 -2.59184,-1.649353 0,-0.910912 1.160406,-1.649352 2.59184,-1.649352 1.431433,0 2.59184,0.73844 2.59184,1.649352 z"
         transform="matrix(0.21291725,0,0,0.314627,59.150059,53.804318)" />
      <path
         transform="matrix(0.21291725,0,0,0.314627,62.62548,53.745412)"
         d="m 79.875791,74.04261 c 0,0.910912 -1.160407,1.649353 -2.59184,1.649353 -1.431434,0 -2.59184,-0.738441 -2.59184,-1.649353 0,-0.910912 1.160406,-1.649352 2.59184,-1.649352 1.431433,0 2.59184,0.73844 2.59184,1.649352 z"
         sodipodi:ry="1.6493526"
         sodipodi:rx="2.5918398"
         sodipodi:cy="74.04261"
         sodipodi:cx="77.283951"
         id="path4898"
         style="color:#000000;fill:#623f38;fill-opacity:1;fill-rule:nonzero;stroke:none;stroke-width:4;marker:none;visibility:visible;display:inline;overflow:visible;filter:url(#filter4800-9);enable-background:accumulate"
         sodipodi:type="arc" />
      <path
         sodipodi:type="arc"
         style="color:#000000;fill:#623f38;fill-opacity:1;fill-rule:nonzero;stroke:none;stroke-width:4;marker:none;visibility:visible;display:inline;overflow:visible;filter:url(#filter4800-9);enable-background:accumulate"
         id="path4900"
         sodipodi:cx="77.283951"
         sodipodi:cy="74.04261"
         sodipodi:rx="2.5918398"
         sodipodi:ry="1.6493526"
         d="m 79.875791,74.04261 c 0,0.910912 -1.160407,1.649353 -2.59184,1.649353 -1.431434,0 -2.59184,-0.738441 -2.59184,-1.649353 0,-0.910912 1.160406,-1.649352 2.59184,-1.649352 1.431433,0 2.59184,0.73844 2.59184,1.649352 z"
         transform="matrix(0.21291725,0,0,0.314627,43.716831,53.038547)" />
      <path
         transform="matrix(0.21291725,0,0,0.314627,42.656533,54.864616)"
         d="m 79.875791,74.04261 c 0,0.910912 -1.160407,1.649353 -2.59184,1.649353 -1.431434,0 -2.59184,-0.738441 -2.59184,-1.649353 0,-0.910912 1.160406,-1.649352 2.59184,-1.649352 1.431433,0 2.59184,0.73844 2.59184,1.649352 z"
         sodipodi:ry="1.6493526"
         sodipodi:rx="2.5918398"
         sodipodi:cy="74.04261"
         sodipodi:cx="77.283951"
         id="path4902"
         style="color:#000000;fill:#623f38;fill-opacity:1;fill-rule:nonzero;stroke:none;stroke-width:4;marker:none;visibility:visible;display:inline;overflow:visible;filter:url(#filter4800-9);enable-background:accumulate"
         sodipodi:type="arc" />
      <path
         sodipodi:type="arc"
         style="color:#000000;fill:#623f38;fill-opacity:1;fill-rule:nonzero;stroke:none;stroke-width:4;marker:none;visibility:visible;display:inline;overflow:visible;filter:url(#filter4800-9);enable-background:accumulate"
         id="path4904"
         sodipodi:cx="77.283951"
         sodipodi:cy="74.04261"
         sodipodi:rx="2.5918398"
         sodipodi:ry="1.6493526"
         d="m 79.875791,74.04261 c 0,0.910912 -1.160407,1.649353 -2.59184,1.649353 -1.431434,0 -2.59184,-0.738441 -2.59184,-1.649353 0,-0.910912 1.160406,-1.649352 2.59184,-1.649352 1.431433,0 2.59184,0.73844 2.59184,1.649352 z"
         transform="matrix(0.21291725,0,0,0.314627,40.653748,53.450885)" />
      <path
         transform="matrix(0.21291725,0,0,0.314627,56.852746,42.553377)"
         d="m 79.875791,74.04261 c 0,0.910912 -1.160407,1.649353 -2.59184,1.649353 -1.431434,0 -2.59184,-0.738441 -2.59184,-1.649353 0,-0.910912 1.160406,-1.649352 2.59184,-1.649352 1.431433,0 2.59184,0.73844 2.59184,1.649352 z"
         sodipodi:ry="1.6493526"
         sodipodi:rx="2.5918398"
         sodipodi:cy="74.04261"
         sodipodi:cx="77.283951"
         id="path4906"
         style="color:#000000;fill:#623f38;fill-opacity:1;fill-rule:nonzero;stroke:none;stroke-width:4;marker:none;visibility:visible;display:inline;overflow:visible;filter:url(#filter4800-9);enable-background:accumulate"
         sodipodi:type="arc" />
      <path
         sodipodi:type="arc"
         style="color:#000000;fill:#623f38;fill-opacity:1;fill-rule:nonzero;stroke:none;stroke-width:4;marker:none;visibility:visible;display:inline;overflow:visible;filter:url(#filter4800-9);enable-background:accumulate"
         id="path4908"
         sodipodi:cx="77.283951"
         sodipodi:cy="74.04261"
         sodipodi:rx="2.5918398"
         sodipodi:ry="1.6493526"
         d="m 79.875791,74.04261 c 0,0.910912 -1.160407,1.649353 -2.59184,1.649353 -1.431434,0 -2.59184,-0.738441 -2.59184,-1.649353 0,-0.910912 1.160406,-1.649352 2.59184,-1.649352 1.431433,0 2.59184,0.73844 2.59184,1.649352 z"
         transform="matrix(0.21291725,0,0,0.314627,58.502099,41.787606)" />
      <path
         transform="matrix(0.21291725,0,0,0.314627,58.502099,43.790391)"
         d="m 79.875791,74.04261 c 0,0.910912 -1.160407,1.649353 -2.59184,1.649353 -1.431434,0 -2.59184,-0.738441 -2.59184,-1.649353 0,-0.910912 1.160406,-1.649352 2.59184,-1.649352 1.431433,0 2.59184,0.73844 2.59184,1.649352 z"
         sodipodi:ry="1.6493526"
         sodipodi:rx="2.5918398"
         sodipodi:cy="74.04261"
         sodipodi:cx="77.283951"
         id="path4910"
         style="color:#000000;fill:#623f38;fill-opacity:1;fill-rule:nonzero;stroke:none;stroke-width:4;marker:none;visibility:visible;display:inline;overflow:visible;filter:url(#filter4800-9);enable-background:accumulate"
         sodipodi:type="arc" />
      <path
         sodipodi:type="arc"
         style="color:#000000;fill:#623f38;fill-opacity:1;fill-rule:nonzero;stroke:none;stroke-width:4;marker:none;visibility:visible;display:inline;overflow:visible;filter:url(#filter4800-9);enable-background:accumulate"
         id="path4912"
         sodipodi:cx="77.283951"
         sodipodi:cy="74.04261"
         sodipodi:rx="2.5918398"
         sodipodi:ry="1.6493526"
         d="m 79.875791,74.04261 c 0,0.910912 -1.160407,1.649353 -2.59184,1.649353 -1.431434,0 -2.59184,-0.738441 -2.59184,-1.649353 0,-0.910912 1.160406,-1.649352 2.59184,-1.649352 1.431433,0 2.59184,0.73844 2.59184,1.649352 z"
         transform="matrix(0.2173697,0,0,0.314627,73.915204,52.101631)" />
      <path
         transform="matrix(0.2173697,0,0,0.314627,73.915204,53.692078)"
         d="m 79.875791,74.04261 c 0,0.910912 -1.160407,1.649353 -2.59184,1.649353 -1.431434,0 -2.59184,-0.738441 -2.59184,-1.649353 0,-0.910912 1.160406,-1.649352 2.59184,-1.649352 1.431433,0 2.59184,0.73844 2.59184,1.649352 z"
         sodipodi:ry="1.6493526"
         sodipodi:rx="2.5918398"
         sodipodi:cy="74.04261"
         sodipodi:cx="77.283951"
         id="path4914"
         style="color:#000000;fill:#623f38;fill-opacity:1;fill-rule:nonzero;stroke:none;stroke-width:4;marker:none;visibility:visible;display:inline;overflow:visible;filter:url(#filter4800-9);enable-background:accumulate"
         sodipodi:type="arc" />
      <path
         sodipodi:type="arc"
         style="color:#000000;fill:#623f38;fill-opacity:1;fill-rule:nonzero;stroke:none;stroke-width:4;marker:none;visibility:visible;display:inline;overflow:visible;filter:url(#filter4800-9);enable-background:accumulate"
         id="path4916"
         sodipodi:cx="77.283951"
         sodipodi:cy="74.04261"
         sodipodi:rx="2.5918398"
         sodipodi:ry="1.6493526"
         d="m 79.875791,74.04261 c 0,0.910912 -1.160407,1.649353 -2.59184,1.649353 -1.431434,0 -2.59184,-0.738441 -2.59184,-1.649353 0,-0.910912 1.160406,-1.649352 2.59184,-1.649352 1.431433,0 2.59184,0.73844 2.59184,1.649352 z"
         transform="matrix(0.2173697,0,0,0.314627,61.721776,55.812674)" />
      <path
         transform="matrix(0.2173697,0,0,0.314627,88.877188,51.453671)"
         d="m 79.875791,74.04261 c 0,0.910912 -1.160407,1.649353 -2.59184,1.649353 -1.431434,0 -2.59184,-0.738441 -2.59184,-1.649353 0,-0.910912 1.160406,-1.649352 2.59184,-1.649352 1.431433,0 2.59184,0.73844 2.59184,1.649352 z"
         sodipodi:ry="1.6493526"
         sodipodi:rx="2.5918398"
         sodipodi:cy="74.04261"
         sodipodi:cx="77.283951"
         id="path4920"
         style="color:#000000;fill:#623f38;fill-opacity:1;fill-rule:nonzero;stroke:none;stroke-width:4;marker:none;visibility:visible;display:inline;overflow:visible;filter:url(#filter4800-9);enable-background:accumulate"
         sodipodi:type="arc" />
      <path
         sodipodi:type="arc"
         style="color:#000000;fill:#623f38;fill-opacity:1;fill-rule:nonzero;stroke:none;stroke-width:4;marker:none;visibility:visible;display:inline;overflow:visible;filter:url(#filter4800-9);enable-background:accumulate"
         id="path4922"
         sodipodi:cx="77.283951"
         sodipodi:cy="74.04261"
         sodipodi:rx="2.5918398"
         sodipodi:ry="1.6493526"
         d="m 79.875791,74.04261 c 0,0.910912 -1.160407,1.649353 -2.59184,1.649353 -1.431434,0 -2.59184,-0.738441 -2.59184,-1.649353 0,-0.910912 1.160406,-1.649352 2.59184,-1.649352 1.431433,0 2.59184,0.73844 2.59184,1.649352 z"
         transform="matrix(0.21291725,0,0,0.314627,22.039626,58.811281)" />
      <path
         transform="matrix(0.21291725,0,0,0.314627,19.506692,59.577052)"
         d="m 79.875791,74.04261 c 0,0.910912 -1.160407,1.649353 -2.59184,1.649353 -1.431434,0 -2.59184,-0.738441 -2.59184,-1.649353 0,-0.910912 1.160406,-1.649352 2.59184,-1.649352 1.431433,0 2.59184,0.73844 2.59184,1.649352 z"
         sodipodi:ry="1.6493526"
         sodipodi:rx="2.5918398"
         sodipodi:cy="74.04261"
         sodipodi:cx="77.283951"
         id="path4924"
         style="color:#000000;fill:#623f38;fill-opacity:1;fill-rule:nonzero;stroke:none;stroke-width:4;marker:none;visibility:visible;display:inline;overflow:visible;filter:url(#filter4800-9);enable-background:accumulate"
         sodipodi:type="arc" />
      <path
         sodipodi:type="arc"
         style="color:#000000;fill:#623f38;fill-opacity:1;fill-rule:nonzero;stroke:none;stroke-width:4;marker:none;visibility:visible;display:inline;overflow:visible;filter:url(#filter4800-9);enable-background:accumulate"
         id="path4926"
         sodipodi:cx="77.283951"
         sodipodi:cy="74.04261"
         sodipodi:rx="2.5918398"
         sodipodi:ry="1.6493526"
         d="m 79.875791,74.04261 c 0,0.910912 -1.160407,1.649353 -2.59184,1.649353 -1.431434,0 -2.59184,-0.738441 -2.59184,-1.649353 0,-0.910912 1.160406,-1.649352 2.59184,-1.649352 1.431433,0 2.59184,0.73844 2.59184,1.649352 z"
         transform="matrix(0.21291725,0,0,0.314627,21.097139,60.63735)" />
      <path
         transform="matrix(0.21291725,0,0,0.314627,6.7242096,62.875757)"
         d="m 79.875791,74.04261 c 0,0.910912 -1.160407,1.649353 -2.59184,1.649353 -1.431434,0 -2.59184,-0.738441 -2.59184,-1.649353 0,-0.910912 1.160406,-1.649352 2.59184,-1.649352 1.431433,0 2.59184,0.73844 2.59184,1.649352 z"
         sodipodi:ry="1.6493526"
         sodipodi:rx="2.5918398"
         sodipodi:cy="74.04261"
         sodipodi:cx="77.283951"
         id="path4928"
         style="color:#000000;fill:#623f38;fill-opacity:1;fill-rule:nonzero;stroke:none;stroke-width:4;marker:none;visibility:visible;display:inline;overflow:visible;filter:url(#filter4800-9);enable-background:accumulate"
         sodipodi:type="arc" />
      <path
         sodipodi:type="arc"
         style="color:#000000;fill:#623f38;fill-opacity:1;fill-rule:nonzero;stroke:none;stroke-width:4;marker:none;visibility:visible;display:inline;overflow:visible;filter:url(#filter4800-9);enable-background:accumulate"
         id="path4930"
         sodipodi:cx="77.283951"
         sodipodi:cy="74.04261"
         sodipodi:rx="2.5918398"
         sodipodi:ry="1.6493526"
         d="m 79.875791,74.04261 c 0,0.910912 -1.160407,1.649353 -2.59184,1.649353 -1.431434,0 -2.59184,-0.738441 -2.59184,-1.649353 0,-0.910912 1.160406,-1.649352 2.59184,-1.649352 1.431433,0 2.59184,0.73844 2.59184,1.649352 z"
         transform="matrix(0.21291725,0,0,0.314627,5.4282897,64.112771)" />
      <path
         sodipodi:type="arc"
         style="color:#000000;fill:#623f38;fill-opacity:1;fill-rule:nonzero;stroke:none;stroke-width:4;marker:none;visibility:visible;display:inline;overflow:visible;filter:url(#filter4800-9);enable-background:accumulate"
         id="path4932"
         sodipodi:cx="77.283951"
         sodipodi:cy="74.04261"
         sodipodi:rx="2.5918398"
         sodipodi:ry="1.6493526"
         d="m 79.875791,74.04261 c 0,0.910912 -1.160407,1.649353 -2.59184,1.649353 -1.431434,0 -2.59184,-0.738441 -2.59184,-1.649353 0,-0.910912 1.160406,-1.649352 2.59184,-1.649352 1.431433,0 2.59184,0.73844 2.59184,1.649352 z"
         transform="matrix(0.21291725,0,0,0.314627,48.7827,62.993568)" />
      <path
         inkscape:transform-center-y="-0.29452724"
         transform="matrix(0.21291725,0,0,0.314627,51.610162,62.051081)"
         d="m 79.875791,74.04261 c 0,0.910912 -1.160407,1.649353 -2.59184,1.649353 -1.431434,0 -2.59184,-0.738441 -2.59184,-1.649353 0,-0.910912 1.160406,-1.649352 2.59184,-1.649352 1.431433,0 2.59184,0.73844 2.59184,1.649352 z"
         sodipodi:ry="1.6493526"
         sodipodi:rx="2.5918398"
         sodipodi:cy="74.04261"
         sodipodi:cx="77.283951"
         id="path4934"
         style="color:#000000;fill:#623f38;fill-opacity:1;fill-rule:nonzero;stroke:none;stroke-width:4;marker:none;visibility:visible;display:inline;overflow:visible;filter:url(#filter4800-9);enable-background:accumulate"
         sodipodi:type="arc" />
      <path
         sodipodi:type="arc"
         style="color:#000000;fill:#c6a29b;fill-opacity:1;fill-rule:nonzero;stroke:none;stroke-width:4;marker:none;visibility:visible;display:inline;overflow:visible;filter:url(#filter4800-9-2);enable-background:accumulate"
         id="path4936"
         sodipodi:cx="77.283951"
         sodipodi:cy="74.04261"
         sodipodi:rx="2.5918398"
         sodipodi:ry="1.6493526"
         d="m 79.875791,74.04261 c 0,0.910912 -1.160407,1.649353 -2.59184,1.649353 -1.431434,0 -2.59184,-0.738441 -2.59184,-1.649353 0,-0.910912 1.160406,-1.649352 2.59184,-1.649352 1.431433,0 2.59184,0.73844 2.59184,1.649352 z"
         transform="matrix(0.21291725,0,0,0.314627,46.07305,47.737057)"
         inkscape:transform-center-y="-0.29452724" />
      <path
         inkscape:transform-center-y="-0.29452724"
         transform="matrix(0.21291725,0,0,0.314627,46.897726,45.321933)"
         d="m 79.875791,74.04261 c 0,0.910912 -1.160407,1.649353 -2.59184,1.649353 -1.431434,0 -2.59184,-0.738441 -2.59184,-1.649353 0,-0.910912 1.160406,-1.649352 2.59184,-1.649352 1.431433,0 2.59184,0.73844 2.59184,1.649352 z"
         sodipodi:ry="1.6493526"
         sodipodi:rx="2.5918398"
         sodipodi:cy="74.04261"
         sodipodi:cx="77.283951"
         id="path4938"
         style="color:#000000;fill:#c6a29b;fill-opacity:1;fill-rule:nonzero;stroke:none;stroke-width:4;marker:none;visibility:visible;display:inline;overflow:visible;filter:url(#filter4800-9-9);enable-background:accumulate"
         sodipodi:type="arc" />
      <path
         sodipodi:type="arc"
         style="color:#000000;fill:#c6a29b;fill-opacity:1;fill-rule:nonzero;stroke:none;stroke-width:4;marker:none;visibility:visible;display:inline;overflow:visible;filter:url(#filter4800-9);enable-background:accumulate"
         id="path4940"
         sodipodi:cx="77.283951"
         sodipodi:cy="74.04261"
         sodipodi:rx="2.5918398"
         sodipodi:ry="1.6493526"
         d="m 79.875791,74.04261 c 0,0.910912 -1.160407,1.649353 -2.59184,1.649353 -1.431434,0 -2.59184,-0.738441 -2.59184,-1.649353 0,-0.910912 1.160406,-1.649352 2.59184,-1.649352 1.431433,0 2.59184,0.73844 2.59184,1.649352 z"
         transform="matrix(0.21291725,0,0,0.314627,48.605984,47.442529)"
         inkscape:transform-center-y="-0.29452724" />
      <path
         sodipodi:type="arc"
         style="color:#000000;fill:#c6a29b;fill-opacity:1;fill-rule:nonzero;stroke:none;stroke-width:4;marker:none;visibility:visible;display:inline;overflow:visible;filter:url(#filter4800-9-9);enable-background:accumulate"
         id="path4981"
         sodipodi:cx="77.283951"
         sodipodi:cy="74.04261"
         sodipodi:rx="2.5918398"
         sodipodi:ry="1.6493526"
         d="m 79.875791,74.04261 c 0,0.910912 -1.160407,1.649353 -2.59184,1.649353 -1.431434,0 -2.59184,-0.738441 -2.59184,-1.649353 0,-0.910912 1.160406,-1.649352 2.59184,-1.649352 1.431433,0 2.59184,0.73844 2.59184,1.649352 z"
         transform="matrix(0.21291725,0,0,0.314627,62.743292,35.779251)"
         inkscape:transform-center-y="-0.29452724" />
      <path
         inkscape:transform-center-y="-0.29452724"
         transform="matrix(0.21291725,0,0,0.314627,60.799412,36.721738)"
         d="m 79.875791,74.04261 c 0,0.910912 -1.160407,1.649353 -2.59184,1.649353 -1.431434,0 -2.59184,-0.738441 -2.59184,-1.649353 0,-0.910912 1.160406,-1.649352 2.59184,-1.649352 1.431433,0 2.59184,0.73844 2.59184,1.649352 z"
         sodipodi:ry="1.6493526"
         sodipodi:rx="2.5918398"
         sodipodi:cy="74.04261"
         sodipodi:cx="77.283951"
         id="path4983"
         style="color:#000000;fill:#c6a29b;fill-opacity:1;fill-rule:nonzero;stroke:none;stroke-width:4;marker:none;visibility:visible;display:inline;overflow:visible;filter:url(#filter4800-9-9);enable-background:accumulate"
         sodipodi:type="arc" />
      <path
         sodipodi:type="arc"
         style="color:#000000;fill:#c6a29b;fill-opacity:1;fill-rule:nonzero;stroke:none;stroke-width:4;marker:none;visibility:visible;display:inline;overflow:visible;filter:url(#filter4800-9-9);enable-background:accumulate"
         id="path4985"
         sodipodi:cx="77.283951"
         sodipodi:cy="74.04261"
         sodipodi:rx="2.5918398"
         sodipodi:ry="1.6493526"
         d="m 79.875791,74.04261 c 0,0.910912 -1.160407,1.649353 -2.59184,1.649353 -1.431434,0 -2.59184,-0.738441 -2.59184,-1.649353 0,-0.910912 1.160406,-1.649352 2.59184,-1.649352 1.431433,0 2.59184,0.73844 2.59184,1.649352 z"
         transform="matrix(0.21291725,0,0,0.314627,60.681601,34.660047)"
         inkscape:transform-center-y="-0.29452724" />
      <path
         inkscape:transform-center-y="-0.29452724"
         transform="matrix(0.21291725,0,0,0.314627,85.480795,48.915165)"
         d="m 79.875791,74.04261 c 0,0.910912 -1.160407,1.649353 -2.59184,1.649353 -1.431434,0 -2.59184,-0.738441 -2.59184,-1.649353 0,-0.910912 1.160406,-1.649352 2.59184,-1.649352 1.431433,0 2.59184,0.73844 2.59184,1.649352 z"
         sodipodi:ry="1.6493526"
         sodipodi:rx="2.5918398"
         sodipodi:cy="74.04261"
         sodipodi:cx="77.283951"
         id="path4987"
         style="color:#000000;fill:#c6a29b;fill-opacity:1;fill-rule:nonzero;stroke:none;stroke-width:4;marker:none;visibility:visible;display:inline;overflow:visible;filter:url(#filter4800-9-9);enable-background:accumulate"
         sodipodi:type="arc" />
      <path
         sodipodi:type="arc"
         style="color:#000000;fill:#c6a29b;fill-opacity:1;fill-rule:nonzero;stroke:none;stroke-width:4;marker:none;visibility:visible;display:inline;overflow:visible;filter:url(#filter4800-9-9);enable-background:accumulate"
         id="path4989"
         sodipodi:cx="77.283951"
         sodipodi:cy="74.04261"
         sodipodi:rx="2.5918398"
         sodipodi:ry="1.6493526"
         d="m 79.875791,74.04261 c 0,0.910912 -1.160407,1.649353 -2.59184,1.649353 -1.431434,0 -2.59184,-0.738441 -2.59184,-1.649353 0,-0.910912 1.160406,-1.649352 2.59184,-1.649352 1.431433,0 2.59184,0.73844 2.59184,1.649352 z"
         transform="matrix(0.21291725,0,0,0.314627,84.184875,51.094667)"
         inkscape:transform-center-y="-0.29452724" />
      <path
         inkscape:transform-center-y="-0.29452724"
         transform="matrix(0.21291725,0,0,0.314627,86.128755,51.801532)"
         d="m 79.875791,74.04261 c 0,0.910912 -1.160407,1.649353 -2.59184,1.649353 -1.431434,0 -2.59184,-0.738441 -2.59184,-1.649353 0,-0.910912 1.160406,-1.649352 2.59184,-1.649352 1.431433,0 2.59184,0.73844 2.59184,1.649352 z"
         sodipodi:ry="1.6493526"
         sodipodi:rx="2.5918398"
         sodipodi:cy="74.04261"
         sodipodi:cx="77.283951"
         id="path4991"
         style="color:#000000;fill:#c6a29b;fill-opacity:1;fill-rule:nonzero;stroke:none;stroke-width:4;marker:none;visibility:visible;display:inline;overflow:visible;filter:url(#filter4800-9-9);enable-background:accumulate"
         sodipodi:type="arc" />
      <path
         transform="matrix(0.21291725,0,0,0.314627,39.656717,67.882843)"
         d="m 79.875791,74.04261 c 0,0.910912 -1.160407,1.649353 -2.59184,1.649353 -1.431434,0 -2.59184,-0.738441 -2.59184,-1.649353 0,-0.910912 1.160406,-1.649352 2.59184,-1.649352 1.431433,0 2.59184,0.73844 2.59184,1.649352 z"
         sodipodi:ry="1.6493526"
         sodipodi:rx="2.5918398"
         sodipodi:cy="74.04261"
         sodipodi:cx="77.283951"
         id="path4993"
         style="color:#000000;fill:#263615;fill-opacity:1;fill-rule:nonzero;stroke:none;stroke-width:4;marker:none;visibility:visible;display:inline;overflow:visible;filter:url(#filter4800-9);enable-background:accumulate"
         sodipodi:type="arc" />
      <path
         sodipodi:type="arc"
         style="color:#000000;fill:#263615;fill-opacity:1;fill-rule:nonzero;stroke:none;stroke-width:4;marker:none;visibility:visible;display:inline;overflow:visible;filter:url(#filter4800-9);enable-background:accumulate"
         id="path4995"
         sodipodi:cx="77.283951"
         sodipodi:cy="74.04261"
         sodipodi:rx="2.5918398"
         sodipodi:ry="1.6493526"
         d="m 79.875791,74.04261 c 0,0.910912 -1.160407,1.649353 -2.59184,1.649353 -1.431434,0 -2.59184,-0.738441 -2.59184,-1.649353 0,-0.910912 1.160406,-1.649352 2.59184,-1.649352 1.431433,0 2.59184,0.73844 2.59184,1.649352 z"
         transform="matrix(0.21291725,0,0,0.314627,36.407826,69.215721)" />
      <path
         transform="matrix(0.21291725,0,0,0.314627,35.866344,67.507971)"
         d="m 79.875791,74.04261 c 0,0.910912 -1.160407,1.649353 -2.59184,1.649353 -1.431434,0 -2.59184,-0.738441 -2.59184,-1.649353 0,-0.910912 1.160406,-1.649352 2.59184,-1.649352 1.431433,0 2.59184,0.73844 2.59184,1.649352 z"
         sodipodi:ry="1.6493526"
         sodipodi:rx="2.5918398"
         sodipodi:cy="74.04261"
         sodipodi:cx="77.283951"
         id="path4997"
         style="color:#000000;fill:#263615;fill-opacity:1;fill-rule:nonzero;stroke:none;stroke-width:4;marker:none;visibility:visible;display:inline;overflow:visible;filter:url(#filter4800-9);enable-background:accumulate"
         sodipodi:type="arc" />
      <path
         sodipodi:type="arc"
         style="color:#000000;fill:#263615;fill-opacity:1;fill-rule:nonzero;stroke:none;stroke-width:4;marker:none;visibility:visible;display:inline;overflow:visible;filter:url(#filter4800-9);enable-background:accumulate"
         id="path4999"
         sodipodi:cx="77.283951"
         sodipodi:cy="74.04261"
         sodipodi:rx="2.5918398"
         sodipodi:ry="1.6493526"
         d="m 79.875791,74.04261 c 0,0.910912 -1.160407,1.649353 -2.59184,1.649353 -1.431434,0 -2.59184,-0.738441 -2.59184,-1.649353 0,-0.910912 1.160406,-1.649352 2.59184,-1.649352 1.431433,0 2.59184,0.73844 2.59184,1.649352 z"
         transform="matrix(0.21291725,0,0,0.314627,44.363442,70.340337)" />
      <path
         transform="matrix(0.21291725,0,0,0.314627,46.779284,68.382672)"
         d="m 79.875791,74.04261 c 0,0.910912 -1.160407,1.649353 -2.59184,1.649353 -1.431434,0 -2.59184,-0.738441 -2.59184,-1.649353 0,-0.910912 1.160406,-1.649352 2.59184,-1.649352 1.431433,0 2.59184,0.73844 2.59184,1.649352 z"
         sodipodi:ry="1.6493526"
         sodipodi:rx="2.5918398"
         sodipodi:cy="74.04261"
         sodipodi:cx="77.283951"
         id="path5001"
         style="color:#000000;fill:#263615;fill-opacity:1;fill-rule:nonzero;stroke:none;stroke-width:4;marker:none;visibility:visible;display:inline;overflow:visible;filter:url(#filter4800-9);enable-background:accumulate"
         sodipodi:type="arc" />
      <path
         sodipodi:type="arc"
         style="color:#000000;fill:#263615;fill-opacity:1;fill-rule:nonzero;stroke:none;stroke-width:4;marker:none;visibility:visible;display:inline;overflow:visible;filter:url(#filter4800-9);enable-background:accumulate"
         id="path5003"
         sodipodi:cx="77.283951"
         sodipodi:cy="74.04261"
         sodipodi:rx="2.5918398"
         sodipodi:ry="1.6493526"
         d="m 79.875791,74.04261 c 0,0.910912 -1.160407,1.649353 -2.59184,1.649353 -1.431434,0 -2.59184,-0.738441 -2.59184,-1.649353 0,-0.910912 1.160406,-1.649352 2.59184,-1.649352 1.431433,0 2.59184,0.73844 2.59184,1.649352 z"
         transform="matrix(0.21291725,0,0,0.314627,53.776894,69.923812)" />
      <path
         transform="matrix(0.21291725,0,0,0.314627,44.904924,64.925519)"
         d="m 79.875791,74.04261 c 0,0.910912 -1.160407,1.649353 -2.59184,1.649353 -1.431434,0 -2.59184,-0.738441 -2.59184,-1.649353 0,-0.910912 1.160406,-1.649352 2.59184,-1.649352 1.431433,0 2.59184,0.73844 2.59184,1.649352 z"
         sodipodi:ry="1.6493526"
         sodipodi:rx="2.5918398"
         sodipodi:cy="74.04261"
         sodipodi:cx="77.283951"
         id="path5005"
         style="color:#000000;fill:#263615;fill-opacity:1;fill-rule:nonzero;stroke:none;stroke-width:4;marker:none;visibility:visible;display:inline;overflow:visible;filter:url(#filter4800-9);enable-background:accumulate"
         sodipodi:type="arc" />
      <path
         sodipodi:type="arc"
         style="color:#000000;fill:#263615;fill-opacity:1;fill-rule:nonzero;stroke:none;stroke-width:4;marker:none;visibility:visible;display:inline;overflow:visible;filter:url(#filter4800-9);enable-background:accumulate"
         id="path5007"
         sodipodi:cx="77.283951"
         sodipodi:cy="74.04261"
         sodipodi:rx="2.5918398"
         sodipodi:ry="1.6493526"
         d="m 79.875791,74.04261 c 0,0.910912 -1.160407,1.649353 -2.59184,1.649353 -1.431434,0 -2.59184,-0.738441 -2.59184,-1.649353 0,-0.910912 1.160406,-1.649352 2.59184,-1.649352 1.431433,0 2.59184,0.73844 2.59184,1.649352 z"
         transform="matrix(0.21291725,0,0,0.314627,60.19137,63.717598)" />
      <path
         transform="matrix(0.21291725,0,0,0.314627,60.941114,66.341702)"
         d="m 79.875791,74.04261 c 0,0.910912 -1.160407,1.649353 -2.59184,1.649353 -1.431434,0 -2.59184,-0.738441 -2.59184,-1.649353 0,-0.910912 1.160406,-1.649352 2.59184,-1.649352 1.431433,0 2.59184,0.73844 2.59184,1.649352 z"
         sodipodi:ry="1.6493526"
         sodipodi:rx="2.5918398"
         sodipodi:cy="74.04261"
         sodipodi:cx="77.283951"
         id="path5009"
         style="color:#000000;fill:#263615;fill-opacity:1;fill-rule:nonzero;stroke:none;stroke-width:4;marker:none;visibility:visible;display:inline;overflow:visible;filter:url(#filter4800-9);enable-background:accumulate"
         sodipodi:type="arc" />
      <path
         sodipodi:type="arc"
         style="color:#000000;fill:#263615;fill-opacity:1;fill-rule:nonzero;stroke:none;stroke-width:4;marker:none;visibility:visible;display:inline;overflow:visible;filter:url(#filter4800-9);enable-background:accumulate"
         id="path5011"
         sodipodi:cx="77.283951"
         sodipodi:cy="74.04261"
         sodipodi:rx="2.5918398"
         sodipodi:ry="1.6493526"
         d="m 79.875791,74.04261 c 0,0.910912 -1.160407,1.649353 -2.59184,1.649353 -1.431434,0 -2.59184,-0.738441 -2.59184,-1.649353 0,-0.910912 1.160406,-1.649352 2.59184,-1.649352 1.431433,0 2.59184,0.73844 2.59184,1.649352 z"
         transform="matrix(0.21291725,0,0,0.314627,58.858492,68.0078)" />
      <path
         transform="matrix(0.21291725,0,0,0.314627,33.117283,70.21538)"
         d="m 79.875791,74.04261 c 0,0.910912 -1.160407,1.649353 -2.59184,1.649353 -1.431434,0 -2.59184,-0.738441 -2.59184,-1.649353 0,-0.910912 1.160406,-1.649352 2.59184,-1.649352 1.431433,0 2.59184,0.73844 2.59184,1.649352 z"
         sodipodi:ry="1.6493526"
         sodipodi:rx="2.5918398"
         sodipodi:cy="74.04261"
         sodipodi:cx="77.283951"
         id="path5013"
         style="color:#000000;fill:#263615;fill-opacity:1;fill-rule:nonzero;stroke:none;stroke-width:4;marker:none;visibility:visible;display:inline;overflow:visible;filter:url(#filter4800-9);enable-background:accumulate"
         sodipodi:type="arc" />
      <path
         sodipodi:type="arc"
         style="color:#000000;fill:#263615;fill-opacity:1;fill-rule:nonzero;stroke:none;stroke-width:4;marker:none;visibility:visible;display:inline;overflow:visible;filter:url(#filter4800-9);enable-background:accumulate"
         id="path5015"
         sodipodi:cx="77.283951"
         sodipodi:cy="74.04261"
         sodipodi:rx="2.5918398"
         sodipodi:ry="1.6493526"
         d="m 79.875791,74.04261 c 0,0.910912 -1.160407,1.649353 -2.59184,1.649353 -1.431434,0 -2.59184,-0.738441 -2.59184,-1.649353 0,-0.910912 1.160406,-1.649352 2.59184,-1.649352 1.431433,0 2.59184,0.73844 2.59184,1.649352 z"
         transform="matrix(0.21291725,0,0,0.314627,30.076655,65.633611)" />
      <path
         transform="matrix(0.21291725,0,0,0.314627,27.285941,67.591276)"
         d="m 79.875791,74.04261 c 0,0.910912 -1.160407,1.649353 -2.59184,1.649353 -1.431434,0 -2.59184,-0.738441 -2.59184,-1.649353 0,-0.910912 1.160406,-1.649352 2.59184,-1.649352 1.431433,0 2.59184,0.73844 2.59184,1.649352 z"
         sodipodi:ry="1.6493526"
         sodipodi:rx="2.5918398"
         sodipodi:cy="74.04261"
         sodipodi:cx="77.283951"
         id="path5017"
         style="color:#000000;fill:#263615;fill-opacity:1;fill-rule:nonzero;stroke:none;stroke-width:4;marker:none;visibility:visible;display:inline;overflow:visible;filter:url(#filter4800-9);enable-background:accumulate"
         sodipodi:type="arc" />
      <path
         sodipodi:type="arc"
         style="color:#000000;fill:#263615;fill-opacity:1;fill-rule:nonzero;stroke:none;stroke-width:4;marker:none;visibility:visible;display:inline;overflow:visible;filter:url(#filter4800-9);enable-background:accumulate"
         id="path5019"
         sodipodi:cx="77.283951"
         sodipodi:cy="74.04261"
         sodipodi:rx="2.5918398"
         sodipodi:ry="1.6493526"
         d="m 79.875791,74.04261 c 0,0.910912 -1.160407,1.649353 -2.59184,1.649353 -1.431434,0 -2.59184,-0.738441 -2.59184,-1.649353 0,-0.910912 1.160406,-1.649352 2.59184,-1.649352 1.431433,0 2.59184,0.73844 2.59184,1.649352 z"
         transform="matrix(0.21291725,0,0,0.314627,24.328618,70.04877)" />
      <path
         transform="matrix(0.21291725,0,0,0.314627,22.412606,67.632928)"
         d="m 79.875791,74.04261 c 0,0.910912 -1.160407,1.649353 -2.59184,1.649353 -1.431434,0 -2.59184,-0.738441 -2.59184,-1.649353 0,-0.910912 1.160406,-1.649352 2.59184,-1.649352 1.431433,0 2.59184,0.73844 2.59184,1.649352 z"
         sodipodi:ry="1.6493526"
         sodipodi:rx="2.5918398"
         sodipodi:cy="74.04261"
         sodipodi:cx="77.283951"
         id="path5021"
         style="color:#000000;fill:#263615;fill-opacity:1;fill-rule:nonzero;stroke:none;stroke-width:4;marker:none;visibility:visible;display:inline;overflow:visible;filter:url(#filter4800-9);enable-background:accumulate"
         sodipodi:type="arc" />
      <path
         sodipodi:type="arc"
         style="color:#000000;fill:#263615;fill-opacity:1;fill-rule:nonzero;stroke:none;stroke-width:4;marker:none;visibility:visible;display:inline;overflow:visible;filter:url(#filter4800-9);enable-background:accumulate"
         id="path5023"
         sodipodi:cx="77.283951"
         sodipodi:cy="74.04261"
         sodipodi:rx="2.5918398"
         sodipodi:ry="1.6493526"
         d="m 79.875791,74.04261 c 0,0.910912 -1.160407,1.649353 -2.59184,1.649353 -1.431434,0 -2.59184,-0.738441 -2.59184,-1.649353 0,-0.910912 1.160406,-1.649352 2.59184,-1.649352 1.431433,0 2.59184,0.73844 2.59184,1.649352 z"
         transform="matrix(0.21291725,0,0,0.314627,19.621892,69.840507)" />
      <path
         transform="matrix(0.21291725,0,0,0.314627,17.497617,66.966489)"
         d="m 79.875791,74.04261 c 0,0.910912 -1.160407,1.649353 -2.59184,1.649353 -1.431434,0 -2.59184,-0.738441 -2.59184,-1.649353 0,-0.910912 1.160406,-1.649352 2.59184,-1.649352 1.431433,0 2.59184,0.73844 2.59184,1.649352 z"
         sodipodi:ry="1.6493526"
         sodipodi:rx="2.5918398"
         sodipodi:cy="74.04261"
         sodipodi:cx="77.283951"
         id="path5025"
         style="color:#000000;fill:#263615;fill-opacity:1;fill-rule:nonzero;stroke:none;stroke-width:4;marker:none;visibility:visible;display:inline;overflow:visible;filter:url(#filter4800-9);enable-background:accumulate"
         sodipodi:type="arc" />
      <path
         sodipodi:type="arc"
         style="color:#000000;fill:#263615;fill-opacity:1;fill-rule:nonzero;stroke:none;stroke-width:4;marker:none;visibility:visible;display:inline;overflow:visible;filter:url(#filter4800-9);enable-background:accumulate"
         id="path5027"
         sodipodi:cx="77.283951"
         sodipodi:cy="74.04261"
         sodipodi:rx="2.5918398"
         sodipodi:ry="1.6493526"
         d="m 79.875791,74.04261 c 0,0.910912 -1.160407,1.649353 -2.59184,1.649353 -1.431434,0 -2.59184,-0.738441 -2.59184,-1.649353 0,-0.910912 1.160406,-1.649352 2.59184,-1.649352 1.431433,0 2.59184,0.73844 2.59184,1.649352 z"
         transform="matrix(0.21291725,0,0,0.314627,16.789525,69.798855)" />
      <path
         transform="matrix(0.21291725,0,0,0.314627,16.289696,65.883525)"
         d="m 79.875791,74.04261 c 0,0.910912 -1.160407,1.649353 -2.59184,1.649353 -1.431434,0 -2.59184,-0.738441 -2.59184,-1.649353 0,-0.910912 1.160406,-1.649352 2.59184,-1.649352 1.431433,0 2.59184,0.73844 2.59184,1.649352 z"
         sodipodi:ry="1.6493526"
         sodipodi:rx="2.5918398"
         sodipodi:cy="74.04261"
         sodipodi:cx="77.283951"
         id="path5029"
         style="color:#000000;fill:#263615;fill-opacity:1;fill-rule:nonzero;stroke:none;stroke-width:4;marker:none;visibility:visible;display:inline;overflow:visible;filter:url(#filter4800-9);enable-background:accumulate"
         sodipodi:type="arc" />
      <path
         sodipodi:type="arc"
         style="color:#000000;fill:#263615;fill-opacity:1;fill-rule:nonzero;stroke:none;stroke-width:4;marker:none;visibility:visible;display:inline;overflow:visible;filter:url(#filter4800-9);enable-background:accumulate"
         id="path5031"
         sodipodi:cx="77.283951"
         sodipodi:cy="74.04261"
         sodipodi:rx="2.5918398"
         sodipodi:ry="1.6493526"
         d="m 79.875791,74.04261 c 0,0.910912 -1.160407,1.649353 -2.59184,1.649353 -1.431434,0 -2.59184,-0.738441 -2.59184,-1.649353 0,-0.910912 1.160406,-1.649352 2.59184,-1.649352 1.431433,0 2.59184,0.73844 2.59184,1.649352 z"
         transform="matrix(0.21291725,0,0,0.314627,11.999494,66.591617)" />
      <path
         transform="matrix(0.21291725,0,0,0.314627,11.874537,69.88216)"
         d="m 79.875791,74.04261 c 0,0.910912 -1.160407,1.649353 -2.59184,1.649353 -1.431434,0 -2.59184,-0.738441 -2.59184,-1.649353 0,-0.910912 1.160406,-1.649352 2.59184,-1.649352 1.431433,0 2.59184,0.73844 2.59184,1.649352 z"
         sodipodi:ry="1.6493526"
         sodipodi:rx="2.5918398"
         sodipodi:cy="74.04261"
         sodipodi:cx="77.283951"
         id="path5033"
         style="color:#000000;fill:#263615;fill-opacity:1;fill-rule:nonzero;stroke:none;stroke-width:4;marker:none;visibility:visible;display:inline;overflow:visible;filter:url(#filter4800-9);enable-background:accumulate"
         sodipodi:type="arc" />
      <path
         sodipodi:type="arc"
         style="color:#000000;fill:#263615;fill-opacity:1;fill-rule:nonzero;stroke:none;stroke-width:4;marker:none;visibility:visible;display:inline;overflow:visible;filter:url(#filter4800-9);enable-background:accumulate"
         id="path5035"
         sodipodi:cx="77.283951"
         sodipodi:cy="74.04261"
         sodipodi:rx="2.5918398"
         sodipodi:ry="1.6493526"
         d="m 79.875791,74.04261 c 0,0.910912 -1.160407,1.649353 -2.59184,1.649353 -1.431434,0 -2.59184,-0.738441 -2.59184,-1.649353 0,-0.910912 1.160406,-1.649352 2.59184,-1.649352 1.431433,0 2.59184,0.73844 2.59184,1.649352 z"
         transform="matrix(0.21291725,0,0,0.314627,8.8755612,69.007459)" />
      <path
         transform="matrix(0.21291725,0,0,0.314627,5.6266707,70.965124)"
         d="m 79.875791,74.04261 c 0,0.910912 -1.160407,1.649353 -2.59184,1.649353 -1.431434,0 -2.59184,-0.738441 -2.59184,-1.649353 0,-0.910912 1.160406,-1.649352 2.59184,-1.649352 1.431433,0 2.59184,0.73844 2.59184,1.649352 z"
         sodipodi:ry="1.6493526"
         sodipodi:rx="2.5918398"
         sodipodi:cy="74.04261"
         sodipodi:cx="77.283951"
         id="path5037"
         style="color:#000000;fill:#263615;fill-opacity:1;fill-rule:nonzero;stroke:none;stroke-width:4;marker:none;visibility:visible;display:inline;overflow:visible;filter:url(#filter4800-9);enable-background:accumulate"
         sodipodi:type="arc" />
      <path
         sodipodi:type="arc"
         style="color:#000000;fill:#263615;fill-opacity:1;fill-rule:nonzero;stroke:none;stroke-width:4;marker:none;visibility:visible;display:inline;overflow:visible;filter:url(#filter4800-9);enable-background:accumulate"
         id="path5039"
         sodipodi:cx="77.283951"
         sodipodi:cy="74.04261"
         sodipodi:rx="2.5918398"
         sodipodi:ry="1.6493526"
         d="m 79.875791,74.04261 c 0,0.910912 -1.160407,1.649353 -2.59184,1.649353 -1.431434,0 -2.59184,-0.738441 -2.59184,-1.649353 0,-0.910912 1.160406,-1.649352 2.59184,-1.649352 1.431433,0 2.59184,0.73844 2.59184,1.649352 z"
         transform="matrix(0.21291725,0,0,0.314627,3.3357864,68.257715)" />
      <path
         transform="matrix(0.21291725,0,0,0.314627,0.62837768,69.840508)"
         d="m 79.875791,74.04261 c 0,0.910912 -1.160407,1.649353 -2.59184,1.649353 -1.431434,0 -2.59184,-0.738441 -2.59184,-1.649353 0,-0.910912 1.160406,-1.649352 2.59184,-1.649352 1.431433,0 2.59184,0.73844 2.59184,1.649352 z"
         sodipodi:ry="1.6493526"
         sodipodi:rx="2.5918398"
         sodipodi:cy="74.04261"
         sodipodi:cx="77.283951"
         id="path5041"
         style="color:#000000;fill:#263615;fill-opacity:1;fill-rule:nonzero;stroke:none;stroke-width:4;marker:none;visibility:visible;display:inline;overflow:visible;filter:url(#filter4800-9);enable-background:accumulate"
         sodipodi:type="arc" />
      <path
         style="fill:none;stroke:#2f441a;stroke-width:0.91434044px;stroke-linecap:butt;stroke-linejoin:miter;stroke-opacity:1"
         d="m 108.4375,84.0625 c -0.90726,-0.849689 -1.92016,-1.568693 -2.90625,-2.3125 -0.30951,-0.481995 -1.04183,-1.089799 -1.4375,-1.03125 -0.2374,0.03513 -0.36589,0.298726 -0.1875,0.96875 -0.32403,2.352211 1.04092,6.343324 -1.75,7.40625 -2.01216,-0.167259 -2.589455,-5.400544 -4.625,-3.125 0.261181,1.409432 -0.236884,4.977093 -2.0625,2.78125 -1.500454,-1.472652 -2.44373,-3.919663 -4.96875,-3.5 -1.590031,0.428223 -3.90178,-1.898856 -4.625,-1.46875 1.382342,1.675021 -0.276422,4.755872 -2.40625,3.09375 -1.88618,-1.395078 -3.227928,-3.424481 -5.6875,-3.9375 -2.033821,-1.534093 -4.108878,-0.234926 -3.4375,2.15625 -0.310754,1.61644 0.127006,3.738373 -2.21875,3.46875 -1.508244,0.320798 -3.333309,-0.677083 -3.78125,1.15625 -1.804772,1.138418 -2.916415,-0.788425 -3.15625,-2.1875 -1.510012,-0.6802 -3.979864,-0.441428 -3.5,-2.8125 -1.505002,-1.805795 -3.091304,0.779156 -3.8125,1.96875 -0.517678,1.916714 -2.762721,2.515711 -4.40625,1.8125 -1.754941,-1.134229 -3.92842,-0.822912 -5.8125,-1.71875 -1.839301,-0.0569 -3.689593,-2.391546 -5.375,-1.15625 -1.615591,1.199988 2.010733,2.275212 -0.15625,3.15625 -2.404093,0.547803 -4.781193,-0.720825 -7,-1.46875 -2.239953,-0.474758 -4.899416,-1.171544 -6.65625,0.78125 -1.812707,1.806496 -4.693413,2.685025 -7.09375,1.59375 -1.161507,-1.470782 -3.595513,-0.940561 -4.34375,1.010189 -1.276207,-0.106307 -2.473851,0.261984 -3.84375,-0.853939"
         id="path5067"
         sodipodi:nodetypes="cccccccccccccccccccccccccc" />
      <path
         sodipodi:type="arc"
         style="color:#000000;fill:#263615;fill-opacity:1;fill-rule:nonzero;stroke:none;stroke-width:4;marker:none;visibility:visible;display:inline;overflow:visible;filter:url(#filter4800-9);enable-background:accumulate"
         id="path5043"
         sodipodi:cx="77.283951"
         sodipodi:cy="74.04261"
         sodipodi:rx="2.5918398"
         sodipodi:ry="1.6493526"
         d="m 79.875791,74.04261 c 0,0.910912 -1.160407,1.649353 -2.59184,1.649353 -1.431434,0 -2.59184,-0.738441 -2.59184,-1.649353 0,-0.910912 1.160406,-1.649352 2.59184,-1.649352 1.431433,0 2.59184,0.73844 2.59184,1.649352 z"
         transform="matrix(0.21291725,0,0,0.314627,-2.6621652,68.924154)" />
      <path
         transform="matrix(0.21291725,0,0,0.314627,61.524248,70.673556)"
         d="m 79.875791,74.04261 c 0,0.910912 -1.160407,1.649353 -2.59184,1.649353 -1.431434,0 -2.59184,-0.738441 -2.59184,-1.649353 0,-0.910912 1.160406,-1.649352 2.59184,-1.649352 1.431433,0 2.59184,0.73844 2.59184,1.649352 z"
         sodipodi:ry="1.6493526"
         sodipodi:rx="2.5918398"
         sodipodi:cy="74.04261"
         sodipodi:cx="77.283951"
         id="path5045"
         style="color:#000000;fill:#263615;fill-opacity:1;fill-rule:nonzero;stroke:none;stroke-width:4;marker:none;visibility:visible;display:inline;overflow:visible;filter:url(#filter4800-9);enable-background:accumulate"
         sodipodi:type="arc" />
      <path
         sodipodi:type="arc"
         style="color:#000000;fill:#263615;fill-opacity:1;fill-rule:nonzero;stroke:none;stroke-width:4;marker:none;visibility:visible;display:inline;overflow:visible;filter:url(#filter4800-9);enable-background:accumulate"
         id="path5047"
         sodipodi:cx="77.283951"
         sodipodi:cy="74.04261"
         sodipodi:rx="2.5918398"
         sodipodi:ry="1.6493526"
         d="m 79.875791,74.04261 c 0,0.910912 -1.160407,1.649353 -2.59184,1.649353 -1.431434,0 -2.59184,-0.738441 -2.59184,-1.649353 0,-0.910912 1.160406,-1.649352 2.59184,-1.649352 1.431433,0 2.59184,0.73844 2.59184,1.649352 z"
         transform="matrix(0.21291725,0,0,0.314627,65.439578,67.591275)" />
      <path
         transform="matrix(0.21291725,0,0,0.314627,66.189321,69.174068)"
         d="m 79.875791,74.04261 c 0,0.910912 -1.160407,1.649353 -2.59184,1.649353 -1.431434,0 -2.59184,-0.738441 -2.59184,-1.649353 0,-0.910912 1.160406,-1.649352 2.59184,-1.649352 1.431433,0 2.59184,0.73844 2.59184,1.649352 z"
         sodipodi:ry="1.6493526"
         sodipodi:rx="2.5918398"
         sodipodi:cy="74.04261"
         sodipodi:cx="77.283951"
         id="path5049"
         style="color:#000000;fill:#263615;fill-opacity:1;fill-rule:nonzero;stroke:none;stroke-width:4;marker:none;visibility:visible;display:inline;overflow:visible;filter:url(#filter4800-9);enable-background:accumulate"
         sodipodi:type="arc" />
      <path
         sodipodi:type="arc"
         style="color:#000000;fill:#263615;fill-opacity:1;fill-rule:nonzero;stroke:none;stroke-width:4;marker:none;visibility:visible;display:inline;overflow:visible;filter:url(#filter4800-9);enable-background:accumulate"
         id="path5051"
         sodipodi:cx="77.283951"
         sodipodi:cy="74.04261"
         sodipodi:rx="2.5918398"
         sodipodi:ry="1.6493526"
         d="m 79.875791,74.04261 c 0,0.910912 -1.160407,1.649353 -2.59184,1.649353 -1.431434,0 -2.59184,-0.738441 -2.59184,-1.649353 0,-0.910912 1.160406,-1.649352 2.59184,-1.649352 1.431433,0 2.59184,0.73844 2.59184,1.649352 z"
         transform="matrix(0.21291725,0,0,0.314627,67.522199,66.425007)" />
      <path
         sodipodi:type="arc"
         style="color:#000000;fill:#263615;fill-opacity:1;fill-rule:nonzero;stroke:none;stroke-width:4;marker:none;visibility:visible;display:inline;overflow:visible;filter:url(#filter4800-9);enable-background:accumulate"
         id="path5055"
         sodipodi:cx="77.283951"
         sodipodi:cy="74.04261"
         sodipodi:rx="2.5918398"
         sodipodi:ry="1.6493526"
         d="m 79.875791,74.04261 c 0,0.910912 -1.160407,1.649353 -2.59184,1.649353 -1.431434,0 -2.59184,-0.738441 -2.59184,-1.649353 0,-0.910912 1.160406,-1.649352 2.59184,-1.649352 1.431433,0 2.59184,0.73844 2.59184,1.649352 z"
         transform="matrix(0.21291725,0,0,0.314627,71.062657,70.173727)" />
      <path
         transform="matrix(0.21291725,0,0,0.314627,72.437188,66.883184)"
         d="m 79.875791,74.04261 c 0,0.910912 -1.160407,1.649353 -2.59184,1.649353 -1.431434,0 -2.59184,-0.738441 -2.59184,-1.649353 0,-0.910912 1.160406,-1.649352 2.59184,-1.649352 1.431433,0 2.59184,0.73844 2.59184,1.649352 z"
         sodipodi:ry="1.6493526"
         sodipodi:rx="2.5918398"
         sodipodi:cy="74.04261"
         sodipodi:cx="77.283951"
         id="path5057"
         style="color:#000000;fill:#263615;fill-opacity:1;fill-rule:nonzero;stroke:none;stroke-width:4;marker:none;visibility:visible;display:inline;overflow:visible;filter:url(#filter4800-9);enable-background:accumulate"
         sodipodi:type="arc" />
      <path
         sodipodi:type="arc"
         style="color:#000000;fill:#263615;fill-opacity:1;fill-rule:nonzero;stroke:none;stroke-width:4;marker:none;visibility:visible;display:inline;overflow:visible;filter:url(#filter4800-9);enable-background:accumulate"
         id="path5059"
         sodipodi:cx="77.283951"
         sodipodi:cy="74.04261"
         sodipodi:rx="2.5918398"
         sodipodi:ry="1.6493526"
         d="m 79.875791,74.04261 c 0,0.910912 -1.160407,1.649353 -2.59184,1.649353 -1.431434,0 -2.59184,-0.738441 -2.59184,-1.649353 0,-0.910912 1.160406,-1.649352 2.59184,-1.649352 1.431433,0 2.59184,0.73844 2.59184,1.649352 z"
         transform="matrix(0.21291725,0,0,0.314627,73.645109,64.550647)" />
      <path
         transform="matrix(0.21291725,0,0,0.314627,75.519468,68.882501)"
         d="m 79.875791,74.04261 c 0,0.910912 -1.160407,1.649353 -2.59184,1.649353 -1.431434,0 -2.59184,-0.738441 -2.59184,-1.649353 0,-0.910912 1.160406,-1.649352 2.59184,-1.649352 1.431433,0 2.59184,0.73844 2.59184,1.649352 z"
         sodipodi:ry="1.6493526"
         sodipodi:rx="2.5918398"
         sodipodi:cy="74.04261"
         sodipodi:cx="77.283951"
         id="path5061"
         style="color:#000000;fill:#263615;fill-opacity:1;fill-rule:nonzero;stroke:none;stroke-width:4;marker:none;visibility:visible;display:inline;overflow:visible;filter:url(#filter4800-9);enable-background:accumulate"
         sodipodi:type="arc" />
      <path
         sodipodi:type="arc"
         style="color:#000000;fill:#263615;fill-opacity:1;fill-rule:nonzero;stroke:none;stroke-width:4;marker:none;visibility:visible;display:inline;overflow:visible;filter:url(#filter4800-9);enable-background:accumulate"
         id="path5063"
         sodipodi:cx="77.283951"
         sodipodi:cy="74.04261"
         sodipodi:rx="2.5918398"
         sodipodi:ry="1.6493526"
         d="m 79.875791,74.04261 c 0,0.910912 -1.160407,1.649353 -2.59184,1.649353 -1.431434,0 -2.59184,-0.738441 -2.59184,-1.649353 0,-0.910912 1.160406,-1.649352 2.59184,-1.649352 1.431433,0 2.59184,0.73844 2.59184,1.649352 z"
         transform="matrix(0.21291725,0,0,0.314627,78.726706,67.716233)" />
      <path
         transform="matrix(0.21291725,0,0,0.314627,80.184541,70.007117)"
         d="m 79.875791,74.04261 c 0,0.910912 -1.160407,1.649353 -2.59184,1.649353 -1.431434,0 -2.59184,-0.738441 -2.59184,-1.649353 0,-0.910912 1.160406,-1.649352 2.59184,-1.649352 1.431433,0 2.59184,0.73844 2.59184,1.649352 z"
         sodipodi:ry="1.6493526"
         sodipodi:rx="2.5918398"
         sodipodi:cy="74.04261"
         sodipodi:cx="77.283951"
         id="path5065"
         style="color:#000000;fill:#263615;fill-opacity:1;fill-rule:nonzero;stroke:none;stroke-width:4;marker:none;visibility:visible;display:inline;overflow:visible;filter:url(#filter4800-9);enable-background:accumulate"
         sodipodi:type="arc" />
      <path
         sodipodi:type="arc"
         style="color:#000000;fill:#263615;fill-opacity:1;fill-rule:nonzero;stroke:none;stroke-width:4;marker:none;visibility:visible;display:inline;overflow:visible;filter:url(#filter4800-9);enable-background:accumulate"
         id="path5069"
         sodipodi:cx="77.283951"
         sodipodi:cy="74.04261"
         sodipodi:rx="2.5918398"
         sodipodi:ry="1.6493526"
         d="m 79.875791,74.04261 c 0,0.910912 -1.160407,1.649353 -2.59184,1.649353 -1.431434,0 -2.59184,-0.738441 -2.59184,-1.649353 0,-0.910912 1.160406,-1.649352 2.59184,-1.649352 1.431433,0 2.59184,0.73844 2.59184,1.649352 z"
         transform="matrix(0.21291725,0,0,0.314627,82.683687,66.924836)" />
      <path
         transform="matrix(0.21291725,0,0,0.314627,89.098163,64.42569)"
         d="m 79.875791,74.04261 c 0,0.910912 -1.160407,1.649353 -2.59184,1.649353 -1.431434,0 -2.59184,-0.738441 -2.59184,-1.649353 0,-0.910912 1.160406,-1.649352 2.59184,-1.649352 1.431433,0 2.59184,0.73844 2.59184,1.649352 z"
         sodipodi:ry="1.6493526"
         sodipodi:rx="2.5918398"
         sodipodi:cy="74.04261"
         sodipodi:cx="77.283951"
         id="path5071"
         style="color:#000000;fill:#263615;fill-opacity:1;fill-rule:nonzero;stroke:none;stroke-width:4;marker:none;visibility:visible;display:inline;overflow:visible;filter:url(#filter4800-9);enable-background:accumulate"
         sodipodi:type="arc" />
      <path
         sodipodi:type="arc"
         style="color:#000000;fill:#263615;fill-opacity:1;fill-rule:nonzero;stroke:none;stroke-width:4;marker:none;visibility:visible;display:inline;overflow:visible;filter:url(#filter4800-9);enable-background:accumulate"
         id="path5073"
         sodipodi:cx="77.283951"
         sodipodi:cy="74.04261"
         sodipodi:rx="2.5918398"
         sodipodi:ry="1.6493526"
         d="m 79.875791,74.04261 c 0,0.910912 -1.160407,1.649353 -2.59184,1.649353 -1.431434,0 -2.59184,-0.738441 -2.59184,-1.649353 0,-0.910912 1.160406,-1.649352 2.59184,-1.649352 1.431433,0 2.59184,0.73844 2.59184,1.649352 z"
         transform="matrix(0.21291725,0,0,0.314627,90.181126,65.258739)" />
      <path
         transform="matrix(0.21291725,0,0,0.314627,87.34876,70.007117)"
         d="m 79.875791,74.04261 c 0,0.910912 -1.160407,1.649353 -2.59184,1.649353 -1.431434,0 -2.59184,-0.738441 -2.59184,-1.649353 0,-0.910912 1.160406,-1.649352 2.59184,-1.649352 1.431433,0 2.59184,0.73844 2.59184,1.649352 z"
         sodipodi:ry="1.6493526"
         sodipodi:rx="2.5918398"
         sodipodi:cy="74.04261"
         sodipodi:cx="77.283951"
         id="path5075"
         style="color:#000000;fill:#263615;fill-opacity:1;fill-rule:nonzero;stroke:none;stroke-width:4;marker:none;visibility:visible;display:inline;overflow:visible;filter:url(#filter4800-9);enable-background:accumulate"
         sodipodi:type="arc" />
      <path
         sodipodi:type="arc"
         style="color:#000000;fill:#263615;fill-opacity:1;fill-rule:nonzero;stroke:none;stroke-width:4;marker:none;visibility:visible;display:inline;overflow:visible;filter:url(#filter4800-9);enable-background:accumulate"
         id="path5077"
         sodipodi:cx="77.283951"
         sodipodi:cy="74.04261"
         sodipodi:rx="2.5918398"
         sodipodi:ry="1.6493526"
         d="m 79.875791,74.04261 c 0,0.910912 -1.160407,1.649353 -2.59184,1.649353 -1.431434,0 -2.59184,-0.738441 -2.59184,-1.649353 0,-0.910912 1.160406,-1.649352 2.59184,-1.649352 1.431433,0 2.59184,0.73844 2.59184,1.649352 z"
         transform="matrix(0.21291725,0,0,0.314627,90.431041,70.673556)" />
      <path
         transform="matrix(0.21291725,0,0,0.314627,64.273308,64.508994)"
         d="m 79.875791,74.04261 c 0,0.910912 -1.160407,1.649353 -2.59184,1.649353 -1.431434,0 -2.59184,-0.738441 -2.59184,-1.649353 0,-0.910912 1.160406,-1.649352 2.59184,-1.649352 1.431433,0 2.59184,0.73844 2.59184,1.649352 z"
         sodipodi:ry="1.6493526"
         sodipodi:rx="2.5918398"
         sodipodi:cy="74.04261"
         sodipodi:cx="77.283951"
         id="path5079"
         style="color:#000000;fill:#9cc76f;fill-opacity:1;fill-rule:nonzero;stroke:none;stroke-width:4;marker:none;visibility:visible;display:inline;overflow:visible;filter:url(#filter4800-9);enable-background:accumulate"
         sodipodi:type="arc" />
      <path
         sodipodi:type="arc"
         style="color:#000000;fill:#9cc76f;fill-opacity:1;fill-rule:nonzero;stroke:none;stroke-width:4;marker:none;visibility:visible;display:inline;overflow:visible;filter:url(#filter4800-9);enable-background:accumulate"
         id="path5081"
         sodipodi:cx="77.283951"
         sodipodi:cy="74.04261"
         sodipodi:rx="2.5918398"
         sodipodi:ry="1.6493526"
         d="m 79.875791,74.04261 c 0,0.910912 -1.160407,1.649353 -2.59184,1.649353 -1.431434,0 -2.59184,-0.738441 -2.59184,-1.649353 0,-0.910912 1.160406,-1.649352 2.59184,-1.649352 1.431433,0 2.59184,0.73844 2.59184,1.649352 z"
         transform="matrix(0.21291725,0,0,0.314627,62.523905,62.676287)" />
      <path
         transform="matrix(0.21291725,0,0,0.314627,57.858832,66.008482)"
         d="m 79.875791,74.04261 c 0,0.910912 -1.160407,1.649353 -2.59184,1.649353 -1.431434,0 -2.59184,-0.738441 -2.59184,-1.649353 0,-0.910912 1.160406,-1.649352 2.59184,-1.649352 1.431433,0 2.59184,0.73844 2.59184,1.649352 z"
         sodipodi:ry="1.6493526"
         sodipodi:rx="2.5918398"
         sodipodi:cy="74.04261"
         sodipodi:cx="77.283951"
         id="path5083"
         style="color:#000000;fill:#9cc76f;fill-opacity:1;fill-rule:nonzero;stroke:none;stroke-width:4;marker:none;visibility:visible;display:inline;overflow:visible;filter:url(#filter4800-9);enable-background:accumulate"
         sodipodi:type="arc" />
      <path
         sodipodi:type="arc"
         style="color:#000000;fill:#9cc76f;fill-opacity:1;fill-rule:nonzero;stroke:none;stroke-width:4;marker:none;visibility:visible;display:inline;overflow:visible;filter:url(#filter4800-9);enable-background:accumulate"
         id="path5085"
         sodipodi:cx="77.283951"
         sodipodi:cy="74.04261"
         sodipodi:rx="2.5918398"
         sodipodi:ry="1.6493526"
         d="m 79.875791,74.04261 c 0,0.910912 -1.160407,1.649353 -2.59184,1.649353 -1.431434,0 -2.59184,-0.738441 -2.59184,-1.649353 0,-0.910912 1.160406,-1.649352 2.59184,-1.649352 1.431433,0 2.59184,0.73844 2.59184,1.649352 z"
         transform="matrix(0.21291725,0,0,0.314627,59.441625,69.590592)" />
      <path
         transform="matrix(0.21291725,0,0,0.314627,54.193417,67.841189)"
         d="m 79.875791,74.04261 c 0,0.910912 -1.160407,1.649353 -2.59184,1.649353 -1.431434,0 -2.59184,-0.738441 -2.59184,-1.649353 0,-0.910912 1.160406,-1.649352 2.59184,-1.649352 1.431433,0 2.59184,0.73844 2.59184,1.649352 z"
         sodipodi:ry="1.6493526"
         sodipodi:rx="2.5918398"
         sodipodi:cy="74.04261"
         sodipodi:cx="77.283951"
         id="path5087"
         style="color:#000000;fill:#9cc76f;fill-opacity:1;fill-rule:nonzero;stroke:none;stroke-width:4;marker:none;visibility:visible;display:inline;overflow:visible;filter:url(#filter4800-9);enable-background:accumulate"
         sodipodi:type="arc" />
      <path
         sodipodi:type="arc"
         style="color:#000000;fill:#9cc76f;fill-opacity:1;fill-rule:nonzero;stroke:none;stroke-width:4;marker:none;visibility:visible;display:inline;overflow:visible;filter:url(#filter4800-9);enable-background:accumulate"
         id="path5089"
         sodipodi:cx="77.283951"
         sodipodi:cy="74.04261"
         sodipodi:rx="2.5918398"
         sodipodi:ry="1.6493526"
         d="m 79.875791,74.04261 c 0,0.910912 -1.160407,1.649353 -2.59184,1.649353 -1.431434,0 -2.59184,-0.738441 -2.59184,-1.649353 0,-0.910912 1.160406,-1.649352 2.59184,-1.649352 1.431433,0 2.59184,0.73844 2.59184,1.649352 z"
         transform="matrix(0.21291725,0,0,0.314627,49.944868,68.507628)" />
      <path
         transform="matrix(0.21291725,0,0,0.314627,47.195807,65.758567)"
         d="m 79.875791,74.04261 c 0,0.910912 -1.160407,1.649353 -2.59184,1.649353 -1.431434,0 -2.59184,-0.738441 -2.59184,-1.649353 0,-0.910912 1.160406,-1.649352 2.59184,-1.649352 1.431433,0 2.59184,0.73844 2.59184,1.649352 z"
         sodipodi:ry="1.6493526"
         sodipodi:rx="2.5918398"
         sodipodi:cy="74.04261"
         sodipodi:cx="77.283951"
         id="path5091"
         style="color:#000000;fill:#9cc76f;fill-opacity:1;fill-rule:nonzero;stroke:none;stroke-width:4;marker:none;visibility:visible;display:inline;overflow:visible;filter:url(#filter4800-9);enable-background:accumulate"
         sodipodi:type="arc" />
      <path
         sodipodi:type="arc"
         style="color:#000000;fill:#9cc76f;fill-opacity:1;fill-rule:nonzero;stroke:none;stroke-width:4;marker:none;visibility:visible;display:inline;overflow:visible;filter:url(#filter4800-9);enable-background:accumulate"
         id="path5093"
         sodipodi:cx="77.283951"
         sodipodi:cy="74.04261"
         sodipodi:rx="2.5918398"
         sodipodi:ry="1.6493526"
         d="m 79.875791,74.04261 c 0,0.910912 -1.160407,1.649353 -2.59184,1.649353 -1.431434,0 -2.59184,-0.738441 -2.59184,-1.649353 0,-0.910912 1.160406,-1.649352 2.59184,-1.649352 1.431433,0 2.59184,0.73844 2.59184,1.649352 z"
         transform="matrix(0.21291725,0,0,0.314627,42.280819,67.17475)" />
      <path
         transform="matrix(0.21291725,0,0,0.314627,42.947258,63.59264)"
         d="m 79.875791,74.04261 c 0,0.910912 -1.160407,1.649353 -2.59184,1.649353 -1.431434,0 -2.59184,-0.738441 -2.59184,-1.649353 0,-0.910912 1.160406,-1.649352 2.59184,-1.649352 1.431433,0 2.59184,0.73844 2.59184,1.649352 z"
         sodipodi:ry="1.6493526"
         sodipodi:rx="2.5918398"
         sodipodi:cy="74.04261"
         sodipodi:cx="77.283951"
         id="path5095"
         style="color:#000000;fill:#9cc76f;fill-opacity:1;fill-rule:nonzero;stroke:none;stroke-width:4;marker:none;visibility:visible;display:inline;overflow:visible;filter:url(#filter4800-9);enable-background:accumulate"
         sodipodi:type="arc" />
      <path
         sodipodi:type="arc"
         style="color:#000000;fill:#9cc76f;fill-opacity:1;fill-rule:nonzero;stroke:none;stroke-width:4;marker:none;visibility:visible;display:inline;overflow:visible;filter:url(#filter4800-9);enable-background:accumulate"
         id="path5097"
         sodipodi:cx="77.283951"
         sodipodi:cy="74.04261"
         sodipodi:rx="2.5918398"
         sodipodi:ry="1.6493526"
         d="m 79.875791,74.04261 c 0,0.910912 -1.160407,1.649353 -2.59184,1.649353 -1.431434,0 -2.59184,-0.738441 -2.59184,-1.649353 0,-0.910912 1.160406,-1.649352 2.59184,-1.649352 1.431433,0 2.59184,0.73844 2.59184,1.649352 z"
         transform="matrix(0.21291725,0,0,0.314627,33.450501,65.758567)" />
      <path
         transform="matrix(0.21291725,0,0,0.314627,30.118306,69.507287)"
         d="m 79.875791,74.04261 c 0,0.910912 -1.160407,1.649353 -2.59184,1.649353 -1.431434,0 -2.59184,-0.738441 -2.59184,-1.649353 0,-0.910912 1.160406,-1.649352 2.59184,-1.649352 1.431433,0 2.59184,0.73844 2.59184,1.649352 z"
         sodipodi:ry="1.6493526"
         sodipodi:rx="2.5918398"
         sodipodi:cy="74.04261"
         sodipodi:cx="77.283951"
         id="path5099"
         style="color:#000000;fill:#9cc76f;fill-opacity:1;fill-rule:nonzero;stroke:none;stroke-width:4;marker:none;visibility:visible;display:inline;overflow:visible;filter:url(#filter4800-9);enable-background:accumulate"
         sodipodi:type="arc" />
      <path
         sodipodi:type="arc"
         style="color:#000000;fill:#9cc76f;fill-opacity:1;fill-rule:nonzero;stroke:none;stroke-width:4;marker:none;visibility:visible;display:inline;overflow:visible;filter:url(#filter4800-9);enable-background:accumulate"
         id="path5101"
         sodipodi:cx="77.283951"
         sodipodi:cy="74.04261"
         sodipodi:rx="2.5918398"
         sodipodi:ry="1.6493526"
         d="m 79.875791,74.04261 c 0,0.910912 -1.160407,1.649353 -2.59184,1.649353 -1.431434,0 -2.59184,-0.738441 -2.59184,-1.649353 0,-0.910912 1.160406,-1.649352 2.59184,-1.649352 1.431433,0 2.59184,0.73844 2.59184,1.649352 z"
         transform="matrix(0.21291725,0,0,0.314627,27.952379,65.008823)" />
      <path
         transform="matrix(0.21291725,0,0,0.314627,23.53722,69.257372)"
         d="m 79.875791,74.04261 c 0,0.910912 -1.160407,1.649353 -2.59184,1.649353 -1.431434,0 -2.59184,-0.738441 -2.59184,-1.649353 0,-0.910912 1.160406,-1.649352 2.59184,-1.649352 1.431433,0 2.59184,0.73844 2.59184,1.649352 z"
         sodipodi:ry="1.6493526"
         sodipodi:rx="2.5918398"
         sodipodi:cy="74.04261"
         sodipodi:cx="77.283951"
         id="path5103"
         style="color:#000000;fill:#9cc76f;fill-opacity:1;fill-rule:nonzero;stroke:none;stroke-width:4;marker:none;visibility:visible;display:inline;overflow:visible;filter:url(#filter4800-9);enable-background:accumulate"
         sodipodi:type="arc" />
      <path
         sodipodi:type="arc"
         style="color:#000000;fill:#9cc76f;fill-opacity:1;fill-rule:nonzero;stroke:none;stroke-width:4;marker:none;visibility:visible;display:inline;overflow:visible;filter:url(#filter4800-9);enable-background:accumulate"
         id="path5105"
         sodipodi:cx="77.283951"
         sodipodi:cy="74.04261"
         sodipodi:rx="2.5918398"
         sodipodi:ry="1.6493526"
         d="m 79.875791,74.04261 c 0,0.910912 -1.160407,1.649353 -2.59184,1.649353 -1.431434,0 -2.59184,-0.738441 -2.59184,-1.649353 0,-0.910912 1.160406,-1.649352 2.59184,-1.649352 1.431433,0 2.59184,0.73844 2.59184,1.649352 z"
         transform="matrix(0.21291725,0,0,0.314627,19.455281,66.008482)" />
      <path
         transform="matrix(0.21291725,0,0,0.314627,15.539951,66.924836)"
         d="m 79.875791,74.04261 c 0,0.910912 -1.160407,1.649353 -2.59184,1.649353 -1.431434,0 -2.59184,-0.738441 -2.59184,-1.649353 0,-0.910912 1.160406,-1.649352 2.59184,-1.649352 1.431433,0 2.59184,0.73844 2.59184,1.649352 z"
         sodipodi:ry="1.6493526"
         sodipodi:rx="2.5918398"
         sodipodi:cy="74.04261"
         sodipodi:cx="77.283951"
         id="path5107"
         style="color:#000000;fill:#9cc76f;fill-opacity:1;fill-rule:nonzero;stroke:none;stroke-width:4;marker:none;visibility:visible;display:inline;overflow:visible;filter:url(#filter4800-9);enable-background:accumulate"
         sodipodi:type="arc" />
      <path
         sodipodi:type="arc"
         style="color:#000000;fill:#9cc76f;fill-opacity:1;fill-rule:nonzero;stroke:none;stroke-width:4;marker:none;visibility:visible;display:inline;overflow:visible;filter:url(#filter4800-9);enable-background:accumulate"
         id="path5109"
         sodipodi:cx="77.283951"
         sodipodi:cy="74.04261"
         sodipodi:rx="2.5918398"
         sodipodi:ry="1.6493526"
         d="m 79.875791,74.04261 c 0,0.910912 -1.160407,1.649353 -2.59184,1.649353 -1.431434,0 -2.59184,-0.738441 -2.59184,-1.649353 0,-0.910912 1.160406,-1.649352 2.59184,-1.649352 1.431433,0 2.59184,0.73844 2.59184,1.649352 z"
         transform="matrix(0.21291725,0,0,0.314627,13.623939,69.590592)" />
      <path
         transform="matrix(0.21291725,0,0,0.314627,10.041829,68.091104)"
         d="m 79.875791,74.04261 c 0,0.910912 -1.160407,1.649353 -2.59184,1.649353 -1.431434,0 -2.59184,-0.738441 -2.59184,-1.649353 0,-0.910912 1.160406,-1.649352 2.59184,-1.649352 1.431433,0 2.59184,0.73844 2.59184,1.649352 z"
         sodipodi:ry="1.6493526"
         sodipodi:rx="2.5918398"
         sodipodi:cy="74.04261"
         sodipodi:cx="77.283951"
         id="path5111"
         style="color:#000000;fill:#9cc76f;fill-opacity:1;fill-rule:nonzero;stroke:none;stroke-width:4;marker:none;visibility:visible;display:inline;overflow:visible;filter:url(#filter4800-9);enable-background:accumulate"
         sodipodi:type="arc" />
      <path
         sodipodi:type="arc"
         style="color:#000000;fill:#9cc76f;fill-opacity:1;fill-rule:nonzero;stroke:none;stroke-width:4;marker:none;visibility:visible;display:inline;overflow:visible;filter:url(#filter4800-9);enable-background:accumulate"
         id="path5113"
         sodipodi:cx="77.283951"
         sodipodi:cy="74.04261"
         sodipodi:rx="2.5918398"
         sodipodi:ry="1.6493526"
         d="m 79.875791,74.04261 c 0,0.910912 -1.160407,1.649353 -2.59184,1.649353 -1.431434,0 -2.59184,-0.738441 -2.59184,-1.649353 0,-0.910912 1.160406,-1.649352 2.59184,-1.649352 1.431433,0 2.59184,0.73844 2.59184,1.649352 z"
         transform="matrix(0.21291725,0,0,0.314627,3.5440481,70.506946)" />
    </g>
    <rect
       style="color:#000000;fill:none;stroke:#93c1c8;stroke-width:0.99999994;stroke-opacity:1;marker:none;visibility:visible;display:inline;overflow:visible;enable-background:accumulate"
       id="rect4711"
       width="104.12607"
       height="64.527206"
       x="11.275886"
       y="33.111309" />
  </g>
</svg>
