<?xml version="1.0" encoding="UTF-8" standalone="no"?>
<!-- Created with Inkscape (http://www.inkscape.org/) -->

<svg
   width="128"
   height="128"
   id="svg2"
   version="1.1"
   inkscape:version="1.2.1 (1:1.2.1+202210291244+9c6d41e410)"
   sodipodi:docname="action_not_in_time.svg"
   inkscape:export-filename="action_not_in_time_16.png"
   inkscape:export-xdpi="11.25"
   inkscape:export-ydpi="11.25"
   xmlns:inkscape="http://www.inkscape.org/namespaces/inkscape"
   xmlns:sodipodi="http://sodipodi.sourceforge.net/DTD/sodipodi-0.dtd"
   xmlns:xlink="http://www.w3.org/1999/xlink"
   xmlns="http://www.w3.org/2000/svg"
   xmlns:svg="http://www.w3.org/2000/svg"
   xmlns:rdf="http://www.w3.org/1999/02/22-rdf-syntax-ns#"
   xmlns:cc="http://creativecommons.org/ns#"
   xmlns:dc="http://purl.org/dc/elements/1.1/">
  <defs
     id="defs4">
    <linearGradient
       id="linearGradient3843">
      <stop
         style="stop-color:#f9f9fa;stop-opacity:1;"
         offset="0"
         id="stop3845" />
      <stop
         style="stop-color:#efeff0;stop-opacity:1;"
         offset="1"
         id="stop3847" />
    </linearGradient>
    <filter
       inkscape:collect="always"
       id="filter3784"
       x="-0.014414414"
       y="-0.014414414"
       width="1.0288288"
       height="1.0288288">
      <feGaussianBlur
         inkscape:collect="always"
         stdDeviation="0.74109996"
         id="feGaussianBlur3786" />
    </filter>
    <filter
       inkscape:collect="always"
       id="filter3835"
       x="-0.11912061"
       width="1.2382412"
       y="-0.11871791"
       height="1.2374358">
      <feGaussianBlur
         inkscape:collect="always"
         stdDeviation="5.9436221"
         id="feGaussianBlur3837" />
    </filter>
    <filter
       inkscape:collect="always"
       id="filter3839"
       x="-0.090019872"
       y="-0.090160418"
       width="1.1800397"
       height="1.1803208">
      <feGaussianBlur
         inkscape:collect="always"
         stdDeviation="4.5115428"
         id="feGaussianBlur3841" />
    </filter>
    <linearGradient
       inkscape:collect="always"
       xlink:href="#linearGradient3843"
       id="linearGradient3849"
       x1="14.267717"
       y1="932.53717"
       x2="86.410866"
       y2="1016.1086"
       gradientUnits="userSpaceOnUse"
       gradientTransform="matrix(1.0060912,0,0,1.0019179,-0.71239998,-2.0325097)" />
    <mask
       maskUnits="userSpaceOnUse"
       id="mask3859">
      <rect
         ry="19.796612"
         rx="20.427839"
         y="925.12628"
         x="1.2320045"
         height="123.39314"
         width="123.39314"
         id="rect3861"
         style="color:#000000;fill:#ffffff;fill-opacity:1;stroke:none;stroke-width:0.96400887;marker:none;visibility:visible;display:inline;overflow:visible;enable-background:accumulate" />
    </mask>
    <linearGradient
       inkscape:collect="always"
       xlink:href="#linearGradient3834-0-7-118-6-4-8-2-6"
       id="linearGradient3846-7"
       gradientUnits="userSpaceOnUse"
       gradientTransform="matrix(0.06787012,-0.09026143,0.06144434,0.08171569,-195.78852,31.018338)"
       x1="1626.0023"
       y1="1525.0693"
       x2="1829.2196"
       y2="3109.926" />
    <linearGradient
       id="linearGradient3834-0-7-118-6-4-8-2-6">
      <stop
         style="stop-color:#626262;stop-opacity:1;"
         offset="0"
         id="stop3836-1-1-88-7-5-5-6-4" />
      <stop
         style="stop-color:#707070;stop-opacity:1;"
         offset="1"
         id="stop3838-0-6-22-3-8-6-6-4" />
    </linearGradient>
    <filter
       color-interpolation-filters="sRGB"
       inkscape:collect="always"
       id="filter3822-9-6-4-3-9-8-7-3"
       x="-0.063560198"
       y="-0.063596992"
       width="1.1271204"
       height="1.127194">
      <feGaussianBlur
         inkscape:collect="always"
         stdDeviation="2.8610366"
         id="feGaussianBlur3824-5-7-3-1-6-2-3-1" />
    </filter>
    <filter
       color-interpolation-filters="sRGB"
       inkscape:collect="always"
       id="filter3822-2-7-6-8-3-1-3-8"
       x="-0.06357859"
       y="-0.063596992"
       width="1.1271572"
       height="1.127194">
      <feGaussianBlur
         inkscape:collect="always"
         stdDeviation="2.8610366"
         id="feGaussianBlur3824-4-8-9-4-4-7-8-8" />
    </filter>
    <mask
       maskUnits="userSpaceOnUse"
       id="mask3894">
      <path
         id="path3896"
         d="m 64,8.03125 c -30.881812,0 -56,25.127474 -56,56 C 8,94.903775 33.118188,120 64,120 c 30.881811,0 56,-25.096225 56,-55.96875 0,-30.872526 -25.118189,-56 -56,-56 z m 0,8 c 11.38596,0 21.837035,3.934338 30.0625,10.53125 l -16.34375,16.34375 -13.6875,-10.9375 0.0625,16 -31.90625,0 0,32.0625 8.40625,0 L 26.5625,94.0625 C 19.959388,85.847314 16,75.420715 16,64.03125 c 0,-26.549655 21.44236,-48 48,-48 z m 37.4375,17.90625 c 6.62091,8.225289 10.59375,18.693568 10.59375,30.09375 C 112.03125,90.580905 90.55764,112 64,112 52.605173,112 42.159331,108.03712 33.9375,101.4375 l 21.40625,-21.40625 8.75,0 -0.0625,16 40,-32.03125 -18.125,-14.53125 15.53125,-15.53125 z"
         style="font-size:medium;font-style:normal;font-variant:normal;font-weight:normal;font-stretch:normal;text-indent:0;text-align:start;text-decoration:none;line-height:normal;letter-spacing:normal;word-spacing:normal;text-transform:none;direction:ltr;block-progression:tb;writing-mode:lr-tb;text-anchor:start;baseline-shift:baseline;color:#000000;fill:#ffffff;fill-opacity:1;fill-rule:nonzero;stroke:none;stroke-width:9.3633728;marker:none;visibility:visible;display:inline;overflow:visible;enable-background:accumulate;font-family:Sans;-inkscape-font-specification:Sans"
         inkscape:connector-curvature="0" />
    </mask>
  </defs>
  <sodipodi:namedview
     id="base"
     pagecolor="#ffffff"
     bordercolor="#666666"
     borderopacity="1.0"
     inkscape:pageopacity="0"
     inkscape:pageshadow="2"
     inkscape:zoom="4.7453171"
     inkscape:cx="6.6381233"
     inkscape:cy="62.482653"
     inkscape:document-units="px"
     inkscape:current-layer="layer2"
     showgrid="true"
     inkscape:window-width="1868"
     inkscape:window-height="1016"
     inkscape:window-x="52"
     inkscape:window-y="27"
     inkscape:window-maximized="1"
     showguides="true"
     inkscape:guide-bbox="true"
     inkscape:snap-global="false"
     inkscape:showpageshadow="2"
     inkscape:pagecheckerboard="0"
     inkscape:deskcolor="#d1d1d1">
    <inkscape:grid
       type="xygrid"
       id="grid3901"
       empspacing="4"
       visible="true"
       enabled="false"
       snapvisiblegridlinesonly="true"
       dotted="false"
       spacingx="4"
       spacingy="4"
       color="#ff00bf"
       opacity="0.1254902"
       empcolor="#ff00cb"
       empopacity="0.25098039"
       originx="0"
       originy="0" />
    <sodipodi:guide
       orientation="0,1"
       position="82.074894,122.481"
       id="guide3803"
       inkscape:locked="false" />
    <sodipodi:guide
       orientation="1,0"
       position="5.5,70.963216"
       id="guide3805"
       inkscape:locked="false" />
    <sodipodi:guide
       orientation="1,0"
       position="120,22.728432"
       id="guide3807"
       inkscape:locked="false" />
    <sodipodi:guide
       orientation="0,1"
       position="-33.335,8"
       id="guide3811"
       inkscape:locked="false" />
    <sodipodi:guide
       orientation="0,1"
       position="48.929471,101.5104"
       id="guide3839"
       inkscape:locked="false" />
    <inkscape:grid
       type="xygrid"
       id="grid3852"
       empspacing="4"
       visible="true"
       enabled="true"
       snapvisiblegridlinesonly="true"
       spacingx="8"
       spacingy="8"
       originx="0"
       originy="0" />
  </sodipodi:namedview>
  <metadata
     id="metadata7">
    <rdf:RDF>
      <cc:Work
         rdf:about="">
        <dc:format>image/svg+xml</dc:format>
        <dc:type
           rdf:resource="http://purl.org/dc/dcmitype/StillImage" />
        <dc:title />
      </cc:Work>
    </rdf:RDF>
  </metadata>
  <g
     inkscape:label="base"
     inkscape:groupmode="layer"
     id="layer1"
     transform="translate(0,-924.36218)"
     style="display:none"
     sodipodi:insensitive="true">
    <rect
       ry="19.796612"
       rx="20.427839"
       y="927.12628"
       x="3.2320046"
       height="123.39314"
       width="123.39314"
       id="rect3766"
       style="color:#000000;display:inline;overflow:visible;visibility:visible;fill:#252628;fill-opacity:0.12861735;stroke:none;stroke-width:0.96400887;marker:none;filter:url(#filter3784);enable-background:accumulate"
       transform="matrix(1.0060912,0,0,1.0019179,-0.71239998,-2.0325097)" />
    <rect
       style="color:#000000;display:inline;overflow:visible;visibility:visible;fill:url(#linearGradient3849);fill-opacity:1;stroke:none;stroke-width:0.96400887;marker:none;enable-background:accumulate"
       id="rect2985"
       width="124.14474"
       height="123.6298"
       x="0.52710891"
       y="924.86804"
       rx="20.552269"
       ry="19.834579" />
    <g
       id="g3853"
       mask="url(#mask3859)"
       transform="matrix(1.0060912,0,0,1.0019179,-0.71239998,-2.0325097)">
      <path
         sodipodi:nodetypes="csssscccsssscc"
         inkscape:connector-curvature="0"
         id="rect3788"
         transform="translate(0,924.36218)"
         d="m 111.3125,2 c 1.0638,2.3966046 2.03056,5.049628 1.65625,7.8125 l -10,73.8125 c -1.47238,10.868035 -9.195281,18.23558 -20.40625,19.78125 l -72.53125,10 C 7.534242,113.75052 5.0997184,112.93384 2.875,112.125 c 0.7713464,1.76264 1.7621331,3.38896 3,4.84375 0.010886,0.01 0.020343,0.0216 0.03125,0.0312 3.6235707,3.20066 8.436326,5.15625 13.75,5.15625 l 82.53125,0 c 11.31702,0 20.4375,-8.81393 20.4375,-19.78125 l 0,-83.8125 c 0,-4.877214 -1.80986,-9.3136525 -4.8125,-12.75 C 115.92993,4.1823291 113.729,2.8665963 111.3125,2 Z"
         style="color:#000000;display:inline;overflow:visible;visibility:visible;fill:#c9c9cf;fill-opacity:0.25401928;stroke:none;stroke-width:0.96400887;marker:none;filter:url(#filter3835);enable-background:accumulate" />
      <path
         sodipodi:nodetypes="sssccsssscccss"
         inkscape:connector-curvature="0"
         id="rect3796"
         transform="translate(0,924.36218)"
         d="m 23.65625,2.75 c -11.317023,0 -20.4375,8.845177 -20.4375,19.8125 l 0,83.8125 c 0,4.8505 1.7783223,9.26046 4.75,12.6875 1.8502957,1.61847 4.000429,2.9035 6.375,3.78125 -0.720661,-2.02308 -1.488357,-4.23372 -1.125,-6.46875 l 12,-73.8125 C 26.978647,31.737301 34.451287,24.338652 45.65625,22.75 l 70.53125,-10 c 2.55597,-0.362388 5.0458,0.494454 7.3125,1.34375 -0.82375,-2.321834 -2.0613,-4.4443488 -3.65625,-6.28125 -0.0281,-0.024504 -0.0655,-0.038145 -0.0937,-0.0625 -3.60314,-3.110944 -8.3402,-5 -13.5625,-5 z"
         style="color:#000000;display:inline;overflow:visible;visibility:visible;fill:#ffffff;fill-opacity:1;stroke:none;stroke-width:0.96400887;marker:none;filter:url(#filter3839);enable-background:accumulate" />
    </g>
    <rect
       ry="19.834579"
       rx="20.552269"
       y="924.86804"
       x="0.52710891"
       height="123.6298"
       width="124.14474"
       id="rect3851"
       style="color:#000000;display:inline;overflow:visible;visibility:visible;fill:none;stroke:#cbcdd0;stroke-width:1.00400233;stroke-linecap:round;stroke-linejoin:round;stroke-miterlimit:4;stroke-dasharray:none;stroke-dashoffset:0;stroke-opacity:1;marker:none;enable-background:accumulate" />
  </g>
  <g
     inkscape:groupmode="layer"
     id="layer2"
     inkscape:label="outline"
     style="display:inline">
    <path
       id="path3921"
       d="M 64 8.03125 C 33.118188 8.03125 8 33.158724 8 64.03125 C 8 94.903775 33.118188 120 64 120 C 94.881811 120 120 94.903775 120 64.03125 C 120 33.158724 94.881811 8.03125 64 8.03125 z M 64 16.03125 C 75.38596 16.03125 85.837035 19.965588 94.0625 26.5625 L 77.71875 42.90625 L 64.03125 31.96875 L 64.09375 47.96875 L 32.1875 47.96875 L 32.1875 80.03125 L 40.59375 80.03125 L 26.5625 94.0625 C 19.959388 85.847314 16 75.420715 16 64.03125 C 16 37.481595 37.44236 16.03125 64 16.03125 z M 101.4375 33.9375 C 108.05841 42.162789 112.03125 52.631068 112.03125 64.03125 C 112.03125 90.580905 90.55764 112 64 112 C 52.605173 112 42.159331 108.03712 33.9375 101.4375 L 55.34375 80.03125 L 64.09375 80.03125 L 64.03125 96.03125 L 104.03125 64 L 85.90625 49.46875 L 101.4375 33.9375 z "
       style="display:inline;font-size:medium;font-style:normal;font-variant:normal;font-weight:normal;font-stretch:normal;text-indent:0;text-align:start;text-decoration:none;line-height:normal;letter-spacing:normal;word-spacing:normal;text-transform:none;direction:ltr;block-progression:tb;writing-mode:lr-tb;text-anchor:start;baseline-shift:baseline;color:#000000;fill:none;fill-opacity:1;stroke:#ffffff;stroke-width:2;marker:none;visibility:visible;overflow:visible;enable-background:accumulate;font-family:Sans;-inkscape-font-specification:Sans;fill-rule:nonzero;stroke-linecap:round;stroke-linejoin:round;stroke-miterlimit:4;stroke-opacity:1;stroke-dasharray:none;stroke-dashoffset:0" />
  </g>
  <g
     inkscape:groupmode="layer"
     id="layer3"
     inkscape:label="icon"
     style="display:inline">
    <path
       style="font-size:medium;font-style:normal;font-variant:normal;font-weight:normal;font-stretch:normal;text-indent:0;text-align:start;text-decoration:none;line-height:normal;letter-spacing:normal;word-spacing:normal;text-transform:none;direction:ltr;block-progression:tb;writing-mode:lr-tb;text-anchor:start;baseline-shift:baseline;color:#000000;fill:url(#linearGradient3846-7);fill-opacity:1;stroke:none;stroke-width:9.36337280000000050;marker:none;visibility:visible;display:inline;overflow:visible;enable-background:accumulate;font-family:Sans;-inkscape-font-specification:Sans;fill-rule:nonzero"
       d="M 64 8.03125 C 33.118188 8.03125 8 33.158724 8 64.03125 C 8 94.903775 33.118188 120 64 120 C 94.881811 120 120 94.903775 120 64.03125 C 120 33.158724 94.881811 8.03125 64 8.03125 z M 64 16.03125 C 75.38596 16.03125 85.837035 19.965588 94.0625 26.5625 L 77.71875 42.90625 L 64.03125 31.96875 L 64.09375 47.96875 L 32.1875 47.96875 L 32.1875 80.03125 L 40.59375 80.03125 L 26.5625 94.0625 C 19.959388 85.847314 16 75.420715 16 64.03125 C 16 37.481595 37.44236 16.03125 64 16.03125 z M 101.4375 33.9375 C 108.05841 42.162789 112.03125 52.631068 112.03125 64.03125 C 112.03125 90.580905 90.55764 112 64 112 C 52.605173 112 42.159331 108.03712 33.9375 101.4375 L 55.34375 80.03125 L 64.09375 80.03125 L 64.03125 96.03125 L 104.03125 64 L 85.90625 49.46875 L 101.4375 33.9375 z "
       id="path3026" />
    <g
       id="g3120"
       mask="url(#mask3894)">
      <path
         sodipodi:nodetypes="sscsscscccccccccccccccssccsscccccccccccccccc"
         inkscape:connector-curvature="0"
         id="path3077"
         d="m 64,8.03125 c -30.881812,0 -56,25.127474 -56,56 0,16.401029 7.098845,31.162363 18.375,41.40625 C 17.445243,95.51928 12,82.399074 12,68.03125 c 0,-30.872526 25.118188,-56 56,-56 14.380667,0 27.510871,5.434594 37.4375,14.375 C 95.186718,15.129031 80.405962,8.03125 64,8.03125 z M 94.059522,26.551509 77.71875,42.90625 l -13.6875,-10.9375 0.0625,16 -31.90625,0 0,32.0625 4,0 0,-28.0625 31.90625,0 -0.0625,-16 13.6875,10.9375 L 98.0625,30.5625 z M 105.4375,37.9375 101.43449,33.893885 c 6.01517,6.918011 10.59676,20.803183 10.59676,30.137365 C 112.03125,90.580905 90.55764,112 64,112 54.670203,112 42.611166,108.32962 33.912512,101.43449 L 37.9375,105.4375 C 46.159331,112.03712 56.605173,116 68,116 c 26.55764,0 48.03125,-21.419095 48.03125,-47.96875 0,-11.400182 -3.97284,-21.868461 -10.59375,-30.09375 z m -19.545507,11.511271 4.014257,4.019979 13.625,10.9375 0.5,-0.40625 z M 40.607747,80.00794 26.551509,94.064178 30.553187,98.099753 44.59375,84.03125 z m 23.454753,0.02331 -0.03125,16 4.03125,-3.21875 0.03125,-8.78125 z"
         style="font-size:medium;font-style:normal;font-variant:normal;font-weight:normal;font-stretch:normal;text-indent:0;text-align:start;text-decoration:none;line-height:normal;letter-spacing:normal;word-spacing:normal;text-transform:none;direction:ltr;block-progression:tb;writing-mode:lr-tb;text-anchor:start;baseline-shift:baseline;color:#000000;fill:#141414;fill-opacity:0.73170734;fill-rule:nonzero;stroke:none;stroke-width:0.96344244;marker:none;visibility:visible;display:inline;overflow:visible;filter:url(#filter3822-9-6-4-3-9-8-7-3);enable-background:accumulate;font-family:Sans;-inkscape-font-specification:Sans" />
      <path
         sodipodi:nodetypes="ssccssccscsscssccccccccccccccccccccccc"
         inkscape:connector-curvature="0"
         id="path3105"
         d="m 60,12.03125 c -26.55764,0 -48,21.450345 -48,48 0,11.389465 3.959388,21.816064 10.5625,30.03125 l 4.040259,4.024988 C 22.016242,86.738405 16,73.356657 16,64.03125 c 0,-26.549655 21.44236,-48 48,-48 9.31696,0 22.627036,5.886816 29.984808,10.458786 L 90.0625,22.5625 C 81.837035,15.965588 71.38596,12.03125 60,12.03125 z m 41.625,10.5625 C 110.56419,32.521296 116,45.654906 116,60.03125 116,90.903775 90.881811,116 60,116 45.524151,116 32.324548,110.47622 22.375,101.4375 32.632849,112.83082 47.490334,120 64,120 c 30.881811,0 56,-25.096225 56,-55.96875 0,-16.401029 -7.09885,-31.185345 -18.375,-41.4375 z M 97.4375,29.9375 81.90625,45.46875 85.922282,49.47906 101.4578,33.917195 z M 99.53125,60.40625 64.0625,88.8125 64.03125,96.03125 104.03125,64 z m -67.34375,15.625 0,4 8.40625,0 -4,-4 z m 19.15625,0 -21.40625,21.40625 3.998322,4.00168 21.407928,-21.40793 8.71875,0 -3.96875,-4 z"
         style="font-size:medium;font-style:normal;font-variant:normal;font-weight:normal;font-stretch:normal;text-indent:0;text-align:start;text-decoration:none;line-height:normal;letter-spacing:normal;word-spacing:normal;text-transform:none;direction:ltr;block-progression:tb;writing-mode:lr-tb;text-anchor:start;baseline-shift:baseline;color:#000000;fill:#ffffff;fill-opacity:0.39430895;fill-rule:nonzero;stroke:none;stroke-width:0.96344244;marker:none;visibility:visible;display:inline;overflow:visible;filter:url(#filter3822-2-7-6-8-3-1-3-8);enable-background:accumulate;font-family:Sans;-inkscape-font-specification:Sans" />
    </g>
    <g
       mask="url(#mask3894)"
       id="g3909">
      <path
         style="font-size:medium;font-style:normal;font-variant:normal;font-weight:normal;font-stretch:normal;text-indent:0;text-align:start;text-decoration:none;line-height:normal;letter-spacing:normal;word-spacing:normal;text-transform:none;direction:ltr;block-progression:tb;writing-mode:lr-tb;text-anchor:start;baseline-shift:baseline;color:#000000;fill:#141414;fill-opacity:0.73170734;fill-rule:nonzero;stroke:none;stroke-width:0.96344244;marker:none;visibility:visible;display:inline;overflow:visible;filter:url(#filter3822-9-6-4-3-9-8-7-3);enable-background:accumulate;font-family:Sans;-inkscape-font-specification:Sans"
         d="m 64,8.03125 c -30.881812,0 -56,25.127474 -56,56 0,16.401029 7.098845,31.162363 18.375,41.40625 C 17.445243,95.51928 12,82.399074 12,68.03125 c 0,-30.872526 25.118188,-56 56,-56 14.380667,0 27.510871,5.434594 37.4375,14.375 C 95.186718,15.129031 80.405962,8.03125 64,8.03125 z M 94.059522,26.551509 77.71875,42.90625 l -13.6875,-10.9375 0.0625,16 -31.90625,0 0,32.0625 4,0 0,-28.0625 31.90625,0 -0.0625,-16 13.6875,10.9375 L 98.0625,30.5625 z M 105.4375,37.9375 101.43449,33.893885 c 6.01517,6.918011 10.59676,20.803183 10.59676,30.137365 C 112.03125,90.580905 90.55764,112 64,112 54.670203,112 42.611166,108.32962 33.912512,101.43449 L 37.9375,105.4375 C 46.159331,112.03712 56.605173,116 68,116 c 26.55764,0 48.03125,-21.419095 48.03125,-47.96875 0,-11.400182 -3.97284,-21.868461 -10.59375,-30.09375 z m -19.545507,11.511271 4.014257,4.019979 13.625,10.9375 0.5,-0.40625 z M 40.607747,80.00794 26.551509,94.064178 30.553187,98.099753 44.59375,84.03125 z m 23.454753,0.02331 -0.03125,16 4.03125,-3.21875 0.03125,-8.78125 z"
         id="path3911"
         inkscape:connector-curvature="0"
         sodipodi:nodetypes="sscsscscccccccccccccccssccsscccccccccccccccc" />
      <path
         style="font-size:medium;font-style:normal;font-variant:normal;font-weight:normal;font-stretch:normal;text-indent:0;text-align:start;text-decoration:none;line-height:normal;letter-spacing:normal;word-spacing:normal;text-transform:none;direction:ltr;block-progression:tb;writing-mode:lr-tb;text-anchor:start;baseline-shift:baseline;color:#000000;fill:#ffffff;fill-opacity:0.39430895;fill-rule:nonzero;stroke:none;stroke-width:0.96344244;marker:none;visibility:visible;display:inline;overflow:visible;filter:url(#filter3822-2-7-6-8-3-1-3-8);enable-background:accumulate;font-family:Sans;-inkscape-font-specification:Sans"
         d="m 60,12.03125 c -26.55764,0 -48,21.450345 -48,48 0,11.389465 3.959388,21.816064 10.5625,30.03125 l 4.040259,4.024988 C 22.016242,86.738405 16,73.356657 16,64.03125 c 0,-26.549655 21.44236,-48 48,-48 9.31696,0 22.627036,5.886816 29.984808,10.458786 L 90.0625,22.5625 C 81.837035,15.965588 71.38596,12.03125 60,12.03125 z m 41.625,10.5625 C 110.56419,32.521296 116,45.654906 116,60.03125 116,90.903775 90.881811,116 60,116 45.524151,116 32.324548,110.47622 22.375,101.4375 32.632849,112.83082 47.490334,120 64,120 c 30.881811,0 56,-25.096225 56,-55.96875 0,-16.401029 -7.09885,-31.185345 -18.375,-41.4375 z M 97.4375,29.9375 81.90625,45.46875 85.922282,49.47906 101.4578,33.917195 z M 99.53125,60.40625 64.0625,88.8125 64.03125,96.03125 104.03125,64 z m -67.34375,15.625 0,4 8.40625,0 -4,-4 z m 19.15625,0 -21.40625,21.40625 3.998322,4.00168 21.407928,-21.40793 8.71875,0 -3.96875,-4 z"
         id="path3913"
         inkscape:connector-curvature="0"
         sodipodi:nodetypes="ssccssccscsscssccccccccccccccccccccccc" />
    </g>
  </g>
</svg>
