<?xml version="1.0" encoding="UTF-8" standalone="no"?>
<!-- Created with Inkscape (http://www.inkscape.org/) -->

<svg
   width="128"
   height="128"
   id="svg2"
   version="1.1"
   inkscape:version="1.3.2 (1:1.3.2+202311252150+091e20ef0f)"
   sodipodi:docname="commercial.svg"
   inkscape:export-filename="commercial_12.png"
   inkscape:export-xdpi="9"
   inkscape:export-ydpi="9"
   xmlns:inkscape="http://www.inkscape.org/namespaces/inkscape"
   xmlns:sodipodi="http://sodipodi.sourceforge.net/DTD/sodipodi-0.dtd"
   xmlns:xlink="http://www.w3.org/1999/xlink"
   xmlns="http://www.w3.org/2000/svg"
   xmlns:svg="http://www.w3.org/2000/svg"
   xmlns:rdf="http://www.w3.org/1999/02/22-rdf-syntax-ns#"
   xmlns:cc="http://creativecommons.org/ns#"
   xmlns:dc="http://purl.org/dc/elements/1.1/">
  <defs
     id="defs4">
    <linearGradient
       id="linearGradient3843">
      <stop
         style="stop-color:#f9f9fa;stop-opacity:1;"
         offset="0"
         id="stop3845" />
      <stop
         style="stop-color:#efeff0;stop-opacity:1;"
         offset="1"
         id="stop3847" />
    </linearGradient>
    <filter
       inkscape:collect="always"
       id="filter3784"
       x="-0.014414414"
       y="-0.014414414"
       width="1.0288288"
       height="1.0288288">
      <feGaussianBlur
         inkscape:collect="always"
         stdDeviation="0.74109996"
         id="feGaussianBlur3786" />
    </filter>
    <filter
       inkscape:collect="always"
       id="filter3835"
       x="-0.11912061"
       width="1.2382412"
       y="-0.11871791"
       height="1.2374358">
      <feGaussianBlur
         inkscape:collect="always"
         stdDeviation="5.9436221"
         id="feGaussianBlur3837" />
    </filter>
    <filter
       inkscape:collect="always"
       id="filter3839"
       x="-0.090019872"
       y="-0.090160418"
       width="1.1800397"
       height="1.1803208">
      <feGaussianBlur
         inkscape:collect="always"
         stdDeviation="4.5115428"
         id="feGaussianBlur3841" />
    </filter>
    <linearGradient
       inkscape:collect="always"
       xlink:href="#linearGradient3843"
       id="linearGradient3849"
       x1="14.267717"
       y1="932.53717"
       x2="86.410866"
       y2="1016.1086"
       gradientUnits="userSpaceOnUse"
       gradientTransform="matrix(1.0060912,0,0,1.0019179,-0.71239998,-2.0325097)" />
    <mask
       maskUnits="userSpaceOnUse"
       id="mask3859">
      <rect
         ry="19.796612"
         rx="20.427839"
         y="925.12628"
         x="1.2320045"
         height="123.39314"
         width="123.39314"
         id="rect3861"
         style="color:#000000;fill:#ffffff;fill-opacity:1;stroke:none;stroke-width:0.96400887;marker:none;visibility:visible;display:inline;overflow:visible;enable-background:accumulate" />
    </mask>
    <linearGradient
       id="linearGradient3834-0-7-118-6-4-8-2-6-6-6-4">
      <stop
         style="stop-color:#626262;stop-opacity:1;"
         offset="0"
         id="stop3836-1-1-88-7-5-5-6-4-6-4-4" />
      <stop
         style="stop-color:#707070;stop-opacity:1;"
         offset="1"
         id="stop3838-0-6-22-3-8-6-6-4-9-7-7" />
    </linearGradient>
    <linearGradient
       inkscape:collect="always"
       xlink:href="#linearGradient3834-0-7-118-6-4-8-2-6-6-6-4"
       id="linearGradient3075"
       gradientUnits="userSpaceOnUse"
       gradientTransform="matrix(0.09478568,0.05708057,-0.08001247,0.07025394,169.48056,-503.6757)"
       x1="2829.4541"
       y1="2893.1689"
       x2="2002.5192"
       y2="3771.5156" />
    <linearGradient
       id="linearGradient3834-0-7-118-6-4-8">
      <stop
         style="stop-color:#626262;stop-opacity:1;"
         offset="0"
         id="stop3836-1-1-88-7-5-5" />
      <stop
         style="stop-color:#707070;stop-opacity:1;"
         offset="1"
         id="stop3838-0-6-22-3-8-6" />
    </linearGradient>
    <linearGradient
       inkscape:collect="always"
       xlink:href="#linearGradient3834-0-7-118-6-4-8"
       id="linearGradient3833"
       gradientUnits="userSpaceOnUse"
       gradientTransform="matrix(0.00969573,-0.17005166,0.00877777,0.15395157,210.57963,74.885648)"
       x1="-3680.1714"
       y1="-4455.2896"
       x2="560.11658"
       y2="910.72052" />
    <linearGradient
       inkscape:collect="always"
       xlink:href="#linearGradient3834-0-7-118-6-4-8"
       id="linearGradient3835"
       gradientUnits="userSpaceOnUse"
       gradientTransform="matrix(0.00969573,-0.17005166,0.00877777,0.15395157,210.57963,74.885648)"
       x1="-3680.1714"
       y1="-4455.2896"
       x2="560.11658"
       y2="910.72052" />
    <linearGradient
       inkscape:collect="always"
       xlink:href="#linearGradient3834-0-7-118-6-4-8"
       id="linearGradient3837"
       gradientUnits="userSpaceOnUse"
       gradientTransform="matrix(0.00969573,-0.17005166,0.00877777,0.15395157,210.57963,74.885648)"
       x1="-3680.1714"
       y1="-4455.2896"
       x2="560.11658"
       y2="910.72052" />
    <linearGradient
       inkscape:collect="always"
       xlink:href="#linearGradient3834-0-7-118-6-4-8"
       id="linearGradient3845"
       gradientUnits="userSpaceOnUse"
       gradientTransform="matrix(0.04363079,-0.15430083,0.03949995,0.139692,305.74897,-46.13224)"
       x1="-3680.1714"
       y1="-4455.2896"
       x2="560.11658"
       y2="910.72052" />
    <linearGradient
       inkscape:collect="always"
       xlink:href="#linearGradient3834-0-7-118-6-4-8-2-6-6-6-4-5"
       id="linearGradient3075-4"
       gradientUnits="userSpaceOnUse"
       gradientTransform="matrix(0.09478568,0.05708057,-0.08001247,0.07025394,169.48056,-503.6757)"
       x1="2680.1409"
       y1="5133.2646"
       x2="4140.585"
       y2="5532.022" />
    <linearGradient
       id="linearGradient3834-0-7-118-6-4-8-2-6-6-6-4-5">
      <stop
         style="stop-color:#626262;stop-opacity:1;"
         offset="0"
         id="stop3836-1-1-88-7-5-5-6-4-6-4-4-8" />
      <stop
         style="stop-color:#707070;stop-opacity:1;"
         offset="1"
         id="stop3838-0-6-22-3-8-6-6-4-9-7-7-2" />
    </linearGradient>
    <filter
       color-interpolation-filters="sRGB"
       inkscape:collect="always"
       id="filter3822-9-6-4-3-9-8-7-5-5-2-4"
       x="-0.063726104"
       y="-0.059838673"
       width="1.1274522"
       height="1.1196773">
      <feGaussianBlur
         inkscape:collect="always"
         stdDeviation="2.8610366"
         id="feGaussianBlur3824-5-7-3-1-6-2-3-4-0-1-8" />
    </filter>
    <filter
       color-interpolation-filters="sRGB"
       inkscape:collect="always"
       id="filter3822-2-7-6-8-3-1-3-7-0-8-6"
       x="-0.061307926"
       y="-0.059838673"
       width="1.1226159"
       height="1.1196773">
      <feGaussianBlur
         inkscape:collect="always"
         stdDeviation="2.8610366"
         id="feGaussianBlur3824-4-8-9-4-4-7-8-1-9-3-1" />
    </filter>
    <mask
       maskUnits="userSpaceOnUse"
       id="mask3978">
      <path
         id="path3980"
         d="m 100.3125,5.40625 -24.90625,24.5625 17.625,1.09375 C 90.525596,52.72666 79.307414,68.485574 66.0625,78.375 51.910871,88.941432 34.803375,93.526208 24.34375,93.5625 l 0.03125,12 C 38.064647,105.515 56.792881,100.23326 73.21875,87.96875 88.923171,76.242912 102.15862,57.842987 104.71875,32 l 15.21875,0.75 -19.625,-27.34375 z m -86.25,2.6875 -6.125,9.125 4.125,0 0,94.8125 -2.96875,0 0,4 2.96875,0 0,2.09375 4,0 0,-2.09375 90.5,0 0,4.125 9.125,-6.125 -9.125,-6.125 0,4.125 -90.5,0 0,-94.8125 4.125,0 -6.125,-9.125 z"
         style="color:#000000;fill:#ffffff;fill-opacity:1;fill-rule:nonzero;stroke:none;stroke-width:9.3633728;marker:none;visibility:visible;display:inline;overflow:visible;enable-background:accumulate"
         inkscape:connector-curvature="0" />
    </mask>
  </defs>
  <sodipodi:namedview
     id="base"
     pagecolor="#ffffff"
     bordercolor="#666666"
     borderopacity="1.0"
     inkscape:pageopacity="0"
     inkscape:pageshadow="2"
     inkscape:zoom="5.6568542"
     inkscape:cx="78.1353"
     inkscape:cy="66.37965"
     inkscape:document-units="px"
     inkscape:current-layer="layer2"
     showgrid="true"
     inkscape:window-width="1868"
     inkscape:window-height="1016"
     inkscape:window-x="52"
     inkscape:window-y="27"
     inkscape:window-maximized="1"
     showguides="true"
     inkscape:guide-bbox="true"
     inkscape:snap-global="false"
     inkscape:showpageshadow="2"
     inkscape:pagecheckerboard="0"
     inkscape:deskcolor="#d1d1d1">
    <inkscape:grid
       type="xygrid"
       id="grid3901"
       empspacing="4"
       visible="true"
       enabled="false"
       snapvisiblegridlinesonly="true"
       dotted="false"
       spacingx="4"
       spacingy="4"
       color="#ff00bf"
       opacity="0.1254902"
       empcolor="#ff00cb"
       empopacity="0.25098039"
       originx="0"
       originy="0"
       units="px" />
    <sodipodi:guide
       orientation="0,1"
       position="82.074894,122.481"
       id="guide3803"
       inkscape:locked="false" />
    <sodipodi:guide
       orientation="1,0"
       position="5.5,70.963216"
       id="guide3805"
       inkscape:locked="false" />
    <sodipodi:guide
       orientation="1,0"
       position="120,22.728432"
       id="guide3807"
       inkscape:locked="false" />
    <sodipodi:guide
       orientation="0,1"
       position="-33.335,8"
       id="guide3811"
       inkscape:locked="false" />
    <inkscape:grid
       type="xygrid"
       id="grid3852"
       empspacing="4"
       visible="true"
       enabled="true"
       snapvisiblegridlinesonly="true"
       spacingx="8"
       spacingy="8"
       originx="0"
       originy="0"
       units="px" />
    <sodipodi:guide
       orientation="0,1"
       position="56.250001,20.25"
       id="guide3825"
       inkscape:locked="false" />
    <sodipodi:guide
       orientation="1,0"
       position="28,14.25"
       id="guide3827"
       inkscape:locked="false" />
  </sodipodi:namedview>
  <metadata
     id="metadata7">
    <rdf:RDF>
      <cc:Work
         rdf:about="">
        <dc:format>image/svg+xml</dc:format>
        <dc:type
           rdf:resource="http://purl.org/dc/dcmitype/StillImage" />
        <cc:license
           rdf:resource="http://creativecommons.org/licenses/by-sa/4.0/" />
      </cc:Work>
      <cc:License
         rdf:about="http://creativecommons.org/licenses/by-sa/4.0/">
        <cc:permits
           rdf:resource="http://creativecommons.org/ns#Reproduction" />
        <cc:permits
           rdf:resource="http://creativecommons.org/ns#Distribution" />
        <cc:requires
           rdf:resource="http://creativecommons.org/ns#Notice" />
        <cc:requires
           rdf:resource="http://creativecommons.org/ns#Attribution" />
        <cc:permits
           rdf:resource="http://creativecommons.org/ns#DerivativeWorks" />
        <cc:requires
           rdf:resource="http://creativecommons.org/ns#ShareAlike" />
      </cc:License>
    </rdf:RDF>
  </metadata>
  <g
     inkscape:label="base"
     inkscape:groupmode="layer"
     id="layer1"
     transform="translate(0,-924.36218)"
     style="display:none"
     sodipodi:insensitive="true">
    <rect
       ry="19.796612"
       rx="20.427839"
       y="927.12628"
       x="3.2320046"
       height="123.39314"
       width="123.39314"
       id="rect3766"
       style="color:#000000;display:inline;overflow:visible;visibility:visible;fill:#252628;fill-opacity:0.12861735;stroke:none;stroke-width:0.96400887;marker:none;filter:url(#filter3784);enable-background:accumulate"
       transform="matrix(1.0060912,0,0,1.0019179,-0.71239998,-2.0325097)" />
    <rect
       style="color:#000000;display:inline;overflow:visible;visibility:visible;fill:url(#linearGradient3849);fill-opacity:1;stroke:none;stroke-width:0.96400887;marker:none;enable-background:accumulate"
       id="rect2985"
       width="124.14474"
       height="123.6298"
       x="0.52710891"
       y="924.86804"
       rx="20.552269"
       ry="19.834579" />
    <g
       id="g3853"
       mask="url(#mask3859)"
       transform="matrix(1.0060912,0,0,1.0019179,-0.71239998,-2.0325097)">
      <path
         sodipodi:nodetypes="csssscccsssscc"
         inkscape:connector-curvature="0"
         id="rect3788"
         transform="translate(0,924.36218)"
         d="m 111.3125,2 c 1.0638,2.3966046 2.03056,5.049628 1.65625,7.8125 l -10,73.8125 c -1.47238,10.868035 -9.195281,18.23558 -20.40625,19.78125 l -72.53125,10 C 7.534242,113.75052 5.0997184,112.93384 2.875,112.125 c 0.7713464,1.76264 1.7621331,3.38896 3,4.84375 0.010886,0.01 0.020343,0.0216 0.03125,0.0312 3.6235707,3.20066 8.436326,5.15625 13.75,5.15625 l 82.53125,0 c 11.31702,0 20.4375,-8.81393 20.4375,-19.78125 l 0,-83.8125 c 0,-4.877214 -1.80986,-9.3136525 -4.8125,-12.75 C 115.92993,4.1823291 113.729,2.8665963 111.3125,2 Z"
         style="color:#000000;display:inline;overflow:visible;visibility:visible;fill:#c9c9cf;fill-opacity:0.25401928;stroke:none;stroke-width:0.96400887;marker:none;filter:url(#filter3835);enable-background:accumulate" />
      <path
         sodipodi:nodetypes="sssccsssscccss"
         inkscape:connector-curvature="0"
         id="rect3796"
         transform="translate(0,924.36218)"
         d="m 23.65625,2.75 c -11.317023,0 -20.4375,8.845177 -20.4375,19.8125 l 0,83.8125 c 0,4.8505 1.7783223,9.26046 4.75,12.6875 1.8502957,1.61847 4.000429,2.9035 6.375,3.78125 -0.720661,-2.02308 -1.488357,-4.23372 -1.125,-6.46875 l 12,-73.8125 C 26.978647,31.737301 34.451287,24.338652 45.65625,22.75 l 70.53125,-10 c 2.55597,-0.362388 5.0458,0.494454 7.3125,1.34375 -0.82375,-2.321834 -2.0613,-4.4443488 -3.65625,-6.28125 -0.0281,-0.024504 -0.0655,-0.038145 -0.0937,-0.0625 -3.60314,-3.110944 -8.3402,-5 -13.5625,-5 z"
         style="color:#000000;display:inline;overflow:visible;visibility:visible;fill:#ffffff;fill-opacity:1;stroke:none;stroke-width:0.96400887;marker:none;filter:url(#filter3839);enable-background:accumulate" />
    </g>
    <rect
       ry="19.834579"
       rx="20.552269"
       y="924.86804"
       x="0.52710891"
       height="123.6298"
       width="124.14474"
       id="rect3851"
       style="color:#000000;display:inline;overflow:visible;visibility:visible;fill:none;stroke:#cbcdd0;stroke-width:1.00400233;stroke-linecap:round;stroke-linejoin:round;stroke-miterlimit:4;stroke-dasharray:none;stroke-dashoffset:0;stroke-opacity:1;marker:none;enable-background:accumulate" />
  </g>
  <g
     inkscape:groupmode="layer"
     id="layer2"
     inkscape:label="outline"
     style="display:none">
    <path
       id="path3963"
       d="m 100.3125,5.40625 -24.90625,24.5625 17.625,1.09375 C 90.525596,52.72666 79.307414,68.485574 66.0625,78.375 51.910871,88.941432 34.803375,93.526208 24.34375,93.5625 l 0.03125,12 C 38.064647,105.515 56.792881,100.23326 73.21875,87.96875 88.923171,76.242912 102.15862,57.842987 104.71875,32 l 15.21875,0.75 -19.625,-27.34375 z m -86.25,2.6875 -6.125,9.125 4.125,0 0,94.8125 -2.96875,0 0,4 2.96875,0 0,2.09375 4,0 0,-2.09375 90.5,0 0,4.125 9.125,-6.125 -9.125,-6.125 0,4.125 -90.5,0 0,-94.8125 4.125,0 -6.125,-9.125 z"
       style="color:#000000;display:inline;overflow:visible;visibility:visible;fill:none;fill-opacity:1;fill-rule:nonzero;stroke:#ffffff;stroke-width:2;stroke-linecap:round;stroke-linejoin:round;stroke-miterlimit:4;stroke-dasharray:none;stroke-dashoffset:0;stroke-opacity:1;marker:none;enable-background:accumulate"
       inkscape:connector-curvature="0" />
  </g>
  <g
     inkscape:groupmode="layer"
     id="layer3"
     inkscape:label="icon"
     style="display:inline">
    <path
       style="color:#000000;fill:url(#linearGradient3075-4);fill-opacity:1;fill-rule:nonzero;stroke:none;stroke-width:9.36337280000000050;marker:none;visibility:visible;display:inline;overflow:visible;enable-background:accumulate"
       d="M 100.3125 5.40625 L 75.40625 29.96875 L 93.03125 31.0625 C 90.525596 52.72666 79.307414 68.485574 66.0625 78.375 C 51.910871 88.941432 34.803375 93.526208 24.34375 93.5625 L 24.375 105.5625 C 38.064647 105.515 56.792881 100.23326 73.21875 87.96875 C 88.923171 76.242912 102.15862 57.842987 104.71875 32 L 119.9375 32.75 L 100.3125 5.40625 z M 14.0625 8.09375 L 7.9375 17.21875 L 12.0625 17.21875 L 12.0625 112.03125 L 9.09375 112.03125 L 9.09375 116.03125 L 12.0625 116.03125 L 12.0625 118.125 L 16.0625 118.125 L 16.0625 116.03125 L 106.5625 116.03125 L 106.5625 120.15625 L 115.6875 114.03125 L 106.5625 107.90625 L 106.5625 112.03125 L 16.0625 112.03125 L 16.0625 17.21875 L 20.1875 17.21875 L 14.0625 8.09375 z "
       id="path3812" />
    <g
       id="g3972"
       mask="url(#mask3978)">
      <path
         sodipodi:nodetypes="ccccccccccccccccccccccccsccccscccccccccccccccc"
         inkscape:connector-curvature="0"
         id="path3908"
         d="M 100.3125,5.40625 75.40625,29.96875 83,30.4375 103.65625,10.0625 z m -86.25,2.6875 -6.125,9.125 4.125,0 0,3.8125 5.34375,-7.96875 z m -2,9.125 0,94.8125 -2.96875,0 0,4 2.96875,0 0,2.09375 1.03125,0 0,-2.09375 2.96875,0 0,-4 0,-90.8125 z M 92.986136,31.068939 C 90.753967,51.666746 78.537411,69.060503 66.0625,78.375 51.910871,88.941432 34.803375,93.526208 24.34375,93.5625 l 0.03125,12 c 1.288683,-0.004 2.628142,-0.0888 4,-0.1875 L 28.34375,97.5625 C 38.803375,97.526208 55.910871,92.941432 70.0625,82.375 83.307414,72.485574 94.525596,56.72666 97.03125,35.0625 z m 13.576364,76.837311 0,4.125 -90.5,0 4,4 86.5,0 4,0 0,-4.125 4.15625,2.78125 0.96875,-0.65625 z m 0,8.125 0,4.125 0.1875,-0.125 z"
         style="color:#000000;fill:#141414;fill-opacity:0.73170734;fill-rule:nonzero;stroke:none;stroke-width:0.96344244;marker:none;visibility:visible;display:inline;overflow:visible;filter:url(#filter3822-9-6-4-3-9-8-7-5-5-2-4);enable-background:accumulate" />
      <path
         sodipodi:nodetypes="ccccsccscccccccccccccccccccccccccccccccccccccccc"
         inkscape:connector-curvature="0"
         id="path3937"
         d="M 100.3125,5.40625 99.65625,6.0625 115.9375,28.75 100.71875,28 C 98.15862,53.842987 84.923171,72.242912 69.21875,83.96875 54.33914,95.078733 37.576357,100.42525 24.375,101.375 l 0,4.1875 C 38.064647,105.515 56.792881,100.23326 73.21875,87.96875 88.923171,76.242912 102.15862,57.842987 104.71875,32 l 15.21875,0.75 z m -86.25,2.6875 -0.65625,0.96875 2.78125,4.15625 -4.125,0 0,4 0,90.8125 4,4 0,-94.8125 4.125,0 z m -6,8.9375 -0.125,0.1875 0.125,0 z M 79,26.4375 75.40625,29.96875 93.029903,31.046415 89.03125,27.0625 z m 31.71875,84.25 -7.96875,5.34375 3.8125,0 0,4.125 9.125,-6.125 z m -98.65625,1.34375 0,2.09375 -2.96875,0 0,1.90625 2.96875,0 0,2.09375 4,0 0,-2.09375 90.5,0 -4,-4 -86.5,0 z"
         style="color:#000000;fill:#ffffff;fill-opacity:0.39430895;fill-rule:nonzero;stroke:none;stroke-width:0.96344244;marker:none;visibility:visible;display:inline;overflow:visible;filter:url(#filter3822-2-7-6-8-3-1-3-7-0-8-6);enable-background:accumulate" />
    </g>
  </g>
</svg>
