<?xml version="1.0" encoding="UTF-8" standalone="no"?>
<!-- Created with Inkscape (http://www.inkscape.org/) -->

<svg
   width="128"
   height="128"
   id="svg2"
   version="1.1"
   inkscape:version="1.3.2 (1:1.3.2+202311252150+091e20ef0f)"
   sodipodi:docname="contact.svg"
   inkscape:export-filename="contact_12.png"
   inkscape:export-xdpi="9"
   inkscape:export-ydpi="9"
   xmlns:inkscape="http://www.inkscape.org/namespaces/inkscape"
   xmlns:sodipodi="http://sodipodi.sourceforge.net/DTD/sodipodi-0.dtd"
   xmlns:xlink="http://www.w3.org/1999/xlink"
   xmlns="http://www.w3.org/2000/svg"
   xmlns:svg="http://www.w3.org/2000/svg"
   xmlns:rdf="http://www.w3.org/1999/02/22-rdf-syntax-ns#"
   xmlns:cc="http://creativecommons.org/ns#"
   xmlns:dc="http://purl.org/dc/elements/1.1/">
  <defs
     id="defs4">
    <linearGradient
       id="linearGradient3843">
      <stop
         style="stop-color:#f9f9fa;stop-opacity:1;"
         offset="0"
         id="stop3845" />
      <stop
         style="stop-color:#efeff0;stop-opacity:1;"
         offset="1"
         id="stop3847" />
    </linearGradient>
    <filter
       inkscape:collect="always"
       id="filter3784"
       x="-0.014414414"
       y="-0.014414414"
       width="1.0288288"
       height="1.0288288">
      <feGaussianBlur
         inkscape:collect="always"
         stdDeviation="0.74109996"
         id="feGaussianBlur3786" />
    </filter>
    <filter
       inkscape:collect="always"
       id="filter3835"
       x="-0.11912061"
       width="1.2382412"
       y="-0.11871791"
       height="1.2374358">
      <feGaussianBlur
         inkscape:collect="always"
         stdDeviation="5.9436221"
         id="feGaussianBlur3837" />
    </filter>
    <filter
       inkscape:collect="always"
       id="filter3839"
       x="-0.090019872"
       y="-0.090160418"
       width="1.1800397"
       height="1.1803208">
      <feGaussianBlur
         inkscape:collect="always"
         stdDeviation="4.5115428"
         id="feGaussianBlur3841" />
    </filter>
    <linearGradient
       inkscape:collect="always"
       xlink:href="#linearGradient3843"
       id="linearGradient3849"
       x1="14.267717"
       y1="932.53717"
       x2="86.410866"
       y2="1016.1086"
       gradientUnits="userSpaceOnUse"
       gradientTransform="matrix(1.0053766,0,0,1.0018798,-0.73513181,-1.9949972)" />
    <mask
       maskUnits="userSpaceOnUse"
       id="mask3859">
      <rect
         ry="19.796612"
         rx="20.427839"
         y="925.12628"
         x="1.2320045"
         height="123.39314"
         width="123.39314"
         id="rect3861"
         style="color:#000000;fill:#ffffff;fill-opacity:1;stroke:none;stroke-width:0.96400887;marker:none;visibility:visible;display:inline;overflow:visible;enable-background:accumulate" />
    </mask>
    <filter
       color-interpolation-filters="sRGB"
       inkscape:collect="always"
       id="filter3822-9-9-4"
       x="-0.13673155"
       y="-0.063230966"
       width="1.2734631"
       height="1.1264619">
      <feGaussianBlur
         inkscape:collect="always"
         stdDeviation="2.8610366"
         id="feGaussianBlur3824-5-7-1" />
    </filter>
    <linearGradient
       inkscape:collect="always"
       xlink:href="#linearGradient3834-0-2-0"
       id="linearGradient4045-8"
       gradientUnits="userSpaceOnUse"
       gradientTransform="matrix(0.94783835,0,0,0.99999998,1.46053,0.5)"
       x1="17.120964"
       y1="17.445658"
       x2="63.115154"
       y2="82.600502" />
    <linearGradient
       id="linearGradient3834-0-2-0">
      <stop
         style="stop-color:#626262;stop-opacity:1;"
         offset="0"
         id="stop3836-1-6-0" />
      <stop
         style="stop-color:#707070;stop-opacity:1;"
         offset="1"
         id="stop3838-0-1-3" />
    </linearGradient>
    <filter
       color-interpolation-filters="sRGB"
       inkscape:collect="always"
       id="filter3822-2"
       x="-0.12261585"
       y="-0.066631525"
       width="1.2452317"
       height="1.1332631">
      <feGaussianBlur
         inkscape:collect="always"
         stdDeviation="2.8610366"
         id="feGaussianBlur3824-4" />
    </filter>
    <mask
       maskUnits="userSpaceOnUse"
       id="mask3955">
      <path
         inkscape:connector-curvature="0"
         id="path3957"
         d="M 40,5.53125 44,12 36,8 l 4,8 -4,0 7.5,7.5 C 41.272765,27.141642 40,31.418695 40,36 40,49.254834 50.745166,60 64,60 77.254834,60 88,49.254834 88,36 88,22.745166 77.254834,12 64,12 55.293612,11.841098 47.742631,8.4207969 40,5.53125 z M 48,32 c 2.209139,0 4,1.790861 4,4 0,2.209139 -1.790861,4 -4,4 -2.209139,0 -4,-1.790861 -4,-4 0,-2.209139 1.790861,-4 4,-4 z m 16,0 c 2.209139,0 4,1.790861 4,4 0,2.209139 -1.790861,4 -4,4 -2.209139,0 -4,-1.790861 -4,-4 0,-2.209139 1.790861,-4 4,-4 z M 43.28125,54.65625 C 38.34175,73.769969 36,92 36,112 54.666667,122.577 73.333333,123.30465 92,112 92,92 89.433891,73.599987 84.6875,54.6875 79.588121,60.333218 72.206854,64 64,64 55.777484,64 48.381641,60.32076 43.28125,54.65625 z"
         style="color:#000000;fill:#ffffff;fill-opacity:1;fill-rule:nonzero;stroke:none;stroke-width:0.96344244;marker:none;visibility:visible;display:inline;overflow:visible;enable-background:accumulate" />
    </mask>
  </defs>
  <sodipodi:namedview
     id="base"
     pagecolor="#ffffff"
     bordercolor="#666666"
     borderopacity="1.0"
     inkscape:pageopacity="0"
     inkscape:pageshadow="2"
     inkscape:zoom="4"
     inkscape:cx="82"
     inkscape:cy="91.125"
     inkscape:document-units="px"
     inkscape:current-layer="layer2"
     showgrid="true"
     inkscape:window-width="1868"
     inkscape:window-height="1016"
     inkscape:window-x="52"
     inkscape:window-y="27"
     inkscape:window-maximized="1"
     showguides="true"
     inkscape:guide-bbox="true"
     inkscape:snap-global="false"
     inkscape:showpageshadow="2"
     inkscape:pagecheckerboard="0"
     inkscape:deskcolor="#d1d1d1">
    <inkscape:grid
       type="xygrid"
       id="grid3901"
       empspacing="4"
       visible="true"
       enabled="true"
       snapvisiblegridlinesonly="true"
       dotted="false"
       originx="0"
       originy="0"
       spacingy="1"
       spacingx="1"
       units="px" />
    <sodipodi:guide
       orientation="0,1"
       position="82.074894,122.481"
       id="guide3803"
       inkscape:locked="false" />
    <sodipodi:guide
       orientation="1,0"
       position="5.5,70.963216"
       id="guide3805"
       inkscape:locked="false" />
    <sodipodi:guide
       orientation="1,0"
       position="120,22.728432"
       id="guide3807"
       inkscape:locked="false" />
    <sodipodi:guide
       orientation="0,1"
       position="-33.335,8"
       id="guide3811"
       inkscape:locked="false" />
  </sodipodi:namedview>
  <metadata
     id="metadata7">
    <rdf:RDF>
      <cc:Work
         rdf:about="">
        <dc:format>image/svg+xml</dc:format>
        <dc:type
           rdf:resource="http://purl.org/dc/dcmitype/StillImage" />
        <cc:license
           rdf:resource="http://creativecommons.org/licenses/by-sa/4.0/" />
      </cc:Work>
      <cc:License
         rdf:about="http://creativecommons.org/licenses/by-sa/4.0/">
        <cc:permits
           rdf:resource="http://creativecommons.org/ns#Reproduction" />
        <cc:permits
           rdf:resource="http://creativecommons.org/ns#Distribution" />
        <cc:requires
           rdf:resource="http://creativecommons.org/ns#Notice" />
        <cc:requires
           rdf:resource="http://creativecommons.org/ns#Attribution" />
        <cc:permits
           rdf:resource="http://creativecommons.org/ns#DerivativeWorks" />
        <cc:requires
           rdf:resource="http://creativecommons.org/ns#ShareAlike" />
      </cc:License>
    </rdf:RDF>
  </metadata>
  <g
     inkscape:label="base"
     inkscape:groupmode="layer"
     id="layer1"
     transform="translate(0,-924.36218)"
     style="display:none"
     sodipodi:insensitive="true">
    <rect
       ry="19.796612"
       rx="20.427839"
       y="927.12628"
       x="3.2320046"
       height="123.39314"
       width="123.39314"
       id="rect3766"
       style="color:#000000;display:inline;overflow:visible;visibility:visible;fill:#252628;fill-opacity:0.128617;stroke:none;stroke-width:0.964009;marker:none;filter:url(#filter3784);enable-background:accumulate"
       transform="matrix(1.0053766,0,0,1.0018798,-0.73513181,-1.9949972)" />
    <rect
       style="color:#000000;display:inline;overflow:visible;visibility:visible;fill:url(#linearGradient3849);fill-opacity:1;stroke:none;stroke-width:0.964009;marker:none;enable-background:accumulate"
       id="rect2985"
       width="124.05659"
       height="123.62511"
       x="0.50349677"
       y="924.87036"
       rx="20.537672"
       ry="19.833826" />
    <g
       id="g3853"
       mask="url(#mask3859)"
       transform="matrix(1.0053766,0,0,1.0018798,-0.73513181,-1.9949972)">
      <path
         sodipodi:nodetypes="csssscccsssscc"
         inkscape:connector-curvature="0"
         id="rect3788"
         transform="translate(0,924.36218)"
         d="m 111.3125,2 c 1.0638,2.3966046 2.03056,5.049628 1.65625,7.8125 l -10,73.8125 c -1.47238,10.868035 -9.195281,18.23558 -20.40625,19.78125 l -72.53125,10 C 7.534242,113.75052 5.0997184,112.93384 2.875,112.125 c 0.7713464,1.76264 1.7621331,3.38896 3,4.84375 0.010886,0.01 0.020343,0.0216 0.03125,0.0312 3.6235707,3.20066 8.436326,5.15625 13.75,5.15625 h 82.53125 c 11.31702,0 20.4375,-8.81393 20.4375,-19.78125 v -83.8125 c 0,-4.877214 -1.80986,-9.3136525 -4.8125,-12.75 C 115.92993,4.1823291 113.729,2.8665963 111.3125,2 Z"
         style="color:#000000;display:inline;overflow:visible;visibility:visible;fill:#c9c9cf;fill-opacity:0.254019;stroke:none;stroke-width:0.964009;marker:none;filter:url(#filter3835);enable-background:accumulate" />
      <path
         sodipodi:nodetypes="sssccsssscccss"
         inkscape:connector-curvature="0"
         id="rect3796"
         transform="translate(0,924.36218)"
         d="m 23.65625,2.75 c -11.317023,0 -20.4375,8.845177 -20.4375,19.8125 v 83.8125 c 0,4.8505 1.7783223,9.26046 4.75,12.6875 1.8502957,1.61847 4.000429,2.9035 6.375,3.78125 -0.720661,-2.02308 -1.488357,-4.23372 -1.125,-6.46875 l 12,-73.8125 C 26.978647,31.737301 34.451287,24.338652 45.65625,22.75 l 70.53125,-10 c 2.55597,-0.362388 5.0458,0.494454 7.3125,1.34375 -0.82375,-2.321834 -2.0613,-4.4443488 -3.65625,-6.28125 -0.0281,-0.024504 -0.0655,-0.038145 -0.0937,-0.0625 -3.60314,-3.110944 -8.3402,-5 -13.5625,-5 z"
         style="color:#000000;display:inline;overflow:visible;visibility:visible;fill:#ffffff;fill-opacity:1;stroke:none;stroke-width:0.964009;marker:none;filter:url(#filter3839);enable-background:accumulate" />
    </g>
    <rect
       ry="19.833826"
       rx="20.537672"
       y="924.87036"
       x="0.50349677"
       height="123.62511"
       width="124.05659"
       id="rect3851"
       style="color:#000000;display:inline;overflow:visible;visibility:visible;fill:none;stroke:#cbcdd0;stroke-width:1.00363;stroke-linecap:round;stroke-linejoin:round;stroke-miterlimit:4;stroke-dasharray:none;stroke-dashoffset:0;stroke-opacity:1;marker:none;enable-background:accumulate" />
  </g>
  <g
     inkscape:groupmode="layer"
     id="layer3"
     inkscape:label="outline">
    <path
       inkscape:connector-curvature="0"
       id="path4241"
       d="m 40,6.03125 4,6.46875 -8,-4 4,8 -4,0 7.5,7.5 c -2.22723,3.641642 -3.5,7.918695 -3.5,12.5 0,13.254834 10.74517,24 24,24 13.25483,0 24,-10.745166 24,-24 C 88,23.245166 77.25483,12.5 64,12.5 55.29361,12.341098 47.74263,8.9207969 40,6.03125 z M 48,32.5 c 2.20914,0 4,1.790861 4,4 0,2.209139 -1.79086,4 -4,4 -2.20914,0 -4,-1.790861 -4,-4 0,-2.209139 1.79086,-4 4,-4 z m 16,0 c 2.20914,0 4,1.790861 4,4 0,2.209139 -1.79086,4 -4,4 -2.20914,0 -4,-1.790861 -4,-4 0,-2.209139 1.79086,-4 4,-4 z M 43.28125,55.15625 C 38.34175,74.269969 36,92.5 36,112.5 c 18.66667,10.577 37.33333,11.30465 56,0 C 92,92.5 89.43389,74.099987 84.6875,55.1875 79.58812,60.833218 72.20685,64.5 64,64.5 55.77748,64.5 48.38164,60.82076 43.28125,55.15625 z"
       style="display:inline;color:#000000;fill:none;stroke:#ffffff;stroke-width:2;stroke-linecap:round;stroke-linejoin:round;stroke-miterlimit:4;stroke-opacity:1;stroke-dasharray:none;stroke-dashoffset:0;marker:none;visibility:visible;overflow:visible;enable-background:accumulate" />
  </g>
  <g
     inkscape:groupmode="layer"
     id="layer2"
     inkscape:label="icon"
     style="display:inline">
    <path
       style="color:#000000;fill:url(#linearGradient4045-8);fill-opacity:1;fill-rule:nonzero;stroke:none;stroke-width:0.96344244;marker:none;visibility:visible;display:inline;overflow:visible;enable-background:accumulate"
       d="m 40,6.03125 4,6.46875 -8,-4 4,8 -4,0 7.5,7.5 c -2.22723,3.641642 -3.5,7.918695 -3.5,12.5 0,13.254834 10.74517,24 24,24 13.25483,0 24,-10.745166 24,-24 C 88,23.245166 77.25483,12.5 64,12.5 55.29361,12.341098 47.74263,8.9207969 40,6.03125 z M 48,32.5 c 2.20914,0 4,1.790861 4,4 0,2.209139 -1.79086,4 -4,4 -2.20914,0 -4,-1.790861 -4,-4 0,-2.209139 1.79086,-4 4,-4 z m 16,0 c 2.20914,0 4,1.790861 4,4 0,2.209139 -1.79086,4 -4,4 -2.20914,0 -4,-1.790861 -4,-4 0,-2.209139 1.79086,-4 4,-4 z M 43.28125,55.15625 C 38.34175,74.269969 36,92.5 36,112.5 c 18.66667,10.577 37.33333,11.30465 56,0 C 92,92.5 89.43389,74.099987 84.6875,55.1875 79.58812,60.833218 72.20685,64.5 64,64.5 55.77748,64.5 48.38164,60.82076 43.28125,55.15625 z"
       id="path3886"
       inkscape:connector-curvature="0" />
    <g
       id="g3932"
       mask="url(#mask3955)"
       transform="translate(0,0.5)">
      <path
         mask="none"
         inkscape:connector-curvature="0"
         id="path3915"
         d="M 40,5.53125 44,12 36,8 l 4,8 -4,0 4,4 4,0 -4,-8 8,4 -4,-6.46875 C 51.742631,12.420797 59.293612,15.841098 68,16 73.603294,16 78.759593,17.93796 82.84375,21.15625 78.449036,15.579156 71.65154,12 64,12 55.293612,11.841098 47.742631,8.4207969 40,5.53125 z M 43.5,23.5 C 41.272765,27.141642 40,31.418695 40,36 40,43.65154 43.579156,50.449036 49.15625,54.84375 45.93796,50.759593 44,45.603294 44,40 43.94055,35.584889 45.31566,31.147759 47.5,27.5 l -4,-4 z m 7.0625,9.40625 -5.25,6.0625 3.71875,3.71875 c 0.126245,0.139676 0.261632,0.254296 0.40625,0.375 l 0,0.03125 C 50.129229,43.665375 51.032559,44 52,44 c 2.209139,0 4,-1.790861 4,-4 0,-1.129545 -0.465845,-2.147635 -1.21875,-2.875 -0.0028,-0.0021 -0.08712,-0.08776 -0.09375,-0.09375 -0.291739,-0.263402 -4.125,-4.125 -4.125,-4.125 z m 16,0 -5.625,5.71875 c 0,0 2.859628,2.82532 3.90625,3.84375 0.190122,0.243848 0.415558,0.43107 0.65625,0.625 C 66.18599,43.646465 67.050466,44 68,44 c 2.209139,0 4,-1.790861 4,-4 0,-1.23463 -0.558382,-2.328756 -1.4375,-3.0625 l -4,-4.03125 z m 18.21875,21.3125 C 77.890315,61.535657 72.63691,62.583184 66.125,63.90625 65.422217,63.960999 64.716331,64 64,64 55.777484,64 48.381641,60.32076 43.28125,54.65625 38.34175,73.769969 36,92 36,112 c 1.34295,0.76095 2.6883,1.46682 4.03125,2.125 0.143194,-19.264212 2.466167,-36.957396 7.25,-55.46875 C 52.381641,64.32076 59.777484,68 68,68 c 6.972433,0 13.331177,-2.64794 18.21875,-6.90625 -0.326399,-1.446655 -1.085004,-5.424161 -1.4375,-6.875 z"
         style="color:#000000;fill:#141414;fill-opacity:0.73170734;fill-rule:nonzero;stroke:none;stroke-width:0.96344244;marker:none;visibility:visible;display:inline;overflow:visible;filter:url(#filter3822-9-9-4);enable-background:accumulate" />
      <path
         id="path3908"
         d="M 78.84375,17.15625 C 82.06204,21.240407 84,26.396706 84,32 84,45.254834 73.254834,56 60,56 54.396706,56 49.240407,54.06204 45.15625,50.84375 49.190839,55.963829 55.236062,59.377271 62.125,59.90625 70.91285,59.950876 77.799949,55.92215 81.1875,52.75 85.402645,48.425372 88,42.516063 88,36 88,28.34846 84.420844,21.550964 78.84375,17.15625 z m -34.875,10.90625 c -1.266674,0 -2.360845,0.518701 -3.09375,1.4375 -0.326022,1.16429 -0.852169,2.239725 -0.5625,3.5 0.205759,0.72219 0.624495,1.349694 1.15625,1.84375 l 3.5625,3.875 L 50.4375,32.8125 46.84375,29.25 c -0.115398,-0.123959 -0.264751,-0.220626 -0.375,-0.3125 -0.68363,-0.545316 -1.557535,-0.875 -2.5,-0.875 z M 59.875,28.09375 c -2.209139,0 -3.65625,1.509611 -3.65625,3.71875 0,0.803803 0.248186,1.560566 0.65625,2.1875 0.15962,0.304599 0.436751,0.561004 0.625,0.78125 l 3.5625,3.875 5.25,-5.9375 -3.53125,-3.375 C 62.656956,29.129111 62.404457,29.011286 62.25,28.875 61.587326,28.38798 60.760446,28.09375 59.875,28.09375 z M 84.6875,54.6875 c -0.767015,0.849192 -1.603439,1.652346 -2.46875,2.40625 C 85.984193,73.782845 88,90.267743 88,108 70.676283,118.49135 53.354967,118.61533 36.03125,110.125 36.02659,110.75186 36,111.3697 36,112 c 18.666667,10.577 37.33333,11.30465 56,0 0,-20 -2.56611,-38.400013 -7.3125,-57.3125 z"
         style="color:#000000;fill:#ffffff;fill-opacity:0.39430895;fill-rule:nonzero;stroke:none;stroke-width:0.96344244;marker:none;visibility:visible;display:inline;overflow:visible;filter:url(#filter3822-2);enable-background:accumulate"
         inkscape:connector-curvature="0"
         sodipodi:nodetypes="csscccscscccccccsssccccccsccccccc" />
    </g>
  </g>
</svg>
