<?xml version="1.0" encoding="UTF-8" standalone="no"?>
<!-- Created with Inkscape (http://www.inkscape.org/) -->

<svg
   width="128"
   height="128"
   id="svg2"
   version="1.1"
   inkscape:version="1.3.2 (1:1.3.2+202311252150+091e20ef0f)"
   sodipodi:docname="delete.svg"
   inkscape:export-filename="delete_32.png"
   inkscape:export-xdpi="24"
   inkscape:export-ydpi="24"
   xmlns:inkscape="http://www.inkscape.org/namespaces/inkscape"
   xmlns:sodipodi="http://sodipodi.sourceforge.net/DTD/sodipodi-0.dtd"
   xmlns:xlink="http://www.w3.org/1999/xlink"
   xmlns="http://www.w3.org/2000/svg"
   xmlns:svg="http://www.w3.org/2000/svg"
   xmlns:rdf="http://www.w3.org/1999/02/22-rdf-syntax-ns#"
   xmlns:cc="http://creativecommons.org/ns#"
   xmlns:dc="http://purl.org/dc/elements/1.1/">
  <defs
     id="defs4">
    <linearGradient
       id="linearGradient3843">
      <stop
         style="stop-color:#f9f9fa;stop-opacity:1;"
         offset="0"
         id="stop3845" />
      <stop
         style="stop-color:#efeff0;stop-opacity:1;"
         offset="1"
         id="stop3847" />
    </linearGradient>
    <filter
       inkscape:collect="always"
       id="filter3784"
       x="-0.014414414"
       y="-0.014414414"
       width="1.0288288"
       height="1.0288288">
      <feGaussianBlur
         inkscape:collect="always"
         stdDeviation="0.74109996"
         id="feGaussianBlur3786" />
    </filter>
    <filter
       inkscape:collect="always"
       id="filter3835"
       x="-0.11912061"
       width="1.2382412"
       y="-0.11871791"
       height="1.2374358">
      <feGaussianBlur
         inkscape:collect="always"
         stdDeviation="5.9436221"
         id="feGaussianBlur3837" />
    </filter>
    <filter
       inkscape:collect="always"
       id="filter3839"
       x="-0.090019872"
       y="-0.090160418"
       width="1.1800397"
       height="1.1803208">
      <feGaussianBlur
         inkscape:collect="always"
         stdDeviation="4.5115428"
         id="feGaussianBlur3841" />
    </filter>
    <linearGradient
       inkscape:collect="always"
       xlink:href="#linearGradient3843"
       id="linearGradient3849"
       x1="14.267717"
       y1="932.53717"
       x2="86.410866"
       y2="1016.1086"
       gradientUnits="userSpaceOnUse"
       gradientTransform="matrix(1.0052801,0,0,1.0019208,-0.72195173,-2.0383439)" />
    <mask
       maskUnits="userSpaceOnUse"
       id="mask3859">
      <rect
         ry="19.796612"
         rx="20.427839"
         y="925.12628"
         x="1.2320045"
         height="123.39314"
         width="123.39314"
         id="rect3861"
         style="color:#000000;fill:#ffffff;fill-opacity:1;stroke:none;stroke-width:0.96400887;marker:none;visibility:visible;display:inline;overflow:visible;enable-background:accumulate" />
    </mask>
    <linearGradient
       id="linearGradient3834-0-7-118-6-4-8-1-0-0">
      <stop
         style="stop-color:#626262;stop-opacity:1;"
         offset="0"
         id="stop3836-1-1-88-7-5-5-7-5-8" />
      <stop
         style="stop-color:#707070;stop-opacity:1;"
         offset="1"
         id="stop3838-0-6-22-3-8-6-8-4-7" />
    </linearGradient>
    <linearGradient
       inkscape:collect="always"
       xlink:href="#linearGradient3834-0-7-118-6-4-8-1-0-0"
       id="linearGradient3895"
       gradientUnits="userSpaceOnUse"
       gradientTransform="matrix(0.03829908,-0.01605077,0.03467301,0.01453111,-138.9901,25.670242)"
       x1="2407.9292"
       y1="2509.5874"
       x2="233.77458"
       y2="6460.4971" />
    <filter
       color-interpolation-filters="sRGB"
       inkscape:collect="always"
       id="filter3822-9-6-4-3-9-7-9-6-8"
       x="-0.07698935"
       y="-0.060782187"
       width="1.1539787"
       height="1.1215644">
      <feGaussianBlur
         inkscape:collect="always"
         stdDeviation="2.8610366"
         id="feGaussianBlur3824-5-7-3-1-6-3-6-4-3" />
    </filter>
    <filter
       color-interpolation-filters="sRGB"
       inkscape:collect="always"
       id="filter3822-2-7-6-8-3-5-6-1-7"
       x="-0.07698935"
       y="-0.059192659"
       width="1.1539787"
       height="1.1183853">
      <feGaussianBlur
         inkscape:collect="always"
         stdDeviation="2.8610366"
         id="feGaussianBlur3824-4-8-9-4-4-3-2-9-7" />
    </filter>
    <mask
       maskUnits="userSpaceOnUse"
       id="mask3959">
      <path
         id="path3961"
         d="m 44.03125,4.0625 0,13.96875 c -8.105905,0.427431 -16.308867,1.114472 -24.625,2.09375 l 0,11.78125 c 27.348524,5.675802 61.733852,5.204611 89.1875,0.03125 l 0,-11.8125 c -8.05089,-0.942273 -16.195272,-1.653749 -24.4375,-2.09375 l 0,-13.96875 -40.125,0 z m 8.03125,7.96875 23.875,0 0,5.65625 c -7.870353,-0.249943 -15.812753,-0.253778 -23.875,0 l 0,-5.65625 z m 47.875,27.40625 c -22.912204,3.285588 -48.88285,3.60712 -71.875,0.15625 l 0,76.375 c 18.218576,5.52046 54.98332,5.40216 71.875,0 l 0,-76.53125 z m -59.25,10.21875 6.59375,0 0,54.125 -6.59375,0 0,-54.125 z m 40.28125,0 6.3125,0 0,54.125 -6.3125,0 0,-54.125 z m -20.90625,2.25 8.09375,0 0,56.125 -8.09375,0 0,-56.125 z"
         style="color:#000000;fill:#ffffff;fill-opacity:1;fill-rule:nonzero;stroke:none;stroke-width:9.3633728;marker:none;visibility:visible;display:inline;overflow:visible;enable-background:accumulate"
         inkscape:connector-curvature="0" />
    </mask>
  </defs>
  <sodipodi:namedview
     id="base"
     pagecolor="#ffffff"
     bordercolor="#666666"
     borderopacity="1.0"
     inkscape:pageopacity="0"
     inkscape:pageshadow="2"
     inkscape:zoom="5.6568545"
     inkscape:cx="71.241005"
     inkscape:cy="54.358831"
     inkscape:document-units="px"
     inkscape:current-layer="layer2"
     showgrid="true"
     inkscape:window-width="1868"
     inkscape:window-height="1016"
     inkscape:window-x="52"
     inkscape:window-y="27"
     inkscape:window-maximized="1"
     showguides="true"
     inkscape:guide-bbox="true"
     inkscape:snap-global="false"
     inkscape:showpageshadow="2"
     inkscape:pagecheckerboard="0"
     inkscape:deskcolor="#d1d1d1">
    <inkscape:grid
       type="xygrid"
       id="grid3901"
       empspacing="4"
       visible="true"
       enabled="true"
       snapvisiblegridlinesonly="true"
       dotted="false"
       spacingx="4"
       spacingy="4"
       color="#ff00bf"
       opacity="0.1254902"
       empcolor="#ff00cb"
       empopacity="0.25098039"
       originx="0"
       originy="0"
       units="px" />
    <sodipodi:guide
       orientation="0,1"
       position="82.074894,122.481"
       id="guide3803"
       inkscape:locked="false" />
    <sodipodi:guide
       orientation="1,0"
       position="5.5,70.963216"
       id="guide3805"
       inkscape:locked="false" />
    <sodipodi:guide
       orientation="1,0"
       position="120,22.728432"
       id="guide3807"
       inkscape:locked="false" />
    <sodipodi:guide
       orientation="0,1"
       position="-33.335,8"
       id="guide3811"
       inkscape:locked="false" />
  </sodipodi:namedview>
  <metadata
     id="metadata7">
    <rdf:RDF>
      <cc:Work
         rdf:about="">
        <dc:format>image/svg+xml</dc:format>
        <dc:type
           rdf:resource="http://purl.org/dc/dcmitype/StillImage" />
        <cc:license
           rdf:resource="http://creativecommons.org/licenses/by-sa/4.0/" />
      </cc:Work>
      <cc:License
         rdf:about="http://creativecommons.org/licenses/by-sa/4.0/">
        <cc:permits
           rdf:resource="http://creativecommons.org/ns#Reproduction" />
        <cc:permits
           rdf:resource="http://creativecommons.org/ns#Distribution" />
        <cc:requires
           rdf:resource="http://creativecommons.org/ns#Notice" />
        <cc:requires
           rdf:resource="http://creativecommons.org/ns#Attribution" />
        <cc:permits
           rdf:resource="http://creativecommons.org/ns#DerivativeWorks" />
        <cc:requires
           rdf:resource="http://creativecommons.org/ns#ShareAlike" />
      </cc:License>
    </rdf:RDF>
  </metadata>
  <g
     inkscape:label="base"
     inkscape:groupmode="layer"
     id="layer1"
     transform="translate(0,-924.36218)"
     style="display:none"
     sodipodi:insensitive="true">
    <rect
       ry="19.796612"
       rx="20.427839"
       y="927.12628"
       x="3.2320046"
       height="123.39314"
       width="123.39314"
       id="rect3766"
       style="color:#000000;display:inline;overflow:visible;visibility:visible;fill:#252628;fill-opacity:0.128617;stroke:none;stroke-width:0.964009;marker:none;filter:url(#filter3784);enable-background:accumulate"
       transform="matrix(1.0052801,0,0,1.0019208,-0.72195173,-2.0383439)" />
    <rect
       style="color:#000000;display:inline;overflow:visible;visibility:visible;fill:url(#linearGradient3849);fill-opacity:1;stroke:none;stroke-width:0.964009;marker:none;enable-background:accumulate"
       id="rect2985"
       width="124.04468"
       height="123.63016"
       x="0.51655793"
       y="924.86487"
       rx="20.535702"
       ry="19.834637" />
    <g
       id="g3853"
       mask="url(#mask3859)"
       transform="matrix(1.0052801,0,0,1.0019208,-0.72195173,-2.0383439)">
      <path
         sodipodi:nodetypes="csssscccsssscc"
         inkscape:connector-curvature="0"
         id="rect3788"
         transform="translate(0,924.36218)"
         d="m 111.3125,2 c 1.0638,2.3966046 2.03056,5.049628 1.65625,7.8125 l -10,73.8125 c -1.47238,10.868035 -9.195281,18.23558 -20.40625,19.78125 l -72.53125,10 C 7.534242,113.75052 5.0997184,112.93384 2.875,112.125 c 0.7713464,1.76264 1.7621331,3.38896 3,4.84375 0.010886,0.01 0.020343,0.0216 0.03125,0.0312 3.6235707,3.20066 8.436326,5.15625 13.75,5.15625 h 82.53125 c 11.31702,0 20.4375,-8.81393 20.4375,-19.78125 v -83.8125 c 0,-4.877214 -1.80986,-9.3136525 -4.8125,-12.75 C 115.92993,4.1823291 113.729,2.8665963 111.3125,2 Z"
         style="color:#000000;display:inline;overflow:visible;visibility:visible;fill:#c9c9cf;fill-opacity:0.254019;stroke:none;stroke-width:0.964009;marker:none;filter:url(#filter3835);enable-background:accumulate" />
      <path
         sodipodi:nodetypes="sssccsssscccss"
         inkscape:connector-curvature="0"
         id="rect3796"
         transform="translate(0,924.36218)"
         d="m 23.65625,2.75 c -11.317023,0 -20.4375,8.845177 -20.4375,19.8125 v 83.8125 c 0,4.8505 1.7783223,9.26046 4.75,12.6875 1.8502957,1.61847 4.000429,2.9035 6.375,3.78125 -0.720661,-2.02308 -1.488357,-4.23372 -1.125,-6.46875 l 12,-73.8125 C 26.978647,31.737301 34.451287,24.338652 45.65625,22.75 l 70.53125,-10 c 2.55597,-0.362388 5.0458,0.494454 7.3125,1.34375 -0.82375,-2.321834 -2.0613,-4.4443488 -3.65625,-6.28125 -0.0281,-0.024504 -0.0655,-0.038145 -0.0937,-0.0625 -3.60314,-3.110944 -8.3402,-5 -13.5625,-5 z"
         style="color:#000000;display:inline;overflow:visible;visibility:visible;fill:#ffffff;fill-opacity:1;stroke:none;stroke-width:0.964009;marker:none;filter:url(#filter3839);enable-background:accumulate" />
    </g>
    <rect
       ry="19.834637"
       rx="20.535702"
       y="924.86487"
       x="0.51655793"
       height="123.63016"
       width="124.04468"
       id="rect3851"
       style="color:#000000;display:inline;overflow:visible;visibility:visible;fill:none;stroke:#cbcdd0;stroke-width:1.0036;stroke-linecap:round;stroke-linejoin:round;stroke-miterlimit:4;stroke-dasharray:none;stroke-dashoffset:0;stroke-opacity:1;marker:none;enable-background:accumulate" />
  </g>
  <g
     inkscape:groupmode="layer"
     id="layer2"
     inkscape:label="outline">
    <path
       id="path3974"
       d="m 44.03125,4.0625 0,13.96875 c -8.105905,0.427431 -16.308867,1.114472 -24.625,2.09375 l 0,11.78125 c 27.348524,5.675802 61.733852,5.204611 89.1875,0.03125 l 0,-11.8125 c -8.05089,-0.942273 -16.195272,-1.653749 -24.4375,-2.09375 l 0,-13.96875 -40.125,0 z m 8.03125,7.96875 23.875,0 0,5.65625 c -7.870353,-0.249943 -15.812753,-0.253778 -23.875,0 l 0,-5.65625 z m 47.875,27.40625 c -22.912204,3.285588 -48.88285,3.60712 -71.875,0.15625 l 0,76.375 c 18.218576,5.52046 54.98332,5.40216 71.875,0 l 0,-76.53125 z m -59.25,10.21875 6.59375,0 0,54.125 -6.59375,0 0,-54.125 z m 40.28125,0 6.3125,0 0,54.125 -6.3125,0 0,-54.125 z m -20.90625,2.25 8.09375,0 0,56.125 -8.09375,0 0,-56.125 z"
       style="display:inline;color:#000000;fill:none;stroke:#ffffff;stroke-width:2;stroke-linecap:round;stroke-linejoin:round;stroke-miterlimit:4;stroke-opacity:1;stroke-dasharray:none;stroke-dashoffset:0;marker:none;visibility:visible;overflow:visible;enable-background:accumulate"
       inkscape:connector-curvature="0" />
  </g>
  <g
     inkscape:groupmode="layer"
     id="layer3"
     inkscape:label="icon"
     style="display:inline">
    <path
       style="color:#000000;fill:url(#linearGradient3895);fill-opacity:1;fill-rule:nonzero;stroke:none;stroke-width:9.3633728;marker:none;visibility:visible;display:inline;overflow:visible;enable-background:accumulate"
       d="m 44.03125,4.0625 0,13.96875 c -8.105905,0.427431 -16.308867,1.114472 -24.625,2.09375 l 0,11.78125 c 27.348524,5.675802 61.733852,5.204611 89.1875,0.03125 l 0,-11.8125 c -8.05089,-0.942273 -16.195272,-1.653749 -24.4375,-2.09375 l 0,-13.96875 -40.125,0 z m 8.03125,7.96875 23.875,0 0,5.65625 c -7.870353,-0.249943 -15.812753,-0.253778 -23.875,0 l 0,-5.65625 z m 47.875,27.40625 c -22.912204,3.285588 -48.88285,3.60712 -71.875,0.15625 l 0,76.375 c 18.218576,5.52046 54.98332,5.40216 71.875,0 l 0,-76.53125 z m -59.25,10.21875 6.59375,0 0,54.125 -6.59375,0 0,-54.125 z m 40.28125,0 6.3125,0 0,54.125 -6.3125,0 0,-54.125 z m -20.90625,2.25 8.09375,0 0,56.125 -8.09375,0 0,-56.125 z"
       id="path3069"
       inkscape:connector-curvature="0" />
    <g
       id="g3953"
       mask="url(#mask3959)">
      <path
         sodipodi:nodetypes="ccccccccccccccccccccccccccccccccccccccccccccccccccc"
         inkscape:connector-curvature="0"
         id="path3910"
         d="m 44.03125,4.0625 0,13.96875 c -8.105905,0.427431 -16.308867,1.114472 -24.625,2.09375 l 0,11.78125 c 1.311004,0.27208 2.658194,0.537261 4,0.78125 l 0,-8.5625 c 8.316133,-0.979278 16.519095,-1.666319 24.625,-2.09375 l 0,-13.96875 36.125,0 0,-4 z M 75.9375,12 l 0,5.6875 C 69.371993,17.478996 58.812487,17.129818 52.056455,17.676777 L 56.0625,21.6875 c 8.062247,-0.253778 16.004647,-0.249943 23.875,0 l 0,-5.65625 z m 8.21875,6.03125 4,4 c 6.882521,0.367415 13.6889,0.933933 20.4375,1.65625 l 0,-3.5625 C 101.85074,19.335801 91.03298,18.472747 84.15625,18.03125 z M 99.9375,39.4375 c -22.912204,3.285588 -48.88285,3.60712 -71.875,0.15625 l 0,76.375 c 1.247743,0.37808 2.590617,0.7372 4,1.0625 l 0,-73.4375 c 21.669549,3.252362 45.967998,3.147674 67.875,0.375 z m -52.65625,10.241274 0,54.102476 -6.482837,0 3.889087,4 6.59375,0 0,-54.125 z m 40,-0.08839 0,54.190866 -6.245782,0 3.933282,4 6.3125,0 0,-54.125002 z m -19.125,2.426777 0,56.014089 -8.071226,0 3.977476,4 8.09375,0 0,-56.125002 z"
         style="color:#000000;fill:#141414;fill-opacity:0.73170734;fill-rule:nonzero;stroke:none;stroke-width:1.27762282;marker:none;visibility:visible;display:inline;overflow:visible;filter:url(#filter3822-9-6-4-3-9-7-9-6-8);enable-background:accumulate" />
      <path
         sodipodi:nodetypes="ccccccccccccccccccccccccccccccccccccccccccccccc"
         inkscape:connector-curvature="0"
         id="path3938"
         d="m 80.15625,4.0625 0,9.96875 4.046875,4.078125 L 84.15625,4.0625 z m -32.09375,3.96875 0,5.65625 3.977903,3.950017 0.0221,-5.606267 23.764087,0 -3.889087,-4 z m 56.53125,11.65625 0,8.25 c -26.137605,4.925366 -58.538235,5.595798 -85.1875,0.75 l 0,3.21875 c 27.348524,5.675802 61.733852,5.204611 89.1875,0.03125 l 0,-11.8125 c -1.32814,-0.155445 -2.66675,-0.294799 -4,-0.4375 z m -4.65625,19.75 c -1.318002,0.189 -2.662907,0.36202 -4,0.53125 l 0,72 c -15.734813,5.03218 -48.705656,5.48696 -67.875,1.0625 l 0,2.9375 c 18.218576,5.52046 54.98332,5.40216 71.875,0 z m -63.25,6.21875 0,54.125 4,4.0625 0,-54.1875 6.625,0 -4.03125,-4 z m 40.28125,0 0,54.125 4.1875,4.25 -0.1875,-54.375 6.378364,0 -4.065864,-4 z m -20.90625,2.25 0,56.125 4.125,4.125 -0.125,-56.25 8.15625,0.03125 -4.0625,-4.03125 z"
         style="color:#000000;fill:#ffffff;fill-opacity:0.39430895;fill-rule:nonzero;stroke:none;stroke-width:1.27762282;marker:none;visibility:visible;display:inline;overflow:visible;filter:url(#filter3822-2-7-6-8-3-5-6-1-7);enable-background:accumulate" />
    </g>
  </g>
</svg>
