<?xml version="1.0" encoding="UTF-8" standalone="no"?>
<!-- Created with Inkscape (http://www.inkscape.org/) -->

<svg
   width="128"
   height="128"
   id="svg2"
   version="1.1"
   inkscape:version="1.3.2 (1:1.3.2+202311252150+091e20ef0f)"
   sodipodi:docname="edit.svg"
   inkscape:export-filename="edit_32.png"
   inkscape:export-xdpi="24"
   inkscape:export-ydpi="24"
   xmlns:inkscape="http://www.inkscape.org/namespaces/inkscape"
   xmlns:sodipodi="http://sodipodi.sourceforge.net/DTD/sodipodi-0.dtd"
   xmlns:xlink="http://www.w3.org/1999/xlink"
   xmlns="http://www.w3.org/2000/svg"
   xmlns:svg="http://www.w3.org/2000/svg"
   xmlns:rdf="http://www.w3.org/1999/02/22-rdf-syntax-ns#"
   xmlns:cc="http://creativecommons.org/ns#"
   xmlns:dc="http://purl.org/dc/elements/1.1/">
  <defs
     id="defs4">
    <linearGradient
       id="linearGradient3843">
      <stop
         style="stop-color:#f9f9fa;stop-opacity:1;"
         offset="0"
         id="stop3845" />
      <stop
         style="stop-color:#efeff0;stop-opacity:1;"
         offset="1"
         id="stop3847" />
    </linearGradient>
    <filter
       inkscape:collect="always"
       id="filter3784"
       x="-0.014414414"
       y="-0.014414414"
       width="1.0288288"
       height="1.0288288">
      <feGaussianBlur
         inkscape:collect="always"
         stdDeviation="0.74109996"
         id="feGaussianBlur3786" />
    </filter>
    <filter
       inkscape:collect="always"
       id="filter3835"
       x="-0.11912061"
       width="1.2382412"
       y="-0.11871791"
       height="1.2374358">
      <feGaussianBlur
         inkscape:collect="always"
         stdDeviation="5.9436221"
         id="feGaussianBlur3837" />
    </filter>
    <filter
       inkscape:collect="always"
       id="filter3839"
       x="-0.090019872"
       y="-0.090160418"
       width="1.1800397"
       height="1.1803208">
      <feGaussianBlur
         inkscape:collect="always"
         stdDeviation="4.5115428"
         id="feGaussianBlur3841" />
    </filter>
    <linearGradient
       inkscape:collect="always"
       xlink:href="#linearGradient3843"
       id="linearGradient3849"
       x1="14.267717"
       y1="932.53717"
       x2="86.410866"
       y2="1016.1086"
       gradientUnits="userSpaceOnUse"
       gradientTransform="matrix(1.0054917,0,0,1.0018795,-0.75085494,-1.9946141)" />
    <mask
       maskUnits="userSpaceOnUse"
       id="mask3859">
      <rect
         ry="19.796612"
         rx="20.427839"
         y="925.12628"
         x="1.2320045"
         height="123.39314"
         width="123.39314"
         id="rect3861"
         style="color:#000000;fill:#ffffff;fill-opacity:1;stroke:none;stroke-width:0.96400887;marker:none;visibility:visible;display:inline;overflow:visible;enable-background:accumulate" />
    </mask>
    <linearGradient
       id="linearGradient3834-0-7">
      <stop
         style="stop-color:#626262;stop-opacity:1;"
         offset="0"
         id="stop3836-1-1" />
      <stop
         style="stop-color:#707070;stop-opacity:1;"
         offset="1"
         id="stop3838-0-6" />
    </linearGradient>
    <linearGradient
       inkscape:collect="always"
       xlink:href="#linearGradient3834-0-7"
       id="linearGradient4068"
       gradientUnits="userSpaceOnUse"
       gradientTransform="matrix(0.69083119,-0.69083119,0.62542492,0.62542492,-31.337778,54.188641)"
       x1="48.946754"
       y1="10.255008"
       x2="62.851814"
       y2="145.4893" />
    <filter
       color-interpolation-filters="sRGB"
       inkscape:collect="always"
       id="filter3822-9-6"
       x="-0.067148679"
       y="-0.067169638"
       width="1.1342974"
       height="1.1343393">
      <feGaussianBlur
         inkscape:collect="always"
         stdDeviation="2.8610366"
         id="feGaussianBlur3824-5-7" />
    </filter>
    <filter
       color-interpolation-filters="sRGB"
       inkscape:collect="always"
       id="filter3822-2-7"
       x="-0.067421788"
       y="-0.067754427"
       width="1.1348436"
       height="1.1355089">
      <feGaussianBlur
         inkscape:collect="always"
         stdDeviation="2.8610366"
         id="feGaussianBlur3824-4-8" />
    </filter>
    <mask
       maskUnits="userSpaceOnUse"
       id="mask4168">
      <path
         inkscape:connector-curvature="0"
         id="path4170"
         d="m 23.4375,5.53125 c -3.040212,-0.085646 -7.559835,2.2473356 -11.5625,6.25 -5.3506025,5.350605 -7.7303894,11.644612 -5.3125,14.0625 l 10.125,10.125 C 19.105389,38.386638 25.417612,35.98858 30.78125,30.625 35.809691,25.596559 38.210278,19.736211 36.5,17.03125 L 25.90625,6.4375 C 25.298383,5.8407149 24.450904,5.5597987 23.4375,5.53125 z M 38.90625,19.4375 c 1.71028,2.70496 -0.690311,8.565311 -5.71875,13.59375 -5.363668,5.363669 -11.675862,7.761638 -14.09375,5.34375 l 57.125,57.125 c 0.211342,0.210385 0.459872,0.334131 0.625,0.40625 12.568518,6.14976 25.12281,12.31109 37.6875,18.46875 -6.14563,-12.56733 -12.36719,-25.11394 -18.5,-37.6875 -0.06675,-0.160491 -0.301472,-0.427328 -0.4375,-0.5625 L 38.90625,19.4375 z m 56.5625,63.5 8.40625,17.1875 c -0.89996,1.25217 -1.99958,2.472 -3.59375,3.625 l -17.1875,-8.40625 c 2.315842,-1.043599 4.854848,-2.823598 7.21875,-5.1875 2.356,-2.356004 4.115338,-4.913217 5.15625,-7.21875 z"
         style="color:#000000;fill:#ffffff;fill-opacity:1;fill-rule:nonzero;stroke:none;stroke-width:0.90705854;marker:none;visibility:visible;display:inline;overflow:visible;enable-background:accumulate" />
    </mask>
  </defs>
  <sodipodi:namedview
     id="base"
     pagecolor="#ffffff"
     bordercolor="#666666"
     borderopacity="1.0"
     inkscape:pageopacity="0"
     inkscape:pageshadow="2"
     inkscape:zoom="4.0000002"
     inkscape:cx="35.999998"
     inkscape:cy="69.874997"
     inkscape:document-units="px"
     inkscape:current-layer="layer3"
     showgrid="true"
     inkscape:window-width="1868"
     inkscape:window-height="1016"
     inkscape:window-x="52"
     inkscape:window-y="27"
     inkscape:window-maximized="1"
     showguides="true"
     inkscape:guide-bbox="true"
     inkscape:snap-global="false"
     inkscape:showpageshadow="2"
     inkscape:pagecheckerboard="0"
     inkscape:deskcolor="#d1d1d1">
    <inkscape:grid
       type="xygrid"
       id="grid3901"
       empspacing="4"
       visible="true"
       enabled="true"
       snapvisiblegridlinesonly="true"
       dotted="false"
       spacingx="4"
       spacingy="4"
       color="#ff00bf"
       opacity="0.1254902"
       empcolor="#ff00cb"
       empopacity="0.25098039"
       originx="0"
       originy="0"
       units="px" />
    <sodipodi:guide
       orientation="0,1"
       position="82.074894,122.481"
       id="guide3803"
       inkscape:locked="false" />
    <sodipodi:guide
       orientation="1,0"
       position="5.5,70.963216"
       id="guide3805"
       inkscape:locked="false" />
    <sodipodi:guide
       orientation="1,0"
       position="120,22.728432"
       id="guide3807"
       inkscape:locked="false" />
    <sodipodi:guide
       orientation="0,1"
       position="-33.335,8"
       id="guide3811"
       inkscape:locked="false" />
  </sodipodi:namedview>
  <metadata
     id="metadata7">
    <rdf:RDF>
      <cc:Work
         rdf:about="">
        <dc:format>image/svg+xml</dc:format>
        <dc:type
           rdf:resource="http://purl.org/dc/dcmitype/StillImage" />
        <cc:license
           rdf:resource="http://creativecommons.org/licenses/by-sa/4.0/" />
      </cc:Work>
      <cc:License
         rdf:about="http://creativecommons.org/licenses/by-sa/4.0/">
        <cc:permits
           rdf:resource="http://creativecommons.org/ns#Reproduction" />
        <cc:permits
           rdf:resource="http://creativecommons.org/ns#Distribution" />
        <cc:requires
           rdf:resource="http://creativecommons.org/ns#Notice" />
        <cc:requires
           rdf:resource="http://creativecommons.org/ns#Attribution" />
        <cc:permits
           rdf:resource="http://creativecommons.org/ns#DerivativeWorks" />
        <cc:requires
           rdf:resource="http://creativecommons.org/ns#ShareAlike" />
      </cc:License>
    </rdf:RDF>
  </metadata>
  <g
     inkscape:label="base"
     inkscape:groupmode="layer"
     id="layer1"
     transform="translate(0,-924.36218)"
     style="display:none"
     sodipodi:insensitive="true">
    <rect
       ry="19.796612"
       rx="20.427839"
       y="927.12628"
       x="3.2320046"
       height="123.39314"
       width="123.39314"
       id="rect3766"
       style="color:#000000;display:inline;overflow:visible;visibility:visible;fill:#252628;fill-opacity:0.128617;stroke:none;stroke-width:0.964009;marker:none;filter:url(#filter3784);enable-background:accumulate"
       transform="matrix(1.0054917,0,0,1.0018795,-0.75085494,-1.9946141)" />
    <rect
       style="color:#000000;display:inline;overflow:visible;visibility:visible;fill:url(#linearGradient3849);fill-opacity:1;stroke:none;stroke-width:0.964009;marker:none;enable-background:accumulate"
       id="rect2985"
       width="124.07079"
       height="123.62505"
       x="0.4879154"
       y="924.87042"
       rx="20.540024"
       ry="19.83382" />
    <g
       id="g3853"
       mask="url(#mask3859)"
       transform="matrix(1.0054917,0,0,1.0018795,-0.75085494,-1.9946141)">
      <path
         sodipodi:nodetypes="csssscccsssscc"
         inkscape:connector-curvature="0"
         id="rect3788"
         transform="translate(0,924.36218)"
         d="m 111.3125,2 c 1.0638,2.3966046 2.03056,5.049628 1.65625,7.8125 l -10,73.8125 c -1.47238,10.868035 -9.195281,18.23558 -20.40625,19.78125 l -72.53125,10 C 7.534242,113.75052 5.0997184,112.93384 2.875,112.125 c 0.7713464,1.76264 1.7621331,3.38896 3,4.84375 0.010886,0.01 0.020343,0.0216 0.03125,0.0312 3.6235707,3.20066 8.436326,5.15625 13.75,5.15625 h 82.53125 c 11.31702,0 20.4375,-8.81393 20.4375,-19.78125 v -83.8125 c 0,-4.877214 -1.80986,-9.3136525 -4.8125,-12.75 C 115.92993,4.1823291 113.729,2.8665963 111.3125,2 Z"
         style="color:#000000;display:inline;overflow:visible;visibility:visible;fill:#c9c9cf;fill-opacity:0.254019;stroke:none;stroke-width:0.964009;marker:none;filter:url(#filter3835);enable-background:accumulate" />
      <path
         sodipodi:nodetypes="sssccsssscccss"
         inkscape:connector-curvature="0"
         id="rect3796"
         transform="translate(0,924.36218)"
         d="m 23.65625,2.75 c -11.317023,0 -20.4375,8.845177 -20.4375,19.8125 v 83.8125 c 0,4.8505 1.7783223,9.26046 4.75,12.6875 1.8502957,1.61847 4.000429,2.9035 6.375,3.78125 -0.720661,-2.02308 -1.488357,-4.23372 -1.125,-6.46875 l 12,-73.8125 C 26.978647,31.737301 34.451287,24.338652 45.65625,22.75 l 70.53125,-10 c 2.55597,-0.362388 5.0458,0.494454 7.3125,1.34375 -0.82375,-2.321834 -2.0613,-4.4443488 -3.65625,-6.28125 -0.0281,-0.024504 -0.0655,-0.038145 -0.0937,-0.0625 -3.60314,-3.110944 -8.3402,-5 -13.5625,-5 z"
         style="color:#000000;display:inline;overflow:visible;visibility:visible;fill:#ffffff;fill-opacity:1;stroke:none;stroke-width:0.964009;marker:none;filter:url(#filter3839);enable-background:accumulate" />
    </g>
    <rect
       ry="19.83382"
       rx="20.540024"
       y="924.87042"
       x="0.4879154"
       height="123.62505"
       width="124.07079"
       id="rect3851"
       style="color:#000000;display:inline;overflow:visible;visibility:visible;fill:none;stroke:#cbcdd0;stroke-width:1.00368;stroke-linecap:round;stroke-linejoin:round;stroke-miterlimit:4;stroke-dasharray:none;stroke-dashoffset:0;stroke-opacity:1;marker:none;enable-background:accumulate" />
  </g>
  <g
     inkscape:groupmode="layer"
     id="layer3"
     inkscape:label="outline"
     style="display:inline">
    <path
       inkscape:connector-curvature="0"
       id="path4183"
       d="m 23.4375,5.53125 c -3.040212,-0.085646 -7.559835,2.2473356 -11.5625,6.25 -5.3506025,5.350605 -7.7303894,11.644612 -5.3125,14.0625 l 10.125,10.125 C 19.105389,38.386638 25.417612,35.98858 30.78125,30.625 35.809691,25.596559 38.210278,19.736211 36.5,17.03125 L 25.90625,6.4375 C 25.298383,5.8407149 24.450904,5.5597987 23.4375,5.53125 z M 38.90625,19.4375 c 1.71028,2.70496 -0.690311,8.565311 -5.71875,13.59375 -5.363668,5.363669 -11.675862,7.761638 -14.09375,5.34375 l 57.125,57.125 c 0.211342,0.210385 0.459872,0.334131 0.625,0.40625 12.568518,6.14976 25.12281,12.31109 37.6875,18.46875 -6.14563,-12.56733 -12.36719,-25.11394 -18.5,-37.6875 -0.06675,-0.160491 -0.301472,-0.427328 -0.4375,-0.5625 L 38.90625,19.4375 z m 56.5625,63.5 8.40625,17.1875 c -0.89996,1.25217 -1.99958,2.472 -3.59375,3.625 l -17.1875,-8.40625 c 2.315842,-1.043599 4.854848,-2.823598 7.21875,-5.1875 2.356,-2.356004 4.115338,-4.913217 5.15625,-7.21875 z"
       style="color:#000000;fill:none;stroke:#ffffff;stroke-width:2;stroke-linecap:round;stroke-linejoin:round;stroke-miterlimit:4;stroke-opacity:1;stroke-dasharray:none;stroke-dashoffset:0;marker:none;visibility:visible;display:inline;overflow:visible;enable-background:accumulate" />
  </g>
  <g
     inkscape:groupmode="layer"
     id="layer2"
     inkscape:label="icon"
     style="display:inline">
    <path
       style="color:#000000;fill:url(#linearGradient4068);fill-opacity:1;fill-rule:nonzero;stroke:none;stroke-width:0.90705854;marker:none;visibility:visible;display:inline;overflow:visible;enable-background:accumulate"
       d="m 23.4375,5.53125 c -3.040212,-0.085646 -7.559835,2.2473356 -11.5625,6.25 -5.3506025,5.350605 -7.7303894,11.644612 -5.3125,14.0625 l 10.125,10.125 C 19.105389,38.386638 25.417612,35.98858 30.78125,30.625 35.809691,25.596559 38.210278,19.736211 36.5,17.03125 L 25.90625,6.4375 C 25.298383,5.8407149 24.450904,5.5597987 23.4375,5.53125 z M 38.90625,19.4375 c 1.71028,2.70496 -0.690311,8.565311 -5.71875,13.59375 -5.363668,5.363669 -11.675862,7.761638 -14.09375,5.34375 l 57.125,57.125 c 0.211342,0.210385 0.459872,0.334131 0.625,0.40625 12.568518,6.14976 25.12281,12.31109 37.6875,18.46875 -6.14563,-12.56733 -12.36719,-25.11394 -18.5,-37.6875 -0.06675,-0.160491 -0.301472,-0.427328 -0.4375,-0.5625 L 38.90625,19.4375 z m 56.5625,63.5 8.40625,17.1875 c -0.89996,1.25217 -1.99958,2.472 -3.59375,3.625 l -17.1875,-8.40625 c 2.315842,-1.043599 4.854848,-2.823598 7.21875,-5.1875 2.356,-2.356004 4.115338,-4.913217 5.15625,-7.21875 z"
       id="path4012"
       inkscape:connector-curvature="0" />
    <g
       id="g4162"
       mask="url(#mask4168)">
      <path
         sodipodi:nodetypes="ssscssccsscscssccccccccccc"
         inkscape:connector-curvature="0"
         id="path4119"
         d="m 22.84375,5.53125 c -3.016256,0.2003971 -7.216252,2.4975021 -10.96875,6.25 -5.3506025,5.350605 -7.7303894,11.644612 -5.3125,14.0625 l 4,4 c -2.4178894,-2.417888 -0.0381,-8.711895 5.3125,-14.0625 4.002665,-4.002664 8.522288,-6.335646 11.5625,-6.25 1.013404,0.028549 1.860883,0.3094649 2.46875,0.90625 l -4,-4 C 25.298383,5.8407149 24.450904,5.5597987 23.4375,5.53125 c -0.190013,-0.00535 -0.392666,-0.01336 -0.59375,0 z m 16.03125,14 c 1.710278,2.704961 -0.752809,8.627809 -5.78125,13.65625 -5.363638,5.36358 -11.613361,7.449138 -14.03125,5.03125 l 4.03125,4.15625 c 2.380696,2.454516 8.730082,0.01992 14.09375,-5.34375 5.028439,-5.028439 7.42903,-10.88879 5.71875,-13.59375 z M 99.46875,86.815966 95.467337,82.938141 103.875,100.125 c -0.89996,1.25217 -1.99958,2.472 -3.59375,3.625 l -17.210937,-8.40625 4,4.03125 17.210937,8.375 c 1.59417,-1.153 2.69379,-2.37283 3.59375,-3.625 z"
         style="color:#000000;fill:#141414;fill-opacity:0.73170734;fill-rule:nonzero;stroke:none;stroke-width:0.96344244;marker:none;visibility:visible;display:inline;overflow:visible;filter:url(#filter3822-9-6);enable-background:accumulate" />
      <path
         sodipodi:nodetypes="cscssccccccccccccccsccscc"
         inkscape:connector-curvature="0"
         id="path4147"
         d="m 32.5,13.03125 c 1.710278,2.704961 -0.690309,8.565309 -5.71875,13.59375 -5.363638,5.36358 -11.675861,7.761638 -14.09375,5.34375 l 3.99724,4.085629 c 2.391305,2.444182 8.730082,0.01992 14.09375,-5.34375 5.028439,-5.028439 7.42903,-10.88879 5.71875,-13.59375 z m 59.34375,59.375 c 0.08403,0.103667 0.154125,0.201005 0.1875,0.28125 6.13281,12.57356 12.35437,25.12017 18.5,37.6875 C 97.96656,104.21734 85.412268,98.05601 72.84375,91.90625 72.678622,91.834131 72.430092,91.710385 72.21875,91.5 l 4,4 c 0.211342,0.210385 0.459872,0.334131 0.625,0.40625 12.568518,6.14976 25.12281,12.31109 37.6875,18.46875 -6.14563,-12.56733 -12.36719,-25.11394 -18.5,-37.6875 -0.06675,-0.160491 -0.301472,-0.427328 -0.4375,-0.5625 z m -0.375,6.53125 c -1.040912,2.305533 -2.80025,4.862746 -5.15625,7.21875 -2.363902,2.363902 -4.902908,4.143901 -7.21875,5.1875 l 4.055456,3.99816 c 1.931552,-0.774092 5.485722,-3.397603 7.185391,-5.097272 1.693988,-1.69399 4.45406,-5.297024 5.110216,-7.273779 z"
         style="color:#000000;fill:#ffffff;fill-opacity:0.39430895;fill-rule:nonzero;stroke:none;stroke-width:0.96344244;marker:none;visibility:visible;display:inline;overflow:visible;filter:url(#filter3822-2-7);enable-background:accumulate" />
    </g>
  </g>
</svg>
