<?xml version="1.0" encoding="UTF-8" standalone="no"?>
<!-- Created with Inkscape (http://www.inkscape.org/) -->

<svg
   xmlns:dc="http://purl.org/dc/elements/1.1/"
   xmlns:cc="http://creativecommons.org/ns#"
   xmlns:rdf="http://www.w3.org/1999/02/22-rdf-syntax-ns#"
   xmlns:svg="http://www.w3.org/2000/svg"
   xmlns="http://www.w3.org/2000/svg"
   xmlns:xlink="http://www.w3.org/1999/xlink"
   xmlns:sodipodi="http://sodipodi.sourceforge.net/DTD/sodipodi-0.dtd"
   xmlns:inkscape="http://www.inkscape.org/namespaces/inkscape"
   width="128"
   height="128"
   id="svg2"
   version="1.1"
   inkscape:version="0.91 r13725"
   sodipodi:docname="filter.svg"
   inkscape:export-filename="filter_48.png"
   inkscape:export-xdpi="33.75"
   inkscape:export-ydpi="33.75">
  <defs
     id="defs4">
    <linearGradient
       id="linearGradient3843">
      <stop
         style="stop-color:#f9f9fa;stop-opacity:1;"
         offset="0"
         id="stop3845" />
      <stop
         style="stop-color:#efeff0;stop-opacity:1;"
         offset="1"
         id="stop3847" />
    </linearGradient>
    <filter
       inkscape:collect="always"
       id="filter3784">
      <feGaussianBlur
         inkscape:collect="always"
         stdDeviation="0.74109996"
         id="feGaussianBlur3786" />
    </filter>
    <filter
       inkscape:collect="always"
       id="filter3835"
       x="-0.11912061"
       width="1.2382412"
       y="-0.11871791"
       height="1.2374358">
      <feGaussianBlur
         inkscape:collect="always"
         stdDeviation="5.9436221"
         id="feGaussianBlur3837" />
    </filter>
    <filter
       inkscape:collect="always"
       id="filter3839">
      <feGaussianBlur
         inkscape:collect="always"
         stdDeviation="4.5115428"
         id="feGaussianBlur3841" />
    </filter>
    <linearGradient
       inkscape:collect="always"
       xlink:href="#linearGradient3843"
       id="linearGradient3849"
       x1="14.267717"
       y1="932.53717"
       x2="86.410866"
       y2="1016.1086"
       gradientUnits="userSpaceOnUse"
       gradientTransform="matrix(1.0060912,0,0,1.0019179,-0.71239998,-2.0325097)" />
    <mask
       maskUnits="userSpaceOnUse"
       id="mask3859">
      <rect
         ry="19.796612"
         rx="20.427839"
         y="925.12628"
         x="1.2320045"
         height="123.39314"
         width="123.39314"
         id="rect3861"
         style="color:#000000;fill:#ffffff;fill-opacity:1;stroke:none;stroke-width:0.96400887;marker:none;visibility:visible;display:inline;overflow:visible;enable-background:accumulate" />
    </mask>
    <linearGradient
       id="linearGradient3834-0-7-118-6-4-8-2-6-6-0">
      <stop
         style="stop-color:#626262;stop-opacity:1;"
         offset="0"
         id="stop3836-1-1-88-7-5-5-6-4-6-4" />
      <stop
         style="stop-color:#707070;stop-opacity:1;"
         offset="1"
         id="stop3838-0-6-22-3-8-6-6-4-9-2" />
    </linearGradient>
    <linearGradient
       inkscape:collect="always"
       xlink:href="#linearGradient3834-0-7-118-6-4-8-2-6-6-0"
       id="linearGradient3095"
       gradientUnits="userSpaceOnUse"
       gradientTransform="matrix(-0.00424889,-0.32869899,0.01693314,0.02112132,-5.5516883,949.71934)"
       x1="2829.4541"
       y1="2893.1689"
       x2="2002.5192"
       y2="3771.5156" />
    <linearGradient
       inkscape:collect="always"
       xlink:href="#linearGradient3834-0-7-118-6-4-8-2-6-6-0"
       id="linearGradient3103"
       gradientUnits="userSpaceOnUse"
       gradientTransform="matrix(-0.00495704,-0.32869899,0.01975533,0.02112132,-17.143636,933.71934)"
       x1="2947.3008"
       y1="2417.2476"
       x2="2862.0356"
       y2="5635.4849" />
    <filter
       color-interpolation-filters="sRGB"
       inkscape:collect="always"
       id="filter3822-9-6-4-3-9-8-7-5-5">
      <feGaussianBlur
         inkscape:collect="always"
         stdDeviation="2.8610366"
         id="feGaussianBlur3824-5-7-3-1-6-2-3-4-3" />
    </filter>
    <filter
       color-interpolation-filters="sRGB"
       inkscape:collect="always"
       id="filter3822-2-7-6-8-3-1-3-7-8">
      <feGaussianBlur
         inkscape:collect="always"
         stdDeviation="2.8610366"
         id="feGaussianBlur3824-4-8-9-4-4-7-8-1-1" />
    </filter>
    <mask
       maskUnits="userSpaceOnUse"
       id="mask3972">
      <path
         sodipodi:nodetypes="ccccccsccccccsccc"
         inkscape:connector-curvature="0"
         id="path3974"
         d="m 8,16 0,8 48.03125,48 0,40 16.09375,8 0,-48 L 88,72 c 16.20511,0 24.4375,-11.901416 24.4375,-25.15625 L 112.21875,31.78125 120,24 l 0,-8 z m 96,24.03125 0,8.09375 C 104,56.961556 96,64.103007 88,64 l -7.90625,0 z"
         style="color:#000000;fill:#ffffff;fill-opacity:1;fill-rule:nonzero;stroke:none;stroke-width:9.3633728;marker:none;visibility:visible;display:inline;overflow:visible;enable-background:accumulate" />
    </mask>
  </defs>
  <sodipodi:namedview
     id="base"
     pagecolor="#ffffff"
     bordercolor="#666666"
     borderopacity="1.0"
     inkscape:pageopacity="0"
     inkscape:pageshadow="2"
     inkscape:zoom="3.3554459"
     inkscape:cx="-17.717527"
     inkscape:cy="50.626193"
     inkscape:document-units="px"
     inkscape:current-layer="layer2"
     showgrid="true"
     inkscape:window-width="1920"
     inkscape:window-height="1030"
     inkscape:window-x="0"
     inkscape:window-y="25"
     inkscape:window-maximized="1"
     showguides="true"
     inkscape:guide-bbox="true"
     inkscape:snap-global="false">
    <inkscape:grid
       type="xygrid"
       id="grid3901"
       empspacing="4"
       visible="true"
       enabled="false"
       snapvisiblegridlinesonly="true"
       dotted="false"
       spacingx="4px"
       spacingy="4px"
       color="#ff00bf"
       opacity="0.1254902"
       empcolor="#ff00cb"
       empopacity="0.25098039" />
    <sodipodi:guide
       orientation="0,1"
       position="82.074894,122.481"
       id="guide3803" />
    <sodipodi:guide
       orientation="1,0"
       position="5.5,70.963216"
       id="guide3805" />
    <sodipodi:guide
       orientation="1,0"
       position="120,22.728432"
       id="guide3807" />
    <sodipodi:guide
       orientation="0,1"
       position="-33.335,8"
       id="guide3811" />
    <inkscape:grid
       type="xygrid"
       id="grid3852"
       empspacing="4"
       visible="true"
       enabled="true"
       snapvisiblegridlinesonly="true"
       spacingx="8px"
       spacingy="8px" />
  </sodipodi:namedview>
  <metadata
     id="metadata7">
    <rdf:RDF>
      <cc:Work
         rdf:about="">
        <dc:format>image/svg+xml</dc:format>
        <dc:type
           rdf:resource="http://purl.org/dc/dcmitype/StillImage" />
        <dc:title />
      </cc:Work>
    </rdf:RDF>
  </metadata>
  <g
     inkscape:label="base"
     inkscape:groupmode="layer"
     id="layer1"
     transform="translate(0,-924.36218)"
     style="display:none"
     sodipodi:insensitive="true">
    <rect
       ry="19.796612"
       rx="20.427839"
       y="927.12628"
       x="3.2320046"
       height="123.39314"
       width="123.39314"
       id="rect3766"
       style="color:#000000;display:inline;overflow:visible;visibility:visible;fill:#252628;fill-opacity:0.12861735;stroke:none;stroke-width:0.96400887;marker:none;filter:url(#filter3784);enable-background:accumulate"
       transform="matrix(1.0060912,0,0,1.0019179,-0.71239998,-2.0325097)" />
    <rect
       style="color:#000000;display:inline;overflow:visible;visibility:visible;fill:url(#linearGradient3849);fill-opacity:1;stroke:none;stroke-width:0.96400887;marker:none;enable-background:accumulate"
       id="rect2985"
       width="124.14474"
       height="123.6298"
       x="0.52710891"
       y="924.86804"
       rx="20.552269"
       ry="19.834579" />
    <g
       id="g3853"
       mask="url(#mask3859)"
       transform="matrix(1.0060912,0,0,1.0019179,-0.71239998,-2.0325097)">
      <path
         sodipodi:nodetypes="csssscccsssscc"
         inkscape:connector-curvature="0"
         id="rect3788"
         transform="translate(0,924.36218)"
         d="m 111.3125,2 c 1.0638,2.3966046 2.03056,5.049628 1.65625,7.8125 l -10,73.8125 c -1.47238,10.868035 -9.195281,18.23558 -20.40625,19.78125 l -72.53125,10 C 7.534242,113.75052 5.0997184,112.93384 2.875,112.125 c 0.7713464,1.76264 1.7621331,3.38896 3,4.84375 0.010886,0.01 0.020343,0.0216 0.03125,0.0312 3.6235707,3.20066 8.436326,5.15625 13.75,5.15625 l 82.53125,0 c 11.31702,0 20.4375,-8.81393 20.4375,-19.78125 l 0,-83.8125 c 0,-4.877214 -1.80986,-9.3136525 -4.8125,-12.75 C 115.92993,4.1823291 113.729,2.8665963 111.3125,2 Z"
         style="color:#000000;display:inline;overflow:visible;visibility:visible;fill:#c9c9cf;fill-opacity:0.25401928;stroke:none;stroke-width:0.96400887;marker:none;filter:url(#filter3835);enable-background:accumulate" />
      <path
         sodipodi:nodetypes="sssccsssscccss"
         inkscape:connector-curvature="0"
         id="rect3796"
         transform="translate(0,924.36218)"
         d="m 23.65625,2.75 c -11.317023,0 -20.4375,8.845177 -20.4375,19.8125 l 0,83.8125 c 0,4.8505 1.7783223,9.26046 4.75,12.6875 1.8502957,1.61847 4.000429,2.9035 6.375,3.78125 -0.720661,-2.02308 -1.488357,-4.23372 -1.125,-6.46875 l 12,-73.8125 C 26.978647,31.737301 34.451287,24.338652 45.65625,22.75 l 70.53125,-10 c 2.55597,-0.362388 5.0458,0.494454 7.3125,1.34375 -0.82375,-2.321834 -2.0613,-4.4443488 -3.65625,-6.28125 -0.0281,-0.024504 -0.0655,-0.038145 -0.0937,-0.0625 -3.60314,-3.110944 -8.3402,-5 -13.5625,-5 z"
         style="color:#000000;display:inline;overflow:visible;visibility:visible;fill:#ffffff;fill-opacity:1;stroke:none;stroke-width:0.96400887;marker:none;filter:url(#filter3839);enable-background:accumulate" />
    </g>
    <rect
       ry="19.834579"
       rx="20.552269"
       y="924.86804"
       x="0.52710891"
       height="123.6298"
       width="124.14474"
       id="rect3851"
       style="color:#000000;display:inline;overflow:visible;visibility:visible;fill:none;stroke:#cbcdd0;stroke-width:1.00400233;stroke-linecap:round;stroke-linejoin:round;stroke-miterlimit:4;stroke-dasharray:none;stroke-dashoffset:0;stroke-opacity:1;marker:none;enable-background:accumulate" />
  </g>
  <g
     inkscape:groupmode="layer"
     id="layer2"
     inkscape:label="outline"
     style="display:inline">
    <path
       sodipodi:nodetypes="ccccccsccccccsccc"
       inkscape:connector-curvature="0"
       id="path3987"
       d="m 8,16 0,8 48.03125,48 0,40 16.09375,8 0,-48 L 88,72 c 16.20511,0 24.4375,-11.901416 24.4375,-25.15625 L 112.21875,31.78125 120,24 l 0,-8 z m 96,24.03125 0,8.09375 C 104,56.961556 96,64.103007 88,64 l -7.90625,0 z"
       style="display:inline;color:#000000;fill:none;fill-opacity:1;fill-rule:nonzero;stroke:#ffffff;stroke-width:2;marker:none;visibility:visible;overflow:visible;enable-background:accumulate;stroke-linecap:round;stroke-linejoin:round;stroke-miterlimit:4;stroke-opacity:1;stroke-dasharray:none;stroke-dashoffset:0" />
  </g>
  <g
     inkscape:groupmode="layer"
     id="layer3"
     inkscape:label="icon"
     style="display:inline">
    <path
       style="color:#000000;fill:url(#linearGradient3103);fill-opacity:1;fill-rule:nonzero;stroke:none;stroke-width:9.36337280000000050;marker:none;visibility:visible;display:inline;overflow:visible;enable-background:accumulate"
       d="m 8,16 0,8 48.03125,48 0,40 16.09375,8 0,-48 L 88,72 c 16.20511,0 24.4375,-11.901416 24.4375,-25.15625 L 112.21875,31.78125 120,24 l 0,-8 z m 96,24.03125 0,8.09375 C 104,56.961556 96,64.103007 88,64 l -7.90625,0 z"
       id="rect3093"
       inkscape:connector-curvature="0"
       sodipodi:nodetypes="ccccccsccccccsccc" />
    <g
       id="g3198"
       mask="url(#mask3972)">
      <path
         sodipodi:nodetypes="ccccccccccccscccccc"
         inkscape:connector-curvature="0"
         id="path3149"
         d="m 8,16 0,8 4,4 0,-8 108,0 0,-4 z m 100,28.03125 -4,-4 C 104,56.526835 100.41752,64.158051 80.09375,64 l 4,4 L 92,68 c 8,0.103007 16,-7.038444 16,-15.875 z M 56.03125,72 l 0,40 4,2 0,-38 z"
         style="color:#000000;fill:#141414;fill-opacity:0.73170734;fill-rule:nonzero;stroke:none;stroke-width:0.96344244;marker:none;visibility:visible;display:inline;overflow:visible;filter:url(#filter3822-9-6-4-3-9-8-7-5-5);enable-background:accumulate" />
      <path
         sodipodi:nodetypes="ccccsccccccscccccccccc"
         inkscape:connector-curvature="0"
         id="path3177"
         d="m 116,16 0,4 -7.78125,7.78125 0.21875,15.0625 C 108.4375,56.098584 100.20511,68 84,68 l -15.875,0 0,48 -12.09375,-6 0,2 16.09375,8 0,-48 L 88,72 c 16.20511,0 24.4375,-11.901416 24.4375,-25.15625 L 112.21875,31.78125 120,24 120,16 z M 100,36.03125 76.09375,60 80.114591,63.990777 C 83.755412,60.299993 100.82563,43.984561 104.05663,40.079986 z"
         style="color:#000000;fill:#ffffff;fill-opacity:0.39430895;fill-rule:nonzero;stroke:none;stroke-width:0.96344244;marker:none;visibility:visible;display:inline;overflow:visible;filter:url(#filter3822-2-7-6-8-3-1-3-7-8);enable-background:accumulate" />
    </g>
  </g>
</svg>
