<?xml version="1.0" encoding="UTF-8" standalone="no"?>
<!-- Created with Inkscape (http://www.inkscape.org/) -->

<svg
   width="128"
   height="128"
   id="svg2"
   version="1.1"
   inkscape:version="1.3.2 (1:1.3.2+202311252150+091e20ef0f)"
   sodipodi:docname="header_filter.svg"
   inkscape:export-filename="header_filter_22.png"
   inkscape:export-xdpi="16.5"
   inkscape:export-ydpi="16.5"
   xmlns:inkscape="http://www.inkscape.org/namespaces/inkscape"
   xmlns:sodipodi="http://sodipodi.sourceforge.net/DTD/sodipodi-0.dtd"
   xmlns:xlink="http://www.w3.org/1999/xlink"
   xmlns="http://www.w3.org/2000/svg"
   xmlns:svg="http://www.w3.org/2000/svg"
   xmlns:rdf="http://www.w3.org/1999/02/22-rdf-syntax-ns#"
   xmlns:cc="http://creativecommons.org/ns#"
   xmlns:dc="http://purl.org/dc/elements/1.1/">
  <defs
     id="defs4">
    <linearGradient
       id="linearGradient3843">
      <stop
         style="stop-color:#f9f9fa;stop-opacity:1;"
         offset="0"
         id="stop3845" />
      <stop
         style="stop-color:#efeff0;stop-opacity:1;"
         offset="1"
         id="stop3847" />
    </linearGradient>
    <filter
       inkscape:collect="always"
       id="filter3784"
       x="-0.014414414"
       y="-0.014414414"
       width="1.0288288"
       height="1.0288288">
      <feGaussianBlur
         inkscape:collect="always"
         stdDeviation="0.74109996"
         id="feGaussianBlur3786" />
    </filter>
    <filter
       inkscape:collect="always"
       id="filter3835"
       x="-0.11912061"
       width="1.2382412"
       y="-0.11871791"
       height="1.2374358">
      <feGaussianBlur
         inkscape:collect="always"
         stdDeviation="5.9436221"
         id="feGaussianBlur3837" />
    </filter>
    <filter
       inkscape:collect="always"
       id="filter3839"
       x="-0.090019872"
       y="-0.090160418"
       width="1.1800397"
       height="1.1803208">
      <feGaussianBlur
         inkscape:collect="always"
         stdDeviation="4.5115428"
         id="feGaussianBlur3841" />
    </filter>
    <linearGradient
       inkscape:collect="always"
       xlink:href="#linearGradient3843"
       id="linearGradient3849"
       x1="14.267717"
       y1="932.53717"
       x2="86.410866"
       y2="1016.1086"
       gradientUnits="userSpaceOnUse"
       gradientTransform="matrix(1.0060912,0,0,1.0019179,-0.71239998,-2.0325097)" />
    <mask
       maskUnits="userSpaceOnUse"
       id="mask3859">
      <rect
         ry="19.796612"
         rx="20.427839"
         y="925.12628"
         x="1.2320045"
         height="123.39314"
         width="123.39314"
         id="rect3861"
         style="color:#000000;fill:#ffffff;fill-opacity:1;stroke:none;stroke-width:0.96400887;marker:none;visibility:visible;display:inline;overflow:visible;enable-background:accumulate" />
    </mask>
    <linearGradient
       inkscape:collect="always"
       xlink:href="#linearGradient3834-0-7-118-6-4-8-2-6-6-0-8"
       id="linearGradient3103-1"
       gradientUnits="userSpaceOnUse"
       gradientTransform="matrix(-0.00495704,-0.32869899,0.01975533,0.02112132,-162.87688,934.72288)"
       x1="2947.3008"
       y1="2417.2476"
       x2="2862.0356"
       y2="5635.4849" />
    <linearGradient
       id="linearGradient3834-0-7-118-6-4-8-2-6-6-0-8">
      <stop
         style="stop-color:#626262;stop-opacity:1;"
         offset="0"
         id="stop3836-1-1-88-7-5-5-6-4-6-4-6" />
      <stop
         style="stop-color:#707070;stop-opacity:1;"
         offset="1"
         id="stop3838-0-6-22-3-8-6-6-4-9-2-78" />
    </linearGradient>
    <filter
       color-interpolation-filters="sRGB"
       inkscape:collect="always"
       id="filter3822-9-6-4-3-9-8-7-5-5-1"
       x="-0.07336481"
       y="-0.063596986"
       width="1.1467296"
       height="1.127194">
      <feGaussianBlur
         inkscape:collect="always"
         stdDeviation="2.8610366"
         id="feGaussianBlur3824-5-7-3-1-6-2-3-4-3-5" />
    </filter>
    <filter
       color-interpolation-filters="sRGB"
       inkscape:collect="always"
       id="filter3822-2-7-6-8-3-1-3-7-8-1"
       x="-0.061256651"
       y="-0.063596992"
       width="1.1225133"
       height="1.127194">
      <feGaussianBlur
         inkscape:collect="always"
         stdDeviation="2.8610366"
         id="feGaussianBlur3824-4-8-9-4-4-7-8-1-1-6" />
    </filter>
    <mask
       maskUnits="userSpaceOnUse"
       id="mask4046">
      <path
         sodipodi:nodetypes="ccccccccccccccccsscssccccscccccccsccccsscsscc"
         inkscape:connector-curvature="0"
         id="path4048"
         d="m 35.90625,8.03125 0,11.9375 20.1875,0 0,-11.9375 z m 36.125,0 0,11.9375 20.15625,0 0,-11.9375 z m -12.96875,15.9375 0,32.039513 9.84375,0 0,-32.039513 z m 12.96875,0 0,38.03125 c 0,1.804 2.572,3.25 4.375,3.25 l 3.53125,0 0,43.625 c 0,1.742 1.39825,3.15625 3.15625,3.15625 l 1.25,0 0,3.96875 31.59375,0 0,-3.96875 0.90625,0 c 1.76,0 3.15625,-1.41425 3.15625,-3.15625 l 0.0625,-35.65625 -20.1875,-49.25 z m -43.875,0.0625 -20.25,49.25 0.0625,35.59375 c 0,1.742 1.0997495,3.1875 2.84375,3.1875 l 1.59375,0 0,3.9375 31.4375,0 0,-3.9375 1,0 c 1.774,0 3.21875,-1.4455 3.21875,-3.1875 l 0,-43.59375 3.53125,0 c 1.804,0 4.40625,-1.446 4.40625,-3.25 l 0,-38 z"
         style="color:#000000;fill:#ffffff;fill-opacity:1;fill-rule:nonzero;stroke:none;stroke-width:9.3633728;marker:none;visibility:visible;display:inline;overflow:visible;enable-background:accumulate" />
    </mask>
  </defs>
  <sodipodi:namedview
     id="base"
     pagecolor="#ffffff"
     bordercolor="#666666"
     borderopacity="1.0"
     inkscape:pageopacity="0"
     inkscape:pageshadow="2"
     inkscape:zoom="4"
     inkscape:cx="132.25"
     inkscape:cy="46.875"
     inkscape:document-units="px"
     inkscape:current-layer="layer2"
     showgrid="true"
     inkscape:window-width="1868"
     inkscape:window-height="1016"
     inkscape:window-x="52"
     inkscape:window-y="27"
     inkscape:window-maximized="1"
     showguides="true"
     inkscape:guide-bbox="true"
     inkscape:snap-global="false"
     inkscape:showpageshadow="2"
     inkscape:pagecheckerboard="0"
     inkscape:deskcolor="#d1d1d1">
    <inkscape:grid
       type="xygrid"
       id="grid3901"
       empspacing="4"
       visible="true"
       enabled="false"
       snapvisiblegridlinesonly="true"
       dotted="false"
       spacingx="4"
       spacingy="4"
       color="#ff00bf"
       opacity="0.1254902"
       empcolor="#ff00cb"
       empopacity="0.25098039"
       originx="0"
       originy="0"
       units="px" />
    <sodipodi:guide
       orientation="0,1"
       position="82.074894,122.481"
       id="guide3803"
       inkscape:locked="false" />
    <sodipodi:guide
       orientation="1,0"
       position="5.5,70.963216"
       id="guide3805"
       inkscape:locked="false" />
    <sodipodi:guide
       orientation="1,0"
       position="120,22.728432"
       id="guide3807"
       inkscape:locked="false" />
    <sodipodi:guide
       orientation="0,1"
       position="-33.335,8"
       id="guide3811"
       inkscape:locked="false" />
    <inkscape:grid
       type="xygrid"
       id="grid3852"
       empspacing="4"
       visible="true"
       enabled="true"
       snapvisiblegridlinesonly="true"
       spacingx="8"
       spacingy="8"
       originx="0"
       originy="0"
       units="px" />
  </sodipodi:namedview>
  <metadata
     id="metadata7">
    <rdf:RDF>
      <cc:Work
         rdf:about="">
        <dc:format>image/svg+xml</dc:format>
        <dc:type
           rdf:resource="http://purl.org/dc/dcmitype/StillImage" />
        <cc:license
           rdf:resource="http://creativecommons.org/licenses/by-sa/4.0/" />
      </cc:Work>
      <cc:License
         rdf:about="http://creativecommons.org/licenses/by-sa/4.0/">
        <cc:permits
           rdf:resource="http://creativecommons.org/ns#Reproduction" />
        <cc:permits
           rdf:resource="http://creativecommons.org/ns#Distribution" />
        <cc:requires
           rdf:resource="http://creativecommons.org/ns#Notice" />
        <cc:requires
           rdf:resource="http://creativecommons.org/ns#Attribution" />
        <cc:permits
           rdf:resource="http://creativecommons.org/ns#DerivativeWorks" />
        <cc:requires
           rdf:resource="http://creativecommons.org/ns#ShareAlike" />
      </cc:License>
    </rdf:RDF>
  </metadata>
  <g
     inkscape:label="base"
     inkscape:groupmode="layer"
     id="layer1"
     transform="translate(0,-924.36218)"
     style="display:none"
     sodipodi:insensitive="true">
    <rect
       ry="19.796612"
       rx="20.427839"
       y="927.12628"
       x="3.2320046"
       height="123.39314"
       width="123.39314"
       id="rect3766"
       style="color:#000000;fill:#252628;fill-opacity:0.12861735;stroke:none;stroke-width:0.96400887;marker:none;visibility:visible;display:inline;overflow:visible;filter:url(#filter3784);enable-background:accumulate"
       transform="matrix(1.0060912,0,0,1.0019179,-0.71239998,-2.0325097)" />
    <rect
       style="color:#000000;fill:url(#linearGradient3849);fill-opacity:1;stroke:none;stroke-width:0.96400887;marker:none;visibility:visible;display:inline;overflow:visible;enable-background:accumulate"
       id="rect2985"
       width="124.14474"
       height="123.6298"
       x="0.52710891"
       y="924.86804"
       rx="20.552269"
       ry="19.834579" />
    <g
       id="g3853"
       mask="url(#mask3859)"
       transform="matrix(1.0060912,0,0,1.0019179,-0.71239998,-2.0325097)">
      <path
         sodipodi:nodetypes="csssscccsssscc"
         inkscape:connector-curvature="0"
         id="rect3788"
         transform="translate(0,924.36218)"
         d="m 111.3125,2 c 1.0638,2.3966046 2.03056,5.049628 1.65625,7.8125 l -10,73.8125 c -1.47238,10.868035 -9.195281,18.23558 -20.40625,19.78125 l -72.53125,10 C 7.534242,113.75052 5.0997184,112.93384 2.875,112.125 c 0.7713464,1.76264 1.7621331,3.38896 3,4.84375 0.010886,0.01 0.020343,0.0216 0.03125,0.0312 3.6235707,3.20066 8.436326,5.15625 13.75,5.15625 l 82.53125,0 c 11.31702,0 20.4375,-8.81393 20.4375,-19.78125 l 0,-83.8125 c 0,-4.877214 -1.80986,-9.3136525 -4.8125,-12.75 C 115.92993,4.1823291 113.729,2.8665963 111.3125,2 z"
         style="color:#000000;fill:#c9c9cf;fill-opacity:0.25401928;stroke:none;stroke-width:0.96400887;marker:none;visibility:visible;display:inline;overflow:visible;filter:url(#filter3835);enable-background:accumulate" />
      <path
         sodipodi:nodetypes="sssccsssscccss"
         inkscape:connector-curvature="0"
         id="rect3796"
         transform="translate(0,924.36218)"
         d="m 23.65625,2.75 c -11.317023,0 -20.4375,8.845177 -20.4375,19.8125 l 0,83.8125 c 0,4.8505 1.7783223,9.26046 4.75,12.6875 1.8502957,1.61847 4.000429,2.9035 6.375,3.78125 -0.720661,-2.02308 -1.488357,-4.23372 -1.125,-6.46875 l 12,-73.8125 C 26.978647,31.737301 34.451287,24.338652 45.65625,22.75 l 70.53125,-10 c 2.55597,-0.362388 5.0458,0.494454 7.3125,1.34375 -0.82375,-2.321834 -2.0613,-4.4443488 -3.65625,-6.28125 -0.0281,-0.024504 -0.0655,-0.038145 -0.0937,-0.0625 -3.60314,-3.110944 -8.3402,-5 -13.5625,-5 z"
         style="color:#000000;fill:#ffffff;fill-opacity:1;stroke:none;stroke-width:0.96400887;marker:none;visibility:visible;display:inline;overflow:visible;filter:url(#filter3839);enable-background:accumulate" />
    </g>
    <rect
       ry="19.834579"
       rx="20.552269"
       y="924.86804"
       x="0.52710891"
       height="123.6298"
       width="124.14474"
       id="rect3851"
       style="color:#000000;fill:none;stroke:#cbcdd0;stroke-width:1.00400233;stroke-linecap:round;stroke-linejoin:round;stroke-miterlimit:4;stroke-opacity:1;stroke-dasharray:none;stroke-dashoffset:0;marker:none;visibility:visible;display:inline;overflow:visible;enable-background:accumulate" />
  </g>
  <g
     inkscape:groupmode="layer"
     id="layer2"
     inkscape:label="outline"
     style="display:inline">
    <path
       sodipodi:nodetypes="ccccccccccccccccsscssccccscccccccsccccsscsscc"
       inkscape:connector-curvature="0"
       id="path4061"
       d="m 35.90625,8.03125 0,11.9375 20.1875,0 0,-11.9375 z m 36.125,0 0,11.9375 20.15625,0 0,-11.9375 z m -12.96875,15.9375 0,32.039513 9.84375,0 0,-32.039513 z m 12.96875,0 0,38.03125 c 0,1.804 2.572,3.25 4.375,3.25 l 3.53125,0 0,43.625 c 0,1.742 1.39825,3.15625 3.15625,3.15625 l 1.25,0 0,3.96875 31.59375,0 0,-3.96875 0.90625,0 c 1.76,0 3.15625,-1.41425 3.15625,-3.15625 l 0.0625,-35.65625 -20.1875,-49.25 z m -43.875,0.0625 -20.25,49.25 0.0625,35.59375 c 0,1.742 1.0997495,3.1875 2.84375,3.1875 l 1.59375,0 0,3.9375 31.4375,0 0,-3.9375 1,0 c 1.774,0 3.21875,-1.4455 3.21875,-3.1875 l 0,-43.59375 3.53125,0 c 1.804,0 4.40625,-1.446 4.40625,-3.25 l 0,-38 z"
       style="display:inline;color:#000000;fill:none;fill-opacity:1;fill-rule:nonzero;stroke:#ffffff;stroke-width:2;marker:none;visibility:visible;overflow:visible;enable-background:accumulate;stroke-linecap:round;stroke-linejoin:round;stroke-miterlimit:4;stroke-opacity:1;stroke-dasharray:none;stroke-dashoffset:0" />
  </g>
  <g
     inkscape:groupmode="layer"
     id="layer3"
     inkscape:label="icon"
     style="display:inline">
    <path
       style="color:#000000;fill:url(#linearGradient3103-1);fill-opacity:1;fill-rule:nonzero;stroke:none;stroke-width:9.3633728;marker:none;visibility:visible;display:inline;overflow:visible;enable-background:accumulate"
       d="m 35.90625,8.03125 0,11.9375 20.1875,0 0,-11.9375 z m 36.125,0 0,11.9375 20.15625,0 0,-11.9375 z m -12.96875,15.9375 0,32.039513 9.84375,0 0,-32.039513 z m 12.96875,0 0,38.03125 c 0,1.804 2.572,3.25 4.375,3.25 l 3.53125,0 0,43.625 c 0,1.742 1.39825,3.15625 3.15625,3.15625 l 1.25,0 0,3.96875 31.59375,0 0,-3.96875 0.90625,0 c 1.76,0 3.15625,-1.41425 3.15625,-3.15625 l 0.0625,-35.65625 -20.1875,-49.25 z m -43.875,0.0625 -20.25,49.25 0.0625,35.59375 c 0,1.742 1.0997495,3.1875 2.84375,3.1875 l 1.59375,0 0,3.9375 31.4375,0 0,-3.9375 1,0 c 1.774,0 3.21875,-1.4455 3.21875,-3.1875 l 0,-43.59375 3.53125,0 c 1.804,0 4.40625,-1.446 4.40625,-3.25 l 0,-38 z"
       id="path5034"
       inkscape:connector-curvature="0"
       sodipodi:nodetypes="ccccccccccccccccsscssccccscccccccsccccsscsscc" />
    <g
       id="g3272"
       mask="url(#mask4046)">
      <path
         sodipodi:nodetypes="cccccccccccccccccccccccccccccccccscccccccssccccccccccc"
         inkscape:connector-curvature="0"
         id="path3229"
         d="m 35.90625,8.03125 0,11.9375 4,0 0,-7.9375 16.1875,0 0,-4 z m 36.125,0 0,11.9375 4,0 0,-7.9375 16.15625,0 0,-4 z m -12.96875,15.9375 0.0024,32.046098 3.997632,0 0,-28.046098 5.84375,0 0,-4 z m 12.96875,0 0,38.03125 c 0,1.686385 2.23409,3.046816 4,3.21875 l 0,-37.25 25.46875,0 -1.625,-4 -3.6875,0 -20.15625,0 z m -43.875,0.0625 -20.25,49.25 0.0625,35.59375 c 0,1.742 1.0997495,3.1875 2.84375,3.1875 l 1.15625,0 -0.0625,-34.78125 20.25,-49.25 23.84375,0 0,-4 z m 51.78125,41.1875 0,43.65625 c 0,1.742 1.39825,3.15625 3.15625,3.15625 l 0.84375,0 0,-42.78125 z m 4.40625,46.80932 0,3.97193 2.4375,0 z m -71.9375,0.0355 0,3.93644 1.78125,0 z"
         style="color:#000000;fill:#141414;fill-opacity:0.73170734;fill-rule:nonzero;stroke:none;stroke-width:0.96344244;marker:none;visibility:visible;display:inline;overflow:visible;filter:url(#filter3822-9-6-4-3-9-8-7-5-5-1);enable-background:accumulate" />
      <path
         sodipodi:nodetypes="ccccccccccccccccccccccccsccccccscccccccsscscccsscsscccccsccccsccccsccc"
         inkscape:connector-curvature="0"
         id="path3257"
         d="m 52.09375,8.03125 0,7.9375 -16.1875,0 0,4 20.1875,0 0,-11.9375 z m 36.09375,0 0,7.9375 -16.15625,0 0,4 20.15625,0 0,-11.9375 z m -23.28125,15.9375 0,28.03125 -5.84375,0 0,4 9.836054,0 0,-32.03125 z m 19.4375,92.0312 31.59375,0 0,-3.96875 0.90625,0 c 1.76,0 3.15625,-1.41425 3.15625,-3.15625 l 0.0625,-35.65625 -20.1875,-49.25 -2.375,5e-5 18.5625,45.25 L 116,104.875 c 0,1.742 -1.39625,3.15625 -3.15625,3.15625 l -0.90625,0 0,3.96875 -27.60708,0.0312 z m -71.9375,5e-5 31.4375,0 0,-3.9375 1,0 c 1.774,0 3.21875,-1.4455 3.21875,-3.1875 l 0,-43.59375 3.53125,0 c 1.804,0 4.40625,-1.446 4.40625,-3.25 l -0.02481,-38 -3.97519,0 0,34 c 0,1.804 -2.60225,3.25 -4.40625,3.25 l -3.53125,0 0,43.59375 c 0,1.742 -1.44475,3.1875 -3.21875,3.1875 l -1,0 0,3.9375 -27.441406,0.0547 z m 59.625,-54.78125 0,0.78125 c 0,1.657192 1.598202,3.878451 7.90625,3.21875 l -4,-3.96875 z m 7.90625,46.8125 0,0.84375 c 0,2.48953 1.767847,3.45463 4.390625,3.14062 l -3.984375,-3.98437 z m -71.96875,0.0312 0,0.8125 c 0,2.77842 2.0177367,3.52813 4.426024,3.18442 L 8.40625,108.06245 z"
         style="color:#000000;fill:#ffffff;fill-opacity:0.39430895;fill-rule:nonzero;stroke:none;stroke-width:0.96344244;marker:none;visibility:visible;display:inline;overflow:visible;filter:url(#filter3822-2-7-6-8-3-1-3-7-8-1);enable-background:accumulate" />
    </g>
  </g>
</svg>
