<?xml version="1.0" encoding="UTF-8" standalone="no"?>
<!-- Created with Inkscape (http://www.inkscape.org/) -->

<svg
   width="128"
   height="128"
   id="svg2"
   version="1.1"
   inkscape:version="1.3.2 (1:1.3.2+202311252150+091e20ef0f)"
   sodipodi:docname="invoice.svg"
   inkscape:export-filename="invoice_12.png"
   inkscape:export-xdpi="9"
   inkscape:export-ydpi="9"
   xmlns:inkscape="http://www.inkscape.org/namespaces/inkscape"
   xmlns:sodipodi="http://sodipodi.sourceforge.net/DTD/sodipodi-0.dtd"
   xmlns:xlink="http://www.w3.org/1999/xlink"
   xmlns="http://www.w3.org/2000/svg"
   xmlns:svg="http://www.w3.org/2000/svg"
   xmlns:rdf="http://www.w3.org/1999/02/22-rdf-syntax-ns#"
   xmlns:cc="http://creativecommons.org/ns#"
   xmlns:dc="http://purl.org/dc/elements/1.1/">
  <defs
     id="defs4">
    <linearGradient
       id="linearGradient3843">
      <stop
         style="stop-color:#f9f9fa;stop-opacity:1;"
         offset="0"
         id="stop3845" />
      <stop
         style="stop-color:#efeff0;stop-opacity:1;"
         offset="1"
         id="stop3847" />
    </linearGradient>
    <filter
       inkscape:collect="always"
       id="filter3784"
       x="-0.014414414"
       y="-0.014414414"
       width="1.0288288"
       height="1.0288288">
      <feGaussianBlur
         inkscape:collect="always"
         stdDeviation="0.74109996"
         id="feGaussianBlur3786" />
    </filter>
    <filter
       inkscape:collect="always"
       id="filter3835"
       x="-0.11912061"
       width="1.2382412"
       y="-0.11871791"
       height="1.2374358">
      <feGaussianBlur
         inkscape:collect="always"
         stdDeviation="5.9436221"
         id="feGaussianBlur3837" />
    </filter>
    <filter
       inkscape:collect="always"
       id="filter3839"
       x="-0.090019872"
       y="-0.090160418"
       width="1.1800397"
       height="1.1803208">
      <feGaussianBlur
         inkscape:collect="always"
         stdDeviation="4.5115428"
         id="feGaussianBlur3841" />
    </filter>
    <linearGradient
       inkscape:collect="always"
       xlink:href="#linearGradient3843"
       id="linearGradient3849"
       x1="14.267717"
       y1="932.53717"
       x2="86.410866"
       y2="1016.1086"
       gradientUnits="userSpaceOnUse"
       gradientTransform="matrix(1.0053339,0,0,1.0018993,-0.72929012,-2.0155734)" />
    <mask
       maskUnits="userSpaceOnUse"
       id="mask3859">
      <rect
         ry="19.796612"
         rx="20.427839"
         y="925.12628"
         x="1.2320045"
         height="123.39314"
         width="123.39314"
         id="rect3861"
         style="color:#000000;fill:#ffffff;fill-opacity:1;stroke:none;stroke-width:0.96400887;marker:none;visibility:visible;display:inline;overflow:visible;enable-background:accumulate" />
    </mask>
    <filter
       color-interpolation-filters="sRGB"
       inkscape:collect="always"
       id="filter3822-9-9-4"
       x="-0.071293837"
       y="-0.059146058"
       width="1.1425877"
       height="1.1182921">
      <feGaussianBlur
         inkscape:collect="always"
         stdDeviation="2.8610366"
         id="feGaussianBlur3824-5-7-9" />
    </filter>
    <filter
       color-interpolation-filters="sRGB"
       inkscape:collect="always"
       id="filter3822-2-0"
       x="-0.07319374"
       y="-0.059146058"
       width="1.1463875"
       height="1.1182921">
      <feGaussianBlur
         inkscape:collect="always"
         stdDeviation="2.8610366"
         id="feGaussianBlur3824-4-2" />
    </filter>
    <mask
       maskUnits="userSpaceOnUse"
       id="mask3117">
      <path
         style="font-size:144.72203064px;font-style:normal;font-variant:normal;font-weight:bold;font-stretch:normal;line-height:125%;letter-spacing:0px;word-spacing:0px;fill:#ffffff;fill-opacity:1;stroke:none;font-family:AlArabiya;-inkscape-font-specification:AlArabiya Bold"
         d="m 43.96875,4 0,13.71875 c -6.110711,1.151991 -11.378112,2.979709 -15.78125,5.5 -8.045737,4.597603 -12.062512,10.916448 -12.0625,18.90625 -1.2e-5,10.623459 8.299862,17.415673 24.90625,20.40625 l 2.9375,0.53125 0,33.0625 C 39.948883,94.943544 36.852703,93.452867 34.65625,91.65625 32.145957,89.558363 30.344192,87.405941 29.25,85.21875 28.155758,83.0316 27.593726,80.736264 27.59375,78.28125 l 0,-0.6875 -15.34375,0 c 0.06436,4.776092 1.15717,9.013967 3.28125,12.71875 2.188422,3.704816 4.93608,6.674457 8.21875,8.90625 3.282631,2.18718 7.18187,4.00914 11.6875,5.4375 2.889743,0.91611 5.72091,1.59448 8.53125,2.125 l 0,13.21875 12.09375,0 0,-11.84375 c 2.065177,0.10847 4.169096,0.1875 6.3125,0.1875 1.954496,0 3.846299,-0.0447 5.6875,-0.125 l 0,11.875 11.96875,0 0,-13.0625 c 0.882862,-0.14823 1.744422,-0.32715 2.59375,-0.5 5.985931,-1.16054 10.772294,-2.66992 14.3125,-4.5 3.60439,-1.87471 6.55773,-4.045004 8.875,-6.5 2.31706,-2.454971 3.88189,-4.817288 4.71875,-7.09375 0.90101,-2.276421 1.34364,-4.603012 1.34375,-6.96875 -1.1e-4,-5.445582 -2.33266,-10.049642 -7.03125,-13.84375 -4.63443,-3.838669 -11.281328,-6.549303 -19.90625,-8.15625 l -4.90625,-0.90625 0,-30 c 1.388628,0.522608 2.673787,1.114816 3.84375,1.78125 5.40664,3.079968 8.183681,7.492003 8.3125,13.25 l 15.34375,0 C 107.40241,34.934405 103.29749,28.213647 95.1875,23.4375 91.000707,20.971948 85.937204,19.159484 80.03125,17.96875 l 0,-13.875 -11.96875,0 0,12.375 c -2.207749,-0.127431 -4.495724,-0.187485 -6.875,-0.1875 -1.760103,1.1e-5 -3.457743,0.01934 -5.125,0.09375 L 56.0625,4 43.96875,4 z M 60.625,25.71875 c 2.647585,2.1e-5 5.114286,0.100554 7.4375,0.3125 l 0,30.28125 -12,-2.25 0,-28.1875 c 1.468485,-0.0931 2.979576,-0.156235 4.5625,-0.15625 z m -16.65625,2.375 0,23.28125 C 40.929591,50.4784 38.550745,49.509832 36.875,48.46875 33.785414,46.549454 32.249971,43.89241 32.25,40.5 c -2.9e-5,-4.463547 2.569458,-8.040507 7.71875,-10.71875 1.237289,-0.646158 2.5742,-1.194684 4,-1.6875 z m 12.09375,37.1875 12,2.1875 0,30.90625 c -1.492047,0.07127 -3.012672,0.125002 -4.625,0.125 -2.582085,3e-6 -5.060271,-0.102249 -7.375,-0.28125 l 0,-32.9375 z m 23.96875,4.65625 c 4.205045,1.130074 7.516347,2.463483 9.9375,3.96875 3.797489,2.321109 5.687409,5.237157 5.6875,8.71875 -9.1e-5,1.428375 -0.205781,2.799328 -0.65625,4.09375 -0.450651,1.294472 -1.396543,2.669892 -2.8125,4.1875 -1.416133,1.473014 -3.276668,2.772489 -5.59375,3.84375 -1.695618,0.806291 -3.879773,1.495895 -6.5625,2.09375 l 0,-26.90625 z"
         id="path3119"
         inkscape:connector-curvature="0" />
    </mask>
  </defs>
  <sodipodi:namedview
     id="base"
     pagecolor="#ffffff"
     bordercolor="#666666"
     borderopacity="1.0"
     inkscape:pageopacity="0"
     inkscape:pageshadow="2"
     inkscape:zoom="5.6"
     inkscape:cx="44.375"
     inkscape:cy="60.625"
     inkscape:document-units="px"
     inkscape:current-layer="layer2"
     showgrid="true"
     inkscape:window-width="1868"
     inkscape:window-height="1016"
     inkscape:window-x="52"
     inkscape:window-y="27"
     inkscape:window-maximized="1"
     showguides="true"
     inkscape:guide-bbox="true"
     inkscape:snap-global="false"
     inkscape:showpageshadow="2"
     inkscape:pagecheckerboard="0"
     inkscape:deskcolor="#d1d1d1">
    <inkscape:grid
       type="xygrid"
       id="grid3901"
       empspacing="4"
       visible="true"
       enabled="true"
       snapvisiblegridlinesonly="true"
       dotted="false"
       originx="0"
       originy="0"
       spacingy="1"
       spacingx="1"
       units="px" />
    <sodipodi:guide
       orientation="0,1"
       position="82.074894,122.481"
       id="guide3803"
       inkscape:locked="false" />
    <sodipodi:guide
       orientation="1,0"
       position="5.5,70.963216"
       id="guide3805"
       inkscape:locked="false" />
    <sodipodi:guide
       orientation="1,0"
       position="120,22.728432"
       id="guide3807"
       inkscape:locked="false" />
    <sodipodi:guide
       orientation="0,1"
       position="-33.335,8"
       id="guide3811"
       inkscape:locked="false" />
  </sodipodi:namedview>
  <metadata
     id="metadata7">
    <rdf:RDF>
      <cc:Work
         rdf:about="">
        <dc:format>image/svg+xml</dc:format>
        <dc:type
           rdf:resource="http://purl.org/dc/dcmitype/StillImage" />
        <cc:license
           rdf:resource="http://creativecommons.org/licenses/by-sa/4.0/" />
      </cc:Work>
      <cc:License
         rdf:about="http://creativecommons.org/licenses/by-sa/4.0/">
        <cc:permits
           rdf:resource="http://creativecommons.org/ns#Reproduction" />
        <cc:permits
           rdf:resource="http://creativecommons.org/ns#Distribution" />
        <cc:requires
           rdf:resource="http://creativecommons.org/ns#Notice" />
        <cc:requires
           rdf:resource="http://creativecommons.org/ns#Attribution" />
        <cc:permits
           rdf:resource="http://creativecommons.org/ns#DerivativeWorks" />
        <cc:requires
           rdf:resource="http://creativecommons.org/ns#ShareAlike" />
      </cc:License>
    </rdf:RDF>
  </metadata>
  <g
     inkscape:label="base"
     inkscape:groupmode="layer"
     id="layer1"
     transform="translate(0,-924.36218)"
     style="display:none"
     sodipodi:insensitive="true">
    <rect
       ry="19.796612"
       rx="20.427839"
       y="927.12628"
       x="3.2320046"
       height="123.39314"
       width="123.39314"
       id="rect3766"
       style="color:#000000;display:inline;overflow:visible;visibility:visible;fill:#252628;fill-opacity:0.128617;stroke:none;stroke-width:0.964009;marker:none;filter:url(#filter3784);enable-background:accumulate"
       transform="matrix(1.0053339,0,0,1.0018993,-0.72929012,-2.0155734)" />
    <rect
       style="color:#000000;display:inline;overflow:visible;visibility:visible;fill:url(#linearGradient3849);fill-opacity:1;stroke:none;stroke-width:0.964009;marker:none;enable-background:accumulate"
       id="rect2985"
       width="124.05131"
       height="123.6275"
       x="0.50928575"
       y="924.8678"
       rx="20.536798"
       ry="19.834211" />
    <g
       id="g3853"
       mask="url(#mask3859)"
       transform="matrix(1.0053339,0,0,1.0018993,-0.72929012,-2.0155734)">
      <path
         sodipodi:nodetypes="csssscccsssscc"
         inkscape:connector-curvature="0"
         id="rect3788"
         transform="translate(0,924.36218)"
         d="m 111.3125,2 c 1.0638,2.3966046 2.03056,5.049628 1.65625,7.8125 l -10,73.8125 c -1.47238,10.868035 -9.195281,18.23558 -20.40625,19.78125 l -72.53125,10 C 7.534242,113.75052 5.0997184,112.93384 2.875,112.125 c 0.7713464,1.76264 1.7621331,3.38896 3,4.84375 0.010886,0.01 0.020343,0.0216 0.03125,0.0312 3.6235707,3.20066 8.436326,5.15625 13.75,5.15625 h 82.53125 c 11.31702,0 20.4375,-8.81393 20.4375,-19.78125 v -83.8125 c 0,-4.877214 -1.80986,-9.3136525 -4.8125,-12.75 C 115.92993,4.1823291 113.729,2.8665963 111.3125,2 Z"
         style="color:#000000;display:inline;overflow:visible;visibility:visible;fill:#c9c9cf;fill-opacity:0.254019;stroke:none;stroke-width:0.964009;marker:none;filter:url(#filter3835);enable-background:accumulate" />
      <path
         sodipodi:nodetypes="sssccsssscccss"
         inkscape:connector-curvature="0"
         id="rect3796"
         transform="translate(0,924.36218)"
         d="m 23.65625,2.75 c -11.317023,0 -20.4375,8.845177 -20.4375,19.8125 v 83.8125 c 0,4.8505 1.7783223,9.26046 4.75,12.6875 1.8502957,1.61847 4.000429,2.9035 6.375,3.78125 -0.720661,-2.02308 -1.488357,-4.23372 -1.125,-6.46875 l 12,-73.8125 C 26.978647,31.737301 34.451287,24.338652 45.65625,22.75 l 70.53125,-10 c 2.55597,-0.362388 5.0458,0.494454 7.3125,1.34375 -0.82375,-2.321834 -2.0613,-4.4443488 -3.65625,-6.28125 -0.0281,-0.024504 -0.0655,-0.038145 -0.0937,-0.0625 -3.60314,-3.110944 -8.3402,-5 -13.5625,-5 z"
         style="color:#000000;display:inline;overflow:visible;visibility:visible;fill:#ffffff;fill-opacity:1;stroke:none;stroke-width:0.964009;marker:none;filter:url(#filter3839);enable-background:accumulate" />
    </g>
    <rect
       ry="19.834211"
       rx="20.536798"
       y="924.8678"
       x="0.50928575"
       height="123.6275"
       width="124.05131"
       id="rect3851"
       style="color:#000000;display:inline;overflow:visible;visibility:visible;fill:none;stroke:#cbcdd0;stroke-width:1.00362;stroke-linecap:round;stroke-linejoin:round;stroke-miterlimit:4;stroke-dasharray:none;stroke-dashoffset:0;stroke-opacity:1;marker:none;enable-background:accumulate" />
  </g>
  <g
     inkscape:groupmode="layer"
     id="layer2"
     inkscape:label="outline">
    <path
       style="display:inline;font-size:144.72203064000001405px;font-style:normal;font-variant:normal;font-weight:bold;font-stretch:normal;line-height:125%;letter-spacing:0px;word-spacing:0px;color:#000000;fill:none;stroke:#ffffff;stroke-width:2;stroke-linecap:round;stroke-linejoin:round;stroke-miterlimit:4;stroke-opacity:1;stroke-dasharray:none;stroke-dashoffset:0;marker:none;visibility:visible;overflow:visible;enable-background:accumulate;font-family:AlArabiya;-inkscape-font-specification:AlArabiya Bold"
       d="m 43.96875,4 0,13.71875 c -6.110711,1.151991 -11.378112,2.979709 -15.78125,5.5 -8.045737,4.597603 -12.062512,10.916448 -12.0625,18.90625 -1.2e-5,10.623459 8.299862,17.415673 24.90625,20.40625 l 2.9375,0.53125 0,33.0625 C 39.948883,94.943544 36.852703,93.452867 34.65625,91.65625 32.145957,89.558363 30.344192,87.405941 29.25,85.21875 28.155758,83.0316 27.593726,80.736264 27.59375,78.28125 l 0,-0.6875 -15.34375,0 c 0.06436,4.776092 1.15717,9.013967 3.28125,12.71875 2.188422,3.704816 4.93608,6.674457 8.21875,8.90625 3.282631,2.18718 7.18187,4.00914 11.6875,5.4375 2.889743,0.91611 5.72091,1.59448 8.53125,2.125 l 0,13.21875 12.09375,0 0,-11.84375 c 2.065177,0.10847 4.169096,0.1875 6.3125,0.1875 1.954496,0 3.846299,-0.0447 5.6875,-0.125 l 0,11.875 11.96875,0 0,-13.0625 c 0.882862,-0.14823 1.744422,-0.32715 2.59375,-0.5 5.985931,-1.16054 10.772294,-2.66992 14.3125,-4.5 3.60439,-1.87471 6.55773,-4.045004 8.875,-6.5 2.31706,-2.454971 3.88189,-4.817288 4.71875,-7.09375 0.90101,-2.276421 1.34364,-4.603012 1.34375,-6.96875 -1.1e-4,-5.445582 -2.33266,-10.049642 -7.03125,-13.84375 -4.63443,-3.838669 -11.281328,-6.549303 -19.90625,-8.15625 l -4.90625,-0.90625 0,-30 c 1.388628,0.522608 2.673787,1.114816 3.84375,1.78125 5.40664,3.079968 8.183681,7.492003 8.3125,13.25 l 15.34375,0 C 107.40241,34.934405 103.29749,28.213647 95.1875,23.4375 91.000707,20.971948 85.937204,19.159484 80.03125,17.96875 l 0,-13.875 -11.96875,0 0,12.375 c -2.207749,-0.127431 -4.495724,-0.187485 -6.875,-0.1875 -1.760103,1.1e-5 -3.457743,0.01934 -5.125,0.09375 L 56.0625,4 43.96875,4 z M 60.625,25.71875 c 2.647585,2.1e-5 5.114286,0.100554 7.4375,0.3125 l 0,30.28125 -12,-2.25 0,-28.1875 c 1.468485,-0.0931 2.979576,-0.156235 4.5625,-0.15625 z m -16.65625,2.375 0,23.28125 C 40.929591,50.4784 38.550745,49.509832 36.875,48.46875 33.785414,46.549454 32.249971,43.89241 32.25,40.5 c -2.9e-5,-4.463547 2.569458,-8.040507 7.71875,-10.71875 1.237289,-0.646158 2.5742,-1.194684 4,-1.6875 z m 12.09375,37.1875 12,2.1875 0,30.90625 c -1.492047,0.07127 -3.012672,0.125002 -4.625,0.125 -2.582085,3e-6 -5.060271,-0.102249 -7.375,-0.28125 l 0,-32.9375 z m 23.96875,4.65625 c 4.205045,1.130074 7.516347,2.463483 9.9375,3.96875 3.797489,2.321109 5.687409,5.237157 5.6875,8.71875 -9.1e-5,1.428375 -0.205781,2.799328 -0.65625,4.09375 -0.450651,1.294472 -1.396543,2.669892 -2.8125,4.1875 -1.416133,1.473014 -3.276668,2.772489 -5.59375,3.84375 -1.695618,0.806291 -3.879773,1.495895 -6.5625,2.09375 l 0,-26.90625 z"
       id="path3132"
       inkscape:connector-curvature="0" />
  </g>
  <g
     inkscape:groupmode="layer"
     id="layer4"
     inkscape:label="icon"
     style="display:inline">
    <path
       inkscape:connector-curvature="0"
       id="path3808"
       d="m 43.96875,4 0,13.71875 c -6.110711,1.151991 -11.378112,2.979709 -15.78125,5.5 -8.045737,4.597603 -12.062512,10.916448 -12.0625,18.90625 -1.2e-5,10.623459 8.299862,17.415673 24.90625,20.40625 l 2.9375,0.53125 0,33.0625 C 39.948883,94.943544 36.852703,93.452867 34.65625,91.65625 32.145957,89.558363 30.344192,87.405941 29.25,85.21875 28.155758,83.0316 27.593726,80.736264 27.59375,78.28125 l 0,-0.6875 -15.34375,0 c 0.06436,4.776092 1.15717,9.013967 3.28125,12.71875 2.188422,3.704816 4.93608,6.674457 8.21875,8.90625 3.282631,2.18718 7.18187,4.00914 11.6875,5.4375 2.889743,0.91611 5.72091,1.59448 8.53125,2.125 l 0,13.21875 12.09375,0 0,-11.84375 c 2.065177,0.10847 4.169096,0.1875 6.3125,0.1875 1.954496,0 3.846299,-0.0447 5.6875,-0.125 l 0,11.875 11.96875,0 0,-13.0625 c 0.882862,-0.14823 1.744422,-0.32715 2.59375,-0.5 5.985931,-1.16054 10.772294,-2.66992 14.3125,-4.5 3.60439,-1.87471 6.55773,-4.045004 8.875,-6.5 2.31706,-2.454971 3.88189,-4.817288 4.71875,-7.09375 0.90101,-2.276421 1.34364,-4.603012 1.34375,-6.96875 -1.1e-4,-5.445582 -2.33266,-10.049642 -7.03125,-13.84375 -4.63443,-3.838669 -11.281328,-6.549303 -19.90625,-8.15625 l -4.90625,-0.90625 0,-30 c 1.388628,0.522608 2.673787,1.114816 3.84375,1.78125 5.40664,3.079968 8.183681,7.492003 8.3125,13.25 l 15.34375,0 C 107.40241,34.934405 103.29749,28.213647 95.1875,23.4375 91.000707,20.971948 85.937204,19.159484 80.03125,17.96875 l 0,-13.875 -11.96875,0 0,12.375 c -2.207749,-0.127431 -4.495724,-0.187485 -6.875,-0.1875 -1.760103,1.1e-5 -3.457743,0.01934 -5.125,0.09375 L 56.0625,4 43.96875,4 z M 60.625,25.71875 c 2.647585,2.1e-5 5.114286,0.100554 7.4375,0.3125 l 0,30.28125 -12,-2.25 0,-28.1875 c 1.468485,-0.0931 2.979576,-0.156235 4.5625,-0.15625 z m -16.65625,2.375 0,23.28125 C 40.929591,50.4784 38.550745,49.509832 36.875,48.46875 33.785414,46.549454 32.249971,43.89241 32.25,40.5 c -2.9e-5,-4.463547 2.569458,-8.040507 7.71875,-10.71875 1.237289,-0.646158 2.5742,-1.194684 4,-1.6875 z m 12.09375,37.1875 12,2.1875 0,30.90625 c -1.492047,0.07127 -3.012672,0.125002 -4.625,0.125 -2.582085,3e-6 -5.060271,-0.102249 -7.375,-0.28125 l 0,-32.9375 z m 23.96875,4.65625 c 4.205045,1.130074 7.516347,2.463483 9.9375,3.96875 3.797489,2.321109 5.687409,5.237157 5.6875,8.71875 -9.1e-5,1.428375 -0.205781,2.799328 -0.65625,4.09375 -0.450651,1.294472 -1.396543,2.669892 -2.8125,4.1875 -1.416133,1.473014 -3.276668,2.772489 -5.59375,3.84375 -1.695618,0.806291 -3.879773,1.495895 -6.5625,2.09375 l 0,-26.90625 z"
       style="font-size:144.72203064px;font-style:normal;font-variant:normal;font-weight:bold;font-stretch:normal;line-height:125%;letter-spacing:0px;word-spacing:0px;fill:#686868;fill-opacity:1;stroke:none;font-family:AlArabiya;-inkscape-font-specification:AlArabiya Bold" />
    <g
       id="g3111"
       mask="url(#mask3117)">
      <path
         sodipodi:nodetypes="cccscscccccccccccccccccccccccccccccccccccccccccccccccccccccccccsccscccccccccscccccccccccccccccccccccc"
         inkscape:connector-curvature="0"
         id="path3068"
         d="m 43.96875,4 0,13.71875 c -6.110711,1.151991 -11.378112,2.979709 -15.78125,5.5 -8.045737,4.597603 -12.062512,10.916448 -12.0625,18.90625 -6e-6,5.600317 2.323408,10.118525 6.9375,13.59375 -1.961762,-2.747586 -2.937504,-5.941936 -2.9375,-9.59375 -1.2e-5,-7.989802 4.016763,-14.308647 12.0625,-18.90625 4.403138,-2.520291 9.670539,-4.348009 15.78125,-5.5 l 0,-13.71875 8.09375,0 0,-4 z m 24.09375,0.09375 0,12.375 c -2.207749,-0.127431 -4.495724,-0.187485 -6.875,-0.1875 -0.381654,2e-6 -4.64745,-0.09689 -5.134043,0.06313 L 60.0625,20.375 c 1.667257,-0.07441 3.364897,-0.09374 5.125,-0.09375 2.379276,1.5e-5 4.667251,0.06007 6.875,0.1875 l 0,-12.375 7.96875,0 0,-4 z m 11.90625,13.875 4.0625,4 c 5.905954,1.190734 10.969457,3.003198 15.15625,5.46875 1.37625,0.810501 2.60428,1.702529 3.75,2.625 -1.95986,-2.512532 -4.526412,-4.72656 -7.75,-6.625 C 91.977633,21.547248 85.109247,18.631886 79.96875,17.96875 z M 68.041301,26.028542 68.0625,56.3125 56.053457,54.070669 60.0625,58.0625 l 12,2.25 0,-30.28125 z m -20.072551,6.065208 -4,-4.010392 0,23.291642 c -2.851066,-0.84111 -5.096477,-1.750519 -6.75,-2.71875 0.763402,1.486446 1.970186,2.765092 3.65625,3.8125 1.675745,1.041082 4.054591,2.00965 7.09375,2.90625 z M 89.6875,35.5 c 1.589387,2.315824 2.430918,5.005912 2.5,8.09375 l 3.4375,0 C 94.716718,40.354294 92.726452,37.658557 89.6875,35.5 z m -9.665293,23.070669 4.009043,3.991831 4.90625,0.90625 c 8.457941,1.575836 15.00389,4.215973 19.625,7.9375 -1.00722,-1.344816 -2.25044,-2.595591 -3.71875,-3.78125 -4.63443,-3.838669 -11.281328,-6.549303 -19.90625,-8.15625 z m -36.053457,4.460581 0,33.09375 c -3.836102,-1.127447 -6.825408,-2.530964 -9,-4.21875 0.985989,1.266418 2.212394,2.517233 3.6875,3.75 2.196453,1.796617 5.292633,3.287294 9.3125,4.46875 l 0,-33.0625 z m 24.09375,4.4375 0,30.90625 c -1.492047,0.07127 -3.012672,0.125002 -4.625,0.125 -1.152373,10e-7 -6.246786,-0.213438 -7.352476,-0.251904 l 3.977476,3.970654 c 2.314729,0.179 4.792915,0.28125 7.375,0.28125 1.612328,0 3.132953,-0.0537 4.625,-0.125 l 0,-30.90625 z M 12.25,77.59375 c 0.06436,4.776092 1.15717,9.013967 3.28125,12.71875 1.804556,3.054963 3.979768,5.602554 6.53125,7.65625 C 21.146208,96.83938 20.307794,95.627125 19.53125,94.3125 17.40717,90.607717 16.31436,86.369842 16.25,81.59375 l 11.71875,0 c -0.239656,-1.076866 -0.375011,-2.171859 -0.375,-3.3125 l 0,-0.6875 z M 94.46875,78.25 c 0.779569,1.343921 1.187459,2.795551 1.1875,4.375 -9.1e-5,1.428375 -0.205781,2.799328 -0.65625,4.09375 -0.450651,1.294472 -1.396543,2.669892 -2.8125,4.1875 -1.416133,1.473014 -3.276668,2.772489 -5.59375,3.84375 -0.752155,0.35766 -5.626254,1.854073 -6.571543,2.167989 l 4.009043,3.925761 c 2.682727,-0.59785 4.866882,-1.287459 6.5625,-2.09375 2.317082,-1.071261 4.177617,-2.370736 5.59375,-3.84375 1.415957,-1.517608 2.361849,-2.893028 2.8125,-4.1875 0.450469,-1.294422 0.656159,-2.665375 0.65625,-4.09375 -8.7e-5,-3.318676 -1.737843,-6.109492 -5.1875,-8.375 z m -50.5,28.48358 0,13.26642 4,0 0,-9.21875 z m 28.09375,5.48517 -4,-4.00999 0,11.88499 4,0 z"
         style="font-size:144.72203064px;font-style:normal;font-variant:normal;font-weight:bold;font-stretch:normal;line-height:125%;letter-spacing:0px;word-spacing:0px;color:#000000;fill:#141414;fill-opacity:0.73170734;fill-rule:nonzero;stroke:none;stroke-width:1.12298417;marker:none;visibility:visible;display:inline;overflow:visible;filter:url(#filter3822-9-9-4);enable-background:accumulate;font-family:AlArabiya;-inkscape-font-specification:AlArabiya Bold" />
      <path
         sodipodi:nodetypes="cccccccccccccccccccccccccccccccccccccccccccccccccccccccccccccccccccccccccccccccccccccsccccsccsccccccccsccscc"
         inkscape:connector-curvature="0"
         id="path3096"
         d="m 52.0625,4 0,8.375 4,3.978427 L 56.0625,4 z m 23.96875,0.09375 0,9.875 3.968433,4.031092 L 80.03125,4.09375 z M 56.625,21.71875 c -1.582924,1.5e-5 -3.094015,0.06315 -4.5625,0.15625 l 0,28.1875 4.126269,4.127698 L 56.0625,25.875 c 1.468485,-0.0931 2.979576,-0.156235 4.5625,-0.15625 1.183916,9e-6 6.315838,0.24229 7.430759,0.283471 L 64.0625,22.03125 c -2.323214,-0.211946 -4.789915,-0.312479 -7.4375,-0.3125 z m -16.65625,2.375 c -1.4258,0.492816 -2.762711,1.041342 -4,1.6875 C 30.819458,28.459493 28.249971,32.036453 28.25,36.5 c -2.9e-5,3.39241 1.535414,6.049454 4.625,7.96875 0.103712,0.06443 0.234662,0.123623 0.34375,0.1875 C 32.583275,43.418895 32.249987,42.041087 32.25,40.5 c -2.9e-5,-4.463547 6.520351,-9.714614 11.669643,-12.392857 z m 36.0625,0.46875 0,30 4.133929,4.098214 L 80.03125,28.5625 c 1.388628,0.522608 2.673787,1.114816 3.84375,1.78125 0.642038,0.365746 1.244656,0.752912 1.8125,1.15625 -1.374397,-2.002572 -3.305276,-3.727975 -5.8125,-5.15625 -1.169963,-0.666434 -2.455122,-1.258642 -3.84375,-1.78125 z m 22.90625,1.5 c 2.97081,3.808565 4.51612,8.313853 4.59375,13.53125 l -11.90625,0 c 0.351199,1.252579 0.530845,2.585078 0.5625,4 l 15.34375,0 C 107.42427,36.403876 104.54331,30.575995 98.9375,26.0625 z m -79.875,25.65625 c 3.619922,5.069957 12.702293,10.644532 24.924107,11.397321 L 39.96875,59.0625 37.03125,58.53125 C 29.179171,57.117201 23.201059,54.835814 19.0625,51.71875 z m 33,9.5625 0,32.9375 4.031567,4.101524 L 56.0625,65.28125 68.080357,67.553571 64.0625,63.46875 z m 23.96875,4.65625 0,26.90625 4.044643,4.084821 L 80.03125,69.9375 c 4.205045,1.130074 7.516347,2.463483 9.9375,3.96875 0.177698,0.108613 0.330654,0.232534 0.5,0.34375 -0.938841,-1.618496 -2.425268,-3.075628 -4.5,-4.34375 -2.421153,-1.505267 -5.732455,-2.838676 -9.9375,-3.96875 z m 28.53125,1.5 c 2.20554,2.953501 3.31242,6.296139 3.3125,10.03125 -1.1e-4,2.365738 -0.44274,4.692329 -1.34375,6.96875 -0.83686,2.276462 -2.40169,4.638779 -4.71875,7.09375 -2.31727,2.454996 -5.27061,4.62529 -8.875,6.5 -3.540206,1.83008 -8.326569,3.33946 -14.3125,4.5 -0.849328,0.17285 -1.710888,0.35177 -2.59375,0.5 l 0,13.0625 -7.96875,0 0,4 11.96875,0 0,-13.0625 c 0.882862,-0.14823 1.744422,-0.32715 2.59375,-0.5 5.985931,-1.16054 10.772294,-2.66992 14.3125,-4.5 3.60439,-1.87471 6.55773,-4.045004 8.875,-6.5 2.31706,-2.454971 3.88189,-4.817288 4.71875,-7.09375 0.90101,-2.276421 1.34364,-4.603012 1.34375,-6.96875 -1.1e-4,-5.445582 -2.33266,-10.049642 -7.03125,-13.84375 -0.085,-0.07042 -0.19488,-0.117839 -0.28125,-0.1875 z M 23.96875,77.59375 c 0.276158,1.240885 0.695411,2.454037 1.28125,3.625 1.094192,2.187191 2.895957,4.339613 5.40625,6.4375 0.100409,0.08213 0.208328,0.169148 0.3125,0.25 -0.691939,-0.888736 -1.26753,-1.785553 -1.71875,-2.6875 -1.094242,-2.18715 -1.656274,-4.482486 -1.65625,-6.9375 l 0,-0.6875 z m -5.90625,16.375 c 1.665961,2.053368 3.56966,3.810141 5.6875,5.25 3.282631,2.18718 7.18187,4.00914 11.6875,5.4375 1.53039,0.48517 6.666504,2.18841 8.571429,2.17411 l -4.040179,-4.04911 c -2.81034,-0.53052 -5.641507,-1.20889 -8.53125,-2.125 -4.50563,-1.42836 -8.404869,-3.25032 -11.6875,-5.4375 -0.575805,-0.391474 -1.144748,-0.813137 -1.6875,-1.25 z m 34,10.1875 0,11.84375 -8.09375,0 0,4 12.09375,0 0,-11.84375 c 2.065177,0.10847 4.169096,0.1875 6.3125,0.1875 0.57365,0 5.09756,-0.0908 5.660714,-0.0982 L 64.0625,104.2188 c -1.841201,0.0803 -3.733004,0.125 -5.6875,0.125 -2.143404,0 -4.247323,-0.079 -6.3125,-0.1875 z"
         style="font-size:144.72203064px;font-style:normal;font-variant:normal;font-weight:bold;font-stretch:normal;line-height:125%;letter-spacing:0px;word-spacing:0px;color:#000000;fill:#ffffff;fill-opacity:0.39430895;fill-rule:nonzero;stroke:none;stroke-width:1.12298417;marker:none;visibility:visible;display:inline;overflow:visible;filter:url(#filter3822-2-0);enable-background:accumulate;font-family:AlArabiya;-inkscape-font-specification:AlArabiya Bold" />
    </g>
  </g>
</svg>
