<?xml version="1.0" encoding="UTF-8" standalone="no"?>
<!-- Created with Inkscape (http://www.inkscape.org/) -->

<svg
   width="128"
   height="128"
   id="svg2"
   version="1.1"
   inkscape:version="1.3.2 (1:1.3.2+202311252150+091e20ef0f)"
   sodipodi:docname="meeting.svg"
   inkscape:export-filename="meeting_12.png"
   inkscape:export-xdpi="9"
   inkscape:export-ydpi="9"
   xmlns:inkscape="http://www.inkscape.org/namespaces/inkscape"
   xmlns:sodipodi="http://sodipodi.sourceforge.net/DTD/sodipodi-0.dtd"
   xmlns:xlink="http://www.w3.org/1999/xlink"
   xmlns="http://www.w3.org/2000/svg"
   xmlns:svg="http://www.w3.org/2000/svg"
   xmlns:rdf="http://www.w3.org/1999/02/22-rdf-syntax-ns#"
   xmlns:cc="http://creativecommons.org/ns#"
   xmlns:dc="http://purl.org/dc/elements/1.1/">
  <defs
     id="defs4">
    <linearGradient
       id="linearGradient3843">
      <stop
         style="stop-color:#f9f9fa;stop-opacity:1;"
         offset="0"
         id="stop3845" />
      <stop
         style="stop-color:#efeff0;stop-opacity:1;"
         offset="1"
         id="stop3847" />
    </linearGradient>
    <filter
       inkscape:collect="always"
       id="filter3784"
       x="-0.014414414"
       y="-0.014414414"
       width="1.0288288"
       height="1.0288288">
      <feGaussianBlur
         inkscape:collect="always"
         stdDeviation="0.74109996"
         id="feGaussianBlur3786" />
    </filter>
    <filter
       inkscape:collect="always"
       id="filter3835"
       x="-0.11912061"
       width="1.2382412"
       y="-0.11871791"
       height="1.2374358">
      <feGaussianBlur
         inkscape:collect="always"
         stdDeviation="5.9436221"
         id="feGaussianBlur3837" />
    </filter>
    <filter
       inkscape:collect="always"
       id="filter3839"
       x="-0.090019872"
       y="-0.090160418"
       width="1.1800397"
       height="1.1803208">
      <feGaussianBlur
         inkscape:collect="always"
         stdDeviation="4.5115428"
         id="feGaussianBlur3841" />
    </filter>
    <linearGradient
       inkscape:collect="always"
       xlink:href="#linearGradient3843"
       id="linearGradient3849"
       x1="14.267717"
       y1="932.53717"
       x2="86.410866"
       y2="1016.1086"
       gradientUnits="userSpaceOnUse"
       gradientTransform="matrix(1.0055443,0,0,1.0019584,-0.7580618,-2.0783094)" />
    <mask
       maskUnits="userSpaceOnUse"
       id="mask3859">
      <rect
         ry="19.796612"
         rx="20.427839"
         y="925.12628"
         x="1.2320045"
         height="123.39314"
         width="123.39314"
         id="rect3861"
         style="color:#000000;fill:#ffffff;fill-opacity:1;stroke:none;stroke-width:0.96400887;marker:none;visibility:visible;display:inline;overflow:visible;enable-background:accumulate" />
    </mask>
    <linearGradient
       id="linearGradient3834-0-2-0">
      <stop
         style="stop-color:#626262;stop-opacity:1;"
         offset="0"
         id="stop3836-1-6-0" />
      <stop
         style="stop-color:#707070;stop-opacity:1;"
         offset="1"
         id="stop3838-0-1-3" />
    </linearGradient>
    <linearGradient
       inkscape:collect="always"
       xlink:href="#linearGradient3834-0-2-0"
       id="linearGradient3847"
       gradientUnits="userSpaceOnUse"
       gradientTransform="matrix(0.86637989,0,0,0.91405868,40.96468,1.4692516)"
       x1="40.536777"
       y1="25.128338"
       x2="80.677017"
       y2="103.51447" />
    <filter
       color-interpolation-filters="sRGB"
       inkscape:collect="always"
       id="filter3822-9-9-4-4"
       x="-0.061531113"
       y="-0.068450968"
       width="1.1230622"
       height="1.1369019">
      <feGaussianBlur
         inkscape:collect="always"
         stdDeviation="2.8610366"
         id="feGaussianBlur3824-5-7-1-4" />
    </filter>
    <filter
       color-interpolation-filters="sRGB"
       inkscape:collect="always"
       id="filter3822-2-6"
       x="-54.306537"
       y="-43.945521"
       width="109.61307"
       height="88.891042">
      <feGaussianBlur
         inkscape:collect="always"
         stdDeviation="2.8610366"
         id="feGaussianBlur3824-4-1" />
    </filter>
    <mask
       maskUnits="userSpaceOnUse"
       id="mask3843">
      <path
         sodipodi:nodetypes="ccccccsssccccccsscccccccccccssssssssssssssssssssccsccscccsccsc"
         inkscape:connector-curvature="0"
         id="path3845"
         d="m 76.1875,6.53125 3.65625,5.90625 -7.3125,-3.65625 3.65625,7.34375 -3.65625,0 6.875,6.84375 c -2.035821,3.328673 -3.21875,7.24992 -3.21875,11.4375 0,12.115696 9.853058,21.875 21.96875,21.875 12.11569,0 21.90625,-9.759304 21.90625,-21.875 0,-12.115695 -9.79056,-21.96875 -21.90625,-21.96875 C 90.198097,12.292255 83.264718,9.1724641 76.1875,6.53125 z m -56.5,9.40625 -1.25,4.53125 -3.40625,-2.3125 c -1.119316,2.336864 -1.466084,5.461517 -2.8125,7.96875 -4.1021571,3.978718 -6.65625,9.554228 -6.65625,15.71875 0,12.10381 9.83369,21.9375 21.9375,21.9375 12.10381,0 21.90625,-9.83369 21.90625,-21.9375 0.1218,-5.352123 -2.470087,-11.07239 -5.5,-14.59375 l 0.8125,-6.4375 -3.375,0.5625 L 38.5,16.65625 35.15625,19.46875 33.28125,16 c -1.414707,0.876432 -2.798474,1.76556 -4.25,2.625 L 26.9375,16.0625 24.5,18.3125 z m 76.15625,16.75 c 1.946394,0 3.53125,1.584858 3.53125,3.53125 0,1.946392 -1.584856,3.53125 -3.53125,3.53125 -1.946394,0 -3.53125,-1.584858 -3.53125,-3.53125 0,-1.946392 1.584856,-3.53125 3.53125,-3.53125 z m -13.1875,0.40625 c 1.74926,0 3.15625,1.37574 3.15625,3.125 0,1.74926 -1.40699,3.1875 -3.15625,3.1875 -1.74926,0 -3.21875,-1.43824 -3.21875,-3.1875 0,-1.74926 1.46949,-3.125 3.21875,-3.125 z m -53,7.5 c 1.934709,0 3.53125,1.565293 3.53125,3.5 0,1.934707 -1.596541,3.5 -3.53125,3.5 -1.934709,0 -3.5,-1.565293 -3.5,-3.5 0,-1.934707 1.565291,-3.5 3.5,-3.5 z m 13.125,0.375 c 1.738758,0 3.1875,1.386242 3.1875,3.125 0,1.738758 -1.448742,3.15625 -3.1875,3.15625 -1.738759,0 -3.15625,-1.417492 -3.15625,-3.15625 0,-1.738758 1.417491,-3.125 3.15625,-3.125 z M 80.34375,51.625 c -3.884969,15.033143 -4.375,28.488538 -4.375,44.21875 4.587654,4.132719 12.389611,8.69904 22.21875,8.71875 10.36978,0.0207 17.09803,-3.8355 21.8125,-8.71875 0,-15.730212 -0.61066,-29.343878 -4.34375,-44.21875 -3.68971,5.275951 -11.20147,8.84375 -17.65625,8.84375 -6.467099,0 -14.058538,-3.733371 -17.65625,-8.84375 z M 10,59.40625 C 6.2893276,74.191822 5.65625,87.739221 5.65625,103.375 c 4.686171,4.85393 11.37998,8.67687 21.6875,8.65625 9.77013,-0.0196 17.533638,-4.54835 22.09375,-8.65625 0,-15.635779 -0.482104,-29.025857 -4.34375,-43.96875 -3.576113,5.079699 -11.134225,8.78125 -17.5625,8.78125 -6.416023,0 -13.863684,-3.536973 -17.53125,-8.78125 z"
         style="color:#000000;fill:#ffffff;fill-opacity:1;fill-rule:nonzero;stroke:none;stroke-width:0.96344244;marker:none;visibility:visible;display:inline;overflow:visible;enable-background:accumulate" />
    </mask>
  </defs>
  <sodipodi:namedview
     id="base"
     pagecolor="#ffffff"
     bordercolor="#666666"
     borderopacity="1.0"
     inkscape:pageopacity="0"
     inkscape:pageshadow="2"
     inkscape:zoom="6.0339778"
     inkscape:cx="60.490776"
     inkscape:cy="63.556747"
     inkscape:document-units="px"
     inkscape:current-layer="layer3"
     showgrid="true"
     inkscape:window-width="1868"
     inkscape:window-height="1016"
     inkscape:window-x="52"
     inkscape:window-y="27"
     inkscape:window-maximized="1"
     showguides="true"
     inkscape:guide-bbox="true"
     inkscape:snap-global="false"
     inkscape:showpageshadow="2"
     inkscape:pagecheckerboard="0"
     inkscape:deskcolor="#d1d1d1">
    <inkscape:grid
       type="xygrid"
       id="grid3901"
       empspacing="4"
       visible="true"
       enabled="true"
       snapvisiblegridlinesonly="true"
       dotted="false"
       originx="0"
       originy="0"
       spacingy="1"
       spacingx="1"
       units="px" />
    <sodipodi:guide
       orientation="0,1"
       position="82.074894,122.481"
       id="guide3803"
       inkscape:locked="false" />
    <sodipodi:guide
       orientation="1,0"
       position="5.5,70.963216"
       id="guide3805"
       inkscape:locked="false" />
    <sodipodi:guide
       orientation="1,0"
       position="120,22.728432"
       id="guide3807"
       inkscape:locked="false" />
    <sodipodi:guide
       orientation="0,1"
       position="-33.335,8"
       id="guide3811"
       inkscape:locked="false" />
  </sodipodi:namedview>
  <metadata
     id="metadata7">
    <rdf:RDF>
      <cc:Work
         rdf:about="">
        <dc:format>image/svg+xml</dc:format>
        <dc:type
           rdf:resource="http://purl.org/dc/dcmitype/StillImage" />
        <cc:license
           rdf:resource="http://creativecommons.org/licenses/by-sa/4.0/" />
      </cc:Work>
      <cc:License
         rdf:about="http://creativecommons.org/licenses/by-sa/4.0/">
        <cc:permits
           rdf:resource="http://creativecommons.org/ns#Reproduction" />
        <cc:permits
           rdf:resource="http://creativecommons.org/ns#Distribution" />
        <cc:requires
           rdf:resource="http://creativecommons.org/ns#Notice" />
        <cc:requires
           rdf:resource="http://creativecommons.org/ns#Attribution" />
        <cc:permits
           rdf:resource="http://creativecommons.org/ns#DerivativeWorks" />
        <cc:requires
           rdf:resource="http://creativecommons.org/ns#ShareAlike" />
      </cc:License>
    </rdf:RDF>
  </metadata>
  <g
     inkscape:label="base"
     inkscape:groupmode="layer"
     id="layer1"
     transform="translate(0,-924.36218)"
     style="display:none"
     sodipodi:insensitive="true">
    <rect
       ry="19.796612"
       rx="20.427839"
       y="927.12628"
       x="3.2320046"
       height="123.39314"
       width="123.39314"
       id="rect3766"
       style="color:#000000;display:inline;overflow:visible;visibility:visible;fill:#252628;fill-opacity:0.128617;stroke:none;stroke-width:0.964009;marker:none;filter:url(#filter3784);enable-background:accumulate"
       transform="matrix(1.0055443,0,0,1.0019584,-0.7580618,-2.0783094)" />
    <rect
       style="color:#000000;display:inline;overflow:visible;visibility:visible;fill:url(#linearGradient3849);fill-opacity:1;stroke:none;stroke-width:0.964009;marker:none;enable-background:accumulate"
       id="rect2985"
       width="124.07728"
       height="123.63479"
       x="0.48077333"
       y="924.85974"
       rx="20.541098"
       ry="19.835381" />
    <g
       id="g3853"
       mask="url(#mask3859)"
       transform="matrix(1.0055443,0,0,1.0019584,-0.7580618,-2.0783094)">
      <path
         sodipodi:nodetypes="csssscccsssscc"
         inkscape:connector-curvature="0"
         id="rect3788"
         transform="translate(0,924.36218)"
         d="m 111.3125,2 c 1.0638,2.3966046 2.03056,5.049628 1.65625,7.8125 l -10,73.8125 c -1.47238,10.868035 -9.195281,18.23558 -20.40625,19.78125 l -72.53125,10 C 7.534242,113.75052 5.0997184,112.93384 2.875,112.125 c 0.7713464,1.76264 1.7621331,3.38896 3,4.84375 0.010886,0.01 0.020343,0.0216 0.03125,0.0312 3.6235707,3.20066 8.436326,5.15625 13.75,5.15625 h 82.53125 c 11.31702,0 20.4375,-8.81393 20.4375,-19.78125 v -83.8125 c 0,-4.877214 -1.80986,-9.3136525 -4.8125,-12.75 C 115.92993,4.1823291 113.729,2.8665963 111.3125,2 Z"
         style="color:#000000;display:inline;overflow:visible;visibility:visible;fill:#c9c9cf;fill-opacity:0.254019;stroke:none;stroke-width:0.964009;marker:none;filter:url(#filter3835);enable-background:accumulate" />
      <path
         sodipodi:nodetypes="sssccsssscccss"
         inkscape:connector-curvature="0"
         id="rect3796"
         transform="translate(0,924.36218)"
         d="m 23.65625,2.75 c -11.317023,0 -20.4375,8.845177 -20.4375,19.8125 v 83.8125 c 0,4.8505 1.7783223,9.26046 4.75,12.6875 1.8502957,1.61847 4.000429,2.9035 6.375,3.78125 -0.720661,-2.02308 -1.488357,-4.23372 -1.125,-6.46875 l 12,-73.8125 C 26.978647,31.737301 34.451287,24.338652 45.65625,22.75 l 70.53125,-10 c 2.55597,-0.362388 5.0458,0.494454 7.3125,1.34375 -0.82375,-2.321834 -2.0613,-4.4443488 -3.65625,-6.28125 -0.0281,-0.024504 -0.0655,-0.038145 -0.0937,-0.0625 -3.60314,-3.110944 -8.3402,-5 -13.5625,-5 z"
         style="color:#000000;display:inline;overflow:visible;visibility:visible;fill:#ffffff;fill-opacity:1;stroke:none;stroke-width:0.964009;marker:none;filter:url(#filter3839);enable-background:accumulate" />
    </g>
    <rect
       ry="19.835381"
       rx="20.541098"
       y="924.85974"
       x="0.48077333"
       height="123.63479"
       width="124.07728"
       id="rect3851"
       style="color:#000000;display:inline;overflow:visible;visibility:visible;fill:none;stroke:#cbcdd0;stroke-width:1.00375;stroke-linecap:round;stroke-linejoin:round;stroke-miterlimit:4;stroke-dasharray:none;stroke-dashoffset:0;stroke-opacity:1;marker:none;enable-background:accumulate" />
  </g>
  <g
     inkscape:groupmode="layer"
     id="layer3"
     inkscape:label="outline"
     style="display:inline">
    <path
       sodipodi:nodetypes="ccccccsssccccccsscccccccccccssssssssssssssssssssccsccscccsccsc"
       inkscape:connector-curvature="0"
       id="path3858"
       d="m 76.1875,6.53125 3.65625,5.90625 -7.3125,-3.65625 3.65625,7.34375 -3.65625,0 6.875,6.84375 c -2.035821,3.328673 -3.21875,7.24992 -3.21875,11.4375 0,12.115696 9.853058,21.875 21.96875,21.875 12.11569,0 21.90625,-9.759304 21.90625,-21.875 0,-12.115695 -9.79056,-21.96875 -21.90625,-21.96875 C 90.198097,12.292255 83.264718,9.1724641 76.1875,6.53125 Z m -56.5,9.40625 -1.25,4.53125 -3.40625,-2.3125 c -1.119316,2.336864 -1.466084,5.461517 -2.8125,7.96875 -4.1021571,3.978718 -6.65625,9.554228 -6.65625,15.71875 0,12.10381 9.83369,21.9375 21.9375,21.9375 12.10381,0 21.90625,-9.83369 21.90625,-21.9375 0.1218,-5.352123 -2.470087,-11.07239 -5.5,-14.59375 l 0.8125,-6.4375 -3.375,0.5625 L 38.5,16.65625 35.15625,19.46875 33.28125,16 c -1.414707,0.876432 -2.798474,1.76556 -4.25,2.625 L 26.9375,16.0625 24.5,18.3125 Z m 76.15625,16.75 c 1.946394,0 3.53125,1.584858 3.53125,3.53125 0,1.946392 -1.584856,3.53125 -3.53125,3.53125 -1.946394,0 -3.53125,-1.584858 -3.53125,-3.53125 0,-1.946392 1.584856,-3.53125 3.53125,-3.53125 z m -13.1875,0.40625 c 1.74926,0 3.15625,1.37574 3.15625,3.125 0,1.74926 -1.40699,3.1875 -3.15625,3.1875 -1.74926,0 -3.21875,-1.43824 -3.21875,-3.1875 0,-1.74926 1.46949,-3.125 3.21875,-3.125 z m -53,7.5 c 1.934709,0 3.53125,1.565293 3.53125,3.5 0,1.934707 -1.596541,3.5 -3.53125,3.5 -1.934709,0 -3.5,-1.565293 -3.5,-3.5 0,-1.934707 1.565291,-3.5 3.5,-3.5 z m 13.125,0.375 c 1.738758,0 3.1875,1.386242 3.1875,3.125 0,1.738758 -1.448742,3.15625 -3.1875,3.15625 -1.738759,0 -3.15625,-1.417492 -3.15625,-3.15625 0,-1.738758 1.417491,-3.125 3.15625,-3.125 z M 80.34375,51.625 c -3.884969,15.033143 -4.375,28.488538 -4.375,44.21875 4.587654,4.132719 12.389611,8.69904 22.21875,8.71875 10.36978,0.0207 17.09803,-3.8355 21.8125,-8.71875 0,-15.730212 -0.61066,-29.343878 -4.34375,-44.21875 -3.68971,5.275951 -11.20147,8.84375 -17.65625,8.84375 -6.467099,0 -14.058538,-3.733371 -17.65625,-8.84375 z M 10,59.40625 C 6.2893276,74.191822 5.65625,87.739221 5.65625,103.375 c 4.686171,4.85393 11.37998,8.67687 21.6875,8.65625 9.77013,-0.0196 17.533638,-4.54835 22.09375,-8.65625 0,-15.635779 -0.482104,-29.025857 -4.34375,-43.96875 -3.576113,5.079699 -11.134225,8.78125 -17.5625,8.78125 -6.416023,0 -13.863684,-3.536973 -17.53125,-8.78125 z"
       style="color:#000000;display:inline;overflow:visible;visibility:visible;fill:none;stroke:#ffffff;stroke-width:2;stroke-linecap:round;stroke-linejoin:round;stroke-miterlimit:4;stroke-dasharray:none;stroke-dashoffset:0;stroke-opacity:1;marker:none;enable-background:accumulate" />
  </g>
  <g
     inkscape:groupmode="layer"
     id="layer2"
     inkscape:label="icon"
     style="display:inline">
    <path
       style="color:#000000;fill:url(#linearGradient3847);fill-opacity:1;fill-rule:nonzero;stroke:none;stroke-width:0.96344244;marker:none;visibility:visible;display:inline;overflow:visible;enable-background:accumulate"
       d="m 76.1875,6.53125 3.65625,5.90625 -7.3125,-3.65625 3.65625,7.34375 -3.65625,0 6.875,6.84375 c -2.035821,3.328673 -3.21875,7.24992 -3.21875,11.4375 0,12.115696 9.853058,21.875 21.96875,21.875 12.11569,0 21.90625,-9.759304 21.90625,-21.875 0,-12.115695 -9.79056,-21.96875 -21.90625,-21.96875 C 90.198097,12.292255 83.264718,9.1724641 76.1875,6.53125 z m -56.5,9.40625 -1.25,4.53125 -3.40625,-2.3125 c -1.119316,2.336864 -1.466084,5.461517 -2.8125,7.96875 -4.1021571,3.978718 -6.65625,9.554228 -6.65625,15.71875 0,12.10381 9.83369,21.9375 21.9375,21.9375 12.10381,0 21.90625,-9.83369 21.90625,-21.9375 0.1218,-5.352123 -2.470087,-11.07239 -5.5,-14.59375 l 0.8125,-6.4375 -3.375,0.5625 L 38.5,16.65625 35.15625,19.46875 33.28125,16 c -1.414707,0.876432 -2.798474,1.76556 -4.25,2.625 L 26.9375,16.0625 24.5,18.3125 z m 76.15625,16.75 c 1.946394,0 3.53125,1.584858 3.53125,3.53125 0,1.946392 -1.584856,3.53125 -3.53125,3.53125 -1.946394,0 -3.53125,-1.584858 -3.53125,-3.53125 0,-1.946392 1.584856,-3.53125 3.53125,-3.53125 z m -13.1875,0.40625 c 1.74926,0 3.15625,1.37574 3.15625,3.125 0,1.74926 -1.40699,3.1875 -3.15625,3.1875 -1.74926,0 -3.21875,-1.43824 -3.21875,-3.1875 0,-1.74926 1.46949,-3.125 3.21875,-3.125 z m -53,7.5 c 1.934709,0 3.53125,1.565293 3.53125,3.5 0,1.934707 -1.596541,3.5 -3.53125,3.5 -1.934709,0 -3.5,-1.565293 -3.5,-3.5 0,-1.934707 1.565291,-3.5 3.5,-3.5 z m 13.125,0.375 c 1.738758,0 3.1875,1.386242 3.1875,3.125 0,1.738758 -1.448742,3.15625 -3.1875,3.15625 -1.738759,0 -3.15625,-1.417492 -3.15625,-3.15625 0,-1.738758 1.417491,-3.125 3.15625,-3.125 z M 80.34375,51.625 c -3.884969,15.033143 -4.375,28.488538 -4.375,44.21875 4.587654,4.132719 12.389611,8.69904 22.21875,8.71875 10.36978,0.0207 17.09803,-3.8355 21.8125,-8.71875 0,-15.730212 -0.61066,-29.343878 -4.34375,-44.21875 -3.68971,5.275951 -11.20147,8.84375 -17.65625,8.84375 -6.467099,0 -14.058538,-3.733371 -17.65625,-8.84375 z M 10,59.40625 C 6.2893276,74.191822 5.65625,87.739221 5.65625,103.375 c 4.686171,4.85393 11.37998,8.67687 21.6875,8.65625 9.77013,-0.0196 17.533638,-4.54835 22.09375,-8.65625 0,-15.635779 -0.482104,-29.025857 -4.34375,-43.96875 -3.576113,5.079699 -11.134225,8.78125 -17.5625,8.78125 -6.416023,0 -13.863684,-3.536973 -17.53125,-8.78125 z"
       id="path3047"
       inkscape:connector-curvature="0"
       sodipodi:nodetypes="ccccccsssccccccsscccccccccccssssssssssssssssssssccsccscccsccsc" />
    <path
       style="color:#000000;fill:#ffffff;fill-opacity:0.39430895;fill-rule:nonzero;stroke:none;stroke-width:0.96344244;marker:none;visibility:visible;display:inline;overflow:visible;filter:url(#filter3822-2-6);enable-background:accumulate"
       d="m 38.5,16.65625 c -0.866729,0.727669 -0.865418,0.725994 0.005,0.0047 z"
       id="path3062"
       inkscape:connector-curvature="0" />
    <path
       style="color:#000000;fill:#ffffff;fill-opacity:0.39430895;fill-rule:nonzero;stroke:none;stroke-width:0.96344244;marker:none;visibility:visible;display:inline;overflow:visible;filter:url(#filter3822-2-6);enable-background:accumulate"
       d="m 10,59.40625 c -0.00499,0.01987 0.005,0.04263 0,0.0625 0.0411,0.03102 0.08363,0.06298 0.125,0.09375 C 10.0862,59.50853 10.038,59.460585 10,59.40625 z"
       id="path3046"
       inkscape:connector-curvature="0" />
    <g
       id="g3069"
       mask="url(#mask3843)">
      <path
         sodipodi:nodetypes="cccccccccccccccccccscscccccccccccccccccccccccscsccsscccscccccccsscccccccssccccccsccccccccccccscccccsccccccc"
         inkscape:connector-curvature="0"
         id="path3053"
         d="m 76.1875,6.53125 3.65625,5.90625 -7.3125,-3.65625 3.65625,7.34375 -3.65625,0 4,4 0.03125,0 3.625,0 -3.65625,-7.34375 7.3125,3.65625 -3.65625,-5.90625 c 7.077218,2.641214 14.010597,5.761005 21.96875,5.90625 5.01047,0 9.62536,1.697862 13.3125,4.53125 C 111.46433,15.789391 105.2082,12.4375 98.15625,12.4375 90.198097,12.292255 83.264718,9.1724641 76.1875,6.53125 z m -56.5,9.40625 -1.25,4.53125 -3.40625,-2.3125 c -1.119316,2.336864 -1.466084,5.461517 -2.8125,7.96875 -4.1021571,3.978718 -6.65625,9.554228 -6.65625,15.71875 0,7.071336 3.3578969,13.361549 8.5625,17.375 -2.856262,-3.703972 -4.5625,-8.342526 -4.5625,-13.375 0,-6.164522 2.554093,-11.740032 6.65625,-15.71875 1.346416,-2.507233 1.693184,-5.631886 2.8125,-7.96875 l 3.40625,2.3125 1.25,-4.53125 4.8125,2.375 2.4375,-2.25 2.09375,2.5625 c 1.451526,-0.85944 2.835293,-1.748568 4.25,-2.625 l 1.875,3.46875 2.5625,-2.15625 -0.375,0.0625 L 38.5,16.65625 35.15625,19.46875 33.28125,16 c -1.414707,0.876432 -2.798474,1.76556 -4.25,2.625 L 26.9375,16.0625 24.5,18.3125 z m 25.03125,4.875 -3.418005,0.577665 2.645257,5.996701 z m 34.6875,2.15625 c -2.035821,3.328673 -3.21875,7.24992 -3.21875,11.4375 0,7.056199 3.346559,13.31725 8.53125,17.3125 -2.840222,-3.683302 -4.53125,-8.295359 -4.53125,-13.3125 l 0,-0.125 4.4375,4.34375 c 0.56229,0.468594 1.254394,0.78125 2.03125,0.78125 1.74926,0 3.15625,-1.43824 3.15625,-3.1875 0,-1.067563 -0.506429,-2.000993 -1.3125,-2.5625 L 84.90625,33.96875 80.125,38.125 c -0.414604,-0.534628 -0.6875,-1.188386 -0.6875,-1.90625 0,-0.988403 0.495046,-1.837157 1.21875,-2.40625 0.0021,-0.01003 -0.0022,-0.02123 0,-0.03125 0.526705,-2.452459 1.482792,-4.740548 2.75,-6.8125 z M 98.1875,33.5625 93.25,38.625 l 3.8125,3.75 c 0.646895,0.829244 1.651037,1.375 2.78125,1.375 1.94639,0 3.53125,-1.584858 3.53125,-3.53125 0,-1.216495 -0.62299,-2.302117 -1.5625,-2.9375 L 101.75,37.25 z m -66,8.03125 -5.125,4.84375 3.6875,3.625 0.0625,0.0625 c 0.634284,0.889494 1.666659,1.46875 2.84375,1.46875 1.934709,0 3.53125,-1.565293 3.53125,-3.5 0,-1.099492 -0.512212,-2.077364 -1.3125,-2.71875 z M 44.75,41.625 l -4.4375,4.5 4.25,4.1875 c 0.02031,0.02031 0.04164,0.04274 0.0625,0.0625 0.566133,0.536339 1.317762,0.875 2.15625,0.875 0.185066,0 0.354152,-0.03171 0.53125,-0.0625 0.786317,-1.66731 1.371831,-3.44779 1.71875,-5.3125 -0.0695,-0.06762 -0.143146,-0.126458 -0.21875,-0.1875 z m 35.59375,10 c -3.884969,15.033143 -4.375,28.488538 -4.375,44.21875 1.137723,1.024901 2.485008,2.060224 4,3.0625 0.0205,-15.314491 0.575256,-28.53181 4.375,-43.25 -1.586218,-1.191227 -2.958758,-2.552215 -4,-4.03125 z m 35.25,0 C 111.41717,55.912939 104.74891,60.443972 98,60.46875 c -4.581434,0 -9.734665,-1.871737 -13.625,-4.78125 3.613475,5.081835 11.181378,8.78125 17.625,8.78125 5.21641,0 11.13437,-2.321251 15.15625,-6 -0.2217,-1.143143 -1.30592,-5.689892 -1.5625,-6.84375 z m -70.5,7.71875 c -3.73854,3.471152 -9.474691,8.809052 -17.5625,8.84375 -4.521443,0 -9.54412,-1.752285 -13.40625,-4.625 3.706574,5.154737 11.056702,8.625 17.40625,8.625 5.194421,0 11.121006,-2.423226 15.09375,-6.03125 -0.246712,-1.239677 -1.240149,-5.556368 -1.53125,-6.8125 z M 10,59.40625 C 6.2893276,74.191822 5.65625,87.739221 5.65625,103.375 c 1.1959499,1.23876 2.5158338,2.41104 4,3.46875 C 9.670925,91.455505 10.345098,78.061343 14,63.46875 12.43338,62.286059 11.055308,60.915242 10,59.40625 z"
         style="color:#000000;fill:#141414;fill-opacity:0.73170734;fill-rule:nonzero;stroke:none;stroke-width:0.96344244;marker:none;visibility:visible;display:inline;overflow:visible;filter:url(#filter3822-9-9-4-4);enable-background:accumulate" />
      <path
         d="m 45.09375,59.40625 c -0.686405,0.975006 -1.525087,1.89297 -2.46875,2.75 2.454692,12.334312 2.8125,23.970586 2.8125,37.21875 -4.560112,4.1079 -12.32362,8.63665 -22.09375,8.65625 -7.676955,0.0154 -13.3561577,-2.1007 -17.6875,-5.1875 -1.708e-4,0.17905 0,0.35166 0,0.53125 4.686171,4.85393 11.37998,8.67687 21.6875,8.65625 9.77013,-0.0196 17.533638,-4.54835 22.09375,-8.65625 0,-15.635779 -0.482104,-29.025857 -4.34375,-43.96875 z m -4.75,-39.6875 -0.4375,3.53125 -0.09375,-0.03125 c 3.472938,3.875537 5.59375,9.006771 5.59375,14.625 0,1.379702 -0.131374,2.721744 -0.375,4.03125 0.57953,0.563905 0.9375,1.349371 0.9375,2.21875 0,1.553692 -1.169453,2.83522 -2.65625,3.09375 -3.505782,7.433672 -11.053061,12.59375 -19.8125,12.59375 -5.032474,0 -9.671028,-1.706238 -13.375,-4.5625 3.989616,5.173694 10.22986,8.522924 17.25,8.5625 7.966289,0.150735 10.988143,-2.492706 14.46875,-5.375 4.626878,-4.024115 7.5625,-9.951095 7.5625,-16.5625 0,-5.618229 -1.839562,-10.530713 -5.3125,-14.40625 l -0.1875,-0.1875 0.8125,-6.4375 -3.375,0.5625 -1,-1.65625 z m -14.6875,16.875 c -1.934709,0 -3.5,1.565293 -3.5,3.5 0,0.846434 0.31343,1.613875 0.8125,2.21875 l -0.03125,0.03125 0.25,0.21875 3.875,3.875 5.09375,-4.8125 -4,-4 -0.1875,-0.1875 -0.03125,0.03125 c -0.619711,-0.527666 -1.408138,-0.875 -2.28125,-0.875 z m 13.125,0.375 c -1.738759,0 -3.15625,1.386242 -3.15625,3.125 0,0.814767 0.334044,1.532862 0.84375,2.09375 l -0.03125,0.03125 3.90625,3.84375 4.4375,-4.40625 c 0,0 -3.186561,-3.090163 -3.625,-3.59375 -0.587888,-0.659834 -1.424338,-1.09375 -2.375,-1.09375 z m 39.875,-7.875 c -0.753746,0 -1.445326,0.256815 -2,0.6875 -0.0022,0.01002 0.0021,0.02122 0,0.03125 -0.302703,1.419197 -0.456021,2.901519 -0.46875,4.40625 0.01395,0.01685 0.04824,0.01467 0.0625,0.03125 0.152907,0.17775 0.314192,0.358029 0.5,0.5 L 80.4375,38.5 84.875,33.96875 80.875,30 80.65625,29.78125 80.625,29.8125 c -0.542287,-0.433333 -1.212452,-0.71875 -1.96875,-0.71875 z m 13.1875,-0.40625 c -1.946394,0 -3.53125,1.584858 -3.53125,3.53125 0,0.910992 0.337312,1.747833 0.90625,2.375 l 0.125,0.125 3.9375,3.90625 4.84375,-5.09375 -3.78125,-3.8125 c -0.04088,-0.04088 -0.08218,-0.08615 -0.125,-0.125 -0.627167,-0.568938 -1.464007,-0.90625 -2.375,-0.90625 z m 19.625,-11.71875 c 2.87542,3.719099 4.59375,8.373761 4.59375,13.4375 0,12.115696 -9.79056,21.875 -21.90625,21.875 -5.059495,0 -9.719928,-1.697791 -13.4375,-4.5625 3.780532,4.90273 9.600927,8.162857 16.1875,8.53125 8.49732,0.418025 11.16301,-1.787163 15.53125,-5.21875 4.67328,-4.006236 7.625,-9.967895 7.625,-16.625 0,-7.105226 -3.3651,-13.41954 -8.59375,-17.4375 z m 4.1875,34.65625 c -0.70788,1.012204 -1.54521,1.970423 -2.5,2.84375 2.38646,12.305182 2.84375,24.085243 2.84375,37.375 -4.71447,4.88325 -11.44272,8.73945 -21.8125,8.71875 -7.391544,-0.0148 -13.624825,-2.617038 -18.21875,-5.65625 -4.22e-4,0.315315 0,0.620368 0,0.9375 4.587654,4.132719 12.389611,8.69904 22.21875,8.71875 10.36978,0.0207 17.09803,-3.8355 21.8125,-8.71875 0,-15.730212 -0.61066,-29.343878 -4.34375,-44.21875 z"
         style="color:#000000;fill:#ffffff;fill-opacity:0.39430895;fill-rule:nonzero;stroke:none;stroke-width:0.96344244;marker:none;visibility:visible;display:inline;overflow:visible;filter:url(#filter3822-2-6);enable-background:accumulate"
         id="path3095"
         inkscape:connector-curvature="0" />
    </g>
  </g>
</svg>
