<?xml version="1.0" encoding="UTF-8" standalone="no"?>
<!-- Created with Inkscape (http://www.inkscape.org/) -->

<svg
   width="128"
   height="128"
   id="svg2"
   version="1.1"
   inkscape:version="1.3.2 (1:1.3.2+202311252150+091e20ef0f)"
   sodipodi:docname="message.svg"
   inkscape:export-filename="message_32.png"
   inkscape:export-xdpi="24"
   inkscape:export-ydpi="24"
   xmlns:inkscape="http://www.inkscape.org/namespaces/inkscape"
   xmlns:sodipodi="http://sodipodi.sourceforge.net/DTD/sodipodi-0.dtd"
   xmlns:xlink="http://www.w3.org/1999/xlink"
   xmlns="http://www.w3.org/2000/svg"
   xmlns:svg="http://www.w3.org/2000/svg"
   xmlns:rdf="http://www.w3.org/1999/02/22-rdf-syntax-ns#"
   xmlns:cc="http://creativecommons.org/ns#"
   xmlns:dc="http://purl.org/dc/elements/1.1/">
  <defs
     id="defs4">
    <linearGradient
       id="linearGradient3843">
      <stop
         style="stop-color:#f9f9fa;stop-opacity:1;"
         offset="0"
         id="stop3845" />
      <stop
         style="stop-color:#efeff0;stop-opacity:1;"
         offset="1"
         id="stop3847" />
    </linearGradient>
    <filter
       inkscape:collect="always"
       id="filter3784"
       x="-0.014414414"
       y="-0.014414414"
       width="1.0288288"
       height="1.0288288">
      <feGaussianBlur
         inkscape:collect="always"
         stdDeviation="0.74109996"
         id="feGaussianBlur3786" />
    </filter>
    <filter
       inkscape:collect="always"
       id="filter3835"
       x="-0.11912061"
       width="1.2382412"
       y="-0.11871791"
       height="1.2374358">
      <feGaussianBlur
         inkscape:collect="always"
         stdDeviation="5.9436221"
         id="feGaussianBlur3837" />
    </filter>
    <filter
       inkscape:collect="always"
       id="filter3839"
       x="-0.090019872"
       y="-0.090160418"
       width="1.1800397"
       height="1.1803208">
      <feGaussianBlur
         inkscape:collect="always"
         stdDeviation="4.5115428"
         id="feGaussianBlur3841" />
    </filter>
    <linearGradient
       inkscape:collect="always"
       xlink:href="#linearGradient3843"
       id="linearGradient3849"
       x1="14.267717"
       y1="932.53717"
       x2="86.410866"
       y2="1016.1086"
       gradientUnits="userSpaceOnUse"
       gradientTransform="matrix(1.0053767,0,0,1.0018799,-0.73513181,-1.9949957)" />
    <mask
       maskUnits="userSpaceOnUse"
       id="mask3859">
      <rect
         ry="19.796612"
         rx="20.427839"
         y="925.12628"
         x="1.2320045"
         height="123.39314"
         width="123.39314"
         id="rect3861"
         style="color:#000000;fill:#ffffff;fill-opacity:1;stroke:none;stroke-width:0.96400887;marker:none;visibility:visible;display:inline;overflow:visible;enable-background:accumulate" />
    </mask>
    <filter
       color-interpolation-filters="sRGB"
       inkscape:collect="always"
       id="filter3822-9-6-4-5-2-3"
       x="-0.064154046"
       y="-0.075430006"
       width="1.1283081"
       height="1.15086">
      <feGaussianBlur
         inkscape:collect="always"
         stdDeviation="2.8610366"
         id="feGaussianBlur3824-5-7-3-8-3-5" />
    </filter>
    <filter
       color-interpolation-filters="sRGB"
       inkscape:collect="always"
       id="filter3822-2-7-6-4-1-8"
       x="-0.064154046"
       y="-0.07788997"
       width="1.1283081"
       height="1.1557799">
      <feGaussianBlur
         inkscape:collect="always"
         stdDeviation="2.8610366"
         id="feGaussianBlur3824-4-8-9-3-9-4" />
    </filter>
    <linearGradient
       inkscape:collect="always"
       xlink:href="#linearGradient3834-0-7-118"
       id="linearGradient4068-5"
       gradientUnits="userSpaceOnUse"
       gradientTransform="matrix(0.69083119,-0.69083119,0.62542492,0.62542492,6.162221,33.688642)"
       x1="24.393272"
       y1="20.992283"
       x2="15.708575"
       y2="125.95943" />
    <linearGradient
       id="linearGradient3834-0-7-118">
      <stop
         style="stop-color:#626262;stop-opacity:1;"
         offset="0"
         id="stop3836-1-1-88" />
      <stop
         style="stop-color:#707070;stop-opacity:1;"
         offset="1"
         id="stop3838-0-6-22" />
    </linearGradient>
    <mask
       maskUnits="userSpaceOnUse"
       id="mask3827">
      <path
         inkscape:connector-curvature="0"
         id="path3829"
         d="m 63.09375,18.484375 c -31.804849,0 -57.59375,17.685456 -57.59375,39.5 0,21.814544 25.788901,39.5 57.59375,39.5 7.465334,0 14.610022,-0.97666 21.15625,-2.75 2.616057,6.879295 14.495238,14.651455 23.59375,14.781255 -4.98212,-1.14637 -10.928239,-9.16998 -11.09375,-19.468755 14.50233,-7.172445 23.9375,-18.862599 23.9375,-32.0625 0,-21.814544 -25.788901,-39.5 -57.59375,-39.5 z m 0.09375,6.875 c 5.343704,0 8.8125,3.972182 8.8125,10.15625 0,2.584386 -0.343766,4.528091 -2.125,12.28125 -1.959358,9.045353 -2.501568,12.826747 -3.125,21.6875 l -7.3125,0 c -0.801555,-8.583854 -1.5797,-14.049188 -3.09375,-21.15625 -1.781234,-8.491555 -2.15625,-10.704116 -2.15625,-13.75 0,-5.168772 3.923482,-9.21875 9,-9.21875 z m -0.09375,48.1875 c 4.542149,0 8.1875,3.761475 8.1875,8.46875 0,4.707274 -3.739102,8.59375 -8.28125,8.59375 -4.542149,0 -8.1875,-3.858126 -8.1875,-8.75 0,-4.522676 3.739101,-8.3125 8.28125,-8.3125 z"
         style="color:#000000;fill:#ffffff;fill-opacity:1;fill-rule:nonzero;stroke:none;stroke-width:0.90705854;marker:none;visibility:visible;display:inline;overflow:visible;enable-background:accumulate" />
    </mask>
  </defs>
  <sodipodi:namedview
     id="base"
     pagecolor="#ffffff"
     bordercolor="#666666"
     borderopacity="1.0"
     inkscape:pageopacity="0"
     inkscape:pageshadow="2"
     inkscape:zoom="4"
     inkscape:cx="60.75"
     inkscape:cy="71.625"
     inkscape:document-units="px"
     inkscape:current-layer="layer3"
     showgrid="true"
     inkscape:window-width="1868"
     inkscape:window-height="1016"
     inkscape:window-x="52"
     inkscape:window-y="27"
     inkscape:window-maximized="1"
     showguides="true"
     inkscape:guide-bbox="true"
     inkscape:snap-global="false"
     inkscape:showpageshadow="2"
     inkscape:pagecheckerboard="0"
     inkscape:deskcolor="#d1d1d1">
    <inkscape:grid
       type="xygrid"
       id="grid3901"
       empspacing="4"
       visible="true"
       enabled="true"
       snapvisiblegridlinesonly="true"
       dotted="false"
       spacingx="4"
       spacingy="4"
       color="#ff00bf"
       opacity="0.1254902"
       empcolor="#ff00cb"
       empopacity="0.25098039"
       originx="0"
       originy="0"
       units="px" />
    <sodipodi:guide
       orientation="0,1"
       position="51.88396,123.03658"
       id="guide3803"
       inkscape:locked="false" />
    <sodipodi:guide
       orientation="1,0"
       position="5.5,70.963216"
       id="guide3805"
       inkscape:locked="false" />
    <sodipodi:guide
       orientation="1,0"
       position="120,22.728432"
       id="guide3807"
       inkscape:locked="false" />
    <sodipodi:guide
       orientation="0,1"
       position="-33.335,8"
       id="guide3811"
       inkscape:locked="false" />
    <sodipodi:guide
       orientation="0,1"
       position="48.28125,83.96875"
       id="guide3109"
       inkscape:locked="false" />
  </sodipodi:namedview>
  <metadata
     id="metadata7">
    <rdf:RDF>
      <cc:Work
         rdf:about="">
        <dc:format>image/svg+xml</dc:format>
        <dc:type
           rdf:resource="http://purl.org/dc/dcmitype/StillImage" />
        <cc:license
           rdf:resource="http://creativecommons.org/licenses/by-sa/4.0/" />
      </cc:Work>
      <cc:License
         rdf:about="http://creativecommons.org/licenses/by-sa/4.0/">
        <cc:permits
           rdf:resource="http://creativecommons.org/ns#Reproduction" />
        <cc:permits
           rdf:resource="http://creativecommons.org/ns#Distribution" />
        <cc:requires
           rdf:resource="http://creativecommons.org/ns#Notice" />
        <cc:requires
           rdf:resource="http://creativecommons.org/ns#Attribution" />
        <cc:permits
           rdf:resource="http://creativecommons.org/ns#DerivativeWorks" />
        <cc:requires
           rdf:resource="http://creativecommons.org/ns#ShareAlike" />
      </cc:License>
    </rdf:RDF>
  </metadata>
  <g
     inkscape:label="base"
     inkscape:groupmode="layer"
     id="layer1"
     transform="translate(0,-924.36218)"
     style="display:none"
     sodipodi:insensitive="true">
    <rect
       ry="19.796612"
       rx="20.427839"
       y="927.12628"
       x="3.2320046"
       height="123.39314"
       width="123.39314"
       id="rect3766"
       style="color:#000000;display:inline;overflow:visible;visibility:visible;fill:#252628;fill-opacity:0.128617;stroke:none;stroke-width:0.964009;marker:none;filter:url(#filter3784);enable-background:accumulate"
       transform="matrix(1.0053767,0,0,1.0018799,-0.73513181,-1.9949957)" />
    <rect
       style="color:#000000;display:inline;overflow:visible;visibility:visible;fill:url(#linearGradient3849);fill-opacity:1;stroke:none;stroke-width:0.964009;marker:none;enable-background:accumulate"
       id="rect2985"
       width="124.05659"
       height="123.62511"
       x="0.50349677"
       y="924.87036"
       rx="20.537672"
       ry="19.833828" />
    <g
       id="g3853"
       mask="url(#mask3859)"
       transform="matrix(1.0053767,0,0,1.0018799,-0.73513181,-1.9949957)">
      <path
         sodipodi:nodetypes="csssscccsssscc"
         inkscape:connector-curvature="0"
         id="rect3788"
         transform="translate(0,924.36218)"
         d="m 111.3125,2 c 1.0638,2.3966046 2.03056,5.049628 1.65625,7.8125 l -10,73.8125 c -1.47238,10.868035 -9.195281,18.23558 -20.40625,19.78125 l -72.53125,10 C 7.534242,113.75052 5.0997184,112.93384 2.875,112.125 c 0.7713464,1.76264 1.7621331,3.38896 3,4.84375 0.010886,0.01 0.020343,0.0216 0.03125,0.0312 3.6235707,3.20066 8.436326,5.15625 13.75,5.15625 h 82.53125 c 11.31702,0 20.4375,-8.81393 20.4375,-19.78125 v -83.8125 c 0,-4.877214 -1.80986,-9.3136525 -4.8125,-12.75 C 115.92993,4.1823291 113.729,2.8665963 111.3125,2 Z"
         style="color:#000000;display:inline;overflow:visible;visibility:visible;fill:#c9c9cf;fill-opacity:0.254019;stroke:none;stroke-width:0.964009;marker:none;filter:url(#filter3835);enable-background:accumulate" />
      <path
         sodipodi:nodetypes="sssccsssscccss"
         inkscape:connector-curvature="0"
         id="rect3796"
         transform="translate(0,924.36218)"
         d="m 23.65625,2.75 c -11.317023,0 -20.4375,8.845177 -20.4375,19.8125 v 83.8125 c 0,4.8505 1.7783223,9.26046 4.75,12.6875 1.8502957,1.61847 4.000429,2.9035 6.375,3.78125 -0.720661,-2.02308 -1.488357,-4.23372 -1.125,-6.46875 l 12,-73.8125 C 26.978647,31.737301 34.451287,24.338652 45.65625,22.75 l 70.53125,-10 c 2.55597,-0.362388 5.0458,0.494454 7.3125,1.34375 -0.82375,-2.321834 -2.0613,-4.4443488 -3.65625,-6.28125 -0.0281,-0.024504 -0.0655,-0.038145 -0.0937,-0.0625 -3.60314,-3.110944 -8.3402,-5 -13.5625,-5 z"
         style="color:#000000;display:inline;overflow:visible;visibility:visible;fill:#ffffff;fill-opacity:1;stroke:none;stroke-width:0.964009;marker:none;filter:url(#filter3839);enable-background:accumulate" />
    </g>
    <rect
       ry="19.833828"
       rx="20.537672"
       y="924.87036"
       x="0.50349677"
       height="123.62511"
       width="124.05659"
       id="rect3851"
       style="color:#000000;display:inline;overflow:visible;visibility:visible;fill:none;stroke:#cbcdd0;stroke-width:1.00363;stroke-linecap:round;stroke-linejoin:round;stroke-miterlimit:4;stroke-dasharray:none;stroke-dashoffset:0;stroke-opacity:1;marker:none;enable-background:accumulate" />
  </g>
  <g
     inkscape:groupmode="layer"
     id="layer3"
     inkscape:label="outline">
    <path
       inkscape:connector-curvature="0"
       id="path3843"
       d="m 63.09375,18.484375 c -31.804849,0 -57.59375,17.685456 -57.59375,39.5 0,21.814544 25.788901,39.5 57.59375,39.5 7.465334,0 14.610022,-0.97666 21.15625,-2.75 2.616057,6.879295 14.495238,14.651455 23.59375,14.781255 -4.98212,-1.14637 -10.928239,-9.16998 -11.09375,-19.468755 14.50233,-7.172445 23.9375,-18.862599 23.9375,-32.0625 0,-21.814544 -25.788901,-39.5 -57.59375,-39.5 z m 0.09375,6.875 c 5.343704,0 8.8125,3.972182 8.8125,10.15625 0,2.584386 -0.343766,4.528091 -2.125,12.28125 -1.959358,9.045353 -2.501568,12.826747 -3.125,21.6875 l -7.3125,0 c -0.801555,-8.583854 -1.5797,-14.049188 -3.09375,-21.15625 -1.781234,-8.491555 -2.15625,-10.704116 -2.15625,-13.75 0,-5.168772 3.923482,-9.21875 9,-9.21875 z m -0.09375,48.1875 c 4.542149,0 8.1875,3.761475 8.1875,8.46875 0,4.707274 -3.739102,8.59375 -8.28125,8.59375 -4.542149,0 -8.1875,-3.858126 -8.1875,-8.75 0,-4.522676 3.739101,-8.3125 8.28125,-8.3125 z"
       style="display:inline;color:#000000;fill:none;stroke:#ffffff;stroke-width:2;stroke-linecap:round;stroke-linejoin:round;stroke-miterlimit:4;stroke-opacity:1;stroke-dasharray:none;stroke-dashoffset:0;marker:none;visibility:visible;overflow:visible;enable-background:accumulate" />
  </g>
  <g
     inkscape:groupmode="layer"
     id="layer2"
     inkscape:label="icon"
     style="display:inline">
    <path
       style="color:#000000;fill:url(#linearGradient4068-5);fill-opacity:1;fill-rule:nonzero;stroke:none;stroke-width:0.90705854;marker:none;visibility:visible;display:inline;overflow:visible;enable-background:accumulate"
       d="m 63.09375,18.484375 c -31.804849,0 -57.59375,17.685456 -57.59375,39.5 0,21.814544 25.788901,39.5 57.59375,39.5 7.465334,0 14.610022,-0.97666 21.15625,-2.75 2.616057,6.879295 14.495238,14.651455 23.59375,14.781255 -4.98212,-1.14637 -10.928239,-9.16998 -11.09375,-19.468755 14.50233,-7.172445 23.9375,-18.862599 23.9375,-32.0625 0,-21.814544 -25.788901,-39.5 -57.59375,-39.5 z m 0.09375,6.875 c 5.343704,0 8.8125,3.972182 8.8125,10.15625 0,2.584386 -0.343766,4.528091 -2.125,12.28125 -1.959358,9.045353 -2.501568,12.826747 -3.125,21.6875 l -7.3125,0 c -0.801555,-8.583854 -1.5797,-14.049188 -3.09375,-21.15625 -1.781234,-8.491555 -2.15625,-10.704116 -2.15625,-13.75 0,-5.168772 3.923482,-9.21875 9,-9.21875 z m -0.09375,48.1875 c 4.542149,0 8.1875,3.761475 8.1875,8.46875 0,4.707274 -3.739102,8.59375 -8.28125,8.59375 -4.542149,0 -8.1875,-3.858126 -8.1875,-8.75 0,-4.522676 3.739101,-8.3125 8.28125,-8.3125 z"
       id="path3915"
       inkscape:connector-curvature="0" />
    <g
       transform="scale(0.9823039,1.0180149)"
       style="font-size:90.66625977px;font-style:normal;font-variant:normal;font-weight:bold;font-stretch:normal;line-height:125%;letter-spacing:0px;word-spacing:0px;color:#000000;fill:#ffffff;fill-opacity:1;fill-rule:nonzero;stroke:none;stroke-width:0.90705854;marker:none;visibility:visible;display:inline;overflow:visible;enable-background:accumulate;font-family:URW Bookman L;-inkscape-font-specification:URW Bookman L Bold"
       id="text3058-2-4" />
    <g
       id="g4097"
       mask="url(#mask3827)">
      <path
         sodipodi:nodetypes="sscsscsccsccccccsccccccsscccccssccccccccccccc"
         inkscape:connector-curvature="0"
         id="path4007"
         d="M 63.09375,18.5 C 31.288901,18.5 5.5,36.185456 5.5,58 5.5,67.146788 10.045929,75.554421 17.65625,82.25 12.482119,76.32505 9.5,69.408354 9.5,62 9.5,40.185456 35.288901,22.5 67.09375,22.5 c 18.469149,0 34.89766,5.945772 45.4375,15.21875 C 102.4697,26.19717 84.097476,18.5 63.09375,18.5 z m 6.25,9.34375 c 1.172706,1.679762 0.99078,1.542484 2.15625,3.9375 0.321277,1.122623 0.5,2.357477 0.5,3.71875 0,2.584386 -0.343766,4.559341 -2.125,12.3125 C 67.915642,56.857853 67.373432,60.639247 66.75,69.5 l -7.3125,0 4,4 7.3125,0 C 71.373432,64.639247 71.915642,60.857853 73.875,51.8125 75.656234,44.059341 76,42.084386 76,39.5 76,36.198727 75.018093,33.521464 73.28125,31.75 l -0.03125,0 -0.21875,-0.21875 z M 68.625,75.75 c 0.769014,1.551003 1.516244,2.306067 2.34375,3.96875 0.194873,0.722526 0.3125,1.482263 0.3125,2.28125 0,4.707274 -3.739102,8.625 -8.28125,8.625 -0.351366,0 -0.69303,-0.04727 -1.03125,-0.09375 -1.531905,-0.353577 -2.730733,-0.915558 -3.90625,-1.6875 l 2.8125,2.875 c 0.02434,0.02893 0.03781,0.06518 0.0625,0.09375 l 0.65625,0.65625 C 63.037105,93.810188 64.928031,94.625 67,94.625 c 4.542148,0 8.28125,-3.917726 8.28125,-8.625 0,-2.540947 -1.085594,-4.775129 -2.78125,-6.3125 L 72.4375,79.625 c -0.01097,-0.0097 -0.02023,-0.02157 -0.03125,-0.03125 z m 19.625,23 -4.010101,-4.023993 C 83.447042,97.505612 88.267617,102.078 90.375,102.34375 89.436824,101.14991 88.70043,99.934469 88.25,98.75 z m 14.44589,7.39319 c 0.25638,0.35778 3.09857,2.93728 3.36661,3.26306 0.0101,0.001 0.0212,-0.001 0.0312,0 0.58744,0.0657 1.18134,0.11689 1.75,0.125 -2.32041,-1.2223 -3.19492,-2.6231 -5.14781,-3.38806 z"
         style="color:#000000;fill:#141414;fill-opacity:0.73170734;fill-rule:nonzero;stroke:none;stroke-width:0.96344244;marker:none;visibility:visible;display:inline;overflow:visible;filter:url(#filter3822-9-6-4-5-2-3);enable-background:accumulate" />
      <path
         sodipodi:nodetypes="ssccccsscsscscccscsscccscccscsccsccccccc"
         inkscape:connector-curvature="0"
         id="path4056"
         d="m 59.1875,21.375 c -5.076518,0 -9,4.018728 -9,9.1875 0,3.045884 0.375016,5.258445 2.15625,13.75 1.51405,7.107062 2.292195,12.603646 3.09375,21.1875 l 4.03125,3.96875 C 59.263612,63.092143 57.648539,54.222398 56.34375,48.3125 54.562516,39.820945 54.1875,37.608384 54.1875,34.5625 c 0,-5.168772 3.923482,-9.1875 9,-9.1875 1.362426,0 4.657744,1.075258 5.75,1.5625 C 67.200531,25.422532 64.779923,23.047578 63.170516,22.252377 62.010924,21.679427 60.672207,21.375 59.1875,21.375 z m 49.34375,12.34375 c 5.17413,5.924949 8.15625,12.872896 8.15625,20.28125 0,13.199901 -9.43517,24.890055 -23.9375,32.0625 0.137795,8.574198 4.272076,15.54797 8.53125,18.3125 C 98.750531,100.84327 96.84261,95.825091 96.75,90.0625 111.25233,82.890055 120.6875,71.199901 120.6875,58 c 0,-9.146788 -4.54593,-17.585671 -12.15625,-24.28125 z M 59.09375,69.5625 c -4.542149,0 -8.28125,3.789824 -8.28125,8.3125 0,2.427546 0.912779,4.586829 2.375,6.15625 1.565823,1.576887 3.20804,3.20804 4.8125,4.8125 -0.978621,-1.30746 -1.854233,-2.679273 -2.71875,-4.0625 -0.293824,-0.910433 -0.46875,-1.873167 -0.46875,-2.90625 0,-4.522676 3.739101,-8.3125 8.28125,-8.3125 2.07726,0.01934 4.005307,1.382729 5.59375,2.25 -1.394558,-1.337093 -2.819467,-2.85706 -4.1875,-4.125 -1.443664,-1.315006 -3.318609,-2.125 -5.40625,-2.125 z M 13.65625,78.25 c 10.061548,11.52158 28.433848,19.194267 49.4375,19.25 7.000166,0.01857 15.20229,-0.605533 21.1875,-2.75 L 80.25,90.75 C 73.703772,92.52334 66.559084,93.5 59.09375,93.5 40.624601,93.5 24.19609,87.522978 13.65625,78.25 z M 86.375,98.34375 c 4.510665,5.73989 13.93681,11.08005 21.46875,11.1875 -1.90782,-0.43898 -3.93819,-1.92751 -5.75,-4.125 -0.0101,-0.001 -0.0212,0.001 -0.0312,0 -5.314641,-0.60303 -11.259884,-3.4646 -15.6875,-7.0625 z"
         style="color:#000000;fill:#ffffff;fill-opacity:0.39430895;fill-rule:nonzero;stroke:none;stroke-width:0.96344244;marker:none;visibility:visible;display:inline;overflow:visible;filter:url(#filter3822-2-7-6-4-1-8);enable-background:accumulate" />
    </g>
  </g>
</svg>
