<?xml version="1.0" encoding="UTF-8" standalone="no"?>
<!-- Created with Inkscape (http://www.inkscape.org/) -->

<svg
   width="128"
   height="128"
   id="svg2"
   version="1.1"
   inkscape:version="1.3.2 (1:1.3.2+202311252150+091e20ef0f)"
   sodipodi:docname="money_info.svg"
   inkscape:export-filename="money_info_32.png"
   inkscape:export-xdpi="24"
   inkscape:export-ydpi="24"
   xmlns:inkscape="http://www.inkscape.org/namespaces/inkscape"
   xmlns:sodipodi="http://sodipodi.sourceforge.net/DTD/sodipodi-0.dtd"
   xmlns:xlink="http://www.w3.org/1999/xlink"
   xmlns="http://www.w3.org/2000/svg"
   xmlns:svg="http://www.w3.org/2000/svg"
   xmlns:rdf="http://www.w3.org/1999/02/22-rdf-syntax-ns#"
   xmlns:cc="http://creativecommons.org/ns#"
   xmlns:dc="http://purl.org/dc/elements/1.1/">
  <defs
     id="defs4">
    <linearGradient
       id="linearGradient3843">
      <stop
         style="stop-color:#f9f9fa;stop-opacity:1;"
         offset="0"
         id="stop3845" />
      <stop
         style="stop-color:#efeff0;stop-opacity:1;"
         offset="1"
         id="stop3847" />
    </linearGradient>
    <filter
       inkscape:collect="always"
       id="filter3784"
       x="-0.014414414"
       y="-0.014414414"
       width="1.0288288"
       height="1.0288288">
      <feGaussianBlur
         inkscape:collect="always"
         stdDeviation="0.74109996"
         id="feGaussianBlur3786" />
    </filter>
    <filter
       inkscape:collect="always"
       id="filter3835"
       x="-0.11912061"
       width="1.2382412"
       y="-0.11871791"
       height="1.2374358">
      <feGaussianBlur
         inkscape:collect="always"
         stdDeviation="5.9436221"
         id="feGaussianBlur3837" />
    </filter>
    <filter
       inkscape:collect="always"
       id="filter3839"
       x="-0.090019872"
       y="-0.090160418"
       width="1.1800397"
       height="1.1803208">
      <feGaussianBlur
         inkscape:collect="always"
         stdDeviation="4.5115428"
         id="feGaussianBlur3841" />
    </filter>
    <linearGradient
       inkscape:collect="always"
       xlink:href="#linearGradient3843"
       id="linearGradient3849"
       x1="14.267717"
       y1="932.53717"
       x2="86.410866"
       y2="1016.1086"
       gradientUnits="userSpaceOnUse"
       gradientTransform="matrix(1.0053767,0,0,1.0018799,-0.73513181,-1.9949957)" />
    <mask
       maskUnits="userSpaceOnUse"
       id="mask3859">
      <rect
         ry="19.796612"
         rx="20.427839"
         y="925.12628"
         x="1.2320045"
         height="123.39314"
         width="123.39314"
         id="rect3861"
         style="color:#000000;fill:#ffffff;fill-opacity:1;stroke:none;stroke-width:0.96400887;marker:none;visibility:visible;display:inline;overflow:visible;enable-background:accumulate" />
    </mask>
    <linearGradient
       id="linearGradient3834-0-7-118">
      <stop
         style="stop-color:#626262;stop-opacity:1;"
         offset="0"
         id="stop3836-1-1-88" />
      <stop
         style="stop-color:#707070;stop-opacity:1;"
         offset="1"
         id="stop3838-0-6-22" />
    </linearGradient>
    <linearGradient
       inkscape:collect="always"
       xlink:href="#linearGradient3834-0-7-118"
       id="linearGradient3238"
       gradientUnits="userSpaceOnUse"
       gradientTransform="matrix(0.67239701,-0.85019903,0.60873605,0.76970419,8.5195502,26.696114)"
       x1="25.467358"
       y1="11.384282"
       x2="18.327164"
       y2="141.94296" />
    <filter
       color-interpolation-filters="sRGB"
       inkscape:collect="always"
       id="filter3822-9-6-4-5-2-3-1"
       x="-0.068365777"
       y="-0.061290852"
       width="1.1367316"
       height="1.1225817">
      <feGaussianBlur
         inkscape:collect="always"
         stdDeviation="2.8610366"
         id="feGaussianBlur3824-5-7-3-8-3-5-4" />
    </filter>
    <filter
       id="filter3822-2-0-2"
       inkscape:collect="always"
       color-interpolation-filters="sRGB"
       x="-0.068344512"
       y="-0.063633827"
       width="1.136689"
       height="1.1272677">
      <feGaussianBlur
         id="feGaussianBlur3824-4-2-4"
         stdDeviation="2.8610366"
         inkscape:collect="always" />
    </filter>
    <mask
       maskUnits="userSpaceOnUse"
       id="mask4091">
      <path
         id="path4093"
         d="M 63.9375,8 C 32.981333,8 7.875,29.746808 7.875,56.59375 c 0,26.846942 25.106333,48.625 56.0625,48.625 7.266129,0 14.2222,-1.22383 20.59375,-3.40625 2.546249,8.46629 14.113027,18.05901 22.96875,18.21875 C 102.65082,118.62042 96.848592,108.73709 96.6875,96.0625 110.80285,87.235443 120,72.838737 120,56.59375 120,29.746808 94.893667,8 63.9375,8 z M 64,16.125 l 8,0 0.03125,9.3125 c 3.792135,0.816049 6.624217,2.466525 9.3125,4.15625 5.207315,3.273258 7.85477,7.877953 7.9375,13.8125 l -9.84375,0 C 79.297626,39.699985 76.209267,35.023603 72.03125,33.1875 l -0.0625,20.53125 2.8125,0.5625 c 5.537946,1.101296 9.805544,2.962978 12.78125,5.59375 3.0169,2.600233 4.499929,5.73671 4.5,9.46875 C 92.03926,72.789245 90.629966,76.189779 88.1875,79 84.081482,83.574505 78.19192,85.323639 72,86.875 L 72,96 64,96 64.09375,88.03125 C 61.583052,88.14327 58.671918,88.096128 56,87.96875 L 56,96 48,96 48,87.5625 C 43.329048,86.592463 39.500828,84.658488 35.46875,81.53125 30.943817,78.185385 28.293587,72.713239 28.09375,66.6875 l 9.84375,0 0,0.5 c 0.04789,5.850623 4.476947,9.683763 10.125,12.125 L 48.03125,57.21875 46.59375,56.875 c -10.662738,-2.049544 -16.000005,-7.188132 -16,-14.46875 -5e-6,-5.475682 2.583938,-9.817856 7.75,-12.96875 2.827196,-1.727241 6.201396,-2.991751 10.125,-3.78125 l 0,-9.40625 7.4375,0 L 56,24.0625 c 2.791737,-0.287642 5.3486,-0.07845 8.03125,-0.03125 L 64,16.125 z m -5.96875,15.71875 c -0.680393,0.0159 -1.352087,0.05176 -2,0.09375 L 56,50.625 l 8.0625,1.5 -0.03125,-20.0625 c -1.82213,-0.173453 -3.958821,-0.266456 -6,-0.21875 z M 48,33.03125 c -3.250847,0.766542 -6.547473,3.737272 -7.0625,8.25 -0.263628,2.309939 0.984968,4.153391 2.96875,5.46875 1.075973,0.713489 2.173596,1.29178 4.125,1.90625 L 48,33.03125 z m 8,26.0625 0,20.78125 c 2.572205,0.205059 5.317053,0.16272 8,0.09375 l 0.125,-19.375 C 61.426242,60.081123 58.707497,59.509108 56,59.09375 z M 72,61.875 72.03125,79.75 c 4.32203,-1.037819 9.105469,-3.995548 9.625,-9.59375 C 81.955241,65.691605 76.226222,62.902968 72,61.875 z"
         style="color:#000000;fill:#ffffff;fill-opacity:1;fill-rule:nonzero;stroke:none;stroke-width:0.90705854;marker:none;visibility:visible;display:inline;overflow:visible;enable-background:accumulate"
         inkscape:connector-curvature="0" />
    </mask>
  </defs>
  <sodipodi:namedview
     id="base"
     pagecolor="#ffffff"
     bordercolor="#666666"
     borderopacity="1.0"
     inkscape:pageopacity="0"
     inkscape:pageshadow="2"
     inkscape:zoom="4"
     inkscape:cx="64.25"
     inkscape:cy="65.125"
     inkscape:document-units="px"
     inkscape:current-layer="layer2"
     showgrid="true"
     inkscape:window-width="1868"
     inkscape:window-height="1016"
     inkscape:window-x="52"
     inkscape:window-y="27"
     inkscape:window-maximized="1"
     showguides="true"
     inkscape:guide-bbox="true"
     inkscape:snap-global="false"
     inkscape:showpageshadow="2"
     inkscape:pagecheckerboard="0"
     inkscape:deskcolor="#d1d1d1">
    <inkscape:grid
       type="xygrid"
       id="grid3901"
       empspacing="4"
       visible="true"
       enabled="false"
       snapvisiblegridlinesonly="true"
       dotted="false"
       spacingx="4"
       spacingy="4"
       color="#ff00bf"
       opacity="0.1254902"
       empcolor="#ff00cb"
       empopacity="0.25098039"
       originx="0"
       originy="0"
       units="px" />
    <sodipodi:guide
       orientation="0,1"
       position="51.88396,123.03658"
       id="guide3803"
       inkscape:locked="false" />
    <sodipodi:guide
       orientation="1,0"
       position="5.5,70.963216"
       id="guide3805"
       inkscape:locked="false" />
    <sodipodi:guide
       orientation="1,0"
       position="120,22.728432"
       id="guide3807"
       inkscape:locked="false" />
    <sodipodi:guide
       orientation="0,1"
       position="-33.335,8"
       id="guide3811"
       inkscape:locked="false" />
    <inkscape:grid
       type="xygrid"
       id="grid3221"
       empspacing="4"
       visible="true"
       enabled="true"
       snapvisiblegridlinesonly="true"
       spacingx="8"
       spacingy="8"
       originx="0"
       originy="0"
       units="px" />
  </sodipodi:namedview>
  <metadata
     id="metadata7">
    <rdf:RDF>
      <cc:Work
         rdf:about="">
        <dc:format>image/svg+xml</dc:format>
        <dc:type
           rdf:resource="http://purl.org/dc/dcmitype/StillImage" />
        <cc:license
           rdf:resource="http://creativecommons.org/licenses/by-sa/4.0/" />
      </cc:Work>
      <cc:License
         rdf:about="http://creativecommons.org/licenses/by-sa/4.0/">
        <cc:permits
           rdf:resource="http://creativecommons.org/ns#Reproduction" />
        <cc:permits
           rdf:resource="http://creativecommons.org/ns#Distribution" />
        <cc:requires
           rdf:resource="http://creativecommons.org/ns#Notice" />
        <cc:requires
           rdf:resource="http://creativecommons.org/ns#Attribution" />
        <cc:permits
           rdf:resource="http://creativecommons.org/ns#DerivativeWorks" />
        <cc:requires
           rdf:resource="http://creativecommons.org/ns#ShareAlike" />
      </cc:License>
    </rdf:RDF>
  </metadata>
  <g
     inkscape:label="base"
     inkscape:groupmode="layer"
     id="layer1"
     transform="translate(0,-924.36218)"
     style="display:none"
     sodipodi:insensitive="true">
    <rect
       ry="19.796612"
       rx="20.427839"
       y="927.12628"
       x="3.2320046"
       height="123.39314"
       width="123.39314"
       id="rect3766"
       style="color:#000000;display:inline;overflow:visible;visibility:visible;fill:#252628;fill-opacity:0.12861735;stroke:none;stroke-width:0.96400887;marker:none;filter:url(#filter3784);enable-background:accumulate"
       transform="matrix(1.0053767,0,0,1.0018799,-0.73513181,-1.9949957)" />
    <rect
       style="color:#000000;display:inline;overflow:visible;visibility:visible;fill:url(#linearGradient3849);fill-opacity:1;stroke:none;stroke-width:0.96400887;marker:none;enable-background:accumulate"
       id="rect2985"
       width="124.05659"
       height="123.62511"
       x="0.50349677"
       y="924.87036"
       rx="20.537672"
       ry="19.833828" />
    <g
       id="g3853"
       mask="url(#mask3859)"
       transform="matrix(1.0053767,0,0,1.0018799,-0.73513181,-1.9949957)">
      <path
         sodipodi:nodetypes="csssscccsssscc"
         inkscape:connector-curvature="0"
         id="rect3788"
         transform="translate(0,924.36218)"
         d="m 111.3125,2 c 1.0638,2.3966046 2.03056,5.049628 1.65625,7.8125 l -10,73.8125 c -1.47238,10.868035 -9.195281,18.23558 -20.40625,19.78125 l -72.53125,10 C 7.534242,113.75052 5.0997184,112.93384 2.875,112.125 c 0.7713464,1.76264 1.7621331,3.38896 3,4.84375 0.010886,0.01 0.020343,0.0216 0.03125,0.0312 3.6235707,3.20066 8.436326,5.15625 13.75,5.15625 l 82.53125,0 c 11.31702,0 20.4375,-8.81393 20.4375,-19.78125 l 0,-83.8125 c 0,-4.877214 -1.80986,-9.3136525 -4.8125,-12.75 C 115.92993,4.1823291 113.729,2.8665963 111.3125,2 Z"
         style="color:#000000;display:inline;overflow:visible;visibility:visible;fill:#c9c9cf;fill-opacity:0.25401928;stroke:none;stroke-width:0.96400887;marker:none;filter:url(#filter3835);enable-background:accumulate" />
      <path
         sodipodi:nodetypes="sssccsssscccss"
         inkscape:connector-curvature="0"
         id="rect3796"
         transform="translate(0,924.36218)"
         d="m 23.65625,2.75 c -11.317023,0 -20.4375,8.845177 -20.4375,19.8125 l 0,83.8125 c 0,4.8505 1.7783223,9.26046 4.75,12.6875 1.8502957,1.61847 4.000429,2.9035 6.375,3.78125 -0.720661,-2.02308 -1.488357,-4.23372 -1.125,-6.46875 l 12,-73.8125 C 26.978647,31.737301 34.451287,24.338652 45.65625,22.75 l 70.53125,-10 c 2.55597,-0.362388 5.0458,0.494454 7.3125,1.34375 -0.82375,-2.321834 -2.0613,-4.4443488 -3.65625,-6.28125 -0.0281,-0.024504 -0.0655,-0.038145 -0.0937,-0.0625 -3.60314,-3.110944 -8.3402,-5 -13.5625,-5 z"
         style="color:#000000;display:inline;overflow:visible;visibility:visible;fill:#ffffff;fill-opacity:1;stroke:none;stroke-width:0.96400887;marker:none;filter:url(#filter3839);enable-background:accumulate" />
    </g>
    <rect
       ry="19.833828"
       rx="20.537672"
       y="924.87036"
       x="0.50349677"
       height="123.62511"
       width="124.05659"
       id="rect3851"
       style="color:#000000;display:inline;overflow:visible;visibility:visible;fill:none;stroke:#cbcdd0;stroke-width:1.00362682;stroke-linecap:round;stroke-linejoin:round;stroke-miterlimit:4;stroke-dasharray:none;stroke-dashoffset:0;stroke-opacity:1;marker:none;enable-background:accumulate" />
  </g>
  <g
     inkscape:groupmode="layer"
     id="layer3"
     inkscape:label="outline">
    <path
       id="path3308"
       d="M 63.9375 8 C 32.981333 8 7.875 29.746808 7.875 56.59375 C 7.875 83.440692 32.981333 105.21875 63.9375 105.21875 C 71.203629 105.21875 78.1597 103.99492 84.53125 101.8125 C 87.077499 110.27879 98.644277 119.87151 107.5 120.03125 C 102.65082 118.62042 96.848592 108.73709 96.6875 96.0625 C 110.80285 87.235443 120 72.838737 120 56.59375 C 120 29.746808 94.893667 8 63.9375 8 z M 64 16.125 L 72 16.125 L 72.03125 25.4375 C 75.823385 26.253549 78.655467 27.904025 81.34375 29.59375 C 86.551065 32.867008 89.19852 37.471703 89.28125 43.40625 L 79.4375 43.40625 C 79.297626 39.699985 76.209267 35.023603 72.03125 33.1875 L 71.96875 53.71875 L 74.78125 54.28125 C 80.319196 55.382546 84.586794 57.244228 87.5625 59.875 C 90.5794 62.475233 92.062429 65.61171 92.0625 69.34375 C 92.03926 72.789245 90.629966 76.189779 88.1875 79 C 84.081482 83.574505 78.19192 85.323639 72 86.875 L 72 96 L 64 96 L 64.09375 88.03125 C 61.583052 88.14327 58.671918 88.096128 56 87.96875 L 56 96 L 48 96 L 48 87.5625 C 43.329048 86.592463 39.500828 84.658488 35.46875 81.53125 C 30.943817 78.185385 28.293587 72.713239 28.09375 66.6875 L 37.9375 66.6875 L 37.9375 67.1875 C 37.985385 73.038123 42.414447 76.871263 48.0625 79.3125 L 48.03125 57.21875 L 46.59375 56.875 C 35.931012 54.825456 30.593745 49.686868 30.59375 42.40625 C 30.593745 36.930568 33.177688 32.588394 38.34375 29.4375 C 41.170946 27.710259 44.545146 26.445749 48.46875 25.65625 L 48.46875 16.25 L 55.90625 16.25 L 56 24.0625 C 58.791737 23.774858 61.3486 23.98405 64.03125 24.03125 L 64 16.125 z M 58.03125 31.84375 C 57.350857 31.859652 56.679163 31.895511 56.03125 31.9375 L 56 50.625 L 64.0625 52.125 L 64.03125 32.0625 C 62.20912 31.889047 60.072429 31.796044 58.03125 31.84375 z M 48 33.03125 C 44.749153 33.797792 41.452527 36.768522 40.9375 41.28125 C 40.673872 43.591189 41.922468 45.434641 43.90625 46.75 C 44.982223 47.463489 46.079846 48.04178 48.03125 48.65625 L 48 33.03125 z M 56 59.09375 L 56 79.875 C 58.572205 80.080059 61.317053 80.03772 64 79.96875 L 64.125 60.59375 C 61.426242 60.081123 58.707497 59.509108 56 59.09375 z M 72 61.875 L 72.03125 79.75 C 76.35328 78.712181 81.136719 75.754452 81.65625 70.15625 C 81.955241 65.691605 76.226222 62.902968 72 61.875 z "
       style="display:inline;color:#000000;fill:none;fill-opacity:1;fill-rule:nonzero;stroke:#ffffff;stroke-width:2;marker:none;visibility:visible;overflow:visible;enable-background:accumulate;stroke-linecap:round;stroke-linejoin:round;stroke-miterlimit:4;stroke-opacity:1;stroke-dasharray:none;stroke-dashoffset:0" />
  </g>
  <g
     inkscape:groupmode="layer"
     id="layer2"
     inkscape:label="icon"
     style="display:inline">
    <path
       style="color:#000000;fill:url(#linearGradient3238);fill-opacity:1;fill-rule:nonzero;stroke:none;stroke-width:0.90705853999999997;marker:none;visibility:visible;display:inline;overflow:visible;enable-background:accumulate"
       d="M 63.9375 8 C 32.981333 8 7.875 29.746808 7.875 56.59375 C 7.875 83.440692 32.981333 105.21875 63.9375 105.21875 C 71.203629 105.21875 78.1597 103.99492 84.53125 101.8125 C 87.077499 110.27879 98.644277 119.87151 107.5 120.03125 C 102.65082 118.62042 96.848592 108.73709 96.6875 96.0625 C 110.80285 87.235443 120 72.838737 120 56.59375 C 120 29.746808 94.893667 8 63.9375 8 z M 64 16.125 L 72 16.125 L 72.03125 25.4375 C 75.823385 26.253549 78.655467 27.904025 81.34375 29.59375 C 86.551065 32.867008 89.19852 37.471703 89.28125 43.40625 L 79.4375 43.40625 C 79.297626 39.699985 76.209267 35.023603 72.03125 33.1875 L 71.96875 53.71875 L 74.78125 54.28125 C 80.319196 55.382546 84.586794 57.244228 87.5625 59.875 C 90.5794 62.475233 92.062429 65.61171 92.0625 69.34375 C 92.03926 72.789245 90.629966 76.189779 88.1875 79 C 84.081482 83.574505 78.19192 85.323639 72 86.875 L 72 96 L 64 96 L 64.09375 88.03125 C 61.583052 88.14327 58.671918 88.096128 56 87.96875 L 56 96 L 48 96 L 48 87.5625 C 43.329048 86.592463 39.500828 84.658488 35.46875 81.53125 C 30.943817 78.185385 28.293587 72.713239 28.09375 66.6875 L 37.9375 66.6875 L 37.9375 67.1875 C 37.985385 73.038123 42.414447 76.871263 48.0625 79.3125 L 48.03125 57.21875 L 46.59375 56.875 C 35.931012 54.825456 30.593745 49.686868 30.59375 42.40625 C 30.593745 36.930568 33.177688 32.588394 38.34375 29.4375 C 41.170946 27.710259 44.545146 26.445749 48.46875 25.65625 L 48.46875 16.25 L 55.90625 16.25 L 56 24.0625 C 58.791737 23.774858 61.3486 23.98405 64.03125 24.03125 L 64 16.125 z M 58.03125 31.84375 C 57.350857 31.859652 56.679163 31.895511 56.03125 31.9375 L 56 50.625 L 64.0625 52.125 L 64.03125 32.0625 C 62.20912 31.889047 60.072429 31.796044 58.03125 31.84375 z M 48 33.03125 C 44.749153 33.797792 41.452527 36.768522 40.9375 41.28125 C 40.673872 43.591189 41.922468 45.434641 43.90625 46.75 C 44.982223 47.463489 46.079846 48.04178 48.03125 48.65625 L 48 33.03125 z M 56 59.09375 L 56 79.875 C 58.572205 80.080059 61.317053 80.03772 64 79.96875 L 64.125 60.59375 C 61.426242 60.081123 58.707497 59.509108 56 59.09375 z M 72 61.875 L 72.03125 79.75 C 76.35328 78.712181 81.136719 75.754452 81.65625 70.15625 C 81.955241 65.691605 76.226222 62.902968 72 61.875 z "
       id="path3047" />
    <g
       transform="scale(0.9823039,1.0180149)"
       style="font-size:90.66625977px;font-style:normal;font-variant:normal;font-weight:bold;font-stretch:normal;line-height:125%;letter-spacing:0px;word-spacing:0px;color:#000000;fill:#ffffff;fill-opacity:1;fill-rule:nonzero;stroke:none;stroke-width:0.90705854;marker:none;visibility:visible;display:inline;overflow:visible;enable-background:accumulate;font-family:URW Bookman L;-inkscape-font-specification:URW Bookman L Bold"
       id="text3058-2-4" />
    <g
       id="g3317"
       mask="url(#mask4091)">
      <path
         sodipodi:nodetypes="sscsscsccccccccccsccccccscsccscccccccccccccccccccccccccccccccccccccccccccccccccccccccccccccccccccccccccc"
         inkscape:connector-curvature="0"
         id="path3254"
         d="M 63.9375,8 C 32.981333,8 7.875,29.746808 7.875,56.59375 7.875,69.664175 13.851805,81.5106 23.53125,90.25 16.23041,82.039744 11.875,71.759997 11.875,60.59375 11.875,33.746808 36.981333,12 67.9375,12 83.797725,12 98.113188,17.696849 108.3125,26.875 98.057748,15.38587 81.989308,8 63.9375,8 z M 72,16.125 l 0.03125,9.3125 c 1.458645,0.313893 2.778991,0.734445 4,1.25 L 76,20.125 z M 55.96875,16.25 56,24.0625 c 1.352258,-0.139328 2.654468,-0.175186 3.9375,-0.15625 L 59.90625,20.25 z m 2.0625,15.59375 c -0.680393,0.0159 -1.352087,0.05176 -2,0.09375 L 56,50.625 l 4,0.75 0.03125,-15.4375 c 1.374101,-0.112548 2.716787,-0.09766 4,-0.0625 l 0,-3.8125 c -1.82213,-0.173453 -3.958821,-0.266456 -6,-0.21875 z M 48,33.03125 c -3.250847,0.766542 -6.547473,3.737272 -7.0625,8.25 -0.263628,2.309939 0.984968,4.153391 2.96875,5.46875 0.407045,0.269916 0.822956,0.509503 1.28125,0.75 -0.235197,-0.681295 -0.340622,-1.424708 -0.25,-2.21875 C 45.231211,42.707722 46.421405,40.635231 48,39.1875 z m 24.03125,0.15625 -0.0625,20.53125 2.8125,0.5625 c 0.404291,0.0804 0.796758,0.161493 1.1875,0.25 l 0.0625,-17.34375 c 0.508926,0.223656 0.99552,0.480194 1.46875,0.78125 -1.326253,-2.014646 -3.242598,-3.802929 -5.46875,-4.78125 z m 14.5,1.21875 c 1.784095,2.552424 2.701859,5.546646 2.75,9 l -9.78125,0 3.9375,4 9.84375,0 c -0.07612,-5.460061 -2.335665,-9.792576 -6.75,-13 z M 36.46875,53.0625 c 2.092615,3.283342 5.944714,5.7771 11.5625,7.25 l 0,-3.09375 -1.4375,-0.34375 c -4.207255,-0.8087 -7.576713,-2.100111 -10.125,-3.8125 z M 56,59.09375 56,79.875 c 1.29607,0.103324 2.64627,0.150307 4,0.15625 l 0,-16.9375 c 1.363791,0.20922 2.728244,0.457647 4.09375,0.71875 L 64.125,60.59375 C 61.426242,60.081123 58.707497,59.509108 56,59.09375 z M 72,61.875 72.03125,79.75 c 1.337706,-0.321214 2.713995,-0.820833 4,-1.53125 L 76,65.875 c 1.679743,0.408573 3.599545,1.102968 5.28125,2.0625 C 79.963175,64.755858 75.476728,62.720664 72,61.875 z m 18.125,0.875 c 1.292418,1.95332 1.937453,4.143968 1.9375,6.59375 C 92.03926,72.789245 90.629966,76.189779 88.1875,79 84.081482,83.574505 78.19192,85.323639 72,86.875 L 72,96 64.0625,96 68,100 l 8,0 0,-9.125 C 82.19192,89.323639 88.081482,87.574505 92.1875,83 c 2.442466,-2.810221 3.85176,-6.210755 3.875,-9.65625 -7.1e-5,-3.73204 -1.4831,-6.868517 -4.5,-9.46875 -0.446002,-0.394303 -0.933528,-0.765222 -1.4375,-1.125 z m -52.269607,4.004219 c -0.556771,5.008882 3.446983,8.499575 5.832107,10.152031 -1.074659,-1.654428 -1.732121,-3.534465 -1.75,-5.71875 l 0,-0.5 z M 35.71875,81.71875 c 1.043534,1.449913 2.305825,2.744636 3.75,3.8125 2.827866,2.193263 5.542883,3.807761 8.53125,4.90625 l 0,-2.875 C 43.42636,86.612672 39.658954,84.732251 35.71875,81.71875 z M 56,87.96875 56,96 l -8,0 4,4 8,0 0,-8.03125 c 1.315582,0.06272 2.676035,0.110607 4.03125,0.125 l 0.0625,-4.0625 C 61.583052,88.14327 58.671918,88.096128 56,87.96875 z m 32.53125,17.84375 -3.93382,-4.00244 c 0.255546,3.38326 5.6112,9.78777 8.27757,11.56494 -2.040949,-2.43704 -3.587345,-5.04745 -4.34375,-7.5625 z m 17.65625,13.625 c 0.13293,0.19295 0.27117,0.38005 0.40625,0.5625 0.30265,0.0262 0.60926,0.0259 0.90625,0.0312 -0.43282,-0.12592 -0.86919,-0.33687 -1.3125,-0.59375 z"
         style="color:#000000;fill:#141414;fill-opacity:0.73170734;fill-rule:nonzero;stroke:none;stroke-width:0.96344244;marker:none;visibility:visible;display:inline;overflow:visible;filter:url(#filter3822-9-6-4-5-2-3-1);enable-background:accumulate" />
      <path
         sodipodi:nodetypes="ccccccccccccscscccccccccccccscccscccccccccccccccccccccccccccccccccccccccccccccccccccccsccsccccccccccccccc"
         inkscape:connector-curvature="0"
         id="path3282"
         d="m 60,12.125 0.03125,7.90625 c -1.383231,-0.02434 -2.727962,-0.104842 -4.09375,-0.125 L 56,24.0625 c 2.791737,-0.287642 5.3486,-0.07845 8.03125,-0.03125 L 64,16.125 l 8,0 -4,-4 z m -15.53125,0.125 0,9.40625 c -3.923604,0.789499 -7.297804,2.054009 -10.125,3.78125 -5.166062,3.150894 -7.750005,7.493068 -7.75,12.96875 -3e-6,4.407865 1.964987,8.028813 5.875,10.65625 -1.240962,-1.947088 -1.875002,-4.173374 -1.875,-6.65625 -5e-6,-5.475682 2.583938,-9.817856 7.75,-12.96875 2.827196,-1.727241 6.201396,-2.991751 10.125,-3.78125 l 0,-9.40625 7.5,0 -4.0625,-4 z m 27.5625,10.4375 0,2.75 c 3.792135,0.816049 6.624217,2.466525 9.3125,4.15625 0.416341,0.261707 0.803889,0.533771 1.1875,0.8125 -1.28185,-1.833886 -3.010358,-3.443974 -5.1875,-4.8125 -1.654234,-1.039772 -3.359173,-2.081483 -5.3125,-2.90625 z M 104.3125,22.875 C 111.64312,31.08802 116,41.402359 116,52.59375 c 0,16.244987 -9.19715,30.641693 -23.3125,39.46875 0.146714,11.54331 4.976536,20.75387 9.5,23.375 -2.988165,-4.33749 -5.397088,-11.27794 -5.5,-19.375 C 110.80285,87.235443 120,72.838737 120,56.59375 120,43.501694 114.02032,31.610867 104.3125,22.875 z m -44.28125,9 0.03125,16.25 -4.0625,-0.75 0,3.25 8.0625,1.5 -0.03125,-20.0625 c -1.233126,-0.117384 -2.605842,-0.162483 -4,-0.1875 z M 48,33.03125 c -1.396947,0.329397 -2.8105,1.065359 -4,2.15625 l 0.03125,9.46875 C 42.818071,44.274237 41.940649,43.895226 41.1875,43.5 c 0.449012,1.300654 1.416893,2.386796 2.71875,3.25 1.075973,0.713489 2.173596,1.29178 4.125,1.90625 z M 73.53125,34 c 1.148915,1.75686 1.841345,3.68645 1.90625,5.40625 l 4.024049,3.977476 C 79.399858,38.864395 75.594812,35.323681 73.53125,34 z m -1.5625,16.53125 0,3.1875 2.8125,0.5625 C 79.489163,55.217483 83.26649,56.709354 86.125,58.75 85.448526,57.727598 84.59905,56.768391 83.5625,55.875 80.804032,53.436284 76.930358,51.655107 71.96875,50.53125 z m -27.9375,5.78125 0.03125,19 c -1.574204,-0.680412 -3.058651,-1.464789 -4.375,-2.375 1.805678,2.765927 4.844967,4.849227 8.375,6.375 L 48.03125,57.21875 46.59375,56.875 c -0.894698,-0.171975 -1.742799,-0.347587 -2.5625,-0.5625 z m 16.0625,3.5 L 60,75.96875 c -1.331077,0.03422 -2.667092,0.06835 -4,0.0625 l 0,3.84375 c 2.572205,0.205059 5.317053,0.16272 8,0.09375 l 0.125,-19.375 C 62.785631,60.339338 61.439147,60.069758 60.09375,59.8125 z m -36,2.875 c 0.199837,6.025739 2.850067,11.497885 7.375,14.84375 0.084,0.06515 0.166166,0.123383 0.25,0.1875 -2.226099,-3.092999 -3.488943,-6.928682 -3.625,-11.03125 L 37.724874,66.75 33.9375,62.6875 z m 53.1875,1.25 c 0.284143,0.685881 0.428024,1.426973 0.375,2.21875 -0.358732,3.865509 -2.756019,6.477613 -5.625,8.0625 l 0,5.53125 c 4.32203,-1.037819 9.105469,-3.995548 9.625,-9.59375 0.180155,-2.690139 -1.825547,-4.764106 -4.375,-6.21875 z m -57.75,22.3125 c 10.252526,11.529614 26.325449,18.96875 44.40625,18.96875 6.581396,0 14.725055,-1.50152 20.59375,-3.3125 l -4,-4.09375 c -6.37155,2.18242 -13.327621,3.40625 -20.59375,3.40625 -15.885167,0 -30.203901,-5.757229 -40.40625,-14.96875 z M 44,86.4375 44,92 l 4,4 0,-8.4375 c -1.395017,-0.289709 -2.72744,-0.657222 -4,-1.125 z m 20.09375,1.59375 c -1.274497,0.05686 -2.665302,0.07734 -4.0625,0.0625 L 60,92 64.0625,96 z M 88.875,109.375 c 4.829398,5.76665 12.40001,10.54396 18.625,10.65625 -1.61351,-0.46944 -3.32463,-1.89503 -4.90625,-4.03125 -4.485592,-0.38798 -9.528641,-3.04767 -13.71875,-6.625 z"
         style="color:#000000;fill:#ffffff;fill-opacity:0.39430895;fill-rule:nonzero;stroke:none;stroke-width:1.12298417;marker:none;visibility:visible;display:inline;overflow:visible;filter:url(#filter3822-2-0-2);enable-background:accumulate" />
    </g>
  </g>
</svg>
