<?xml version="1.0" encoding="UTF-8" standalone="no"?>
<!-- Created with Inkscape (http://www.inkscape.org/) -->

<svg
   width="128"
   height="128"
   id="svg2"
   version="1.1"
   inkscape:version="1.3.2 (1:1.3.2+202311252150+091e20ef0f)"
   sodipodi:docname="opportunity.svg"
   inkscape:export-filename="opportunity_12.png"
   inkscape:export-xdpi="9"
   inkscape:export-ydpi="9"
   xmlns:inkscape="http://www.inkscape.org/namespaces/inkscape"
   xmlns:sodipodi="http://sodipodi.sourceforge.net/DTD/sodipodi-0.dtd"
   xmlns:xlink="http://www.w3.org/1999/xlink"
   xmlns="http://www.w3.org/2000/svg"
   xmlns:svg="http://www.w3.org/2000/svg"
   xmlns:rdf="http://www.w3.org/1999/02/22-rdf-syntax-ns#"
   xmlns:cc="http://creativecommons.org/ns#"
   xmlns:dc="http://purl.org/dc/elements/1.1/">
  <defs
     id="defs4">
    <linearGradient
       id="linearGradient3843">
      <stop
         style="stop-color:#f9f9fa;stop-opacity:1;"
         offset="0"
         id="stop3845" />
      <stop
         style="stop-color:#efeff0;stop-opacity:1;"
         offset="1"
         id="stop3847" />
    </linearGradient>
    <filter
       inkscape:collect="always"
       id="filter3784"
       x="-0.014414414"
       y="-0.014414414"
       width="1.0288288"
       height="1.0288288">
      <feGaussianBlur
         inkscape:collect="always"
         stdDeviation="0.74109996"
         id="feGaussianBlur3786" />
    </filter>
    <filter
       inkscape:collect="always"
       id="filter3835"
       x="-0.11912061"
       width="1.2382412"
       y="-0.11871791"
       height="1.2374358">
      <feGaussianBlur
         inkscape:collect="always"
         stdDeviation="5.9436221"
         id="feGaussianBlur3837" />
    </filter>
    <filter
       inkscape:collect="always"
       id="filter3839"
       x="-0.090019872"
       y="-0.090160418"
       width="1.1800397"
       height="1.1803208">
      <feGaussianBlur
         inkscape:collect="always"
         stdDeviation="4.5115428"
         id="feGaussianBlur3841" />
    </filter>
    <linearGradient
       inkscape:collect="always"
       xlink:href="#linearGradient3843"
       id="linearGradient3849"
       x1="14.267717"
       y1="932.53717"
       x2="86.410866"
       y2="1016.1086"
       gradientUnits="userSpaceOnUse"
       gradientTransform="matrix(1.0060912,0,0,1.0019179,-0.71239998,-2.0325097)" />
    <mask
       maskUnits="userSpaceOnUse"
       id="mask3859">
      <rect
         ry="19.796612"
         rx="20.427839"
         y="925.12628"
         x="1.2320045"
         height="123.39314"
         width="123.39314"
         id="rect3861"
         style="color:#000000;fill:#ffffff;fill-opacity:1;stroke:none;stroke-width:0.96400887;marker:none;visibility:visible;display:inline;overflow:visible;enable-background:accumulate" />
    </mask>
    <linearGradient
       id="linearGradient3834-0-7-118-6-4-8-2-6-6-6-4">
      <stop
         style="stop-color:#626262;stop-opacity:1;"
         offset="0"
         id="stop3836-1-1-88-7-5-5-6-4-6-4-4" />
      <stop
         style="stop-color:#707070;stop-opacity:1;"
         offset="1"
         id="stop3838-0-6-22-3-8-6-6-4-9-7-7" />
    </linearGradient>
    <linearGradient
       inkscape:collect="always"
       xlink:href="#linearGradient3834-0-7-118-6-4-8-2-6-6-6-4"
       id="linearGradient3027"
       gradientUnits="userSpaceOnUse"
       gradientTransform="matrix(0.09478568,0.05708057,-0.08001247,0.07025394,174.78386,-520.2927)"
       x1="2829.4541"
       y1="2893.1689"
       x2="2002.5192"
       y2="3771.5156" />
    <linearGradient
       inkscape:collect="always"
       xlink:href="#linearGradient3834-0-7-118-6-4-8-2-6-6-6-4-5"
       id="linearGradient3027-8"
       gradientUnits="userSpaceOnUse"
       gradientTransform="matrix(0.10315691,0.06239494,-0.08707897,0.07679479,191.90827,-567.86017)"
       x1="2766.2371"
       y1="5251.1499"
       x2="4025.5193"
       y2="5686.4292" />
    <linearGradient
       id="linearGradient3834-0-7-118-6-4-8-2-6-6-6-4-5">
      <stop
         style="stop-color:#626262;stop-opacity:1;"
         offset="0"
         id="stop3836-1-1-88-7-5-5-6-4-6-4-4-6" />
      <stop
         style="stop-color:#707070;stop-opacity:1;"
         offset="1"
         id="stop3838-0-6-22-3-8-6-6-4-9-7-7-7" />
    </linearGradient>
    <linearGradient
       inkscape:collect="always"
       xlink:href="#linearGradient3834-0-7-118-6-4-8-2-6-6-6-4-5"
       id="linearGradient3089"
       gradientUnits="userSpaceOnUse"
       gradientTransform="matrix(0.09478568,0.05708057,-0.08001247,0.07025394,301.53386,-514.0427)"
       x1="2829.4541"
       y1="2893.1689"
       x2="2002.5192"
       y2="3771.5156" />
    <linearGradient
       inkscape:collect="always"
       xlink:href="#linearGradient3834-0-7-118-6-4-8-2-6-6-6-4-5"
       id="linearGradient3091"
       gradientUnits="userSpaceOnUse"
       gradientTransform="matrix(-0.09478568,0.05708057,0.08001247,0.07025394,66.466144,-514.0648)"
       x1="2829.4541"
       y1="2893.1689"
       x2="2002.5192"
       y2="3771.5156" />
    <linearGradient
       inkscape:collect="always"
       xlink:href="#linearGradient3834-0-7-118-6-4-8-2-6-6-6-4-5"
       id="linearGradient3093"
       gradientUnits="userSpaceOnUse"
       gradientTransform="matrix(0.09478568,-0.05708057,-0.08001247,-0.07025394,301.53386,642.02953)"
       x1="2829.4541"
       y1="2893.1689"
       x2="2002.5192"
       y2="3771.5156" />
    <linearGradient
       inkscape:collect="always"
       xlink:href="#linearGradient3834-0-7-118-6-4-8-2-6-6-6-4-5"
       id="linearGradient3095"
       gradientUnits="userSpaceOnUse"
       gradientTransform="matrix(-0.09478568,-0.05708057,0.08001247,-0.07025394,66.466144,642.05163)"
       x1="2829.4541"
       y1="2893.1689"
       x2="2002.5192"
       y2="3771.5156" />
    <linearGradient
       inkscape:collect="always"
       xlink:href="#linearGradient3834-0-7-118-6-4-8-2-6-6-6-4-5"
       id="linearGradient3117"
       gradientUnits="userSpaceOnUse"
       gradientTransform="matrix(0.10315691,0.06239494,-0.08707897,0.07679479,191.90827,-427.86017)"
       x1="2829.4541"
       y1="2893.1689"
       x2="2002.5192"
       y2="3771.5156" />
    <linearGradient
       inkscape:collect="always"
       xlink:href="#linearGradient3834-0-7-118-6-4-8-2-6-6-6-4-5"
       id="linearGradient3119"
       gradientUnits="userSpaceOnUse"
       gradientTransform="matrix(-0.06308556,0.10273602,-0.0762089,-0.08759218,694.89288,336.11333)"
       x1="2829.4541"
       y1="2893.1689"
       x2="2002.5192"
       y2="3771.5156" />
    <linearGradient
       inkscape:collect="always"
       xlink:href="#linearGradient3834-0-7-118-6-4-8-2-6-6-6-4-5"
       id="linearGradient3121"
       gradientUnits="userSpaceOnUse"
       gradientTransform="matrix(-0.10315691,-0.06239494,0.08707897,-0.07679479,-63.972622,835.73494)"
       x1="2829.4541"
       y1="2893.1689"
       x2="2002.5192"
       y2="3771.5156" />
    <linearGradient
       inkscape:collect="always"
       xlink:href="#linearGradient3834-0-7-118-6-4-8-2-6-6-6-4-5"
       id="linearGradient3123"
       gradientUnits="userSpaceOnUse"
       gradientTransform="matrix(0.06308556,-0.10273602,0.0762089,0.08759218,-566.95723,71.761442)"
       x1="2829.4541"
       y1="2893.1689"
       x2="2002.5192"
       y2="3771.5156" />
    <filter
       color-interpolation-filters="sRGB"
       inkscape:collect="always"
       id="filter3822-9-6-4-3-9-8-7-5-5-2-3"
       x="-0.062725551"
       y="-0.062654008"
       width="1.1254511"
       height="1.125308">
      <feGaussianBlur
         inkscape:collect="always"
         stdDeviation="2.8610366"
         id="feGaussianBlur3824-5-7-3-1-6-2-3-4-0-1-7" />
    </filter>
    <filter
       color-interpolation-filters="sRGB"
       inkscape:collect="always"
       id="filter3822-2-7-6-8-3-1-3-7-0-8-2"
       x="-0.062404887"
       y="-0.063085732"
       width="1.1248098"
       height="1.1261715">
      <feGaussianBlur
         inkscape:collect="always"
         stdDeviation="2.8610366"
         id="feGaussianBlur3824-4-8-9-4-4-7-8-1-9-3-8" />
    </filter>
    <mask
       maskUnits="userSpaceOnUse"
       id="mask3978">
      <path
         sodipodi:nodetypes="scscccscscccscscccscscccs"
         inkscape:connector-curvature="0"
         id="path3980"
         d="M 40,8 C 24,8 24,16 24,24 16,24 8,28 8,40 8,52 20,60 32,60 l 24,4 -24,4 C 20,68 8,72 8,88 c 0,16 8,16 16,16 0,8 4,16 16,16 12,0 20,-12 20,-24 L 64,72.03125 68,96 c 0,12 4,24 20,24 16,0 16,-8 16,-16 8,0 16,-5.319977 16,-16 C 120,76 108,68 96,68 L 72.03125,64.03125 96,60 c 12,0 24,-4 23.96875,-19.71875 C 119.94433,27.999985 112,24 104,24 104,16 98.898577,8.689746 88.21875,8.625 76.715076,8.5552584 68,20 68,32 L 64.03125,56.0625 60,32 C 60,20 56,8 40,8 z"
         style="color:#000000;fill:#ffffff;fill-opacity:1;fill-rule:nonzero;stroke:none;stroke-width:9.3633728;marker:none;visibility:visible;display:inline;overflow:visible;enable-background:accumulate" />
    </mask>
  </defs>
  <sodipodi:namedview
     id="base"
     pagecolor="#ffffff"
     bordercolor="#666666"
     borderopacity="1.0"
     inkscape:pageopacity="0"
     inkscape:pageshadow="2"
     inkscape:zoom="2"
     inkscape:cx="38.5"
     inkscape:cy="-1.25"
     inkscape:document-units="px"
     inkscape:current-layer="layer3"
     showgrid="true"
     inkscape:window-width="1868"
     inkscape:window-height="1016"
     inkscape:window-x="52"
     inkscape:window-y="27"
     inkscape:window-maximized="1"
     showguides="true"
     inkscape:guide-bbox="true"
     inkscape:snap-global="false"
     inkscape:showpageshadow="2"
     inkscape:pagecheckerboard="0"
     inkscape:deskcolor="#d1d1d1">
    <inkscape:grid
       type="xygrid"
       id="grid3901"
       empspacing="4"
       visible="true"
       enabled="true"
       snapvisiblegridlinesonly="true"
       dotted="false"
       spacingx="4"
       spacingy="4"
       color="#ff00bf"
       opacity="0.1254902"
       empcolor="#ff00cb"
       empopacity="0.25098039"
       originx="0"
       originy="0"
       units="px" />
    <sodipodi:guide
       orientation="0,1"
       position="82.074894,122.481"
       id="guide3803"
       inkscape:locked="false" />
    <sodipodi:guide
       orientation="1,0"
       position="5.5,70.963216"
       id="guide3805"
       inkscape:locked="false" />
    <sodipodi:guide
       orientation="1,0"
       position="120,22.728432"
       id="guide3807"
       inkscape:locked="false" />
    <sodipodi:guide
       orientation="0,1"
       position="-33.335,8"
       id="guide3811"
       inkscape:locked="false" />
    <inkscape:grid
       type="xygrid"
       id="grid3852"
       empspacing="4"
       visible="true"
       enabled="true"
       snapvisiblegridlinesonly="true"
       spacingx="8"
       spacingy="8"
       originx="0"
       originy="0"
       units="px" />
  </sodipodi:namedview>
  <metadata
     id="metadata7">
    <rdf:RDF>
      <cc:Work
         rdf:about="">
        <dc:format>image/svg+xml</dc:format>
        <dc:type
           rdf:resource="http://purl.org/dc/dcmitype/StillImage" />
        <cc:license
           rdf:resource="http://creativecommons.org/licenses/by-sa/4.0/" />
      </cc:Work>
      <cc:License
         rdf:about="http://creativecommons.org/licenses/by-sa/4.0/">
        <cc:permits
           rdf:resource="http://creativecommons.org/ns#Reproduction" />
        <cc:permits
           rdf:resource="http://creativecommons.org/ns#Distribution" />
        <cc:requires
           rdf:resource="http://creativecommons.org/ns#Notice" />
        <cc:requires
           rdf:resource="http://creativecommons.org/ns#Attribution" />
        <cc:permits
           rdf:resource="http://creativecommons.org/ns#DerivativeWorks" />
        <cc:requires
           rdf:resource="http://creativecommons.org/ns#ShareAlike" />
      </cc:License>
    </rdf:RDF>
  </metadata>
  <g
     inkscape:label="base"
     inkscape:groupmode="layer"
     id="layer1"
     transform="translate(0,-924.36218)"
     style="display:none"
     sodipodi:insensitive="true">
    <rect
       ry="19.796612"
       rx="20.427839"
       y="927.12628"
       x="3.2320046"
       height="123.39314"
       width="123.39314"
       id="rect3766"
       style="color:#000000;display:inline;overflow:visible;visibility:visible;fill:#252628;fill-opacity:0.128617;stroke:none;stroke-width:0.964009;marker:none;filter:url(#filter3784);enable-background:accumulate"
       transform="matrix(1.0060912,0,0,1.0019179,-0.71239998,-2.0325097)" />
    <rect
       style="color:#000000;display:inline;overflow:visible;visibility:visible;fill:url(#linearGradient3849);fill-opacity:1;stroke:none;stroke-width:0.964009;marker:none;enable-background:accumulate"
       id="rect2985"
       width="124.14474"
       height="123.6298"
       x="0.52710891"
       y="924.86804"
       rx="20.552269"
       ry="19.834579" />
    <g
       id="g3853"
       mask="url(#mask3859)"
       transform="matrix(1.0060912,0,0,1.0019179,-0.71239998,-2.0325097)">
      <path
         sodipodi:nodetypes="csssscccsssscc"
         inkscape:connector-curvature="0"
         id="rect3788"
         transform="translate(0,924.36218)"
         d="m 111.3125,2 c 1.0638,2.3966046 2.03056,5.049628 1.65625,7.8125 l -10,73.8125 c -1.47238,10.868035 -9.195281,18.23558 -20.40625,19.78125 l -72.53125,10 C 7.534242,113.75052 5.0997184,112.93384 2.875,112.125 c 0.7713464,1.76264 1.7621331,3.38896 3,4.84375 0.010886,0.01 0.020343,0.0216 0.03125,0.0312 3.6235707,3.20066 8.436326,5.15625 13.75,5.15625 h 82.53125 c 11.31702,0 20.4375,-8.81393 20.4375,-19.78125 v -83.8125 c 0,-4.877214 -1.80986,-9.3136525 -4.8125,-12.75 C 115.92993,4.1823291 113.729,2.8665963 111.3125,2 Z"
         style="color:#000000;display:inline;overflow:visible;visibility:visible;fill:#c9c9cf;fill-opacity:0.254019;stroke:none;stroke-width:0.964009;marker:none;filter:url(#filter3835);enable-background:accumulate" />
      <path
         sodipodi:nodetypes="sssccsssscccss"
         inkscape:connector-curvature="0"
         id="rect3796"
         transform="translate(0,924.36218)"
         d="m 23.65625,2.75 c -11.317023,0 -20.4375,8.845177 -20.4375,19.8125 v 83.8125 c 0,4.8505 1.7783223,9.26046 4.75,12.6875 1.8502957,1.61847 4.000429,2.9035 6.375,3.78125 -0.720661,-2.02308 -1.488357,-4.23372 -1.125,-6.46875 l 12,-73.8125 C 26.978647,31.737301 34.451287,24.338652 45.65625,22.75 l 70.53125,-10 c 2.55597,-0.362388 5.0458,0.494454 7.3125,1.34375 -0.82375,-2.321834 -2.0613,-4.4443488 -3.65625,-6.28125 -0.0281,-0.024504 -0.0655,-0.038145 -0.0937,-0.0625 -3.60314,-3.110944 -8.3402,-5 -13.5625,-5 z"
         style="color:#000000;display:inline;overflow:visible;visibility:visible;fill:#ffffff;fill-opacity:1;stroke:none;stroke-width:0.964009;marker:none;filter:url(#filter3839);enable-background:accumulate" />
    </g>
    <rect
       ry="19.834579"
       rx="20.552269"
       y="924.86804"
       x="0.52710891"
       height="123.6298"
       width="124.14474"
       id="rect3851"
       style="color:#000000;display:inline;overflow:visible;visibility:visible;fill:none;stroke:#cbcdd0;stroke-width:1.004;stroke-linecap:round;stroke-linejoin:round;stroke-miterlimit:4;stroke-dasharray:none;stroke-dashoffset:0;stroke-opacity:1;marker:none;enable-background:accumulate" />
  </g>
  <g
     inkscape:groupmode="layer"
     id="layer2"
     inkscape:label="outline"
     style="display:inline">
    <path
       sodipodi:nodetypes="scscccscscccscscccscscccs"
       inkscape:connector-curvature="0"
       id="path3139"
       d="M 40,8 C 24,8 24,16 24,24 16,24 8,28 8,40 8,52 20,60 32,60 l 24,4 -24,4 C 20,68 8,72 8,88 c 0,16 8,16 16,16 0,8 4,16 16,16 12,0 20,-12 20,-24 L 64,72.03125 68,96 c 0,12 4,24 20,24 16,0 16,-8 16,-16 8,0 16,-5.319977 16,-16 C 120,76 108,68 96,68 L 72.03125,64.03125 96,60 c 12,0 24,-4 23.96875,-19.71875 C 119.94433,27.999985 112,24 104,24 104,16 98.898577,8.689746 88.21875,8.625 76.715076,8.5552584 68,20 68,32 L 64.03125,56.0625 60,32 C 60,20 56,8 40,8 z"
       style="display:inline;color:#000000;fill:none;fill-opacity:1;fill-rule:nonzero;stroke:#ffffff;stroke-width:2;marker:none;visibility:visible;overflow:visible;enable-background:accumulate;stroke-linecap:round;stroke-linejoin:round;stroke-miterlimit:4;stroke-opacity:1;stroke-dasharray:none;stroke-dashoffset:0" />
  </g>
  <g
     inkscape:groupmode="layer"
     id="layer3"
     inkscape:label="icon"
     style="display:inline">
    <path
       style="color:#000000;fill:url(#linearGradient3027-8);fill-opacity:1;fill-rule:nonzero;stroke:none;stroke-width:9.36337280000000050;marker:none;visibility:visible;display:inline;overflow:visible;enable-background:accumulate"
       d="M 40,8 C 24,8 24,16 24,24 16,24 8,28 8,40 8,52 20,60 32,60 l 24,4 -24,4 C 20,68 8,72 8,88 c 0,16 8,16 16,16 0,8 4,16 16,16 12,0 20,-12 20,-24 L 64,72.03125 68,96 c 0,12 4,24 20,24 16,0 16,-8 16,-16 8,0 16,-5.319977 16,-16 C 120,76 108,68 96,68 L 72.03125,64.03125 96,60 c 12,0 24,-4 23.96875,-19.71875 C 119.94433,27.999985 112,24 104,24 104,16 98.898577,8.689746 88.21875,8.625 76.715076,8.5552584 68,20 68,32 L 64.03125,56.0625 60,32 C 60,20 56,8 40,8 z"
       id="path3046"
       inkscape:connector-curvature="0"
       sodipodi:nodetypes="scscccscscccscscccscscccs" />
    <g
       id="g3204"
       mask="url(#mask3978)">
      <path
         sodipodi:nodetypes="scscscscssccccscsccccccscsccccccccccccccccccc"
         inkscape:connector-curvature="0"
         id="path3161"
         d="M 40,8 C 24,8 24,16 24,24 16,24 8,28 8,40 8,46.063345 11.076904,51.088862 15.65625,54.59375 13.391125,51.611939 12,48.042751 12,44 12,32 20,28 28,28 c 0,-8 0,-16 16,-16 5.04163,0 8.872271,1.211244 11.78125,3.21875 C 52.760609,10.883893 47.823047,8 40,8 z M 88.21875,8.625 C 76.715076,8.5552584 68,20 68,32 L 64,56 68.03125,60.0625 72,36 C 72,24 80.715076,12.555258 92.21875,12.625 96.013839,12.64801 99.092328,13.597567 101.5,15.15625 99.006031,11.314299 94.629098,8.6638625 88.21875,8.625 z M 104,24 c 0.25785,1.206439 4,2.732906 4,4 3.36581,0 6.70832,0.733831 9.46875,2.46875 C 113.60175,24.248095 107.14211,24.088747 104,24 z M 56,64 32,68 C 20,68 8,72 8,88 c 0,8.843818 2.431412,12.79336 5.96875,14.5625 C 12.729212,100.20824 12,96.833333 12,92 12,76 24,72 36,72 l 24,-4 z m 16,0 4.03125,4.03125 L 100,72 c 5.93666,0 11.86009,1.974594 16.34375,5.40625 C 111.88536,71.537224 103.95725,68 96,68 z M 68,76.03125 64,72 68,96 c 0,8.21878 1.89586,16.41778 8.21875,20.78125 C 73.061459,112.25029 72,106.13271 72,100 z M 24,104 c -0.535598,4.47343 2.241719,11.70447 6.5,13.59375 C 28.742353,114.8056 28,111.40498 28,108 z"
         style="color:#000000;fill:#141414;fill-opacity:0.73170734;fill-rule:nonzero;stroke:none;stroke-width:0.96344244;marker:none;visibility:visible;display:inline;overflow:visible;filter:url(#filter3822-9-6-4-3-9-8-7-5-5-2-3);enable-background:accumulate" />
      <path
         sodipodi:nodetypes="cccccccccccsccccscccccccccscsccccscscscsccccc"
         inkscape:connector-curvature="0"
         id="path3189"
         d="M 97.5,11.15625 C 99.161056,13.715101 100,16.801837 100,20 l 4,4 c 0.67823,-4.090685 -2.49444,-10.897929 -6.5,-12.84375 z m -45.71875,0.0625 C 54.938541,15.749711 56,21.867285 56,28 L 60.03125,52.0625 64,56 60,32 C 60,23.781222 58.10414,15.582219 51.78125,11.21875 z m 61.6875,15.25 c 1.5346,2.430603 2.49168,5.630316 2.5,9.8125 C 116,52 104,56 92,56 L 68.03125,60.03125 72,64 96,60 c 12,0 24,-4 23.96875,-19.71875 -0.0142,-7.114216 -2.69932,-11.423789 -6.5,-13.8125 z m -101.8125,24.125 C 16.114641,56.462776 24.042751,60 32,60 L 56,64 52,60 28,56 C 22.063345,56 16.139914,54.025406 11.65625,50.59375 z M 60,68.03125 56,92 c 0,12 -8,24 -20,24 -4.020758,0 -7.125053,-0.91091 -9.5,-2.40625 C 28.871947,117.35636 33.107466,120 40,120 52,120 60,108 60,96 l 4,-24 z m 52.34375,5.375 C 114.60887,76.388061 116,79.957249 116,84 c 0,10.680023 -8,16 -16,16 0,8 0,16 -16,16 -5.04163,0 -8.872271,-1.21124 -11.78125,-3.21875 C 75.239391,117.11611 80.176953,120 88,120 c 16,0 16,-8 16,-16 8,0 16,-5.319977 16,-16 0,-6.063345 -3.0769,-11.088862 -7.65625,-14.59375 z M 9.96875,98.5625 C 11.735927,103.67155 19.392457,104.45428 24,104 l -4,-4 c -3.578091,0 -7.16893,-0.006 -10.03125,-1.4375 z"
         style="color:#000000;fill:#ffffff;fill-opacity:0.39430895;fill-rule:nonzero;stroke:none;stroke-width:0.96344244;marker:none;visibility:visible;display:inline;overflow:visible;filter:url(#filter3822-2-7-6-8-3-1-3-7-0-8-2);enable-background:accumulate" />
    </g>
  </g>
</svg>
