<?xml version="1.0" encoding="UTF-8" standalone="no"?>
<!-- Created with Inkscape (http://www.inkscape.org/) -->

<svg
   width="128"
   height="128"
   id="svg2"
   version="1.1"
   inkscape:version="1.3.2 (1:1.3.2+202311252150+091e20ef0f)"
   sodipodi:docname="phone.svg"
   inkscape:export-filename="phone_12.png"
   inkscape:export-xdpi="9"
   inkscape:export-ydpi="9"
   xmlns:inkscape="http://www.inkscape.org/namespaces/inkscape"
   xmlns:sodipodi="http://sodipodi.sourceforge.net/DTD/sodipodi-0.dtd"
   xmlns:xlink="http://www.w3.org/1999/xlink"
   xmlns="http://www.w3.org/2000/svg"
   xmlns:svg="http://www.w3.org/2000/svg"
   xmlns:rdf="http://www.w3.org/1999/02/22-rdf-syntax-ns#"
   xmlns:cc="http://creativecommons.org/ns#"
   xmlns:dc="http://purl.org/dc/elements/1.1/">
  <defs
     id="defs4">
    <linearGradient
       id="linearGradient3843">
      <stop
         style="stop-color:#f9f9fa;stop-opacity:1;"
         offset="0"
         id="stop3845" />
      <stop
         style="stop-color:#efeff0;stop-opacity:1;"
         offset="1"
         id="stop3847" />
    </linearGradient>
    <filter
       inkscape:collect="always"
       id="filter3784"
       x="-0.014414414"
       y="-0.014414414"
       width="1.0288288"
       height="1.0288288">
      <feGaussianBlur
         inkscape:collect="always"
         stdDeviation="0.74109996"
         id="feGaussianBlur3786" />
    </filter>
    <filter
       inkscape:collect="always"
       id="filter3835"
       x="-0.11912061"
       width="1.2382412"
       y="-0.11871791"
       height="1.2374358">
      <feGaussianBlur
         inkscape:collect="always"
         stdDeviation="5.9436221"
         id="feGaussianBlur3837" />
    </filter>
    <filter
       inkscape:collect="always"
       id="filter3839"
       x="-0.090019872"
       y="-0.090160418"
       width="1.1800397"
       height="1.1803208">
      <feGaussianBlur
         inkscape:collect="always"
         stdDeviation="4.5115428"
         id="feGaussianBlur3841" />
    </filter>
    <linearGradient
       inkscape:collect="always"
       xlink:href="#linearGradient3843"
       id="linearGradient3849"
       x1="14.267717"
       y1="932.53717"
       x2="86.410866"
       y2="1016.1086"
       gradientUnits="userSpaceOnUse"
       gradientTransform="matrix(1.0053767,0,0,1.0018799,-0.73513181,-1.9949957)" />
    <mask
       maskUnits="userSpaceOnUse"
       id="mask3859">
      <rect
         ry="19.796612"
         rx="20.427839"
         y="925.12628"
         x="1.2320045"
         height="123.39314"
         width="123.39314"
         id="rect3861"
         style="color:#000000;fill:#ffffff;fill-opacity:1;stroke:none;stroke-width:0.96400887;marker:none;visibility:visible;display:inline;overflow:visible;enable-background:accumulate" />
    </mask>
    <linearGradient
       id="linearGradient3834-0-7-118-6-4-8-4">
      <stop
         style="stop-color:#626262;stop-opacity:1;"
         offset="0"
         id="stop3836-1-1-88-7-5-5-7" />
      <stop
         style="stop-color:#707070;stop-opacity:1;"
         offset="1"
         id="stop3838-0-6-22-3-8-6-4" />
    </linearGradient>
    <linearGradient
       inkscape:collect="always"
       xlink:href="#linearGradient3834-0-7-118-6-4-8-4"
       id="linearGradient3106"
       gradientUnits="userSpaceOnUse"
       gradientTransform="matrix(0.06787012,-0.11721473,0.06144434,0.1061171,-93.723824,65.943298)"
       x1="-25.551102"
       y1="-204.12001"
       x2="91.866501"
       y2="317.17865" />
    <filter
       color-interpolation-filters="sRGB"
       inkscape:collect="always"
       id="filter3822-9-6-4-3-9-7-1"
       x="-0.11426293"
       y="-0.061307926"
       width="1.2285259"
       height="1.1226159">
      <feGaussianBlur
         inkscape:collect="always"
         stdDeviation="2.8610366"
         id="feGaussianBlur3824-5-7-3-1-6-3-2" />
    </filter>
    <filter
       color-interpolation-filters="sRGB"
       inkscape:collect="always"
       id="filter3822-2-7-6-8-3-5-7"
       x="-0.11426293"
       y="-0.059241738"
       width="1.2285259"
       height="1.1184835">
      <feGaussianBlur
         inkscape:collect="always"
         stdDeviation="2.8610366"
         id="feGaussianBlur3824-4-8-9-4-4-3-5" />
    </filter>
    <mask
       maskUnits="userSpaceOnUse"
       id="mask3173">
      <path
         id="path3175"
         d="m 39.59375,4.09375 c -1.905234,0 -3.4375,1.5322665 -3.4375,3.4375 l 0,16.125 C 33.550653,26.99061 32,31.202634 32,35.78125 l 0,64.5625 C 32,111.23441 40.765586,120 51.65625,120 l 24.6875,0 C 87.234414,120 96,111.23441 96,100.34375 l 0,-64.5625 C 96,24.890586 87.234414,16.125 76.34375,16.125 l -24.6875,0 c -1.882424,0 -3.684998,0.260428 -5.40625,0.75 l 0,-9.34375 c 0,-1.9052335 -1.532266,-3.4375 -3.4375,-3.4375 l -3.21875,0 z M 43.0625,28.5 l 41.875,0 c 1.435702,0 2.5625,1.126798 2.5625,2.5625 l 0,23.0625 c 0,1.435702 -1.126798,2.59375 -2.5625,2.59375 l -41.875,0 C 41.626798,56.71875 40.5,55.560702 40.5,54.125 l 0,-23.0625 C 40.5,29.626798 41.626798,28.5 43.0625,28.5 z m 2.34375,39.78125 5.0625,0 c 0.811223,0 1.46875,0.657527 1.46875,1.46875 l 0,4.8125 c 0,0.811223 -0.657527,1.46875 -1.46875,1.46875 l -5.0625,0 c -0.811223,0 -1.4375,-0.657527 -1.4375,-1.46875 l 0,-4.8125 c 0,-0.811223 0.626277,-1.46875 1.4375,-1.46875 z m 16.1875,0.125 4.96875,0 c 0.798119,0 1.4375,0.639381 1.4375,1.4375 l 0,4.75 c 0,0.798119 -0.639381,1.4375 -1.4375,1.4375 l -4.96875,0 c -0.798119,0 -1.4375,-0.639381 -1.4375,-1.4375 l 0,-4.75 c 0,-0.798119 0.639381,-1.4375 1.4375,-1.4375 z m 15.875,0 5.21875,0 c 0.798119,0 1.4375,0.639381 1.4375,1.4375 l 0,4.75 c 0,0.798119 -0.639381,1.4375 -1.4375,1.4375 l -5.21875,0 c -0.798119,0 -1.4375,-0.639381 -1.4375,-1.4375 l 0,-4.75 c 0,-0.798119 0.639381,-1.4375 1.4375,-1.4375 z m -32.0625,15.5625 5.0625,0 c 0.811223,0 1.46875,0.657527 1.46875,1.46875 l 0,4.8125 c 0,0.811223 -0.657527,1.46875 -1.46875,1.46875 l -5.0625,0 c -0.811223,0 -1.4375,-0.657527 -1.4375,-1.46875 l 0,-4.8125 c 0,-0.811223 0.626277,-1.46875 1.4375,-1.46875 z m 16.1875,0.125 4.96875,0 c 0.798119,0 1.4375,0.639381 1.4375,1.4375 l 0,4.75 c 0,0.798119 -0.639381,1.4375 -1.4375,1.4375 l -4.96875,0 c -0.798119,0 -1.4375,-0.639381 -1.4375,-1.4375 l 0,-4.75 c 0,-0.798119 0.639381,-1.4375 1.4375,-1.4375 z m 15.875,0 5.21875,0 c 0.798119,0 1.4375,0.639381 1.4375,1.4375 l 0,4.75 c 0,0.798119 -0.639381,1.4375 -1.4375,1.4375 l -5.21875,0 c -0.798119,0 -1.4375,-0.639381 -1.4375,-1.4375 l 0,-4.75 c 0,-0.798119 0.639381,-1.4375 1.4375,-1.4375 z m -32.0625,15.875 5.0625,0 c 0.811223,0 1.46875,0.65753 1.46875,1.46875 l 0,4.8125 c 0,0.81122 -0.657527,1.46875 -1.46875,1.46875 l -5.0625,0 c -0.811223,0 -1.4375,-0.65753 -1.4375,-1.46875 l 0,-4.8125 c 0,-0.81122 0.626277,-1.46875 1.4375,-1.46875 z m 16.1875,0.125 4.96875,0 c 0.798119,0 1.4375,0.63938 1.4375,1.4375 l 0,4.75 c 0,0.79812 -0.639381,1.4375 -1.4375,1.4375 l -4.96875,0 c -0.798119,0 -1.4375,-0.63938 -1.4375,-1.4375 l 0,-4.75 c 0,-0.79812 0.639381,-1.4375 1.4375,-1.4375 z m 15.875,0 5.21875,0 c 0.798119,0 1.4375,0.63938 1.4375,1.4375 l 0,4.75 c 0,0.79812 -0.639381,1.4375 -1.4375,1.4375 l -5.21875,0 c -0.798119,0 -1.4375,-0.63938 -1.4375,-1.4375 l 0,-4.75 c 0,-0.79812 0.639381,-1.4375 1.4375,-1.4375 z"
         style="color:#000000;fill:#ffffff;fill-opacity:1;fill-rule:nonzero;stroke:none;stroke-width:9.3633728;marker:none;visibility:visible;display:inline;overflow:visible;enable-background:accumulate"
         inkscape:connector-curvature="0" />
    </mask>
  </defs>
  <sodipodi:namedview
     id="base"
     pagecolor="#ffffff"
     bordercolor="#666666"
     borderopacity="1.0"
     inkscape:pageopacity="0"
     inkscape:pageshadow="2"
     inkscape:zoom="2"
     inkscape:cx="170"
     inkscape:cy="33.75"
     inkscape:document-units="px"
     inkscape:current-layer="layer1"
     showgrid="true"
     inkscape:window-width="1868"
     inkscape:window-height="1016"
     inkscape:window-x="52"
     inkscape:window-y="27"
     inkscape:window-maximized="1"
     showguides="true"
     inkscape:guide-bbox="true"
     inkscape:snap-global="false"
     inkscape:showpageshadow="2"
     inkscape:pagecheckerboard="0"
     inkscape:deskcolor="#d1d1d1">
    <inkscape:grid
       type="xygrid"
       id="grid3901"
       empspacing="4"
       visible="true"
       enabled="true"
       snapvisiblegridlinesonly="true"
       dotted="false"
       spacingx="4"
       spacingy="4"
       color="#ff00bf"
       opacity="0.1254902"
       empcolor="#ff00cb"
       empopacity="0.25098039"
       originx="0"
       originy="0"
       units="px" />
    <sodipodi:guide
       orientation="0,1"
       position="82.074894,122.481"
       id="guide3803"
       inkscape:locked="false" />
    <sodipodi:guide
       orientation="1,0"
       position="5.5,70.963216"
       id="guide3805"
       inkscape:locked="false" />
    <sodipodi:guide
       orientation="1,0"
       position="120,22.728432"
       id="guide3807"
       inkscape:locked="false" />
    <sodipodi:guide
       orientation="0,1"
       position="-33.335,8"
       id="guide3811"
       inkscape:locked="false" />
  </sodipodi:namedview>
  <metadata
     id="metadata7">
    <rdf:RDF>
      <cc:Work
         rdf:about="">
        <dc:format>image/svg+xml</dc:format>
        <dc:type
           rdf:resource="http://purl.org/dc/dcmitype/StillImage" />
        <cc:license
           rdf:resource="http://creativecommons.org/licenses/by-sa/4.0/" />
      </cc:Work>
      <cc:License
         rdf:about="http://creativecommons.org/licenses/by-sa/4.0/">
        <cc:permits
           rdf:resource="http://creativecommons.org/ns#Reproduction" />
        <cc:permits
           rdf:resource="http://creativecommons.org/ns#Distribution" />
        <cc:requires
           rdf:resource="http://creativecommons.org/ns#Notice" />
        <cc:requires
           rdf:resource="http://creativecommons.org/ns#Attribution" />
        <cc:permits
           rdf:resource="http://creativecommons.org/ns#DerivativeWorks" />
        <cc:requires
           rdf:resource="http://creativecommons.org/ns#ShareAlike" />
      </cc:License>
    </rdf:RDF>
  </metadata>
  <g
     inkscape:label="base"
     inkscape:groupmode="layer"
     id="layer1"
     transform="translate(0,-924.36218)"
     style="display:none"
     sodipodi:insensitive="true">
    <rect
       ry="19.796612"
       rx="20.427839"
       y="927.12628"
       x="3.2320046"
       height="123.39314"
       width="123.39314"
       id="rect3766"
       style="color:#000000;display:inline;overflow:visible;visibility:visible;fill:#252628;fill-opacity:0.128617;stroke:none;stroke-width:0.964009;marker:none;filter:url(#filter3784);enable-background:accumulate"
       transform="matrix(1.0053767,0,0,1.0018799,-0.73513181,-1.9949957)" />
    <rect
       style="color:#000000;display:inline;overflow:visible;visibility:visible;fill:url(#linearGradient3849);fill-opacity:1;stroke:none;stroke-width:0.964009;marker:none;enable-background:accumulate"
       id="rect2985"
       width="124.05659"
       height="123.62511"
       x="0.50349683"
       y="924.87036"
       rx="20.537672"
       ry="19.833828" />
    <g
       id="g3853"
       mask="url(#mask3859)"
       transform="matrix(1.0053767,0,0,1.0018799,-0.73513181,-1.9949957)">
      <path
         sodipodi:nodetypes="csssscccsssscc"
         inkscape:connector-curvature="0"
         id="rect3788"
         transform="translate(0,924.36218)"
         d="m 111.3125,2 c 1.0638,2.3966046 2.03056,5.049628 1.65625,7.8125 l -10,73.8125 c -1.47238,10.868035 -9.195281,18.23558 -20.40625,19.78125 l -72.53125,10 C 7.534242,113.75052 5.0997184,112.93384 2.875,112.125 c 0.7713464,1.76264 1.7621331,3.38896 3,4.84375 0.010886,0.01 0.020343,0.0216 0.03125,0.0312 3.6235707,3.20066 8.436326,5.15625 13.75,5.15625 h 82.53125 c 11.31702,0 20.4375,-8.81393 20.4375,-19.78125 v -83.8125 c 0,-4.877214 -1.80986,-9.3136525 -4.8125,-12.75 C 115.92993,4.1823291 113.729,2.8665963 111.3125,2 Z"
         style="color:#000000;display:inline;overflow:visible;visibility:visible;fill:#c9c9cf;fill-opacity:0.254019;stroke:none;stroke-width:0.964009;marker:none;filter:url(#filter3835);enable-background:accumulate" />
      <path
         sodipodi:nodetypes="sssccsssscccss"
         inkscape:connector-curvature="0"
         id="rect3796"
         transform="translate(0,924.36218)"
         d="m 23.65625,2.75 c -11.317023,0 -20.4375,8.845177 -20.4375,19.8125 v 83.8125 c 0,4.8505 1.7783223,9.26046 4.75,12.6875 1.8502957,1.61847 4.000429,2.9035 6.375,3.78125 -0.720661,-2.02308 -1.488357,-4.23372 -1.125,-6.46875 l 12,-73.8125 C 26.978647,31.737301 34.451287,24.338652 45.65625,22.75 l 70.53125,-10 c 2.55597,-0.362388 5.0458,0.494454 7.3125,1.34375 -0.82375,-2.321834 -2.0613,-4.4443488 -3.65625,-6.28125 -0.0281,-0.024504 -0.0655,-0.038145 -0.0937,-0.0625 -3.60314,-3.110944 -8.3402,-5 -13.5625,-5 z"
         style="color:#000000;display:inline;overflow:visible;visibility:visible;fill:#ffffff;fill-opacity:1;stroke:none;stroke-width:0.964009;marker:none;filter:url(#filter3839);enable-background:accumulate" />
    </g>
    <rect
       ry="19.833828"
       rx="20.537672"
       y="924.87036"
       x="0.50349683"
       height="123.62511"
       width="124.05659"
       id="rect3851"
       style="color:#000000;display:inline;overflow:visible;visibility:visible;fill:none;stroke:#cbcdd0;stroke-width:1.00363;stroke-linecap:round;stroke-linejoin:round;stroke-miterlimit:4;stroke-dasharray:none;stroke-dashoffset:0;stroke-opacity:1;marker:none;enable-background:accumulate" />
  </g>
  <g
     inkscape:groupmode="layer"
     id="layer2"
     inkscape:label="outline">
    <path
       id="path3188"
       d="m 39.59375,4.09375 c -1.905234,0 -3.4375,1.5322665 -3.4375,3.4375 l 0,16.125 C 33.550653,26.99061 32,31.202634 32,35.78125 l 0,64.5625 C 32,111.23441 40.765586,120 51.65625,120 l 24.6875,0 C 87.234414,120 96,111.23441 96,100.34375 l 0,-64.5625 C 96,24.890586 87.234414,16.125 76.34375,16.125 l -24.6875,0 c -1.882424,0 -3.684998,0.260428 -5.40625,0.75 l 0,-9.34375 c 0,-1.9052335 -1.532266,-3.4375 -3.4375,-3.4375 l -3.21875,0 z M 43.0625,28.5 l 41.875,0 c 1.435702,0 2.5625,1.126798 2.5625,2.5625 l 0,23.0625 c 0,1.435702 -1.126798,2.59375 -2.5625,2.59375 l -41.875,0 C 41.626798,56.71875 40.5,55.560702 40.5,54.125 l 0,-23.0625 C 40.5,29.626798 41.626798,28.5 43.0625,28.5 z m 2.34375,39.78125 5.0625,0 c 0.811223,0 1.46875,0.657527 1.46875,1.46875 l 0,4.8125 c 0,0.811223 -0.657527,1.46875 -1.46875,1.46875 l -5.0625,0 c -0.811223,0 -1.4375,-0.657527 -1.4375,-1.46875 l 0,-4.8125 c 0,-0.811223 0.626277,-1.46875 1.4375,-1.46875 z m 16.1875,0.125 4.96875,0 c 0.798119,0 1.4375,0.639381 1.4375,1.4375 l 0,4.75 c 0,0.798119 -0.639381,1.4375 -1.4375,1.4375 l -4.96875,0 c -0.798119,0 -1.4375,-0.639381 -1.4375,-1.4375 l 0,-4.75 c 0,-0.798119 0.639381,-1.4375 1.4375,-1.4375 z m 15.875,0 5.21875,0 c 0.798119,0 1.4375,0.639381 1.4375,1.4375 l 0,4.75 c 0,0.798119 -0.639381,1.4375 -1.4375,1.4375 l -5.21875,0 c -0.798119,0 -1.4375,-0.639381 -1.4375,-1.4375 l 0,-4.75 c 0,-0.798119 0.639381,-1.4375 1.4375,-1.4375 z m -32.0625,15.5625 5.0625,0 c 0.811223,0 1.46875,0.657527 1.46875,1.46875 l 0,4.8125 c 0,0.811223 -0.657527,1.46875 -1.46875,1.46875 l -5.0625,0 c -0.811223,0 -1.4375,-0.657527 -1.4375,-1.46875 l 0,-4.8125 c 0,-0.811223 0.626277,-1.46875 1.4375,-1.46875 z m 16.1875,0.125 4.96875,0 c 0.798119,0 1.4375,0.639381 1.4375,1.4375 l 0,4.75 c 0,0.798119 -0.639381,1.4375 -1.4375,1.4375 l -4.96875,0 c -0.798119,0 -1.4375,-0.639381 -1.4375,-1.4375 l 0,-4.75 c 0,-0.798119 0.639381,-1.4375 1.4375,-1.4375 z m 15.875,0 5.21875,0 c 0.798119,0 1.4375,0.639381 1.4375,1.4375 l 0,4.75 c 0,0.798119 -0.639381,1.4375 -1.4375,1.4375 l -5.21875,0 c -0.798119,0 -1.4375,-0.639381 -1.4375,-1.4375 l 0,-4.75 c 0,-0.798119 0.639381,-1.4375 1.4375,-1.4375 z m -32.0625,15.875 5.0625,0 c 0.811223,0 1.46875,0.65753 1.46875,1.46875 l 0,4.8125 c 0,0.81122 -0.657527,1.46875 -1.46875,1.46875 l -5.0625,0 c -0.811223,0 -1.4375,-0.65753 -1.4375,-1.46875 l 0,-4.8125 c 0,-0.81122 0.626277,-1.46875 1.4375,-1.46875 z m 16.1875,0.125 4.96875,0 c 0.798119,0 1.4375,0.63938 1.4375,1.4375 l 0,4.75 c 0,0.79812 -0.639381,1.4375 -1.4375,1.4375 l -4.96875,0 c -0.798119,0 -1.4375,-0.63938 -1.4375,-1.4375 l 0,-4.75 c 0,-0.79812 0.639381,-1.4375 1.4375,-1.4375 z m 15.875,0 5.21875,0 c 0.798119,0 1.4375,0.63938 1.4375,1.4375 l 0,4.75 c 0,0.79812 -0.639381,1.4375 -1.4375,1.4375 l -5.21875,0 c -0.798119,0 -1.4375,-0.63938 -1.4375,-1.4375 l 0,-4.75 c 0,-0.79812 0.639381,-1.4375 1.4375,-1.4375 z"
       style="display:inline;color:#000000;fill:none;stroke:#ffffff;stroke-width:2;stroke-linecap:round;stroke-linejoin:round;stroke-miterlimit:4;stroke-opacity:1;stroke-dasharray:none;stroke-dashoffset:0;marker:none;visibility:visible;overflow:visible;enable-background:accumulate"
       inkscape:connector-curvature="0" />
  </g>
  <g
     inkscape:groupmode="layer"
     id="layer3"
     inkscape:label="icon"
     style="display:inline">
    <path
       style="color:#000000;fill:url(#linearGradient3106);fill-opacity:1;fill-rule:nonzero;stroke:none;stroke-width:9.3633728;marker:none;visibility:visible;display:inline;overflow:visible;enable-background:accumulate"
       d="m 39.59375,4.09375 c -1.905234,0 -3.4375,1.5322665 -3.4375,3.4375 l 0,16.125 C 33.550653,26.99061 32,31.202634 32,35.78125 l 0,64.5625 C 32,111.23441 40.765586,120 51.65625,120 l 24.6875,0 C 87.234414,120 96,111.23441 96,100.34375 l 0,-64.5625 C 96,24.890586 87.234414,16.125 76.34375,16.125 l -24.6875,0 c -1.882424,0 -3.684998,0.260428 -5.40625,0.75 l 0,-9.34375 c 0,-1.9052335 -1.532266,-3.4375 -3.4375,-3.4375 l -3.21875,0 z M 43.0625,28.5 l 41.875,0 c 1.435702,0 2.5625,1.126798 2.5625,2.5625 l 0,23.0625 c 0,1.435702 -1.126798,2.59375 -2.5625,2.59375 l -41.875,0 C 41.626798,56.71875 40.5,55.560702 40.5,54.125 l 0,-23.0625 C 40.5,29.626798 41.626798,28.5 43.0625,28.5 z m 2.34375,39.78125 5.0625,0 c 0.811223,0 1.46875,0.657527 1.46875,1.46875 l 0,4.8125 c 0,0.811223 -0.657527,1.46875 -1.46875,1.46875 l -5.0625,0 c -0.811223,0 -1.4375,-0.657527 -1.4375,-1.46875 l 0,-4.8125 c 0,-0.811223 0.626277,-1.46875 1.4375,-1.46875 z m 16.1875,0.125 4.96875,0 c 0.798119,0 1.4375,0.639381 1.4375,1.4375 l 0,4.75 c 0,0.798119 -0.639381,1.4375 -1.4375,1.4375 l -4.96875,0 c -0.798119,0 -1.4375,-0.639381 -1.4375,-1.4375 l 0,-4.75 c 0,-0.798119 0.639381,-1.4375 1.4375,-1.4375 z m 15.875,0 5.21875,0 c 0.798119,0 1.4375,0.639381 1.4375,1.4375 l 0,4.75 c 0,0.798119 -0.639381,1.4375 -1.4375,1.4375 l -5.21875,0 c -0.798119,0 -1.4375,-0.639381 -1.4375,-1.4375 l 0,-4.75 c 0,-0.798119 0.639381,-1.4375 1.4375,-1.4375 z m -32.0625,15.5625 5.0625,0 c 0.811223,0 1.46875,0.657527 1.46875,1.46875 l 0,4.8125 c 0,0.811223 -0.657527,1.46875 -1.46875,1.46875 l -5.0625,0 c -0.811223,0 -1.4375,-0.657527 -1.4375,-1.46875 l 0,-4.8125 c 0,-0.811223 0.626277,-1.46875 1.4375,-1.46875 z m 16.1875,0.125 4.96875,0 c 0.798119,0 1.4375,0.639381 1.4375,1.4375 l 0,4.75 c 0,0.798119 -0.639381,1.4375 -1.4375,1.4375 l -4.96875,0 c -0.798119,0 -1.4375,-0.639381 -1.4375,-1.4375 l 0,-4.75 c 0,-0.798119 0.639381,-1.4375 1.4375,-1.4375 z m 15.875,0 5.21875,0 c 0.798119,0 1.4375,0.639381 1.4375,1.4375 l 0,4.75 c 0,0.798119 -0.639381,1.4375 -1.4375,1.4375 l -5.21875,0 c -0.798119,0 -1.4375,-0.639381 -1.4375,-1.4375 l 0,-4.75 c 0,-0.798119 0.639381,-1.4375 1.4375,-1.4375 z m -32.0625,15.875 5.0625,0 c 0.811223,0 1.46875,0.65753 1.46875,1.46875 l 0,4.8125 c 0,0.81122 -0.657527,1.46875 -1.46875,1.46875 l -5.0625,0 c -0.811223,0 -1.4375,-0.65753 -1.4375,-1.46875 l 0,-4.8125 c 0,-0.81122 0.626277,-1.46875 1.4375,-1.46875 z m 16.1875,0.125 4.96875,0 c 0.798119,0 1.4375,0.63938 1.4375,1.4375 l 0,4.75 c 0,0.79812 -0.639381,1.4375 -1.4375,1.4375 l -4.96875,0 c -0.798119,0 -1.4375,-0.63938 -1.4375,-1.4375 l 0,-4.75 c 0,-0.79812 0.639381,-1.4375 1.4375,-1.4375 z m 15.875,0 5.21875,0 c 0.798119,0 1.4375,0.63938 1.4375,1.4375 l 0,4.75 c 0,0.79812 -0.639381,1.4375 -1.4375,1.4375 l -5.21875,0 c -0.798119,0 -1.4375,-0.63938 -1.4375,-1.4375 l 0,-4.75 c 0,-0.79812 0.639381,-1.4375 1.4375,-1.4375 z"
       id="rect3025"
       inkscape:connector-curvature="0" />
    <g
       id="g3167"
       mask="url(#mask3173)">
      <path
         sodipodi:nodetypes="sscsscsscsscssssccsscsscssccsssscccssccsssscccssccsssscccssccsssscccssccsssscccssccsssscccssccsssscccssccsssscccssccsssscccssccsssscc"
         inkscape:connector-curvature="0"
         id="path3124"
         d="m 39.59375,4.09375 c -1.905234,0 -3.4375,1.5322665 -3.4375,3.4375 l 0,16.125 C 33.550653,26.99061 32,31.202634 32,35.78125 l 0,64.5625 c 0,6.47084 3.110104,12.1725 7.90625,15.75 C 37.462685,112.81781 36,108.76357 36,104.34375 l 0,-64.5625 c 0,-4.578616 1.550653,-8.79064 4.15625,-12.125 l 0,-16.125 c 0,-1.9052335 1.532266,-3.4375 3.4375,-3.4375 l 2.65625,0 0,-0.5625 c 0,-1.9052335 -1.532266,-3.4375 -3.4375,-3.4375 z M 51.65625,16.125 c -0.45724,0 -3.83927,-0.49134 -5.383726,0.769607 L 50.25,20.875 c 1.721252,-0.489572 3.523826,-0.75 5.40625,-0.75 l 24.6875,0 c 4.419821,0 8.474057,1.462685 11.75,3.90625 C 88.516247,19.235104 82.814593,16.125 76.34375,16.125 z M 86.682408,29.16334 87.5,54.125 c 0.047,1.434932 -1.126798,2.59375 -2.5625,2.59375 L 41.141243,55.901158 c 1.350356,1.594614 2.918761,3.243729 4.494473,4.3856 0.405486,0.273076 0.89494,0.431992 1.426784,0.431992 l 41.875,0 c 1.435702,0 2.5625,-1.158048 2.5625,-2.59375 l 0,-23.0625 c 0,-0.575976 -0.181353,-1.102234 -0.49125,-1.525966 -1.340976,-1.596536 -2.770918,-2.864201 -4.326342,-4.373194 z M 51.46875,68.71875 51.9375,74.5625 c 0.06486,0.808626 -0.657527,1.46875 -1.46875,1.46875 L 44.4375,75.625 c 1.409997,1.37378 2.885532,2.853516 4.335025,4.094856 0.150015,0.185344 0.338224,0.311394 0.633725,0.311394 l 5.0625,0 c 0.811223,0 1.46875,-0.657527 1.46875,-1.46875 l 0,-4.8125 c 0,-0.413497 -0.170835,-0.787061 -0.445782,-1.053969 C 54.069717,71.454923 52.78789,70.067205 51.46875,68.71875 z m 16.125,0.125 0.40625,5.75 c 0.05625,0.796134 -0.639381,1.4375 -1.4375,1.4375 L 60.65625,75.6875 c 1.428739,1.373952 2.903374,2.835546 4.365242,4.104052 0.141549,0.145222 0.317552,0.239698 0.572258,0.239698 l 4.96875,0 c 0.798119,0 1.4375,-0.639381 1.4375,-1.4375 l 0,-4.75 C 72,73.502394 71.883039,73.190076 71.686723,72.944399 70.312261,71.59083 68.952797,70.216665 67.59375,68.84375 z m 16.1556,-0.03933 0.37565,5.789325 c 0.05168,0.796444 -0.639381,1.4375 -1.4375,1.4375 l -6.235978,-0.441942 c 1.459168,1.384488 3.028865,2.871518 4.441423,4.199852 0.142347,0.146614 0.319308,0.24209 0.575805,0.24209 l 5.21875,0 c 0.798119,0 1.4375,-0.639381 1.4375,-1.4375 l 0,-4.75 c 0,-0.323187 -0.104841,-0.620345 -0.282609,-0.85956 -1.24314,-1.50293 -2.705757,-2.81142 -4.093041,-4.179765 z M 51.40717,84.322731 51.9375,90.25 c 0.07229,0.807995 -0.657527,1.46875 -1.46875,1.46875 l -6.101825,-0.441942 c 1.575892,1.325566 2.822214,2.867989 4.533569,4.26299 0.128701,0.110356 0.288036,0.178952 0.505756,0.178952 l 5.0625,0 c 0.811223,0 1.46875,-0.657527 1.46875,-1.46875 l 0,-4.8125 c 0,-0.398839 -0.158939,-0.760527 -0.416939,-1.025186 -1.313896,-1.419037 -2.72888,-2.739808 -4.113391,-4.089583 z M 67.712738,84.668702 68,90.28125 c 0.0408,0.797076 -0.639381,1.4375 -1.4375,1.4375 L 60.66491,91.3431 c 1.43967,1.389488 2.917827,2.850785 4.379366,4.159978 0.137852,0.131569 0.308633,0.215672 0.549474,0.215672 l 4.96875,0 c 0.798119,0 1.4375,-0.639381 1.4375,-1.4375 l 0,-4.75 c 0,-0.311347 -0.0973,-0.598538 -0.263368,-0.833038 -1.274975,-1.402013 -2.672987,-2.697574 -4.023894,-4.02951 z m 16.068512,-0.07495 0.34375,5.6875 c 0.04815,0.796665 -0.639381,1.4375 -1.4375,1.4375 l -6.296875,-0.4375 c 1.469704,1.387695 3.022184,2.923333 4.497946,4.188661 0.142765,0.150358 0.320453,0.248839 0.580179,0.248839 l 5.21875,0 c 0.798119,0 1.4375,-0.639381 1.4375,-1.4375 l 0,-4.75 c 0,-0.370784 -0.137996,-0.707307 -0.365795,-0.961378 -1.217226,-1.427133 -2.62864,-2.67427 -3.977955,-3.976122 z M 51.59375,100.48437 51.9375,106.25 c 0.04828,0.80978 -0.657527,1.46875 -1.46875,1.46875 l -6.0625,-0.39063 c 1.447693,1.40591 2.932567,2.96277 4.460142,4.18017 0.134426,0.12864 0.302325,0.21046 0.539858,0.21046 l 5.0625,0 c 0.811223,0 1.46875,-0.65753 1.46875,-1.46875 l 0,-4.8125 c 0,-0.3351 -0.112195,-0.64397 -0.301073,-0.8911 -1.287547,-1.4089 -2.685806,-2.71859 -4.042677,-4.06203 z M 67.703125,100.64062 68,106.28125 c 0.04195,0.79702 -0.639381,1.4375 -1.4375,1.4375 l -5.96875,-0.39063 c 1.434163,1.35684 2.965573,2.81061 4.376758,4.0946 0.150202,0.17664 0.336993,0.29603 0.623242,0.29603 l 4.96875,0 c 0.798119,0 1.4375,-0.63938 1.4375,-1.4375 l 0,-4.75 c 0,-0.32623 -0.106827,-0.62595 -0.287656,-0.86631 -1.280324,-1.39271 -2.664037,-2.69293 -4.009219,-4.02432 z m 16.109375,0.0312 0.3125,5.60938 c 0.04439,0.79688 -0.639381,1.4375 -1.4375,1.4375 l -6.21875,-0.40625 c 1.454358,1.40385 2.948622,2.94722 4.458632,4.19725 0.136275,0.12771 0.30496,0.209 0.541368,0.209 l 5.21875,0 c 0.798119,0 1.4375,-0.63938 1.4375,-1.4375 l 0,-4.75 c 0,-0.32399 -0.105364,-0.62182 -0.283938,-0.86135 -1.273786,-1.39645 -2.674665,-2.67832 -4.028562,-3.99803 z"
         style="color:#000000;fill:#141414;fill-opacity:0.73170734;fill-rule:nonzero;stroke:none;stroke-width:0.96344244;marker:none;visibility:visible;display:inline;overflow:visible;filter:url(#filter3822-9-6-4-3-9-7-1);enable-background:accumulate" />
      <path
         sodipodi:nodetypes="cccssccsssscsssscsssccssccsssssccssccsssssccssccsssssccssccsssssccssccsssssccssccsssssccssccsssssccssccsssssccssccsssssccssccss"
         inkscape:connector-curvature="0"
         id="path3152"
         d="m 42.25,4.09375 0,8.78125 4,3.974985 0,-9.318735 c 0,-1.9052335 -1.532266,-3.4375 -3.4375,-3.4375 z m 45.84375,15.9375 C 90.537315,23.307193 92,27.361429 92,31.78125 l 0,64.5625 C 92,107.23441 83.234414,116 72.34375,116 l -24.6875,0 c -4.419821,0 -8.474057,-1.46268 -11.75,-3.90625 3.577503,4.79615 9.279157,7.90625 15.75,7.90625 l 24.6875,0 C 87.234414,120 96,111.23441 96,100.34375 l 0,-64.5625 c 0,-6.470843 -3.110104,-12.172497 -7.90625,-15.75 z M 39.0625,24.5 C 37.626798,24.5 36.5,25.626798 36.5,27.0625 l 0,23.0625 c 0,0.891998 0.434956,1.676819 1.108715,2.14332 1.267517,1.107461 2.338809,2.365816 3.53191,3.63793 L 40.5,31.0625 C 40.462991,29.627275 41.626798,28.5 43.0625,28.5 l 43.609375,0.625 C 85.51006,27.797809 84.18011,26.515148 82.898845,25.396889 82.432148,24.84519 81.73214,24.5 80.9375,24.5 z m 2.34375,39.78125 c -0.811223,0 -1.4375,0.657527 -1.4375,1.46875 l 0,4.8125 c 0,0.417711 0.16605,0.794671 0.437897,1.062097 1.324926,1.200157 2.576509,2.559819 3.874603,3.891028 L 43.96875,69.75 c -0.0439,-0.810034 0.626277,-1.46875 1.4375,-1.46875 l 5.859375,0.203125 C 49.992478,67.186683 48.709377,65.853509 47.401396,64.615274 47.147753,64.406564 46.822897,64.28125 46.46875,64.28125 z m 16.1875,0.125 c -0.798119,0 -1.4375,0.639381 -1.4375,1.4375 l 0,4.75 c 0,0.418958 0.176183,0.794175 0.459027,1.056128 1.250863,1.238077 2.529781,2.52643 3.822223,3.818872 l -0.28125,-5.625 c -0.03986,-0.797123 0.639381,-1.4375 1.4375,-1.4375 l 5.96875,0.390625 C 66.25617,67.486658 64.938224,66.137818 63.618628,64.865277 63.356675,64.582433 62.981458,64.40625 62.5625,64.40625 z m 15.875,0 c -0.798119,0 -1.4375,0.639381 -1.4375,1.4375 l 0,4.75 c 0,0.31171 0.09753,0.599207 0.263948,0.833858 1.193031,1.477574 2.665122,2.745337 4.064177,4.103642 l -0.328125,-5.6875 c -0.04597,-0.796794 0.639381,-1.4375 1.4375,-1.4375 l 6.171875,0.328125 C 82.316833,67.404355 80.972317,65.98683 79.616778,64.744112 79.366777,64.533014 79.042874,64.40625 78.6875,64.40625 z m -32.0625,15.5625 c -0.811223,0 -1.4375,0.657527 -1.4375,1.46875 l 0,4.8125 c 0,0.401765 0.153614,0.765831 0.407229,1.030994 1.159174,1.436177 2.583044,2.643302 3.920896,3.922131 L 43.96875,85.4375 c -0.04609,-0.809912 0.626277,-1.46875 1.4375,-1.46875 l 5.90625,0.25 C 50.078387,82.932271 48.847858,81.459883 47.499376,80.391019 47.234244,80.129879 46.870329,79.96875 46.46875,79.96875 z m 16.1875,0.125 c -0.798119,0 -1.4375,0.639381 -1.4375,1.4375 l 0,4.75 c 0,0.371636 0.138631,0.708855 0.367367,0.96313 1.188254,1.399441 2.58608,2.649465 3.945133,3.97437 l -0.3125,-5.6875 c -0.04379,-0.796917 0.639381,-1.4375 1.4375,-1.4375 l 6.125,0.5625 C 66.345272,83.272962 64.963596,81.81654 63.565005,80.497901 63.306686,80.247327 62.953657,80.09375 62.5625,80.09375 z m 15.875,0 c -0.798119,0 -1.4375,0.639381 -1.4375,1.4375 l 0,4.75 c 0,0.355374 0.126764,0.679277 0.337862,0.929278 1.225456,1.421369 2.620901,2.689885 3.959013,4.008222 l -0.296875,-5.6875 c -0.0416,-0.797034 0.639381,-1.4375 1.4375,-1.4375 L 83.625,84.421875 C 82.298111,83.093089 80.916482,81.633951 79.583102,80.404042 79.338001,80.209526 79.027122,80.09375 78.6875,80.09375 z m -32.0625,15.875 c -0.811223,0 -1.4375,0.65753 -1.4375,1.46875 l 0,4.8125 c 0,0.3651 0.126854,0.69906 0.34033,0.95597 1.206297,1.42244 2.652243,2.71961 4.050295,4.09091 L 43.96875,101.4375 c -0.05396,-0.80942 0.626277,-1.46875 1.4375,-1.46875 l 6.078125,0.35938 C 50.155664,99.003853 48.805787,97.616539 47.45911,96.352823 47.197969,96.114258 46.850365,95.96875 46.46875,95.96875 z m 16.1875,0.125 c -0.798119,0 -1.4375,0.63938 -1.4375,1.4375 l 0,4.75 c 0,0.39508 0.156671,0.75126 0.411714,1.01024 1.233053,1.37631 2.628302,2.67467 3.994536,4.02101 l -0.40625,-5.78125 c -0.05595,-0.79616 0.639381,-1.4375 1.4375,-1.4375 l 6,0.42188 C 66.25917,99.189566 64.818707,97.7888 63.549242,96.482841 63.292414,96.241188 62.945759,96.09375 62.5625,96.09375 z m 15.875,0 c -0.798119,0 -1.4375,0.63938 -1.4375,1.4375 l 0,4.75 c 0,0.37122 0.138318,0.70809 0.366592,0.96227 1.218797,1.37667 2.621223,2.66168 3.992783,4.00648 l -0.359375,-5.71875 c -0.05006,-0.79655 0.639381,-1.4375 1.4375,-1.4375 l 6.359375,0.48438 C 82.456284,99.22616 81.023171,97.815112 79.681598,96.489812 79.424052,96.244026 79.074431,96.09375 78.6875,96.09375 z"
         style="color:#000000;fill:#ffffff;fill-opacity:0.39430895;fill-rule:nonzero;stroke:none;stroke-width:0.96344244;marker:none;visibility:visible;display:inline;overflow:visible;filter:url(#filter3822-2-7-6-8-3-5-7);enable-background:accumulate" />
    </g>
  </g>
</svg>
