<?xml version="1.0" encoding="UTF-8" standalone="no"?>
<!-- Created with Inkscape (http://www.inkscape.org/) -->

<svg
   width="128"
   height="128"
   id="svg2"
   version="1.1"
   inkscape:version="1.3.2 (1:1.3.2+202311252150+091e20ef0f)"
   sodipodi:docname="property.svg"
   inkscape:export-filename="property_32.png"
   inkscape:export-xdpi="24"
   inkscape:export-ydpi="24"
   xmlns:inkscape="http://www.inkscape.org/namespaces/inkscape"
   xmlns:sodipodi="http://sodipodi.sourceforge.net/DTD/sodipodi-0.dtd"
   xmlns:xlink="http://www.w3.org/1999/xlink"
   xmlns="http://www.w3.org/2000/svg"
   xmlns:svg="http://www.w3.org/2000/svg"
   xmlns:rdf="http://www.w3.org/1999/02/22-rdf-syntax-ns#"
   xmlns:cc="http://creativecommons.org/ns#"
   xmlns:dc="http://purl.org/dc/elements/1.1/">
  <defs
     id="defs4">
    <linearGradient
       id="linearGradient3843">
      <stop
         style="stop-color:#f9f9fa;stop-opacity:1;"
         offset="0"
         id="stop3845" />
      <stop
         style="stop-color:#efeff0;stop-opacity:1;"
         offset="1"
         id="stop3847" />
    </linearGradient>
    <filter
       inkscape:collect="always"
       id="filter3784"
       x="-0.014414414"
       y="-0.014414414"
       width="1.0288288"
       height="1.0288288">
      <feGaussianBlur
         inkscape:collect="always"
         stdDeviation="0.74109996"
         id="feGaussianBlur3786" />
    </filter>
    <filter
       inkscape:collect="always"
       id="filter3835"
       x="-0.11912061"
       width="1.2382412"
       y="-0.11871791"
       height="1.2374358">
      <feGaussianBlur
         inkscape:collect="always"
         stdDeviation="5.9436221"
         id="feGaussianBlur3837" />
    </filter>
    <filter
       inkscape:collect="always"
       id="filter3839"
       x="-0.090019872"
       y="-0.090160418"
       width="1.1800397"
       height="1.1803208">
      <feGaussianBlur
         inkscape:collect="always"
         stdDeviation="4.5115428"
         id="feGaussianBlur3841" />
    </filter>
    <linearGradient
       inkscape:collect="always"
       xlink:href="#linearGradient3843"
       id="linearGradient3849"
       x1="14.267717"
       y1="932.53717"
       x2="86.410866"
       y2="1016.1086"
       gradientUnits="userSpaceOnUse"
       gradientTransform="matrix(1.0052806,0,0,1.0017716,-0.72198347,-1.8801963)" />
    <mask
       maskUnits="userSpaceOnUse"
       id="mask3859">
      <rect
         ry="19.796612"
         rx="20.427839"
         y="925.12628"
         x="1.2320045"
         height="123.39314"
         width="123.39314"
         id="rect3861"
         style="color:#000000;fill:#ffffff;fill-opacity:1;stroke:none;stroke-width:0.96400887;marker:none;visibility:visible;display:inline;overflow:visible;enable-background:accumulate" />
    </mask>
    <linearGradient
       id="linearGradient3834-0-7-118-6-4-8-1">
      <stop
         style="stop-color:#626262;stop-opacity:1;"
         offset="0"
         id="stop3836-1-1-88-7-5-5-7" />
      <stop
         style="stop-color:#707070;stop-opacity:1;"
         offset="1"
         id="stop3838-0-6-22-3-8-6-8" />
    </linearGradient>
    <filter
       color-interpolation-filters="sRGB"
       inkscape:collect="always"
       id="filter3822-9-6-4-3-9-7-9"
       x="-0.065027406"
       y="-0.062122592"
       width="1.1300548"
       height="1.1242452">
      <feGaussianBlur
         inkscape:collect="always"
         stdDeviation="2.8610366"
         id="feGaussianBlur3824-5-7-3-1-6-3-6" />
    </filter>
    <filter
       color-interpolation-filters="sRGB"
       inkscape:collect="always"
       id="filter3822-2-7-6-8-3-5-6"
       x="-0.062298726"
       y="-0.066262849"
       width="1.1245975"
       height="1.1325257">
      <feGaussianBlur
         inkscape:collect="always"
         stdDeviation="2.8610366"
         id="feGaussianBlur3824-4-8-9-4-4-3-2" />
    </filter>
    <mask
       maskUnits="userSpaceOnUse"
       id="mask3946">
      <path
         d="m 52.163815,95.795313 c 0,13.370337 -10.768841,24.209127 -24.052879,24.209127 -13.284038,0 -24.0528784,-10.83879 -24.0528784,-24.209127 0,-13.370333 10.7688404,-24.209129 24.0528784,-24.209129 13.284038,0 24.052879,10.838796 24.052879,24.209129 z M 82.75,4.3125 31.9375,55.8125 32.15625,68 c 12.311652,1.794095 22.003983,11.681481 23.625,24.125 l 12.96875,0 50.78125,-51.46875 C 115.01171,20.000007 100.88593,9.9437567 82.75,4.3125 z"
         style="color:#000000;fill:#ffffff;fill-opacity:1;fill-rule:nonzero;stroke:none;stroke-width:9.3633728;marker:none;visibility:visible;display:inline;overflow:visible;enable-background:accumulate"
         id="path3948"
         inkscape:connector-curvature="0" />
    </mask>
    <linearGradient
       inkscape:collect="always"
       xlink:href="#linearGradient3834-0-7-118-6-4-8-1"
       id="linearGradient3969"
       gradientUnits="userSpaceOnUse"
       gradientTransform="matrix(0.06787012,-0.09026143,0.06144434,0.08171569,54.276176,62.373529)"
       x1="353.67584"
       y1="-883.28253"
       x2="422.39328"
       y2="-32.603878" />
  </defs>
  <sodipodi:namedview
     id="base"
     pagecolor="#ffffff"
     bordercolor="#666666"
     borderopacity="1.0"
     inkscape:pageopacity="0"
     inkscape:pageshadow="2"
     inkscape:zoom="4"
     inkscape:cx="25.5"
     inkscape:cy="58.625"
     inkscape:document-units="px"
     inkscape:current-layer="layer2"
     showgrid="true"
     inkscape:window-width="1868"
     inkscape:window-height="1016"
     inkscape:window-x="52"
     inkscape:window-y="27"
     inkscape:window-maximized="1"
     showguides="true"
     inkscape:guide-bbox="true"
     inkscape:snap-global="false"
     inkscape:showpageshadow="2"
     inkscape:pagecheckerboard="0"
     inkscape:deskcolor="#d1d1d1">
    <inkscape:grid
       type="xygrid"
       id="grid3901"
       empspacing="4"
       visible="true"
       enabled="true"
       snapvisiblegridlinesonly="true"
       dotted="false"
       spacingx="4"
       spacingy="4"
       color="#ff00bf"
       opacity="0.1254902"
       empcolor="#ff00cb"
       empopacity="0.25098039"
       originx="0"
       originy="0"
       units="px" />
    <sodipodi:guide
       orientation="0,1"
       position="82.074894,122.481"
       id="guide3803"
       inkscape:locked="false" />
    <sodipodi:guide
       orientation="1,0"
       position="5.5,70.963216"
       id="guide3805"
       inkscape:locked="false" />
    <sodipodi:guide
       orientation="1,0"
       position="120,22.728432"
       id="guide3807"
       inkscape:locked="false" />
    <sodipodi:guide
       orientation="0,1"
       position="-33.335,8"
       id="guide3811"
       inkscape:locked="false" />
  </sodipodi:namedview>
  <metadata
     id="metadata7">
    <rdf:RDF>
      <cc:Work
         rdf:about="">
        <dc:format>image/svg+xml</dc:format>
        <dc:type
           rdf:resource="http://purl.org/dc/dcmitype/StillImage" />
        <cc:license
           rdf:resource="http://creativecommons.org/licenses/by-sa/4.0/" />
      </cc:Work>
      <cc:License
         rdf:about="http://creativecommons.org/licenses/by-sa/4.0/">
        <cc:permits
           rdf:resource="http://creativecommons.org/ns#Reproduction" />
        <cc:permits
           rdf:resource="http://creativecommons.org/ns#Distribution" />
        <cc:requires
           rdf:resource="http://creativecommons.org/ns#Notice" />
        <cc:requires
           rdf:resource="http://creativecommons.org/ns#Attribution" />
        <cc:permits
           rdf:resource="http://creativecommons.org/ns#DerivativeWorks" />
        <cc:requires
           rdf:resource="http://creativecommons.org/ns#ShareAlike" />
      </cc:License>
    </rdf:RDF>
  </metadata>
  <g
     inkscape:label="base"
     inkscape:groupmode="layer"
     id="layer1"
     transform="translate(0,-924.36218)"
     style="display:none"
     sodipodi:insensitive="true">
    <rect
       ry="19.796612"
       rx="20.427839"
       y="927.12628"
       x="3.2320046"
       height="123.39314"
       width="123.39314"
       id="rect3766"
       style="color:#000000;display:inline;overflow:visible;visibility:visible;fill:#252628;fill-opacity:0.12861735;stroke:none;stroke-width:0.96400887;marker:none;filter:url(#filter3784);enable-background:accumulate"
       transform="matrix(1.0052806,0,0,1.0017716,-0.72198347,-1.8801963)" />
    <rect
       style="color:#000000;display:inline;overflow:visible;visibility:visible;fill:url(#linearGradient3849);fill-opacity:1;stroke:none;stroke-width:0.96400887;marker:none;enable-background:accumulate"
       id="rect2985"
       width="124.04474"
       height="123.61176"
       x="0.51652676"
       y="924.88507"
       rx="20.535711"
       ry="19.831684" />
    <g
       id="g3853"
       mask="url(#mask3859)"
       transform="matrix(1.0052806,0,0,1.0017716,-0.72198347,-1.8801963)">
      <path
         sodipodi:nodetypes="csssscccsssscc"
         inkscape:connector-curvature="0"
         id="rect3788"
         transform="translate(0,924.36218)"
         d="m 111.3125,2 c 1.0638,2.3966046 2.03056,5.049628 1.65625,7.8125 l -10,73.8125 c -1.47238,10.868035 -9.195281,18.23558 -20.40625,19.78125 l -72.53125,10 C 7.534242,113.75052 5.0997184,112.93384 2.875,112.125 c 0.7713464,1.76264 1.7621331,3.38896 3,4.84375 0.010886,0.01 0.020343,0.0216 0.03125,0.0312 3.6235707,3.20066 8.436326,5.15625 13.75,5.15625 l 82.53125,0 c 11.31702,0 20.4375,-8.81393 20.4375,-19.78125 l 0,-83.8125 c 0,-4.877214 -1.80986,-9.3136525 -4.8125,-12.75 C 115.92993,4.1823291 113.729,2.8665963 111.3125,2 Z"
         style="color:#000000;display:inline;overflow:visible;visibility:visible;fill:#c9c9cf;fill-opacity:0.25401928;stroke:none;stroke-width:0.96400887;marker:none;filter:url(#filter3835);enable-background:accumulate" />
      <path
         sodipodi:nodetypes="sssccsssscccss"
         inkscape:connector-curvature="0"
         id="rect3796"
         transform="translate(0,924.36218)"
         d="m 23.65625,2.75 c -11.317023,0 -20.4375,8.845177 -20.4375,19.8125 l 0,83.8125 c 0,4.8505 1.7783223,9.26046 4.75,12.6875 1.8502957,1.61847 4.000429,2.9035 6.375,3.78125 -0.720661,-2.02308 -1.488357,-4.23372 -1.125,-6.46875 l 12,-73.8125 C 26.978647,31.737301 34.451287,24.338652 45.65625,22.75 l 70.53125,-10 c 2.55597,-0.362388 5.0458,0.494454 7.3125,1.34375 -0.82375,-2.321834 -2.0613,-4.4443488 -3.65625,-6.28125 -0.0281,-0.024504 -0.0655,-0.038145 -0.0937,-0.0625 -3.60314,-3.110944 -8.3402,-5 -13.5625,-5 z"
         style="color:#000000;display:inline;overflow:visible;visibility:visible;fill:#ffffff;fill-opacity:1;stroke:none;stroke-width:0.96400887;marker:none;filter:url(#filter3839);enable-background:accumulate" />
    </g>
    <rect
       ry="19.831684"
       rx="20.535711"
       y="924.88507"
       x="0.51652676"
       height="123.61176"
       width="124.04474"
       id="rect3851"
       style="color:#000000;display:inline;overflow:visible;visibility:visible;fill:none;stroke:#cbcdd0;stroke-width:1.00352466;stroke-linecap:round;stroke-linejoin:round;stroke-miterlimit:4;stroke-dasharray:none;stroke-dashoffset:0;stroke-opacity:1;marker:none;enable-background:accumulate" />
  </g>
  <g
     inkscape:groupmode="layer"
     id="layer2"
     inkscape:label="outline"
     style="display:none">
    <path
       transform="matrix(0.75165246,0,0,0.75653527,16.084497,74.612325)"
       d="M 48,28 C 48,45.673112 33.673112,60 16,60 -1.673112,60 -16,45.673112 -16,28 -16,10.326888 -1.673112,-4 16,-4 33.673112,-4 48,10.326888 48,28 Z m 40.691924,-120.923394 -67.601056,68.073495 0.291026,16.1096257 c 16.379447,2.3714625 29.274145,15.440762 31.430749,31.8887973 l 17.253652,0 67.559485,-68.032188 C 131.61297,-72.187405 112.82,-85.479912 88.691924,-92.923394 Z"
       style="color:#000000;display:inline;overflow:visible;visibility:visible;fill:none;stroke:#ffffff;stroke-width:2.65220356;stroke-linecap:round;stroke-linejoin:round;stroke-miterlimit:4;stroke-dasharray:none;stroke-dashoffset:0;stroke-opacity:1;marker:none;enable-background:accumulate"
       id="path3961"
       inkscape:connector-curvature="0" />
  </g>
  <g
     inkscape:groupmode="layer"
     id="layer3"
     inkscape:label="icon"
     style="display:inline">
    <path
       id="path3025"
       style="color:#000000;fill:url(#linearGradient3969);fill-opacity:1;fill-rule:nonzero;stroke:none;stroke-width:9.3633728;marker:none;visibility:visible;display:inline;overflow:visible;enable-background:accumulate"
       d="M 48,28 C 48,45.673112 33.673112,60 16,60 -1.673112,60 -16,45.673112 -16,28 -16,10.326888 -1.673112,-4 16,-4 33.673112,-4 48,10.326888 48,28 z m 40.691924,-120.923394 -67.601056,68.073495 0.291026,16.1096257 c 16.379447,2.3714625 29.274145,15.440762 31.430749,31.8887973 l 17.253652,0 67.559485,-68.032188 C 131.61297,-72.187405 112.82,-85.479912 88.691924,-92.923394 z"
       transform="matrix(0.75165246,0,0,0.75653527,16.084497,74.612325)"
       inkscape:connector-curvature="0" />
    <g
       id="g3940"
       mask="url(#mask3946)">
      <path
         id="path3897"
         d="M 82.75,4.3125 31.9375,55.8125 32.15625,68 c 1.351011,0.196874 2.656775,0.49053 3.9375,0.875 L 35.9375,59.8125 86.75,8.3125 c 8.788718,2.728922 16.63787,6.49001 22.90625,12 C 102.88688,12.556424 93.518207,7.6560586 82.75,4.3125 z M 28.125,71.59375 c -13.284038,0 -24.0625,10.817167 -24.0625,24.1875 0,7.7465 3.6254389,14.63123 9.25,19.0625 -3.27086,-4.13483 -5.25,-9.36638 -5.25,-15.0625 0,-13.370333 10.778462,-24.1875 24.0625,-24.1875 5.587538,0 10.697907,1.939217 14.78125,5.15625 C 42.499512,75.179257 35.749686,71.59375 28.125,71.59375 z M 49.6875,78 c 3.218485,3.953219 5.400597,8.804106 6.09375,14.125 l 3.15625,0 C 57.350109,86.497335 54.076351,81.592237 49.6875,78 z"
         style="color:#000000;fill:#141414;fill-opacity:0.73170734;fill-rule:nonzero;stroke:none;stroke-width:1.27762282;marker:none;visibility:visible;display:inline;overflow:visible;filter:url(#filter3822-9-6-4-3-9-7-9);enable-background:accumulate"
         inkscape:connector-curvature="0" />
      <path
         id="path3925"
         d="m 105.6875,16.375 c 4.6089,5.298244 8.01362,11.916777 9.84375,20.28125 L 64.75,88.125 l -9.8125,0 c 0.36688,1.300672 0.665276,2.629966 0.84375,4 l 12.96875,0 50.78125,-51.46875 C 117.20753,30.035878 112.32942,22.230459 105.6875,16.375 z m -73.59375,48.5 0.0625,3.125 c 5.091182,0.741904 9.721427,2.881692 13.53125,6 -3.482362,-4.277335 -8.193957,-7.503998 -13.59375,-9.125 z m 10.8125,11.875 c 3.27086,4.134831 5.25,9.335135 5.25,15.03125 C 48.15625,105.15158 37.409038,116 24.125,116 18.537462,116 13.395843,114.06078 9.3125,110.84375 13.719238,116.41449 20.500314,120 28.125,120 c 13.284038,0 24.03125,-10.84842 24.03125,-24.21875 0,-7.746497 -3.625439,-14.599978 -9.25,-19.03125 z"
         style="color:#000000;fill:#ffffff;fill-opacity:0.39430895;fill-rule:nonzero;stroke:none;stroke-width:1.27762282;marker:none;visibility:visible;display:inline;overflow:visible;filter:url(#filter3822-2-7-6-8-3-5-6);enable-background:accumulate"
         inkscape:connector-curvature="0" />
    </g>
  </g>
</svg>
