<?xml version="1.0" encoding="UTF-8" standalone="no"?>
<!-- Created with Inkscape (http://www.inkscape.org/) -->

<svg
   width="128"
   height="128"
   id="svg2"
   version="1.1"
   inkscape:version="1.3.2 (1:1.3.2+202311252150+091e20ef0f)"
   sodipodi:docname="refresh.svg"
   inkscape:export-filename="refresh_32.png"
   inkscape:export-xdpi="24"
   inkscape:export-ydpi="24"
   xmlns:inkscape="http://www.inkscape.org/namespaces/inkscape"
   xmlns:sodipodi="http://sodipodi.sourceforge.net/DTD/sodipodi-0.dtd"
   xmlns:xlink="http://www.w3.org/1999/xlink"
   xmlns="http://www.w3.org/2000/svg"
   xmlns:svg="http://www.w3.org/2000/svg"
   xmlns:rdf="http://www.w3.org/1999/02/22-rdf-syntax-ns#"
   xmlns:cc="http://creativecommons.org/ns#"
   xmlns:dc="http://purl.org/dc/elements/1.1/">
  <defs
     id="defs4">
    <linearGradient
       id="linearGradient3843">
      <stop
         style="stop-color:#f9f9fa;stop-opacity:1;"
         offset="0"
         id="stop3845" />
      <stop
         style="stop-color:#efeff0;stop-opacity:1;"
         offset="1"
         id="stop3847" />
    </linearGradient>
    <filter
       inkscape:collect="always"
       id="filter3784"
       x="-0.014414414"
       y="-0.014414414"
       width="1.0288288"
       height="1.0288288">
      <feGaussianBlur
         inkscape:collect="always"
         stdDeviation="0.74109996"
         id="feGaussianBlur3786" />
    </filter>
    <filter
       inkscape:collect="always"
       id="filter3835"
       x="-0.11912061"
       width="1.2382412"
       y="-0.11871791"
       height="1.2374358">
      <feGaussianBlur
         inkscape:collect="always"
         stdDeviation="5.9436221"
         id="feGaussianBlur3837" />
    </filter>
    <filter
       inkscape:collect="always"
       id="filter3839"
       x="-0.090019872"
       y="-0.090160418"
       width="1.1800397"
       height="1.1803208">
      <feGaussianBlur
         inkscape:collect="always"
         stdDeviation="4.5115428"
         id="feGaussianBlur3841" />
    </filter>
    <linearGradient
       inkscape:collect="always"
       xlink:href="#linearGradient3843"
       id="linearGradient3849"
       x1="14.267717"
       y1="932.53717"
       x2="86.410866"
       y2="1016.1086"
       gradientUnits="userSpaceOnUse"
       gradientTransform="matrix(1.0053767,0,0,1.0018799,-0.73513181,-1.9949957)" />
    <mask
       maskUnits="userSpaceOnUse"
       id="mask3859">
      <rect
         ry="19.796612"
         rx="20.427839"
         y="925.12628"
         x="1.2320045"
         height="123.39314"
         width="123.39314"
         id="rect3861"
         style="color:#000000;fill:#ffffff;fill-opacity:1;stroke:none;stroke-width:0.96400887;marker:none;visibility:visible;display:inline;overflow:visible;enable-background:accumulate" />
    </mask>
    <linearGradient
       inkscape:collect="always"
       xlink:href="#linearGradient3834-0-7-118-6-4-8-2"
       id="linearGradient3076-38"
       gradientUnits="userSpaceOnUse"
       gradientTransform="matrix(0.06787012,-0.09026143,0.06144434,0.08171569,-81.723824,62.373529)"
       x1="971.05035"
       y1="713.14166"
       x2="862.22107"
       y2="1529.1039" />
    <linearGradient
       id="linearGradient3834-0-7-118-6-4-8-2">
      <stop
         style="stop-color:#626262;stop-opacity:1;"
         offset="0"
         id="stop3836-1-1-88-7-5-5-8" />
      <stop
         style="stop-color:#707070;stop-opacity:1;"
         offset="1"
         id="stop3838-0-6-22-3-8-6-9" />
    </linearGradient>
    <filter
       color-interpolation-filters="sRGB"
       inkscape:collect="always"
       id="filter3822-9-6-4-3-9-7-5"
       x="-0.060984626"
       y="-0.065530011"
       width="1.1219693"
       height="1.13106">
      <feGaussianBlur
         inkscape:collect="always"
         stdDeviation="2.8610366"
         id="feGaussianBlur3824-5-7-3-1-6-3-6" />
    </filter>
    <filter
       color-interpolation-filters="sRGB"
       inkscape:collect="always"
       id="filter3822-2-7-6-8-3-5-7"
       x="-0.067629303"
       y="-0.070400791"
       width="1.1352586"
       height="1.1408016">
      <feGaussianBlur
         inkscape:collect="always"
         stdDeviation="2.8610366"
         id="feGaussianBlur3824-4-8-9-4-4-3-6" />
    </filter>
    <mask
       maskUnits="userSpaceOnUse"
       id="mask3958">
      <path
         id="path3960"
         d="M 60.84375,8.0625 C 28.983545,8.0625 8.0625,34.161246 8.0625,64 c 0,29.838755 26.21396,53.96875 47.59375,54.09375 21.12265,0.19572 33.182439,-9.23001 35.78125,-23.40625 -2.51633,8.29973 -13.627431,16.87515 -33.03125,13.34375 C 39.026604,104.50425 23.125,84.918512 23.125,64.09375 c 0,-20.824762 15.343404,-37.625 36.1875,-37.625 13.856583,0 24.869287,8.66006 30.53125,20.90625 L 70.5,45.59375 c 16.142552,17.164032 21.724285,26.680898 28.6875,40.0625 16.59031,-15.83069 20.052,-37.131757 21.46875,-55.625 l -12.8125,13.28125 c -7.4171,-20.219844 -25.42995,-35.25 -47,-35.25 z"
         style="font-size:medium;font-style:normal;font-variant:normal;font-weight:normal;font-stretch:normal;text-indent:0;text-align:start;text-decoration:none;line-height:normal;letter-spacing:normal;word-spacing:normal;text-transform:none;direction:ltr;block-progression:tb;writing-mode:lr-tb;text-anchor:start;baseline-shift:baseline;opacity:0.98000004;color:#000000;fill:#ffffff;fill-opacity:1;fill-rule:nonzero;stroke:none;stroke-width:9.3633728;marker:none;visibility:visible;display:inline;overflow:visible;enable-background:accumulate;font-family:Sans;-inkscape-font-specification:Sans"
         inkscape:connector-curvature="0" />
    </mask>
  </defs>
  <sodipodi:namedview
     id="base"
     pagecolor="#ffffff"
     bordercolor="#666666"
     borderopacity="1.0"
     inkscape:pageopacity="0"
     inkscape:pageshadow="2"
     inkscape:zoom="5.6568542"
     inkscape:cx="47.199378"
     inkscape:cy="85.471533"
     inkscape:document-units="px"
     inkscape:current-layer="layer2"
     showgrid="true"
     inkscape:window-width="1868"
     inkscape:window-height="1016"
     inkscape:window-x="52"
     inkscape:window-y="27"
     inkscape:window-maximized="1"
     showguides="true"
     inkscape:guide-bbox="true"
     inkscape:snap-global="false"
     inkscape:showpageshadow="2"
     inkscape:pagecheckerboard="0"
     inkscape:deskcolor="#d1d1d1">
    <inkscape:grid
       type="xygrid"
       id="grid3901"
       empspacing="4"
       visible="true"
       enabled="true"
       snapvisiblegridlinesonly="true"
       dotted="false"
       spacingx="4"
       spacingy="4"
       color="#ff00bf"
       opacity="0.1254902"
       empcolor="#ff00cb"
       empopacity="0.25098039"
       originx="0"
       originy="0"
       units="px" />
    <sodipodi:guide
       orientation="0,1"
       position="82.074894,122.481"
       id="guide3803"
       inkscape:locked="false" />
    <sodipodi:guide
       orientation="1,0"
       position="5.5,70.963216"
       id="guide3805"
       inkscape:locked="false" />
    <sodipodi:guide
       orientation="1,0"
       position="120,22.728432"
       id="guide3807"
       inkscape:locked="false" />
    <sodipodi:guide
       orientation="0,1"
       position="-33.335,8"
       id="guide3811"
       inkscape:locked="false" />
  </sodipodi:namedview>
  <metadata
     id="metadata7">
    <rdf:RDF>
      <cc:Work
         rdf:about="">
        <dc:format>image/svg+xml</dc:format>
        <dc:type
           rdf:resource="http://purl.org/dc/dcmitype/StillImage" />
        <cc:license
           rdf:resource="http://creativecommons.org/licenses/by-sa/4.0/" />
      </cc:Work>
      <cc:License
         rdf:about="http://creativecommons.org/licenses/by-sa/4.0/">
        <cc:permits
           rdf:resource="http://creativecommons.org/ns#Reproduction" />
        <cc:permits
           rdf:resource="http://creativecommons.org/ns#Distribution" />
        <cc:requires
           rdf:resource="http://creativecommons.org/ns#Notice" />
        <cc:requires
           rdf:resource="http://creativecommons.org/ns#Attribution" />
        <cc:permits
           rdf:resource="http://creativecommons.org/ns#DerivativeWorks" />
        <cc:requires
           rdf:resource="http://creativecommons.org/ns#ShareAlike" />
      </cc:License>
    </rdf:RDF>
  </metadata>
  <g
     inkscape:label="base"
     inkscape:groupmode="layer"
     id="layer1"
     transform="translate(0,-924.36218)"
     style="display:none"
     sodipodi:insensitive="true">
    <rect
       ry="19.796612"
       rx="20.427839"
       y="927.12628"
       x="3.2320046"
       height="123.39314"
       width="123.39314"
       id="rect3766"
       style="color:#000000;display:inline;overflow:visible;visibility:visible;fill:#252628;fill-opacity:0.128617;stroke:none;stroke-width:0.964009;marker:none;filter:url(#filter3784);enable-background:accumulate"
       transform="matrix(1.0053767,0,0,1.0018799,-0.73513181,-1.9949957)" />
    <rect
       style="color:#000000;display:inline;overflow:visible;visibility:visible;fill:url(#linearGradient3849);fill-opacity:1;stroke:none;stroke-width:0.964009;marker:none;enable-background:accumulate"
       id="rect2985"
       width="124.05659"
       height="123.62511"
       x="0.50349683"
       y="924.87036"
       rx="20.537672"
       ry="19.833828" />
    <g
       id="g3853"
       mask="url(#mask3859)"
       transform="matrix(1.0053767,0,0,1.0018799,-0.73513181,-1.9949957)">
      <path
         sodipodi:nodetypes="csssscccsssscc"
         inkscape:connector-curvature="0"
         id="rect3788"
         transform="translate(0,924.36218)"
         d="m 111.3125,2 c 1.0638,2.3966046 2.03056,5.049628 1.65625,7.8125 l -10,73.8125 c -1.47238,10.868035 -9.195281,18.23558 -20.40625,19.78125 l -72.53125,10 C 7.534242,113.75052 5.0997184,112.93384 2.875,112.125 c 0.7713464,1.76264 1.7621331,3.38896 3,4.84375 0.010886,0.01 0.020343,0.0216 0.03125,0.0312 3.6235707,3.20066 8.436326,5.15625 13.75,5.15625 h 82.53125 c 11.31702,0 20.4375,-8.81393 20.4375,-19.78125 v -83.8125 c 0,-4.877214 -1.80986,-9.3136525 -4.8125,-12.75 C 115.92993,4.1823291 113.729,2.8665963 111.3125,2 Z"
         style="color:#000000;display:inline;overflow:visible;visibility:visible;fill:#c9c9cf;fill-opacity:0.254019;stroke:none;stroke-width:0.964009;marker:none;filter:url(#filter3835);enable-background:accumulate" />
      <path
         sodipodi:nodetypes="sssccsssscccss"
         inkscape:connector-curvature="0"
         id="rect3796"
         transform="translate(0,924.36218)"
         d="m 23.65625,2.75 c -11.317023,0 -20.4375,8.845177 -20.4375,19.8125 v 83.8125 c 0,4.8505 1.7783223,9.26046 4.75,12.6875 1.8502957,1.61847 4.000429,2.9035 6.375,3.78125 -0.720661,-2.02308 -1.488357,-4.23372 -1.125,-6.46875 l 12,-73.8125 C 26.978647,31.737301 34.451287,24.338652 45.65625,22.75 l 70.53125,-10 c 2.55597,-0.362388 5.0458,0.494454 7.3125,1.34375 -0.82375,-2.321834 -2.0613,-4.4443488 -3.65625,-6.28125 -0.0281,-0.024504 -0.0655,-0.038145 -0.0937,-0.0625 -3.60314,-3.110944 -8.3402,-5 -13.5625,-5 z"
         style="color:#000000;display:inline;overflow:visible;visibility:visible;fill:#ffffff;fill-opacity:1;stroke:none;stroke-width:0.964009;marker:none;filter:url(#filter3839);enable-background:accumulate" />
    </g>
    <rect
       ry="19.833828"
       rx="20.537672"
       y="924.87036"
       x="0.50349683"
       height="123.62511"
       width="124.05659"
       id="rect3851"
       style="color:#000000;display:inline;overflow:visible;visibility:visible;fill:none;stroke:#cbcdd0;stroke-width:1.00363;stroke-linecap:round;stroke-linejoin:round;stroke-miterlimit:4;stroke-dasharray:none;stroke-dashoffset:0;stroke-opacity:1;marker:none;enable-background:accumulate" />
  </g>
  <g
     inkscape:groupmode="layer"
     id="layer2"
     inkscape:label="outline">
    <path
       id="path3948"
       d="M 60.84375,8.0625 C 28.983545,8.0625 8.0625,34.161246 8.0625,64 c 0,29.838755 26.21396,53.96875 47.59375,54.09375 21.12265,0.19572 33.182439,-9.23001 35.78125,-23.40625 -2.51633,8.29973 -13.627431,16.87515 -33.03125,13.34375 C 39.026604,104.50425 23.125,84.918512 23.125,64.09375 c 0,-20.824762 15.343404,-37.625 36.1875,-37.625 13.856583,0 24.869287,8.66006 30.53125,20.90625 L 70.5,45.59375 c 16.142552,17.164032 21.724285,26.680898 28.6875,40.0625 16.59031,-15.83069 20.052,-37.131757 21.46875,-55.625 l -12.8125,13.28125 c -7.4171,-20.219844 -25.42995,-35.25 -47,-35.25 z"
       style="display:inline;font-size:medium;font-style:normal;font-variant:normal;font-weight:normal;font-stretch:normal;text-indent:0;text-align:start;text-decoration:none;line-height:normal;letter-spacing:normal;word-spacing:normal;text-transform:none;direction:ltr;block-progression:tb;writing-mode:lr-tb;text-anchor:start;baseline-shift:baseline;opacity:0.98000003999999996;color:#000000;fill:none;stroke:#ffffff;stroke-width:2;stroke-linecap:round;stroke-linejoin:round;stroke-miterlimit:4;stroke-opacity:1;stroke-dasharray:none;stroke-dashoffset:0;marker:none;visibility:visible;overflow:visible;enable-background:accumulate;font-family:Sans;-inkscape-font-specification:Sans"
       inkscape:connector-curvature="0" />
  </g>
  <g
     inkscape:groupmode="layer"
     id="layer3"
     inkscape:label="icon"
     style="display:inline">
    <path
       style="font-size:medium;font-style:normal;font-variant:normal;font-weight:normal;font-stretch:normal;text-indent:0;text-align:start;text-decoration:none;line-height:normal;letter-spacing:normal;word-spacing:normal;text-transform:none;direction:ltr;block-progression:tb;writing-mode:lr-tb;text-anchor:start;baseline-shift:baseline;opacity:0.98000004;color:#000000;fill:url(#linearGradient3076-38);fill-opacity:1;fill-rule:nonzero;stroke:none;stroke-width:9.3633728;marker:none;visibility:visible;display:inline;overflow:visible;enable-background:accumulate;font-family:Sans;-inkscape-font-specification:Sans"
       d="M 60.84375,8.0625 C 28.983545,8.0625 8.0625,34.161246 8.0625,64 c 0,29.838755 26.21396,53.96875 47.59375,54.09375 21.12265,0.19572 33.182439,-9.23001 35.78125,-23.40625 -2.51633,8.29973 -13.627431,16.87515 -33.03125,13.34375 C 39.026604,104.50425 23.125,84.918512 23.125,64.09375 c 0,-20.824762 15.343404,-37.625 36.1875,-37.625 13.856583,0 24.869287,8.66006 30.53125,20.90625 L 70.5,45.59375 c 16.142552,17.164032 21.724285,26.680898 28.6875,40.0625 16.59031,-15.83069 20.052,-37.131757 21.46875,-55.625 l -12.8125,13.28125 c -7.4171,-20.219844 -25.42995,-35.25 -47,-35.25 z"
       id="path3025"
       inkscape:connector-curvature="0" />
    <g
       id="g3933"
       mask="url(#mask3958)">
      <path
         sodipodi:nodetypes="sscsscsccccccccccccccscscc"
         inkscape:connector-curvature="0"
         id="path3887"
         d="M 60.84375,8.0625 C 28.983545,8.0625 8.0625,34.161246 8.0625,64 c 0,16.734823 8.236309,31.677859 19.25,41.59375 C 18.373564,95.865929 12.0625,82.624871 12.0625,68 c 0,-29.838754 20.921045,-55.9375 52.78125,-55.9375 12.078648,0 23.044368,4.708137 31.65625,12.40625 C 87.414122,14.438039 74.890754,8.0625 60.84375,8.0625 z m 59.8125,21.96875 -12.7968,13.24724 3.9843,4.03401 7.90625,-8.1875 c 0.37797,-3.075293 0.6791,-6.128696 0.90625,-9.09375 z m -36.8125,8 c 2.376897,2.760058 4.410773,5.906431 6,9.34375 L 70.5,45.59375 c 16.142552,17.164032 21.724285,26.680898 28.6875,40.0625 0.422251,-0.402917 0.84458,-0.808882 1.25,-1.21875 C 94.543756,73.570789 88.475743,64.45386 74.5,49.59375 L 93.84375,51.375 c -2.421397,-5.237209 -5.817451,-9.815163 -10,-13.34375 z M 91.4375,94.6875 C 88.92117,102.98723 77.810069,111.56265 58.40625,108.03125 51.258506,106.7304 44.578156,103.23886 39,98.3125 c 6.24278,7.01967 14.455877,12.08983 23.40625,13.71875 7.355727,1.33871 13.512915,0.93514 18.46875,-0.53125 5.751084,-4.09087 9.291409,-9.87883 10.5625,-16.8125 z"
         style="font-size:medium;font-style:normal;font-variant:normal;font-weight:normal;font-stretch:normal;text-indent:0;text-align:start;text-decoration:none;line-height:normal;letter-spacing:normal;word-spacing:normal;text-transform:none;direction:ltr;block-progression:tb;writing-mode:lr-tb;text-anchor:start;baseline-shift:baseline;opacity:0.98000004;color:#000000;fill:#141414;fill-opacity:0.73170734;fill-rule:nonzero;stroke:none;stroke-width:0.96344244;marker:none;visibility:visible;display:inline;overflow:visible;filter:url(#filter3822-9-6-4-3-9-7-5);enable-background:accumulate;font-family:Sans;-inkscape-font-specification:Sans" />
      <path
         sodipodi:nodetypes="ccccsscsscsccccccccccc"
         inkscape:connector-curvature="0"
         id="path3915"
         d="m 92.625,20.5625 c 4.817083,5.348479 8.6504,11.748399 11.21875,18.75 l 3.99318,3.899272 C 105.73497,33.572896 97.871539,25.280383 92.625,20.5625 z m -37.3125,1.90625 c -20.844096,0 -36.1875,16.800238 -36.1875,37.625 0,13.14402 6.329126,25.788288 15.875,34.21875 -7.274296,-8.179552 -11.875,-19.011779 -11.875,-30.21875 0,-20.824762 15.343404,-37.625 36.1875,-37.625 7.930673,0 14.933725,2.840175 20.53125,7.5625 C 73.752441,26.958007 65.279751,22.46875 55.3125,22.46875 z m 65.34375,7.5625 L 116.25,35.375 c -1.91944,15.617332 -6.03018,31.575529 -19,44.6875 0.913771,1.684783 1.00283,3.797542 1.9375,5.59375 16.59031,-15.83069 20.052,-37.131757 21.46875,-55.625 z M 91.4375,94.6875 c -1.562423,5.153414 -6.224267,10.85261 -14.341529,13.25444 -6.007306,4.27313 -14.648259,6.2518 -25.439721,6.15181 -9.353658,-0.0547 -19.645739,-4.69428 -28.25,-12.40625 9.287327,10.06256 21.384155,16.34272 32.25,16.40625 21.12265,0.19572 33.182439,-9.23001 35.78125,-23.40625 z"
         style="font-size:medium;font-style:normal;font-variant:normal;font-weight:normal;font-stretch:normal;text-indent:0;text-align:start;text-decoration:none;line-height:normal;letter-spacing:normal;word-spacing:normal;text-transform:none;direction:ltr;block-progression:tb;writing-mode:lr-tb;text-anchor:start;baseline-shift:baseline;opacity:0.98000004;color:#000000;fill:#ffffff;fill-opacity:0.39430895;fill-rule:nonzero;stroke:none;stroke-width:0.96344244;marker:none;visibility:visible;display:inline;overflow:visible;filter:url(#filter3822-2-7-6-8-3-5-7);enable-background:accumulate;font-family:Sans;-inkscape-font-specification:Sans" />
    </g>
  </g>
</svg>
