<?xml version="1.0" encoding="UTF-8" standalone="no"?>
<!-- Created with Inkscape (http://www.inkscape.org/) -->

<svg
   width="128"
   height="128"
   id="svg2"
   version="1.1"
   inkscape:version="1.3.2 (1:1.3.2+202311252150+091e20ef0f)"
   sodipodi:docname="relations.svg"
   inkscape:export-filename="relations_32.png"
   inkscape:export-xdpi="24"
   inkscape:export-ydpi="24"
   xmlns:inkscape="http://www.inkscape.org/namespaces/inkscape"
   xmlns:sodipodi="http://sodipodi.sourceforge.net/DTD/sodipodi-0.dtd"
   xmlns:xlink="http://www.w3.org/1999/xlink"
   xmlns="http://www.w3.org/2000/svg"
   xmlns:svg="http://www.w3.org/2000/svg"
   xmlns:rdf="http://www.w3.org/1999/02/22-rdf-syntax-ns#"
   xmlns:cc="http://creativecommons.org/ns#"
   xmlns:dc="http://purl.org/dc/elements/1.1/">
  <defs
     id="defs4">
    <linearGradient
       id="linearGradient3843">
      <stop
         style="stop-color:#f9f9fa;stop-opacity:1;"
         offset="0"
         id="stop3845" />
      <stop
         style="stop-color:#efeff0;stop-opacity:1;"
         offset="1"
         id="stop3847" />
    </linearGradient>
    <filter
       inkscape:collect="always"
       id="filter3784"
       x="-0.014414414"
       y="-0.014414414"
       width="1.0288288"
       height="1.0288288">
      <feGaussianBlur
         inkscape:collect="always"
         stdDeviation="0.74109996"
         id="feGaussianBlur3786" />
    </filter>
    <filter
       inkscape:collect="always"
       id="filter3835"
       x="-0.11912061"
       width="1.2382412"
       y="-0.11871791"
       height="1.2374358">
      <feGaussianBlur
         inkscape:collect="always"
         stdDeviation="5.9436221"
         id="feGaussianBlur3837" />
    </filter>
    <filter
       inkscape:collect="always"
       id="filter3839"
       x="-0.090019872"
       y="-0.090160418"
       width="1.1800397"
       height="1.1803208">
      <feGaussianBlur
         inkscape:collect="always"
         stdDeviation="4.5115428"
         id="feGaussianBlur3841" />
    </filter>
    <linearGradient
       inkscape:collect="always"
       xlink:href="#linearGradient3843"
       id="linearGradient3849"
       x1="14.267717"
       y1="932.53717"
       x2="86.410866"
       y2="1016.1086"
       gradientUnits="userSpaceOnUse"
       gradientTransform="matrix(1.0053759,0,0,1.0020907,-0.73508696,-2.2186504)" />
    <mask
       maskUnits="userSpaceOnUse"
       id="mask3859">
      <rect
         ry="19.796612"
         rx="20.427839"
         y="925.12628"
         x="1.2320045"
         height="123.39314"
         width="123.39314"
         id="rect3861"
         style="color:#000000;fill:#ffffff;fill-opacity:1;stroke:none;stroke-width:0.96400887;marker:none;visibility:visible;display:inline;overflow:visible;enable-background:accumulate" />
    </mask>
    <linearGradient
       id="linearGradient3834-0-7-118-6-4-8-3">
      <stop
         style="stop-color:#626262;stop-opacity:1;"
         offset="0"
         id="stop3836-1-1-88-7-5-5-8" />
      <stop
         style="stop-color:#707070;stop-opacity:1;"
         offset="1"
         id="stop3838-0-6-22-3-8-6-1" />
    </linearGradient>
    <linearGradient
       inkscape:collect="always"
       xlink:href="#linearGradient3834-0-7-118-6-4-8-3"
       id="linearGradient4742"
       gradientUnits="userSpaceOnUse"
       gradientTransform="matrix(0.01011199,-0.06452326,0.05357633,0.02501241,-44.053849,124.81917)"
       x1="1895.3948"
       y1="833.19281"
       x2="1182.4987"
       y2="2071.1536" />
    <filter
       color-interpolation-filters="sRGB"
       inkscape:collect="always"
       id="filter3822-9-6-4-3-9-7-6"
       x="-0.061637022"
       y="-0.060731486"
       width="1.123274"
       height="1.121463">
      <feGaussianBlur
         inkscape:collect="always"
         stdDeviation="2.8610366"
         id="feGaussianBlur3824-5-7-3-1-6-3-0" />
    </filter>
    <filter
       color-interpolation-filters="sRGB"
       inkscape:collect="always"
       id="filter3822-2-7-6-8-3-5-0"
       x="-0.061637021"
       y="-0.060716236"
       width="1.123274"
       height="1.1214325">
      <feGaussianBlur
         inkscape:collect="always"
         stdDeviation="2.8610366"
         id="feGaussianBlur3824-4-8-9-4-4-3-3" />
    </filter>
    <mask
       maskUnits="userSpaceOnUse"
       id="mask4806">
      <path
         id="path4808"
         d="m 36.40625,4.0625 c -2.611048,-0.02181 -5.28316,0.5927472 -7.75,1.90625 -7.893889,4.203209 -10.890709,13.981111 -6.6875,21.875 4.203209,7.893889 14.012361,10.890709 21.90625,6.6875 C 51.768889,30.328041 54.765709,20.518889 50.5625,12.625 47.672794,7.1979516 42.150556,4.1104814 36.40625,4.0625 z M 51.6875,26.875 63.65625,46.40625 c 0.438255,-1.876711 0.955891,-3.537279 1.59375,-5.0625 0.0684,0.05924 0.114307,0.132225 0.1875,0.1875 L 83.625,52.75 c 1.756719,1.326482 4.218976,0.946387 5.5,-0.84375 1.281019,-1.790136 0.881714,-4.26727 -0.875,-5.59375 L 70.0625,35.0625 C 69.96839,34.99144 69.847777,34.936354 69.75,34.875 c 1.13702,-1.049233 2.480957,-2.072363 4.09375,-3.09375 L 51.6875,26.875 z M 32.625,37.6875 19.53125,56.46875 c 1.895363,-0.348871 3.628216,-0.537146 5.28125,-0.5625 -0.02694,0.08638 -0.07236,0.160809 -0.09375,0.25 L 20.5625,79.625 c -0.513218,2.140613 0.846938,4.229311 3,4.6875 2.153061,0.458189 4.268033,-0.890638 4.78125,-3.03125 l 4.15625,-23.5 c 0.02749,-0.114676 0.01412,-0.229596 0.03125,-0.34375 1.416398,0.622512 2.887598,1.461534 4.46875,2.53125 L 32.625,37.6875 z m 71.34375,7.125 c -2.61105,-0.02181 -5.28316,0.592747 -7.75,1.90625 -7.893889,4.203209 -10.890709,14.012361 -6.6875,21.90625 4.203209,7.893889 14.01236,10.859459 21.90625,6.65625 7.89389,-4.203209 10.89071,-13.981111 6.6875,-21.875 -2.88971,-5.427048 -8.41194,-8.545769 -14.15625,-8.59375 z M 89.5625,68.96875 66.75,71.09375 c 1.490538,1.221641 2.756709,2.410657 3.84375,3.65625 -0.08335,0.03523 -0.168096,0.05247 -0.25,0.09375 L 40.625,90 c -1.965688,0.9908 -2.697101,3.372851 -1.65625,5.3125 1.040851,1.939649 3.440562,2.6783 5.40625,1.6875 l 29.75,-15.15625 c 0.105305,-0.05308 0.183041,-0.126842 0.28125,-0.1875 0.439596,1.483394 0.764147,3.133232 0.96875,5.03125 L 89.5625,68.96875 z m -67.53125,18.6875 c -2.611048,-0.02181 -5.25191,0.592747 -7.71875,1.90625 -7.8938886,4.203209 -10.8907088,14.01236 -6.6875,21.90625 4.203209,7.89389 14.012361,10.89071 21.90625,6.6875 7.893889,-4.20321 10.890709,-14.01236 6.6875,-21.90625 -2.889706,-5.427048 -8.443194,-8.545769 -14.1875,-8.59375 z"
         style="color:#000000;fill:#ffffff;fill-opacity:1;fill-rule:nonzero;stroke:none;stroke-width:9.3633728;marker:none;visibility:visible;display:inline;overflow:visible;enable-background:accumulate"
         inkscape:connector-curvature="0" />
    </mask>
  </defs>
  <sodipodi:namedview
     id="base"
     pagecolor="#ffffff"
     bordercolor="#666666"
     borderopacity="1.0"
     inkscape:pageopacity="0"
     inkscape:pageshadow="2"
     inkscape:zoom="4"
     inkscape:cx="6.75"
     inkscape:cy="35.125"
     inkscape:document-units="px"
     inkscape:current-layer="layer2"
     showgrid="true"
     inkscape:window-width="1868"
     inkscape:window-height="1016"
     inkscape:window-x="52"
     inkscape:window-y="27"
     inkscape:window-maximized="1"
     showguides="true"
     inkscape:guide-bbox="true"
     inkscape:snap-global="false"
     inkscape:showpageshadow="2"
     inkscape:pagecheckerboard="0"
     inkscape:deskcolor="#d1d1d1">
    <inkscape:grid
       type="xygrid"
       id="grid3901"
       empspacing="4"
       visible="true"
       enabled="true"
       snapvisiblegridlinesonly="true"
       dotted="false"
       spacingx="4"
       spacingy="4"
       color="#ff00bf"
       opacity="0.1254902"
       empcolor="#ff00cb"
       empopacity="0.25098039"
       originx="0"
       originy="0"
       units="px" />
    <sodipodi:guide
       orientation="0,1"
       position="82.074894,122.481"
       id="guide3803"
       inkscape:locked="false" />
    <sodipodi:guide
       orientation="1,0"
       position="5.5,70.963216"
       id="guide3805"
       inkscape:locked="false" />
    <sodipodi:guide
       orientation="1,0"
       position="120,22.728432"
       id="guide3807"
       inkscape:locked="false" />
    <sodipodi:guide
       orientation="0,1"
       position="-33.335,8"
       id="guide3811"
       inkscape:locked="false" />
  </sodipodi:namedview>
  <metadata
     id="metadata7">
    <rdf:RDF>
      <cc:Work
         rdf:about="">
        <dc:format>image/svg+xml</dc:format>
        <dc:type
           rdf:resource="http://purl.org/dc/dcmitype/StillImage" />
        <cc:license
           rdf:resource="http://creativecommons.org/licenses/by-sa/4.0/" />
      </cc:Work>
      <cc:License
         rdf:about="http://creativecommons.org/licenses/by-sa/4.0/">
        <cc:permits
           rdf:resource="http://creativecommons.org/ns#Reproduction" />
        <cc:permits
           rdf:resource="http://creativecommons.org/ns#Distribution" />
        <cc:requires
           rdf:resource="http://creativecommons.org/ns#Notice" />
        <cc:requires
           rdf:resource="http://creativecommons.org/ns#Attribution" />
        <cc:permits
           rdf:resource="http://creativecommons.org/ns#DerivativeWorks" />
        <cc:requires
           rdf:resource="http://creativecommons.org/ns#ShareAlike" />
      </cc:License>
    </rdf:RDF>
  </metadata>
  <g
     inkscape:label="base"
     inkscape:groupmode="layer"
     id="layer1"
     transform="translate(0,-924.36218)"
     style="display:none"
     sodipodi:insensitive="true">
    <rect
       ry="19.796612"
       rx="20.427839"
       y="927.12628"
       x="3.2320046"
       height="123.39314"
       width="123.39314"
       id="rect3766"
       style="color:#000000;display:inline;overflow:visible;visibility:visible;fill:#252628;fill-opacity:0.12861735;stroke:none;stroke-width:0.96400887;marker:none;filter:url(#filter3784);enable-background:accumulate"
       transform="matrix(1.0053759,0,0,1.0020907,-0.73508696,-2.2186504)" />
    <rect
       style="color:#000000;display:inline;overflow:visible;visibility:visible;fill:url(#linearGradient3849);fill-opacity:1;stroke:none;stroke-width:0.96400887;marker:none;enable-background:accumulate"
       id="rect2985"
       width="124.0565"
       height="123.65113"
       x="0.50354075"
       y="924.8418"
       rx="20.537657"
       ry="19.838001" />
    <g
       id="g3853"
       mask="url(#mask3859)"
       transform="matrix(1.0053759,0,0,1.0020907,-0.73508696,-2.2186504)">
      <path
         sodipodi:nodetypes="csssscccsssscc"
         inkscape:connector-curvature="0"
         id="rect3788"
         transform="translate(0,924.36218)"
         d="m 111.3125,2 c 1.0638,2.3966046 2.03056,5.049628 1.65625,7.8125 l -10,73.8125 c -1.47238,10.868035 -9.195281,18.23558 -20.40625,19.78125 l -72.53125,10 C 7.534242,113.75052 5.0997184,112.93384 2.875,112.125 c 0.7713464,1.76264 1.7621331,3.38896 3,4.84375 0.010886,0.01 0.020343,0.0216 0.03125,0.0312 3.6235707,3.20066 8.436326,5.15625 13.75,5.15625 l 82.53125,0 c 11.31702,0 20.4375,-8.81393 20.4375,-19.78125 l 0,-83.8125 c 0,-4.877214 -1.80986,-9.3136525 -4.8125,-12.75 C 115.92993,4.1823291 113.729,2.8665963 111.3125,2 Z"
         style="color:#000000;display:inline;overflow:visible;visibility:visible;fill:#c9c9cf;fill-opacity:0.25401928;stroke:none;stroke-width:0.96400887;marker:none;filter:url(#filter3835);enable-background:accumulate" />
      <path
         sodipodi:nodetypes="sssccsssscccss"
         inkscape:connector-curvature="0"
         id="rect3796"
         transform="translate(0,924.36218)"
         d="m 23.65625,2.75 c -11.317023,0 -20.4375,8.845177 -20.4375,19.8125 l 0,83.8125 c 0,4.8505 1.7783223,9.26046 4.75,12.6875 1.8502957,1.61847 4.000429,2.9035 6.375,3.78125 -0.720661,-2.02308 -1.488357,-4.23372 -1.125,-6.46875 l 12,-73.8125 C 26.978647,31.737301 34.451287,24.338652 45.65625,22.75 l 70.53125,-10 c 2.55597,-0.362388 5.0458,0.494454 7.3125,1.34375 -0.82375,-2.321834 -2.0613,-4.4443488 -3.65625,-6.28125 -0.0281,-0.024504 -0.0655,-0.038145 -0.0937,-0.0625 -3.60314,-3.110944 -8.3402,-5 -13.5625,-5 z"
         style="color:#000000;display:inline;overflow:visible;visibility:visible;fill:#ffffff;fill-opacity:1;stroke:none;stroke-width:0.96400887;marker:none;filter:url(#filter3839);enable-background:accumulate" />
    </g>
    <rect
       ry="19.838001"
       rx="20.537657"
       y="924.8418"
       x="0.50354075"
       height="123.65113"
       width="124.0565"
       id="rect3851"
       style="color:#000000;display:inline;overflow:visible;visibility:visible;fill:none;stroke:#cbcdd0;stroke-width:1.00373209;stroke-linecap:round;stroke-linejoin:round;stroke-miterlimit:4;stroke-dasharray:none;stroke-dashoffset:0;stroke-opacity:1;marker:none;enable-background:accumulate" />
  </g>
  <g
     inkscape:groupmode="layer"
     id="layer2"
     inkscape:label="outline"
     style="display:none">
    <path
       id="path4821"
       d="m 36.40625,4.0625 c -2.611048,-0.02181 -5.28316,0.5927472 -7.75,1.90625 -7.893889,4.203209 -10.890709,13.981111 -6.6875,21.875 4.203209,7.893889 14.012361,10.890709 21.90625,6.6875 C 51.768889,30.328041 54.765709,20.518889 50.5625,12.625 47.672794,7.1979516 42.150556,4.1104814 36.40625,4.0625 Z M 51.6875,26.875 63.65625,46.40625 c 0.438255,-1.876711 0.955891,-3.537279 1.59375,-5.0625 0.0684,0.05924 0.114307,0.132225 0.1875,0.1875 L 83.625,52.75 c 1.756719,1.326482 4.218976,0.946387 5.5,-0.84375 1.281019,-1.790136 0.881714,-4.26727 -0.875,-5.59375 L 70.0625,35.0625 C 69.96839,34.99144 69.847777,34.936354 69.75,34.875 c 1.13702,-1.049233 2.480957,-2.072363 4.09375,-3.09375 L 51.6875,26.875 Z M 32.625,37.6875 19.53125,56.46875 c 1.895363,-0.348871 3.628216,-0.537146 5.28125,-0.5625 -0.02694,0.08638 -0.07236,0.160809 -0.09375,0.25 L 20.5625,79.625 c -0.513218,2.140613 0.846938,4.229311 3,4.6875 2.153061,0.458189 4.268033,-0.890638 4.78125,-3.03125 l 4.15625,-23.5 c 0.02749,-0.114676 0.01412,-0.229596 0.03125,-0.34375 1.416398,0.622512 2.887598,1.461534 4.46875,2.53125 L 32.625,37.6875 Z m 71.34375,7.125 c -2.61105,-0.02181 -5.28316,0.592747 -7.75,1.90625 -7.893889,4.203209 -10.890709,14.012361 -6.6875,21.90625 4.203209,7.893889 14.01236,10.859459 21.90625,6.65625 7.89389,-4.203209 10.89071,-13.981111 6.6875,-21.875 -2.88971,-5.427048 -8.41194,-8.545769 -14.15625,-8.59375 z M 89.5625,68.96875 66.75,71.09375 c 1.490538,1.221641 2.756709,2.410657 3.84375,3.65625 -0.08335,0.03523 -0.168096,0.05247 -0.25,0.09375 L 40.625,90 c -1.965688,0.9908 -2.697101,3.372851 -1.65625,5.3125 1.040851,1.939649 3.440562,2.6783 5.40625,1.6875 l 29.75,-15.15625 c 0.105305,-0.05308 0.183041,-0.126842 0.28125,-0.1875 0.439596,1.483394 0.764147,3.133232 0.96875,5.03125 L 89.5625,68.96875 Z m -67.53125,18.6875 c -2.611048,-0.02181 -5.25191,0.592747 -7.71875,1.90625 -7.8938886,4.203209 -10.8907088,14.01236 -6.6875,21.90625 4.203209,7.89389 14.012361,10.89071 21.90625,6.6875 7.893889,-4.20321 10.890709,-14.01236 6.6875,-21.90625 -2.889706,-5.427048 -8.443194,-8.545769 -14.1875,-8.59375 z"
       style="color:#000000;display:inline;overflow:visible;visibility:visible;fill:none;stroke:#ffffff;stroke-width:2;stroke-linecap:round;stroke-linejoin:round;stroke-miterlimit:4;stroke-dasharray:none;stroke-dashoffset:0;stroke-opacity:1;marker:none;enable-background:accumulate"
       inkscape:connector-curvature="0" />
  </g>
  <g
     inkscape:groupmode="layer"
     id="layer3"
     inkscape:label="icon"
     style="display:inline">
    <path
       style="color:#000000;fill:url(#linearGradient4742);fill-opacity:1;fill-rule:nonzero;stroke:none;stroke-width:9.3633728;marker:none;visibility:visible;display:inline;overflow:visible;enable-background:accumulate"
       d="m 36.40625,4.0625 c -2.611048,-0.02181 -5.28316,0.5927472 -7.75,1.90625 -7.893889,4.203209 -10.890709,13.981111 -6.6875,21.875 4.203209,7.893889 14.012361,10.890709 21.90625,6.6875 C 51.768889,30.328041 54.765709,20.518889 50.5625,12.625 47.672794,7.1979516 42.150556,4.1104814 36.40625,4.0625 z M 51.6875,26.875 63.65625,46.40625 c 0.438255,-1.876711 0.955891,-3.537279 1.59375,-5.0625 0.0684,0.05924 0.114307,0.132225 0.1875,0.1875 L 83.625,52.75 c 1.756719,1.326482 4.218976,0.946387 5.5,-0.84375 1.281019,-1.790136 0.881714,-4.26727 -0.875,-5.59375 L 70.0625,35.0625 C 69.96839,34.99144 69.847777,34.936354 69.75,34.875 c 1.13702,-1.049233 2.480957,-2.072363 4.09375,-3.09375 L 51.6875,26.875 z M 32.625,37.6875 19.53125,56.46875 c 1.895363,-0.348871 3.628216,-0.537146 5.28125,-0.5625 -0.02694,0.08638 -0.07236,0.160809 -0.09375,0.25 L 20.5625,79.625 c -0.513218,2.140613 0.846938,4.229311 3,4.6875 2.153061,0.458189 4.268033,-0.890638 4.78125,-3.03125 l 4.15625,-23.5 c 0.02749,-0.114676 0.01412,-0.229596 0.03125,-0.34375 1.416398,0.622512 2.887598,1.461534 4.46875,2.53125 L 32.625,37.6875 z m 71.34375,7.125 c -2.61105,-0.02181 -5.28316,0.592747 -7.75,1.90625 -7.893889,4.203209 -10.890709,14.012361 -6.6875,21.90625 4.203209,7.893889 14.01236,10.859459 21.90625,6.65625 7.89389,-4.203209 10.89071,-13.981111 6.6875,-21.875 -2.88971,-5.427048 -8.41194,-8.545769 -14.15625,-8.59375 z M 89.5625,68.96875 66.75,71.09375 c 1.490538,1.221641 2.756709,2.410657 3.84375,3.65625 -0.08335,0.03523 -0.168096,0.05247 -0.25,0.09375 L 40.625,90 c -1.965688,0.9908 -2.697101,3.372851 -1.65625,5.3125 1.040851,1.939649 3.440562,2.6783 5.40625,1.6875 l 29.75,-15.15625 c 0.105305,-0.05308 0.183041,-0.126842 0.28125,-0.1875 0.439596,1.483394 0.764147,3.133232 0.96875,5.03125 L 89.5625,68.96875 z m -67.53125,18.6875 c -2.611048,-0.02181 -5.25191,0.592747 -7.71875,1.90625 -7.8938886,4.203209 -10.8907088,14.01236 -6.6875,21.90625 4.203209,7.89389 14.012361,10.89071 21.90625,6.6875 7.893889,-4.20321 10.890709,-14.01236 6.6875,-21.90625 -2.889706,-5.427048 -8.443194,-8.545769 -14.1875,-8.59375 z"
       id="path3044"
       inkscape:connector-curvature="0" />
    <g
       id="g4800"
       mask="url(#mask4806)">
      <path
         sodipodi:nodetypes="ssscssscscccccccccccccccccccccssccsccccssscscccscccccccccscccccccssscssscs"
         inkscape:connector-curvature="0"
         id="path4757"
         d="m 36.40625,4.0625 c -2.611048,-0.02181 -5.28316,0.5927472 -7.75,1.90625 -7.893889,4.203209 -10.890709,13.981111 -6.6875,21.875 1.242048,2.332644 2.972998,4.238256 5,5.65625 -0.363405,-0.522883 -0.69335,-1.080343 -1,-1.65625 -4.203209,-7.893889 -1.206389,-17.671791 6.6875,-21.875 2.46684,-1.3135028 5.138952,-1.92806 7.75,-1.90625 3.26965,0.027311 6.475015,1.0385028 9.15625,2.90625 C 46.50417,6.5697244 41.540223,4.1053834 36.40625,4.0625 z m 15.324186,22.849624 c 3.956019,6.508193 7.940781,12.999487 11.925814,19.494126 0.144444,-0.618543 0.305598,-1.206773 0.46875,-1.78125 l -8.4375,-13.75 14.875,3.28125 c 0.954323,-0.803255 2.033976,-1.585097 3.28125,-2.375 C 66.41482,30.531143 59.167909,28.081822 51.730436,26.912124 z M 69.748638,34.867738 73.75,38.875 c 0.09778,0.06135 0.21839,0.11644 0.3125,0.1875 l 15.71875,9.71875 C 89.593185,47.830552 89.083147,46.941603 88.25,46.3125 z M 32.21875,38.28125 19.53125,56.46875 c 1.895363,-0.348871 3.628216,-0.537146 5.28125,-0.5625 -0.02694,0.08638 -0.07236,0.160809 -0.09375,0.25 l -0.625,3.5 10.03125,-14.375 -1.3125,-6.6875 c -0.199663,-0.103223 -0.39823,-0.200883 -0.59375,-0.3125 z m 71.75,6.53125 c -2.61105,-0.02181 -5.28316,0.592747 -7.75,1.90625 -1.672138,0.890353 -3.10172,2.05305 -4.3125,3.375 -1.999936,1.99298 -3.445318,4.337348 -3.75,6.96875 -0.947107,3.759259 -0.590103,7.871913 1.375,11.5625 0.912177,1.713126 2.105397,3.180246 3.46875,4.40625 l 0.5625,-0.0625 -0.25,0.34375 c 0.396111,0.337967 0.795022,0.641682 1.21875,0.9375 -0.362502,-0.52156 -0.694014,-1.050339 -1,-1.625 -4.203209,-7.893889 -1.206389,-17.703041 6.6875,-21.90625 2.46684,-1.313503 5.13895,-1.92806 7.75,-1.90625 3.26965,0.02731 6.47502,1.061029 9.15625,2.9375 -3.05833,-4.40433 -8.02227,-6.894617 -13.15625,-6.9375 z M 28.8125,59.90625 24.875,55.875 20.5625,79.625 c -0.513218,2.140613 0.846938,4.229311 3,4.6875 0.301223,0.0641 0.6108,0.09761 0.90625,0.09375 0.0094,-0.253174 0.03203,-0.52383 0.09375,-0.78125 l 4.15625,-23.46875 c 0.02139,-0.08919 0.06681,-0.16362 0.09375,-0.25 z m 60.75,9.0625 -22.8125,2.125 c 1.490538,1.221641 2.756709,2.410657 3.84375,3.65625 -0.08335,0.03523 -0.168096,0.05247 -0.25,0.09375 L 40.625,90 c -1.965688,0.9908 -2.697101,3.372851 -1.65625,5.3125 0.723483,1.348226 2.096812,2.114761 3.53125,2.125 C 42.5041,96.031258 43.268487,94.683747 44.625,94 L 74.34375,78.84375 c 0.0819,-0.04128 0.16665,-0.05852 0.25,-0.09375 -1.087041,-1.245593 -2.181337,-2.575234 -3.671875,-3.796875 L 85.78125,73.6875 z m -67.53125,18.6875 c -2.611048,-0.02181 -5.25191,0.592747 -7.71875,1.90625 -7.8938886,4.203209 -10.8907088,14.01236 -6.6875,21.90625 1.2420483,2.33264 2.972998,4.23826 5,5.65625 -0.363405,-0.52288 -0.69335,-1.08034 -1,-1.65625 -4.2032088,-7.89389 -1.206389,-17.703041 6.6875,-21.90625 2.46684,-1.313503 5.107702,-1.92806 7.71875,-1.90625 3.283327,0.02742 6.490648,1.077256 9.1875,2.96875 -3.061804,-4.423512 -8.041559,-6.925767 -13.1875,-6.96875 z"
         style="color:#000000;fill:#141414;fill-opacity:0.73170734;fill-rule:nonzero;stroke:none;stroke-width:0.96344244;marker:none;visibility:visible;display:inline;overflow:visible;filter:url(#filter3822-9-6-4-3-9-7-6);enable-background:accumulate" />
      <path
         sodipodi:nodetypes="cssccccsccsccccccccccccccsccsccccccccccsccccccsscssccccccccccccscccccccsscssc"
         inkscape:connector-curvature="0"
         id="path4785"
         d="m 45.5625,6.96875 c 0.363578,0.5229611 0.692969,1.0796261 1,1.65625 4.203209,7.893889 1.206389,17.703041 -6.6875,21.90625 -5.561245,2.961161 -12.073685,2.349382 -16.90625,-1.03125 1.403605,2.019565 3.21157,3.617565 5.25,4.78125 l 0.40625,-0.59375 0.1875,0.90625 c 4.567104,2.361132 10.182238,2.536062 15.0625,-0.0625 3.013627,-1.604647 5.29197,-4.023503 6.75,-6.84375 0.922612,-1.201704 1.154694,-2.403019 1.40625,-3.84375 0.837814,-3.663663 0.435829,-7.641832 -1.46875,-11.21875 -1.24489,-2.337981 -2.970689,-4.2426332 -5,-5.65625 z m 21,23.1875 c -0.279668,0.235397 -0.554809,0.480955 -0.8125,0.71875 0.09778,0.06135 0.21839,0.11644 0.3125,0.1875 l 3.734375,3.828125 c 0.9043,-0.744842 2.887871,-2.375374 4.046875,-3.109375 z m -5.3125,7.1875 c -0.427628,1.022525 -0.793135,2.112716 -1.125,3.28125 l 3.53125,5.78125 c 0.438255,-1.876711 0.955891,-3.537279 1.59375,-5.0625 0.0684,0.05924 0.114307,0.132225 0.1875,0.1875 L 83.625,52.75 c 0.169484,0.127976 0.350326,0.216027 0.53125,0.3125 3.17896,1.546064 3.9829,0.302959 4.851754,-0.892978 1.330684,-1.831625 1.356661,-4.682508 -1.101754,-6.075772 l -2.125,-1.3125 c 0.208475,1.053874 0.01723,2.183862 -0.65625,3.125 -1.281024,1.790137 -3.743281,2.170232 -5.5,0.84375 L 61.4375,37.53125 C 61.36431,37.47597 61.3184,37.40299 61.25,37.34375 z M 32.625,37.6875 30.125,41.28125 33,55.96875 C 31.418848,54.899034 29.947648,54.060012 28.53125,53.4375 28.51412,53.551654 28.52749,53.666574 28.5,53.78125 l -4.15625,23.5 c -0.441416,1.841131 -2.058653,3.101296 -3.875,3.125 -0.06886,1.852125 1.199605,3.503161 3.09375,3.90625 2.153061,0.458189 4.268033,-0.890638 4.78125,-3.03125 l 4.15625,-23.5 c 0.02749,-0.114676 0.01412,-0.229596 0.03125,-0.34375 1.416398,0.622512 2.887598,1.461534 4.46875,2.53125 z m 80.5,10.0625 c 0.36358,0.523592 0.69297,1.079626 1,1.65625 4.20321,7.893889 1.20639,17.671791 -6.6875,21.875 -5.56287,2.962027 -12.073254,2.342825 -16.90625,-1.03125 4.617052,6.64291 13.58702,8.928473 20.90625,5.03125 7.89389,-4.203209 10.89071,-13.981111 6.6875,-21.875 -1.24489,-2.337981 -2.97069,-4.236031 -5,-5.65625 z m -93.03125,7.90625 -0.5625,0.8125 c 0.147133,-0.02708 0.292287,-0.03735 0.4375,-0.0625 z M 89,69.03125 81.78125,69.6875 73.244603,80.3519 c -1.280649,-1.290529 -1.920729,-1.799806 -2.838353,-2.69565 -0.09821,0.06066 -0.175945,0.13442 -0.28125,0.1875 L 40.375,93 c -0.599362,0.302107 -1.245759,0.441991 -1.875,0.4375 -0.0018,0.631507 0.146186,1.273895 0.46875,1.875 1.040851,1.939649 3.440562,2.6783 5.40625,1.6875 l 29.75,-15.15625 c 0.105305,-0.05308 0.183041,-0.126842 0.28125,-0.1875 0.439596,1.483394 0.764147,3.133232 0.96875,5.03125 L 89.3125,69.3125 C 89.206777,69.222296 89.103595,69.124409 89,69.03125 z M 31.21875,90.625 c 0.356024,0.514362 0.698989,1.059682 1,1.625 4.203209,7.89389 1.206389,17.70304 -6.6875,21.90625 -5.561245,2.96116 -12.073685,2.34938 -16.90625,-1.03125 4.617747,6.64421 13.588268,8.92781 20.90625,5.03125 7.893889,-4.20321 10.890709,-14.01236 6.6875,-21.90625 -1.23801,-2.325059 -2.978606,-4.207253 -5,-5.625 z"
         style="color:#000000;fill:#ffffff;fill-opacity:0.39430895;fill-rule:nonzero;stroke:none;stroke-width:0.96344244;marker:none;visibility:visible;display:inline;overflow:visible;filter:url(#filter3822-2-7-6-8-3-5-0);enable-background:accumulate" />
    </g>
  </g>
</svg>
