<?xml version="1.0" encoding="UTF-8" standalone="no"?>
<!-- Created with Inkscape (http://www.inkscape.org/) -->

<svg
   width="128"
   height="128"
   id="svg2"
   version="1.1"
   inkscape:version="1.3.2 (1:1.3.2+202311252150+091e20ef0f)"
   sodipodi:docname="report.svg"
   inkscape:export-filename="report_32.png"
   inkscape:export-xdpi="24"
   inkscape:export-ydpi="24"
   xmlns:inkscape="http://www.inkscape.org/namespaces/inkscape"
   xmlns:sodipodi="http://sodipodi.sourceforge.net/DTD/sodipodi-0.dtd"
   xmlns:xlink="http://www.w3.org/1999/xlink"
   xmlns="http://www.w3.org/2000/svg"
   xmlns:svg="http://www.w3.org/2000/svg"
   xmlns:rdf="http://www.w3.org/1999/02/22-rdf-syntax-ns#"
   xmlns:cc="http://creativecommons.org/ns#"
   xmlns:dc="http://purl.org/dc/elements/1.1/">
  <defs
     id="defs4">
    <linearGradient
       id="linearGradient3843">
      <stop
         style="stop-color:#f9f9fa;stop-opacity:1;"
         offset="0"
         id="stop3845" />
      <stop
         style="stop-color:#efeff0;stop-opacity:1;"
         offset="1"
         id="stop3847" />
    </linearGradient>
    <filter
       inkscape:collect="always"
       id="filter3784"
       x="-0.014414414"
       y="-0.014414414"
       width="1.0288288"
       height="1.0288288">
      <feGaussianBlur
         inkscape:collect="always"
         stdDeviation="0.74109996"
         id="feGaussianBlur3786" />
    </filter>
    <filter
       inkscape:collect="always"
       id="filter3835"
       x="-0.11912061"
       width="1.2382412"
       y="-0.11871791"
       height="1.2374358">
      <feGaussianBlur
         inkscape:collect="always"
         stdDeviation="5.9436221"
         id="feGaussianBlur3837" />
    </filter>
    <filter
       inkscape:collect="always"
       id="filter3839"
       x="-0.090019872"
       y="-0.090160418"
       width="1.1800397"
       height="1.1803208">
      <feGaussianBlur
         inkscape:collect="always"
         stdDeviation="4.5115428"
         id="feGaussianBlur3841" />
    </filter>
    <linearGradient
       inkscape:collect="always"
       xlink:href="#linearGradient3843"
       id="linearGradient3849"
       x1="14.267717"
       y1="932.53717"
       x2="86.410866"
       y2="1016.1086"
       gradientUnits="userSpaceOnUse"
       gradientTransform="matrix(1.0053765,0,0,1.0019204,-0.73512255,-2.0380242)" />
    <mask
       maskUnits="userSpaceOnUse"
       id="mask3859">
      <rect
         ry="19.796612"
         rx="20.427839"
         y="925.12628"
         x="1.2320045"
         height="123.39314"
         width="123.39314"
         id="rect3861"
         style="color:#000000;fill:#ffffff;fill-opacity:1;stroke:none;stroke-width:0.96400887;marker:none;visibility:visible;display:inline;overflow:visible;enable-background:accumulate" />
    </mask>
    <linearGradient
       id="linearGradient3834-0-7-118-6-4-8">
      <stop
         style="stop-color:#626262;stop-opacity:1;"
         offset="0"
         id="stop3836-1-1-88-7-5-5" />
      <stop
         style="stop-color:#707070;stop-opacity:1;"
         offset="1"
         id="stop3838-0-6-22-3-8-6" />
    </linearGradient>
    <linearGradient
       inkscape:collect="always"
       xlink:href="#linearGradient3834-0-7-118-6-4-8"
       id="linearGradient3818"
       gradientUnits="userSpaceOnUse"
       gradientTransform="matrix(0.00969573,-0.17005166,0.00877777,0.15395157,90.642133,74.823149)"
       x1="-3680.1714"
       y1="-4455.2896"
       x2="560.11658"
       y2="910.72052" />
    <filter
       color-interpolation-filters="sRGB"
       inkscape:collect="always"
       id="filter3822-9-6-4-3-9-7-7"
       x="-0.063726104"
       y="-0.061290825"
       width="1.1274522"
       height="1.1225816">
      <feGaussianBlur
         inkscape:collect="always"
         stdDeviation="2.8610366"
         id="feGaussianBlur3824-5-7-3-1-6-3-6" />
    </filter>
    <filter
       color-interpolation-filters="sRGB"
       inkscape:collect="always"
       id="filter3822-2-7-6-8-3-5-8"
       x="-0.063726104"
       y="-0.062293249"
       width="1.1274522"
       height="1.1245865">
      <feGaussianBlur
         inkscape:collect="always"
         stdDeviation="2.8610366"
         id="feGaussianBlur3824-4-8-9-4-4-3-1" />
    </filter>
    <mask
       maskUnits="userSpaceOnUse"
       id="mask3882">
      <path
         d="m 84.03125,47.743561 0,60.287689 16,0 0,-60.287689 z m -28,-15.55635 0,75.844039 16,0 0,-75.844039 z m -28,31.646447 0,44.197592 16,0 0,-44.197592 z M 14.125,8.03125 8,17.15625 l 4.125,0 0,94.8125 -2.96875,0 0,4 2.96875,0 0,2.09375 4,0 0,-2.09375 90.5,0 0,4.125 9.125,-6.125 -9.125,-6.125 0,4.125 -90.5,0 0,-94.8125 4.125,0 -6.125,-9.125 z"
         style="color:#000000;fill:#ffffff;fill-opacity:1;fill-rule:nonzero;stroke:none;stroke-width:9.3633728;marker:none;visibility:visible;display:inline;overflow:visible;enable-background:accumulate"
         id="path3884"
         inkscape:connector-curvature="0" />
    </mask>
  </defs>
  <sodipodi:namedview
     id="base"
     pagecolor="#ffffff"
     bordercolor="#666666"
     borderopacity="1.0"
     inkscape:pageopacity="0"
     inkscape:pageshadow="2"
     inkscape:zoom="5.6568544"
     inkscape:cx="55.861434"
     inkscape:cy="63.374444"
     inkscape:document-units="px"
     inkscape:current-layer="layer2"
     showgrid="true"
     inkscape:window-width="1868"
     inkscape:window-height="1016"
     inkscape:window-x="52"
     inkscape:window-y="27"
     inkscape:window-maximized="1"
     showguides="true"
     inkscape:guide-bbox="true"
     inkscape:snap-global="false"
     inkscape:showpageshadow="2"
     inkscape:pagecheckerboard="0"
     inkscape:deskcolor="#d1d1d1">
    <inkscape:grid
       type="xygrid"
       id="grid3901"
       empspacing="4"
       visible="true"
       enabled="true"
       snapvisiblegridlinesonly="true"
       dotted="false"
       spacingx="4"
       spacingy="4"
       color="#ff00bf"
       opacity="0.1254902"
       empcolor="#ff00cb"
       empopacity="0.25098039"
       originx="0"
       originy="0"
       units="px" />
    <sodipodi:guide
       orientation="0,1"
       position="82.074894,122.481"
       id="guide3803"
       inkscape:locked="false" />
    <sodipodi:guide
       orientation="1,0"
       position="5.5,70.963216"
       id="guide3805"
       inkscape:locked="false" />
    <sodipodi:guide
       orientation="1,0"
       position="120,22.728432"
       id="guide3807"
       inkscape:locked="false" />
    <sodipodi:guide
       orientation="0,1"
       position="-33.335,8"
       id="guide3811"
       inkscape:locked="false" />
  </sodipodi:namedview>
  <metadata
     id="metadata7">
    <rdf:RDF>
      <cc:Work
         rdf:about="">
        <dc:format>image/svg+xml</dc:format>
        <dc:type
           rdf:resource="http://purl.org/dc/dcmitype/StillImage" />
        <cc:license
           rdf:resource="http://creativecommons.org/licenses/by-sa/4.0/" />
      </cc:Work>
      <cc:License
         rdf:about="http://creativecommons.org/licenses/by-sa/4.0/">
        <cc:permits
           rdf:resource="http://creativecommons.org/ns#Reproduction" />
        <cc:permits
           rdf:resource="http://creativecommons.org/ns#Distribution" />
        <cc:requires
           rdf:resource="http://creativecommons.org/ns#Notice" />
        <cc:requires
           rdf:resource="http://creativecommons.org/ns#Attribution" />
        <cc:permits
           rdf:resource="http://creativecommons.org/ns#DerivativeWorks" />
        <cc:requires
           rdf:resource="http://creativecommons.org/ns#ShareAlike" />
      </cc:License>
    </rdf:RDF>
  </metadata>
  <g
     inkscape:label="base"
     inkscape:groupmode="layer"
     id="layer1"
     transform="translate(0,-924.36218)"
     style="display:none"
     sodipodi:insensitive="true">
    <rect
       ry="19.796612"
       rx="20.427839"
       y="927.12628"
       x="3.2320046"
       height="123.39314"
       width="123.39314"
       id="rect3766"
       style="color:#000000;display:inline;overflow:visible;visibility:visible;fill:#252628;fill-opacity:0.128617;stroke:none;stroke-width:0.964009;marker:none;filter:url(#filter3784);enable-background:accumulate"
       transform="matrix(1.0053765,0,0,1.0019204,-0.73512255,-2.0380242)" />
    <rect
       style="color:#000000;display:inline;overflow:visible;visibility:visible;fill:url(#linearGradient3849);fill-opacity:1;stroke:none;stroke-width:0.964009;marker:none;enable-background:accumulate"
       id="rect2985"
       width="124.05656"
       height="123.6301"
       x="0.50350583"
       y="924.86487"
       rx="20.53767"
       ry="19.834631" />
    <g
       id="g3853"
       mask="url(#mask3859)"
       transform="matrix(1.0053765,0,0,1.0019204,-0.73512255,-2.0380242)">
      <path
         sodipodi:nodetypes="csssscccsssscc"
         inkscape:connector-curvature="0"
         id="rect3788"
         transform="translate(0,924.36218)"
         d="m 111.3125,2 c 1.0638,2.3966046 2.03056,5.049628 1.65625,7.8125 l -10,73.8125 c -1.47238,10.868035 -9.195281,18.23558 -20.40625,19.78125 l -72.53125,10 C 7.534242,113.75052 5.0997184,112.93384 2.875,112.125 c 0.7713464,1.76264 1.7621331,3.38896 3,4.84375 0.010886,0.01 0.020343,0.0216 0.03125,0.0312 3.6235707,3.20066 8.436326,5.15625 13.75,5.15625 h 82.53125 c 11.31702,0 20.4375,-8.81393 20.4375,-19.78125 v -83.8125 c 0,-4.877214 -1.80986,-9.3136525 -4.8125,-12.75 C 115.92993,4.1823291 113.729,2.8665963 111.3125,2 Z"
         style="color:#000000;display:inline;overflow:visible;visibility:visible;fill:#c9c9cf;fill-opacity:0.254019;stroke:none;stroke-width:0.964009;marker:none;filter:url(#filter3835);enable-background:accumulate" />
      <path
         sodipodi:nodetypes="sssccsssscccss"
         inkscape:connector-curvature="0"
         id="rect3796"
         transform="translate(0,924.36218)"
         d="m 23.65625,2.75 c -11.317023,0 -20.4375,8.845177 -20.4375,19.8125 v 83.8125 c 0,4.8505 1.7783223,9.26046 4.75,12.6875 1.8502957,1.61847 4.000429,2.9035 6.375,3.78125 -0.720661,-2.02308 -1.488357,-4.23372 -1.125,-6.46875 l 12,-73.8125 C 26.978647,31.737301 34.451287,24.338652 45.65625,22.75 l 70.53125,-10 c 2.55597,-0.362388 5.0458,0.494454 7.3125,1.34375 -0.82375,-2.321834 -2.0613,-4.4443488 -3.65625,-6.28125 -0.0281,-0.024504 -0.0655,-0.038145 -0.0937,-0.0625 -3.60314,-3.110944 -8.3402,-5 -13.5625,-5 z"
         style="color:#000000;display:inline;overflow:visible;visibility:visible;fill:#ffffff;fill-opacity:1;stroke:none;stroke-width:0.964009;marker:none;filter:url(#filter3839);enable-background:accumulate" />
    </g>
    <rect
       ry="19.834631"
       rx="20.53767"
       y="924.86487"
       x="0.50350583"
       height="123.6301"
       width="124.05656"
       id="rect3851"
       style="color:#000000;display:inline;overflow:visible;visibility:visible;fill:none;stroke:#cbcdd0;stroke-width:1.00365;stroke-linecap:round;stroke-linejoin:round;stroke-miterlimit:4;stroke-dasharray:none;stroke-dashoffset:0;stroke-opacity:1;marker:none;enable-background:accumulate" />
  </g>
  <g
     inkscape:groupmode="layer"
     id="layer2"
     inkscape:label="outline">
    <path
       d="m 84.03125,47.743561 0,60.287689 16,0 0,-60.287689 z m -28,-15.55635 0,75.844039 16,0 0,-75.844039 z m -28,31.646447 0,44.197592 16,0 0,-44.197592 z M 14.125,8.03125 8,17.15625 l 4.125,0 0,94.8125 -2.96875,0 0,4 2.96875,0 0,2.09375 4,0 0,-2.09375 90.5,0 0,4.125 9.125,-6.125 -9.125,-6.125 0,4.125 -90.5,0 0,-94.8125 4.125,0 -6.125,-9.125 z"
       style="display:inline;color:#000000;fill:none;stroke:#ffffff;stroke-width:2;stroke-linecap:round;stroke-linejoin:round;stroke-miterlimit:4;stroke-opacity:1;stroke-dasharray:none;stroke-dashoffset:0;marker:none;visibility:visible;overflow:visible;enable-background:accumulate"
       id="path3897"
       inkscape:connector-curvature="0" />
  </g>
  <g
     inkscape:groupmode="layer"
     id="layer3"
     inkscape:label="icon"
     style="display:inline">
    <path
       id="path3812"
       style="color:#000000;fill:url(#linearGradient3818);fill-opacity:1;fill-rule:nonzero;stroke:none;stroke-width:9.3633728;marker:none;visibility:visible;display:inline;overflow:visible;enable-background:accumulate"
       d="m 84.03125,47.743561 0,60.287689 16,0 0,-60.287689 z m -28,-15.55635 0,75.844039 16,0 0,-75.844039 z m -28,31.646447 0,44.197592 16,0 0,-44.197592 z M 14.125,8.03125 8,17.15625 l 4.125,0 0,94.8125 -2.96875,0 0,4 2.96875,0 0,2.09375 4,0 0,-2.09375 90.5,0 0,4.125 9.125,-6.125 -9.125,-6.125 0,4.125 -90.5,0 0,-94.8125 4.125,0 -6.125,-9.125 z"
       inkscape:connector-curvature="0" />
    <g
       id="g3876"
       mask="url(#mask3882)">
      <path
         sodipodi:nodetypes="ccccccccccccccccccccccccccccccccccccccccccccccccccccccccccccccc"
         inkscape:connector-curvature="0"
         id="path3833"
         d="m 14.125,8.03125 -6.125,9.125 4.125,0 0,3.8125 L 17.46875,13 z m -2,9.125 0,94.8125 -2.96875,0 0,4 2.96875,0 0,2.09375 1.03125,0 0,-2.09375 0.992687,-1.78607 1.038563,-2.27643 0,-90.8125 z m 43.90625,15.03125 0,75.84375 4,0 0,-71.84375 12,0 0,-4 z m 28,15.5625 0,60.28125 4,0 0,-56.28125 12,0 0,-4 z m -56,16.09375 0,44.1875 4,0 0,-40.1875 12,0 0,-4 z m 78.59375,44 0,4.125 c -6.35502,0.0632 -13.048258,0.0648 -18.59375,0.0625 l 0,-0.0625 -12,0 0,0.0625 -16,0 0,-0.0625 -12,0 0,0.0625 -16,0 0,-0.0625 -15.90625,0 4,4 86.5,0 4,0 0,-4.125 4.15625,2.78125 0.96875,-0.65625 z M 106.6875,120.0625 109,118.5 l -2.375,-2.5625 z"
         style="color:#000000;fill:#141414;fill-opacity:0.73170734;fill-rule:nonzero;stroke:none;stroke-width:0.96344244;marker:none;visibility:visible;display:inline;overflow:visible;filter:url(#filter3822-9-6-4-3-9-7-7);enable-background:accumulate" />
      <path
         sodipodi:nodetypes="cccccccccccccccccccccccccccccccccccccccccccccccccccc"
         inkscape:connector-curvature="0"
         id="path3861"
         d="M 14.125,8.03125 13.46875,9 16.25,13.15625 l -2.710786,0.04419 0,4 0,90.8125 2.585786,3.97748 0,-94.834174 4.125,0 z M 10.003252,14.803235 8,17.15625 l 4.168767,0.0221 z M 68.03125,32.1875 l 0,71.84375 -12,0 0,3.9375 16,0 0,-75.78125 z m 28,15.5625 0,56.28125 -12,0 0,3.9375 16,0 0,-60.21875 z m -56,16.09375 0,40.1875 -12,0 0,3.9375 16,0 0,-44.125 z m 69.75471,47.62029 -6.97346,4.50471 3.8125,0 1.41421,2.29094 7.71079,-4.29094 z m -97.66096,2.59846 -2.96875,0 0,1.90625 2.96875,0 0,2.09375 4,0 0,-2.09375 90.52167,0 0.39774,-2.82885 -91.007808,0 c -1.303058,0.31137 -2.603271,0.63428 -3.911602,0.9226 z"
         style="color:#000000;fill:#ffffff;fill-opacity:0.39430895;fill-rule:nonzero;stroke:none;stroke-width:0.96344244;marker:none;visibility:visible;display:inline;overflow:visible;filter:url(#filter3822-2-7-6-8-3-5-8);enable-background:accumulate" />
    </g>
  </g>
</svg>
