<?xml version="1.0" encoding="UTF-8" standalone="no"?>
<!-- Created with Inkscape (http://www.inkscape.org/) -->

<svg
   width="128"
   height="128"
   id="svg2"
   version="1.1"
   inkscape:version="1.3.2 (1:1.3.2+202311252150+091e20ef0f)"
   sodipodi:docname="search.svg"
   inkscape:export-filename="search_32.png"
   inkscape:export-xdpi="24"
   inkscape:export-ydpi="24"
   xmlns:inkscape="http://www.inkscape.org/namespaces/inkscape"
   xmlns:sodipodi="http://sodipodi.sourceforge.net/DTD/sodipodi-0.dtd"
   xmlns:xlink="http://www.w3.org/1999/xlink"
   xmlns="http://www.w3.org/2000/svg"
   xmlns:svg="http://www.w3.org/2000/svg"
   xmlns:rdf="http://www.w3.org/1999/02/22-rdf-syntax-ns#"
   xmlns:cc="http://creativecommons.org/ns#"
   xmlns:dc="http://purl.org/dc/elements/1.1/">
  <defs
     id="defs4">
    <linearGradient
       id="linearGradient3843">
      <stop
         style="stop-color:#f9f9fa;stop-opacity:1;"
         offset="0"
         id="stop3845" />
      <stop
         style="stop-color:#efeff0;stop-opacity:1;"
         offset="1"
         id="stop3847" />
    </linearGradient>
    <filter
       inkscape:collect="always"
       id="filter3784"
       x="-0.014414414"
       y="-0.014414414"
       width="1.0288288"
       height="1.0288288">
      <feGaussianBlur
         inkscape:collect="always"
         stdDeviation="0.74109996"
         id="feGaussianBlur3786" />
    </filter>
    <filter
       inkscape:collect="always"
       id="filter3835"
       x="-0.11912061"
       width="1.2382412"
       y="-0.11871791"
       height="1.2374358">
      <feGaussianBlur
         inkscape:collect="always"
         stdDeviation="5.9436221"
         id="feGaussianBlur3837" />
    </filter>
    <filter
       inkscape:collect="always"
       id="filter3839"
       x="-0.090019872"
       y="-0.090160418"
       width="1.1800397"
       height="1.1803208">
      <feGaussianBlur
         inkscape:collect="always"
         stdDeviation="4.5115428"
         id="feGaussianBlur3841" />
    </filter>
    <linearGradient
       inkscape:collect="always"
       xlink:href="#linearGradient3843"
       id="linearGradient3849"
       x1="14.267717"
       y1="932.53717"
       x2="86.410866"
       y2="1016.1086"
       gradientUnits="userSpaceOnUse"
       gradientTransform="matrix(1.0052803,0,0,1.0018802,-0.72196038,-1.9953154)" />
    <mask
       maskUnits="userSpaceOnUse"
       id="mask3859">
      <rect
         ry="19.796612"
         rx="20.427839"
         y="925.12628"
         x="1.2320045"
         height="123.39314"
         width="123.39314"
         id="rect3861"
         style="color:#000000;fill:#ffffff;fill-opacity:1;stroke:none;stroke-width:0.96400887;marker:none;visibility:visible;display:inline;overflow:visible;enable-background:accumulate" />
    </mask>
    <linearGradient
       id="linearGradient3834-0-7-118-8">
      <stop
         style="stop-color:#626262;stop-opacity:1;"
         offset="0"
         id="stop3836-1-1-88-4" />
      <stop
         style="stop-color:#707070;stop-opacity:1;"
         offset="1"
         id="stop3838-0-6-22-2" />
    </linearGradient>
    <linearGradient
       inkscape:collect="always"
       xlink:href="#linearGradient3834-0-7-118-8"
       id="linearGradient3149"
       gradientUnits="userSpaceOnUse"
       gradientTransform="matrix(2.1784382,-2.1955056,1.9721889,1.9876403,-136.44227,-50.294131)"
       x1="48.946754"
       y1="10.255008"
       x2="62.851814"
       y2="145.4893" />
    <filter
       color-interpolation-filters="sRGB"
       inkscape:collect="always"
       id="filter3822-9-6-4-5"
       x="-0.095367885"
       y="-0.095243869"
       width="1.1907358"
       height="1.1904877">
      <feGaussianBlur
         inkscape:collect="always"
         stdDeviation="2.8610366"
         id="feGaussianBlur3824-5-7-3-8" />
    </filter>
    <filter
       color-interpolation-filters="sRGB"
       inkscape:collect="always"
       id="filter3822-2-7-6-4"
       x="-0.063495295"
       y="-0.063719224"
       width="1.1269906"
       height="1.1274384">
      <feGaussianBlur
         inkscape:collect="always"
         stdDeviation="2.8610366"
         id="feGaussianBlur3824-4-8-9-3" />
    </filter>
    <mask
       maskUnits="userSpaceOnUse"
       id="mask3214">
      <path
         inkscape:connector-curvature="0"
         id="path3216"
         d="M 45.9375,8 C 24.957767,8 8,25.065211 8,46.03125 c 0,20.96604 16.957767,37.9375 37.9375,37.9375 7.54427,0 14.580866,-2.182874 20.5,-5.96875 l 39.125,39.40625 c 3.2992,3.32156 8.64049,3.35495 11.96875,0.0625 3.32826,-3.29245 3.3617,-8.61594 0.0625,-11.9375 L 78.3125,65.96875 C 81.905344,60.178491 83.96875,53.343922 83.96875,46.03125 83.96875,25.065211 66.917201,8 45.9375,8 z m -0.03125,8.15625 c 16.597713,0 30.09375,13.460526 30.09375,30 0,16.539474 -13.496037,29.9375 -30.09375,29.9375 -16.597738,0 -30,-13.398026 -30,-29.9375 0,-16.539474 13.402262,-30 30,-30 z"
         style="color:#000000;fill:#ffffff;fill-opacity:1;fill-rule:nonzero;stroke:none;stroke-width:0.90705854;marker:none;visibility:visible;display:inline;overflow:visible;enable-background:accumulate" />
    </mask>
  </defs>
  <sodipodi:namedview
     id="base"
     pagecolor="#ffffff"
     bordercolor="#666666"
     borderopacity="1.0"
     inkscape:pageopacity="0"
     inkscape:pageshadow="2"
     inkscape:zoom="5.6568542"
     inkscape:cx="55.68466"
     inkscape:cy="65.318989"
     inkscape:document-units="px"
     inkscape:current-layer="layer3"
     showgrid="true"
     inkscape:window-width="1868"
     inkscape:window-height="1016"
     inkscape:window-x="52"
     inkscape:window-y="27"
     inkscape:window-maximized="1"
     showguides="true"
     inkscape:guide-bbox="true"
     inkscape:snap-global="false"
     inkscape:showpageshadow="2"
     inkscape:pagecheckerboard="0"
     inkscape:deskcolor="#d1d1d1">
    <inkscape:grid
       type="xygrid"
       id="grid3901"
       empspacing="4"
       visible="true"
       enabled="true"
       snapvisiblegridlinesonly="true"
       dotted="false"
       spacingx="4"
       spacingy="4"
       color="#ff00bf"
       opacity="0.1254902"
       empcolor="#ff00cb"
       empopacity="0.25098039"
       originx="0"
       originy="0"
       units="px" />
    <sodipodi:guide
       orientation="0,1"
       position="82.074894,122.481"
       id="guide3803"
       inkscape:locked="false" />
    <sodipodi:guide
       orientation="1,0"
       position="5.5,70.963216"
       id="guide3805"
       inkscape:locked="false" />
    <sodipodi:guide
       orientation="1,0"
       position="120,22.728432"
       id="guide3807"
       inkscape:locked="false" />
    <sodipodi:guide
       orientation="0,1"
       position="-33.335,8"
       id="guide3811"
       inkscape:locked="false" />
    <sodipodi:guide
       orientation="1,0"
       position="44.03125,81.8125"
       id="guide3107"
       inkscape:locked="false" />
    <sodipodi:guide
       orientation="0,1"
       position="48.28125,83.96875"
       id="guide3109"
       inkscape:locked="false" />
  </sodipodi:namedview>
  <metadata
     id="metadata7">
    <rdf:RDF>
      <cc:Work
         rdf:about="">
        <dc:format>image/svg+xml</dc:format>
        <dc:type
           rdf:resource="http://purl.org/dc/dcmitype/StillImage" />
        <cc:license
           rdf:resource="http://creativecommons.org/licenses/by-sa/4.0/" />
      </cc:Work>
      <cc:License
         rdf:about="http://creativecommons.org/licenses/by-sa/4.0/">
        <cc:permits
           rdf:resource="http://creativecommons.org/ns#Reproduction" />
        <cc:permits
           rdf:resource="http://creativecommons.org/ns#Distribution" />
        <cc:requires
           rdf:resource="http://creativecommons.org/ns#Notice" />
        <cc:requires
           rdf:resource="http://creativecommons.org/ns#Attribution" />
        <cc:permits
           rdf:resource="http://creativecommons.org/ns#DerivativeWorks" />
        <cc:requires
           rdf:resource="http://creativecommons.org/ns#ShareAlike" />
      </cc:License>
    </rdf:RDF>
  </metadata>
  <g
     inkscape:label="base"
     inkscape:groupmode="layer"
     id="layer1"
     transform="translate(0,-924.36218)"
     style="display:none"
     sodipodi:insensitive="true">
    <rect
       ry="19.796612"
       rx="20.427839"
       y="927.12628"
       x="3.2320046"
       height="123.39314"
       width="123.39314"
       id="rect3766"
       style="color:#000000;fill:#252628;fill-opacity:0.12861735;stroke:none;stroke-width:0.96400887;marker:none;visibility:visible;display:inline;overflow:visible;filter:url(#filter3784);enable-background:accumulate"
       transform="matrix(1.0052803,0,0,1.0018802,-0.72196038,-1.9953154)" />
    <rect
       style="color:#000000;fill:url(#linearGradient3849);fill-opacity:1;stroke:none;stroke-width:0.96400887;marker:none;visibility:visible;display:inline;overflow:visible;enable-background:accumulate"
       id="rect2985"
       width="124.04469"
       height="123.62515"
       x="0.51654941"
       y="924.87036"
       rx="20.535704"
       ry="19.833834" />
    <g
       id="g3853"
       mask="url(#mask3859)"
       transform="matrix(1.0052803,0,0,1.0018802,-0.72196038,-1.9953154)">
      <path
         sodipodi:nodetypes="csssscccsssscc"
         inkscape:connector-curvature="0"
         id="rect3788"
         transform="translate(0,924.36218)"
         d="m 111.3125,2 c 1.0638,2.3966046 2.03056,5.049628 1.65625,7.8125 l -10,73.8125 c -1.47238,10.868035 -9.195281,18.23558 -20.40625,19.78125 l -72.53125,10 C 7.534242,113.75052 5.0997184,112.93384 2.875,112.125 c 0.7713464,1.76264 1.7621331,3.38896 3,4.84375 0.010886,0.01 0.020343,0.0216 0.03125,0.0312 3.6235707,3.20066 8.436326,5.15625 13.75,5.15625 l 82.53125,0 c 11.31702,0 20.4375,-8.81393 20.4375,-19.78125 l 0,-83.8125 c 0,-4.877214 -1.80986,-9.3136525 -4.8125,-12.75 C 115.92993,4.1823291 113.729,2.8665963 111.3125,2 z"
         style="color:#000000;fill:#c9c9cf;fill-opacity:0.25401928;stroke:none;stroke-width:0.96400887;marker:none;visibility:visible;display:inline;overflow:visible;filter:url(#filter3835);enable-background:accumulate" />
      <path
         sodipodi:nodetypes="sssccsssscccss"
         inkscape:connector-curvature="0"
         id="rect3796"
         transform="translate(0,924.36218)"
         d="m 23.65625,2.75 c -11.317023,0 -20.4375,8.845177 -20.4375,19.8125 l 0,83.8125 c 0,4.8505 1.7783223,9.26046 4.75,12.6875 1.8502957,1.61847 4.000429,2.9035 6.375,3.78125 -0.720661,-2.02308 -1.488357,-4.23372 -1.125,-6.46875 l 12,-73.8125 C 26.978647,31.737301 34.451287,24.338652 45.65625,22.75 l 70.53125,-10 c 2.55597,-0.362388 5.0458,0.494454 7.3125,1.34375 -0.82375,-2.321834 -2.0613,-4.4443488 -3.65625,-6.28125 -0.0281,-0.024504 -0.0655,-0.038145 -0.0937,-0.0625 -3.60314,-3.110944 -8.3402,-5 -13.5625,-5 z"
         style="color:#000000;fill:#ffffff;fill-opacity:1;stroke:none;stroke-width:0.96400887;marker:none;visibility:visible;display:inline;overflow:visible;filter:url(#filter3839);enable-background:accumulate" />
    </g>
    <rect
       ry="19.833834"
       rx="20.535704"
       y="924.87036"
       x="0.51654941"
       height="123.62515"
       width="124.04469"
       id="rect3851"
       style="color:#000000;fill:none;stroke:#cbcdd0;stroke-width:1.00357878;stroke-linecap:round;stroke-linejoin:round;stroke-miterlimit:4;stroke-opacity:1;stroke-dasharray:none;stroke-dashoffset:0;marker:none;visibility:visible;display:inline;overflow:visible;enable-background:accumulate" />
  </g>
  <g
     inkscape:groupmode="layer"
     id="layer3"
     inkscape:label="outline">
    <path
       inkscape:connector-curvature="0"
       id="path3229"
       d="M 45.9375,8 C 24.957767,8 8,25.065211 8,46.03125 c 0,20.96604 16.957767,37.9375 37.9375,37.9375 7.54427,0 14.580866,-2.182874 20.5,-5.96875 l 39.125,39.40625 c 3.2992,3.32156 8.64049,3.35495 11.96875,0.0625 3.32826,-3.29245 3.3617,-8.61594 0.0625,-11.9375 L 78.3125,65.96875 C 81.905344,60.178491 83.96875,53.343922 83.96875,46.03125 83.96875,25.065211 66.917201,8 45.9375,8 z m -0.03125,8.15625 c 16.597713,0 30.09375,13.460526 30.09375,30 0,16.539474 -13.496037,29.9375 -30.09375,29.9375 -16.597738,0 -30,-13.398026 -30,-29.9375 0,-16.539474 13.402262,-30 30,-30 z"
       style="display:inline;color:#000000;fill:none;stroke:#ffffff;stroke-width:2;stroke-linecap:round;stroke-linejoin:round;stroke-miterlimit:4;stroke-opacity:1;stroke-dasharray:none;stroke-dashoffset:0;marker:none;visibility:visible;overflow:visible;enable-background:accumulate" />
  </g>
  <g
     inkscape:groupmode="layer"
     id="layer2"
     inkscape:label="icon"
     style="display:inline">
    <path
       style="color:#000000;fill:url(#linearGradient3149);fill-opacity:1;fill-rule:nonzero;stroke:none;stroke-width:0.90705854;marker:none;visibility:visible;display:inline;overflow:visible;enable-background:accumulate"
       d="M 45.9375,8 C 24.957767,8 8,25.065211 8,46.03125 c 0,20.96604 16.957767,37.9375 37.9375,37.9375 7.54427,0 14.580866,-2.182874 20.5,-5.96875 l 39.125,39.40625 c 3.2992,3.32156 8.64049,3.35495 11.96875,0.0625 3.32826,-3.29245 3.3617,-8.61594 0.0625,-11.9375 L 78.3125,65.96875 C 81.905344,60.178491 83.96875,53.343922 83.96875,46.03125 83.96875,25.065211 66.917201,8 45.9375,8 z m -0.03125,8.15625 c 16.597713,0 30.09375,13.460526 30.09375,30 0,16.539474 -13.496037,29.9375 -30.09375,29.9375 -16.597738,0 -30,-13.398026 -30,-29.9375 0,-16.539474 13.402262,-30 30,-30 z"
       id="path3075-9"
       inkscape:connector-curvature="0" />
    <g
       id="g3208"
       mask="url(#mask3214)">
      <path
         inkscape:connector-curvature="0"
         id="path3165"
         d="M 45.9375,8 C 24.957767,8 8,25.065211 8,46.03125 8,57.585058 13.146559,67.919031 21.28125,74.875 15.503869,68.21811 12,59.547382 12,50.03125 12,29.065211 28.957767,12 49.9375,12 c 9.502729,0 18.203623,3.502307 24.875,9.28125 C 67.833641,13.149388 57.474396,8 45.9375,8 z M 69.15625,27.15625 C 73.425789,32.336412 76,38.945079 76,46.15625 76,62.695724 62.503963,76.09375 45.90625,76.09375 38.64474,76.09375 31.996024,73.520044 26.8125,69.25 32.310452,75.864004 40.601753,80.09375 49.90625,80.09375 66.503963,80.09375 80,66.695724 80,50.15625 c 0,-9.240215 -4.231504,-17.492059 -10.84375,-23 z"
         style="color:#000000;fill:#141414;fill-opacity:0.73170734;fill-rule:nonzero;stroke:none;stroke-width:0.96344244;marker:none;visibility:visible;display:inline;overflow:visible;filter:url(#filter3822-9-6-4-5);enable-background:accumulate" />
      <path
         id="path3193"
         d="m 41.90625,12.15625 c -16.597738,0 -30,13.460526 -30,30 0,9.271835 4.218312,17.540774 10.84375,23.03125 -4.275835,-5.174546 -6.84375,-11.79523 -6.84375,-19.03125 0,-16.539474 13.402262,-30 30,-30 7.301773,0 14.002534,2.611227 19.21875,6.9375 -5.523461,-6.670291 -13.882536,-10.9375 -23.21875,-10.9375 z m 28.90625,5.125 c 5.712109,6.655827 9.15625,15.313344 9.15625,24.75 0,7.312672 -2.063406,14.147241 -5.65625,19.9375 l 4,4 c 3.592844,-5.790259 5.65625,-12.624828 5.65625,-19.9375 0,-11.469498 -5.098858,-21.77045 -13.15625,-28.75 z M 17.28125,70.875 c 6.951405,8.009639 17.198864,13.09375 28.65625,13.09375 7.534679,0 14.554304,-2.191758 20.46875,-5.96875 L 62.4375,74 c -5.919134,3.785876 -12.95573,5.96875 -20.5,5.96875 -9.418379,0 -18.029379,-3.427116 -24.65625,-9.09375 z m 96.3125,30.65625 c 3.2992,3.32156 3.26576,8.64505 -0.0625,11.9375 -3.23981,3.20496 -8.37311,3.25065 -11.6875,0.1875 l 3.71875,3.75 c 3.2992,3.32156 8.64049,3.35495 11.96875,0.0625 3.32826,-3.29245 3.3617,-8.61594 0.0625,-11.9375 l -4,-4 z"
         style="color:#000000;fill:#ffffff;fill-opacity:0.39430895;fill-rule:nonzero;stroke:none;stroke-width:0.96344244;marker:none;visibility:visible;display:inline;overflow:visible;filter:url(#filter3822-2-7-6-4);enable-background:accumulate"
         inkscape:connector-curvature="0" />
    </g>
  </g>
</svg>
