<?xml version="1.0" encoding="UTF-8" standalone="no"?>
<!-- Created with Inkscape (http://www.inkscape.org/) -->

<svg
   width="128"
   height="128"
   id="svg2"
   version="1.1"
   inkscape:version="1.3.2 (1:1.3.2+202311252150+091e20ef0f)"
   sodipodi:docname="task.svg"
   inkscape:export-filename="task_12.png"
   inkscape:export-xdpi="9"
   inkscape:export-ydpi="9"
   xmlns:inkscape="http://www.inkscape.org/namespaces/inkscape"
   xmlns:sodipodi="http://sodipodi.sourceforge.net/DTD/sodipodi-0.dtd"
   xmlns:xlink="http://www.w3.org/1999/xlink"
   xmlns="http://www.w3.org/2000/svg"
   xmlns:svg="http://www.w3.org/2000/svg"
   xmlns:rdf="http://www.w3.org/1999/02/22-rdf-syntax-ns#"
   xmlns:cc="http://creativecommons.org/ns#"
   xmlns:dc="http://purl.org/dc/elements/1.1/">
  <defs
     id="defs4">
    <linearGradient
       id="linearGradient3843">
      <stop
         style="stop-color:#f9f9fa;stop-opacity:1;"
         offset="0"
         id="stop3845" />
      <stop
         style="stop-color:#efeff0;stop-opacity:1;"
         offset="1"
         id="stop3847" />
    </linearGradient>
    <filter
       inkscape:collect="always"
       id="filter3784"
       x="-0.014414414"
       y="-0.014414414"
       width="1.0288288"
       height="1.0288288">
      <feGaussianBlur
         inkscape:collect="always"
         stdDeviation="0.74109996"
         id="feGaussianBlur3786" />
    </filter>
    <filter
       inkscape:collect="always"
       id="filter3835"
       x="-0.11912061"
       width="1.2382412"
       y="-0.11871791"
       height="1.2374358">
      <feGaussianBlur
         inkscape:collect="always"
         stdDeviation="5.9436221"
         id="feGaussianBlur3837" />
    </filter>
    <filter
       inkscape:collect="always"
       id="filter3839"
       x="-0.090019872"
       y="-0.090160418"
       width="1.1800397"
       height="1.1803208">
      <feGaussianBlur
         inkscape:collect="always"
         stdDeviation="4.5115428"
         id="feGaussianBlur3841" />
    </filter>
    <linearGradient
       inkscape:collect="always"
       xlink:href="#linearGradient3843"
       id="linearGradient3849"
       x1="14.267717"
       y1="932.53717"
       x2="86.410866"
       y2="1016.1086"
       gradientUnits="userSpaceOnUse"
       gradientTransform="matrix(1.0054915,0,0,1.00192,-0.75084633,-2.0376426)" />
    <mask
       maskUnits="userSpaceOnUse"
       id="mask3859">
      <rect
         ry="19.796612"
         rx="20.427839"
         y="925.12628"
         x="1.2320045"
         height="123.39314"
         width="123.39314"
         id="rect3861"
         style="color:#000000;fill:#ffffff;fill-opacity:1;stroke:none;stroke-width:0.96400887;marker:none;visibility:visible;display:inline;overflow:visible;enable-background:accumulate" />
    </mask>
    <linearGradient
       inkscape:collect="always"
       xlink:href="#linearGradient3834-0-7-118"
       id="linearGradient4068-5"
       gradientUnits="userSpaceOnUse"
       gradientTransform="matrix(0.69083119,-0.69083119,0.62542492,0.62542492,6.162221,33.688642)"
       x1="29.76696"
       y1="-1.3371111"
       x2="11.102558"
       y2="120.30643" />
    <linearGradient
       id="linearGradient3834-0-7-118">
      <stop
         style="stop-color:#626262;stop-opacity:1;"
         offset="0"
         id="stop3836-1-1-88" />
      <stop
         style="stop-color:#707070;stop-opacity:1;"
         offset="1"
         id="stop3838-0-6-22" />
    </linearGradient>
    <filter
       color-interpolation-filters="sRGB"
       inkscape:collect="always"
       id="filter3822-9-6-4"
       x="-0.061359287"
       y="-0.061052405"
       width="1.1227186"
       height="1.1221048">
      <feGaussianBlur
         inkscape:collect="always"
         stdDeviation="2.8610366"
         id="feGaussianBlur3824-5-7-3" />
    </filter>
    <filter
       color-interpolation-filters="sRGB"
       inkscape:collect="always"
       id="filter3822-2-7-6"
       x="-0.061359287"
       y="-0.061052405"
       width="1.1227186"
       height="1.1221048">
      <feGaussianBlur
         inkscape:collect="always"
         stdDeviation="2.8610366"
         id="feGaussianBlur3824-4-8-9" />
    </filter>
    <mask
       maskUnits="userSpaceOnUse"
       id="mask4346">
      <path
         inkscape:connector-curvature="0"
         id="path4348"
         d="m 52.21875,6.5625 c -6.886579,1.2762688 -13.3411,3.780278 -19.125,7.28125 L 37,25.5 C 33.184652,28.130392 29.814111,31.353998 26.96875,35 L 15.5,30.4375 C 11.655904,36.02312 8.7929837,42.317309 7.125,49.09375 l 11.03125,5.5 c -0.487338,2.660182 -0.75,5.386685 -0.75,8.1875 0,1.915952 0.112469,3.80288 0.34375,5.65625 l -11.3125,4.875 c 1.2810967,6.876932 3.774297,13.349923 7.28125,19.125 L 25.4375,88.5 c 2.638185,3.808024 5.845963,7.193352 9.5,10.03125 L 30.375,110 c 5.591059,3.82797 11.908645,6.68629 18.6875,8.34375 l 5.5,-11.03125 c 2.648822,0.4814 5.368364,0.75 8.15625,0.75 1.90685,0 3.780031,-0.11536 5.625,-0.34375 l 4.875,11.3125 C 80.114347,117.75331 86.585283,115.25816 92.375,111.75 l -3.9375,-11.6875 c 3.822599,-2.637165 7.214538,-5.843416 10.0625,-9.5 l 11.46875,4.59375 c 3.84517,-5.590331 6.7093,-11.905307 8.375,-18.6875 l -11.0625,-5.5 c 0.48584,-2.656244 0.75,-5.3911 0.75,-8.1875 0,-1.92078 -0.11132,-3.798385 -0.34375,-5.65625 l 11.34375,-4.875 c -1.28172,-6.872965 -3.80733,-13.321636 -7.3125,-19.09375 l -11.6875,3.90625 c -2.636708,-3.808125 -5.847556,-7.192672 -9.5,-10.03125 l 4.5625,-11.4375 C 89.494077,11.754149 83.167789,8.879416 76.375,7.21875 L 70.875,18.25 c -2.647871,-0.481044 -5.36943,-0.71875 -8.15625,-0.71875 -1.907474,0 -3.779449,0.115217 -5.625,0.34375 L 52.21875,6.5625 z M 64,52.03125 c 6.653133,0 12.0625,5.371639 12.0625,11.96875 0,6.597111 -5.409367,11.9375 -12.0625,11.9375 -6.653133,0 -12.03125,-5.340389 -12.03125,-11.9375 0,-6.597111 5.378117,-11.96875 12.03125,-11.96875 z"
         style="color:#000000;fill:#ffffff;fill-opacity:1;fill-rule:nonzero;stroke:none;stroke-width:0.90705854;marker:none;visibility:visible;display:inline;overflow:visible;enable-background:accumulate" />
    </mask>
  </defs>
  <sodipodi:namedview
     id="base"
     pagecolor="#ffffff"
     bordercolor="#666666"
     borderopacity="1.0"
     inkscape:pageopacity="0"
     inkscape:pageshadow="2"
     inkscape:zoom="5.6568542"
     inkscape:cx="72.301669"
     inkscape:cy="76.809475"
     inkscape:document-units="px"
     inkscape:current-layer="layer2"
     showgrid="true"
     inkscape:window-width="1868"
     inkscape:window-height="1016"
     inkscape:window-x="52"
     inkscape:window-y="27"
     inkscape:window-maximized="1"
     showguides="true"
     inkscape:guide-bbox="true"
     inkscape:snap-global="false"
     inkscape:showpageshadow="2"
     inkscape:pagecheckerboard="0"
     inkscape:deskcolor="#d1d1d1">
    <inkscape:grid
       type="xygrid"
       id="grid3901"
       empspacing="4"
       visible="true"
       enabled="true"
       snapvisiblegridlinesonly="true"
       dotted="false"
       spacingx="4"
       spacingy="4"
       color="#ff00bf"
       opacity="0.1254902"
       empcolor="#ff00cb"
       empopacity="0.25098039"
       originx="0"
       originy="0"
       units="px" />
    <sodipodi:guide
       orientation="0,1"
       position="82.074894,122.481"
       id="guide3803"
       inkscape:locked="false" />
    <sodipodi:guide
       orientation="1,0"
       position="5.5,70.963216"
       id="guide3805"
       inkscape:locked="false" />
    <sodipodi:guide
       orientation="1,0"
       position="120,22.728432"
       id="guide3807"
       inkscape:locked="false" />
    <sodipodi:guide
       orientation="0,1"
       position="-33.335,8"
       id="guide3811"
       inkscape:locked="false" />
  </sodipodi:namedview>
  <metadata
     id="metadata7">
    <rdf:RDF>
      <cc:Work
         rdf:about="">
        <dc:format>image/svg+xml</dc:format>
        <dc:type
           rdf:resource="http://purl.org/dc/dcmitype/StillImage" />
        <cc:license
           rdf:resource="http://creativecommons.org/licenses/by-sa/4.0/" />
      </cc:Work>
      <cc:License
         rdf:about="http://creativecommons.org/licenses/by-sa/4.0/">
        <cc:permits
           rdf:resource="http://creativecommons.org/ns#Reproduction" />
        <cc:permits
           rdf:resource="http://creativecommons.org/ns#Distribution" />
        <cc:requires
           rdf:resource="http://creativecommons.org/ns#Notice" />
        <cc:requires
           rdf:resource="http://creativecommons.org/ns#Attribution" />
        <cc:permits
           rdf:resource="http://creativecommons.org/ns#DerivativeWorks" />
        <cc:requires
           rdf:resource="http://creativecommons.org/ns#ShareAlike" />
      </cc:License>
    </rdf:RDF>
  </metadata>
  <g
     inkscape:label="base"
     inkscape:groupmode="layer"
     id="layer1"
     transform="translate(0,-924.36218)"
     style="display:none"
     sodipodi:insensitive="true">
    <rect
       ry="19.796612"
       rx="20.427839"
       y="927.12628"
       x="3.2320046"
       height="123.39314"
       width="123.39314"
       id="rect3766"
       style="color:#000000;display:inline;overflow:visible;visibility:visible;fill:#252628;fill-opacity:0.128617;stroke:none;stroke-width:0.964009;marker:none;filter:url(#filter3784);enable-background:accumulate"
       transform="matrix(1.0054915,0,0,1.00192,-0.75084633,-2.0376426)" />
    <rect
       style="color:#000000;display:inline;overflow:visible;visibility:visible;fill:url(#linearGradient3849);fill-opacity:1;stroke:none;stroke-width:0.964009;marker:none;enable-background:accumulate"
       id="rect2985"
       width="124.07077"
       height="123.63005"
       x="0.48792386"
       y="924.86493"
       rx="20.540022"
       ry="19.834623" />
    <g
       id="g3853"
       mask="url(#mask3859)"
       transform="matrix(1.0054915,0,0,1.00192,-0.75084633,-2.0376426)">
      <path
         sodipodi:nodetypes="csssscccsssscc"
         inkscape:connector-curvature="0"
         id="rect3788"
         transform="translate(0,924.36218)"
         d="m 111.3125,2 c 1.0638,2.3966046 2.03056,5.049628 1.65625,7.8125 l -10,73.8125 c -1.47238,10.868035 -9.195281,18.23558 -20.40625,19.78125 l -72.53125,10 C 7.534242,113.75052 5.0997184,112.93384 2.875,112.125 c 0.7713464,1.76264 1.7621331,3.38896 3,4.84375 0.010886,0.01 0.020343,0.0216 0.03125,0.0312 3.6235707,3.20066 8.436326,5.15625 13.75,5.15625 h 82.53125 c 11.31702,0 20.4375,-8.81393 20.4375,-19.78125 v -83.8125 c 0,-4.877214 -1.80986,-9.3136525 -4.8125,-12.75 C 115.92993,4.1823291 113.729,2.8665963 111.3125,2 Z"
         style="color:#000000;display:inline;overflow:visible;visibility:visible;fill:#c9c9cf;fill-opacity:0.254019;stroke:none;stroke-width:0.964009;marker:none;filter:url(#filter3835);enable-background:accumulate" />
      <path
         sodipodi:nodetypes="sssccsssscccss"
         inkscape:connector-curvature="0"
         id="rect3796"
         transform="translate(0,924.36218)"
         d="m 23.65625,2.75 c -11.317023,0 -20.4375,8.845177 -20.4375,19.8125 v 83.8125 c 0,4.8505 1.7783223,9.26046 4.75,12.6875 1.8502957,1.61847 4.000429,2.9035 6.375,3.78125 -0.720661,-2.02308 -1.488357,-4.23372 -1.125,-6.46875 l 12,-73.8125 C 26.978647,31.737301 34.451287,24.338652 45.65625,22.75 l 70.53125,-10 c 2.55597,-0.362388 5.0458,0.494454 7.3125,1.34375 -0.82375,-2.321834 -2.0613,-4.4443488 -3.65625,-6.28125 -0.0281,-0.024504 -0.0655,-0.038145 -0.0937,-0.0625 -3.60314,-3.110944 -8.3402,-5 -13.5625,-5 z"
         style="color:#000000;display:inline;overflow:visible;visibility:visible;fill:#ffffff;fill-opacity:1;stroke:none;stroke-width:0.964009;marker:none;filter:url(#filter3839);enable-background:accumulate" />
    </g>
    <rect
       ry="19.834623"
       rx="20.540022"
       y="924.86493"
       x="0.48792386"
       height="123.63005"
       width="124.07077"
       id="rect3851"
       style="color:#000000;display:inline;overflow:visible;visibility:visible;fill:none;stroke:#cbcdd0;stroke-width:1.0037;stroke-linecap:round;stroke-linejoin:round;stroke-miterlimit:4;stroke-dasharray:none;stroke-dashoffset:0;stroke-opacity:1;marker:none;enable-background:accumulate" />
  </g>
  <g
     inkscape:groupmode="layer"
     id="layer2"
     inkscape:label="outline">
    <path
       inkscape:connector-curvature="0"
       id="path4361"
       d="m 52.21875,6.5625 c -6.886579,1.2762688 -13.3411,3.780278 -19.125,7.28125 L 37,25.5 C 33.184652,28.130392 29.814111,31.353998 26.96875,35 L 15.5,30.4375 C 11.655904,36.02312 8.7929837,42.317309 7.125,49.09375 l 11.03125,5.5 c -0.487338,2.660182 -0.75,5.386685 -0.75,8.1875 0,1.915952 0.112469,3.80288 0.34375,5.65625 l -11.3125,4.875 c 1.2810967,6.876932 3.774297,13.349923 7.28125,19.125 L 25.4375,88.5 c 2.638185,3.808024 5.845963,7.193352 9.5,10.03125 L 30.375,110 c 5.591059,3.82797 11.908645,6.68629 18.6875,8.34375 l 5.5,-11.03125 c 2.648822,0.4814 5.368364,0.75 8.15625,0.75 1.90685,0 3.780031,-0.11536 5.625,-0.34375 l 4.875,11.3125 C 80.114347,117.75331 86.585283,115.25816 92.375,111.75 l -3.9375,-11.6875 c 3.822599,-2.637165 7.214538,-5.843416 10.0625,-9.5 l 11.46875,4.59375 c 3.84517,-5.590331 6.7093,-11.905307 8.375,-18.6875 l -11.0625,-5.5 c 0.48584,-2.656244 0.75,-5.3911 0.75,-8.1875 0,-1.92078 -0.11132,-3.798385 -0.34375,-5.65625 l 11.34375,-4.875 c -1.28172,-6.872965 -3.80733,-13.321636 -7.3125,-19.09375 l -11.6875,3.90625 c -2.636708,-3.808125 -5.847556,-7.192672 -9.5,-10.03125 l 4.5625,-11.4375 C 89.494077,11.754149 83.167789,8.879416 76.375,7.21875 L 70.875,18.25 c -2.647871,-0.481044 -5.36943,-0.71875 -8.15625,-0.71875 -1.907474,0 -3.779449,0.115217 -5.625,0.34375 L 52.21875,6.5625 z M 64,52.03125 c 6.653133,0 12.0625,5.371639 12.0625,11.96875 0,6.597111 -5.409367,11.9375 -12.0625,11.9375 -6.653133,0 -12.03125,-5.340389 -12.03125,-11.9375 0,-6.597111 5.378117,-11.96875 12.03125,-11.96875 z"
       style="display:inline;color:#000000;fill:none;stroke:#ffffff;stroke-width:2;stroke-linecap:round;stroke-linejoin:round;stroke-miterlimit:4;stroke-opacity:1;stroke-dasharray:none;stroke-dashoffset:0;marker:none;visibility:visible;overflow:visible;enable-background:accumulate" />
  </g>
  <g
     inkscape:groupmode="layer"
     id="layer3"
     inkscape:label="icon"
     style="display:inline">
    <path
       style="color:#000000;fill:url(#linearGradient4068-5);fill-opacity:1;fill-rule:nonzero;stroke:none;stroke-width:0.90705854;marker:none;visibility:visible;display:inline;overflow:visible;enable-background:accumulate"
       d="m 52.21875,6.5625 c -6.886579,1.2762688 -13.3411,3.780278 -19.125,7.28125 L 37,25.5 C 33.184652,28.130392 29.814111,31.353998 26.96875,35 L 15.5,30.4375 C 11.655904,36.02312 8.7929837,42.317309 7.125,49.09375 l 11.03125,5.5 c -0.487338,2.660182 -0.75,5.386685 -0.75,8.1875 0,1.915952 0.112469,3.80288 0.34375,5.65625 l -11.3125,4.875 c 1.2810967,6.876932 3.774297,13.349923 7.28125,19.125 L 25.4375,88.5 c 2.638185,3.808024 5.845963,7.193352 9.5,10.03125 L 30.375,110 c 5.591059,3.82797 11.908645,6.68629 18.6875,8.34375 l 5.5,-11.03125 c 2.648822,0.4814 5.368364,0.75 8.15625,0.75 1.90685,0 3.780031,-0.11536 5.625,-0.34375 l 4.875,11.3125 C 80.114347,117.75331 86.585283,115.25816 92.375,111.75 l -3.9375,-11.6875 c 3.822599,-2.637165 7.214538,-5.843416 10.0625,-9.5 l 11.46875,4.59375 c 3.84517,-5.590331 6.7093,-11.905307 8.375,-18.6875 l -11.0625,-5.5 c 0.48584,-2.656244 0.75,-5.3911 0.75,-8.1875 0,-1.92078 -0.11132,-3.798385 -0.34375,-5.65625 l 11.34375,-4.875 c -1.28172,-6.872965 -3.80733,-13.321636 -7.3125,-19.09375 l -11.6875,3.90625 c -2.636708,-3.808125 -5.847556,-7.192672 -9.5,-10.03125 l 4.5625,-11.4375 C 89.494077,11.754149 83.167789,8.879416 76.375,7.21875 L 70.875,18.25 c -2.647871,-0.481044 -5.36943,-0.71875 -8.15625,-0.71875 -1.907474,0 -3.779449,0.115217 -5.625,0.34375 L 52.21875,6.5625 z M 64,52.03125 c 6.653133,0 12.0625,5.371639 12.0625,11.96875 0,6.597111 -5.409367,11.9375 -12.0625,11.9375 -6.653133,0 -12.03125,-5.340389 -12.03125,-11.9375 0,-6.597111 5.378117,-11.96875 12.03125,-11.96875 z"
       id="path3075"
       inkscape:connector-curvature="0" />
    <g
       id="g4340"
       mask="url(#mask4346)">
      <path
         sodipodi:nodetypes="cccccccccccccccsccscccccccccccccccsccccccscccccsssccccccccccccccccccc"
         inkscape:connector-curvature="0"
         id="path4258"
         d="m 52.21875,6.5625 c -6.886579,1.2762688 -13.3411,3.780278 -19.125,7.28125 L 37,25.5 C 33.184652,28.130392 29.814111,31.353998 26.96875,35 L 15.5,30.4375 C 11.655904,36.02312 8.7929837,42.317309 7.125,49.09375 l 4.46875,2.21875 C 13.305183,45.20968 15.99332,39.532842 19.5,34.4375 L 30.96875,39 C 33.814111,35.353998 37.184652,32.130392 41,29.5 L 37.09375,17.84375 C 42.286724,14.700463 48.023505,12.368952 54.125,11 z M 76.375,7.21875 70.875,18.25 c -2.647871,-0.481044 -5.37477,-0.546315 -8.15625,-0.71875 -1.134186,-0.07031 -4.464155,0.134303 -5.625,0.34375 l 4,4 c 1.845551,-0.228533 3.717526,-0.34375 5.625,-0.34375 2.78682,0 5.508379,0.237706 8.15625,0.71875 l 5.5,-11.03125 c 5.034186,1.230732 9.802884,3.130825 14.21875,5.59375 l 0.5,-1.21875 C 89.494077,11.754149 83.167789,8.879416 76.375,7.21875 z m 14.15625,19.8125 4,4 c 0.772564,0.600415 1.518205,1.226889 2.25,1.875 -0.667178,-0.757144 -4.756923,-5.273352 -6.25,-5.875 z m 21.1875,6.125 -11.6875,3.90625 c 1.18692,1.341755 2.97791,2.523818 4,4 l 10.15625,-3.40625 c -0.75805,-1.54528 -1.58062,-3.037485 -2.46875,-4.5 z m -93.5625,21.4375 c -0.470739,2.053606 -0.75,6.0425 -0.75,8.1875 0,1.915952 0.112469,3.80288 0.34375,5.65625 l -11.3125,4.875 c 1.2810967,6.876932 3.774297,13.349923 7.28125,19.125 L 15.25,91.90625 C 13.024937,87.344753 11.393928,82.446609 10.4375,77.3125 L 21.75,72.4375 c -0.231281,-1.85337 -0.34375,-3.740298 -0.34375,-5.65625 0,-2.800815 0.262662,-5.527318 0.75,-8.1875 z m 54.1875,0.78125 -17.0625,16.875 3.75,3.65625 c 0.300848,0.337969 0.63185,0.635212 0.96875,0.9375 2.123387,1.905242 4.904078,3.09375 8,3.09375 6.653133,0 12.0625,-5.340389 12.0625,-11.9375 0,-3.051022 -1.158823,-5.827704 -3.0625,-7.9375 l -0.34375,-0.375 c -0.07771,-0.07909 -0.170126,-0.141786 -0.25,-0.21875 z M 107.28125,70.96875 111.25,75 l 6.625,3.25 c 0.16453,-0.587934 0.32254,-1.185943 0.46875,-1.78125 z M 34.96875,98.53125 30.375,110 c 1.454724,0.99599 2.95158,1.92062 4.5,2.78125 l 4.0625,-10.25 z m 33.375,9.1875 4.875,11.3125 c 0.704505,-0.13056 1.398384,-0.28174 2.09375,-0.4375 l -2.96875,-6.875 z"
         style="color:#000000;fill:#141414;fill-opacity:0.73170734;fill-rule:nonzero;stroke:none;stroke-width:0.96344244;marker:none;visibility:visible;display:inline;overflow:visible;filter:url(#filter3822-9-6-4);enable-background:accumulate" />
      <path
         id="path4312"
         d="M 52.21875,6.5625 C 51.515166,6.6928931 50.81931,6.8442223 50.125,7 l 2.96875,6.875 4,4.03125 -4.875,-11.34375 z m 38.375,6.25 -4.0625,10.1875 4,4.0625 4.5625,-11.46875 c -1.449714,-0.994044 -2.957396,-1.920871 -4.5,-2.78125 z m 2.25,16.15625 c 1.143253,1.302461 2.198735,2.665703 3.1875,4.09375 l 4.03125,4.03125 c -1.517184,-3.376223 -5.856372,-6.913711 -7.21875,-8.125 z m 18.875,4.1875 -1.53125,0.5 c 2.23375,4.553485 3.88679,9.462229 4.84375,14.59375 l -11.34375,4.875 c 0.23243,1.857865 0.34375,3.73547 0.34375,5.65625 0,2.7964 -0.26416,5.531256 -0.75,8.1875 l 4,4 c 0.42338,-2.061758 0.84944,-6.045881 0.75,-8.1875 -0.0891,-1.918713 -0.11132,-3.798385 -0.34375,-5.65625 l 11.34375,-4.875 c -1.28172,-6.872965 -3.80733,-13.321636 -7.3125,-19.09375 z M 7.59375,47.3125 C 7.4290746,47.899718 7.2714073,48.498948 7.125,49.09375 l 11.03125,5.5 -4,-4 -6.5625,-3.28125 z M 60,48.03125 c -6.653133,0 -12.03125,5.371639 -12.03125,11.96875 0,2.991901 1.134056,5.693097 2.96875,7.78125 0.268814,0.305951 0.545256,0.597497 0.84375,0.875 L 55.5,72.5 72.3125,55.34375 68.40625,51.46875 68.0625,51.125 68.03125,51.15625 C 65.901504,49.239332 63.09832,48.03125 60,48.03125 z m 4,4 c 0.955622,0 1.890496,0.129663 2.78125,0.34375 L 52.21875,66.53125 C 52.037634,65.718626 51.96875,64.867877 51.96875,64 51.96875,57.402889 57.346867,52.03125 64,52.03125 z M 113.875,74.25 c -1.70988,6.110256 -4.39859,11.80661 -7.90625,16.90625 L 94.5,86.5625 c -2.847962,3.656584 -6.239901,6.862835 -10.0625,9.5 L 88.375,107.75 c -5.198197,3.14974 -10.95172,5.47498 -17.0625,6.84375 l 1.90625,4.4375 C 80.114347,117.75331 86.585283,115.25816 92.375,111.75 l -3.9375,-11.6875 c 3.822599,-2.637165 7.214538,-5.843416 10.0625,-9.5 l 11.46875,4.59375 c 3.84517,-5.590331 6.7093,-11.905307 8.375,-18.6875 L 113.875,74.25 z m -91.75,10 -10.875,3.65625 c 0.755319,1.548444 1.579982,3.06767 2.46875,4.53125 L 25.4375,88.5 22.125,84.25 z m 6.5625,8.40625 c 0.671807,0.762611 4.866041,5.41522 6.25,5.84375 l -4,-3.96875 c -0.7729,-0.600271 -1.518198,-1.226925 -2.25,-1.875 z m 21.875,10.65625 -5.5,11.03125 c -5.015082,-1.22621 -9.784751,-3.1154 -14.1875,-5.5625 L 30.375,110 c 5.591059,3.82797 11.908645,6.68629 18.6875,8.34375 l 5.5,-11.03125 c 2.648822,0.4814 5.368364,0.75 8.15625,0.75 1.157244,0 4.491337,-0.10305 5.625,-0.375 l -4,-3.96875 c -1.844969,0.22839 -3.71815,0.34375 -5.625,0.34375 -2.787886,0 -5.507428,-0.2686 -8.15625,-0.75 z"
         style="color:#000000;fill:#ffffff;fill-opacity:0.39430895;fill-rule:nonzero;stroke:none;stroke-width:0.96344244;marker:none;visibility:visible;display:inline;overflow:visible;filter:url(#filter3822-2-7-6);enable-background:accumulate"
         inkscape:connector-curvature="0" />
    </g>
  </g>
</svg>
