<?xml version="1.0" encoding="UTF-8" standalone="no"?>
<!-- Created with Inkscape (http://www.inkscape.org/) -->

<svg
   width="128"
   height="128"
   id="svg2"
   version="1.1"
   inkscape:version="1.4.2 (ebf0e94, 2025-05-08)"
   sodipodi:docname="wall.svg"
   inkscape:export-filename="wall_48.png"
   inkscape:export-xdpi="36"
   inkscape:export-ydpi="36"
   xmlns:inkscape="http://www.inkscape.org/namespaces/inkscape"
   xmlns:sodipodi="http://sodipodi.sourceforge.net/DTD/sodipodi-0.dtd"
   xmlns:xlink="http://www.w3.org/1999/xlink"
   xmlns="http://www.w3.org/2000/svg"
   xmlns:svg="http://www.w3.org/2000/svg"
   xmlns:rdf="http://www.w3.org/1999/02/22-rdf-syntax-ns#"
   xmlns:cc="http://creativecommons.org/ns#"
   xmlns:dc="http://purl.org/dc/elements/1.1/">
  <defs
     id="defs4">
    <linearGradient
       id="linearGradient3843">
      <stop
         style="stop-color:#f9f9fa;stop-opacity:1;"
         offset="0"
         id="stop3845" />
      <stop
         style="stop-color:#efeff0;stop-opacity:1;"
         offset="1"
         id="stop3847" />
    </linearGradient>
    <mask
       maskUnits="userSpaceOnUse"
       id="mask3859">
      <rect
         ry="19.796612"
         rx="20.427839"
         y="925.12628"
         x="1.2320045"
         height="123.39314"
         width="123.39314"
         id="rect3861"
         style="color:#000000;fill:#ffffff;fill-opacity:1;stroke:none;stroke-width:0.96400887;marker:none;visibility:visible;display:inline;overflow:visible;enable-background:accumulate" />
    </mask>
    <linearGradient
       id="linearGradient3834-0-7-118-6-4-8-2">
      <stop
         style="stop-color:#626262;stop-opacity:1;"
         offset="0"
         id="stop3836-1-1-88-7-5-5-6" />
      <stop
         style="stop-color:#707070;stop-opacity:1;"
         offset="1"
         id="stop3838-0-6-22-3-8-6-6" />
    </linearGradient>
    <mask
       maskUnits="userSpaceOnUse"
       id="mask3916">
      <path
         sodipodi:nodetypes="sscsscccsccccccccsscssssccccccccccccccccccccccccccccccccccccccccccccccc"
         inkscape:connector-curvature="0"
         id="path3918"
         d="M 32,4 C 29.438525,4.073771 28,5.519 28,7.96875 L 28,16 16.125,16 C 11.998463,16 8,20 8,24 l 0,4 103.96875,0 0,-4 C 111.99995,20 108,16 104,16 L 92,16 92,8 C 91.512434,6.4177101 90.539419,4 88.016618,4 l -7.92887,0 C 77.720741,3.9994268 75.987066,5.6575793 76,8 L 76,16 44.09375,15.96875 44,8 C 44,5.7480248 42.448191,4.0559105 40,4.03125 38.959353,4.0207676 33.651103,3.9524482 32,4 z M 8,32 8,104 c 0,4 4,7.94877 8,7.94877 l 88,0 c 4,0 7.82643,-3.95031 7.9375,-7.94877 l 0,-72 z m 32,8.03125 16,0 L 56,56 40,56 z m 24,0 16,0 L 80,56 64,56 z m 24,0 16.03125,0 0,15.96875 L 88,56 z M 15.96875,64 32,64 32,80 15.96875,80 z M 40,64 l 16,0 0,16 -16,0 z m 24,0 16,0 0,16 -16,0 z m 24,0 16.03125,0 0,16 L 88,80 z M 15.96875,88 32,88 l 0,16.03125 -16.03125,0 z M 40,88.125 l 16,0 0,15.90625 -16,0 z"
         style="color:#000000;fill:#ffffff;fill-opacity:1;fill-rule:nonzero;stroke:none;stroke-width:9.3633728;marker:none;visibility:visible;display:inline;overflow:visible;enable-background:accumulate" />
    </mask>
    <linearGradient
       inkscape:collect="always"
       xlink:href="#linearGradient3834-0-7-118-6-4-8-2"
       id="linearGradient4"
       gradientUnits="userSpaceOnUse"
       gradientTransform="matrix(0.06787012,-0.07220914,0.06144434,0.06537255,-69.003046,41.291507)"
       x1="764.33972"
       y1="604.24146"
       x2="895.46851"
       y2="2021.7891" />
    <filter
       inkscape:collect="always"
       style="color-interpolation-filters:sRGB"
       id="filter25"
       x="-0.040107847"
       y="-0.04345015"
       width="1.0802157"
       height="1.0869003">
      <feGaussianBlur
         inkscape:collect="always"
         stdDeviation="1.7380067"
         id="feGaussianBlur25" />
    </filter>
    <mask
       maskUnits="userSpaceOnUse"
       id="mask26">
      <path
         id="path27"
         style="font-variation-settings:normal;opacity:1;vector-effect:none;fill:url(#linearGradient27);fill-opacity:1;stroke:none;stroke-width:9.3634;stroke-linecap:butt;stroke-linejoin:miter;stroke-miterlimit:4;stroke-dasharray:none;stroke-dashoffset:0;stroke-opacity:1;-inkscape-stroke:none;marker:none;paint-order:fill markers stroke;stop-color:#000000;stop-opacity:1"
         d="M 12.044922,16 C 12.019648,16.002551 12,16.024812 12,16.050781 V 31.949219 C 12,31.976919 12.023081,32 12.050781,32 H 43.949219 C 43.976919,32 44,31.976919 44,31.949219 V 16.050781 C 44,16.023081 43.976919,16 43.949219,16 H 12.050781 c -0.0017,0 -0.0042,-1.7e-4 -0.0059,0 z m 0,20 C 12.019648,36.002551 12,36.024812 12,36.050781 V 51.949219 C 12,51.976919 12.023081,52 12.050781,52 H 27.949219 C 27.976919,52 28,51.976919 28,51.949219 V 36.050781 C 28,36.023081 27.976919,36 27.949219,36 H 12.050781 c -0.0017,0 -0.0042,-1.7e-4 -0.0059,0 z M 32,36 V 52 H 64 V 36 Z M 12.044922,56 C 12.019648,56.002551 12,56.024812 12,56.050781 V 71.949219 C 12,71.976919 12.023081,72 12.050781,72 H 43.949219 C 43.976919,72 44,71.976919 44,71.949219 V 56.050781 C 44,56.023081 43.976919,56 43.949219,56 H 12.050781 c -0.0017,0 -0.0042,-1.7e-4 -0.0059,0 z M 48,56 V 72 H 80 V 56 Z M 12.044922,76 C 12.019648,76.002551 12,76.024812 12,76.050781 V 91.949219 C 12,91.976919 12.023081,92 12.050781,92 H 27.949219 C 27.976919,92 28,91.976919 28,91.949219 V 76.050781 C 28,76.023081 27.976919,76 27.949219,76 H 12.050781 c -0.0017,0 -0.0042,-1.7e-4 -0.0059,0 z M 32,76 V 92 H 64 V 76 Z m 36,0 v 16 h 32 V 76 Z M 12.044922,96 C 12.019648,96.002551 12,96.024812 12,96.050781 v 15.898439 c 0,0.0277 0.02308,0.0508 0.05078,0.0508 H 43.949219 C 43.976919,112 44,111.97692 44,111.94922 V 96.050781 C 44,96.023081 43.976919,96 43.949219,96 H 12.050781 c -0.0017,0 -0.0042,-1.7e-4 -0.0059,0 z M 48,96 v 16 H 80 V 96 Z m 36,0 v 16 h 32 V 96 Z"
         inkscape:label="fill (mask)" />
    </mask>
    <linearGradient
       inkscape:collect="always"
       xlink:href="#linearGradient3834-0-7-118-6-4-8-2"
       id="linearGradient27"
       gradientUnits="userSpaceOnUse"
       gradientTransform="matrix(0.06787012,-0.07220914,0.06144434,0.06537255,-69.003046,41.291507)"
       x1="764.33972"
       y1="604.24146"
       x2="895.46851"
       y2="2021.7891" />
    <filter
       color-interpolation-filters="sRGB"
       inkscape:collect="always"
       id="filter27"
       x="-0.029915161"
       y="-0.032408055"
       width="1.0598303"
       height="1.0648161">
      <feGaussianBlur
         inkscape:collect="always"
         stdDeviation="1.2963236"
         id="feGaussianBlur27" />
    </filter>
  </defs>
  <sodipodi:namedview
     id="base"
     pagecolor="#ffffff"
     bordercolor="#666666"
     borderopacity="1.0"
     inkscape:pageopacity="0"
     inkscape:pageshadow="2"
     inkscape:zoom="5.6568543"
     inkscape:cx="70.268736"
     inkscape:cy="74.069435"
     inkscape:document-units="px"
     inkscape:current-layer="layer1"
     showgrid="true"
     inkscape:window-width="1868"
     inkscape:window-height="1016"
     inkscape:window-x="52"
     inkscape:window-y="27"
     inkscape:window-maximized="1"
     showguides="true"
     inkscape:guide-bbox="true"
     inkscape:snap-global="false"
     inkscape:showpageshadow="2"
     inkscape:pagecheckerboard="true"
     inkscape:deskcolor="#d1d1d1">
    <inkscape:grid
       type="xygrid"
       id="grid3901"
       empspacing="4"
       visible="true"
       enabled="true"
       snapvisiblegridlinesonly="true"
       dotted="false"
       spacingx="4"
       spacingy="4"
       color="#ff00bf"
       opacity="0.1254902"
       empcolor="#ff00cb"
       empopacity="0.25098039"
       originx="0"
       originy="0"
       units="px" />
    <sodipodi:guide
       orientation="0,1"
       position="82.074894,122.481"
       id="guide3803"
       inkscape:locked="false" />
    <sodipodi:guide
       orientation="1,0"
       position="5.5,70.963216"
       id="guide3805"
       inkscape:locked="false" />
    <sodipodi:guide
       orientation="1,0"
       position="120,22.728432"
       id="guide3807"
       inkscape:locked="false" />
    <sodipodi:guide
       orientation="0,1"
       position="-33.335,8"
       id="guide3811"
       inkscape:locked="false" />
    <sodipodi:guide
       orientation="0,1"
       position="48.929471,101.5104"
       id="guide3839"
       inkscape:locked="false" />
    <inkscape:grid
       type="xygrid"
       id="grid3852"
       empspacing="4"
       visible="true"
       enabled="false"
       snapvisiblegridlinesonly="true"
       spacingx="8"
       spacingy="8"
       originx="0"
       originy="0"
       units="px" />
  </sodipodi:namedview>
  <metadata
     id="metadata7">
    <rdf:RDF>
      <cc:Work
         rdf:about="">
        <dc:format>image/svg+xml</dc:format>
        <dc:type
           rdf:resource="http://purl.org/dc/dcmitype/StillImage" />
        <cc:license
           rdf:resource="http://creativecommons.org/licenses/by-sa/4.0/" />
        <dc:creator>
          <cc:Agent>
            <dc:title>Guillaume 'GuieA_7' ENGLERT</dc:title>
          </cc:Agent>
        </dc:creator>
      </cc:Work>
      <cc:License
         rdf:about="http://creativecommons.org/licenses/by-sa/4.0/">
        <cc:permits
           rdf:resource="http://creativecommons.org/ns#Reproduction" />
        <cc:permits
           rdf:resource="http://creativecommons.org/ns#Distribution" />
        <cc:requires
           rdf:resource="http://creativecommons.org/ns#Notice" />
        <cc:requires
           rdf:resource="http://creativecommons.org/ns#Attribution" />
        <cc:permits
           rdf:resource="http://creativecommons.org/ns#DerivativeWorks" />
        <cc:requires
           rdf:resource="http://creativecommons.org/ns#ShareAlike" />
      </cc:License>
    </rdf:RDF>
  </metadata>
  <path
     id="path28"
     style="display:inline;font-variation-settings:normal;opacity:1;vector-effect:none;fill:none;fill-opacity:1;stroke:#ffffff;stroke-width:2;stroke-linecap:round;stroke-linejoin:round;stroke-miterlimit:4;stroke-dasharray:none;stroke-dashoffset:0;stroke-opacity:1;-inkscape-stroke:none;marker:none;paint-order:fill markers stroke;stop-color:#000000;stop-opacity:1"
     d="M 12.044922,16 C 12.019648,16.002551 12,16.024812 12,16.050781 V 31.949219 C 12,31.976919 12.023081,32 12.050781,32 H 43.949219 C 43.976919,32 44,31.976919 44,31.949219 V 16.050781 C 44,16.023081 43.976919,16 43.949219,16 H 12.050781 c -0.0017,0 -0.0042,-1.7e-4 -0.0059,0 z m 0,20 C 12.019648,36.002551 12,36.024812 12,36.050781 V 51.949219 C 12,51.976919 12.023081,52 12.050781,52 H 27.949219 C 27.976919,52 28,51.976919 28,51.949219 V 36.050781 C 28,36.023081 27.976919,36 27.949219,36 H 12.050781 c -0.0017,0 -0.0042,-1.7e-4 -0.0059,0 z M 32,36 V 52 H 64 V 36 Z M 12.044922,56 C 12.019648,56.002551 12,56.024812 12,56.050781 V 71.949219 C 12,71.976919 12.023081,72 12.050781,72 H 43.949219 C 43.976919,72 44,71.976919 44,71.949219 V 56.050781 C 44,56.023081 43.976919,56 43.949219,56 H 12.050781 c -0.0017,0 -0.0042,-1.7e-4 -0.0059,0 z M 48,56 V 72 H 80 V 56 Z M 12.044922,76 C 12.019648,76.002551 12,76.024812 12,76.050781 V 91.949219 C 12,91.976919 12.023081,92 12.050781,92 H 27.949219 C 27.976919,92 28,91.976919 28,91.949219 V 76.050781 C 28,76.023081 27.976919,76 27.949219,76 H 12.050781 c -0.0017,0 -0.0042,-1.7e-4 -0.0059,0 z M 32,76 V 92 H 64 V 76 Z m 36,0 v 16 h 32 V 76 Z M 12.044922,96 C 12.019648,96.002551 12,96.024812 12,96.050781 v 15.898439 c 0,0.0277 0.02308,0.0508 0.05078,0.0508 H 43.949219 C 43.976919,112 44,111.97692 44,111.94922 V 96.050781 C 44,96.023081 43.976919,96 43.949219,96 H 12.050781 c -0.0017,0 -0.0042,-1.7e-4 -0.0059,0 z M 48,96 v 16 H 80 V 96 Z m 36,0 v 16 h 32 V 96 Z"
     inkscape:label="outline" />
  <g
     inkscape:groupmode="layer"
     id="layer1"
     inkscape:label="icon"
     style="display:inline">
    <path
       id="rect1"
       style="font-variation-settings:normal;opacity:1;vector-effect:none;fill:url(#linearGradient4);fill-opacity:1;stroke:none;stroke-width:9.3634;stroke-linecap:butt;stroke-linejoin:miter;stroke-miterlimit:4;stroke-dasharray:none;stroke-dashoffset:0;stroke-opacity:1;-inkscape-stroke:none;marker:none;paint-order:fill markers stroke;stop-color:#000000;stop-opacity:1"
       d="M 12.044922,16 C 12.019648,16.002551 12,16.024812 12,16.050781 V 31.949219 C 12,31.976919 12.023081,32 12.050781,32 H 43.949219 C 43.976919,32 44,31.976919 44,31.949219 V 16.050781 C 44,16.023081 43.976919,16 43.949219,16 H 12.050781 c -0.0017,0 -0.0042,-1.7e-4 -0.0059,0 z m 0,20 C 12.019648,36.002551 12,36.024812 12,36.050781 V 51.949219 C 12,51.976919 12.023081,52 12.050781,52 H 27.949219 C 27.976919,52 28,51.976919 28,51.949219 V 36.050781 C 28,36.023081 27.976919,36 27.949219,36 H 12.050781 c -0.0017,0 -0.0042,-1.7e-4 -0.0059,0 z M 32,36 V 52 H 64 V 36 Z M 12.044922,56 C 12.019648,56.002551 12,56.024812 12,56.050781 V 71.949219 C 12,71.976919 12.023081,72 12.050781,72 H 43.949219 C 43.976919,72 44,71.976919 44,71.949219 V 56.050781 C 44,56.023081 43.976919,56 43.949219,56 H 12.050781 c -0.0017,0 -0.0042,-1.7e-4 -0.0059,0 z M 48,56 V 72 H 80 V 56 Z M 12.044922,76 C 12.019648,76.002551 12,76.024812 12,76.050781 V 91.949219 C 12,91.976919 12.023081,92 12.050781,92 H 27.949219 C 27.976919,92 28,91.976919 28,91.949219 V 76.050781 C 28,76.023081 27.976919,76 27.949219,76 H 12.050781 c -0.0017,0 -0.0042,-1.7e-4 -0.0059,0 z M 32,76 V 92 H 64 V 76 Z m 36,0 v 16 h 32 V 76 Z M 12.044922,96 C 12.019648,96.002551 12,96.024812 12,96.050781 v 15.898439 c 0,0.0277 0.02308,0.0508 0.05078,0.0508 H 43.949219 C 43.976919,112 44,111.97692 44,111.94922 V 96.050781 C 44,96.023081 43.976919,96 43.949219,96 H 12.050781 c -0.0017,0 -0.0042,-1.7e-4 -0.0059,0 z M 48,96 v 16 H 80 V 96 Z m 36,0 v 16 h 32 V 96 Z"
       inkscape:label="fill" />
    <g
       id="g26"
       mask="url(#mask26)"
       inkscape:label="fx">
      <path
         id="path25"
         style="font-variation-settings:normal;opacity:1;vector-effect:none;fill:#141414;fill-opacity:0.731707;stroke:none;stroke-width:0.963442;stroke-linecap:butt;stroke-linejoin:miter;stroke-miterlimit:4;stroke-dasharray:none;stroke-dashoffset:0;stroke-opacity:1;-inkscape-stroke:none;marker:none;paint-order:fill markers stroke;stop-color:#000000;stop-opacity:1;filter:url(#filter27)"
         inkscape:label="shadow"
         d="M 12.041016 16 C 12.018032 16.004643 12 16.026435 12 16.050781 L 12 31.949219 C 12 31.976919 12.023081 32 12.050781 32 L 16 32 L 16 20.050781 C 16 20.024812 16.019648 20.002551 16.044922 20 C 16.045972 20.000021 16.049931 20 16.050781 20 L 44 20 L 44 16.050781 C 44 16.023081 43.976919 16 43.949219 16 L 12.050781 16 C 12.049931 16 12.045972 16.000021 12.044922 16 C 12.043342 16.000159 12.042548 15.99969 12.041016 16 z M 12.041016 36 C 12.018032 36.004643 12 36.026435 12 36.050781 L 12 51.949219 C 12 51.976919 12.023081 52 12.050781 52 L 16 52 L 16 40.050781 C 16 40.024812 16.019648 40.002551 16.044922 40 C 16.045972 40.000021 16.049931 40 16.050781 40 L 28 40 L 28 36.050781 C 28 36.024812 27.980438 36.002637 27.955078 36 L 27.949219 36 L 16.044922 36 L 12.050781 36 C 12.049931 36 12.045972 36.000021 12.044922 36 C 12.043342 36.000159 12.042548 35.99969 12.041016 36 z M 32 36 L 32 40.044922 C 32.000176 40.046613 32 40.04905 32 40.050781 L 32 52 L 36 52 L 36 40 L 64 40 L 64 36 L 47.955078 36 L 47.949219 36 L 32 36 z M 12.041016 56 C 12.018032 56.004643 12 56.026435 12 56.050781 L 12 71.949219 C 12 71.976919 12.023081 72 12.050781 72 L 16 72 L 16 60.050781 C 16 60.024812 16.019648 60.002551 16.044922 60 C 16.045972 60.000021 16.049931 60 16.050781 60 L 44 60 L 44 56.050781 C 44 56.024812 43.980438 56.002637 43.955078 56 L 43.949219 56 L 36 56 L 31.955078 56 L 16.044922 56 L 12.050781 56 C 12.049931 56 12.045972 56.000021 12.044922 56 C 12.043342 56.000159 12.042548 55.99969 12.041016 56 z M 48 56 L 48 60.044922 C 48.000176 60.046613 48 60.04905 48 60.050781 L 48 72 L 52 72 L 52 60 L 80 60 L 80 56 L 68 56 L 48 56 z M 12.041016 76 C 12.018032 76.004643 12 76.026435 12 76.050781 L 12 91.949219 C 12 91.976919 12.023081 92 12.050781 92 L 16 92 L 16 80.050781 C 16 80.024812 16.019648 80.002551 16.044922 80 C 16.045972 80.000021 16.049931 80 16.050781 80 L 28 80 L 28 76.050781 C 28 76.024813 27.980438 76.002637 27.955078 76 L 27.949219 76 L 16.044922 76 L 12.050781 76 C 12.049931 76 12.045972 76.000021 12.044922 76 C 12.043342 76.000159 12.042548 75.99969 12.041016 76 z M 32 76 L 32 80.044922 C 32.000176 80.046613 32 80.04905 32 80.050781 L 32 92 L 36 92 L 36 80 L 64 80 L 64 76 L 52 76 L 47.955078 76 L 47.949219 76 L 32 76 z M 68 76 L 68 80 L 68 92 L 72 92 L 72 80 L 100 80 L 100 76 L 84 76 L 68 76 z M 12.041016 96 C 12.018032 96.004643 12 96.026435 12 96.050781 L 12 111.94922 C 12 111.97692 12.023081 112 12.050781 112 L 16 112 L 16 100.05078 C 16 100.02481 16.019648 100.00255 16.044922 100 C 16.045972 100.00002 16.049931 100 16.050781 100 L 44 100 L 44 96.050781 C 44 96.024813 43.980438 96.002637 43.955078 96 L 43.949219 96 L 36 96 L 31.955078 96 L 16.044922 96 L 12.050781 96 C 12.049931 96 12.045972 96.000021 12.044922 96 C 12.043342 96.000159 12.042548 95.99969 12.041016 96 z M 48 96 L 48 100.04492 C 48.000176 100.04661 48 100.04905 48 100.05078 L 48 112 L 52 112 L 52 100 L 80 100 L 80 96 L 72 96 L 68 96 L 48 96 z M 84 96 L 84 100 L 84 112 L 88 112 L 88 100 L 116 100 L 116 96 L 104 96 L 84 96 z " />
      <path
         id="path24"
         style="display:inline;font-variation-settings:normal;opacity:1;mix-blend-mode:normal;vector-effect:none;fill:#ffffff;fill-opacity:0.394309;stroke:none;stroke-width:0.963442;stroke-linecap:butt;stroke-linejoin:miter;stroke-miterlimit:4;stroke-dasharray:none;stroke-dashoffset:0;stroke-opacity:1;-inkscape-stroke:none;marker:none;paint-order:fill markers stroke;filter:url(#filter25);stop-color:#000000;stop-opacity:1"
         inkscape:label="light"
         d="M 40,16 V 27.949219 C 40,27.976919 39.976919,28 39.949219,28 H 12 v 3.949219 c 0,0.02597 0.01956,0.04814 0.04492,0.05078 h 11.904297 0.0059 H 28 h 15.949219 0.0059 C 43.980438,31.997363 44,31.975188 44,31.949219 V 16.050781 C 44,16.023081 43.976919,16 43.949219,16 Z M 24,36 V 47.949219 C 24,47.976919 23.976919,48 23.949219,48 H 12 v 3.949219 c 0,0.02597 0.01956,0.04814 0.04492,0.05078 H 27.955078 C 27.980438,51.997363 28,51.975188 28,51.949219 V 48 36.050781 c 0,-0.0017 1.76e-4,-0.0042 0,-0.0059 C 27.997363,36.019562 27.975188,36 27.949219,36 Z m 36,0 V 48 H 32 v 4 h 7.949219 0.0059 H 44 64 V 36 Z M 40,56 V 67.949219 C 40,67.976919 39.976919,68 39.949219,68 H 12 v 3.949219 c 0,0.02597 0.01956,0.04814 0.04492,0.05078 h 11.904297 0.0059 H 28 h 15.949219 0.0059 C 43.980438,71.997363 44,71.975188 44,71.949219 V 68 56.050781 c 0,-0.0017 1.76e-4,-0.0042 0,-0.0059 C 43.997363,56.019562 43.975188,56 43.949219,56 Z m 36,0 V 68 H 48 v 4 h 12 4 16 V 56 Z M 24,76 V 87.949219 C 24,87.976919 23.976919,88 23.949219,88 H 12 v 3.949219 c 0,0.02597 0.01956,0.04814 0.04492,0.05078 H 27.955078 C 27.980438,91.997363 28,91.975187 28,91.949219 V 88 76.050781 c 0,-0.0017 1.76e-4,-0.0042 0,-0.0059 C 27.997363,76.019562 27.975188,76 27.949219,76 Z m 36,0 V 88 H 32 v 4 h 7.949219 0.0059 H 44 64 V 88 76 Z m 36,0 V 88 H 68 v 4 h 8 4 20 V 76 Z M 40,96 v 11.94922 c 0,0.0277 -0.02308,0.0508 -0.05078,0.0508 H 12 v 3.94922 c 0,0.0277 0.02308,0.0508 0.05078,0.0508 h 31.898438 c 0.0277,-2e-5 0.05078,-0.0231 0.05078,-0.0508 V 108 96.050781 c 0,-0.0017 1.76e-4,-0.0042 0,-0.0059 C 43.997363,96.019562 43.975188,96 43.949219,96 Z m 36,0 v 12 H 48 v 4 h 32 v -4 -12 z m 36,0 v 12 H 84 v 4 h 32 V 96 Z" />
    </g>
  </g>
</svg>
