<?xml version="1.0" encoding="UTF-8" standalone="no"?>
<!-- Created with Inkscape (http://www.inkscape.org/) -->

<svg
   width="128"
   height="128"
   id="svg2"
   version="1.1"
   inkscape:version="1.3.2 (1:1.3.2+202311252150+091e20ef0f)"
   sodipodi:docname="web.svg"
   inkscape:export-filename="web_48.png"
   inkscape:export-xdpi="36"
   inkscape:export-ydpi="36"
   xmlns:inkscape="http://www.inkscape.org/namespaces/inkscape"
   xmlns:sodipodi="http://sodipodi.sourceforge.net/DTD/sodipodi-0.dtd"
   xmlns:xlink="http://www.w3.org/1999/xlink"
   xmlns="http://www.w3.org/2000/svg"
   xmlns:svg="http://www.w3.org/2000/svg"
   xmlns:rdf="http://www.w3.org/1999/02/22-rdf-syntax-ns#"
   xmlns:cc="http://creativecommons.org/ns#"
   xmlns:dc="http://purl.org/dc/elements/1.1/">
  <defs
     id="defs4">
    <linearGradient
       id="linearGradient3843">
      <stop
         style="stop-color:#f9f9fa;stop-opacity:1;"
         offset="0"
         id="stop3845" />
      <stop
         style="stop-color:#efeff0;stop-opacity:1;"
         offset="1"
         id="stop3847" />
    </linearGradient>
    <filter
       inkscape:collect="always"
       id="filter3784"
       x="-0.014414414"
       y="-0.014414414"
       width="1.0288288"
       height="1.0288288">
      <feGaussianBlur
         inkscape:collect="always"
         stdDeviation="0.74109996"
         id="feGaussianBlur3786" />
    </filter>
    <filter
       inkscape:collect="always"
       id="filter3835"
       x="-0.11912061"
       width="1.2382412"
       y="-0.11871791"
       height="1.2374358">
      <feGaussianBlur
         inkscape:collect="always"
         stdDeviation="5.9436221"
         id="feGaussianBlur3837" />
    </filter>
    <filter
       inkscape:collect="always"
       id="filter3839"
       x="-0.090019872"
       y="-0.090160418"
       width="1.1800397"
       height="1.1803208">
      <feGaussianBlur
         inkscape:collect="always"
         stdDeviation="4.5115428"
         id="feGaussianBlur3841" />
    </filter>
    <linearGradient
       inkscape:collect="always"
       xlink:href="#linearGradient3843"
       id="linearGradient3849"
       x1="14.267717"
       y1="932.53717"
       x2="86.410866"
       y2="1016.1086"
       gradientUnits="userSpaceOnUse"
       gradientTransform="matrix(1.0054909,0,0,1.0020904,-0.75081011,-2.2182688)" />
    <mask
       maskUnits="userSpaceOnUse"
       id="mask3859">
      <rect
         ry="19.796612"
         rx="20.427839"
         y="925.12628"
         x="1.2320045"
         height="123.39314"
         width="123.39314"
         id="rect3861"
         style="color:#000000;fill:#ffffff;fill-opacity:1;stroke:none;stroke-width:0.96400887;marker:none;visibility:visible;display:inline;overflow:visible;enable-background:accumulate" />
    </mask>
    <filter
       height="1.3669613"
       y="-0.18348063"
       width="1.8964618"
       x="-0.44823089"
       id="filter4346"
       inkscape:collect="always">
      <feGaussianBlur
         id="feGaussianBlur4348"
         stdDeviation="1.5342827"
         inkscape:collect="always" />
    </filter>
    <linearGradient
       inkscape:collect="always"
       xlink:href="#linearGradient3834-0-7-118-6-4-8-1-0-8"
       id="linearGradient3969-3-8"
       gradientUnits="userSpaceOnUse"
       gradientTransform="matrix(0.05332926,-0.06954835,0.04828018,0.06296367,-244.25243,118.72095)"
       x1="3328.55"
       y1="2045.2145"
       x2="3088.4167"
       y2="3304.6572" />
    <linearGradient
       id="linearGradient3834-0-7-118-6-4-8-1-0-8">
      <stop
         style="stop-color:#626262;stop-opacity:1;"
         offset="0"
         id="stop3836-1-1-88-7-5-5-7-5-3" />
      <stop
         style="stop-color:#707070;stop-opacity:1;"
         offset="1"
         id="stop3838-0-6-22-3-8-6-8-4-5" />
    </linearGradient>
    <filter
       color-interpolation-filters="sRGB"
       inkscape:collect="always"
       id="filter3822-9-6-4-3-9-7-9-6-6"
       x="-0.059257692"
       y="-0.062157739"
       width="1.1185154"
       height="1.1243155">
      <feGaussianBlur
         inkscape:collect="always"
         stdDeviation="2.8610366"
         id="feGaussianBlur3824-5-7-3-1-6-3-6-4-5" />
    </filter>
    <filter
       color-interpolation-filters="sRGB"
       inkscape:collect="always"
       id="filter3822-2-7-6-8-3-5-6-1-9"
       x="-0.059257279"
       y="-0.064152267"
       width="1.1185146"
       height="1.1283045">
      <feGaussianBlur
         inkscape:collect="always"
         stdDeviation="2.8610366"
         id="feGaussianBlur3824-4-8-9-4-4-3-2-9-2" />
    </filter>
    <mask
       maskUnits="userSpaceOnUse"
       id="mask4348">
      <path
         id="path4350"
         d="M 62.03125,4.0625 C 30.01378,4.0625 4,30.088932 4,62.125 c 0,32.036067 26.01378,58.03125 58.03125,58.03125 32.01747,0 58,-25.995183 58,-58.03125 0,-32.036068 -25.98253,-58.0625 -58,-58.0625 z m -27.375,13.0625 c 0.289039,-0.01302 0.566684,-0.0084 0.84375,0 1.460156,0.04436 2.744555,0.394361 3.71875,1.25 1.448677,1.637705 -1.024568,4.204287 -1.6875,6.03125 -0.971745,2.385524 -0.857062,4.735225 0.0625,7.0625 -0.924492,2.726176 3.035122,2.652392 2.53125,5.40625 -1.786052,2.433683 -0.552527,5.030108 0.375,7.21875 -1.612368,1.238955 -5.043646,1.155883 -4.3125,4.0625 -0.31308,2.89424 1.668977,5.307502 2.21875,8.03125 0.689992,5.842727 -4.584332,1.35593 -6.6875,2.96875 -1.498659,-1.968668 -1.281895,-4.686675 -1.53125,-7.03125 2.297068,-3.767557 -3.524512,-3.033134 -6.125,-2.3125 -2.398372,0.530601 -3.405309,2.998581 -4.46875,4.9375 -0.381333,2.14424 -2.049621,3.762969 -2.375,5.9375 -0.472858,1.935476 0.388037,3.079996 2.125,3.71875 -0.128088,2.108661 0.797413,4.014178 0.46875,6.1875 0.662858,3.017403 5.027618,5.448821 6.71875,4.15625 2.98986,0.336033 5.213933,2.190544 7.8125,3.375 1.572825,1.638948 2.070147,4.144525 1.21875,6.28125 -3.175056,1.701988 -2.739897,5.02187 -2.4375,8.1875 0.672416,3.442554 -0.949062,4.546416 0.21875,6.625 1.681662,1.38861 3.604299,2.63559 5.03125,4.21875 1.499015,1.61286 3.943041,2.64471 5.5625,3.84375 0.105431,2.70763 -3.557471,2.47503 -5.53125,3.25 -17.892873,-8.76634 -30.25,-27.146159 -30.25,-48.40625 0,-18.587002 9.453584,-34.998262 23.78125,-44.6875 0.930194,-0.14107 1.851633,-0.273428 2.71875,-0.3125 z m 58.3125,0.90625 c 13.85129,9.75639 22.90625,25.875376 22.90625,44.09375 0,11.616876 -3.6773,22.351218 -9.9375,31.15625 0.0681,-1.560899 -0.08,-2.983517 -1.90625,-3.46875 -0.64461,-1.520507 -1.59411,-2.688417 -3.3125,-3.21875 -1.813185,-0.955535 -3.898662,-0.882758 -5.875,-0.5 -0.871471,1.250967 -1.290292,2.982973 -2.0625,4.46875 -1.346449,1.547052 -0.299698,3.794296 -0.9375,5.625 -0.447035,1.746223 -0.69607,4.10522 -2.5625,4.9375 l -4.75,0 c -1.440671,0.1307 -2.815277,-0.26007 -4.21875,-0.53125 -2.878915,-0.52145 -1.16015,-4.126431 -1.0625,-6.0625 0.913972,-2.603497 4.082271,-2.419823 6.09375,-3.65625 1.479966,-1.304407 2.21406,-3.27177 3.1875,-4.875 1.808724,-0.448903 0.968084,-3.684448 -0.65625,-1.75 -1.897832,1.113894 -1.141216,4.212856 -3.46875,4.78125 -2.937268,1.525628 -1.052793,-2.703642 -1.875,-4.1875 -2.823362,-0.299224 -0.895092,-2.995439 -1.1875,-4.8125 -1.789585,-0.165385 -3.257869,-0.919938 -4.84375,-1.25 -2.135111,-2.02513 -4.865751,1.459864 -7.09375,-0.46875 -0.496561,-2.382244 -4.247403,-1.734219 -4.03125,-4.1875 1.039942,-1.357604 3.63419,-1.81103 5.4375,-1.84375 2.316072,-0.386679 5.323906,0.91574 7.125,-0.90625 1.362203,-1.635656 1.36697,-4.195007 3.3125,-5.28125 1.6123,0.190181 3.54419,0.646109 5.25,-0.0625 1.539204,-0.706024 3.902997,-0.672312 4.28125,-2.71875 0.91836,-2.658168 -2.045841,-2.847555 -3.625,-3.6875 -2.260997,-0.258333 -1.94258,-2.331278 -1.84375,-4.09375 -0.199468,-2.211568 1.716718,-4.670686 3.875,-2.875 1.497491,1.240803 1.989892,4.575786 4.5625,3.625 1.335662,-0.141979 1.567301,-1.291623 1.40625,-2.375 -0.07801,-2.475416 0.186013,-4.995374 -0.25,-7.4375 -0.933682,-2.256354 -0.265048,-4.815954 -0.46875,-7.21875 -0.161382,-1.606094 0.418309,-5.436356 -2.21875,-4.53125 -2.053008,0.41533 -4.027696,1.655581 -5.25,3.40625 -1.082392,2.454597 -3.663635,3.630206 -5.71875,5.0625 -2.036909,0.495015 -2.236109,3.720784 -4.34375,3.3125 -2.16786,0.110124 -4.397113,0.110423 -6.34375,-1 -1.781717,-0.264518 -5.125497,-0.0069 -4.1875,-2.8125 -0.20571,-2.646062 0.714586,-5.201469 1.59375,-7.65625 1.113752,-1.742882 2.234594,-3.503499 4.25,-4.375 1.134592,-1.87154 3.16434,-2.62437 4.96875,-3.6875 2.263012,-0.843206 4.625728,-1.302201 6.625,-2.65625 1.827904,-0.89069 1.81631,-3.097912 2.75,-4.71875 0.426825,-1.571409 3.174676,-0.367823 4.59375,-0.75 0.662532,-0.130129 1.257108,-0.462596 1.8125,-0.8125 z"
         style="font-size:medium;font-style:normal;font-variant:normal;font-weight:normal;font-stretch:normal;text-indent:0;text-align:start;text-decoration:none;line-height:normal;letter-spacing:normal;word-spacing:normal;text-transform:none;direction:ltr;block-progression:tb;writing-mode:lr-tb;text-anchor:start;baseline-shift:baseline;color:#000000;fill:#ffffff;fill-opacity:1;fill-rule:nonzero;stroke:none;stroke-width:9.3633728;marker:none;visibility:visible;display:inline;overflow:visible;enable-background:accumulate;font-family:Sans;-inkscape-font-specification:Sans"
         inkscape:connector-curvature="0" />
    </mask>
  </defs>
  <sodipodi:namedview
     id="base"
     pagecolor="#ffffff"
     bordercolor="#666666"
     borderopacity="1.0"
     inkscape:pageopacity="0"
     inkscape:pageshadow="2"
     inkscape:zoom="5.6568542"
     inkscape:cx="71.15262"
     inkscape:cy="57.717592"
     inkscape:document-units="px"
     inkscape:current-layer="layer3"
     showgrid="true"
     inkscape:window-width="1868"
     inkscape:window-height="1016"
     inkscape:window-x="52"
     inkscape:window-y="27"
     inkscape:window-maximized="1"
     showguides="true"
     inkscape:guide-bbox="true"
     inkscape:snap-global="false"
     inkscape:showpageshadow="2"
     inkscape:pagecheckerboard="0"
     inkscape:deskcolor="#d1d1d1">
    <inkscape:grid
       type="xygrid"
       id="grid3901"
       empspacing="4"
       visible="true"
       enabled="true"
       snapvisiblegridlinesonly="true"
       dotted="false"
       spacingx="4"
       spacingy="4"
       color="#ff00bf"
       opacity="0.1254902"
       empcolor="#ff00cb"
       empopacity="0.25098039"
       originx="0"
       originy="0"
       units="px" />
    <sodipodi:guide
       orientation="0,1"
       position="82.074894,122.481"
       id="guide3803"
       inkscape:locked="false" />
    <sodipodi:guide
       orientation="1,0"
       position="5.5,70.963216"
       id="guide3805"
       inkscape:locked="false" />
    <sodipodi:guide
       orientation="1,0"
       position="120,22.728432"
       id="guide3807"
       inkscape:locked="false" />
    <sodipodi:guide
       orientation="0,1"
       position="-33.335,8"
       id="guide3811"
       inkscape:locked="false" />
  </sodipodi:namedview>
  <metadata
     id="metadata7">
    <rdf:RDF>
      <cc:Work
         rdf:about="">
        <dc:format>image/svg+xml</dc:format>
        <dc:type
           rdf:resource="http://purl.org/dc/dcmitype/StillImage" />
        <cc:license
           rdf:resource="http://creativecommons.org/licenses/by-sa/4.0/" />
      </cc:Work>
      <cc:License
         rdf:about="http://creativecommons.org/licenses/by-sa/4.0/">
        <cc:permits
           rdf:resource="http://creativecommons.org/ns#Reproduction" />
        <cc:permits
           rdf:resource="http://creativecommons.org/ns#Distribution" />
        <cc:requires
           rdf:resource="http://creativecommons.org/ns#Notice" />
        <cc:requires
           rdf:resource="http://creativecommons.org/ns#Attribution" />
        <cc:permits
           rdf:resource="http://creativecommons.org/ns#DerivativeWorks" />
        <cc:requires
           rdf:resource="http://creativecommons.org/ns#ShareAlike" />
      </cc:License>
    </rdf:RDF>
  </metadata>
  <g
     inkscape:label="base"
     inkscape:groupmode="layer"
     id="layer1"
     transform="translate(0,-924.36218)"
     style="display:none"
     sodipodi:insensitive="true">
    <rect
       ry="19.796612"
       rx="20.427839"
       y="927.12628"
       x="3.2320046"
       height="123.39314"
       width="123.39314"
       id="rect3766"
       style="color:#000000;display:inline;overflow:visible;visibility:visible;fill:#252628;fill-opacity:0.128617;stroke:none;stroke-width:0.964009;marker:none;filter:url(#filter3784);enable-background:accumulate"
       transform="matrix(1.0054909,0,0,1.0020904,-0.75081011,-2.2182688)" />
    <rect
       style="color:#000000;display:inline;overflow:visible;visibility:visible;fill:url(#linearGradient3849);fill-opacity:1;stroke:none;stroke-width:0.964009;marker:none;enable-background:accumulate"
       id="rect2985"
       width="124.07069"
       height="123.65107"
       x="0.48795936"
       y="924.84186"
       rx="20.540009"
       ry="19.837994" />
    <g
       id="g3853"
       mask="url(#mask3859)"
       transform="matrix(1.0054909,0,0,1.0020904,-0.75081011,-2.2182688)">
      <path
         sodipodi:nodetypes="csssscccsssscc"
         inkscape:connector-curvature="0"
         id="rect3788"
         transform="translate(0,924.36218)"
         d="m 111.3125,2 c 1.0638,2.3966046 2.03056,5.049628 1.65625,7.8125 l -10,73.8125 c -1.47238,10.868035 -9.195281,18.23558 -20.40625,19.78125 l -72.53125,10 C 7.534242,113.75052 5.0997184,112.93384 2.875,112.125 c 0.7713464,1.76264 1.7621331,3.38896 3,4.84375 0.010886,0.01 0.020343,0.0216 0.03125,0.0312 3.6235707,3.20066 8.436326,5.15625 13.75,5.15625 h 82.53125 c 11.31702,0 20.4375,-8.81393 20.4375,-19.78125 v -83.8125 c 0,-4.877214 -1.80986,-9.3136525 -4.8125,-12.75 C 115.92993,4.1823291 113.729,2.8665963 111.3125,2 Z"
         style="color:#000000;display:inline;overflow:visible;visibility:visible;fill:#c9c9cf;fill-opacity:0.254019;stroke:none;stroke-width:0.964009;marker:none;filter:url(#filter3835);enable-background:accumulate" />
      <path
         sodipodi:nodetypes="sssccsssscccss"
         inkscape:connector-curvature="0"
         id="rect3796"
         transform="translate(0,924.36218)"
         d="m 23.65625,2.75 c -11.317023,0 -20.4375,8.845177 -20.4375,19.8125 v 83.8125 c 0,4.8505 1.7783223,9.26046 4.75,12.6875 1.8502957,1.61847 4.000429,2.9035 6.375,3.78125 -0.720661,-2.02308 -1.488357,-4.23372 -1.125,-6.46875 l 12,-73.8125 C 26.978647,31.737301 34.451287,24.338652 45.65625,22.75 l 70.53125,-10 c 2.55597,-0.362388 5.0458,0.494454 7.3125,1.34375 -0.82375,-2.321834 -2.0613,-4.4443488 -3.65625,-6.28125 -0.0281,-0.024504 -0.0655,-0.038145 -0.0937,-0.0625 -3.60314,-3.110944 -8.3402,-5 -13.5625,-5 z"
         style="color:#000000;display:inline;overflow:visible;visibility:visible;fill:#ffffff;fill-opacity:1;stroke:none;stroke-width:0.964009;marker:none;filter:url(#filter3839);enable-background:accumulate" />
    </g>
    <rect
       ry="19.837994"
       rx="20.540009"
       y="924.84186"
       x="0.48795936"
       height="123.65107"
       width="124.07069"
       id="rect3851"
       style="color:#000000;display:inline;overflow:visible;visibility:visible;fill:none;stroke:#cbcdd0;stroke-width:1.00379;stroke-linecap:round;stroke-linejoin:round;stroke-miterlimit:4;stroke-dasharray:none;stroke-dashoffset:0;stroke-opacity:1;marker:none;enable-background:accumulate" />
  </g>
  <g
     inkscape:groupmode="layer"
     id="layer2"
     inkscape:label="outline">
    <path
       id="path4363"
       d="M 62.03125,4.0625 C 30.01378,4.0625 4,30.088932 4,62.125 c 0,32.036067 26.01378,58.03125 58.03125,58.03125 32.01747,0 58,-25.995183 58,-58.03125 0,-32.036068 -25.98253,-58.0625 -58,-58.0625 z m -27.375,13.0625 c 0.289039,-0.01302 0.566684,-0.0084 0.84375,0 1.460156,0.04436 2.744555,0.394361 3.71875,1.25 1.448677,1.637705 -1.024568,4.204287 -1.6875,6.03125 -0.971745,2.385524 -0.857062,4.735225 0.0625,7.0625 -0.924492,2.726176 3.035122,2.652392 2.53125,5.40625 -1.786052,2.433683 -0.552527,5.030108 0.375,7.21875 -1.612368,1.238955 -5.043646,1.155883 -4.3125,4.0625 -0.31308,2.89424 1.668977,5.307502 2.21875,8.03125 0.689992,5.842727 -4.584332,1.35593 -6.6875,2.96875 -1.498659,-1.968668 -1.281895,-4.686675 -1.53125,-7.03125 2.297068,-3.767557 -3.524512,-3.033134 -6.125,-2.3125 -2.398372,0.530601 -3.405309,2.998581 -4.46875,4.9375 -0.381333,2.14424 -2.049621,3.762969 -2.375,5.9375 -0.472858,1.935476 0.388037,3.079996 2.125,3.71875 -0.128088,2.108661 0.797413,4.014178 0.46875,6.1875 0.662858,3.017403 5.027618,5.448821 6.71875,4.15625 2.98986,0.336033 5.213933,2.190544 7.8125,3.375 1.572825,1.638948 2.070147,4.144525 1.21875,6.28125 -3.175056,1.701988 -2.739897,5.02187 -2.4375,8.1875 0.672416,3.442554 -0.949062,4.546416 0.21875,6.625 1.681662,1.38861 3.604299,2.63559 5.03125,4.21875 1.499015,1.61286 3.943041,2.64471 5.5625,3.84375 0.105431,2.70763 -3.557471,2.47503 -5.53125,3.25 -17.892873,-8.76634 -30.25,-27.146159 -30.25,-48.40625 0,-18.587002 9.453584,-34.998262 23.78125,-44.6875 0.930194,-0.14107 1.851633,-0.273428 2.71875,-0.3125 z m 58.3125,0.90625 c 13.85129,9.75639 22.90625,25.875376 22.90625,44.09375 0,11.616876 -3.6773,22.351218 -9.9375,31.15625 0.0681,-1.560899 -0.08,-2.983517 -1.90625,-3.46875 -0.64461,-1.520507 -1.59411,-2.688417 -3.3125,-3.21875 -1.813185,-0.955535 -3.898662,-0.882758 -5.875,-0.5 -0.871471,1.250967 -1.290292,2.982973 -2.0625,4.46875 -1.346449,1.547052 -0.299698,3.794296 -0.9375,5.625 -0.447035,1.746223 -0.69607,4.10522 -2.5625,4.9375 l -4.75,0 c -1.440671,0.1307 -2.815277,-0.26007 -4.21875,-0.53125 -2.878915,-0.52145 -1.16015,-4.126431 -1.0625,-6.0625 0.913972,-2.603497 4.082271,-2.419823 6.09375,-3.65625 1.479966,-1.304407 2.21406,-3.27177 3.1875,-4.875 1.808724,-0.448903 0.968084,-3.684448 -0.65625,-1.75 -1.897832,1.113894 -1.141216,4.212856 -3.46875,4.78125 -2.937268,1.525628 -1.052793,-2.703642 -1.875,-4.1875 -2.823362,-0.299224 -0.895092,-2.995439 -1.1875,-4.8125 -1.789585,-0.165385 -3.257869,-0.919938 -4.84375,-1.25 -2.135111,-2.02513 -4.865751,1.459864 -7.09375,-0.46875 -0.496561,-2.382244 -4.247403,-1.734219 -4.03125,-4.1875 1.039942,-1.357604 3.63419,-1.81103 5.4375,-1.84375 2.316072,-0.386679 5.323906,0.91574 7.125,-0.90625 1.362203,-1.635656 1.36697,-4.195007 3.3125,-5.28125 1.6123,0.190181 3.54419,0.646109 5.25,-0.0625 1.539204,-0.706024 3.902997,-0.672312 4.28125,-2.71875 0.91836,-2.658168 -2.045841,-2.847555 -3.625,-3.6875 -2.260997,-0.258333 -1.94258,-2.331278 -1.84375,-4.09375 -0.199468,-2.211568 1.716718,-4.670686 3.875,-2.875 1.497491,1.240803 1.989892,4.575786 4.5625,3.625 1.335662,-0.141979 1.567301,-1.291623 1.40625,-2.375 -0.07801,-2.475416 0.186013,-4.995374 -0.25,-7.4375 -0.933682,-2.256354 -0.265048,-4.815954 -0.46875,-7.21875 -0.161382,-1.606094 0.418309,-5.436356 -2.21875,-4.53125 -2.053008,0.41533 -4.027696,1.655581 -5.25,3.40625 -1.082392,2.454597 -3.663635,3.630206 -5.71875,5.0625 -2.036909,0.495015 -2.236109,3.720784 -4.34375,3.3125 -2.16786,0.110124 -4.397113,0.110423 -6.34375,-1 -1.781717,-0.264518 -5.125497,-0.0069 -4.1875,-2.8125 -0.20571,-2.646062 0.714586,-5.201469 1.59375,-7.65625 1.113752,-1.742882 2.234594,-3.503499 4.25,-4.375 1.134592,-1.87154 3.16434,-2.62437 4.96875,-3.6875 2.263012,-0.843206 4.625728,-1.302201 6.625,-2.65625 1.827904,-0.89069 1.81631,-3.097912 2.75,-4.71875 0.426825,-1.571409 3.174676,-0.367823 4.59375,-0.75 0.662532,-0.130129 1.257108,-0.462596 1.8125,-0.8125 z"
       style="display:inline;font-size:medium;font-style:normal;font-variant:normal;font-weight:normal;font-stretch:normal;text-indent:0;text-align:start;text-decoration:none;line-height:normal;letter-spacing:normal;word-spacing:normal;text-transform:none;direction:ltr;block-progression:tb;writing-mode:lr-tb;text-anchor:start;baseline-shift:baseline;color:#000000;fill:none;stroke:#ffffff;stroke-width:2;stroke-linecap:round;stroke-linejoin:round;stroke-miterlimit:4;stroke-opacity:1;stroke-dasharray:none;stroke-dashoffset:0;marker:none;visibility:visible;overflow:visible;enable-background:accumulate;font-family:Sans;-inkscape-font-specification:Sans"
       inkscape:connector-curvature="0" />
  </g>
  <g
     inkscape:groupmode="layer"
     id="layer3"
     inkscape:label="icon"
     style="display:inline">
    <g
       id="shadow"
       style="display:inline"
       transform="translate(-117.74975,96.443576)" />
    <path
       style="font-size:medium;font-style:normal;font-variant:normal;font-weight:normal;font-stretch:normal;text-indent:0;text-align:start;text-decoration:none;line-height:normal;letter-spacing:normal;word-spacing:normal;text-transform:none;direction:ltr;block-progression:tb;writing-mode:lr-tb;text-anchor:start;baseline-shift:baseline;color:#000000;fill:url(#linearGradient3969-3-8);fill-opacity:1;fill-rule:nonzero;stroke:none;stroke-width:9.3633728;marker:none;visibility:visible;display:inline;overflow:visible;enable-background:accumulate;font-family:Sans;-inkscape-font-specification:Sans"
       d="M 62.03125,4.0625 C 30.01378,4.0625 4,30.088932 4,62.125 c 0,32.036067 26.01378,58.03125 58.03125,58.03125 32.01747,0 58,-25.995183 58,-58.03125 0,-32.036068 -25.98253,-58.0625 -58,-58.0625 z m -27.375,13.0625 c 0.289039,-0.01302 0.566684,-0.0084 0.84375,0 1.460156,0.04436 2.744555,0.394361 3.71875,1.25 1.448677,1.637705 -1.024568,4.204287 -1.6875,6.03125 -0.971745,2.385524 -0.857062,4.735225 0.0625,7.0625 -0.924492,2.726176 3.035122,2.652392 2.53125,5.40625 -1.786052,2.433683 -0.552527,5.030108 0.375,7.21875 -1.612368,1.238955 -5.043646,1.155883 -4.3125,4.0625 -0.31308,2.89424 1.668977,5.307502 2.21875,8.03125 0.689992,5.842727 -4.584332,1.35593 -6.6875,2.96875 -1.498659,-1.968668 -1.281895,-4.686675 -1.53125,-7.03125 2.297068,-3.767557 -3.524512,-3.033134 -6.125,-2.3125 -2.398372,0.530601 -3.405309,2.998581 -4.46875,4.9375 -0.381333,2.14424 -2.049621,3.762969 -2.375,5.9375 -0.472858,1.935476 0.388037,3.079996 2.125,3.71875 -0.128088,2.108661 0.797413,4.014178 0.46875,6.1875 0.662858,3.017403 5.027618,5.448821 6.71875,4.15625 2.98986,0.336033 5.213933,2.190544 7.8125,3.375 1.572825,1.638948 2.070147,4.144525 1.21875,6.28125 -3.175056,1.701988 -2.739897,5.02187 -2.4375,8.1875 0.672416,3.442554 -0.949062,4.546416 0.21875,6.625 1.681662,1.38861 3.604299,2.63559 5.03125,4.21875 1.499015,1.61286 3.943041,2.64471 5.5625,3.84375 0.105431,2.70763 -3.557471,2.47503 -5.53125,3.25 -17.892873,-8.76634 -30.25,-27.146159 -30.25,-48.40625 0,-18.587002 9.453584,-34.998262 23.78125,-44.6875 0.930194,-0.14107 1.851633,-0.273428 2.71875,-0.3125 z m 58.3125,0.90625 c 13.85129,9.75639 22.90625,25.875376 22.90625,44.09375 0,11.616876 -3.6773,22.351218 -9.9375,31.15625 0.0681,-1.560899 -0.08,-2.983517 -1.90625,-3.46875 -0.64461,-1.520507 -1.59411,-2.688417 -3.3125,-3.21875 -1.813185,-0.955535 -3.898662,-0.882758 -5.875,-0.5 -0.871471,1.250967 -1.290292,2.982973 -2.0625,4.46875 -1.346449,1.547052 -0.299698,3.794296 -0.9375,5.625 -0.447035,1.746223 -0.69607,4.10522 -2.5625,4.9375 l -4.75,0 c -1.440671,0.1307 -2.815277,-0.26007 -4.21875,-0.53125 -2.878915,-0.52145 -1.16015,-4.126431 -1.0625,-6.0625 0.913972,-2.603497 4.082271,-2.419823 6.09375,-3.65625 1.479966,-1.304407 2.21406,-3.27177 3.1875,-4.875 1.808724,-0.448903 0.968084,-3.684448 -0.65625,-1.75 -1.897832,1.113894 -1.141216,4.212856 -3.46875,4.78125 -2.937268,1.525628 -1.052793,-2.703642 -1.875,-4.1875 -2.823362,-0.299224 -0.895092,-2.995439 -1.1875,-4.8125 -1.789585,-0.165385 -3.257869,-0.919938 -4.84375,-1.25 -2.135111,-2.02513 -4.865751,1.459864 -7.09375,-0.46875 -0.496561,-2.382244 -4.247403,-1.734219 -4.03125,-4.1875 1.039942,-1.357604 3.63419,-1.81103 5.4375,-1.84375 2.316072,-0.386679 5.323906,0.91574 7.125,-0.90625 1.362203,-1.635656 1.36697,-4.195007 3.3125,-5.28125 1.6123,0.190181 3.54419,0.646109 5.25,-0.0625 1.539204,-0.706024 3.902997,-0.672312 4.28125,-2.71875 0.91836,-2.658168 -2.045841,-2.847555 -3.625,-3.6875 -2.260997,-0.258333 -1.94258,-2.331278 -1.84375,-4.09375 -0.199468,-2.211568 1.716718,-4.670686 3.875,-2.875 1.497491,1.240803 1.989892,4.575786 4.5625,3.625 1.335662,-0.141979 1.567301,-1.291623 1.40625,-2.375 -0.07801,-2.475416 0.186013,-4.995374 -0.25,-7.4375 -0.933682,-2.256354 -0.265048,-4.815954 -0.46875,-7.21875 -0.161382,-1.606094 0.418309,-5.436356 -2.21875,-4.53125 -2.053008,0.41533 -4.027696,1.655581 -5.25,3.40625 -1.082392,2.454597 -3.663635,3.630206 -5.71875,5.0625 -2.036909,0.495015 -2.236109,3.720784 -4.34375,3.3125 -2.16786,0.110124 -4.397113,0.110423 -6.34375,-1 -1.781717,-0.264518 -5.125497,-0.0069 -4.1875,-2.8125 -0.20571,-2.646062 0.714586,-5.201469 1.59375,-7.65625 1.113752,-1.742882 2.234594,-3.503499 4.25,-4.375 1.134592,-1.87154 3.16434,-2.62437 4.96875,-3.6875 2.263012,-0.843206 4.625728,-1.302201 6.625,-2.65625 1.827904,-0.89069 1.81631,-3.097912 2.75,-4.71875 0.426825,-1.571409 3.174676,-0.367823 4.59375,-0.75 0.662532,-0.130129 1.257108,-0.462596 1.8125,-0.8125 z"
       id="path3383"
       inkscape:connector-curvature="0" />
    <path
       inkscape:connector-curvature="0"
       transform="matrix(0.9338322,0,0,0.93538225,2.2101079,2.2364904)"
       d="m 13.688099,56.173594 c -0.09905,2.590643 -1.279917,4.651119 -2.635862,4.599277 -1.3559446,-0.05184 -2.3760333,-2.196471 -2.2769831,-4.787114 0.09905,-2.590643 1.2799161,-4.651118 2.6358611,-4.599275 1.355945,0.05184 2.376034,2.196469 2.276984,4.787112 z m 2.92034,9.52404 c 0,3.177821 -1.840191,5.756922 -4.107569,5.756922 -2.267378,0 -4.1075687,-2.579101 -4.1075687,-5.756922 0,-3.177821 1.8401907,-5.756922 4.1075687,-5.756922 2.267378,0 4.107569,2.579101 4.107569,5.756922 z"
       style="fill:#ffffff;fill-opacity:0.4950166;fill-rule:nonzero;stroke:none;stroke-width:2.80865192;marker:none;visibility:visible;display:inline;overflow:visible;filter:url(#filter4346);enable-background:accumulate"
       id="path2768" />
    <g
       id="g4342"
       mask="url(#mask4348)">
      <path
         sodipodi:nodetypes="sscscccccscscccccccccccccccccccsccccsccsccccccccccccccccsccccccccscccccsccccccccccscccccccscccccccccsccccssccccccccccccccccccccccccscccccc"
         inkscape:connector-curvature="0"
         id="path4239"
         d="M 62.03125,4.0625 C 30.01378,4.0625 4,30.088932 4,62.125 4,79.144161 11.347861,94.44494 23.03125,105.0625 13.695527,94.763013 8,81.110252 8,66.125 c 0,-1.342185 0.066399,-2.680384 0.15625,-4 0.00283,-0.04158 -0.00292,-0.08344 0,-0.125 0.042073,-18.535815 9.485555,-34.894883 23.78125,-44.5625 0.930194,-0.14107 1.851633,-0.273428 2.71875,-0.3125 0.09635,-0.0043 0.187035,9.35e-4 0.28125,0 8.993683,-5.731227 19.654954,-9.0625 31.09375,-9.0625 14.976625,0 28.643408,5.690598 38.9375,15.03125 C 94.356709,11.404225 79.040531,4.0625 62.03125,4.0625 z M 39.625,18.78125 c -0.514769,1.136727 -1.741956,4.655497 -2.09375,5.625 -0.971745,2.385524 -0.857062,4.735225 0.0625,7.0625 -0.924492,2.726176 3.035122,2.652392 2.53125,5.40625 -1.786052,2.433683 -0.552527,5.030108 0.375,7.21875 -1.612368,1.238955 -5.043646,1.155883 -4.3125,4.0625 -0.31308,2.89424 1.668977,5.307502 2.21875,8.03125 0.469777,3.977985 -1.823471,3.194629 -4,2.78125 0.475275,0.09862 -1.868086,-0.703049 -2.677531,0.161458 l 3.990031,4.026042 c 2.103168,-1.61282 7.377492,2.873977 6.6875,-2.96875 -0.549773,-2.723748 -2.53183,-5.13701 -2.21875,-8.03125 -0.731146,-2.906617 2.700132,-2.823545 4.3125,-4.0625 -0.927527,-2.188642 -2.161052,-4.785067 -0.375,-7.21875 0.503872,-2.753858 -3.455742,-2.680074 -2.53125,-5.40625 -0.919562,-2.327275 -1.034245,-4.676976 -0.0625,-7.0625 0.662932,-1.826963 3.136177,-4.393545 1.6875,-6.03125 -1.542871,-1.771327 -1.932166,-2.106178 -3.59375,-3.59375 z m 62.3125,7.1875 c 8.66059,9.564517 13.9375,22.247313 13.9375,36.15625 0,11.035354 -3.30143,21.267238 -9,29.8125 0.48786,0.530157 0.85243,1.158349 1.15625,1.875 0.91313,0.242616 1.39946,0.732329 1.65625,1.34375 5.77505,-8.32193 9.43659,-18.203821 10.1875,-28.90625 1e-4,-0.04206 0,-0.08292 0,-0.125 0,-15.941077 -6.92504,-30.285877 -17.9375,-40.15625 z m -8.875,8.59375 c -0.112187,-0.0083 -0.243139,0.01131 -0.375,0.03125 -0.140652,0.02127 -0.303934,0.06843 -0.46875,0.125 -2.053008,0.41533 -4.027696,1.655581 -5.25,3.40625 -1.082392,2.454597 -3.663635,3.630206 -5.71875,5.0625 -2.036909,0.495015 -2.236109,3.720784 -4.34375,3.3125 -1.66993,0.08483 -3.383204,0.09676 -4.96875,-0.40625 L 70.376459,45.275619 66.625,44.625 l 3.75,3.65625 0.03125,0.03125 c 0.657169,1.082544 2.835552,0.991426 4.15625,1.1875 1.946637,1.110423 4.17589,1.110124 6.34375,1 2.107641,0.408284 2.306841,-2.817485 4.34375,-3.3125 2.055115,-1.432294 4.636358,-2.607903 5.71875,-5.0625 0.859734,-1.231371 2.099121,-2.19561 3.46875,-2.8125 -0.0016,-0.02071 0.0018,-0.04181 0,-0.0625 -0.14184,-1.411606 0.307806,-4.563729 -1.375,-4.6875 z M 27.75,49.21875 c -1.283121,0.03598 -2.712317,0.323512 -3.6875,0.59375 -2.398372,0.530601 -3.405309,2.998581 -4.46875,4.9375 -0.381333,2.14424 -2.049621,3.762969 -2.375,5.9375 -0.472858,1.935476 0.388037,3.079996 2.125,3.71875 -0.128088,2.108661 0.797413,4.014178 0.46875,6.1875 0.416645,1.896615 2.303981,3.56444 4.0625,4.21875 -0.02044,-0.07275 -0.04636,-0.14526 -0.0625,-0.21875 0.328663,-2.173322 -0.596838,-4.078839 -0.46875,-6.1875 l -2.214981,-2.250625 c -0.305436,-0.310351 -0.04472,-0.916759 0.08998,-1.468125 0.325379,-2.174531 1.993667,-3.79326 2.375,-5.9375 1.063441,-1.938919 2.070378,-4.406899 4.46875,-4.9375 0.610288,-0.16912 1.400224,-0.325229 2.21875,-0.4375 -0.02647,-0.420863 -0.05074,-0.845595 -0.09375,-1.25 1.435668,-2.354723 -0.298965,-2.966216 -2.4375,-2.90625 z m 64,6.8125 c 0.319713,0.251896 0.684926,0.401857 1.125,0.40625 -0.393821,-0.257965 -0.765732,-0.395756 -1.125,-0.40625 z m -6.09375,2.90625 c 1.385578,1.364417 2.771377,2.728624 4.15625,4.09375 0.215817,0.238835 0.495804,0.425651 0.90625,0.53125 0.02245,-0.07825 0.04674,-0.164732 0.0625,-0.25 0.341003,-0.987025 0.143237,-1.627004 -0.3125,-2.09375 L 89.4375,60.25 z M 74.8125,78.125 c -1.77318,0.0354 -3.735251,1.633961 -5.40625,0.1875 -0.0072,-0.03461 -0.02268,-0.0604 -0.03125,-0.09375 -0.1097,2.339551 3.541339,1.743411 4.03125,4.09375 2.227999,1.928614 4.958639,-1.55638 7.09375,0.46875 0.166394,0.03463 0.335688,0.08219 0.5,0.125 0.108397,-0.919864 0.485266,-1.9956 0.34375,-2.875 C 79.554165,79.865865 78.085881,79.111312 76.5,78.78125 75.966222,78.274968 75.40356,78.1132 74.8125,78.125 z m -40.28125,0.1875 c 0.291061,1.181729 1.494381,4.931445 1.03125,6.09375 -3.175056,1.701988 -2.739897,5.02187 -2.4375,8.1875 0.672416,3.442554 -0.949062,4.546416 0.21875,6.625 1.176126,0.97117 2.465142,1.87893 3.625,2.875 -0.226355,-1.47339 0.69889,-2.721862 0.15625,-5.5 -0.302397,-3.16563 -0.737556,-6.485512 2.4375,-8.1875 0.851397,-2.136725 0.354075,-4.642302 -1.21875,-6.28125 -0.877372,-0.399916 -2.976622,-3.03155 -3.8125,-3.8125 z m 54.15625,5.34375 c -0.237161,0.05164 -0.507937,0.231041 -0.8125,0.59375 -1.298242,1.040038 -1.635156,5.083119 -4.921875,4.984375 l 2.4375,1.609375 C 86.590337,90.027278 87.948421,87.04631 88.53125,86 c 1.469588,-0.364734 1.183948,-2.567534 0.15625,-2.34375 z m 8.40625,2.1875 c -0.751708,0.01847 -1.508873,0.106466 -2.25,0.25 -0.560388,0.804417 -0.943381,1.803643 -1.34375,2.8125 -0.03038,0.179605 -0.08893,0.340101 -0.1875,0.5 -0.01709,0.02772 -0.01198,0.06719 -0.03125,0.09375 -0.0053,0.01271 -0.02592,0.01855 -0.03125,0.03125 -0.145738,0.347046 -0.296889,0.700579 -0.46875,1.03125 -1.346449,1.547052 -0.299698,3.794296 -0.9375,5.625 -0.447035,1.746223 -0.69607,4.10522 -2.5625,4.9375 l -4.75,0 c -0.218728,0.0199 -0.441095,0.009 -0.65625,0 -1.71972,0.0721 -3.169375,-0.54714 -4.75,-1.125 1.382632,1.37276 2.826906,2.80266 4.1875,4.15625 l 0.15625,0.15625 0,-0.0625 c 0.226666,0.14974 0.488236,0.27936 0.84375,0.34375 1.403473,0.27118 2.778079,0.66195 4.21875,0.53125 l 4.75,0 c 1.86643,-0.83228 2.115465,-3.19128 2.5625,-4.9375 0.637802,-1.830704 -0.408949,-4.077948 0.9375,-5.625 0.772208,-1.485777 1.191029,-3.217783 2.0625,-4.46875 1.97634,-0.382758 4.06181,-0.455535 5.875,0.5 0.31981,0.0987 0.60546,0.202718 0.875,0.34375 -0.2785,-0.507194 -0.76025,-0.911844 -1.5625,-1.125 -0.64461,-1.520507 -1.59411,-2.688417 -3.3125,-3.21875 -1.133241,-0.597209 -2.372154,-0.780786 -3.625,-0.75 z M 26.125,102.25 c 4.580207,5.04912 10.096608,9.25118 16.28125,12.28125 1.973779,-0.77497 5.636681,-0.54237 5.53125,-3.25 -1.224808,-0.90684 -2.556367,-2.90399 -3.958947,-3.94324 -0.111116,2.27864 -3.968608,2.56358 -5.572303,3.19324 C 33.933032,108.33966 29.799666,105.53806 26.125,102.25 z"
         style="font-size:medium;font-style:normal;font-variant:normal;font-weight:normal;font-stretch:normal;text-indent:0;text-align:start;text-decoration:none;line-height:normal;letter-spacing:normal;word-spacing:normal;text-transform:none;direction:ltr;block-progression:tb;writing-mode:lr-tb;text-anchor:start;baseline-shift:baseline;color:#000000;fill:#141414;fill-opacity:0.73170734;fill-rule:nonzero;stroke:none;stroke-width:1.27762282;marker:none;visibility:visible;display:inline;overflow:visible;filter:url(#filter3822-9-6-4-3-9-7-9-6-6);enable-background:accumulate;font-family:Sans;-inkscape-font-specification:Sans" />
      <path
         sodipodi:nodetypes="ccccscccccccccccccccccccccccccccsccccscssccsccccccccccccsccccccccsscccccsccccccccccccccccccccccccccccccccccccsccccccccccccccccc"
         inkscape:connector-curvature="0"
         id="path4306"
         d="M 30.9375,13.125 C 15.845552,22.742349 5.4818205,39.127671 4.15625,58 c -0.00292,0.04156 0.00283,0.08342 0,0.125 0,15.888821 6.887311,30.170531 17.84375,40.03125 C 13.390461,88.61103 8.15625,75.981227 8.15625,62.125 c 0,-18.587002 9.453584,-34.998262 23.78125,-44.6875 0.930194,-0.14107 1.851633,-0.273428 2.71875,-0.3125 1.638543,0.361721 3.144339,0.989573 4.8125,1.5 -1.409675,-1.387646 -2.992624,-2.781173 -4.25,-4.25 -0.974195,-0.855639 -2.258594,-1.20564 -3.71875,-1.25 -0.184711,-0.0056 -0.37407,-0.0019 -0.5625,0 z m 58.03125,0.90625 c -0.555392,0.349904 -1.149968,0.682371 -1.8125,0.8125 -1.419074,0.382177 -4.166925,-0.821409 -4.59375,0.75 -0.93369,1.620838 -0.922096,3.82806 -2.75,4.71875 -1.999272,1.354049 -4.361988,1.813044 -6.625,2.65625 -1.80441,1.06313 -3.834158,1.81596 -4.96875,3.6875 -2.015406,0.871501 -3.136248,2.632118 -4.25,4.375 -0.879164,2.454781 -1.79946,5.010188 -1.59375,7.65625 -0.271018,0.810629 -0.175247,1.364921 0.125,1.75 1.344529,1.368158 2.756016,2.796436 4.125,4.1875 0.244602,-1.352123 0.0238,-2.583232 -0.21875,-3.90625 0.216226,-1.945924 0.903896,-3.848562 1.5625,-5.6875 1.113752,-1.742882 2.234594,-3.503499 4.25,-4.375 1.134592,-1.87154 3.16434,-2.62437 4.96875,-3.6875 2.263012,-0.843206 4.625728,-1.302201 6.625,-2.65625 1.827904,-0.89069 1.81631,-3.097912 2.75,-4.71875 0.426825,-1.571409 3.174676,-0.367823 4.59375,-0.75 0.662532,-0.130129 1.257108,-0.462596 1.8125,-0.8125 1.719403,1.21109 3.374056,2.507232 4.9375,3.90625 -2.675864,-2.95034 -5.673082,-5.606902 -8.9375,-7.90625 z m 12.0625,5.125 c 9.32852,10.306782 15,23.983426 15,38.96875 0,1.342185 -0.0665,2.680489 -0.15625,4 0,0.04208 1e-4,0.08294 0,0.125 -0.0265,11.56841 -3.69998,22.258114 -9.9375,31.03125 0.034,-0.78045 0.007,-1.513579 -0.25,-2.125 -10.475803,15.09577 -27.908764,25 -47.65625,25 -14.976553,0 -28.636146,-5.69795 -38.9375,-15.03125 10.620309,11.68126 25.928219,19.03125 42.9375,19.03125 32.01747,0 58,-25.995183 58,-58.03125 0,-17.019161 -7.32488,-32.342922 -19,-42.96875 z M 93.0625,34.5625 c -0.112187,-0.0083 -0.243139,0.01131 -0.375,0.03125 -0.140652,0.02127 -0.303934,0.06843 -0.46875,0.125 -0.60898,0.123199 -1.203645,0.333593 -1.78125,0.59375 0.187237,2.38475 -0.456893,4.919324 0.46875,7.15625 0.436013,2.442126 0.17199,4.962084 0.25,7.4375 0.161051,1.083377 -0.07059,2.233021 -1.40625,2.375 -0.321576,0.118848 -0.612404,0.158871 -0.875,0.15625 0.102799,0.06734 0.208363,0.132108 0.3125,0.21875 1.497491,1.240803 1.989892,4.575786 4.5625,3.625 1.335662,-0.141979 1.567301,-1.291623 1.40625,-2.375 -0.07801,-2.475416 0.186013,-4.995374 -0.25,-7.4375 -0.933682,-2.256354 -0.265048,-4.815954 -0.46875,-7.21875 -0.14184,-1.411606 0.307806,-4.563729 -1.375,-4.6875 z m -9.40625,13.46875 c -1.440102,0.03774 -2.493351,1.841324 -2.34375,3.5 0.0695,1.268972 -0.03842,2.91474 0.4375,3.53125 1.312371,1.358629 2.700545,2.663501 3.90625,3.84375 -0.05989,-0.474053 -0.533514,-0.980852 -0.25,-1.34375 l -0.03125,-1.25 c -0.02842,-0.272163 -0.06648,-0.710216 -0.0625,-0.78125 -0.152973,-1.696064 0.946924,-3.543538 2.4375,-3.5 -1.015713,-0.800261 -1.565894,-2.549224 -2.5625,-3.375 -0.53957,-0.448921 -1.051216,-0.63758 -1.53125,-0.625 z M 27.75,49.21875 c -0.48012,0.01346 -0.979348,0.08912 -1.46875,0.15625 0.126991,2.019131 0.197338,4.152148 1.4375,5.78125 0.878124,0.883102 2.792698,2.761224 4,3.9375 -0.431842,-0.794306 -1.201278,-8.165131 -1.375,-5.125 C 30.301942,53.346694 30.250537,52.717709 30.1875,52.125 31.623168,49.770277 29.888535,49.158784 27.75,49.21875 z M 86.71875,59.5625 c -0.516384,1.799738 -2.743679,1.792144 -4.21875,2.46875 -1.70581,0.708609 -3.6377,0.252681 -5.25,0.0625 -1.94553,1.086243 -1.950297,3.645594 -3.3125,5.28125 -1.801094,1.82199 -4.808928,0.519571 -7.125,0.90625 -1.80331,0.03272 -4.397558,0.486146 -5.4375,1.84375 -0.04088,0.464005 0.05637,0.840906 0.25,1.125 l 4.15625,4.1875 0.0625,-1.78125 c 1.21789,-0.996725 3.390854,-1.34637 4.96875,-1.375 2.316072,-0.386679 5.323906,0.91574 7.125,-0.90625 1.362203,-1.635656 1.36697,-4.195007 3.3125,-5.28125 1.6123,0.190181 3.54419,0.646109 5.25,-0.0625 1.539204,-0.706024 3.902997,-0.672312 4.28125,-2.71875 0.91836,-2.658168 -2.045841,-2.847555 -3.625,-3.6875 -0.153494,-0.01754 -0.306906,-0.0289 -0.4375,-0.0625 z M 22.53125,70.75 c -0.628156,0.480114 -1.617069,0.449159 -2.65625,0.0625 0.818954,2.914249 5.006306,5.19859 6.65625,3.9375 1.980373,0.222576 5.703956,3.112263 7.96875,3.46875 C 34.255989,77.228045 31.061012,74.872417 30.34375,74.125 27.745183,72.940544 25.52111,71.086033 22.53125,70.75 z M 77,78.90625 c -0.115579,0.980806 0.07431,1.783091 1.53125,1.9375 0.678321,1.224183 -0.471178,4.311682 0.75,4.5 l 2,1.5625 c -2.013858,1.197876 -5.126066,1.046537 -6.03125,3.625 -0.08038,1.593715 -1.253924,4.295401 -0.0625,5.5 0.910754,1.105026 2.703104,2.753492 3.9375,3.96875 -0.387426,-2.120477 0.12363,-3.413868 0.125,-5.46875 0.913972,-2.603497 4.082271,-2.419823 6.09375,-3.65625 1.479966,-1.304407 2.21406,-3.27177 3.1875,-4.875 0.321846,-0.07988 0.554166,-0.257233 0.71875,-0.46875 0.0053,-0.0127 0.02594,-0.01854 0.03125,-0.03125 0.01927,-0.02656 0.01416,-0.06603 0.03125,-0.09375 0.06909,-0.167231 0.120902,-0.332185 0.1875,-0.5 0.11479,-0.678736 -0.20926,-1.381357 -0.8125,-1.25 -0.237161,0.05164 -0.507937,0.231041 -0.8125,0.59375 -1.897832,1.113894 -1.141216,4.212856 -3.46875,4.78125 -2.424147,1.259111 -1.545774,-1.413194 -1.625,-3.21875 0.120292,-1.316016 -1.057474,-1.429201 -1.59375,-1.65625 -0.598903,-0.981923 0.371952,-2.784604 0.15625,-4.125 C 79.741932,79.883218 78.401724,79.271424 77,78.90625 z m 24.59375,8.03125 c 0.35549,0.647394 0.38193,1.468532 0.34375,2.34375 0.31338,-0.440765 1.82471,0.950303 2.125,0.5 -0.0196,-0.598478 -1.65955,-2.783389 -2.46875,-2.84375 z m -68.625,11.15625 c 0.05413,0.352372 0.149612,0.723833 0.375,1.125 1.681662,1.38861 3.604299,2.63559 5.03125,4.21875 0.3653,0.39304 3.704318,3.69639 5.40625,3.78125 0.209218,-0.32697 -3.823982,-3.42982 -3.84375,-3.9375 -1.619459,-1.19904 -4.063485,-2.23089 -5.5625,-3.84375 -0.428965,-0.475925 -0.907707,-0.915606 -1.40625,-1.34375 z"
         style="font-size:medium;font-style:normal;font-variant:normal;font-weight:normal;font-stretch:normal;text-indent:0;text-align:start;text-decoration:none;line-height:normal;letter-spacing:normal;word-spacing:normal;text-transform:none;direction:ltr;block-progression:tb;writing-mode:lr-tb;text-anchor:start;baseline-shift:baseline;color:#000000;fill:#ffffff;fill-opacity:0.39430895;fill-rule:nonzero;stroke:none;stroke-width:1.27762282;marker:none;visibility:visible;display:inline;overflow:visible;filter:url(#filter3822-2-7-6-8-3-5-6-1-9);enable-background:accumulate;font-family:Sans;-inkscape-font-specification:Sans" />
    </g>
  </g>
</svg>
