<?xml version="1.0" encoding="UTF-8" standalone="no"?>
<!-- Created with Inkscape (http://www.inkscape.org/) -->
<svg
   xmlns:dc="http://purl.org/dc/elements/1.1/"
   xmlns:cc="http://creativecommons.org/ns#"
   xmlns:rdf="http://www.w3.org/1999/02/22-rdf-syntax-ns#"
   xmlns:svg="http://www.w3.org/2000/svg"
   xmlns="http://www.w3.org/2000/svg"
   xmlns:xlink="http://www.w3.org/1999/xlink"
   xmlns:sodipodi="http://sodipodi.sourceforge.net/DTD/sodipodi-0.dtd"
   xmlns:inkscape="http://www.inkscape.org/namespaces/inkscape"
   id="svg2"
   sodipodi:version="0.32"
   inkscape:version="0.46"
   width="128"
   height="128"
   version="1.0"
   sodipodi:docname="action.svg"
   inkscape:output_extension="org.inkscape.output.svg.inkscape">
  <metadata
     id="metadata7">
    <rdf:RDF>
      <cc:Work
         rdf:about="">
        <dc:format>image/svg+xml</dc:format>
        <dc:type
           rdf:resource="http://purl.org/dc/dcmitype/StillImage" />
      </cc:Work>
    </rdf:RDF>
  </metadata>
  <defs
     id="defs5">
    <linearGradient
       inkscape:collect="always"
       id="linearGradient3560">
      <stop
         style="stop-color:#2a2a2a;stop-opacity:1;"
         offset="0"
         id="stop3562" />
      <stop
         style="stop-color:#252525;stop-opacity:1"
         offset="1"
         id="stop3564" />
    </linearGradient>
    <filter
       inkscape:collect="always"
       id="filter3356"
       x="-0.031505635"
       width="1.0630113"
       y="-0.7222061"
       height="2.4444122">
      <feGaussianBlur
         inkscape:collect="always"
         stdDeviation="0.97798742"
         id="feGaussianBlur3358" />
    </filter>
    <filter
       inkscape:collect="always"
       id="filter3471">
      <feGaussianBlur
         inkscape:collect="always"
         stdDeviation="0.59478134"
         id="feGaussianBlur3473" />
    </filter>
    <filter
       inkscape:collect="always"
       id="filter3556">
      <feGaussianBlur
         inkscape:collect="always"
         stdDeviation="0.61041842"
         id="feGaussianBlur3558" />
    </filter>
    <linearGradient
       inkscape:collect="always"
       xlink:href="#linearGradient3560"
       id="linearGradient3566"
       x1="32.704414"
       y1="33.977188"
       x2="101.02841"
       y2="99.227188"
       gradientUnits="userSpaceOnUse"
       gradientTransform="translate(-6.0104076,0.3535534)" />
  </defs>
  <sodipodi:namedview
     inkscape:window-height="825"
     inkscape:window-width="1440"
     inkscape:pageshadow="2"
     inkscape:pageopacity="0.0"
     guidetolerance="10.0"
     gridtolerance="10.0"
     objecttolerance="10.0"
     borderopacity="1.0"
     bordercolor="#666666"
     pagecolor="#ffffff"
     id="base"
     showgrid="false"
     inkscape:zoom="4"
     inkscape:cx="51.574795"
     inkscape:cy="53.991495"
     inkscape:window-x="0"
     inkscape:window-y="25"
     inkscape:current-layer="layer2" />
  <g
     inkscape:groupmode="layer"
     id="layer3"
     inkscape:label="shadow">
    <path
       sodipodi:type="arc"
       style="opacity:1;fill:#2d1010;fill-opacity:0.13289035;fill-rule:evenodd;stroke:none;stroke-width:5;stroke-linecap:butt;stroke-linejoin:miter;marker:none;marker-start:none;marker-mid:none;marker-end:none;stroke-miterlimit:4;stroke-dasharray:none;stroke-dashoffset:0;stroke-opacity:1;visibility:visible;display:inline;overflow:visible;filter:url(#filter3356);enable-background:accumulate"
       id="path3290"
       sodipodi:cx="76"
       sodipodi:cy="120.625"
       sodipodi:rx="37.25"
       sodipodi:ry="1.625"
       d="M 113.25,120.625 A 37.25,1.625 0 1 1 38.75,120.625 A 37.25,1.625 0 1 1 113.25,120.625 z"
       transform="matrix(1.1744966,0,0,1,-12.772153,2.9571068)" />
  </g>
  <g
     inkscape:groupmode="layer"
     id="layer2"
     inkscape:label="main">
    <path
       sodipodi:nodetypes="ccccccccccsssccssssssssssccccccccsccccccccccccccccccccccccccccccccsssccssssssssccccccccccccccsscccccscccccccccc"
       id="path3360"
       d="M 32.562981,115.44562 C 32.513393,115.18949 32.887313,114.62148 33.471043,114.06619 C 35.249871,112.52504 38.216917,112.81642 40.433323,112.90921 L 40.842822,110.98354 C 40.241327,110.90619 40.855123,111.02011 40.430692,110.626 C 40.665197,108.11999 40.794644,96.162033 43.142218,89.421148 C 43.967613,88.027941 55.409535,77.309154 55.661676,77.464988 C 55.478655,76.185904 55.396424,75.228228 55.180813,74.757091 C 55.020445,74.772089 54.894268,74.773944 54.762045,74.75316 C 52.466526,66.696567 52.88039,58.351131 52.221449,49.385837 C 51.903834,49.385837 50.589638,50.624208 48.19905,52.652591 C 44.325668,55.939101 42.469588,57.010866 41.152395,56.721561 C 40.053978,56.480306 38.149847,55.525194 37.106405,54.773436 C 34.767573,53.0884 32.308729,51.538415 29.991416,49.824417 C 30.017297,49.680878 30.096718,49.527365 30.221855,49.306753 C 29.963056,49.016421 28.761973,48.615545 27.795758,48.414023 C 26.986318,48.2452 26.032333,47.954093 25.675793,47.767123 C 25.319248,47.580151 24.616125,47.349996 24.113293,47.255663 C 23.244,47.092583 23.19905,47.035541 23.19905,46.095481 C 23.19905,45.551713 23.163715,44.966843 23.280118,44.885837 C 23.510326,44.725633 23.687768,43.882419 23.698991,43.608648 C 23.709494,43.352455 24.140196,42.906091 24.482638,42.582131 C 25.103483,41.994803 25.107823,41.994438 26.001266,42.455476 C 26.494076,42.709776 27.459773,42.974831 28.147273,43.044491 C 29.256441,43.156876 29.439522,43.261413 29.772273,43.972326 C 30.034576,44.532728 30.842129,45.463864 31.362091,45.706016 C 31.412491,45.633283 31.519267,45.520562 31.647273,45.441516 C 35.085283,46.990597 38.017066,49.410405 41.251131,51.296148 C 44.723978,48.425752 47.794958,45.099006 51.536006,42.525693 C 52.781721,41.855423 52.99269,41.422611 53.392053,40.247697 C 53.598302,40.20119 53.665605,40.169214 53.798024,40.110103 C 53.783606,38.18626 53.058647,36.38646 52.322253,34.643959 C 50.990256,34.977612 49.121868,35.619508 47.392378,35.884676 C 47.000756,35.734398 44.126587,33.009514 43.443757,31.774701 C 43.215647,31.362201 43.123006,30.124488 42.643713,29.456351 C 42.171155,29.148939 41.13716,28.875599 41.043069,28.595106 C 40.706241,27.334298 42.342022,21.965317 42.169685,21.085431 C 42.078871,20.661325 41.204078,19.909442 41.036788,19.396961 C 40.630647,18.05238 40.490893,16.488454 40.471147,15.104857 C 40.346149,15.18211 40.320186,15.18531 40.064321,15.253594 C 40.129809,14.139227 40.244527,13.079139 40.701121,11.929296 C 40.575742,11.788961 40.364721,11.789417 40.202415,11.721928 C 41.435856,8.1918065 44.498158,5.706793 47.671393,3.9481762 C 47.637835,3.7684768 47.602971,3.8723167 47.050957,3.7172521 C 47.913157,3.3854108 50.151741,3.3351017 51.61985,3.69264 C 52.576956,3.56612 53.628656,3.317978 54.397273,3.4338 L 54.128459,3.8255078 C 54.90508,3.9886137 58.719443,4.5401806 59.229748,5.41185 C 58.530334,5.5561614 58.028015,5.3376162 57.87123,5.5816441 C 59.41757,6.5131719 63.246544,7.2780456 65.023173,10.671148 L 62.64853,11.952008 C 65.065321,12.689176 67.213247,13.592784 67.89988,15.401002 C 66.292053,15.452242 65.066704,16.268436 64.040863,17.483648 C 65.736081,19.144545 67.52022,20.494216 69.547078,20.994371 C 68.152924,21.666732 66.510238,21.93523 64.450412,21.525873 C 65.814409,22.524663 67.384701,23.5097 67.552064,24.588266 C 65.887833,23.81063 64.621069,24.722227 63.272273,25.285188 C 64.476081,26.301036 66.425979,27.018448 66.103725,28.644721 C 64.438161,27.866649 63.65184,28.651674 62.698463,29.139713 C 62.288003,30.768978 63.839942,31.662343 64.625713,32.843022 C 63.278303,32.866613 61.930892,32.397262 60.583482,31.33772 C 61.394267,32.123383 61.389749,32.909045 61.387368,33.694708 C 59.59251,33.547928 56.748572,31.983054 56.76773,32.823953 C 57.278994,35.010381 57.734369,37.237552 58.504374,39.271968 L 58.835381,39.192136 C 60.140154,40.790565 60.742477,42.479405 61.503551,44.300859 C 64.697232,45.7213 68.534644,47.79496 71.520924,49.589718 C 72.099995,49.937741 72.937157,50.558779 73.324166,51.071988 C 73.711175,51.585196 74.223108,52.076921 74.363439,52.26121 C 76.428825,54.97357 78.256504,57.918748 80.211994,60.734394 L 79.688713,61.208699 C 80.33491,62.218821 81.075052,63.291228 81.875011,63.630095 C 82.247889,63.788048 82.536461,64.50197 83.098199,65.567595 C 84.066701,67.404855 83.689384,68.023938 83.280056,68.438803 C 83.042649,68.679428 82.648237,68.832109 82.430607,68.832109 C 82.212974,68.832109 81.864829,69.287783 81.818994,69.412598 C 81.773166,69.537408 81.309773,69.783481 80.897273,69.824381 C 80.309323,69.882678 79.923968,69.685098 79.113763,68.909946 C 77.906016,67.754451 77.509944,66.742778 77.702698,65.305711 C 77.823491,64.405149 78.174793,64.350016 77.242294,63.559882 C 77.163915,63.605369 77.10396,63.679938 76.924303,63.698937 C 74.962231,61.739876 73.14236,58.984842 71.449253,56.795323 C 71.283156,56.588618 70.775941,55.946473 70.322091,55.368333 C 68.402244,53.315239 65.659208,52.375677 63.374158,50.813854 C 64.834228,57.14712 69.421693,69.355146 71.133044,71.662973 C 70.373359,72.16126 68.993004,72.642131 68.337084,72.737296 C 69.062589,75.202047 69.230166,77.529127 68.514421,79.987041 C 70.228834,84.861889 71.633604,89.633522 72.848688,94.341926 C 78.872869,92.973319 85.559584,93.054694 90.605343,92.175298 C 91.024065,92.278564 91.076208,92.78614 91.292404,93.020122 L 93.645466,92.615484 L 93.635954,92.194899 C 95.519032,91.51527 97.087582,89.546188 98.894082,90.951523 C 99.541552,91.895833 101.63514,97.993031 102.14565,100.42115 C 102.34801,101.38365 102.51554,102.82156 102.51793,103.6165 C 102.52298,105.3003 102.25772,105.52074 100.76477,105.07344 C 98.192312,104.00034 96.706542,101.4519 95.135262,98.740877 L 92.533139,99.370325 C 92.439131,99.893277 92.52543,100.99854 92.178585,101.46817 C 90.432379,101.06654 78.517418,103.47264 71.748173,103.84366 C 69.902618,103.86107 69.426876,103.77797 68.660503,103.30433 C 67.521196,102.6002 66.307103,100.71419 64.987568,97.598663 L 59.781161,85.225554 C 56.773967,88.295473 53.840993,90.446439 51.131008,92.988236 C 49.964923,99.247738 49.185174,109.9147 49.891383,111.60328 C 49.440549,111.96855 46.341371,111.74164 45.917347,111.70161 C 45.802683,112.16981 45.599244,112.90471 45.650465,113.30225 L 46.075462,113.3921 C 46.198517,115.26742 46.525064,117.1428 45.994943,118.95409 C 45.645158,119.37555 44.204241,119.35937 41.022273,118.89826 C 38.03993,118.41917 34.594765,117.88298 32.562981,115.44562 z"
       style="opacity:1;fill:none;fill-opacity:1;fill-rule:evenodd;stroke:#0b0b0b;stroke-width:4;stroke-linecap:butt;stroke-linejoin:miter;marker:none;marker-start:none;marker-mid:none;marker-end:none;stroke-miterlimit:4;stroke-dasharray:none;stroke-dashoffset:0;stroke-opacity:1;visibility:visible;display:inline;overflow:visible;enable-background:accumulate" />
    <path
       style="opacity:1;fill:url(#linearGradient3566);fill-opacity:1;fill-rule:evenodd;stroke:none;stroke-width:1;stroke-linecap:butt;stroke-linejoin:miter;marker:none;marker-start:none;marker-mid:none;marker-end:none;stroke-miterlimit:4;stroke-dasharray:none;stroke-dashoffset:0;stroke-opacity:1;visibility:visible;display:inline;overflow:visible;enable-background:accumulate"
       d="M 32.562981,115.44562 C 32.513393,115.18949 32.887313,114.62148 33.471043,114.06619 C 35.249871,112.52504 38.216917,112.81642 40.433323,112.90921 L 40.842822,110.98354 C 40.241327,110.90619 40.855123,111.02011 40.430692,110.626 C 40.665197,108.11999 40.794644,96.162033 43.142218,89.421148 C 43.967613,88.027941 55.409535,77.309154 55.661676,77.464988 C 55.478655,76.185904 55.396424,75.228228 55.180813,74.757091 C 55.020445,74.772089 54.894268,74.773944 54.762045,74.75316 C 52.466526,66.696567 52.88039,58.351131 52.221449,49.385837 C 51.903834,49.385837 50.589638,50.624208 48.19905,52.652591 C 44.325668,55.939101 42.469588,57.010866 41.152395,56.721561 C 40.053978,56.480306 38.149847,55.525194 37.106405,54.773436 C 34.767573,53.0884 32.308729,51.538415 29.991416,49.824417 C 30.017297,49.680878 30.096718,49.527365 30.221855,49.306753 C 29.963056,49.016421 28.761973,48.615545 27.795758,48.414023 C 26.986318,48.2452 26.032333,47.954093 25.675793,47.767123 C 25.319248,47.580151 24.616125,47.349996 24.113293,47.255663 C 23.244,47.092583 23.19905,47.035541 23.19905,46.095481 C 23.19905,45.551713 23.163715,44.966843 23.280118,44.885837 C 23.510326,44.725633 23.687768,43.882419 23.698991,43.608648 C 23.709494,43.352455 24.140196,42.906091 24.482638,42.582131 C 25.103483,41.994803 25.107823,41.994438 26.001266,42.455476 C 26.494076,42.709776 27.459773,42.974831 28.147273,43.044491 C 29.256441,43.156876 29.439522,43.261413 29.772273,43.972326 C 30.034576,44.532728 30.842129,45.463864 31.362091,45.706016 C 31.412491,45.633283 31.519267,45.520562 31.647273,45.441516 C 35.085283,46.990597 38.017066,49.410405 41.251131,51.296148 C 44.723978,48.425752 47.794958,45.099006 51.536006,42.525693 C 52.781721,41.855423 52.99269,41.422611 53.392053,40.247697 C 53.598302,40.20119 53.665605,40.169214 53.798024,40.110103 C 53.783606,38.18626 53.058647,36.38646 52.322253,34.643959 C 50.990256,34.977612 49.121868,35.619508 47.392378,35.884676 C 47.000756,35.734398 44.126587,33.009514 43.443757,31.774701 C 43.215647,31.362201 43.123006,30.124488 42.643713,29.456351 C 42.171155,29.148939 41.13716,28.875599 41.043069,28.595106 C 40.706241,27.334298 42.342022,21.965317 42.169685,21.085431 C 42.078871,20.661325 41.204078,19.909442 41.036788,19.396961 C 40.630647,18.05238 40.490893,16.488454 40.471147,15.104857 C 40.346149,15.18211 40.320186,15.18531 40.064321,15.253594 C 40.129809,14.139227 40.244527,13.079139 40.701121,11.929296 C 40.575742,11.788961 40.364721,11.789417 40.202415,11.721928 C 41.435856,8.1918065 44.498158,5.706793 47.671393,3.9481762 C 47.637835,3.7684768 47.602971,3.8723167 47.050957,3.7172521 C 47.913157,3.3854108 50.151741,3.3351017 51.61985,3.69264 C 52.576956,3.56612 53.628656,3.317978 54.397273,3.4338 L 54.128459,3.8255078 C 54.90508,3.9886137 58.719443,4.5401806 59.229748,5.41185 C 58.530334,5.5561614 58.028015,5.3376162 57.87123,5.5816441 C 59.41757,6.5131719 63.246544,7.2780456 65.023173,10.671148 L 62.64853,11.952008 C 65.065321,12.689176 67.213247,13.592784 67.89988,15.401002 C 66.292053,15.452242 65.066704,16.268436 64.040863,17.483648 C 65.736081,19.144545 67.52022,20.494216 69.547078,20.994371 C 68.152924,21.666732 66.510238,21.93523 64.450412,21.525873 C 65.814409,22.524663 67.384701,23.5097 67.552064,24.588266 C 65.887833,23.81063 64.621069,24.722227 63.272273,25.285188 C 64.476081,26.301036 66.425979,27.018448 66.103725,28.644721 C 64.438161,27.866649 63.65184,28.651674 62.698463,29.139713 C 62.288003,30.768978 63.839942,31.662343 64.625713,32.843022 C 63.278303,32.866613 61.930892,32.397262 60.583482,31.33772 C 61.394267,32.123383 61.389749,32.909045 61.387368,33.694708 C 59.59251,33.547928 56.748572,31.983054 56.76773,32.823953 C 57.278994,35.010381 57.734369,37.237552 58.504374,39.271968 L 58.835381,39.192136 C 60.140154,40.790565 60.742477,42.479405 61.503551,44.300859 C 64.697232,45.7213 68.534644,47.79496 71.520924,49.589718 C 72.099995,49.937741 72.937157,50.558779 73.324166,51.071988 C 73.711175,51.585196 74.223108,52.076921 74.363439,52.26121 C 76.428825,54.97357 78.256504,57.918748 80.211994,60.734394 L 79.688713,61.208699 C 80.33491,62.218821 81.075052,63.291228 81.875011,63.630095 C 82.247889,63.788048 82.536461,64.50197 83.098199,65.567595 C 84.066701,67.404855 83.689384,68.023938 83.280056,68.438803 C 83.042649,68.679428 82.648237,68.832109 82.430607,68.832109 C 82.212974,68.832109 81.864829,69.287783 81.818994,69.412598 C 81.773166,69.537408 81.309773,69.783481 80.897273,69.824381 C 80.309323,69.882678 79.923968,69.685098 79.113763,68.909946 C 77.906016,67.754451 77.509944,66.742778 77.702698,65.305711 C 77.823491,64.405149 78.174793,64.350016 77.242294,63.559882 C 77.163915,63.605369 77.10396,63.679938 76.924303,63.698937 C 74.962231,61.739876 73.14236,58.984842 71.449253,56.795323 C 71.283156,56.588618 70.775941,55.946473 70.322091,55.368333 C 68.402244,53.315239 65.659208,52.375677 63.374158,50.813854 C 64.834228,57.14712 69.421693,69.355146 71.133044,71.662973 C 70.373359,72.16126 68.993004,72.642131 68.337084,72.737296 C 69.062589,75.202047 69.230166,77.529127 68.514421,79.987041 C 70.228834,84.861889 71.633604,89.633522 72.848688,94.341926 C 78.872869,92.973319 85.559584,93.054694 90.605343,92.175298 C 91.024065,92.278564 91.076208,92.78614 91.292404,93.020122 L 93.645466,92.615484 L 93.635954,92.194899 C 95.519032,91.51527 97.087582,89.546188 98.894082,90.951523 C 99.541552,91.895833 101.63514,97.993031 102.14565,100.42115 C 102.34801,101.38365 102.51554,102.82156 102.51793,103.6165 C 102.52298,105.3003 102.25772,105.52074 100.76477,105.07344 C 98.192312,104.00034 96.706542,101.4519 95.135262,98.740877 L 92.533139,99.370325 C 92.439131,99.893277 92.52543,100.99854 92.178585,101.46817 C 90.432379,101.06654 78.517418,103.47264 71.748173,103.84366 C 69.902618,103.86107 69.426876,103.77797 68.660503,103.30433 C 67.521196,102.6002 66.307103,100.71419 64.987568,97.598663 L 59.781161,85.225554 C 56.773967,88.295473 53.840993,90.446439 51.131008,92.988236 C 49.964923,99.247738 49.185174,109.9147 49.891383,111.60328 C 49.440549,111.96855 46.341371,111.74164 45.917347,111.70161 C 45.802683,112.16981 45.599244,112.90471 45.650465,113.30225 L 46.075462,113.3921 C 46.198517,115.26742 46.525064,117.1428 45.994943,118.95409 C 45.645158,119.37555 44.204241,119.35937 41.022273,118.89826 C 38.03993,118.41917 34.594765,117.88298 32.562981,115.44562 z"
       id="path2517"
       sodipodi:nodetypes="ccccccccccsssccssssssssssccccccccsccccccccccccccccccccccccccccccccsssccssssssssccccccccccccccsscccccscccccccccc" />
    <path
       style="fill:#555555;fill-opacity:0.39534882;fill-rule:evenodd;stroke:none;stroke-width:1;stroke-linecap:butt;stroke-linejoin:miter;marker:none;marker-start:none;marker-mid:none;marker-end:none;stroke-miterlimit:4;stroke-dasharray:none;stroke-dashoffset:0;stroke-opacity:1;visibility:visible;display:inline;overflow:visible;enable-background:accumulate"
       d="M 55.677092,77.478554 C 55.424951,77.32272 43.971237,88.022845 43.145842,89.416054 C 40.798268,96.156939 40.661596,108.1288 40.427092,110.63481 C 40.851523,111.02892 40.231847,110.90121 40.833342,110.97856 L 40.427092,112.91606 C 38.210686,112.82327 35.237172,112.53116 33.458342,114.07231 C 32.874612,114.6276 32.502506,115.19118 32.552092,115.44731 C 34.583876,117.88467 38.038499,118.40572 41.020842,118.88481 C 44.20281,119.34592 45.639806,119.36877 45.989592,118.94731 C 46.519713,117.13602 46.206398,115.26013 46.083342,113.38481 L 45.645842,113.29106 C 45.594621,112.89352 45.81243,112.16551 45.927092,111.69731 C 46.351116,111.73734 49.445008,111.96883 49.895842,111.60356 C 49.189633,109.91498 49.979758,99.238056 51.145842,92.978554 C 53.855827,90.436757 56.763644,88.298471 59.770842,85.228554 C 59.409483,84.198773 57.280078,81.131943 55.677092,77.478554 z"
       id="path3366" />
    <g
       id="g3580">
      <path
         sodipodi:nodetypes="ccccccccccccccccccccccccccccccccccccccccccsccccccccccscccccccccccssccccccccsssscssssscssscccsssssssccccccccccccccccccccccccsccssscsccccccccccccccccccccc"
         id="path3382"
         d="M 53.770842,3.4160534 C 53.105927,3.4429116 52.332423,3.6024135 51.614592,3.6973034 C 50.146483,3.3397651 47.914294,3.3967121 47.052092,3.7285534 C 47.604106,3.883618 47.643534,3.7676039 47.677092,3.9473034 C 44.503857,5.7059202 41.441784,8.1984326 40.208342,11.728554 C 40.370648,11.796043 40.582963,11.775719 40.708342,11.916054 C 40.251748,13.065897 40.117579,14.145437 40.052092,15.259804 C 40.307957,15.19152 40.333343,15.180807 40.458342,15.103554 C 40.478088,16.487151 40.645952,18.040223 41.052092,19.384804 C 41.169461,19.744355 41.628289,20.235443 41.927092,20.634804 C 41.52095,19.290223 41.384338,17.737151 41.364592,16.353554 C 41.239595,16.430807 41.214207,16.41027 40.958342,16.478554 C 41.023831,15.364186 41.126748,14.315897 41.583342,13.166054 C 41.457962,13.025719 41.245648,13.014793 41.083342,12.947304 C 42.316783,9.4171823 45.378857,6.9559202 48.552092,5.1973034 C 48.518533,5.0176038 48.479106,5.102368 47.927092,4.9473034 C 48.789292,4.615462 51.021483,4.5585151 52.489592,4.9160534 C 53.446698,4.7895336 54.502225,4.5502314 55.270842,4.6660534 L 55.020842,5.0723034 C 55.473022,5.1672705 56.948304,5.4149487 58.208342,5.7598034 C 58.092568,5.7011539 57.962995,5.6315824 57.864592,5.5723034 C 58.021377,5.3282755 58.540176,5.5603647 59.239592,5.4160534 C 58.729287,4.544384 54.891214,3.9854094 54.114592,3.8223034 L 54.395842,3.4473034 C 54.203688,3.4183479 53.99248,3.4071007 53.770842,3.4160534 z M 60.083342,6.5723034 C 60.097181,6.5906138 60.103701,6.6162007 60.114592,6.6348034 C 59.415178,6.7791148 58.896377,6.5782755 58.739592,6.8223034 C 60.044319,7.60828 62.976214,8.2822907 64.927092,10.509804 C 63.742517,8.3851412 61.753185,7.3064995 60.083342,6.5723034 z M 64.583342,12.634804 L 63.520842,13.197304 C 65.235512,13.720312 66.815197,14.336863 67.833342,15.291054 C 67.30757,14.06372 66.093508,13.252753 64.583342,12.634804 z M 65.145842,18.509804 C 65.07633,18.586442 64.994812,18.648333 64.927092,18.728554 C 66.031263,19.810373 67.173718,20.74706 68.395842,21.416054 C 68.79878,21.30021 69.186397,21.186168 69.552092,21.009804 C 67.961252,20.617242 66.511999,19.68876 65.145842,18.509804 z M 42.177092,21.072304 C 42.349429,21.95219 40.715263,27.342746 41.052092,28.603554 C 41.108161,28.7707 41.489945,28.932764 41.895842,29.103554 C 42.011262,27.182242 43.200754,23.081315 43.052092,22.322304 C 42.985643,22.011982 42.498727,21.511412 42.177092,21.072304 z M 65.333342,22.759804 C 66.083431,23.309059 66.882348,23.857276 67.489592,24.416054 C 67.332927,23.901156 66.887098,23.402395 66.302092,22.916054 C 65.987367,22.884165 65.669561,22.826622 65.333342,22.759804 z M 64.645842,26.291054 C 64.47887,26.368339 64.314441,26.439434 64.145842,26.509804 C 64.726429,26.99974 65.494263,27.429515 66.083342,27.916054 C 65.917223,27.245719 65.314677,26.760302 64.645842,26.291054 z M 43.083342,30.478554 C 43.227321,31.002834 43.325549,31.51967 43.458342,31.759804 C 43.62905,32.068507 43.930497,32.484602 44.302092,32.916054 C 44.098352,32.446135 43.974652,31.329918 43.520842,30.697304 C 43.402702,30.620451 43.248203,30.551792 43.083342,30.478554 z M 53.208342,35.884804 C 53.10963,35.90953 52.968921,35.950721 52.864592,35.978554 C 53.374906,37.301571 53.791351,38.670464 53.802092,40.103554 C 53.669673,40.162665 53.60209,40.213298 53.395842,40.259804 C 52.996479,41.434718 52.766558,41.870785 51.520842,42.541054 C 47.779794,45.114367 44.712439,48.420659 41.239592,51.291054 C 38.005527,49.405311 35.083852,46.996384 31.645842,45.447304 C 31.517836,45.52635 31.414993,45.62457 31.364592,45.697304 C 31.139275,45.592371 30.848897,45.349758 30.583342,45.072304 C 30.607279,45.11943 30.620657,45.143496 30.645842,45.197304 C 30.908144,45.757706 31.71963,46.705152 32.239592,46.947304 C 32.289992,46.874573 32.392836,46.7451 32.520842,46.666054 C 35.958851,48.215137 38.911777,50.655311 42.145842,52.541054 C 45.618687,49.670658 48.686044,46.333117 52.427092,43.759804 C 53.672806,43.089534 53.871479,42.653468 54.270842,41.478554 C 54.477092,41.432047 54.544673,41.412665 54.677092,41.353554 C 54.662675,39.429713 53.944736,37.627305 53.208342,35.884804 z M 25.145842,42.134804 C 24.955471,42.150682 24.800015,42.27864 24.489592,42.572304 C 24.14715,42.896264 23.718846,43.347362 23.708342,43.603554 C 23.697119,43.877325 23.501051,44.724599 23.270842,44.884804 C 23.154439,44.96581 23.208343,45.559785 23.208342,46.103554 C 23.208342,47.02979 23.250555,47.101986 24.083342,47.259804 C 24.080915,46.735468 24.065345,46.21257 24.177092,46.134804 C 24.407299,45.974602 24.572119,45.127325 24.583342,44.853554 C 24.593844,44.597361 25.02215,44.146264 25.364592,43.822304 C 25.985438,43.234975 26.002399,43.236266 26.895842,43.697304 C 27.388652,43.951604 28.333342,44.221394 29.020842,44.291054 C 29.53357,44.343005 29.860137,44.369283 30.083342,44.478554 C 29.95138,44.296196 29.840892,44.128215 29.770842,43.978554 C 29.438091,43.267641 29.25501,43.153439 28.145842,43.041054 C 27.458342,42.971394 26.482403,42.701605 25.989592,42.447304 C 25.542871,42.216785 25.336213,42.118926 25.145842,42.134804 z M 61.958342,44.509804 C 62.09904,44.850468 62.249529,45.190887 62.395842,45.541054 C 65.589523,46.961495 69.409562,49.027546 72.395842,50.822304 C 72.974913,51.170326 73.821333,51.809095 74.208342,52.322304 C 74.595348,52.835511 75.099261,53.325515 75.239592,53.509804 C 75.445611,53.780358 75.66294,54.047477 75.864592,54.322304 C 75.372248,53.620774 74.880938,52.937894 74.364592,52.259804 C 74.224261,52.075515 73.720353,51.585513 73.333342,51.072304 C 72.946333,50.559095 72.099911,49.951577 71.520842,49.603554 C 68.674092,47.892654 65.057034,45.920127 61.958342,44.509804 z M 53.114592,50.634804 C 53.001421,50.634805 52.70317,50.840644 52.333342,51.134804 C 52.833066,59.438854 52.625556,67.230485 54.770842,74.759804 C 54.903065,74.780588 55.016726,74.774805 55.177092,74.759804 C 55.392703,75.230941 55.49407,76.199469 55.677092,77.478554 C 55.424951,77.32272 43.971237,88.022845 43.145842,89.416054 C 40.798268,96.156939 40.661596,108.1288 40.427092,110.63481 C 40.851523,111.02892 40.231847,110.90121 40.833342,110.97856 L 40.427092,112.91606 C 38.210686,112.82327 35.237172,112.53116 33.458342,114.07231 C 32.874612,114.6276 32.502506,115.19118 32.552092,115.44731 C 32.840197,115.79293 33.181248,116.07914 33.520842,116.35356 C 33.654261,116.0652 33.963045,115.67304 34.364592,115.29106 C 36.14342,113.74991 39.085686,114.04202 41.302092,114.13481 L 41.739592,112.22856 C 41.138096,112.15121 41.726523,112.24767 41.302092,111.85356 C 41.536598,109.34755 41.673268,97.406939 44.020842,90.666054 C 44.846236,89.272847 56.299951,78.54147 56.552092,78.697304 C 56.369073,77.418222 56.267703,76.480941 56.052092,76.009804 C 55.891724,76.0248 55.778065,75.999338 55.645842,75.978554 C 53.350321,67.921957 53.773533,59.600098 53.114592,50.634804 z M 80.739592,62.666054 C 81.333914,63.580028 81.990707,64.484582 82.708342,64.822304 C 82.397752,64.216606 82.130931,63.747626 81.864592,63.634804 C 81.464612,63.46537 81.105397,63.102779 80.739592,62.666054 z M 78.114592,64.791054 C 78.036217,64.836542 77.981749,64.928305 77.802092,64.947304 C 77.791891,64.937118 77.781036,64.926283 77.770842,64.916054 C 77.743533,65.030872 77.729623,65.132398 77.708342,65.291054 C 77.530771,66.614927 77.868499,67.587945 78.864592,68.634804 C 78.570784,68.00203 78.476372,67.338564 78.583342,66.541054 C 78.704132,65.640496 79.047091,65.581188 78.114592,64.791054 z M 60.677092,86.478554 C 60.585723,86.571828 60.487069,86.636939 60.395842,86.728554 L 64.989592,97.603554 C 65.912175,99.781847 66.78462,101.32982 67.614592,102.32231 C 67.051836,101.40688 66.468593,100.2484 65.864592,98.822304 L 60.677092,86.478554 z M 97.583342,90.447304 C 96.291802,90.44009 95.058152,91.687581 93.645842,92.197304 L 93.645842,92.603554 L 91.302092,93.009804 C 91.085896,92.775822 91.033312,92.269317 90.614592,92.166054 C 85.714648,93.020037 79.250004,92.978924 73.364592,94.228554 C 73.483871,94.6782 73.623858,95.12384 73.739592,95.572304 C 79.763771,94.203699 86.443833,94.29545 91.489592,93.416054 C 91.908314,93.51932 91.960892,94.025822 92.177092,94.259804 L 94.520842,93.853554 L 94.520842,93.447304 C 96.272102,92.81525 97.744262,91.058438 99.395842,91.947304 C 99.203642,91.495918 99.012212,91.117019 98.895842,90.947304 C 98.444212,90.59597 98.013852,90.449709 97.583342,90.447304 z"
         style="opacity:1;fill:#ffffff;fill-opacity:0.4385382;fill-rule:evenodd;stroke:none;stroke-width:1;stroke-linecap:butt;stroke-linejoin:miter;marker:none;marker-start:none;marker-mid:none;marker-end:none;stroke-miterlimit:4;stroke-dasharray:none;stroke-dashoffset:0;stroke-opacity:1;visibility:visible;display:inline;overflow:visible;filter:url(#filter3471);enable-background:accumulate" />
      <path
         id="path3475"
         d="M 57.114592,4.4473034 C 57.069952,4.4660976 57.015723,4.4691321 56.989592,4.5098034 C 57.479424,4.8048816 58.210711,5.0968343 59.020842,5.4473034 C 59.092577,5.4391173 59.162925,5.4318721 59.239592,5.4160534 C 59.01145,5.0263571 58.096824,4.7029333 57.114592,4.4473034 z M 63.677092,8.8535534 C 63.841692,9.0910353 64.004907,9.3343891 64.145842,9.6035534 L 61.770842,10.884804 C 62.37504,11.069096 62.968884,11.261923 63.520842,11.478554 L 65.020842,10.666054 C 64.64948,9.9568066 64.188205,9.3586606 63.677092,8.8535534 z M 66.770842,13.884804 C 66.855011,14.03288 66.959295,14.191474 67.020842,14.353554 C 65.413015,14.404794 64.171683,15.200842 63.145842,16.416054 C 63.479548,16.743004 63.835321,17.05483 64.177092,17.353554 C 65.178494,16.215115 66.349856,15.465323 67.895842,15.416054 C 67.669537,14.820089 67.27193,14.310666 66.770842,13.884804 z M 67.739592,20.291054 C 66.55406,20.673862 65.171213,20.800328 63.552092,20.478554 C 64.076067,20.862236 64.620956,21.2491 65.114592,21.634804 C 66.869007,21.869903 68.310757,21.608463 69.552092,21.009804 C 68.923028,20.854574 68.326493,20.593852 67.739592,20.291054 z M 66.552092,23.134804 C 66.613711,23.266911 66.656172,23.406233 66.677092,23.541054 C 65.012861,22.763419 63.744638,23.665593 62.395842,24.228554 C 62.774759,24.548308 63.213211,24.836536 63.645842,25.134804 C 64.860707,24.58101 66.040762,23.897362 67.552092,24.603554 C 67.473423,24.096576 67.083576,23.611594 66.552092,23.134804 z M 65.114592,26.603554 C 65.239565,26.892605 65.281308,27.204078 65.208342,27.572304 C 63.542781,26.794232 62.755469,27.584265 61.802092,28.072304 C 61.494246,29.294253 62.303352,30.121575 63.052092,30.947304 C 62.711885,30.432415 62.5296,29.844299 62.708342,29.134804 C 63.661719,28.646765 64.449025,27.856733 66.114592,28.634804 C 66.288792,27.755695 65.791532,27.142207 65.114592,26.603554 z M 40.989592,28.041054 C 40.984981,28.260324 41.015949,28.468265 41.052092,28.603554 C 41.118418,28.801279 41.640062,28.992248 42.114592,29.197304 C 42.021901,28.903075 41.928917,28.605161 41.770842,28.384804 C 41.577555,28.259065 41.268,28.158213 40.989592,28.041054 z M 59.708342,30.291054 C 60.519127,31.076717 60.491973,31.849141 60.489592,32.634804 C 58.694734,32.488023 55.876684,30.918905 55.895842,31.759804 C 56.407104,33.946232 56.844587,36.162888 57.614592,38.197304 L 57.958342,38.134804 C 58.067561,38.268604 58.139712,38.405962 58.239592,38.541054 C 57.621488,36.709595 57.221734,34.75055 56.770842,32.822304 C 56.751684,31.981405 59.600986,33.550526 61.395842,33.697304 C 61.398223,32.911641 61.39413,32.107968 60.583342,31.322304 C 61.930752,32.381846 63.267179,32.877145 64.614592,32.853554 C 64.367087,32.481659 64.053857,32.137914 63.739592,31.791054 C 62.392185,31.814645 61.055752,31.350596 59.708342,30.291054 z M 43.802092,32.291054 C 44.815023,33.641897 47.053173,35.753312 47.395842,35.884804 C 48.972463,35.643074 50.631198,35.108761 51.927092,34.759804 C 51.772935,34.368172 51.589926,33.957611 51.427092,33.572304 C 50.095097,33.905958 48.250332,34.557136 46.520842,34.822304 C 46.259373,34.721969 44.885795,33.477008 43.802092,32.291054 z M 58.833342,39.197304 L 58.708342,39.228554 C 59.510432,40.50222 60.02389,41.814846 60.614592,43.228554 C 60.795977,43.309228 60.991828,43.425087 61.177092,43.509804 C 60.550713,41.985744 59.948168,40.563035 58.833342,39.197304 z M 29.083342,43.228554 C 29.300816,43.566735 29.607488,43.932895 29.927092,44.228554 C 29.873956,44.142131 29.806202,44.054099 29.770842,43.978554 C 29.572306,43.554388 29.403808,43.351454 29.083342,43.228554 z M 23.208342,46.197304 C 23.213583,47.023255 23.28365,47.10392 24.114592,47.259804 C 24.617424,47.354137 25.320547,47.572831 25.677092,47.759804 C 26.033632,47.946774 26.99265,48.247229 27.802092,48.416054 C 28.231289,48.505571 28.695884,48.618777 29.114592,48.759804 C 29.140471,48.616266 29.208205,48.480416 29.333342,48.259804 C 29.074542,47.969471 27.893307,47.555076 26.927092,47.353554 C 26.117652,47.184731 25.158632,46.884274 24.802092,46.697304 C 24.445546,46.510332 23.742424,46.291637 23.239592,46.197304 C 23.227479,46.195032 23.220137,46.199538 23.208342,46.197304 z M 51.333342,48.322304 C 51.015728,48.322305 49.69268,49.575171 47.302092,51.603554 C 43.428708,54.890064 41.588035,55.955359 40.270842,55.666054 C 39.172426,55.4248 37.251784,54.449062 36.208342,53.697304 C 34.211249,52.258476 32.15511,50.906637 30.145842,49.478554 C 30.073471,49.615348 30.008403,49.717979 29.989592,49.822304 C 32.306905,51.536302 34.775759,53.074766 37.114592,54.759804 C 38.158034,55.511562 40.047424,56.487298 41.145842,56.728554 C 42.463035,57.017859 44.334961,55.952563 48.208342,52.666054 C 49.733225,51.372211 50.757414,50.419407 51.427092,49.884804 C 51.395178,49.365476 51.371818,48.845793 51.333342,48.322304 z M 62.489592,49.759804 C 63.949658,56.093071 68.528241,68.295727 70.239592,70.603554 C 69.479909,71.101844 68.114262,71.570889 67.458342,71.666054 C 68.183848,74.130805 68.361587,76.45814 67.645842,78.916054 C 69.360256,83.790899 70.743258,88.58265 71.958342,93.291054 C 72.144632,93.248732 72.333353,93.205674 72.520842,93.166054 C 71.377272,88.840103 70.09239,84.447168 68.520842,79.978554 C 69.236587,77.52064 69.058851,75.193304 68.333342,72.728554 C 68.989262,72.633389 70.386153,72.164342 71.145842,71.666054 C 69.434491,69.358227 64.824661,57.15557 63.364592,50.822304 C 65.536528,52.306814 68.121552,53.221586 70.020842,55.072304 C 69.808778,54.803947 69.668161,54.629392 69.427092,54.322304 C 67.507245,52.269208 64.774642,51.321627 62.489592,49.759804 z M 73.927092,51.791054 C 75.81304,54.336791 77.519229,57.053972 79.333342,59.666054 L 78.802092,60.134804 C 79.216931,60.783274 79.662597,61.45805 80.145842,61.947304 C 79.981597,61.710226 79.831123,61.438082 79.677092,61.197304 L 80.208342,60.728554 C 78.252852,57.912908 76.429977,54.972162 74.364592,52.259804 C 74.294427,52.16766 74.120992,52.001172 73.927092,51.791054 z M 75.302092,61.853554 C 75.837482,62.50819 76.369052,63.14012 76.927092,63.697304 C 77.033144,63.264835 77.063966,63.102405 76.364592,62.509804 C 76.286212,62.555291 76.231749,62.615805 76.052092,62.634804 C 75.806833,62.389922 75.542937,62.120652 75.302092,61.853554 z M 81.708342,63.541054 C 81.858854,63.827712 82.001688,64.117779 82.208342,64.509804 C 83.176844,66.347064 82.80517,66.969939 82.395842,67.384804 C 82.158438,67.625428 81.769722,67.759804 81.552092,67.759804 C 81.334462,67.759807 80.972927,68.228739 80.927092,68.353554 C 80.881265,68.478365 80.433342,68.718904 80.020842,68.759804 C 79.432894,68.818104 79.049797,68.628706 78.239592,67.853554 C 78.464753,68.201608 78.739624,68.557309 79.114592,68.916054 C 79.924797,69.691206 80.307889,69.880603 80.895842,69.822304 C 81.308342,69.781404 81.787517,69.540864 81.833342,69.416054 C 81.879177,69.291239 82.209457,68.822305 82.427092,68.822304 C 82.644722,68.822304 83.033433,68.687927 83.270842,68.447304 C 83.68017,68.032439 84.051847,67.409562 83.083342,65.572304 C 82.521604,64.506679 82.237467,63.792755 81.864592,63.634804 C 81.807991,63.610828 81.764332,63.572093 81.708342,63.541054 z M 58.895842,84.166054 C 55.88865,87.235973 52.949577,89.374257 50.239592,91.916054 C 49.073506,98.175558 48.314633,108.85248 49.020842,110.54106 C 48.57001,110.90633 45.444866,110.67484 45.020842,110.63481 C 44.906177,111.10301 44.719621,111.83102 44.770842,112.22856 L 45.177092,112.32231 C 45.300146,114.19763 45.644713,116.07352 45.114592,117.88481 C 44.764807,118.30627 43.32781,118.28342 40.145842,117.82231 C 37.572986,117.409 34.640474,116.97336 32.583342,115.29106 C 32.57159,115.34429 32.544435,115.40776 32.552092,115.44731 C 34.583876,117.88467 38.038499,118.40572 41.020842,118.88481 C 44.20281,119.34592 45.639806,119.36877 45.989592,118.94731 C 46.519713,117.13602 46.206398,115.26013 46.083342,113.38481 L 45.645842,113.29106 C 45.594621,112.89352 45.81243,112.16551 45.927092,111.69731 C 46.351116,111.73734 49.445008,111.96883 49.895842,111.60356 C 49.189633,109.91498 49.979758,99.238056 51.145842,92.978554 C 53.763831,90.523044 56.558264,88.416691 59.458342,85.509804 L 58.895842,84.166054 z M 98.364592,90.634804 C 99.222702,92.563791 100.83465,97.278926 101.27084,99.353554 C 101.4732,100.31606 101.64345,101.74612 101.64584,102.54106 C 101.65089,104.22486 101.38879,104.45711 99.895842,104.00981 C 98.931172,103.6074 98.116702,103.00793 97.395842,102.25981 C 98.331462,103.48223 99.390622,104.49655 100.77084,105.07231 C 102.26379,105.51961 102.52589,105.28736 102.52084,103.60356 C 102.51845,102.80862 102.3482,101.37856 102.14584,100.41606 C 101.63533,97.987941 99.543312,91.891614 98.895842,90.947304 C 98.715192,90.80677 98.541032,90.712513 98.364592,90.634804 z M 94.239592,97.666054 L 91.645842,98.322304 C 91.551838,98.84526 91.648937,99.946427 91.302092,100.41606 C 89.555889,100.01443 77.633837,102.42004 70.864592,102.79106 C 69.01904,102.80847 68.537215,102.7022 67.770842,102.22856 C 67.567395,102.10282 67.354234,101.92994 67.145842,101.72856 C 67.664002,102.46824 68.157566,102.98929 68.645842,103.29106 C 69.412215,103.7647 69.894035,103.87097 71.739592,103.85356 C 78.508837,103.48254 90.430884,101.07693 92.177092,101.47856 C 92.523937,101.00893 92.426832,99.907757 92.520842,99.384804 L 94.895842,98.791054 C 94.676022,98.421533 94.459542,98.045547 94.239592,97.666054 z"
         style="fill:#191919;fill-opacity:1;fill-rule:evenodd;stroke:none;stroke-width:1;stroke-linecap:butt;stroke-linejoin:miter;marker:none;marker-start:none;marker-mid:none;marker-end:none;stroke-miterlimit:4;stroke-dasharray:none;stroke-dashoffset:0;stroke-opacity:1;visibility:visible;display:inline;overflow:visible;filter:url(#filter3556);enable-background:accumulate" />
    </g>
    <path
       style="fill:#555555;fill-opacity:0.39534882;fill-rule:evenodd;stroke:none;stroke-width:1;stroke-linecap:butt;stroke-linejoin:miter;marker:none;marker-start:none;marker-mid:none;marker-end:none;stroke-miterlimit:4;stroke-dasharray:none;stroke-dashoffset:0;stroke-opacity:1;visibility:visible;display:inline;overflow:visible;enable-background:accumulate"
       d="M 63.364592,50.822304 C 65.649642,52.384127 68.413497,53.300461 70.333342,55.353554 C 70.787192,55.931694 71.292243,56.584349 71.458342,56.791054 C 73.151449,58.980573 74.965023,61.738243 76.927092,63.697304 C 77.106749,63.678305 77.161214,63.61779 77.239592,63.572304 C 78.172091,64.362438 77.829137,64.390493 77.708342,65.291054 C 77.515588,66.728121 77.906848,67.760562 79.114592,68.916054 C 79.924797,69.691206 80.307889,69.880603 80.895842,69.822304 C 81.308342,69.781404 81.787517,69.540864 81.833342,69.416054 C 81.879177,69.291239 82.209457,68.822305 82.427092,68.822304 C 82.644722,68.822304 83.033433,68.687927 83.270842,68.447304 C 83.68017,68.032439 84.051847,67.409562 83.083342,65.572304 C 82.521604,64.506679 82.237467,63.792755 81.864592,63.634804 C 81.064633,63.295937 80.32329,62.207426 79.677092,61.197304 L 80.208342,60.728554 C 78.252852,57.912908 76.429977,54.972162 74.364592,52.259804 C 74.224261,52.075515 73.720353,51.585513 73.333342,51.072304 C 72.946333,50.559095 72.099911,49.951577 71.520842,49.603554 C 68.534562,47.808796 64.68327,45.711496 61.489592,44.291054 L 63.364592,50.822304 z"
       id="path3586" />
    <path
       id="path3380"
       style="opacity:1;fill:none;fill-opacity:1;fill-rule:evenodd;stroke:#1c1c1c;stroke-width:1;stroke-linecap:butt;stroke-linejoin:miter;marker:none;marker-start:none;marker-mid:none;marker-end:none;stroke-miterlimit:4;stroke-dasharray:none;stroke-dashoffset:0;stroke-opacity:1;visibility:visible;display:inline;overflow:visible;enable-background:accumulate"
       d="M 32.562981,115.44562 C 32.513393,115.18949 32.887313,114.62148 33.471043,114.06619 C 35.249871,112.52504 38.216917,112.81642 40.433323,112.90921 L 40.842822,110.98354 C 40.241327,110.90619 40.855123,111.02011 40.430692,110.626 C 40.665197,108.11999 40.794644,96.162033 43.142218,89.421148 C 43.967613,88.027941 55.409535,77.309154 55.661676,77.464988 C 55.478655,76.185904 55.396424,75.228228 55.180813,74.757091 C 55.020445,74.772089 54.894268,74.773944 54.762045,74.75316 C 52.466526,66.696567 52.88039,58.351131 52.221449,49.385837 C 51.903834,49.385837 50.589638,50.624208 48.19905,52.652591 C 44.325668,55.939101 42.469588,57.010866 41.152395,56.721561 C 40.053978,56.480306 38.149847,55.525194 37.106405,54.773436 C 34.767573,53.0884 32.308729,51.538415 29.991416,49.824417 C 30.017297,49.680878 30.096718,49.527365 30.221855,49.306753 C 29.963056,49.016421 28.761973,48.615545 27.795758,48.414023 C 26.986318,48.2452 26.032333,47.954093 25.675793,47.767123 C 25.319248,47.580151 24.616125,47.349996 24.113293,47.255663 C 23.244,47.092583 23.19905,47.035541 23.19905,46.095481 C 23.19905,45.551713 23.163715,44.966843 23.280118,44.885837 C 23.510326,44.725633 23.687768,43.882419 23.698991,43.608648 C 23.709494,43.352455 24.140196,42.906091 24.482638,42.582131 C 25.103483,41.994803 25.107823,41.994438 26.001266,42.455476 C 26.494076,42.709776 27.459773,42.974831 28.147273,43.044491 C 29.256441,43.156876 29.439522,43.261413 29.772273,43.972326 C 30.034576,44.532728 30.842129,45.463864 31.362091,45.706016 C 31.412491,45.633283 31.519267,45.520562 31.647273,45.441516 C 35.085283,46.990597 38.017066,49.410405 41.251131,51.296148 C 44.723978,48.425752 47.794958,45.099006 51.536006,42.525693 C 52.781721,41.855423 52.99269,41.422611 53.392053,40.247697 C 53.598302,40.20119 53.665605,40.169214 53.798024,40.110103 C 53.783606,38.18626 53.058647,36.38646 52.322253,34.643959 C 50.990256,34.977612 49.121868,35.619508 47.392378,35.884676 C 47.000756,35.734398 44.126587,33.009514 43.443757,31.774701 C 43.215647,31.362201 43.123006,30.124488 42.643713,29.456351 C 42.171155,29.148939 41.13716,28.875599 41.043069,28.595106 C 40.706241,27.334298 42.342022,21.965317 42.169685,21.085431 C 42.078871,20.661325 41.204078,19.909442 41.036788,19.396961 C 40.630647,18.05238 40.490893,16.488454 40.471147,15.104857 C 40.346149,15.18211 40.320186,15.18531 40.064321,15.253594 C 40.129809,14.139227 40.244527,13.079139 40.701121,11.929296 C 40.575742,11.788961 40.364721,11.789417 40.202415,11.721928 C 41.435856,8.1918065 44.498158,5.706793 47.671393,3.9481762 C 47.637835,3.7684768 47.602971,3.8723167 47.050957,3.7172521 C 47.913157,3.3854108 50.151741,3.3351017 51.61985,3.69264 C 52.576956,3.56612 53.628656,3.317978 54.397273,3.4338 L 54.128459,3.8255078 C 54.90508,3.9886137 58.719443,4.5401806 59.229748,5.41185 C 58.530334,5.5561614 58.028015,5.3376162 57.87123,5.5816441 C 59.41757,6.5131719 63.246544,7.2780456 65.023173,10.671148 L 62.64853,11.952008 C 65.065321,12.689176 67.213247,13.592784 67.89988,15.401002 C 66.292053,15.452242 65.066704,16.268436 64.040863,17.483648 C 65.736081,19.144545 67.52022,20.494216 69.547078,20.994371 C 68.152924,21.666732 66.510238,21.93523 64.450412,21.525873 C 65.814409,22.524663 67.384701,23.5097 67.552064,24.588266 C 65.887833,23.81063 64.621069,24.722227 63.272273,25.285188 C 64.476081,26.301036 66.425979,27.018448 66.103725,28.644721 C 64.438161,27.866649 63.65184,28.651674 62.698463,29.139713 C 62.288003,30.768978 63.839942,31.662343 64.625713,32.843022 C 63.278303,32.866613 61.930892,32.397262 60.583482,31.33772 C 61.394267,32.123383 61.389749,32.909045 61.387368,33.694708 C 59.59251,33.547928 56.748572,31.983054 56.76773,32.823953 C 57.278994,35.010381 57.734369,37.237552 58.504374,39.271968 L 58.835381,39.192136 C 60.140154,40.790565 60.742477,42.479405 61.503551,44.300859 C 64.697232,45.7213 68.534644,47.79496 71.520924,49.589718 C 72.099995,49.937741 72.937157,50.558779 73.324166,51.071988 C 73.711175,51.585196 74.223108,52.076921 74.363439,52.26121 C 76.428825,54.97357 78.256504,57.918748 80.211994,60.734394 L 79.688713,61.208699 C 80.33491,62.218821 81.075052,63.291228 81.875011,63.630095 C 82.247889,63.788048 82.536461,64.50197 83.098199,65.567595 C 84.066701,67.404855 83.689384,68.023938 83.280056,68.438803 C 83.042649,68.679428 82.648237,68.832109 82.430607,68.832109 C 82.212974,68.832109 81.864829,69.287783 81.818994,69.412598 C 81.773166,69.537408 81.309773,69.783481 80.897273,69.824381 C 80.309323,69.882678 79.923968,69.685098 79.113763,68.909946 C 77.906016,67.754451 77.509944,66.742778 77.702698,65.305711 C 77.823491,64.405149 78.174793,64.350016 77.242294,63.559882 C 77.163915,63.605369 77.10396,63.679938 76.924303,63.698937 C 74.962231,61.739876 73.14236,58.984842 71.449253,56.795323 C 71.283156,56.588618 70.775941,55.946473 70.322091,55.368333 C 68.402244,53.315239 65.659208,52.375677 63.374158,50.813854 C 64.834228,57.14712 69.421693,69.355146 71.133044,71.662973 C 70.373359,72.16126 68.993004,72.642131 68.337084,72.737296 C 69.062589,75.202047 69.230166,77.529127 68.514421,79.987041 C 70.228834,84.861889 71.633604,89.633522 72.848688,94.341926 C 78.872869,92.973319 85.559584,93.054694 90.605343,92.175298 C 91.024065,92.278564 91.076208,92.78614 91.292404,93.020122 L 93.645466,92.615484 L 93.635954,92.194899 C 95.519032,91.51527 97.087582,89.546188 98.894082,90.951523 C 99.541552,91.895833 101.63514,97.993031 102.14565,100.42115 C 102.34801,101.38365 102.51554,102.82156 102.51793,103.6165 C 102.52298,105.3003 102.25772,105.52074 100.76477,105.07344 C 98.192312,104.00034 96.706542,101.4519 95.135262,98.740877 L 92.533139,99.370325 C 92.439131,99.893277 92.52543,100.99854 92.178585,101.46817 C 90.432379,101.06654 78.517418,103.47264 71.748173,103.84366 C 69.902618,103.86107 69.426876,103.77797 68.660503,103.30433 C 67.521196,102.6002 66.307103,100.71419 64.987568,97.598663 L 59.781161,85.225554 C 56.773967,88.295473 53.840993,90.446439 51.131008,92.988236 C 49.964923,99.247738 49.185174,109.9147 49.891383,111.60328 C 49.440549,111.96855 46.341371,111.74164 45.917347,111.70161 C 45.802683,112.16981 45.599244,112.90471 45.650465,113.30225 L 46.075462,113.3921 C 46.198517,115.26742 46.525064,117.1428 45.994943,118.95409 C 45.645158,119.37555 44.204241,119.35937 41.022273,118.89826 C 38.03993,118.41917 34.594765,117.88298 32.562981,115.44562 z M 55.739592,77.853554 C 56.695951,80.511496 58.284861,82.801359 59.583342,84.822304M 61.505217,44.259804 L 63.364592,50.791054" />
  </g>
</svg>
