<?xml version="1.0" encoding="UTF-8" standalone="no"?>
<!-- Created with Inkscape (http://www.inkscape.org/) -->

<svg
   id="svg2"
   sodipodi:version="0.32"
   inkscape:version="1.3.2 (1:1.3.2+202311252150+091e20ef0f)"
   width="128"
   height="128"
   version="1.0"
   sodipodi:docname="action.svg"
   inkscape:output_extension="org.inkscape.output.svg.inkscape"
   inkscape:export-filename="action_48.png"
   inkscape:export-xdpi="33.75"
   inkscape:export-ydpi="33.75"
   xmlns:inkscape="http://www.inkscape.org/namespaces/inkscape"
   xmlns:sodipodi="http://sodipodi.sourceforge.net/DTD/sodipodi-0.dtd"
   xmlns:xlink="http://www.w3.org/1999/xlink"
   xmlns="http://www.w3.org/2000/svg"
   xmlns:svg="http://www.w3.org/2000/svg"
   xmlns:rdf="http://www.w3.org/1999/02/22-rdf-syntax-ns#"
   xmlns:cc="http://creativecommons.org/ns#"
   xmlns:dc="http://purl.org/dc/elements/1.1/">
  <metadata
     id="metadata7">
    <rdf:RDF>
      <cc:Work
         rdf:about="">
        <dc:format>image/svg+xml</dc:format>
        <dc:type
           rdf:resource="http://purl.org/dc/dcmitype/StillImage" />
        <cc:license
           rdf:resource="http://creativecommons.org/licenses/by-sa/4.0/" />
      </cc:Work>
      <cc:License
         rdf:about="http://creativecommons.org/licenses/by-sa/4.0/">
        <cc:permits
           rdf:resource="http://creativecommons.org/ns#Reproduction" />
        <cc:permits
           rdf:resource="http://creativecommons.org/ns#Distribution" />
        <cc:requires
           rdf:resource="http://creativecommons.org/ns#Notice" />
        <cc:requires
           rdf:resource="http://creativecommons.org/ns#Attribution" />
        <cc:permits
           rdf:resource="http://creativecommons.org/ns#DerivativeWorks" />
        <cc:requires
           rdf:resource="http://creativecommons.org/ns#ShareAlike" />
      </cc:License>
    </rdf:RDF>
  </metadata>
  <defs
     id="defs5">
    <linearGradient
       inkscape:collect="always"
       id="linearGradient3916">
      <stop
         style="stop-color:#000000;stop-opacity:1;"
         offset="0"
         id="stop3918" />
      <stop
         style="stop-color:#000000;stop-opacity:0;"
         offset="1"
         id="stop3920" />
    </linearGradient>
    <linearGradient
       inkscape:collect="always"
       id="linearGradient3560">
      <stop
         style="stop-color:#2a2a2a;stop-opacity:1;"
         offset="0"
         id="stop3562" />
      <stop
         style="stop-color:#252525;stop-opacity:1"
         offset="1"
         id="stop3564" />
    </linearGradient>
    <filter
       inkscape:collect="always"
       id="filter3356"
       x="-0.031505635"
       width="1.0630113"
       y="-0.72220609"
       height="2.4444122">
      <feGaussianBlur
         inkscape:collect="always"
         stdDeviation="0.97798742"
         id="feGaussianBlur3358" />
    </filter>
    <linearGradient
       inkscape:collect="always"
       xlink:href="#linearGradient3560"
       id="linearGradient3566"
       x1="32.704414"
       y1="33.977188"
       x2="101.02841"
       y2="99.227188"
       gradientUnits="userSpaceOnUse"
       gradientTransform="matrix(-1,0,0,1,143.72242,0.3535534)" />
    <filter
       color-interpolation-filters="sRGB"
       inkscape:collect="always"
       id="filter3471-7"
       x="-0.018097926"
       y="-0.012325435"
       width="1.0361959"
       height="1.0246509">
      <feGaussianBlur
         inkscape:collect="always"
         stdDeviation="0.59478134"
         id="feGaussianBlur3473-6" />
    </filter>
    <filter
       color-interpolation-filters="sRGB"
       inkscape:collect="always"
       id="filter3556-4"
       x="-0.018475668"
       y="-0.012651107"
       width="1.0369513"
       height="1.0253022">
      <feGaussianBlur
         inkscape:collect="always"
         stdDeviation="0.61041842"
         id="feGaussianBlur3558-2" />
    </filter>
    <linearGradient
       inkscape:collect="always"
       xlink:href="#linearGradient3916"
       id="linearGradient3922"
       x1="53.154182"
       y1="11.740332"
       x2="34.390869"
       y2="11.240332"
       gradientUnits="userSpaceOnUse" />
    <linearGradient
       inkscape:collect="always"
       xlink:href="#linearGradient3916-9"
       id="linearGradient3922-9"
       x1="63.937561"
       y1="42.853031"
       x2="28.380461"
       y2="42.706585"
       gradientUnits="userSpaceOnUse" />
    <linearGradient
       inkscape:collect="always"
       id="linearGradient3916-9">
      <stop
         style="stop-color:#000000;stop-opacity:1;"
         offset="0"
         id="stop3918-3" />
      <stop
         style="stop-color:#000000;stop-opacity:0;"
         offset="1"
         id="stop3920-6" />
    </linearGradient>
    <linearGradient
       inkscape:collect="always"
       xlink:href="#linearGradient3916-9"
       id="linearGradient3957"
       gradientUnits="userSpaceOnUse"
       x1="39.542377"
       y1="25.882467"
       x2="6.1065979"
       y2="26.266352" />
    <linearGradient
       inkscape:collect="always"
       xlink:href="#linearGradient3916-9"
       id="linearGradient3959"
       gradientUnits="userSpaceOnUse"
       x1="36.890728"
       y1="58.939709"
       x2="13.00089"
       y2="58.793266" />
    <linearGradient
       inkscape:collect="always"
       xlink:href="#linearGradient3916-9"
       id="linearGradient3961"
       gradientUnits="userSpaceOnUse"
       x1="26.637678"
       y1="94.471825"
       x2="5.3994913"
       y2="94.148605" />
    <linearGradient
       inkscape:collect="always"
       xlink:href="#linearGradient3916-9"
       id="linearGradient3963"
       gradientUnits="userSpaceOnUse"
       x1="21.864706"
       y1="98.891243"
       x2="2.7478406"
       y2="99.098351" />
    <linearGradient
       inkscape:collect="always"
       xlink:href="#linearGradient3916-9"
       id="linearGradient3965"
       gradientUnits="userSpaceOnUse"
       x1="39.365601"
       y1="82.09745"
       x2="14.238326"
       y2="81.597458" />
    <linearGradient
       inkscape:collect="always"
       xlink:href="#linearGradient3916-9"
       id="linearGradient3967"
       gradientUnits="userSpaceOnUse"
       x1="59.341366"
       y1="75.556717"
       x2="36.158638"
       y2="75.233498" />
    <linearGradient
       inkscape:collect="always"
       xlink:href="#linearGradient3916-9"
       id="linearGradient3971"
       gradientUnits="userSpaceOnUse"
       x1="59.341366"
       y1="75.556717"
       x2="42.876152"
       y2="75.410271"
       gradientTransform="translate(22.804194,36.415999)" />
  </defs>
  <sodipodi:namedview
     inkscape:window-height="1016"
     inkscape:window-width="1868"
     inkscape:pageshadow="2"
     inkscape:pageopacity="0.0"
     guidetolerance="10.0"
     gridtolerance="10.0"
     objecttolerance="10.0"
     borderopacity="1.0"
     bordercolor="#666666"
     pagecolor="#ffffff"
     id="base"
     showgrid="false"
     inkscape:zoom="4"
     inkscape:cx="50.75"
     inkscape:cy="65.375"
     inkscape:window-x="52"
     inkscape:window-y="27"
     inkscape:current-layer="layer2"
     inkscape:window-maximized="1"
     inkscape:showpageshadow="2"
     inkscape:pagecheckerboard="0"
     inkscape:deskcolor="#d1d1d1" />
  <g
     inkscape:groupmode="layer"
     id="layer1"
     inkscape:label="not in time"
     style="display:none">
    <path
       style="color:#000000;display:inline;overflow:visible;visibility:visible;fill:#040404;fill-opacity:0.662602;fill-rule:evenodd;stroke:url(#linearGradient3957);stroke-width:2;stroke-linecap:butt;stroke-linejoin:miter;stroke-miterlimit:4;stroke-dasharray:none;stroke-dashoffset:0;stroke-opacity:1;marker:none;enable-background:accumulate"
       d="M 5.789504,26.240332 H 72.390869"
       id="path3861"
       inkscape:connector-curvature="0"
       sodipodi:nodetypes="cc" />
    <path
       sodipodi:nodetypes="cc"
       inkscape:connector-curvature="0"
       id="path3863"
       d="M 12.663696,58.990332 H 63.140872"
       style="color:#000000;display:inline;overflow:visible;visibility:visible;fill:#040404;fill-opacity:0.662602;fill-rule:evenodd;stroke:url(#linearGradient3959);stroke-width:2;stroke-linecap:butt;stroke-linejoin:miter;stroke-miterlimit:4;stroke-dasharray:none;stroke-dashoffset:0;stroke-opacity:1;marker:none;enable-background:accumulate" />
    <path
       style="color:#000000;display:inline;overflow:visible;visibility:visible;fill:#040404;fill-opacity:0.662602;fill-rule:evenodd;stroke:url(#linearGradient3922-9);stroke-width:2;stroke-linecap:butt;stroke-linejoin:miter;stroke-miterlimit:4;stroke-dasharray:none;stroke-dashoffset:0;stroke-opacity:1;marker:none;enable-background:accumulate"
       d="M 20.342628,42.740332 H 77.890872"
       id="path3867"
       inkscape:connector-curvature="0"
       sodipodi:nodetypes="cc" />
    <path
       sodipodi:nodetypes="cc"
       inkscape:connector-curvature="0"
       id="path3908"
       d="M 20.517249,75.409749 70.640872,75.232973"
       style="color:#000000;display:inline;overflow:visible;visibility:visible;fill:#040404;fill-opacity:0.662602;fill-rule:evenodd;stroke:url(#linearGradient3967);stroke-width:2;stroke-linecap:butt;stroke-linejoin:miter;stroke-miterlimit:4;stroke-dasharray:none;stroke-dashoffset:0;stroke-opacity:1;marker:none;enable-background:accumulate" />
    <path
       style="color:#000000;display:inline;overflow:visible;visibility:visible;fill:#040404;fill-opacity:0.662602;fill-rule:evenodd;stroke:url(#linearGradient3965);stroke-width:2;stroke-linecap:butt;stroke-linejoin:miter;stroke-miterlimit:4;stroke-dasharray:none;stroke-dashoffset:0;stroke-opacity:1;marker:none;enable-background:accumulate"
       d="M 8.0999877,81.422313 69.537319,81.245536"
       id="path3910"
       inkscape:connector-curvature="0"
       sodipodi:nodetypes="cc" />
    <path
       style="color:#000000;display:inline;overflow:visible;visibility:visible;fill:#040404;fill-opacity:0.662602;fill-rule:evenodd;stroke:url(#linearGradient3922);stroke-width:2;stroke-miterlimit:4;stroke-dasharray:none;stroke-opacity:1;marker:none;enable-background:accumulate"
       d="m 30.654181,11.240332 52.236691,-0.25"
       id="path3914"
       inkscape:connector-curvature="0"
       sodipodi:nodetypes="cc" />
    <path
       style="color:#000000;display:inline;overflow:visible;visibility:visible;fill:#040404;fill-opacity:0.662602;fill-rule:evenodd;stroke:url(#linearGradient3971);stroke-width:2;stroke-linecap:butt;stroke-linejoin:miter;stroke-miterlimit:4;stroke-dasharray:none;stroke-dashoffset:0;stroke-opacity:1;marker:none;enable-background:accumulate"
       d="m 43.321443,111.82575 50.123623,-0.17678"
       id="path3969"
       inkscape:connector-curvature="0"
       sodipodi:nodetypes="cc" />
    <path
       style="color:#000000;display:inline;overflow:visible;visibility:visible;fill:#040404;fill-opacity:0.662602;fill-rule:evenodd;stroke:url(#linearGradient3963);stroke-width:2;stroke-linecap:butt;stroke-linejoin:miter;stroke-miterlimit:4;stroke-dasharray:none;stroke-dashoffset:0;stroke-opacity:1;marker:none;enable-background:accumulate"
       d="M 2.2920009,98.990332 38.000892,99.167109"
       id="path3865"
       inkscape:connector-curvature="0"
       sodipodi:nodetypes="cc" />
    <path
       sodipodi:nodetypes="cc"
       inkscape:connector-curvature="0"
       id="path3912"
       d="M 5.1710551,93.990332 H 41.682872"
       style="color:#000000;display:inline;overflow:visible;visibility:visible;fill:#040404;fill-opacity:0.662602;fill-rule:evenodd;stroke:url(#linearGradient3961);stroke-width:2;stroke-linecap:butt;stroke-linejoin:miter;stroke-miterlimit:4;stroke-dasharray:none;stroke-dashoffset:0;stroke-opacity:1;marker:none;enable-background:accumulate" />
  </g>
  <g
     inkscape:groupmode="layer"
     id="layer2"
     inkscape:label="people"
     style="display:inline">
    <ellipse
       style="display:inline;overflow:visible;visibility:visible;fill:#2d1010;fill-opacity:0.13289;fill-rule:evenodd;stroke:none;stroke-width:5;marker:none;filter:url(#filter3356);enable-background:accumulate"
       id="path3290"
       transform="matrix(1.1744966,0,0,1,-0.772153,2.9571068)"
       cx="76"
       cy="120.625"
       rx="37.25"
       ry="1.625"
       inkscape:label="shadow" />
    <path
       sodipodi:nodetypes="ccccccccccsssccssssssssssccccccccsccccccccccccccccccccccccccccccccsssccssssssssccccccccccccccsscccccscccccccccc"
       id="path3360"
       d="m 105.14903,115.44562 c 0.0496,-0.25613 -0.32434,-0.82414 -0.90807,-1.37943 -1.77882,-1.54115 -4.74587,-1.24977 -6.962276,-1.15698 l -0.409499,-1.92567 c 0.601495,-0.0774 -0.0123,0.0366 0.41213,-0.35754 C 97.04681,108.11999 96.917363,96.162033 94.569789,89.421148 93.744394,88.027941 82.302472,77.309154 82.050331,77.464988 c 0.183021,-1.279084 0.265252,-2.23676 0.480863,-2.707897 0.160368,0.015 0.286545,0.01685 0.418768,-0.0039 2.295519,-8.056593 1.881655,-16.402029 2.540596,-25.367323 0.317615,0 1.631811,1.238371 4.022399,3.266754 3.873382,3.28651 5.729462,4.358275 7.046655,4.06897 1.098417,-0.241255 3.002548,-1.196367 4.045988,-1.948125 2.33883,-1.685036 4.79768,-3.235021 7.11499,-4.949019 -0.0259,-0.143539 -0.1053,-0.297052 -0.23044,-0.517664 0.2588,-0.290332 1.45988,-0.691208 2.4261,-0.89273 0.80944,-0.168823 1.76342,-0.45993 2.11996,-0.6469 0.35655,-0.186972 1.05967,-0.417127 1.5625,-0.51146 0.8693,-0.16308 0.91425,-0.220122 0.91425,-1.160182 0,-0.543768 0.0353,-1.128638 -0.0811,-1.209644 -0.23021,-0.160204 -0.40765,-1.003418 -0.41887,-1.277189 -0.0105,-0.256193 -0.44121,-0.702557 -0.78365,-1.026517 -0.62085,-0.587328 -0.62519,-0.587693 -1.51863,-0.126655 -0.49281,0.2543 -1.45851,0.519355 -2.14601,0.589015 -1.10916,0.112385 -1.29225,0.216922 -1.625,0.927835 -0.2623,0.560402 -1.06985,1.491538 -1.58981,1.73369 -0.0504,-0.07273 -0.15718,-0.185454 -0.28519,-0.2645 -3.43801,1.549081 -6.369789,3.968889 -9.603854,5.854632 -3.472847,-2.870396 -6.543827,-6.197142 -10.284875,-8.770455 -1.245715,-0.67027 -1.456684,-1.103082 -1.856047,-2.277996 -0.206249,-0.04651 -0.273552,-0.07848 -0.405971,-0.137594 0.01442,-1.923843 0.739377,-3.723643 1.475771,-5.466144 1.331997,0.333653 3.200385,0.975549 4.929875,1.240717 0.391622,-0.150278 3.265791,-2.875162 3.948621,-4.109975 0.22811,-0.4125 0.320751,-1.650213 0.800044,-2.31835 0.472558,-0.307412 1.506553,-0.580752 1.600644,-0.861245 0.336828,-1.260808 -1.298953,-6.629789 -1.126616,-7.509675 0.09081,-0.424106 0.965607,-1.175989 1.132897,-1.68847 0.406141,-1.344581 0.545895,-2.908507 0.565641,-4.292104 0.124998,0.07725 0.150961,0.08045 0.406826,0.148737 -0.06549,-1.114367 -0.180206,-2.174455 -0.6368,-3.324298 0.125379,-0.140335 0.3364,-0.139879 0.498706,-0.207368 C 96.276151,8.1918065 93.213849,5.706793 90.040614,3.9481762 90.074172,3.7684768 90.109036,3.8723167 90.66105,3.7172521 89.79885,3.3854108 87.560266,3.3351017 86.092157,3.69264 85.135051,3.56612 84.083351,3.317978 83.314734,3.4338 l 0.268814,0.3917078 c -0.776621,0.1631059 -4.590984,0.7146728 -5.101289,1.5863422 0.699414,0.1443114 1.201733,-0.074234 1.358518,0.1697941 -1.54634,0.9315278 -5.375314,1.6964015 -7.151943,5.0895039 l 2.374643,1.28086 c -2.416791,0.737168 -4.564717,1.640776 -5.25135,3.448994 1.607827,0.05124 2.833176,0.867434 3.859017,2.082646 -1.695218,1.660897 -3.479357,3.010568 -5.506215,3.510723 1.394154,0.672361 3.03684,0.940859 5.096666,0.531502 -1.363997,0.99879 -2.934289,1.983827 -3.101652,3.062393 1.664231,-0.777636 2.930995,0.133961 4.279791,0.696922 -1.203808,1.015848 -3.153706,1.73326 -2.831452,3.359533 1.665564,-0.778072 2.451885,0.007 3.405262,0.494992 0.41046,1.629265 -1.141479,2.52263 -1.92725,3.703309 1.34741,0.02359 2.694821,-0.44576 4.042231,-1.505302 -0.810785,0.785663 -0.806267,1.571325 -0.803886,2.356988 1.794858,-0.14678 4.638796,-1.711654 4.619638,-0.870755 -0.511264,2.186428 -0.966639,4.413599 -1.736644,6.448015 l -0.331007,-0.07983 c -1.304773,1.598429 -1.907096,3.287269 -2.66817,5.108723 -3.193681,1.420441 -7.031093,3.494101 -10.017373,5.288859 -0.579071,0.348023 -1.416233,0.969061 -1.803242,1.48227 -0.387009,0.513208 -0.898942,1.004933 -1.039273,1.189222 -2.065386,2.71236 -3.893065,5.657538 -5.848555,8.473184 l 0.523281,0.474305 c -0.646197,1.010122 -1.386339,2.082529 -2.186298,2.421396 -0.372878,0.157953 -0.66145,0.871875 -1.223188,1.9375 -0.968502,1.83726 -0.591185,2.456343 -0.181857,2.871208 0.237407,0.240625 0.631819,0.393306 0.849449,0.393306 0.217633,0 0.565778,0.455674 0.611613,0.580489 0.04583,0.12481 0.509221,0.370883 0.921721,0.411783 0.58795,0.0583 0.973305,-0.139283 1.78351,-0.914435 1.207747,-1.155495 1.603819,-2.167168 1.411065,-3.604235 -0.120793,-0.900562 -0.472095,-0.955695 0.460404,-1.745829 0.07838,0.04549 0.138334,0.120056 0.317991,0.139055 1.962072,-1.959061 3.781943,-4.714095 5.47505,-6.903614 0.166097,-0.206705 0.673312,-0.84885 1.127162,-1.42699 1.919847,-2.053094 4.662883,-2.992656 6.947933,-4.554479 -1.46007,6.333266 -6.047535,18.541292 -7.758886,20.849119 0.759685,0.498287 2.14004,0.979158 2.79596,1.074323 -0.725505,2.464751 -0.893082,4.791831 -0.177337,7.249745 -1.714413,4.874848 -3.119183,9.646481 -4.334267,14.354885 -6.024181,-1.368607 -12.710896,-1.287232 -17.756655,-2.166628 -0.418722,0.103266 -0.470865,0.610842 -0.687061,0.844824 l -2.353062,-0.404638 0.0095,-0.420585 c -1.883078,-0.679629 -3.451628,-2.648711 -5.258128,-1.243376 -0.64747,0.94431 -2.741058,7.041508 -3.251568,9.469625 -0.20236,0.9625 -0.36989,2.40041 -0.37228,3.19535 -0.0051,1.6838 0.26021,1.90424 1.75316,1.45694 2.572458,-1.0731 4.058228,-3.62154 5.629508,-6.332561 l 2.602123,0.629448 c 0.09401,0.522952 0.0077,1.628213 0.354554,2.097843 1.746206,-0.40163 13.661167,2.00447 20.430412,2.37549 1.845555,0.0174 2.321297,-0.0657 3.08767,-0.53933 1.139307,-0.70413 2.3534,-2.59014 3.672935,-5.705665 l 5.206407,-12.373109 c 3.007194,3.069919 5.940168,5.220885 8.650153,7.762682 1.166085,6.259502 1.945834,16.926462 1.239625,18.615042 0.450834,0.36527 3.550012,0.13836 3.974036,0.0983 0.114664,0.4682 0.318103,1.2031 0.266882,1.60064 l -0.424997,0.0898 c -0.123055,1.87532 -0.449602,3.7507 0.08052,5.56199 0.349785,0.42146 1.790702,0.40528 4.97267,-0.0558 2.982343,-0.47909 6.427507,-1.01528 8.459287,-3.45264 z"
       style="display:inline;overflow:visible;visibility:visible;fill:none;stroke:#0b0b0b;stroke-width:4;stroke-linecap:butt;stroke-linejoin:miter;stroke-miterlimit:4;stroke-dasharray:none;stroke-dashoffset:0;stroke-opacity:1;marker:none;enable-background:accumulate"
       inkscape:connector-curvature="0"
       inkscape:label="big_outline" />
    <path
       style="display:inline;overflow:visible;visibility:visible;fill:url(#linearGradient3566);fill-opacity:1;fill-rule:evenodd;stroke:none;stroke-width:1;marker:none;enable-background:accumulate"
       d="m 105.14903,115.44562 c 0.0496,-0.25613 -0.32434,-0.82414 -0.90807,-1.37943 -1.77882,-1.54115 -4.74587,-1.24977 -6.962276,-1.15698 l -0.409499,-1.92567 c 0.601495,-0.0774 -0.0123,0.0366 0.41213,-0.35754 C 97.04681,108.11999 96.917363,96.162033 94.569789,89.421148 93.744394,88.027941 82.302472,77.309154 82.050331,77.464988 c 0.183021,-1.279084 0.265252,-2.23676 0.480863,-2.707897 0.160368,0.015 0.286545,0.01685 0.418768,-0.0039 2.295519,-8.056593 1.881655,-16.402029 2.540596,-25.367323 0.317615,0 1.631811,1.238371 4.022399,3.266754 3.873382,3.28651 5.729462,4.358275 7.046655,4.06897 1.098417,-0.241255 3.002548,-1.196367 4.045988,-1.948125 2.33883,-1.685036 4.79768,-3.235021 7.11499,-4.949019 -0.0259,-0.143539 -0.1053,-0.297052 -0.23044,-0.517664 0.2588,-0.290332 1.45988,-0.691208 2.4261,-0.89273 0.80944,-0.168823 1.76342,-0.45993 2.11996,-0.6469 0.35655,-0.186972 1.05967,-0.417127 1.5625,-0.51146 0.8693,-0.16308 0.91425,-0.220122 0.91425,-1.160182 0,-0.543768 0.0353,-1.128638 -0.0811,-1.209644 -0.23021,-0.160204 -0.40765,-1.003418 -0.41887,-1.277189 -0.0105,-0.256193 -0.44121,-0.702557 -0.78365,-1.026517 -0.62085,-0.587328 -0.62519,-0.587693 -1.51863,-0.126655 -0.49281,0.2543 -1.45851,0.519355 -2.14601,0.589015 -1.10916,0.112385 -1.29225,0.216922 -1.625,0.927835 -0.2623,0.560402 -1.06985,1.491538 -1.58981,1.73369 -0.0504,-0.07273 -0.15718,-0.185454 -0.28519,-0.2645 -3.43801,1.549081 -6.369789,3.968889 -9.603854,5.854632 -3.472847,-2.870396 -6.543827,-6.197142 -10.284875,-8.770455 -1.245715,-0.67027 -1.456684,-1.103082 -1.856047,-2.277996 -0.206249,-0.04651 -0.273552,-0.07848 -0.405971,-0.137594 0.01442,-1.923843 0.739377,-3.723643 1.475771,-5.466144 1.331997,0.333653 3.200385,0.975549 4.929875,1.240717 0.391622,-0.150278 3.265791,-2.875162 3.948621,-4.109975 0.22811,-0.4125 0.320751,-1.650213 0.800044,-2.31835 0.472558,-0.307412 1.506553,-0.580752 1.600644,-0.861245 0.336828,-1.260808 -1.298953,-6.629789 -1.126616,-7.509675 0.09081,-0.424106 0.965607,-1.175989 1.132897,-1.68847 0.406141,-1.344581 0.545895,-2.908507 0.565641,-4.292104 0.124998,0.07725 0.150961,0.08045 0.406826,0.148737 -0.06549,-1.114367 -0.180206,-2.174455 -0.6368,-3.324298 0.125379,-0.140335 0.3364,-0.139879 0.498706,-0.207368 C 96.276151,8.1918065 93.213849,5.706793 90.040614,3.9481762 90.074172,3.7684768 90.109036,3.8723167 90.66105,3.7172521 89.79885,3.3854108 87.560266,3.3351017 86.092157,3.69264 85.135051,3.56612 84.083351,3.317978 83.314734,3.4338 l 0.268814,0.3917078 c -0.776621,0.1631059 -4.590984,0.7146728 -5.101289,1.5863422 0.699414,0.1443114 1.201733,-0.074234 1.358518,0.1697941 -1.54634,0.9315278 -5.375314,1.6964015 -7.151943,5.0895039 l 2.374643,1.28086 c -2.416791,0.737168 -4.564717,1.640776 -5.25135,3.448994 1.607827,0.05124 2.833176,0.867434 3.859017,2.082646 -1.695218,1.660897 -3.479357,3.010568 -5.506215,3.510723 1.394154,0.672361 3.03684,0.940859 5.096666,0.531502 -1.363997,0.99879 -2.934289,1.983827 -3.101652,3.062393 1.664231,-0.777636 2.930995,0.133961 4.279791,0.696922 -1.203808,1.015848 -3.153706,1.73326 -2.831452,3.359533 1.665564,-0.778072 2.451885,0.007 3.405262,0.494992 0.41046,1.629265 -1.141479,2.52263 -1.92725,3.703309 1.34741,0.02359 2.694821,-0.44576 4.042231,-1.505302 -0.810785,0.785663 -0.806267,1.571325 -0.803886,2.356988 1.794858,-0.14678 4.638796,-1.711654 4.619638,-0.870755 -0.511264,2.186428 -0.966639,4.413599 -1.736644,6.448015 l -0.331007,-0.07983 c -1.304773,1.598429 -1.907096,3.287269 -2.66817,5.108723 -3.193681,1.420441 -7.031093,3.494101 -10.017373,5.288859 -0.579071,0.348023 -1.416233,0.969061 -1.803242,1.48227 -0.387009,0.513208 -0.898942,1.004933 -1.039273,1.189222 -2.065386,2.71236 -3.893065,5.657538 -5.848555,8.473184 l 0.523281,0.474305 c -0.646197,1.010122 -1.386339,2.082529 -2.186298,2.421396 -0.372878,0.157953 -0.66145,0.871875 -1.223188,1.9375 -0.968502,1.83726 -0.591185,2.456343 -0.181857,2.871208 0.237407,0.240625 0.631819,0.393306 0.849449,0.393306 0.217633,0 0.565778,0.455674 0.611613,0.580489 0.04583,0.12481 0.509221,0.370883 0.921721,0.411783 0.58795,0.0583 0.973305,-0.139283 1.78351,-0.914435 1.207747,-1.155495 1.603819,-2.167168 1.411065,-3.604235 -0.120793,-0.900562 -0.472095,-0.955695 0.460404,-1.745829 0.07838,0.04549 0.138334,0.120056 0.317991,0.139055 1.962072,-1.959061 3.781943,-4.714095 5.47505,-6.903614 0.166097,-0.206705 0.673312,-0.84885 1.127162,-1.42699 1.919847,-2.053094 4.662883,-2.992656 6.947933,-4.554479 -1.46007,6.333266 -6.047535,18.541292 -7.758886,20.849119 0.759685,0.498287 2.14004,0.979158 2.79596,1.074323 -0.725505,2.464751 -0.893082,4.791831 -0.177337,7.249745 -1.714413,4.874848 -3.119183,9.646481 -4.334267,14.354885 -6.024181,-1.368607 -12.710896,-1.287232 -17.756655,-2.166628 -0.418722,0.103266 -0.470865,0.610842 -0.687061,0.844824 l -2.353062,-0.404638 0.0095,-0.420585 c -1.883078,-0.679629 -3.451628,-2.648711 -5.258128,-1.243376 -0.64747,0.94431 -2.741058,7.041508 -3.251568,9.469625 -0.20236,0.9625 -0.36989,2.40041 -0.37228,3.19535 -0.0051,1.6838 0.26021,1.90424 1.75316,1.45694 2.572458,-1.0731 4.058228,-3.62154 5.629508,-6.332561 l 2.602123,0.629448 c 0.09401,0.522952 0.0077,1.628213 0.354554,2.097843 1.746206,-0.40163 13.661167,2.00447 20.430412,2.37549 1.845555,0.0174 2.321297,-0.0657 3.08767,-0.53933 1.139307,-0.70413 2.3534,-2.59014 3.672935,-5.705665 l 5.206407,-12.373109 c 3.007194,3.069919 5.940168,5.220885 8.650153,7.762682 1.166085,6.259502 1.945834,16.926462 1.239625,18.615042 0.450834,0.36527 3.550012,0.13836 3.974036,0.0983 0.114664,0.4682 0.318103,1.2031 0.266882,1.60064 l -0.424997,0.0898 c -0.123055,1.87532 -0.449602,3.7507 0.08052,5.56199 0.349785,0.42146 1.790702,0.40528 4.97267,-0.0558 2.982343,-0.47909 6.427507,-1.01528 8.459287,-3.45264 z"
       id="path2517"
       sodipodi:nodetypes="ccccccccccsssccssssssssssccccccccsccccccccccccccccccccccccccccccccsssccssssssssccccccccccccccsscccccscccccccccc"
       inkscape:connector-curvature="0" />
    <path
       style="display:inline;overflow:visible;visibility:visible;fill:#555555;fill-opacity:0.395349;fill-rule:evenodd;stroke:none;stroke-width:1;marker:none;enable-background:accumulate"
       d="m 82.034915,77.478554 c 0.252141,-0.155834 11.705855,10.544291 12.53125,11.9375 2.347574,6.740885 2.484246,18.712746 2.71875,21.218756 -0.424431,0.39411 0.195245,0.2664 -0.40625,0.34375 l 0.40625,1.9375 c 2.216406,-0.0928 5.189925,-0.3849 6.968745,1.15625 0.58374,0.55529 0.95584,1.11887 0.90625,1.375 -2.03178,2.43736 -5.486402,2.95841 -8.468745,3.4375 -3.181968,0.46111 -4.618964,0.48396 -4.96875,0.0625 -0.530121,-1.81129 -0.216806,-3.68718 -0.09375,-5.5625 l 0.4375,-0.0937 c 0.05122,-0.39754 -0.166588,-1.12555 -0.28125,-1.59375 -0.424024,0.04 -3.517916,0.27152 -3.96875,-0.0937 0.706209,-1.68858 -0.08392,-12.365504 -1.25,-18.625006 -2.709985,-2.541797 -5.617802,-4.680083 -8.625,-7.75 0.361359,-1.029781 2.490764,-4.096611 4.09375,-7.75 z"
       id="path3366"
       inkscape:connector-curvature="0" />
    <path
       style="display:inline;overflow:visible;visibility:visible;fill:#555555;fill-opacity:0.395349;fill-rule:evenodd;stroke:none;stroke-width:1;marker:none;enable-background:accumulate"
       d="m 74.347415,50.822304 c -2.28505,1.561823 -5.048905,2.478157 -6.96875,4.53125 -0.45385,0.57814 -0.958901,1.230795 -1.125,1.4375 -1.693107,2.189519 -3.506681,4.947189 -5.46875,6.90625 -0.179657,-0.019 -0.234122,-0.07951 -0.3125,-0.125 -0.932499,0.790134 -0.589545,0.818189 -0.46875,1.71875 0.192754,1.437067 -0.198506,2.469508 -1.40625,3.625 -0.810205,0.775152 -1.193297,0.964549 -1.78125,0.90625 -0.4125,-0.0409 -0.891675,-0.28144 -0.9375,-0.40625 -0.04583,-0.124815 -0.376115,-0.593749 -0.59375,-0.59375 -0.21763,0 -0.606341,-0.134377 -0.84375,-0.375 -0.409328,-0.414865 -0.781005,-1.037742 0.1875,-2.875 0.561738,-1.065625 0.845875,-1.779549 1.21875,-1.9375 0.799959,-0.338867 1.541302,-1.427378 2.1875,-2.4375 l -0.53125,-0.46875 c 1.95549,-2.815646 3.778365,-5.756392 5.84375,-8.46875 0.140331,-0.184289 0.644239,-0.674291 1.03125,-1.1875 0.387009,-0.513209 1.233431,-1.120727 1.8125,-1.46875 2.98628,-1.794758 6.837572,-3.892058 10.03125,-5.3125 z"
       id="path3586"
       inkscape:connector-curvature="0" />
    <g
       id="g3850"
       transform="translate(12)"
       style="display:inline"
       inkscape:label="light relief">
      <path
         id="path3015"
         d="M 71.9375,3.40625 C 71.715862,3.3973 71.504654,3.40854 71.3125,3.4375 l 0.28125,0.375 c -0.776621,0.1631059 -4.614695,0.7220806 -5.125,1.59375 0.699414,0.1443114 1.218215,-0.056528 1.375,0.1875 -1.54634,0.9315278 -5.379621,1.6693976 -7.15625,5.0625 L 62.03125,11.375 C 63.941612,8.6187703 67.295076,7.8888826 68.71875,7.03125 68.561965,6.7872219 68.074414,7.0193114 67.375,6.875 67.885305,6.0033306 71.692129,5.4443559 72.46875,5.28125 l -0.28125,-0.375 c 0.768617,-0.115822 1.824144,0.12348 2.78125,0.25 1.468109,-0.3575384 3.7003,-0.3005913 4.5625,0.03125 C 78.979234,5.3425651 78.97106,5.226551 78.9375,5.40625 81.247393,6.6863997 83.470316,8.3583469 85,10.53125 83.554871,7.6217416 80.836019,5.4919119 78.03125,3.9375 78.06481,3.7578006 78.10424,3.873815 78.65625,3.71875 77.79405,3.3869087 75.561859,3.3299617 74.09375,3.6875 73.375921,3.59261 72.602415,3.4331082 71.9375,3.40625 Z m -10,8.9375 c -1.929376,0.67953 -3.548857,1.545254 -4.125,3.0625 0.578199,0.01843 1.105968,0.113239 1.59375,0.3125 1.000113,-1.090198 2.681475,-1.748283 4.53125,-2.3125 z m -0.59375,5.4375 c -1.599185,1.517061 -3.288739,2.750205 -5.1875,3.21875 0.830227,0.400395 1.770394,0.662659 2.8125,0.71875 1.271725,-0.671916 2.450171,-1.660823 3.59375,-2.78125 -0.374885,-0.444089 -0.781648,-0.836596 -1.21875,-1.15625 z m 0.8125,5.1875 c -1.094755,0.217565 -2.084342,0.249249 -2.96875,0.125 -0.548892,0.486509 -0.95091,0.982254 -1.03125,1.5 0.783007,-0.365871 1.468022,-0.357252 2.125,-0.1875 0.56379,-0.47244 1.236605,-0.970034 1.875,-1.4375 z m -0.6875,3 c -1.053385,0.714932 -2.119544,1.453397 -1.875,2.6875 0.624586,-0.291777 1.130025,-0.36226 1.5625,-0.3125 0.0053,-0.0051 0.02589,0.0051 0.03125,0 0.611102,-0.576234 1.465221,-1.036987 2.125,-1.59375 -0.621278,-0.259309 -1.210421,-0.573159 -1.84375,-0.78125 z m 1.5625,4.15625 c -0.250721,1.056425 -1.32477,1.798078 -1.9375,2.71875 0.856744,0.015 1.705756,-0.185159 2.5625,-0.59375 0.2765,-0.473241 0.410509,-1.01913 0.25,-1.65625 -0.293755,-0.150361 -0.582358,-0.316397 -0.875,-0.46875 z M 66,32.78125 c -0.454751,0.357595 -0.888999,0.648119 -1.34375,0.875 0.267311,-0.04235 0.555112,-0.108852 0.84375,-0.1875 0.11786,-0.227076 0.265663,-0.460424 0.5,-0.6875 z m 3.375,1.25 c -0.194647,0.0205 -0.46874,0.104159 -0.75,0.1875 -0.396394,1.723855 -0.801019,3.463429 -1.40625,5.0625 L 66.875,39.1875 c -1.304773,1.598429 -1.895176,3.303546 -2.65625,5.125 -3.193681,1.420441 -7.04497,3.486492 -10.03125,5.28125 -0.579071,0.348023 -1.425491,0.955541 -1.8125,1.46875 -0.387009,0.513208 -0.890919,1.003211 -1.03125,1.1875 -2.065386,2.71236 -3.88826,5.684354 -5.84375,8.5 l 0.53125,0.46875 c -0.646197,1.010122 -1.387541,2.067383 -2.1875,2.40625 -0.372878,0.157953 -0.657012,0.871875 -1.21875,1.9375 -0.968502,1.83726 -0.596828,2.460135 -0.1875,2.875 0.127045,0.128767 0.302934,0.212773 0.46875,0.28125 0.03744,-0.412199 0.200505,-0.941509 0.59375,-1.6875 0.561738,-1.065625 0.845872,-1.779547 1.21875,-1.9375 0.799959,-0.338867 1.541303,-1.427378 2.1875,-2.4375 L 46.375,62.1875 c 1.95549,-2.815646 3.778364,-5.75639 5.84375,-8.46875 0.140331,-0.184289 0.675491,-0.674292 1.0625,-1.1875 0.387009,-0.513209 1.202179,-1.120727 1.78125,-1.46875 2.98628,-1.794758 6.837569,-3.892059 10.03125,-5.3125 0.761074,-1.821454 1.351477,-3.495321 2.65625,-5.09375 l 0.34375,0.0625 c 0.770005,-2.034416 1.238736,-4.251072 1.75,-6.4375 0.0048,-0.210225 -0.17678,-0.280749 -0.46875,-0.25 z m 3.4375,7.34375 c -0.002,0.06235 4.69e-4,0.124884 0,0.1875 0.06007,0.02681 0.135184,0.04297 0.1875,0.0625 -0.06414,-0.07792 -0.134172,-0.164382 -0.1875,-0.25 z m 0.5,0.59375 c 0.345087,0.969863 0.608095,1.385586 1.75,2 3.741048,2.573313 6.808403,5.910854 10.28125,8.78125 3.234065,-1.885743 6.15574,-4.294669 9.59375,-5.84375 0.128006,0.07905 0.23085,0.17727 0.28125,0.25 0.519962,-0.242152 1.331447,-1.158348 1.59375,-1.71875 0.332751,-0.710913 0.515832,-0.825115 1.625,-0.9375 0.6875,-0.06966 1.66344,-0.33945 2.15625,-0.59375 0.86232,-0.444977 0.90922,-0.433795 1.46875,0.09375 -0.0292,-0.147102 -0.0592,-0.325761 -0.0625,-0.40625 -0.0105,-0.256193 -0.43881,-0.67604 -0.78125,-1 -0.62085,-0.587328 -0.60656,-0.586038 -1.5,-0.125 -0.49281,0.2543 -1.46875,0.49284 -2.15625,0.5625 -1.109168,0.112385 -1.292249,0.226587 -1.625,0.9375 -0.262303,0.560402 -1.073788,1.507848 -1.59375,1.75 -0.0504,-0.07273 -0.153244,-0.202204 -0.28125,-0.28125 -3.43801,1.549081 -6.359685,3.958007 -9.59375,5.84375 -3.472847,-2.870396 -6.540202,-6.176687 -10.28125,-8.75 -0.371643,-0.199966 -0.655074,-0.378793 -0.875,-0.5625 z m -10.09375,10.3125 c -0.482475,0.32977 -0.98875,0.615624 -1.5,0.90625 -1.854302,6.616578 -5.607254,16.422007 -7.125,18.46875 0.357576,0.234539 0.851425,0.467834 1.34375,0.65625 1.969124,-3.523292 5.942322,-14.223454 7.28125,-20.03125 z M 57.09375,73.875 C 56.633122,75.927649 56.582544,77.922544 57.1875,80 55.473087,84.874848 54.090084,89.635346 52.875,94.34375 46.850819,92.975143 40.139509,93.066896 35.09375,92.1875 c -0.418722,0.103266 -0.471304,0.609768 -0.6875,0.84375 L 32.0625,92.625 v -0.4375 c -1.883078,-0.679629 -3.4435,-2.655335 -5.25,-1.25 -0.64747,0.94431 -2.73949,7.040631 -3.25,9.46875 -0.20236,0.9625 -0.37261,2.42381 -0.375,3.21875 -0.0039,1.27867 0.147799,1.71694 0.875,1.65625 -0.0015,-0.0832 -2.78e-4,-0.12703 0,-0.21875 0.0024,-0.79494 0.17264,-2.225 0.375,-3.1875 0.51051,-2.428119 2.60253,-8.52444 3.25,-9.46875 1.8065,-1.405335 3.398172,0.570371 5.28125,1.25 l -0.03125,0.40625 2.375,0.40625 C 35.528696,94.234768 35.581278,93.728266 36,93.625 c 5.045759,0.879396 11.725819,0.818893 17.75,2.1875 1.215084,-4.708404 2.629337,-9.500152 4.34375,-14.375 -0.715745,-2.457914 -0.569255,-4.785249 0.15625,-7.25 -0.286965,-0.04163 -0.704602,-0.154053 -1.15625,-0.3125 z m 13.9375,4.34375 c -0.03261,0.245541 -0.05405,0.441272 -0.09375,0.71875 0.224106,-0.138507 9.251392,8.265469 11.84375,11.125 C 82.71352,89.846931 82.634319,89.612473 82.5625,89.40625 81.870499,88.238203 73.797431,80.592656 71.03125,78.21875 Z M 74.71875,93.75 c 1.093817,6.32441 1.773778,16.21777 1.09375,17.84375 0.143684,0.11641 0.584394,0.16617 1.09375,0.1875 0.259873,-3.41443 -0.438349,-11.980343 -1.4375,-17.34375 -0.249144,-0.233682 -0.497202,-0.459407 -0.75,-0.6875 z m -41.4375,6.90625 c 0.03896,0.32061 0.108446,0.62084 0.25,0.8125 0.135123,-0.0311 0.343946,-0.0315 0.59375,-0.0312 -0.01151,-0.21084 -0.03619,-0.44741 -0.0625,-0.59375 l -0.78125,-0.1875 z m 53.78125,12.1875 c -0.422454,0.0111 -0.821541,0.0122 -1.21875,0.0312 l 0.3125,1.5 c 2.202642,-0.0922 5.155127,-0.38404 6.9375,1.125 0.01903,-0.0222 0.04371,-0.04 0.0625,-0.0625 0.04959,-0.25613 -0.32252,-0.81971 -0.90625,-1.375 -1.334121,-1.15586 -3.334589,-1.26761 -5.1875,-1.21875 z m -6.375,0.3125 c -0.06626,0.006 -0.448392,0.0188 -0.625,0.0312 -9.3e-4,0.0375 0.0043,0.0919 0,0.125 l -0.4375,0.0937 c -0.123055,1.87532 -0.436372,3.75121 0.09375,5.5625 0.107665,0.12973 0.322878,0.20341 0.65625,0.25 -0.164525,-1.43981 0.05975,-2.90432 0.15625,-4.375 L 80.9375,114.75 c 0.05122,-0.39754 -0.135336,-1.12555 -0.25,-1.59375 z"
         style="color:#000000;display:inline;overflow:visible;visibility:visible;fill:#ffffff;fill-opacity:0.438538;fill-rule:evenodd;stroke:none;stroke-width:1;marker:none;filter:url(#filter3471-7);enable-background:accumulate"
         inkscape:connector-curvature="0" />
      <path
         id="path3821"
         d="m 77.09375,3.46875 c 2.922002,1.7306431 5.636531,4.0986946 6.78125,7.375 -0.162306,0.06749 -0.374621,0.07841 -0.5,0.21875 0.456594,1.149843 0.59076,2.198133 0.65625,3.3125 -0.255865,-0.06829 -0.281252,-0.079 -0.40625,-0.15625 -0.01975,1.383597 -0.156359,2.967919 -0.5625,4.3125 -0.16729,0.512481 -1.06544,1.263394 -1.15625,1.6875 -0.172337,0.879886 1.461828,6.239192 1.125,7.5 -0.09409,0.280493 -1.121192,0.567588 -1.59375,0.875 -0.479293,0.668137 -0.55314,1.9 -0.78125,2.3125 C 79.97342,32.141063 77.079122,34.849722 76.6875,35 74.95801,34.734832 73.081997,34.114903 71.75,33.78125 c -0.736394,1.742501 -1.45433,3.544907 -1.46875,5.46875 0.132419,0.05911 0.200001,0.07849 0.40625,0.125 0.399363,1.174914 0.629285,1.61098 1.875,2.28125 3.741048,2.573313 6.808403,5.879604 10.28125,8.75 0.117961,-0.06878 0.226554,-0.148615 0.34375,-0.21875 -2.968399,-2.596716 -5.723761,-5.40266 -9,-7.65625 -1.245715,-0.67027 -1.475637,-1.106336 -1.875,-2.28125 -0.206249,-0.04651 -0.273831,-0.06589 -0.40625,-0.125 0.01442,-1.923843 0.732356,-3.726249 1.46875,-5.46875 1.331997,0.333653 3.20801,0.953582 4.9375,1.21875 0.391622,-0.150278 3.28592,-2.858937 3.96875,-4.09375 0.22811,-0.4125 0.301957,-1.644363 0.78125,-2.3125 0.472558,-0.307412 1.499659,-0.594507 1.59375,-0.875 0.336828,-1.260808 -1.297337,-6.620114 -1.125,-7.5 0.09081,-0.424106 0.98896,-1.175019 1.15625,-1.6875 0.406141,-1.344581 0.542754,-2.928903 0.5625,-4.3125 0.124998,0.07725 0.150385,0.08796 0.40625,0.15625 C 85.59076,14.135633 85.456594,13.087343 85,11.9375 85.125379,11.797165 85.337694,11.786239 85.5,11.71875 84.266589,8.1885975 81.204485,5.6961168 78.03125,3.9375 c 0.03356,-0.1796994 0.07299,-0.063685 0.625,-0.21875 -0.340459,-0.1310351 -0.925,-0.2145377 -1.5625,-0.25 z m -19.0625,11.5 c -0.07771,0.139719 -0.161002,0.285423 -0.21875,0.4375 0.401957,0.01281 0.767994,0.05354 1.125,0.15625 -0.2863,-0.219808 -0.586638,-0.440565 -0.90625,-0.59375 z m 1.59375,5.6875 c -1.005612,0.199849 -1.892363,0.216391 -2.71875,0.125 -0.01997,-0.0022 -0.04262,0.0024 -0.0625,0 -0.227671,0.07952 -0.453601,0.161032 -0.6875,0.21875 0.65319,0.315015 1.376608,0.515469 2.15625,0.625 0.429057,-0.323057 0.872329,-0.646434 1.3125,-0.96875 z m -0.90625,2.90625 c -0.293701,0.33324 -0.508313,0.682042 -0.5625,1.03125 0.921412,-0.430543 1.709635,-0.321719 2.46875,-0.0625 0.05787,-0.04531 0.132464,-0.07856 0.1875,-0.125 -0.693193,-0.289325 -1.378802,-0.646886 -2.09375,-0.84375 z m 1.0625,3.9375 c -0.180025,0.327334 -0.273444,0.722528 -0.1875,1.15625 0.752151,-0.351369 1.322604,-0.396119 1.8125,-0.28125 C 61.39805,28.33254 61.38596,28.29348 61.375,28.25 60.852158,27.98238 60.376179,27.639497 59.78125,27.5 Z M 63.5,30.46875 c -0.336852,0.264885 -0.663147,0.494869 -1,0.6875 -0.434899,0.574584 -1.013364,1.097161 -1.40625,1.6875 0.535916,0.0094 1.057834,-0.06605 1.59375,-0.21875 0.0022,-0.723808 0.06555,-1.432442 0.8125,-2.15625 z m 3.34375,1.25 c -0.529195,0.05573 -1.435694,0.392172 -2.375,0.6875 -0.136447,0.435349 -0.157569,0.8459 -0.15625,1.28125 0.832926,-0.06811 1.88745,-0.453249 2.78125,-0.75 0.07646,-0.333522 0.141009,-0.667541 0.21875,-1 0.0048,-0.210225 -0.17678,-0.249499 -0.46875,-0.21875 z M 100.5625,42.125 c -0.11731,-0.0098 -0.25028,0.03893 -0.4375,0.125 0.15179,0.18411 0.24475,0.340654 0.25,0.46875 0.0112,0.273771 0.20729,1.121046 0.4375,1.28125 0.1164,0.08101 0.0625,0.674982 0.0625,1.21875 0,0.94006 -0.037,0.99317 -0.90625,1.15625 -0.50283,0.09433 -1.20595,0.344278 -1.5625,0.53125 -0.356536,0.18697 -1.31556,0.456177 -2.125,0.625 -0.966215,0.201522 -2.147451,0.615918 -2.40625,0.90625 0.125137,0.220612 0.19287,0.356461 0.21875,0.5 -2.317313,1.713998 -4.786168,3.283714 -7.125,4.96875 -1.043442,0.751758 -2.932833,1.696245 -4.03125,1.9375 -0.446905,0.09816 -0.965035,0.02979 -1.59375,-0.21875 1.457816,0.953934 2.441013,1.26457 3.21875,1.09375 1.098417,-0.241255 2.987808,-1.185742 4.03125,-1.9375 2.338832,-1.685036 4.807687,-3.254752 7.125,-4.96875 -0.02588,-0.143539 -0.09361,-0.279388 -0.21875,-0.5 0.258799,-0.290332 1.440035,-0.704728 2.40625,-0.90625 0.80944,-0.168823 1.768464,-0.43803 2.125,-0.625 0.35655,-0.186972 1.05967,-0.436917 1.5625,-0.53125 0.8693,-0.16308 0.90625,-0.21619 0.90625,-1.15625 0,-0.543768 0.0539,-1.137744 -0.0625,-1.21875 -0.23021,-0.160204 -0.42628,-1.007479 -0.4375,-1.28125 -0.0105,-0.256193 -0.43881,-0.67604 -0.78125,-1 -0.31043,-0.293664 -0.46588,-0.452872 -0.65625,-0.46875 z M 71.875,48.5 c -0.658941,8.965294 -0.266981,17.318407 -2.5625,25.375 -0.132223,0.02075 -0.245882,0.015 -0.40625,0 -0.215611,0.471137 -0.285729,1.439666 -0.46875,2.71875 0.252141,-0.155834 11.674605,10.544293 12.5,11.9375 2.347574,6.740885 2.484245,18.71274 2.71875,21.21875 -0.42443,0.39414 0.195245,0.26635 -0.40625,0.34375 l 0.40625,1.9375 c 0.447301,-0.0187 0.94499,-0.0443 1.4375,-0.0625 l -0.21875,-1 c 0.601495,-0.0774 -0.01818,0.0504 0.40625,-0.34375 -0.234505,-2.50601 -0.371176,-14.477865 -2.71875,-21.21875 -0.825395,-1.393207 -12.247859,-12.093334 -12.5,-11.9375 0.183021,-1.279084 0.253139,-2.247613 0.46875,-2.71875 0.160368,0.015 0.274027,0.02075 0.40625,0 2.265972,-7.95289 1.907435,-16.197053 2.53125,-25.03125 C 72.62766,48.999156 72.055765,48.5 71.875,48.5 Z M 60.71875,49.9375 C 58.4337,51.499323 55.669847,52.446906 53.75,54.5 c -0.45385,0.57814 -0.958903,1.199545 -1.125,1.40625 -1.693107,2.189519 -3.506678,4.947189 -5.46875,6.90625 -0.179657,-0.019 -0.23412,-0.07951 -0.3125,-0.125 -0.932499,0.790134 -0.589543,0.849438 -0.46875,1.75 0.192754,1.437067 -0.198503,2.438255 -1.40625,3.59375 -0.654396,0.626084 -1.038062,0.864239 -1.46875,0.90625 0.181142,0.141291 0.37394,0.380766 0.40625,0.46875 0.04583,0.12481 0.49375,0.36535 0.90625,0.40625 0.58795,0.0583 0.971045,-0.131098 1.78125,-0.90625 1.207747,-1.155495 1.599004,-2.156683 1.40625,-3.59375 -0.120793,-0.900562 -0.463749,-0.959866 0.46875,-1.75 0.07838,0.04549 0.132843,0.106001 0.3125,0.125 1.962072,-1.959061 3.775643,-4.716731 5.46875,-6.90625 0.166097,-0.206705 0.67115,-0.82811 1.125,-1.40625 1.334304,-1.426912 3.081795,-2.316109 4.78125,-3.25 0.212862,-0.768371 0.410587,-1.528555 0.5625,-2.1875 z m -6.0625,21.625 c -0.01975,0.02811 -0.04346,0.06807 -0.0625,0.09375 0.288156,0.189005 0.669152,0.367355 1.0625,0.53125 0.02934,-0.106401 0.06229,-0.205603 0.09375,-0.3125 -0.272617,-0.03955 -0.667424,-0.166132 -1.09375,-0.3125 z m 9.65625,12.78125 -5.21875,12.375 c -1.319535,3.115525 -2.516943,5.01462 -3.65625,5.71875 -0.766373,0.47363 -1.248195,0.54865 -3.09375,0.53125 -5.796026,-0.31768 -15.334826,-2.11333 -19.0625,-2.375 0.03752,0.34352 0.09954,0.67128 0.25,0.875 1.746206,-0.40163 13.668255,2.00398 20.4375,2.375 1.845555,0.0174 2.327377,-0.0576 3.09375,-0.53125 1.139307,-0.70413 2.336715,-2.60322 3.65625,-5.71875 l 5,-11.875 c -0.473562,-0.446715 -0.928342,-0.887123 -1.40625,-1.375 z m -35.125,6.375 C 29.374991,90.827659 29.557643,90.901426 29.75,91 29.561114,90.898378 29.375292,90.796444 29.1875,90.71875 Z m 1.25,0.65625 V 91.75 L 31.5,91.9375 C 31.132644,91.757526 30.788431,91.582925 30.4375,91.375 Z m -1.5,6.5 c -1.57128,2.71102 -3.052542,5.2394 -5.625,6.3125 -0.0352,0.0105 -0.0599,0.0215 -0.09375,0.0312 0.08192,1.07917 0.447274,1.22469 1.71875,0.84375 2.572458,-1.0731 4.05372,-3.60148 5.625,-6.3125 L 31.59375,99 C 31.5836,98.828297 31.58465,98.623074 31.5625,98.5 Z m 49.21875,12.9375 c -0.230551,0.0218 -1.230929,0.11796 -2.1875,0.125 -0.03976,0.27585 -0.09452,0.50865 -0.15625,0.65625 0.293353,0.23768 1.524419,0.23665 2.59375,0.1875 -0.05927,-0.33219 -0.18372,-0.69811 -0.25,-0.96875 z m 12.46875,2.375 c 0.58373,0.55529 0.95584,1.11887 0.90625,1.375 -2.031784,2.43736 -5.486407,2.98966 -8.46875,3.46875 -1.557271,0.22565 -2.669318,0.33037 -3.46875,0.34375 0.03852,0.19623 0.06798,0.39892 0.125,0.59375 0.349785,0.42146 1.786782,0.39858 4.96875,-0.0625 2.982343,-0.47909 6.436966,-1.03139 8.46875,-3.46875 0.04959,-0.25613 -0.32252,-0.81971 -0.90625,-1.375 -0.468998,-0.40633 -1.026341,-0.68622 -1.625,-0.875 z"
         style="color:#000000;display:inline;overflow:visible;visibility:visible;fill:#040404;fill-opacity:0.662602;fill-rule:evenodd;stroke:none;stroke-width:1;marker:none;filter:url(#filter3556-4);enable-background:accumulate"
         inkscape:connector-curvature="0" />
    </g>
    <path
       id="path3380"
       style="display:inline;overflow:visible;visibility:visible;fill:none;stroke:#1c1c1c;stroke-width:1;stroke-linecap:butt;stroke-linejoin:miter;stroke-miterlimit:4;stroke-dasharray:none;stroke-dashoffset:0;stroke-opacity:1;marker:none;enable-background:accumulate"
       d="m 105.14903,115.44562 c 0.0496,-0.25613 -0.32434,-0.82414 -0.90807,-1.37943 -1.77882,-1.54115 -4.74587,-1.24977 -6.962276,-1.15698 l -0.409499,-1.92567 c 0.601495,-0.0774 -0.0123,0.0366 0.41213,-0.35754 C 97.04681,108.11999 96.917363,96.162033 94.569789,89.421148 93.744394,88.027941 82.302472,77.309154 82.050331,77.464988 c 0.183021,-1.279084 0.265252,-2.23676 0.480863,-2.707897 0.160368,0.015 0.286545,0.01685 0.418768,-0.0039 2.295519,-8.056593 1.881655,-16.402029 2.540596,-25.367323 0.317615,0 1.631811,1.238371 4.022399,3.266754 3.873382,3.28651 5.729462,4.358275 7.046655,4.06897 1.098417,-0.241255 3.002548,-1.196367 4.045988,-1.948125 2.33883,-1.685036 4.79768,-3.235021 7.11499,-4.949019 -0.0259,-0.143539 -0.1053,-0.297052 -0.23044,-0.517664 0.2588,-0.290332 1.45988,-0.691208 2.4261,-0.89273 0.80944,-0.168823 1.76342,-0.45993 2.11996,-0.6469 0.35655,-0.186972 1.05967,-0.417127 1.5625,-0.51146 0.8693,-0.16308 0.91425,-0.220122 0.91425,-1.160182 0,-0.543768 0.0353,-1.128638 -0.0811,-1.209644 -0.23021,-0.160204 -0.40765,-1.003418 -0.41887,-1.277189 -0.0105,-0.256193 -0.44121,-0.702557 -0.78365,-1.026517 -0.62085,-0.587328 -0.62519,-0.587693 -1.51863,-0.126655 -0.49281,0.2543 -1.45851,0.519355 -2.14601,0.589015 -1.10916,0.112385 -1.29225,0.216922 -1.625,0.927835 -0.2623,0.560402 -1.06985,1.491538 -1.58981,1.73369 -0.0504,-0.07273 -0.15718,-0.185454 -0.28519,-0.2645 -3.43801,1.549081 -6.369789,3.968889 -9.603854,5.854632 -3.472847,-2.870396 -6.543827,-6.197142 -10.284875,-8.770455 -1.245715,-0.67027 -1.456684,-1.103082 -1.856047,-2.277996 -0.206249,-0.04651 -0.273552,-0.07848 -0.405971,-0.137594 0.01442,-1.923843 0.739377,-3.723643 1.475771,-5.466144 1.331997,0.333653 3.200385,0.975549 4.929875,1.240717 0.391622,-0.150278 3.265791,-2.875162 3.948621,-4.109975 0.22811,-0.4125 0.320751,-1.650213 0.800044,-2.31835 0.472558,-0.307412 1.506553,-0.580752 1.600644,-0.861245 0.336828,-1.260808 -1.298953,-6.629789 -1.126616,-7.509675 0.09081,-0.424106 0.965607,-1.175989 1.132897,-1.68847 0.406141,-1.344581 0.545895,-2.908507 0.565641,-4.292104 0.124998,0.07725 0.150961,0.08045 0.406826,0.148737 -0.06549,-1.114367 -0.180206,-2.174455 -0.6368,-3.324298 0.125379,-0.140335 0.3364,-0.139879 0.498706,-0.207368 C 96.276151,8.1918065 93.213849,5.706793 90.040614,3.9481762 90.074172,3.7684768 90.109036,3.8723167 90.66105,3.7172521 89.79885,3.3854108 87.560266,3.3351017 86.092157,3.69264 85.135051,3.56612 84.083351,3.317978 83.314734,3.4338 l 0.268814,0.3917078 c -0.776621,0.1631059 -4.590984,0.7146728 -5.101289,1.5863422 0.699414,0.1443114 1.201733,-0.074234 1.358518,0.1697941 -1.54634,0.9315278 -5.375314,1.6964015 -7.151943,5.0895039 l 2.374643,1.28086 c -2.416791,0.737168 -4.564717,1.640776 -5.25135,3.448994 1.607827,0.05124 2.833176,0.867434 3.859017,2.082646 -1.695218,1.660897 -3.479357,3.010568 -5.506215,3.510723 1.394154,0.672361 3.03684,0.940859 5.096666,0.531502 -1.363997,0.99879 -2.934289,1.983827 -3.101652,3.062393 1.664231,-0.777636 2.930995,0.133961 4.279791,0.696922 -1.203808,1.015848 -3.153706,1.73326 -2.831452,3.359533 1.665564,-0.778072 2.451885,0.007 3.405262,0.494992 0.41046,1.629265 -1.141479,2.52263 -1.92725,3.703309 1.34741,0.02359 2.694821,-0.44576 4.042231,-1.505302 -0.810785,0.785663 -0.806267,1.571325 -0.803886,2.356988 1.794858,-0.14678 4.638796,-1.711654 4.619638,-0.870755 -0.511264,2.186428 -0.966639,4.413599 -1.736644,6.448015 l -0.331007,-0.07983 c -1.304773,1.598429 -1.907096,3.287269 -2.66817,5.108723 -3.193681,1.420441 -7.031093,3.494101 -10.017373,5.288859 -0.579071,0.348023 -1.416233,0.969061 -1.803242,1.48227 -0.387009,0.513208 -0.898942,1.004933 -1.039273,1.189222 -2.065386,2.71236 -3.893065,5.657538 -5.848555,8.473184 l 0.523281,0.474305 c -0.646197,1.010122 -1.386339,2.082529 -2.186298,2.421396 -0.372878,0.157953 -0.66145,0.871875 -1.223188,1.9375 -0.968502,1.83726 -0.591185,2.456343 -0.181857,2.871208 0.237407,0.240625 0.631819,0.393306 0.849449,0.393306 0.217633,0 0.565778,0.455674 0.611613,0.580489 0.04583,0.12481 0.509221,0.370883 0.921721,0.411783 0.58795,0.0583 0.973305,-0.139283 1.78351,-0.914435 1.207747,-1.155495 1.603819,-2.167168 1.411065,-3.604235 -0.120793,-0.900562 -0.472095,-0.955695 0.460404,-1.745829 0.07838,0.04549 0.138334,0.120056 0.317991,0.139055 1.962072,-1.959061 3.781943,-4.714095 5.47505,-6.903614 0.166097,-0.206705 0.673312,-0.84885 1.127162,-1.42699 1.919847,-2.053094 4.662883,-2.992656 6.947933,-4.554479 -1.46007,6.333266 -6.047535,18.541292 -7.758886,20.849119 0.759685,0.498287 2.14004,0.979158 2.79596,1.074323 -0.725505,2.464751 -0.893082,4.791831 -0.177337,7.249745 -1.714413,4.874848 -3.119183,9.646481 -4.334267,14.354885 -6.024181,-1.368607 -12.710896,-1.287232 -17.756655,-2.166628 -0.418722,0.103266 -0.470865,0.610842 -0.687061,0.844824 l -2.353062,-0.404638 0.0095,-0.420585 c -1.883078,-0.679629 -3.451628,-2.648711 -5.258128,-1.243376 -0.64747,0.94431 -2.741058,7.041508 -3.251568,9.469625 -0.20236,0.9625 -0.36989,2.40041 -0.37228,3.19535 -0.0051,1.6838 0.26021,1.90424 1.75316,1.45694 2.572458,-1.0731 4.058228,-3.62154 5.629508,-6.332561 l 2.602123,0.629448 c 0.09401,0.522952 0.0077,1.628213 0.354554,2.097843 1.746206,-0.40163 13.661167,2.00447 20.430412,2.37549 1.845555,0.0174 2.321297,-0.0657 3.08767,-0.53933 1.139307,-0.70413 2.3534,-2.59014 3.672935,-5.705665 l 5.206407,-12.373109 c 3.007194,3.069919 5.940168,5.220885 8.650153,7.762682 1.166085,6.259502 1.945834,16.926462 1.239625,18.615042 0.450834,0.36527 3.550012,0.13836 3.974036,0.0983 0.114664,0.4682 0.318103,1.2031 0.266882,1.60064 l -0.424997,0.0898 c -0.123055,1.87532 -0.449602,3.7507 0.08052,5.56199 0.349785,0.42146 1.790702,0.40528 4.97267,-0.0558 2.982343,-0.47909 6.427507,-1.01528 8.459287,-3.45264 z M 81.972415,77.853554 c -0.956359,2.657942 -2.545269,4.947805 -3.84375,6.96875 m -1.921875,-40.5625 -1.859375,6.53125"
       inkscape:connector-curvature="0" />
  </g>
</svg>
