<?xml version="1.0" encoding="UTF-8" standalone="no"?>
<!-- Created with Inkscape (http://www.inkscape.org/) -->

<svg
   width="128"
   height="128"
   id="svg2"
   sodipodi:version="0.32"
   inkscape:version="1.3.2 (1:1.3.2+202311252150+091e20ef0f)"
   version="1.0"
   sodipodi:docname="alert.svg"
   inkscape:output_extension="org.inkscape.output.svg.inkscape"
   inkscape:export-filename="alert_64.png"
   inkscape:export-xdpi="48"
   inkscape:export-ydpi="48"
   xmlns:inkscape="http://www.inkscape.org/namespaces/inkscape"
   xmlns:sodipodi="http://sodipodi.sourceforge.net/DTD/sodipodi-0.dtd"
   xmlns:xlink="http://www.w3.org/1999/xlink"
   xmlns="http://www.w3.org/2000/svg"
   xmlns:svg="http://www.w3.org/2000/svg"
   xmlns:rdf="http://www.w3.org/1999/02/22-rdf-syntax-ns#"
   xmlns:cc="http://creativecommons.org/ns#"
   xmlns:dc="http://purl.org/dc/elements/1.1/">
  <defs
     id="defs4">
    <linearGradient
       inkscape:collect="always"
       id="linearGradient3861">
      <stop
         style="stop-color:#fbe573;stop-opacity:1"
         offset="0"
         id="stop3863" />
      <stop
         style="stop-color:#f7d007;stop-opacity:1"
         offset="1"
         id="stop3865" />
    </linearGradient>
    <linearGradient
       inkscape:collect="always"
       id="linearGradient3403">
      <stop
         style="stop-color:#9d8403;stop-opacity:1;"
         offset="0"
         id="stop3405" />
      <stop
         style="stop-color:#d2b004;stop-opacity:1"
         offset="1"
         id="stop3407" />
    </linearGradient>
    <filter
       inkscape:collect="always"
       id="filter3329"
       x="-0.05843663"
       y="-0.093762677"
       width="1.1168733"
       height="1.1875254">
      <feGaussianBlur
         inkscape:collect="always"
         stdDeviation="0.44199024"
         id="feGaussianBlur3331" />
    </filter>
    <linearGradient
       inkscape:collect="always"
       xlink:href="#linearGradient3403"
       id="linearGradient3409"
       x1="52.015625"
       y1="86.683769"
       x2="59.040619"
       y2="119.22937"
       gradientUnits="userSpaceOnUse"
       gradientTransform="matrix(0.8654241,-0.5337675,0.5337631,0.8654313,-26.803759,37.344075)" />
    <filter
       inkscape:collect="always"
       id="filter3827"
       x="-0.041570829"
       width="1.0831417"
       y="-0.33439067"
       height="1.9223211">
      <feGaussianBlur
         inkscape:collect="always"
         stdDeviation="0.48934083"
         id="feGaussianBlur3829" />
    </filter>
    <linearGradient
       inkscape:collect="always"
       xlink:href="#linearGradient3861"
       id="linearGradient3867"
       x1="18.71875"
       y1="67.296875"
       x2="83.28125"
       y2="67.296875"
       gradientUnits="userSpaceOnUse"
       gradientTransform="matrix(0.8654241,-0.5337675,0.5337631,0.8654313,-26.803759,37.344075)" />
    <linearGradient
       inkscape:collect="always"
       xlink:href="#linearGradient3861"
       id="linearGradient3869"
       gradientUnits="userSpaceOnUse"
       x1="50.892109"
       y1="12.319323"
       x2="65.780357"
       y2="15.14775"
       gradientTransform="matrix(0.8654241,-0.5337675,0.5337631,0.8654313,-26.803759,37.344075)" />
    <linearGradient
       inkscape:collect="always"
       xlink:href="#linearGradient3861"
       id="linearGradient3954"
       gradientUnits="userSpaceOnUse"
       x1="44.851189"
       y1="83.75"
       x2="67.25"
       y2="87.372536" />
    <filter
       inkscape:collect="always"
       id="filter4148"
       x="-0.23039552"
       width="1.460791"
       y="-0.13924907"
       height="1.2784981">
      <feGaussianBlur
         inkscape:collect="always"
         stdDeviation="4.5112207"
         id="feGaussianBlur4150" />
    </filter>
    <filter
       inkscape:collect="always"
       id="filter4564"
       x="-0.036614602"
       y="-0.031668238"
       width="1.0732292"
       height="1.0633365">
      <feGaussianBlur
         inkscape:collect="always"
         stdDeviation="1.3125"
         id="feGaussianBlur4566" />
    </filter>
    <filter
       inkscape:collect="always"
       id="filter4607"
       x="-0.068822144"
       y="-0.060073536"
       width="1.1376443"
       height="1.1201471">
      <feGaussianBlur
         inkscape:collect="always"
         stdDeviation="2.7185155"
         id="feGaussianBlur4609" />
    </filter>
    <mask
       maskUnits="userSpaceOnUse"
       id="mask4613">
      <path
         inkscape:transform-center-y="3.0053585"
         inkscape:transform-center-x="-7.9493953e-05"
         id="path4615"
         d="M 37.092171,18.91586 C 10.302251,35.474055 36.921136,70.564331 41.745506,96.796041 C 42.362155,100.14894 42.711408,103.27269 42.970432,106.04565 C 41.891157,109.53844 42.210246,112.98459 44.323453,116.41091 C 48.480218,123.15058 69.028092,118.04811 90.184916,104.99922 C 111.34174,91.950336 125.12433,75.878802 120.96757,69.139118 C 118.94725,65.863415 116.11608,64.093466 112.61456,63.464577 C 110.18785,61.948716 107.45233,60.152919 104.62398,58.014492 C 83.34887,41.929102 63.91335,2.4083465 37.092171,18.91586 z M 78.141887,85.472933 C 96.057081,74.423385 112.91454,69.217019 115.76612,73.840517 C 118.6177,78.464015 106.39874,91.191112 88.483546,102.24066 C 70.568352,113.29022 53.710901,118.49657 50.859314,113.87308 C 48.007726,109.24957 60.226694,96.522481 78.141887,85.472933 z"
         style="fill:#ffffff;fill-opacity:1;fill-rule:evenodd;stroke:none;stroke-width:5;stroke-linecap:butt;stroke-linejoin:miter;marker:none;marker-start:none;marker-mid:none;marker-end:none;stroke-miterlimit:4;stroke-dashoffset:0;stroke-opacity:1;visibility:visible;display:inline;overflow:visible;enable-background:accumulate" />
    </mask>
    <filter
       inkscape:collect="always"
       id="filter4653"
       x="-0.11155467"
       width="1.2231093"
       y="-0.081727489"
       height="1.163455">
      <feGaussianBlur
         inkscape:collect="always"
         stdDeviation="3.4721059"
         id="feGaussianBlur4655" />
    </filter>
    <mask
       maskUnits="userSpaceOnUse"
       id="mask4659">
      <path
         inkscape:transform-center-y="3.0053585"
         inkscape:transform-center-x="-7.9493953e-05"
         id="path4661"
         d="M 62.999998,17.562499 C 32.02611,17.591779 36.191933,60.707688 26.687495,85.156249 C 25.472656,88.281231 24.152289,91.076348 22.937499,93.531244 C 20.230815,95.897752 18.718751,98.947168 18.718743,102.90625 C 18.718751,110.6939 38.55323,117.03124 63,117.03124 C 87.446766,117.03125 107.28124,110.6939 107.28124,102.90624 C 107.28124,99.121192 105.82511,96.177938 103.21875,93.843745 C 101.97,91.321996 100.60728,88.406488 99.343751,85.156248 C 89.839312,60.707687 93.973886,17.591781 62.999998,17.562499 z M 62.999997,94.468745 C 83.701053,94.468748 100.5,98.813827 100.5,104.15624 C 100.49999,109.49866 83.701054,113.84374 62.999998,113.84374 C 42.298937,113.84375 25.500002,109.49866 25.499998,104.15625 C 25.500003,98.813814 42.298942,94.468743 62.999997,94.468745 z"
         style="fill:#ffffff;fill-opacity:1;fill-rule:evenodd;stroke:none;stroke-width:5;stroke-linecap:butt;stroke-linejoin:miter;marker:none;marker-start:none;marker-mid:none;marker-end:none;stroke-miterlimit:4;stroke-dashoffset:0;stroke-opacity:1;visibility:visible;display:inline;overflow:visible;enable-background:accumulate" />
    </mask>
    <mask
       maskUnits="userSpaceOnUse"
       id="mask4667">
      <path
         inkscape:transform-center-y="3.0053585"
         inkscape:transform-center-x="-7.9493953e-05"
         id="path4669"
         d="M 62.999998,17.562499 C 32.02611,17.591779 36.191933,60.707688 26.687495,85.156249 C 25.472656,88.281231 24.152289,91.076348 22.937499,93.531244 C 20.230815,95.897752 18.718751,98.947168 18.718743,102.90625 C 18.718751,110.6939 38.55323,117.03124 63,117.03124 C 87.446766,117.03125 107.28124,110.6939 107.28124,102.90624 C 107.28124,99.121192 105.82511,96.177938 103.21875,93.843745 C 101.97,91.321996 100.60728,88.406488 99.343751,85.156248 C 89.839312,60.707687 93.973886,17.591781 62.999998,17.562499 z M 62.999997,94.468745 C 83.701053,94.468748 100.5,98.813827 100.5,104.15624 C 100.49999,109.49866 83.701054,113.84374 62.999998,113.84374 C 42.298937,113.84375 25.500002,109.49866 25.499998,104.15625 C 25.500003,98.813814 42.298942,94.468743 62.999997,94.468745 z"
         style="fill:#ffffff;fill-opacity:1;fill-rule:evenodd;stroke:none;stroke-width:5;stroke-linecap:butt;stroke-linejoin:miter;marker:none;marker-start:none;marker-mid:none;marker-end:none;stroke-miterlimit:4;stroke-dashoffset:0;stroke-opacity:1;visibility:visible;display:inline;overflow:visible;enable-background:accumulate" />
    </mask>
    <linearGradient
       inkscape:collect="always"
       xlink:href="#linearGradient3861"
       id="linearGradient4673"
       gradientUnits="userSpaceOnUse"
       x1="44.851189"
       y1="83.75"
       x2="67.25"
       y2="87.372536"
       gradientTransform="matrix(0.6858077,-0.4229855,0.422982,0.6858134,16.192375,49.164443)" />
    <linearGradient
       inkscape:collect="always"
       xlink:href="#linearGradient3861"
       id="linearGradient4677"
       gradientUnits="userSpaceOnUse"
       x1="44.851189"
       y1="83.75"
       x2="67.25"
       y2="87.372536" />
    <filter
       inkscape:collect="always"
       id="filter4788"
       x="-0.076167075"
       y="-0.050010082"
       width="1.1523342"
       height="1.1000202">
      <feGaussianBlur
         inkscape:collect="always"
         stdDeviation="0.44429481"
         id="feGaussianBlur4790" />
    </filter>
    <filter
       inkscape:collect="always"
       id="filter4872"
       x="-0.099620896"
       width="1.1992418"
       y="-0.12139152"
       height="1.242783">
      <feGaussianBlur
         inkscape:collect="always"
         stdDeviation="0.83247532"
         id="feGaussianBlur4874" />
    </filter>
  </defs>
  <sodipodi:namedview
     id="base"
     pagecolor="#ffffff"
     bordercolor="#666666"
     borderopacity="1.0"
     inkscape:pageopacity="0.0"
     inkscape:pageshadow="2"
     inkscape:zoom="4"
     inkscape:cx="18"
     inkscape:cy="64.125"
     inkscape:document-units="px"
     inkscape:current-layer="layer3"
     showgrid="false"
     inkscape:window-width="1868"
     inkscape:window-height="1016"
     inkscape:window-x="52"
     inkscape:window-y="27"
     showguides="true"
     inkscape:guide-bbox="true"
     inkscape:showpageshadow="2"
     inkscape:pagecheckerboard="0"
     inkscape:deskcolor="#d1d1d1"
     inkscape:window-maximized="1" />
  <metadata
     id="metadata7">
    <rdf:RDF>
      <cc:Work
         rdf:about="">
        <dc:format>image/svg+xml</dc:format>
        <dc:type
           rdf:resource="http://purl.org/dc/dcmitype/StillImage" />
      </cc:Work>
    </rdf:RDF>
  </metadata>
  <g
     inkscape:groupmode="layer"
     id="layer4"
     inkscape:label="shadow"
     style="display:inline">
    <path
       id="path4595"
       d="M 36.163286,13.688936 C 31.442144,16.60077 29.558194,22.207731 31.985011,26.142483 C 32.531939,27.029253 33.258177,27.75995 34.10201,28.324788 C 21.037036,46.160842 41.828018,75.630843 46.005201,98.34339 C 46.611667,101.6409 46.955153,104.71304 47.2099,107.44019 C 46.148446,110.87527 46.462266,114.26449 48.540579,117.6342 C 52.628704,124.26253 72.837277,119.24436 93.644744,106.41105 C 114.45221,93.57774 128.00722,77.771723 123.9191,71.143384 C 121.93214,67.921799 119.14772,66.181091 115.70402,65.562592 C 113.31738,64.071774 110.62703,62.305645 107.84538,60.202547 C 89.30353,46.1838 72.179,14.067536 50.164927,18.234169 C 50.023949,17.28983 49.682074,16.379756 49.16727,15.545072 C 46.740456,11.610318 40.884431,10.7771 36.163286,13.688936 z M 38.558367,17.572233 C 40.757307,16.216004 43.382309,16.583221 44.512633,18.415887 C 44.795214,18.874054 44.962239,19.357332 45.00748,19.873039 C 43.829596,20.39276 42.636159,21.006719 41.428705,21.749859 C 40.073254,22.587623 38.866543,23.474137 37.779056,24.404708 C 37.313367,24.129605 36.93465,23.749973 36.639648,23.271667 C 35.509325,21.439 36.359428,18.928461 38.558367,17.572233 z"
       style="opacity:1;fill:#6d5b02;fill-opacity:0.14285715;fill-rule:evenodd;stroke:none;stroke-width:4;stroke-linecap:butt;stroke-linejoin:miter;marker:none;marker-start:none;marker-mid:none;marker-end:none;stroke-miterlimit:4;stroke-dasharray:none;stroke-dashoffset:0;stroke-opacity:1;visibility:visible;display:inline;overflow:visible;filter:url(#filter4607);enable-background:accumulate"
       transform="matrix(1.01679,0,0,1.0167984,-1.0777356,-1.0424075)" />
  </g>
  <g
     inkscape:groupmode="layer"
     id="layer2"
     inkscape:label="interior"
     style="display:inline">
    <path
       style="fill:url(#linearGradient3409);fill-opacity:1;fill-rule:evenodd;stroke:none;stroke-width:5;stroke-linecap:butt;stroke-linejoin:miter;marker:none;marker-start:none;marker-mid:none;marker-end:none;stroke-miterlimit:4;stroke-dashoffset:0;stroke-opacity:1;visibility:visible;display:inline;overflow:visible;enable-background:accumulate"
       d="M 121.38167,69.79238 C 125.53844,76.532065 111.7413,92.592362 90.584479,105.64125 C 69.427655,118.69014 48.883288,123.81066 44.726522,117.07097 C 37.073321,104.66224 52.847809,91.773309 74.004632,78.724417 C 95.161456,65.675525 113.92242,57.698117 121.38167,69.79238 z"
       id="path3400"
       sodipodi:nodetypes="csssc"
       inkscape:transform-center-x="-8.9318317"
       inkscape:transform-center-y="27.764801" />
    <path
       transform="matrix(0.9714895,-0.5991855,1.3887154,2.2516315,-131.93827,-110.87686)"
       style="fill:none;fill-opacity:1;fill-rule:evenodd;stroke:#957c03;stroke-width:3.88710642;stroke-linecap:butt;stroke-linejoin:miter;marker:none;marker-start:none;marker-mid:none;marker-end:none;stroke-miterlimit:4;stroke-dashoffset:0;stroke-opacity:0.37209305;visibility:visible;overflow:visible;filter:url(#filter3827);enable-background:accumulate"
       d="M 103.54063,107.29187 C 103.54063,110.21929 86.739776,112.59517 66.038719,112.59517 C 45.337662,112.59517 28.536804,110.21929 28.536804,107.29187"
       id="path3619"
       sodipodi:nodetypes="css"
       inkscape:transform-center-x="-8.0763866"
       inkscape:transform-center-y="28.456016" />
    <path
       sodipodi:type="arc"
       style="opacity:1;fill:url(#linearGradient3954);fill-opacity:1;fill-rule:evenodd;stroke:none;stroke-width:6.30952406;stroke-linecap:butt;stroke-linejoin:miter;marker:none;marker-start:none;marker-mid:none;marker-end:none;stroke-miterlimit:4;stroke-dasharray:none;stroke-dashoffset:0;stroke-opacity:1;visibility:visible;display:inline;overflow:visible;enable-background:accumulate"
       id="path3871"
       sodipodi:cx="67.25"
       sodipodi:cy="83.75"
       sodipodi:rx="13.25"
       sodipodi:ry="13.25"
       d="M 80.5,83.75 A 13.25,13.25 0 1 1 54,83.75 A 13.25,13.25 0 1 1 80.5,83.75 z"
       transform="matrix(0.6858077,-0.4229855,0.422982,0.6858134,13.442375,49.414443)"
       inkscape:transform-center-x="-21.476965"
       inkscape:transform-center-y="14.237075" />
    <path
       style="opacity:1;fill:#deb603;fill-opacity:1;fill-rule:evenodd;stroke:none;stroke-width:5;stroke-linecap:butt;stroke-linejoin:miter;marker:none;marker-start:none;marker-mid:none;marker-end:none;stroke-miterlimit:4;stroke-dasharray:none;stroke-dashoffset:0;stroke-opacity:1;visibility:visible;display:inline;overflow:visible;enable-background:accumulate;filter:url(#filter4872)"
       d="M 98.180935,77.092379 C 100.26167,83.762622 96.88967,85.548744 93.117725,88.145358 C 102.93495,89.030891 107.38681,79.716998 102.81345,71.74535 C 99.895497,73.747878 87.668412,76.159594 84.560759,78.279126 C 85.12457,79.80031 85.289319,80.934071 86.23685,82.218588 C 90.43187,79.964943 93.915217,78.553824 98.180935,77.092379 z"
       id="path3949"
       sodipodi:nodetypes="cccccc"
       inkscape:transform-center-x="-21.077759"
       inkscape:transform-center-y="15.806211" />
    <path
       style="opacity:1;fill:#ffffff;fill-opacity:0.48837208;fill-rule:evenodd;stroke:none;stroke-width:6.30952406;stroke-linecap:butt;stroke-linejoin:miter;marker:none;marker-start:none;marker-mid:none;marker-end:none;stroke-miterlimit:4;stroke-dasharray:none;stroke-dashoffset:0;stroke-opacity:1;visibility:visible;display:inline;overflow:visible;filter:url(#filter4788);enable-background:accumulate"
       d="M 96.125,65.25 C 94.405916,65.344388 92.6925,65.845714 91.125,66.8125 C 86.109002,69.906216 84.562559,76.483958 87.65625,81.5 C 90.299319,85.785412 95.479034,87.537785 100.0625,86.03125 C 96.727828,85.814317 93.542788,84.05879 91.65625,81 C 88.562559,75.983958 90.109002,69.406216 95.125,66.3125 C 95.855621,65.861875 96.624807,65.538102 97.40625,65.28125 C 96.981362,65.253609 96.552422,65.226532 96.125,65.25 z"
       id="path4671" />
    <path
       transform="matrix(0.6858077,-0.4229855,0.422982,0.6858134,13.442375,49.414443)"
       d="M 80.5,83.75 A 13.25,13.25 0 1 1 54,83.75 A 13.25,13.25 0 1 1 80.5,83.75 z"
       sodipodi:ry="13.25"
       sodipodi:rx="13.25"
       sodipodi:cy="83.75"
       sodipodi:cx="67.25"
       id="path3947"
       style="opacity:1;fill:none;fill-opacity:1;fill-rule:evenodd;stroke:#dab705;stroke-width:1.24106216;stroke-linecap:butt;stroke-linejoin:miter;marker:none;marker-start:none;marker-mid:none;marker-end:none;stroke-miterlimit:4;stroke-dasharray:none;stroke-dashoffset:0;stroke-opacity:1;visibility:visible;display:inline;overflow:visible;enable-background:accumulate"
       sodipodi:type="arc"
       inkscape:transform-center-x="-21.476965"
       inkscape:transform-center-y="14.237075" />
  </g>
  <g
     inkscape:label="main"
     inkscape:groupmode="layer"
     id="layer1"
     style="display:inline">
    <path
       style="opacity:1;fill:none;fill-opacity:1;fill-rule:evenodd;stroke:#c4a405;stroke-width:4;stroke-linecap:butt;stroke-linejoin:miter;marker:none;marker-start:none;marker-mid:none;marker-end:none;stroke-miterlimit:4;stroke-dasharray:none;stroke-dashoffset:0;stroke-opacity:1;visibility:visible;display:inline;overflow:visible;enable-background:accumulate"
       d="M 31.738347,10.719526 C 26.937937,13.680274 25.022356,19.381423 27.489919,23.382273 C 28.04603,24.283939 28.784461,25.02691 29.642462,25.601237 C 16.358127,43.736908 37.49819,73.701958 41.745508,96.796039 C 42.362157,100.14894 42.71141,103.27269 42.970434,106.04565 C 41.891158,109.53843 42.210247,112.98459 44.323455,116.4109 C 48.48022,123.15058 69.028095,118.04811 90.184919,104.99922 C 111.34174,91.950334 125.12434,75.878801 120.96758,69.139117 C 118.94726,65.863414 116.11609,64.093465 112.61457,63.464576 C 110.18786,61.948715 107.45233,60.152918 104.62398,58.014491 C 85.770816,43.760252 68.358765,11.104486 45.975076,15.341112 C 45.831731,14.380909 45.484116,13.455547 44.960668,12.606842 C 42.493108,8.6059902 36.53876,7.7587754 31.738347,10.719526 z M 34.173642,14.668056 C 36.409502,13.289045 39.078578,13.66243 40.22788,15.525882 C 40.515205,15.991746 40.685035,16.483142 40.731035,17.007512 C 39.533375,17.535963 38.3199,18.160236 37.092173,18.91586 C 35.713964,19.767697 34.486992,20.669103 33.381246,21.615306 C 32.907738,21.335581 32.522662,20.949572 32.222707,20.463231 C 31.073406,18.599779 31.937782,16.047067 34.173642,14.668056 z"
       id="path3207" />
    <path
       style="opacity:1;fill:url(#linearGradient3869);fill-opacity:1;fill-rule:evenodd;stroke:none;stroke-width:5;stroke-linecap:butt;stroke-linejoin:miter;marker:none;marker-start:none;marker-mid:none;marker-end:none;stroke-miterlimit:4;stroke-dasharray:none;stroke-dashoffset:0;stroke-opacity:1;visibility:visible;display:inline;overflow:visible;enable-background:accumulate"
       d="M 31.733461,10.711609 C 26.93305,13.67236 25.018513,19.385643 27.486077,23.386493 C 29.95364,27.387343 35.91836,28.240938 40.718773,25.280189 C 45.519185,22.319439 47.43372,16.606156 44.966157,12.605306 C 42.498594,8.604456 36.533873,7.7508598 31.733461,10.711609 z M 34.166481,14.656453 C 36.40234,13.277442 39.083643,13.661156 40.232945,15.524608 C 41.382247,17.388061 40.521612,19.956335 38.285753,21.335346 C 36.049893,22.714356 33.368591,22.330643 32.219289,20.46719 C 31.069987,18.603738 31.930622,16.035463 34.166481,14.656453 z"
       id="path3192"
       inkscape:transform-center-x="37.284602"
       inkscape:transform-center-y="-46.172566" />
    <path
       style="opacity:1;fill:#ffffff;fill-opacity:0.65448507;fill-rule:evenodd;stroke:none;stroke-width:5;stroke-linecap:butt;stroke-linejoin:miter;marker:none;marker-start:none;marker-mid:none;marker-end:none;stroke-miterlimit:4;stroke-dasharray:none;stroke-dashoffset:0;stroke-opacity:1;visibility:visible;display:inline;overflow:visible;enable-background:accumulate"
       d="M 33.659294,26.969024 C 23.420163,20.874716 30.994908,9.7721232 41.223188,9.573457 C 35.666704,8.7009481 29.686492,11.723115 27.912922,16.656869 C 26.259576,21.437534 29.512892,25.717283 33.659294,26.969024 z M 39.146425,14.438263 C 40.490843,15.370468 41.13341,16.462377 41.012898,18.028399 L 43.205874,17.526741 C 42.826285,15.329073 41.173471,14.688635 39.146425,14.438263 z"
       id="path4426"
       sodipodi:nodetypes="cccccccc"
       inkscape:transform-center-x="38.170991"
       inkscape:transform-center-y="-45.971981" />
    <path
       id="path3203"
       d="M 31.733463,10.711609 C 26.933051,13.672359 25.018514,19.385643 27.486078,23.386492 C 29.953641,27.387343 35.918362,28.240938 40.718775,25.280189 C 45.519187,22.319439 47.433722,16.606156 44.966159,12.605306 C 42.498596,8.6044558 36.533875,7.7508597 31.733463,10.711609 z M 34.166482,14.656452 C 36.402342,13.277442 39.083644,13.661156 40.232946,15.524608 C 41.382249,17.388061 40.521613,19.956335 38.285754,21.335346 C 36.049895,22.714356 33.368592,22.330643 32.21929,20.46719 C 31.069988,18.603738 31.930623,16.035463 34.166482,14.656452 z"
       style="opacity:1;fill:none;fill-opacity:1;fill-rule:evenodd;stroke:#f4cd07;stroke-width:1;stroke-linecap:butt;stroke-linejoin:miter;marker:none;marker-start:none;marker-mid:none;marker-end:none;stroke-miterlimit:4;stroke-dasharray:none;stroke-dashoffset:0;stroke-opacity:1;visibility:visible;display:inline;overflow:visible;enable-background:accumulate"
       inkscape:transform-center-x="37.284601"
       inkscape:transform-center-y="-46.172566" />
    <path
       style="opacity:1;fill:#ddb503;fill-opacity:1;fill-rule:evenodd;stroke:none;stroke-width:5;stroke-linecap:butt;stroke-linejoin:miter;marker:none;marker-start:none;marker-mid:none;marker-end:none;stroke-miterlimit:4;stroke-dasharray:none;stroke-dashoffset:0;stroke-opacity:1;visibility:visible;display:inline;overflow:visible;filter:url(#filter3329);enable-background:accumulate"
       d="M 65.913833,9.328966 C 69.217838,11.442508 70.171254,15.164335 69.557947,17.128915 C 67.618816,17.635088 67.406689,17.811929 66.593369,18.830425 L 70.967449,20.642386 C 73.972789,15.327008 70.408873,10.15381 65.913833,9.328966 z M 54.045257,20.478239 L 58.561199,19.215609 C 55.670854,15.379285 58.675923,11.873614 63.237056,11.779949 C 58.770116,9.8354766 54.50841,13.749068 55.410541,17.287439 C 54.323935,18.616101 53.636578,19.68393 54.045257,20.478239 z"
       id="path3256"
       sodipodi:nodetypes="cccccccccc"
       transform="matrix(0.8654241,-0.5337675,0.5337631,0.8654313,-26.803759,37.344075)"
       inkscape:transform-center-x="36.14799"
       inkscape:transform-center-y="-46.194031" />
    <path
       style="fill:url(#linearGradient3867);fill-opacity:1;fill-rule:evenodd;stroke:none;stroke-width:5;stroke-linecap:butt;stroke-linejoin:miter;marker:none;marker-start:none;marker-mid:none;marker-end:none;stroke-miterlimit:4;stroke-dashoffset:0;stroke-opacity:1;visibility:visible;display:inline;overflow:visible;enable-background:accumulate"
       d="M 37.092171,18.91586 C 10.302251,35.474055 36.921136,70.564331 41.745506,96.796041 C 42.362155,100.14894 42.711408,103.27269 42.970432,106.04565 C 41.891157,109.53844 42.210246,112.98459 44.323453,116.41091 C 48.480218,123.15058 69.028092,118.04811 90.184916,104.99922 C 111.34174,91.950336 125.12433,75.878802 120.96757,69.139118 C 118.94725,65.863415 116.11608,64.093466 112.61456,63.464577 C 110.18785,61.948716 107.45233,60.152919 104.62398,58.014492 C 83.34887,41.929102 63.91335,2.4083465 37.092171,18.91586 z M 78.141887,85.472933 C 96.057081,74.423385 112.91454,69.217019 115.76612,73.840517 C 118.6177,78.464015 106.39874,91.191112 88.483546,102.24066 C 70.568352,113.29022 53.710901,118.49657 50.859314,113.87308 C 48.007726,109.24957 60.226694,96.522481 78.141887,85.472933 z"
       id="path3177"
       inkscape:transform-center-x="-7.9493953e-05"
       inkscape:transform-center-y="3.0053585" />
    <path
       style="fill:#ddb503;fill-opacity:1;fill-rule:evenodd;stroke:none;stroke-width:5;stroke-linecap:butt;stroke-linejoin:miter;marker:none;marker-start:none;marker-mid:none;marker-end:none;stroke-miterlimit:4;stroke-dashoffset:0;stroke-opacity:1;visibility:visible;display:inline;overflow:visible;filter:url(#filter4653);enable-background:accumulate"
       d="M 47.099143,16.984759 C 63.694917,28.144144 68.844049,46.400833 76.430177,64.054495 C 73.98045,69.249068 68.637032,77.31305 54.492209,91.435533 C 62.33373,84.991194 70.934389,79.533701 79.69623,74.434485 C 79.97357,75.687874 80.174332,76.934638 80.357763,78.170379 C 67.330038,86.854386 44.96426,97.43152 45.837945,115.4768 C 49.299992,122.59836 68.494329,117.18269 89.651153,104.1338 C 98.633342,99.310492 124.88181,82.901366 119.88579,69.806327 C 117.86547,66.530625 115.0343,64.760675 111.53278,64.131786 C 109.10608,62.615926 105.69355,61.026502 102.86518,58.888074 C 81.59008,42.802687 68.680381,13.317979 47.099143,16.984759 z M 78.141887,85.472933 C 96.057081,74.423385 112.91454,69.217019 115.76612,73.840517 C 118.6177,78.464015 106.39874,91.191112 88.483546,102.24066 C 70.568352,113.29022 53.710901,118.49657 50.859314,113.87308 C 48.007726,109.24957 60.226694,96.522481 78.141887,85.472933 z"
       id="path3175"
       sodipodi:nodetypes="cccccccccsccsssc"
       inkscape:transform-center-x="-9.6520135"
       inkscape:transform-center-y="3.4844752"
       mask="url(#mask4613)" />
    <path
       style="fill:#ffffff;fill-opacity:0.65448507;fill-rule:evenodd;stroke:none;stroke-width:5;stroke-linecap:butt;stroke-linejoin:miter;marker:none;marker-start:none;marker-mid:none;marker-end:none;stroke-miterlimit:4;stroke-dashoffset:0;stroke-opacity:1;visibility:visible;display:inline;overflow:visible;filter:url(#filter4148);enable-background:accumulate"
       d="M 29.71875,85.25 C 29.24713,87.604951 27.909926,89.335158 26.445755,90.980842 C 24.923987,92.691263 22.911513,94.487155 21.944701,96.621478 C 28.687319,92.037488 38.956489,88.19337 56.00276,88.399206 C 49.501697,80.571981 48.994822,71.837476 48.90625,59.59375 C 48.773203,41.20215 50.865854,23.457381 68.9375,19.0625 C 36.996972,15.46586 36.703092,62.980522 29.71875,85.25 z"
       id="path3978"
       sodipodi:nodetypes="csccscc"
       transform="matrix(0.8654241,-0.5337675,0.5337631,0.8654313,-26.803759,37.344075)"
       inkscape:transform-center-x="24.632874"
       inkscape:transform-center-y="-1.0211052"
       mask="url(#mask4659)" />
    <path
       sodipodi:nodetypes="csc"
       id="path3388"
       d="M 33.687107,71.189202 C 30.887606,66.650155 40.185127,55.830519 54.440503,47.038233 C 68.69588,38.245947 82.537519,34.794046 85.33702,39.333093"
       style="fill:none;fill-opacity:1;fill-rule:evenodd;stroke:#fef3bb;stroke-width:1;stroke-linecap:round;stroke-linejoin:miter;marker:none;marker-start:none;marker-mid:none;marker-end:none;stroke-miterlimit:4;stroke-dashoffset:0;stroke-opacity:0.35215945;visibility:visible;display:inline;overflow:visible;enable-background:accumulate"
       inkscape:transform-center-x="14.247439"
       inkscape:transform-center-y="-9.9069086" />
    <path
       style="opacity:1;fill:none;fill-opacity:1;fill-rule:evenodd;stroke:#fef3bb;stroke-width:1;stroke-linecap:round;stroke-linejoin:miter;marker:none;marker-start:none;marker-mid:none;marker-end:none;stroke-miterlimit:4;stroke-dasharray:none;stroke-dashoffset:0;stroke-opacity:0.35215945;visibility:visible;display:inline;overflow:visible;enable-background:accumulate"
       d="M 35.17403,75.312098 C 32.284392,70.626904 41.851447,59.477293 56.529068,50.424579 C 71.206689,41.371865 85.464175,37.827217 88.353814,42.51241"
       id="path3390"
       sodipodi:nodetypes="csc"
       inkscape:transform-center-x="12.004216"
       inkscape:transform-center-y="-6.2902667" />
    <path
       style="fill:none;fill-opacity:1;fill-rule:evenodd;stroke:#dab705;stroke-width:1;stroke-linecap:round;stroke-linejoin:miter;marker:none;marker-start:none;marker-mid:none;marker-end:none;stroke-miterlimit:4;stroke-dashoffset:0;stroke-opacity:1;visibility:visible;display:inline;overflow:visible;enable-background:accumulate"
       d="M 33.286784,70.540129 C 30.487284,66.001082 39.784804,55.181446 54.040181,46.38916 C 68.295557,37.596873 82.137197,34.144973 84.936698,38.68402"
       id="path3335"
       sodipodi:nodetypes="csc"
       inkscape:transform-center-x="14.647761"
       inkscape:transform-center-y="-10.555982" />
    <path
       sodipodi:nodetypes="csc"
       id="path3338"
       d="M 34.773708,74.663025 C 31.884069,69.97783 41.451125,58.82822 56.128746,49.775505 C 70.806367,40.722791 85.063854,37.178143 87.953492,41.863337"
       style="fill:none;fill-opacity:1;fill-rule:evenodd;stroke:#dab705;stroke-width:1;stroke-linecap:round;stroke-linejoin:miter;marker:none;marker-start:none;marker-mid:none;marker-end:none;stroke-miterlimit:4;stroke-dashoffset:0;stroke-opacity:1;visibility:visible;display:inline;overflow:visible;enable-background:accumulate"
       inkscape:transform-center-x="12.404538"
       inkscape:transform-center-y="-6.93934" />
    <path
       style="opacity:1;fill:#ffffff;fill-opacity:0.62790695;fill-rule:evenodd;stroke:none;stroke-width:5;stroke-linecap:butt;stroke-linejoin:miter;marker:none;marker-start:none;marker-mid:none;marker-end:none;stroke-miterlimit:4;stroke-dasharray:none;stroke-dashoffset:0;stroke-opacity:1;visibility:visible;display:inline;overflow:visible;filter:url(#filter4564);enable-background:accumulate"
       d="M 63,17.5625 C 62.274423,17.563186 61.562639,17.57782 60.875,17.625 C 89.543103,19.591862 85.811961,61.280409 95.09375,85.15625 C 96.35729,88.406495 97.72001,91.322004 98.96875,93.84375 C 101.57512,96.177944 103.03125,99.121198 103.03125,102.90625 C 103.03125,110.46565 84.330069,116.64346 60.875,117 C 61.583244,117.01077 62.283448,117.03125 63,117.03125 C 87.44677,117.03125 107.28125,110.69391 107.28125,102.90625 C 107.28125,99.121198 105.82512,96.177944 103.21875,93.84375 C 101.97001,91.322004 100.60729,88.406495 99.34375,85.15625 C 89.839315,60.70769 93.973888,17.591782 63,17.5625 z M 83.21875,89.78125 C 81.253487,89.769571 79.712652,89.969108 79.625,90.46875 C 79.449694,91.468033 85.686913,91.900687 89.28125,92.53125 C 92.875583,93.16181 98.668444,95.155531 98.84375,94.15625 C 99.019056,93.156967 92.969331,90.974312 89.375,90.34375 C 87.577834,90.02847 85.184013,89.792929 83.21875,89.78125 z M 58.75,94.46875 C 38.048943,94.46875 21.250001,98.813825 21.25,104.15625 C 21.25,109.49867 38.048942,113.84375 58.75,113.84375 C 59.465262,113.84375 60.169587,113.82274 60.875,113.8125 C 41.164404,113.52647 25.5,109.31408 25.5,104.15625 C 25.500001,98.998416 41.164405,94.786029 60.875,94.5 C 60.169587,94.489763 59.465262,94.46875 58.75,94.46875 z"
       id="path4503"
       transform="matrix(0.8654241,-0.5337675,0.5337631,0.8654313,-26.803759,37.344075)"
       inkscape:transform-center-x="-4.9861801"
       inkscape:transform-center-y="2.227422"
       mask="url(#mask4667)" />
    <path
       style="fill:none;fill-opacity:1;fill-rule:evenodd;stroke:#dab705;stroke-width:1;stroke-linecap:butt;stroke-linejoin:miter;marker:none;marker-start:none;marker-mid:none;marker-end:none;stroke-miterlimit:4;stroke-dasharray:none;stroke-dashoffset:0;stroke-opacity:1;visibility:visible;display:inline;overflow:visible;enable-background:accumulate"
       d="M 112.61457,63.464576 C 110.18786,61.948715 107.45233,60.152918 104.62398,58.014491 C 83.348873,41.929101 63.913352,2.4083465 37.092173,18.91586 C 10.302251,35.474054 36.921137,70.56433 41.745508,96.796039 C 42.362157,100.14894 42.71141,103.27269 42.970434,106.04565"
       id="path3224"
       inkscape:transform-center-x="4.5462754"
       inkscape:transform-center-y="-3.6640343" />
    <path
       id="path3201"
       style="fill:none;fill-opacity:1;fill-rule:evenodd;stroke:#dab705;stroke-width:1;stroke-linecap:butt;stroke-linejoin:miter;marker:none;marker-start:none;marker-mid:none;marker-end:none;stroke-miterlimit:4;stroke-dasharray:none;stroke-dashoffset:0;stroke-opacity:1;visibility:visible;display:inline;overflow:visible;enable-background:accumulate"
       d="M 120.98136,69.143306 C 125.13812,75.88299 111.34099,91.943288 90.18416,104.99218 C 69.027335,118.04107 48.482967,123.16158 44.326201,116.4219 C 36.672999,104.01316 52.447488,91.124233 73.604312,78.075341 C 94.761137,65.02645 113.5221,57.049044 120.98136,69.143306 z M 78.141889,85.472932 C 96.057084,74.423383 112.91454,69.217018 115.76613,73.840516 C 118.61771,78.464014 106.39875,91.191111 88.48355,102.24066 C 70.568354,113.29022 53.710903,118.49657 50.859316,113.87308 C 48.007727,109.24957 60.226696,96.52248 78.141889,85.472932 z" />
  </g>
  <g
     inkscape:groupmode="layer"
     id="layer3"
     inkscape:label="song"
     style="display:inline">
    <path
       style="opacity:1;fill:#413500;fill-opacity:1;fill-rule:evenodd;stroke:none;stroke-width:5;stroke-linecap:butt;stroke-linejoin:miter;marker:none;marker-start:none;marker-mid:none;marker-end:none;stroke-miterlimit:4;stroke-dasharray:none;stroke-dashoffset:0;stroke-opacity:1;visibility:visible;display:inline;overflow:visible;enable-background:accumulate"
       d="M 65.704546,12.033849 C 83.097291,14.122042 96.77247,23.879132 102.41464,41.492175 C 101.65938,23.230458 84.203621,9.932698 65.704546,12.033849 z"
       id="path4572"
       sodipodi:nodetypes="ccc" />
    <path
       sodipodi:nodetypes="ccc"
       id="path4582"
       d="M 60.571991,3.290653 C 85.950209,4.2000256 106.13175,16.439358 111.90983,44.487115 C 114.19811,17.163322 89.536593,-1.3958829 60.571991,3.290653 z"
       style="opacity:1;fill:#413500;fill-opacity:1;fill-rule:evenodd;stroke:none;stroke-width:5;stroke-linecap:butt;stroke-linejoin:miter;marker:none;marker-start:none;marker-mid:none;marker-end:none;stroke-miterlimit:4;stroke-dasharray:none;stroke-dashoffset:0;stroke-opacity:1;visibility:visible;display:inline;overflow:visible;enable-background:accumulate" />
    <path
       sodipodi:nodetypes="ccc"
       id="path4584"
       d="M 73.600983,21.339825 C 81.902783,22.964946 88.857713,28.10755 92.312307,36.821247 C 90.993057,28.082078 82.339701,20.871868 73.600983,21.339825 z"
       style="opacity:1;fill:#413500;fill-opacity:1;fill-rule:evenodd;stroke:none;stroke-width:5;stroke-linecap:butt;stroke-linejoin:miter;marker:none;marker-start:none;marker-mid:none;marker-end:none;stroke-miterlimit:4;stroke-dasharray:none;stroke-dashoffset:0;stroke-opacity:1;visibility:visible;display:inline;overflow:visible;enable-background:accumulate" />
    <path
       sodipodi:nodetypes="ccc"
       id="path4586"
       d="M 34.080434,90.240186 C 19.594126,80.390484 11.934558,65.439081 15.020177,47.203599 C 7.2963911,63.768709 16.685859,83.602406 34.080434,90.240186 z"
       style="opacity:1;fill:#413500;fill-opacity:1;fill-rule:evenodd;stroke:none;stroke-width:5;stroke-linecap:butt;stroke-linejoin:miter;marker:none;marker-start:none;marker-mid:none;marker-end:none;stroke-miterlimit:4;stroke-dasharray:none;stroke-dashoffset:0;stroke-opacity:1;visibility:visible;display:inline;overflow:visible;enable-background:accumulate"
       inkscape:label="path4586" />
    <path
       style="opacity:1;fill:#413500;fill-opacity:1;fill-rule:evenodd;stroke:none;stroke-width:5;stroke-linecap:butt;stroke-linejoin:miter;marker:none;marker-start:none;marker-mid:none;marker-end:none;stroke-miterlimit:4;stroke-dasharray:none;stroke-dashoffset:0;stroke-opacity:1;visibility:visible;display:inline;overflow:visible;enable-background:accumulate"
       d="M 35.348166,101.32701 C 13.228213,88.853381 0.93148621,68.70665 8.6930425,41.141807 C -5.89932,64.355713 7.4708865,92.174401 35.348166,101.32701 z"
       id="path4588"
       sodipodi:nodetypes="ccc" />
    <path
       style="opacity:1;fill:#413500;fill-opacity:1;fill-rule:evenodd;stroke:none;stroke-width:5;stroke-linecap:butt;stroke-linejoin:miter;marker:none;marker-start:none;marker-mid:none;marker-end:none;stroke-miterlimit:4;stroke-dasharray:none;stroke-dashoffset:0;stroke-opacity:1;visibility:visible;display:inline;overflow:visible;enable-background:accumulate"
       d="M 31.345499,78.345819 C 24.719846,73.086349 20.907235,65.322203 21.844771,55.995684 C 18.999163,64.363233 23.369679,74.744331 31.345499,78.345819 z"
       id="path4590"
       sodipodi:nodetypes="ccc" />
  </g>
</svg>
