<?xml version="1.0" encoding="UTF-8" standalone="no"?>
<!-- Created with Inkscape (http://www.inkscape.org/) -->

<svg
   xmlns:dc="http://purl.org/dc/elements/1.1/"
   xmlns:cc="http://creativecommons.org/ns#"
   xmlns:rdf="http://www.w3.org/1999/02/22-rdf-syntax-ns#"
   xmlns:svg="http://www.w3.org/2000/svg"
   xmlns="http://www.w3.org/2000/svg"
   xmlns:xlink="http://www.w3.org/1999/xlink"
   xmlns:sodipodi="http://sodipodi.sourceforge.net/DTD/sodipodi-0.dtd"
   xmlns:inkscape="http://www.inkscape.org/namespaces/inkscape"
   width="128"
   height="128"
   id="svg2376"
   sodipodi:version="0.32"
   inkscape:version="0.91 r13725"
   version="1.0"
   sodipodi:docname="edit.svg"
   inkscape:output_extension="org.inkscape.output.svg.inkscape"
   inkscape:export-filename="edit_32.png"
   inkscape:export-xdpi="22.5"
   inkscape:export-ydpi="22.5">
  <defs
     id="defs2378">
    <linearGradient
       id="linearGradient4084">
      <stop
         style="stop-color:#d2c090;stop-opacity:1;"
         offset="0"
         id="stop4086" />
      <stop
         style="stop-color:#9e8541;stop-opacity:1;"
         offset="1"
         id="stop4088" />
    </linearGradient>
    <linearGradient
       id="linearGradient3786">
      <stop
         style="stop-color:#ffffff;stop-opacity:0.51590109;"
         offset="0"
         id="stop3788" />
      <stop
         style="stop-color:#ffffff;stop-opacity:0;"
         offset="1"
         id="stop3790" />
    </linearGradient>
    <linearGradient
       id="linearGradient3335">
      <stop
         id="stop3337"
         offset="0"
         style="stop-color:#eaeaea;stop-opacity:1;" />
      <stop
         style="stop-color:#8b8b8b;stop-opacity:1;"
         offset="0.48433134"
         id="stop3339" />
      <stop
         id="stop3341"
         offset="0.70068479"
         style="stop-color:#b3b3b3;stop-opacity:1;" />
      <stop
         id="stop3343"
         offset="1"
         style="stop-color:#696969;stop-opacity:1;" />
    </linearGradient>
    <linearGradient
       id="linearGradient2817">
      <stop
         style="stop-color:#2f648f;stop-opacity:1;"
         offset="0"
         id="stop2819" />
      <stop
         style="stop-color:#3c83bc;stop-opacity:1;"
         offset="1"
         id="stop2821" />
    </linearGradient>
    <linearGradient
       id="linearGradient2619">
      <stop
         style="stop-color:#ffffff;stop-opacity:0.32508835;"
         offset="0"
         id="stop2621" />
      <stop
         style="stop-color:#ffffff;stop-opacity:0;"
         offset="1"
         id="stop2623" />
    </linearGradient>
    <linearGradient
       id="linearGradient2590">
      <stop
         style="stop-color:#ffffff;stop-opacity:1;"
         offset="0"
         id="stop2592" />
      <stop
         style="stop-color:#ffffff;stop-opacity:0;"
         offset="1"
         id="stop2594" />
    </linearGradient>
    <linearGradient
       id="linearGradient2449">
      <stop
         style="stop-color:#cca37e;stop-opacity:1;"
         offset="0"
         id="stop2451" />
      <stop
         style="stop-color:#a4674c;stop-opacity:1;"
         offset="1"
         id="stop2453" />
    </linearGradient>
    <linearGradient
       inkscape:collect="always"
       xlink:href="#linearGradient2449"
       id="linearGradient3233"
       gradientUnits="userSpaceOnUse"
       x1="57.49057"
       y1="42.624237"
       x2="57.696693"
       y2="59.206181"
       gradientTransform="matrix(0.378447,-0.542958,0.542958,0.378447,4.6740724,57.996933)" />
    <linearGradient
       inkscape:collect="always"
       xlink:href="#linearGradient2590"
       id="linearGradient3295"
       gradientUnits="userSpaceOnUse"
       gradientTransform="matrix(0.378447,-0.542958,0.542958,0.378447,4.9494354,57.562033)"
       x1="-57.380222"
       y1="54.185951"
       x2="-38.549038"
       y2="56.019894" />
    <linearGradient
       inkscape:collect="always"
       xlink:href="#linearGradient2619"
       id="linearGradient3318"
       gradientUnits="userSpaceOnUse"
       x1="-13.818747"
       y1="56.9337"
       x2="-0.18365819"
       y2="56.9337"
       gradientTransform="matrix(0.378447,-0.542958,0.542958,0.378447,10.68448,57.64338)" />
    <linearGradient
       inkscape:collect="always"
       xlink:href="#linearGradient3335"
       id="linearGradient3333"
       gradientUnits="userSpaceOnUse"
       gradientTransform="matrix(0.378447,-0.542958,0.542958,0.378447,4.1905572,57.692206)"
       x1="-36.828953"
       y1="49.873875"
       x2="-36.666954"
       y2="63.037922" />
    <filter
       inkscape:collect="always"
       id="filter3496"
       x="-0.21466543"
       width="1.4293309"
       y="-0.24686524"
       height="1.4937305">
      <feGaussianBlur
         inkscape:collect="always"
         stdDeviation="0.038949019"
         id="feGaussianBlur3498" />
    </filter>
    <filter
       inkscape:collect="always"
       id="filter3586">
      <feGaussianBlur
         inkscape:collect="always"
         stdDeviation="0.20919217"
         id="feGaussianBlur3588" />
    </filter>
    <linearGradient
       inkscape:collect="always"
       xlink:href="#linearGradient4084"
       id="linearGradient3616"
       gradientUnits="userSpaceOnUse"
       gradientTransform="matrix(0.378447,-0.542958,0.542958,0.378447,4.4893864,58.065134)"
       x1="-6.5617447"
       y1="47.728737"
       x2="-7.0802598"
       y2="64.701637" />
    <linearGradient
       inkscape:collect="always"
       xlink:href="#linearGradient2817"
       id="linearGradient3719"
       x1="17.306355"
       y1="112.55618"
       x2="126.4403"
       y2="112.55618"
       gradientUnits="userSpaceOnUse"
       gradientTransform="translate(-6.098796,-0.8838835)" />
    <linearGradient
       inkscape:collect="always"
       xlink:href="#linearGradient3786"
       id="linearGradient3792"
       x1="87.5"
       y1="105.29688"
       x2="101.04022"
       y2="109.04688"
       gradientUnits="userSpaceOnUse" />
    <filter
       inkscape:collect="always"
       id="filter3820">
      <feGaussianBlur
         inkscape:collect="always"
         stdDeviation="0.33555611"
         id="feGaussianBlur3822" />
    </filter>
    <filter
       inkscape:collect="always"
       id="filter4006"
       x="-0.028350384"
       width="1.0567008"
       y="-0.18193924"
       height="1.3638785">
      <feGaussianBlur
         inkscape:collect="always"
         stdDeviation="1.3647067"
         id="feGaussianBlur4008" />
    </filter>
    <linearGradient
       inkscape:collect="always"
       xlink:href="#linearGradient4084"
       id="linearGradient4090"
       x1="83.136536"
       y1="6.2973952"
       x2="87.484299"
       y2="9.413085"
       gradientUnits="userSpaceOnUse" />
    <filter
       inkscape:collect="always"
       id="filter4126">
      <feGaussianBlur
         inkscape:collect="always"
         stdDeviation="0.33059735"
         id="feGaussianBlur4128" />
    </filter>
    <filter
       inkscape:collect="always"
       id="filter4272">
      <feGaussianBlur
         inkscape:collect="always"
         stdDeviation="1.7042675"
         id="feGaussianBlur4274" />
    </filter>
  </defs>
  <sodipodi:namedview
     id="base"
     pagecolor="#ffffff"
     bordercolor="#666666"
     borderopacity="1.0"
     inkscape:pageopacity="0.0"
     inkscape:pageshadow="2"
     inkscape:zoom="2"
     inkscape:cx="46.531358"
     inkscape:cy="114.70291"
     inkscape:document-units="px"
     inkscape:current-layer="layer1"
     inkscape:window-width="1920"
     inkscape:window-height="1030"
     inkscape:window-x="0"
     inkscape:window-y="25"
     showguides="true"
     inkscape:guide-bbox="true"
     showgrid="false"
     inkscape:window-maximized="1" />
  <metadata
     id="metadata2381">
    <rdf:RDF>
      <cc:Work
         rdf:about="">
        <dc:format>image/svg+xml</dc:format>
        <dc:type
           rdf:resource="http://purl.org/dc/dcmitype/StillImage" />
      </cc:Work>
    </rdf:RDF>
  </metadata>
  <g
     inkscape:groupmode="layer"
     id="layer3"
     inkscape:label="ink shadow"
     style="display:inline">
    <path
       sodipodi:nodetypes="cccsccccssscsscssczscssccssccszscccscsscscsccczcsccscscscccsc"
       id="path3795"
       d="M 95.721285,100.09245 C 92.481412,100.40166 94.287626,103.3824 94.8217,105.83107 C 93.639563,107.45103 90.803975,105.97694 89.283787,105.68619 C 87.212101,105.01715 84.470071,104.16731 82.783787,105.77994 C 81.174395,107.31807 84.789682,107.63875 86.443828,107.38312 C 88.039455,107.19652 89.638364,107.56164 90.940037,108.71744 C 78.449231,108.50662 65.631737,110.1889 54.377537,115.87369 C 50.073853,117.96832 45.442905,119.13795 40.846287,120.34244 C 37.615651,120.84191 33.251698,122.27345 30.940037,119.81119 C 27.944693,116.62071 33.242693,114.02382 36.283787,112.81119 C 39.391637,111.57194 43.787239,109.90624 44.127537,106.12369 C 44.324463,103.93477 40.062742,104.09331 38.346287,103.87369 C 29.841803,104.0019 21.700621,107.06284 13.690037,109.56119 C 12.546534,109.91783 11.620738,110.23503 11.471287,111.09244 C 11.382938,111.5993 12.268642,111.65379 12.752537,111.62369 C 20.71215,110.12499 29.883424,104.49121 36.815037,107.56119 C 39.404959,108.70825 34.167985,112.26233 31.440037,113.12369 C 28.333633,114.10455 25.201252,116.46231 24.190037,119.81119 C 23.724302,123.09024 25.409884,124.17472 31.440037,123.93619 C 37.47019,123.69766 47.890405,120.10453 56.315037,116.59244 C 62.189229,114.14359 78.477406,110.4181 84.67727,110.61887 C 81.770834,111.68079 75.694121,113.05049 75.971287,114.15494 C 76.474981,116.16206 86.391074,111.24761 91.908787,111.90494 C 92.944708,112.02835 94.425055,112.59043 94.690035,113.31119 C 94.662395,114.12701 94.06762,114.10647 93.377537,114.37369 C 91.27746,114.62003 89.258714,115.10299 87.221287,115.81119 C 84.6144,116.71733 84.829181,120.06157 87.658787,120.06119 C 89.921342,120.06088 92.411877,119.73964 93.940037,117.90494 C 95.413535,116.66985 95.591615,114.4034 97.315035,113.46744 C 99.148185,112.58402 101.88277,112.63685 103.12753,114.15494 C 104.67406,116.04108 106.65903,118.14632 108.78378,118.12369 C 110.90852,118.10106 114.92163,119.43604 114.03378,116.99869 C 113.23722,114.81194 110.25878,114.00335 107.94003,113.68619 C 106.53378,113.38482 104.93335,113.38319 103.75253,112.49869 C 103.42011,110.54239 104.90256,110.34396 106.53378,109.71744 C 105.66283,109.29306 104.33988,108.78766 104.62753,108.02301 C 105.69819,105.17689 110.56552,106.16287 113.34628,105.62369 C 114.57792,105.23015 116.31939,104.37076 115.72128,103.71744 C 113.60903,101.41023 107.53743,105.20493 104.22128,106.09244 C 102.33602,106.59699 99.305135,106.6036 98.752535,104.18619 C 98.726675,101.76883 98.166125,99.859118 95.721285,100.09245 z M 104.37753,102.71744 C 105.5526,102.73731 107.78791,101.91191 107.06503,100.84245 C 106.31796,99.737193 104.73413,101.98723 104.37753,102.71744 z M 75.047651,104.90494 C 75.109048,106.19382 78.142142,105.91759 79.585945,105.29154 C 78.480844,104.29043 74.986313,103.6173 75.047651,104.90494 z M 110.86248,109.81341 C 114.00257,110.11498 118.32943,113.43384 120.21159,111.14801 C 122.62362,108.21867 113.07469,109.47077 110.86248,109.81341 z M 95.377535,122.68619 C 95.476545,122.92143 95.957605,122.48854 96.190035,122.31119 C 96.938145,121.74035 96.500955,120.12856 96.908785,119.12369 C 95.576295,119.91892 95.102425,122.03252 95.377535,122.68619 z M 72.627537,119.71744 C 71.520777,119.78481 70.305609,119.85583 70.158787,120.27994 C 69.454199,122.3152 74.479869,120.44486 75.440037,119.90494 C 74.574113,119.71398 73.559546,119.6607 72.627537,119.71744 z M 115.40878,122.06119 C 115.95586,123.44594 116.48345,125.86338 118.09628,124.96744 C 119.35846,124.26629 116.76718,122.8455 115.40878,122.06119 z"
       style="fill:#1e3e5a;fill-opacity:0.27906979;fill-rule:nonzero;stroke:none;stroke-width:1;stroke-linecap:butt;stroke-linejoin:miter;stroke-miterlimit:10;stroke-dasharray:none;stroke-opacity:1;display:inline;filter:url(#filter3820)" />
  </g>
  <g
     inkscape:groupmode="layer"
     id="layer2"
     inkscape:label="ink"
     style="display:inline">
    <path
       style="fill:url(#linearGradient3719);fill-opacity:1;fill-rule:nonzero;stroke:none;stroke-width:1;stroke-linecap:butt;stroke-linejoin:miter;stroke-miterlimit:10;stroke-dasharray:none;stroke-opacity:1"
       d="M 95.463702,99.147366 C 92.223829,99.456576 94.030043,102.43732 94.564117,104.88599 C 93.38198,106.50595 90.546392,105.03186 89.026204,104.74111 C 86.954518,104.07207 84.212488,103.22223 82.526204,104.83486 C 80.916812,106.37299 84.532099,106.69367 86.186245,106.43804 C 87.781872,106.25144 89.380781,106.61656 90.682454,107.77236 C 78.191648,107.56154 65.374154,109.24382 54.119954,114.92861 C 49.81627,117.02324 45.185322,118.19287 40.588704,119.39736 C 37.358068,119.89683 32.994115,121.32837 30.682454,118.86611 C 27.68711,115.67563 32.98511,113.07874 36.026204,111.86611 C 39.134054,110.62686 43.529656,108.96116 43.869954,105.17861 C 44.06688,102.98969 39.805159,103.14823 38.088704,102.92861 C 29.58422,103.05682 21.443038,106.11776 13.432454,108.61611 C 12.288951,108.97275 11.363155,109.28995 11.213704,110.14736 C 11.125355,110.65422 12.011059,110.70871 12.494954,110.67861 C 20.454567,109.17991 29.625841,103.54613 36.557454,106.61611 C 39.147376,107.76317 33.910402,111.31725 31.182454,112.17861 C 28.07605,113.15947 24.943669,115.51723 23.932454,118.86611 C 23.466719,122.14516 25.152301,123.22964 31.182454,122.99111 C 37.212607,122.75258 47.632822,119.15945 56.057454,115.64736 C 61.931646,113.19851 78.219823,109.47302 84.419687,109.67379 C 81.513251,110.73571 75.436538,112.10541 75.713704,113.20986 C 76.217398,115.21698 86.133491,110.30253 91.651204,110.95986 C 92.687125,111.08327 94.167472,111.64535 94.432452,112.36611 C 94.404812,113.18193 93.810037,113.16139 93.119954,113.42861 C 91.019877,113.67495 89.001131,114.15791 86.963704,114.86611 C 84.356817,115.77225 84.571598,119.11649 87.401204,119.11611 C 89.663759,119.1158 92.154294,118.79456 93.682454,116.95986 C 95.155952,115.72477 95.334032,113.45832 97.057452,112.52236 C 98.890602,111.63894 101.62519,111.69177 102.86995,113.20986 C 104.41648,115.096 106.40145,117.20124 108.5262,117.17861 C 110.65094,117.15598 114.66405,118.49096 113.7762,116.05361 C 112.97964,113.86686 110.0012,113.05827 107.68245,112.74111 C 106.2762,112.43974 104.67577,112.43811 103.49495,111.55361 C 103.16253,109.59731 104.64498,109.39888 106.2762,108.77236 C 105.40525,108.34798 104.0823,107.84258 104.36995,107.07793 C 105.44061,104.23181 110.30794,105.21779 113.0887,104.67861 C 114.32034,104.28507 116.06181,103.42568 115.4637,102.77236 C 113.35145,100.46515 107.27985,104.25985 103.9637,105.14736 C 102.07844,105.65191 99.047552,105.65852 98.494952,103.24111 C 98.469092,100.82375 97.908542,98.914035 95.463702,99.147366 z M 104.80496,100.46863 C 105.98003,100.4885 108.21534,99.663102 107.49246,98.593638 C 106.74539,97.488382 105.16156,99.738422 104.80496,100.46863 z M 74.790068,103.95986 C 74.851465,105.24874 77.884559,104.97251 79.328362,104.34646 C 78.223261,103.34535 74.72873,102.67222 74.790068,103.95986 z M 112.1075,108.86833 C 115.24759,109.1699 119.57445,112.48876 121.45661,110.20293 C 123.86864,107.27359 114.31971,108.52569 112.1075,108.86833 z M 95.119952,121.74111 C 95.218962,121.97635 95.700022,121.54346 95.932452,121.36611 C 96.680562,120.79527 96.243372,119.18348 96.651202,118.17861 C 95.318712,118.97384 94.844842,121.08744 95.119952,121.74111 z M 72.369954,118.77236 C 71.263194,118.83973 70.048026,118.91075 69.901204,119.33486 C 69.196616,121.37012 74.222286,119.49978 75.182454,118.95986 C 74.31653,118.7689 73.301963,118.71562 72.369954,118.77236 z M 115.1512,121.11611 C 115.69828,122.50086 116.22587,124.9183 117.8387,124.02236 C 119.10088,123.32121 116.5096,121.90042 115.1512,121.11611 z"
       id="path2752"
       sodipodi:nodetypes="cccsccccssscsscssczscssccssccszscccscsscscsccczcsccscscscccsc" />
    <path
       style="fill:#000000;fill-opacity:0.21262458;fill-rule:nonzero;stroke:none;stroke-width:1;stroke-linecap:butt;stroke-linejoin:miter;stroke-miterlimit:10;stroke-dasharray:none;stroke-opacity:1"
       d="M 96.633542,99.615466 C 98.172002,100.39404 97.274092,102.41185 97.780452,103.82484 C 98.255722,105.15108 99.723502,105.47517 99.967382,105.1896 C 99.174232,104.80682 98.659882,104.04368 98.472852,102.64449 C 98.237772,100.8858 98.399292,100.07833 96.633542,99.615466 z M 105.31347,99.910842 C 106.22024,100.04112 107.27914,99.061712 107.50887,98.551942 C 107.06871,98.932812 106.15542,99.580832 105.31347,99.910842 z M 104.30745,105.69424 C 103.28534,106.57697 103.55933,107.8312 104.10433,107.94423 C 104.39356,107.28322 104.61001,106.29672 104.82308,106.14736 C 107.31304,104.40186 110.32775,105.29526 113.0887,104.67861 C 113.96003,104.484 115.20706,103.48649 115.19808,102.85049 C 113.8451,104.38852 106.21593,104.046 104.30745,105.69424 z M 74.963704,103.95986 C 75.50632,104.72658 77.466424,104.49074 78.651204,104.17861 C 77.542847,104.1954 76.116774,104.43248 74.963704,103.95986 z M 43.244954,104.64736 C 43.468183,105.39148 42.222938,107.37055 39.807454,108.95986 C 36.871328,110.89174 32.965015,112.174 31.588704,113.11611 C 30.212395,114.05822 29.017793,115.00093 28.963704,116.52236 C 28.901724,118.26567 29.676569,118.71139 30.838704,119.30361 C 27.543613,114.8371 33.488773,112.93121 36.026204,111.86611 C 40.187376,110.11944 45.154995,108.54496 43.244954,104.64736 z M 31.807454,104.86611 C 30.012194,104.89698 28.22312,105.21287 26.401204,105.74111 C 22.616522,106.83844 15.034771,109.70941 11.119954,110.17861 C 13.65899,111.61762 23.600827,105.95638 31.869954,105.92861 C 33.888599,105.92183 35.957066,106.91272 37.619954,107.58486 C 38.277063,106.44944 37.139988,105.51651 35.057454,105.14736 C 33.959716,104.91504 32.88461,104.84759 31.807454,104.86611 z M 82.619954,105.58486 C 82.859012,106.88782 84.915876,106.49343 86.182454,106.42861 C 89.08499,106.30567 90.009517,107.28163 91.526204,107.92861 C 91.195872,107.06958 89.813947,106.29884 88.838704,105.95986 C 87.72067,105.57126 86.423305,105.65518 85.026204,105.74111 C 84.187943,105.79267 83.517476,105.83086 82.619954,105.58486 z M 105.1512,108.70986 C 103.4184,108.76711 101.99592,110.05659 103.11995,111.80361 C 103.39032,111.10581 103.92704,109.48032 105.9012,108.77236 C 105.64724,108.72932 105.39874,108.70168 105.1512,108.70986 z M 121.76965,109.0353 C 120.85442,110.84124 117.04618,110.05062 114.4884,109.50405 C 117.19823,110.65949 121.61797,112.72585 121.76965,109.0353 z M 81.713704,109.02236 C 73.899901,109.24599 61.349489,112.57379 54.369954,115.64736 C 49.991169,117.57564 45.506744,119.19704 40.901204,120.36611 C 37.760237,121.16342 31.117617,122.48868 28.182454,121.89736 C 25.247292,121.30605 24.8902,120.63328 24.338704,119.27236 C 24.037323,119.93121 23.896573,120.75546 24.276204,121.30361 C 25.74264,123.421 28.645025,123.01774 31.182454,122.99111 C 37.212607,122.75258 47.698892,119.31392 56.057454,115.64736 C 60.857593,113.54174 78.533555,109.65477 86.057454,109.36611 C 85.258441,109.16893 84.301086,109.05358 83.213704,109.02236 C 82.737974,109.0087 82.234624,109.00745 81.713704,109.02236 z M 89.901204,109.92861 C 87.512429,109.90418 85.679046,110.63056 84.494954,110.95986 C 81.939175,111.67065 77.605862,112.88894 75.963704,113.42861 C 78.114382,113.97805 89.150273,109.64606 94.151202,111.67861 C 93.608512,110.45386 91.376331,110.03308 89.901204,109.92861 z M 98.932452,111.08486 C 97.929532,111.11448 96.942312,111.28323 95.901202,112.33486 C 94.306332,113.94583 93.480255,116.5447 91.401204,117.42861 C 89.408117,118.27596 87.14674,118.23257 85.401204,117.92861 C 85.738191,118.51064 86.399052,119.11624 87.401204,119.11611 C 89.663759,119.1158 92.019685,118.66037 93.682454,116.95986 C 95.021342,115.59058 95.334032,113.45832 97.057452,112.52236 C 98.648532,111.7556 100.92174,111.68886 102.30745,112.67861 C 102.04005,111.35645 100.47204,111.0394 98.932452,111.08486 z M 103.99495,114.20986 C 105.31227,115.61065 106.92018,117.19572 108.5262,117.17861 C 110.45778,117.15804 113.94927,118.09065 113.9012,116.45986 C 113.56426,115.78046 112.98898,115.26195 112.30745,114.86611 C 113.89584,117.03052 111.95763,117.08656 108.2137,116.14736 C 107.03314,115.8512 105.70075,114.95873 103.99495,114.20986 z M 74.119954,118.92861 C 73.307521,119.12954 71.123286,119.83931 70.026204,119.70986 C 70.531618,120.24897 73.104967,120.19682 74.119954,118.92861 z M 96.463702,119.45986 C 96.10187,120.32465 95.749038,121.37607 95.195071,121.68397 C 96.1437,121.76794 96.399811,120.70634 96.463702,119.45986 z M 115.61995,122.67861 C 116.1449,124.19978 117.84142,124.66299 117.93245,123.14736 C 117.08167,123.96737 116.36455,123.41512 115.61995,122.67861 z"
       id="path3639"
       sodipodi:nodetypes="cscsccccccsscsccccssscsccscsccccccsscccccccccssscscscsccsccccsscssccccsccscccccccccc" />
    <path
       style="fill:#ffffff;fill-opacity:0.45182723;fill-rule:nonzero;stroke:none;stroke-width:1;stroke-linecap:butt;stroke-linejoin:miter;stroke-miterlimit:10;stroke-dasharray:none;stroke-opacity:1"
       d="M 95.46875,99.15625 C 92.22888,99.465457 93.997176,102.36383 94.53125,104.8125 C 94.078311,106.06786 90.551438,105.04075 89.03125,104.75 C 86.959561,104.08096 84.217534,103.23112 82.53125,104.84375 C 82.287829,105.07639 82.172489,105.63903 83.28125,105.71875 C 82.446045,105.28528 83.909815,104.78609 84.75,104.65625 C 86.345634,104.46965 90.264928,105.84825 91.84375,106.40625 C 93.348496,106.81946 94.659666,106.31559 95.25,105.125 C 95.987289,103.63803 93.073243,100.51613 95.28125,99.9375 C 96.382026,99.649026 97.359545,100.2843 97.5625,101.09375 C 97.577651,99.48833 96.87603,99.246649 95.46875,99.15625 z M 107.42906,98.558648 C 106.72602,98.320534 105.85013,99.490108 105.55243,99.837088 C 105.99637,99.630958 106.89299,98.607058 107.42906,98.558648 z M 36.96875,101.875 C 30.233682,101.9598 20.120291,106.41867 13.4375,108.625 C 12.436935,108.93706 11.917957,109.57876 11.625,110.21875 C 11.921828,109.5887 24.688317,105.41566 34.15625,103.96875 C 36.799002,103.56488 41.525014,103.85506 42.90625,104.1875 C 41.712058,102.48993 39.604212,101.84182 36.96875,101.875 z M 113.25,102.03125 C 112.08794,102.08842 110.37937,102.64102 108.73438,103.23437 C 106.49344,104.36613 105.08854,104.6875 103.21875,105.25 C 101.88289,105.5989 100.20615,105.96326 99.125,105.125 C 99.680215,105.90448 101.58314,106.2902 103.35938,105.78125 C 105.77168,105.09005 109.40607,103.49777 112.40794,102.97765 C 113.66652,102.75958 114.27303,103.03907 115.5,103.15625 C 115.17152,102.59926 113.76471,102.00593 113.25,102.03125 z M 75.90625,103.25 C 75.258168,103.26709 74.875159,103.79092 74.875,104.25 C 75.625474,103.74102 76.056385,103.83093 78.5625,104.28125 C 77.885001,103.87774 76.52455,103.23369 75.90625,103.25 z M 36.78125,105.4375 C 40.178064,108.09766 33.741318,111.0874 31.1875,112.1875 C 28.081097,113.16836 25.479965,114.58862 24.46875,117.9375 C 24.134675,120.03934 24.988256,120.32837 25.40625,120.96875 C 26.043369,121.30665 26.273124,121.5249 27.4375,121.625 C 23.487213,119.72339 25.269135,116.79589 28.21875,114.625 C 30.39827,113.02089 30.569053,113.22011 34.65625,111.3125 C 38.770048,109.39247 38.518634,105.82537 36.78125,105.4375 z M 91,107.15625 C 91.597262,107.85061 91.466694,107.8671 91.5,108.03125 C 79.009194,107.82043 65.3792,109.25271 54.125,114.9375 C 49.821317,117.03213 45.212127,118.40616 40.59375,119.40625 C 33.834979,120.86983 30.129994,120.58751 28.9375,117.125 C 29.01427,119.21067 30.732523,120.54425 33.1875,121.125 C 35.637435,121.70455 46.452839,119.01579 54.78125,115.28125 C 57.768032,113.94195 63.999516,111.76055 70.0625,110.40625 C 75.385502,109.21725 80.632157,108.6526 83.53125,108.6875 C 86.079384,108.71817 87.860742,108.36534 90.09375,108.53125 C 92.739916,108.72785 92.934523,108.54661 91,107.15625 z M 118.45841,108.2904 C 116.76684,108.28302 115.01329,108.612 113.61466,108.7904 C 114.81811,109.42468 116.67814,110.08073 117.52091,109.9779 C 114.3304,108.69567 119.60879,108.77858 121.55216,109.3529 C 120.95915,108.26233 119.69268,108.33869 118.45841,108.2904 z M 87.09375,109.28125 C 85.475618,109.36939 85.187952,109.52813 84.40625,109.6875 C 81.81648,110.63372 73.898439,113.18088 76.78125,113.25 C 75.91846,112.96143 78.277136,112.36075 79.3125,112 C 82.113401,111.02408 84.860386,110.53144 87.09375,109.28125 z M 102.6875,110.78125 C 102.32042,111.32591 102.70729,111.9228 103.59375,112.40625 C 104.69347,113.00602 106.33035,113.33982 107.5625,113.40625 C 108.78363,113.47208 112.0789,114.40665 112.6875,115.5625 C 112.43431,114.80696 112.24606,114.25024 111.8125,114.0625 C 110.71849,113.58877 109.44048,113.39814 107.6875,112.75 C 106.20049,112.5833 104.31485,112.00336 103.125,111.71875 C 102.79687,111.6232 102.71719,110.98888 102.6875,110.78125 z M 93.65625,111.0625 C 94.620039,112.10541 94.221099,113.20841 93,113.4375 C 90.930099,113.82584 89.006177,114.1668 86.96875,114.875 C 85.036309,115.80176 85.007796,118.25089 86.5625,118.0625 C 84.308964,116.48338 87.262332,115.11742 90.28125,114.6875 C 92.007394,114.44168 93.742486,114.19103 94.625,113.5625 C 95.558228,112.89785 95.549259,111.90373 93.65625,111.0625 z M 71.9375,118.90625 C 71.035136,118.98089 70.344848,119.4905 70.03125,119.75 C 70.664196,119.46264 72.278301,119.34543 73.5,119.25 C 73.096772,119.03614 72.708375,118.93004 72.34375,118.90625 C 72.207016,118.89733 72.066409,118.89559 71.9375,118.90625 z M 95.375,119.75 C 95.309899,119.90514 95.264597,120.06508 95.21875,120.21875 C 95.288849,120.0849 95.34137,119.91743 95.375,119.75 z M 115.15625,121.125 C 115.42219,121.79814 115.86637,123.02553 116.25,123.6875 C 116.49003,123.73237 116.40449,123.03395 116.34375,122.5625 C 116.65373,122.65618 117.55208,123.04167 117.6875,122.8125 C 117.09958,122.41089 115.66565,121.41912 115.15625,121.125 z"
       id="path3749"
       sodipodi:nodetypes="cccscccsscccccccssccccccsscccccccccccssccccscssssscccccccccsccsscsccccsccssccccsccscccccc" />
    <path
       style="fill:url(#linearGradient3792);fill-opacity:1;fill-rule:evenodd;stroke:none;stroke-width:1px;stroke-linecap:butt;stroke-linejoin:miter;stroke-opacity:1"
       d="M 96.8125,99.28125 C 97.819283,105.63624 95.962879,108.96301 93.5,111.53125 C 93.954202,111.7647 94.319363,112.05366 94.4375,112.375 C 94.409863,113.19082 93.815083,113.17028 93.125,113.4375 C 92.459961,113.51551 91.808152,113.62489 91.15625,113.75 C 89.429198,115.31288 87.758945,116.85465 86.875,119.09375 C 87.040253,119.12171 87.217721,119.12503 87.40625,119.125 C 89.668802,119.12469 92.15934,118.80345 93.6875,116.96875 C 95.160995,115.73366 95.33908,113.46721 97.0625,112.53125 C 98.895653,111.64783 101.63024,111.70066 102.875,113.21875 C 104.42153,115.10489 106.4065,117.21013 108.53125,117.1875 C 110.65599,117.16487 114.6691,118.49985 113.78125,116.0625 C 112.98469,113.87575 110.00625,113.06716 107.6875,112.75 C 106.28125,112.44863 104.68082,112.447 103.5,111.5625 C 103.16758,109.6062 104.65003,109.40777 106.28125,108.78125 C 105.4103,108.35687 104.08735,107.82715 104.375,107.0625 C 105.44566,104.21638 110.31299,105.22668 113.09375,104.6875 C 114.32539,104.29396 116.06686,103.43457 115.46875,102.78125 C 113.3565,100.47404 107.2849,104.26874 103.96875,105.15625 C 102.08349,105.6608 99.0526,105.66741 98.5,103.25 C 98.479799,101.36144 98.128941,99.770308 96.8125,99.28125 z M 96.65625,118.1875 C 95.323763,118.98273 94.84989,121.09633 95.125,121.75 C 95.224013,121.98524 95.70507,121.55235 95.9375,121.375 C 96.685613,120.80416 96.24842,119.19237 96.65625,118.1875 z M 115.15625,121.125 C 115.59043,122.22398 116.0069,123.96011 116.96875,124.1875 L 117.4375,122.5625 C 116.77807,122.03019 115.82433,121.51073 115.15625,121.125 z"
       id="path3781"
       sodipodi:nodetypes="ccccccsccssscccscsscccssccccc" />
    <path
       sodipodi:nodetypes="cscsccccssscsscssczscsscsssscssscccsssscscsccczcsccscscscccsc"
       id="path3637"
       d="M 95.463702,99.324143 C 91.22946,99.765935 95.775202,104.37209 94.321049,105.26164 C 92.519682,106.36359 90.546392,105.03186 89.026204,104.74111 C 86.954518,104.07207 84.212488,103.22223 82.526204,104.83486 C 80.916812,106.37299 84.532099,106.69367 86.186245,106.43804 C 87.781872,106.25144 89.380781,106.61656 90.682454,107.77236 C 78.191648,107.56154 65.374154,109.24382 54.119954,114.92861 C 49.81627,117.02324 45.185322,118.19287 40.588704,119.39736 C 37.358068,119.89683 32.994115,121.32837 30.682454,118.86611 C 27.68711,115.67563 32.98511,113.07874 36.026204,111.86611 C 39.134054,110.62686 43.529656,108.96116 43.869954,105.17861 C 44.06688,102.98969 39.805159,103.14823 38.088704,102.92861 C 29.58422,103.05682 21.443038,106.11776 13.432454,108.61611 C 12.288951,108.97275 11.363155,109.28995 11.213704,110.14736 C 11.125355,110.65422 12.011059,110.70871 12.494954,110.67861 C 20.454567,109.17991 29.625841,103.54613 36.557454,106.61611 C 39.147376,107.76317 33.910402,111.31725 31.182454,112.17861 C 28.07605,113.15947 24.943669,115.51723 23.932454,118.86611 C 23.466719,122.14516 25.152301,123.22964 31.182454,122.99111 C 37.212607,122.75258 47.632822,119.15945 56.057454,115.64736 C 61.931646,113.19851 78.219823,109.47302 84.419687,109.67379 C 81.513251,110.73571 75.436538,112.10541 75.713704,113.20986 C 76.217398,115.21698 86.133491,110.30253 91.651204,110.95986 C 92.687125,111.08327 94.167472,111.64535 94.432452,112.36611 C 94.404812,113.18193 93.671416,113.26422 92.948079,113.39736 C 90.881256,113.77778 88.829256,114.12666 86.791829,114.83486 C 84.184942,115.741 84.571598,119.11649 87.401204,119.11611 C 89.663759,119.1158 92.019685,118.66037 93.682454,116.95986 C 95.021342,115.59058 95.334032,113.45832 97.057452,112.52236 C 98.890602,111.63894 101.62519,111.69177 102.86995,113.20986 C 104.41648,115.096 106.4283,116.84116 108.5262,117.17861 C 110.61969,117.51536 114.66405,118.49096 113.7762,116.05361 C 112.97964,113.86686 110.0012,113.05827 107.68245,112.74111 C 106.2762,112.43974 104.67577,112.43811 103.49495,111.55361 C 103.16253,109.59731 104.64498,109.39888 106.2762,108.77236 C 105.40525,108.34798 104.0823,107.84258 104.36995,107.07793 C 105.44061,104.23181 110.33383,105.31901 113.0887,104.67861 C 114.34623,104.38629 116.06181,103.42568 115.4637,102.77236 C 113.35145,100.46515 107.2486,104.15714 103.93245,104.99111 C 102.03978,105.4671 99.047552,105.65852 98.494952,103.24111 C 98.469092,100.82375 97.906391,99.069277 95.463702,99.324143 z M 104.9637,100.17861 C 106.13877,100.19848 108.37408,99.37308 107.6512,98.303616 C 106.90413,97.19836 105.3203,99.4484 104.9637,100.17861 z M 74.790068,103.95986 C 74.851465,105.24874 77.884559,104.97251 79.328362,104.34646 C 78.223261,103.34535 74.72873,102.67222 74.790068,103.95986 z M 112.32847,108.86833 C 115.46856,109.1699 119.79542,112.48876 121.67758,110.20293 C 124.08961,107.27359 114.54068,108.52569 112.32847,108.86833 z M 95.119952,121.74111 C 95.218962,121.97635 95.898896,121.78653 96.131326,121.60918 C 96.879436,121.03834 96.243372,119.18348 96.651202,118.17861 C 95.318712,118.97384 94.844842,121.08744 95.119952,121.74111 z M 72.369954,118.77236 C 71.263194,118.83973 70.048026,118.91075 69.901204,119.33486 C 69.196616,121.37012 74.222286,119.49978 75.182454,118.95986 C 74.31653,118.7689 73.301963,118.71562 72.369954,118.77236 z M 115.1512,121.11611 C 115.69828,122.50086 116.22587,124.9183 117.8387,124.02236 C 119.10088,123.32121 116.5096,121.90042 115.1512,121.11611 z"
       style="fill:none;fill-opacity:1;fill-rule:nonzero;stroke:#26557b;stroke-width:1;stroke-linecap:butt;stroke-linejoin:miter;stroke-miterlimit:10;stroke-dasharray:none;stroke-opacity:1" />
  </g>
  <g
     inkscape:groupmode="layer"
     id="layer4"
     inkscape:label="pen shadow"
     style="display:inline">
    <path
       style="fill:#000000;fill-opacity:0.12956806;fill-rule:evenodd;stroke:none;stroke-width:1px;stroke-linecap:butt;stroke-linejoin:miter;stroke-opacity:1;display:inline;filter:url(#filter4006)"
       d="M 127.55267,126.35225 C 124.40174,125.01582 119.19674,124.23334 114.84169,123.28645 C 98.821903,120.23077 82.013652,117.58175 65.325572,114.88975 C 61.754677,114.26808 57.504468,114.2272 53.841978,113.83981 C 49.501628,113.40682 45.201042,112.92967 40.835644,112.52449 C 38.867087,112.54675 37.502102,111.54097 35.441233,112.00724 C 31.139264,112.01608 26.997642,110.30317 22.158218,110.09126 C 18.946025,110.11686 14.335922,109.16449 12.023513,109.74968 C 14.438825,110.10717 16.397833,110.52606 16.596119,111.36359 C 16.576306,111.93738 18.157998,112.13281 19.590291,112.36355 C 21.042458,113.39692 24.754131,113.19228 27.455089,113.73436 C 28.553752,114.06582 31.492235,114.10708 30.996301,114.68864 C 30.412232,115.52888 33.42564,115.4228 35.087606,115.60867 C 36.456366,115.85917 37.827426,116.1887 39.323456,116.42059 C 42.489153,116.96966 45.536389,117.59515 48.778312,118.09505 C 54.640171,120.10133 63.699083,120.71027 71.351594,121.84639 C 87.356583,123.87237 103.28066,126.04987 120.11607,127.36034 C 123.41012,127.64453 127.55582,127.85062 127.55267,126.35225 z"
       id="path3825"
       transform="matrix(0.9891802,0,0,0.9583383,0.1300918,4.5644238)" />
  </g>
  <g
     inkscape:label="pen"
     inkscape:groupmode="layer"
     id="layer1"
     style="display:inline">
    <path
       style="fill:#000000;fill-opacity:1;fill-rule:evenodd;stroke:#343434;stroke-width:2;stroke-linecap:butt;stroke-linejoin:miter;stroke-miterlimit:4;stroke-dasharray:none;stroke-opacity:1"
       d="M 31.114976,94.146486 L 20.864284,106.70811 L 16.363438,107.15777 L 27.132564,91.665714 L 31.114976,94.146486 z"
       id="path3331"
       sodipodi:nodetypes="ccccc" />
    <path
       style="fill:none;fill-opacity:1;fill-rule:evenodd;stroke:#6c6c6c;stroke-width:4;stroke-linecap:butt;stroke-linejoin:miter;stroke-miterlimit:4;stroke-dasharray:none;stroke-opacity:1"
       d="M 11.664616,108.89659 L 12.506629,109.59073 C 14.653927,106.57946 17.358084,105.051 19.742799,104.06349 C 22.372747,102.97442 24.643885,102.5499 25.368462,101.53034 C 26.444876,98.372541 29.592498,89.775196 29.592498,89.775196 L 25.356756,86.961601 C 25.356756,86.961601 17.667863,95.814939 15.867444,98.215856 C 14.11006,102.65675 13.478225,104.65565 11.664616,108.89659 z"
       id="path4284"
       sodipodi:nodetypes="ccsccccc" />
    <path
       style="fill:#dadada;fill-opacity:1;fill-rule:evenodd;stroke:none;stroke-width:2.5;stroke-linecap:butt;stroke-linejoin:miter;stroke-miterlimit:4;stroke-dasharray:none;stroke-opacity:1"
       d="M 15.727933,98.276115 C 15.108083,99.642475 14.290937,102.8053 11.785499,109.3204 L 12.453078,109.59073 C 17.054414,103.55769 23.851951,103.74701 25.207811,101.74454 C 26.284225,98.586743 29.592498,89.775196 29.592498,89.775196 L 29.354954,89.609626 L 26.010825,87.354366 L 25.77328,87.188796 C 22.802305,90.585076 18.786216,94.963371 15.727933,98.276115 z"
       id="path2407"
       sodipodi:nodetypes="ccccccccc" />
    <path
       style="fill:url(#linearGradient3333);fill-opacity:1;fill-rule:evenodd;stroke:none;stroke-width:2.5;stroke-linecap:butt;stroke-linejoin:miter;stroke-miterlimit:4;stroke-opacity:1"
       d="M 16.391676,98.553304 C 15.370881,101.40679 14.045532,105.05315 13.034616,107.71967 C 14.431243,106.31138 16.818846,104.55038 19.082686,103.53248 C 21.150073,102.6029 23.609718,102.15701 24.772317,101.28425 C 25.701047,98.164094 28.327236,91.446167 28.684003,90.495275 L 25.124069,88.021944 C 24.288876,88.818037 18.375704,96.230581 16.391676,98.553304 z"
       id="path2529"
       sodipodi:nodetypes="ccscccc" />
    <path
       d="M 26.724069,97.147491 C 24.523797,97.708309 21.972142,98.108794 19.70051,98.098732 C 19.339449,96.756751 19.095791,95.647098 19.221247,94.37029 M 27.63285,95.708588 C 25.432578,96.269406 22.880923,96.669891 20.609291,96.659829 C 20.24823,95.317848 20.004572,94.208195 20.130028,92.931387 M 21.555445,91.457631 C 21.656987,93.209446 25.088714,94.589655 27.236308,95.235501"
       style="fill:none;fill-rule:evenodd;stroke:#dadada;stroke-width:0.5;stroke-linecap:butt;stroke-linejoin:miter;stroke-miterlimit:4;stroke-dasharray:none;stroke-opacity:1"
       id="path3352" />
    <path
       id="path3345"
       style="fill:none;fill-rule:evenodd;stroke:#858585;stroke-width:0.30000001;stroke-linecap:butt;stroke-linejoin:miter;stroke-miterlimit:4;stroke-dasharray:none;stroke-opacity:1"
       d="M 26.724069,97.147491 C 24.523797,97.708309 21.972142,98.108794 19.70051,98.098732 C 19.339449,96.756751 19.095791,95.647098 19.221247,94.37029 M 27.63285,95.708588 C 25.432578,96.269406 22.880923,96.669891 20.609291,96.659829 C 20.24823,95.317848 20.004572,94.208195 20.130028,92.931387 M 21.555445,91.457631 C 21.656987,93.209446 25.088714,94.589655 27.236308,95.235501" />
    <path
       style="fill:url(#linearGradient3295);fill-opacity:1;fill-rule:evenodd;stroke:none;stroke-width:1px;stroke-linecap:butt;stroke-linejoin:miter;stroke-opacity:1"
       d="M 16.068273,98.016406 C 15.453328,99.433808 15.600244,102.24385 11.759512,108.70805 L 13.208763,109.47947 C 16.084598,105.70882 19.810692,104.36533 22.537593,103.40167 C 21.989792,103.18031 21.4801,102.85922 21.025947,102.42367 C 19.140065,100.37734 19.921854,97.420746 19.131929,94.977345 C 18.642652,95.488104 16.567801,97.51706 16.068273,98.016406 z"
       id="path2570"
       sodipodi:nodetypes="ccccccc" />
    <path
       sodipodi:type="arc"
       style="opacity:1;fill:#ffffff;fill-opacity:0.78737542;fill-rule:evenodd;stroke:none;stroke-width:10;stroke-linecap:butt;stroke-linejoin:miter;marker:none;marker-start:none;marker-mid:none;marker-end:none;stroke-miterlimit:4;stroke-dasharray:none;stroke-dashoffset:0;stroke-opacity:1;visibility:visible;display:inline;overflow:visible;filter:url(#filter3496);enable-background:accumulate"
       id="path3354"
       sodipodi:cx="26.837427"
       sodipodi:cy="93.087677"
       sodipodi:rx="0.21772869"
       sodipodi:ry="0.1893293"
       d="M 27.055156,93.087677 A 0.21772869,0.1893293 0 1 1 26.619698,93.087677 A 0.21772869,0.1893293 0 1 1 27.055156,93.087677 z"
       transform="matrix(2.3152174,0,0,2.6037066,-41.193861,-149.28676)" />
    <path
       transform="matrix(3.293338,0,0,3.7037066,-68.731541,-241.53515)"
       d="M 27.055156,93.087677 A 0.21772869,0.1893293 0 1 1 26.619698,93.087677 A 0.21772869,0.1893293 0 1 1 27.055156,93.087677 z"
       sodipodi:ry="0.1893293"
       sodipodi:rx="0.21772869"
       sodipodi:cy="93.087677"
       sodipodi:cx="26.837427"
       id="path3500"
       style="opacity:1;fill:#ffffff;fill-opacity:0.78737542;fill-rule:evenodd;stroke:none;stroke-width:10;stroke-linecap:butt;stroke-linejoin:miter;marker:none;marker-start:none;marker-mid:none;marker-end:none;stroke-miterlimit:4;stroke-dasharray:none;stroke-dashoffset:0;stroke-opacity:1;visibility:visible;display:inline;overflow:visible;filter:url(#filter3496);enable-background:accumulate"
       sodipodi:type="arc" />
    <path
       sodipodi:nodetypes="ccsccccc"
       id="path2521"
       d="M 11.664616,108.89659 L 12.506629,109.59073 C 14.653927,106.57946 17.358084,105.051 19.742799,104.06349 C 22.372747,102.97442 24.643885,102.5499 25.368462,101.53034 C 26.444876,98.372541 29.592498,89.775196 29.592498,89.775196 L 25.356756,86.961601 C 25.356756,86.961601 17.667863,95.814939 15.867444,98.215856 C 14.11006,102.65675 13.478225,104.65565 11.664616,108.89659 z"
       style="fill:none;fill-opacity:1;fill-rule:evenodd;stroke:#9c9c9c;stroke-width:1;stroke-linecap:butt;stroke-linejoin:miter;stroke-miterlimit:4;stroke-dasharray:none;stroke-opacity:1" />
    <path
       style="fill:#575757;fill-opacity:1;fill-rule:evenodd;stroke:#e2e2e2;stroke-width:0.12;stroke-linecap:butt;stroke-linejoin:miter;stroke-miterlimit:4;stroke-dasharray:none;stroke-opacity:1"
       d="M 19.126412,98.266399 C 18.887075,98.272308 18.665738,98.387266 18.590868,98.603421 C 18.536454,98.760516 18.587584,98.934527 18.678698,99.073316 L 11.740994,108.95534 L 12.143664,109.24169 L 19.05012,99.359274 C 19.365612,99.451095 19.676816,99.302739 19.773149,99.024617 C 19.872977,98.736412 19.701884,98.413679 19.375998,98.3008 C 19.294526,98.27258 19.206191,98.264429 19.126412,98.266399 z"
       id="path2474" />
    <path
       sodipodi:nodetypes="ccccscccc"
       style="fill:none;fill-opacity:1;fill-rule:nonzero;stroke:#705d2c;stroke-width:4;stroke-linecap:round;stroke-linejoin:round;marker:none;marker-start:none;marker-mid:none;marker-end:none;stroke-miterlimit:4;stroke-dasharray:none;stroke-dashoffset:0;stroke-opacity:1;visibility:visible;display:inline;overflow:visible"
       d="M 32.985227,69.788743 L 26.359755,82.187881 C 26.272766,82.568196 26.208968,82.948511 26.043507,83.328826 L 23.580028,85.922769 C 22.585577,86.969909 24.742211,89.909359 27.163156,91.596781 C 29.423337,93.172147 32.796047,94.247788 33.708551,93.310186 L 35.385372,89.638512 C 35.614417,89.451948 35.924406,89.231396 36.183901,89.035407 L 45.218749,78.315627"
       id="path4282" />
    <path
       style="fill:#cebc8a;fill-opacity:1;fill-rule:nonzero;stroke:none;stroke-width:3;stroke-linecap:round;stroke-linejoin:round;marker:none;marker-start:none;marker-mid:none;marker-end:none;stroke-miterlimit:4;stroke-dasharray:none;stroke-dashoffset:0;stroke-opacity:1;visibility:visible;display:inline;overflow:visible"
       d="M 32.949747,69.839646 L 26.359755,82.187881 L 26.043507,83.328826 L 23.580028,85.922769 C 22.585577,86.969909 24.742211,89.909359 27.163156,91.596781 C 29.423337,93.172147 32.796047,94.247788 33.708551,93.310186 C 33.738405,93.278235 33.78412,93.239797 33.808303,93.203241 C 33.820032,93.184671 33.82839,93.14329 33.838642,93.123544 C 33.843581,93.113523 33.857733,93.099928 33.862295,93.089609 L 35.385372,89.638512 C 35.395001,89.616731 35.395089,89.598008 35.403884,89.575783 C 35.409053,89.573806 35.41057,89.560824 35.415711,89.558815 C 35.417858,89.553232 35.425442,89.547459 35.427537,89.541848 C 35.727516,89.4216 35.992362,89.262671 36.183901,89.035407 L 45.218749,78.315627 C 46.516903,76.775344 44.568885,73.4256 41.19193,71.07183 C 37.814975,68.718059 34.137072,68.136191 32.985227,69.788743 L 32.949747,69.839646 z"
       id="path2389"
       sodipodi:nodetypes="ccccssssccsssccscc" />
    <path
       style="fill:url(#linearGradient3616);fill-opacity:1.0;fill-rule:nonzero;stroke:none;stroke-width:3;stroke-linecap:round;stroke-linejoin:round;marker:none;marker-start:none;marker-mid:none;marker-end:none;stroke-miterlimit:4;stroke-dashoffset:0;stroke-opacity:1;visibility:visible;display:inline;overflow:visible"
       d="M 33.553152,70.380194 C 31.3497,74.522204 29.129846,78.656063 26.936651,82.803169 C 26.853846,83.29916 26.818339,83.844957 26.373758,84.172448 C 25.598572,84.988688 24.823386,85.804927 24.0482,86.621166 C 24.273355,87.890194 25.226125,88.867823 26.09446,89.754876 C 28.007155,91.534239 31.220018,93.100239 33.100755,92.789838 C 33.54586,91.781626 34.231941,90.585988 34.677046,89.202923 C 34.80717,89.05762 35.253333,88.684854 35.520765,88.634261 C 38.48932,85.232572 41.864255,81.173085 44.956676,77.503952 C 44.045941,72.034925 38.538622,70.430731 33.553152,70.380194 z"
       id="path2515"
       sodipodi:nodetypes="cccccccccc" />
    <path
       style="fill:none;fill-opacity:1;fill-rule:nonzero;stroke:#ffffff;stroke-width:1;stroke-linecap:round;stroke-linejoin:round;marker:none;marker-start:none;marker-mid:none;marker-end:none;stroke-miterlimit:4;stroke-dasharray:none;stroke-dashoffset:0;stroke-opacity:0.51495016;visibility:visible;display:inline;overflow:visible;filter:url(#filter4126)"
       d="M 28.124757,91.689534 C 28.708047,91.829482 29.311822,91.827253 29.638119,91.334638 C 30.151968,90.172906 30.66699,89.007493 31.179503,87.847168 C 31.46506,87.732632 31.717172,87.581252 31.899502,87.364784 L 39.261944,78.624012"
       id="path4092"
       sodipodi:nodetypes="ccccc" />
    <path
       sodipodi:type="arc"
       style="opacity:1;fill:#ffffff;fill-opacity:0.52823917;fill-rule:evenodd;stroke:none;stroke-width:10;stroke-linecap:butt;stroke-linejoin:miter;marker:none;marker-start:none;marker-mid:none;marker-end:none;stroke-miterlimit:4;stroke-dasharray:none;stroke-dashoffset:0;stroke-opacity:1;visibility:visible;display:inline;overflow:visible;filter:url(#filter3496);enable-background:accumulate"
       id="path4130"
       sodipodi:cx="26.837427"
       sodipodi:cy="93.087677"
       sodipodi:rx="0.21772869"
       sodipodi:ry="0.1893293"
       d="M 27.055156,93.087677 A 0.21772869,0.1893293 0 1 1 26.619698,93.087677 A 0.21772869,0.1893293 0 1 1 27.055156,93.087677 z"
       transform="matrix(4.3952587,0,0,5.5759151,-78.009779,-435.70567)" />
    <g
       id="g3631"
       transform="matrix(0.9483511,0,0,1.010831,-4.7625716,0.9076275)">
      <path
         id="path3629"
         style="fill:none;fill-opacity:1;fill-rule:nonzero;stroke:#ccbc90;stroke-width:0.51067686;stroke-linecap:round;stroke-linejoin:round;marker:none;marker-start:none;marker-mid:none;marker-end:none;stroke-miterlimit:4;stroke-dasharray:none;stroke-dashoffset:0;stroke-opacity:1;visibility:visible;display:inline;overflow:visible"
         d="M 38.806746,70.352249 C 37.985672,72.019314 38.555127,74.717084 41.106952,76.972953 C 43.507,79.094648 48.556801,80.674026 49.685586,79.686223 M 37.661336,71.84595 C 36.862414,73.467846 37.624768,75.922126 40.107748,78.116873 C 42.443047,80.181082 47.545942,81.925929 48.644275,80.96489" />
      <path
         d="M 38.806746,70.352249 C 37.985672,72.019314 38.555127,74.717084 41.106952,76.972953 C 43.507,79.094648 48.556801,80.674026 49.685586,79.686223 M 37.661336,71.84595 C 36.862414,73.467846 37.624768,75.922126 40.107748,78.116873 C 42.443047,80.181082 47.545942,81.925929 48.644275,80.96489"
         style="fill:none;fill-opacity:1;fill-rule:nonzero;stroke:#877135;stroke-width:0.30640614;stroke-linecap:round;stroke-linejoin:round;marker:none;marker-start:none;marker-mid:none;marker-end:none;stroke-miterlimit:4;stroke-dasharray:none;stroke-dashoffset:0;stroke-opacity:1;visibility:visible;display:inline;overflow:visible"
         id="path3624" />
    </g>
    <path
       style="opacity:1;fill:url(#linearGradient3318);fill-opacity:1;fill-rule:evenodd;stroke:none;stroke-width:1px;stroke-linecap:butt;stroke-linejoin:miter;stroke-opacity:1;display:none"
       d="M 34.262421,78.287604 C 33.821884,79.729436 31.999372,81.226607 32.518941,82.656325 C 34.560129,85.618317 37.532256,87.982255 40.973531,89.087269 C 42.651276,89.154874 43.128153,87.094766 44.268926,86.218243 C 44.914414,85.129349 46.710673,84.017634 46.607399,82.9208 C 45.150175,81.433497 42.85802,81.28543 40.899441,81.422604 C 39.472773,81.819529 37.963936,81.621286 36.756961,80.740996 C 35.681563,80.181861 34.890352,79.307614 34.262421,78.287604 z"
       id="path2598" />
    <path
       style="fill:none;fill-opacity:0.75;fill-rule:evenodd;stroke:#7f6c31;stroke-width:0.99999982px;stroke-linecap:butt;stroke-linejoin:miter;stroke-opacity:0.38205979;filter:url(#filter3586)"
       d="M 26.171368,83.183024 C 28.156231,85.831977 31.7552,89.076926 35.648838,89.44505"
       id="path2498"
       sodipodi:nodetypes="cc" />
    <path
       transform="matrix(3.3803678,0,0,4.2884037,-65.666155,-313.86549)"
       d="M 27.055156,93.087677 A 0.21772869,0.1893293 0 1 1 26.619698,93.087677 A 0.21772869,0.1893293 0 1 1 27.055156,93.087677 z"
       sodipodi:ry="0.1893293"
       sodipodi:rx="0.21772869"
       sodipodi:cy="93.087677"
       sodipodi:cx="26.837427"
       id="path4132"
       style="opacity:1;fill:#ffffff;fill-opacity:0.52823919;fill-rule:evenodd;stroke:none;stroke-width:10;stroke-linecap:butt;stroke-linejoin:miter;marker:none;marker-start:none;marker-mid:none;marker-end:none;stroke-miterlimit:4;stroke-dasharray:none;stroke-dashoffset:0;stroke-opacity:1;visibility:visible;display:inline;overflow:visible;filter:url(#filter3496);enable-background:accumulate"
       sodipodi:type="arc" />
    <path
       id="path2500"
       d="M 26.359755,82.187881 C 26.272766,82.568196 26.208968,82.948511 26.043507,83.328826 L 23.580028,85.922769 C 22.585577,86.969909 24.742211,89.909359 27.163156,91.596781 C 29.423337,93.172147 32.796047,94.247788 33.708551,93.310186 L 35.385372,89.638512 C 35.614417,89.451948 35.924406,89.231396 36.183901,89.035407 L 45.218749,78.315627 C 43.754767,78.918761 40.458827,78.264862 37.081872,75.911092 C 33.704917,73.557321 33.275286,71.273977 32.985227,69.788743 L 26.359755,82.187881 z"
       style="fill:none;fill-opacity:1;fill-rule:nonzero;stroke:#967e3c;stroke-width:1;stroke-linecap:round;stroke-linejoin:round;marker:none;marker-start:none;marker-mid:none;marker-end:none;stroke-miterlimit:4;stroke-dasharray:none;stroke-dashoffset:0;stroke-opacity:1;visibility:visible;display:inline;overflow:visible"
       sodipodi:nodetypes="cccsccccscc" />
    <path
       sodipodi:nodetypes="cccccsccccssc"
       id="path4276"
       d="M 81.125,7.25 C 69.613163,17.418132 48.533638,45.893195 38.71875,58.5 C 38.617656,58.64504 38.504183,58.795009 38.40625,58.9375 C 36.132936,62.003499 34.460049,65.58224 33.5625,69.15625 C 33.459201,69.806882 33.446549,70.387137 33.46875,70.9375 C 33.916543,72.558466 35.504745,74.560036 37.75,76.125 C 40.236385,77.858037 42.909453,78.622705 44.59375,78.25 C 44.971386,78.125741 45.30528,77.899896 45.65625,77.71875 C 49.129001,75.598234 51.55229,72.361757 53.9375,69.125 C 62.273923,55.984542 81.866503,26.154188 87.40625,11.6875 C 86.564162,12.175197 84.94419,11.87499 83.375,10.78125 C 82.06616,9.8689738 81.267114,8.6968376 81.125,7.78125 C 81.099094,7.5990075 81.096689,7.4100328 81.125,7.25 z"
       style="fill:none;fill-opacity:1;fill-rule:nonzero;stroke:#6a3d29;stroke-width:4;stroke-linecap:round;stroke-linejoin:round;marker:none;marker-start:none;marker-mid:none;marker-end:none;stroke-miterlimit:4;stroke-dasharray:none;stroke-dashoffset:0;stroke-opacity:1;visibility:visible;display:inline;overflow:visible" />
    <path
       sodipodi:nodetypes="czccssccc"
       id="path2644"
       d="M 38.414173,58.925412 C 30.155147,70.942208 34.467464,73.842169 37.764909,76.14052 C 41.209162,78.541198 45.235581,81.582915 53.929626,69.109569 C 62.266049,55.969108 81.875492,26.166499 87.415239,11.699811 C 86.573149,12.187508 84.9415,11.866386 83.37231,10.772646 C 82.063467,9.8603698 81.258307,8.7039047 81.116193,7.7883171 C 81.09029,7.6060747 81.081727,7.4146367 81.110038,7.2546039 C 69.598202,17.422736 48.524722,45.894421 38.709834,58.501226 C 38.608741,58.646265 38.512106,58.782921 38.414173,58.925412 z"
       style="fill:url(#linearGradient3233);fill-opacity:1;fill-rule:nonzero;stroke:none;stroke-width:3;stroke-linecap:round;stroke-linejoin:round;marker:none;marker-start:none;marker-mid:none;marker-end:none;stroke-miterlimit:4;stroke-dasharray:none;stroke-dashoffset:0;stroke-opacity:1;visibility:visible;display:inline;overflow:visible;opacity:1;color:#000000;enable-background:accumulate" />
    <path
       style="fill:#382010;fill-opacity:0.33887043999999999;fill-rule:nonzero;stroke:none;stroke-width:3;stroke-linecap:round;stroke-linejoin:round;marker:none;marker-start:none;marker-mid:none;marker-end:none;stroke-miterlimit:4;stroke-dasharray:none;stroke-dashoffset:0;stroke-opacity:1;visibility:visible;display:inline;overflow:visible;opacity:1;color:#000000;enable-background:accumulate;filter:url(#filter4272)"
       d="M 81.160199,9.1728738 C 81.160199,9.1728738 81.493171,10.630702 83.723378,12.096872 C 80.348992,16.467532 48.187944,73.205879 39.90625,73.1875 C 39.004962,73.1855 37.798263,73.170544 36.953045,72.700626 C 35.480108,71.881712 34.565531,70.345522 34.40533,69.910692 C 33.871836,72.110083 36.294536,74.149175 37.577666,75.077665 C 39.302101,76.325489 41.250875,77.296848 44.031675,76.565958 C 46.735713,75.855243 49.364314,73.023544 52.756932,68.260724 C 61.093355,55.120266 78.761974,26.789911 86.489221,11.510723 C 85.790497,11.91539 82.558829,10.711986 81.160199,9.1728738 z"
       id="path4141"
       sodipodi:nodetypes="ccsscssccc" />
    <path
       style="fill:none;fill-opacity:1;fill-rule:nonzero;stroke:#8b5036;stroke-width:1;stroke-linecap:round;stroke-linejoin:round;marker:none;marker-start:none;marker-mid:none;marker-end:none;stroke-miterlimit:4;stroke-dasharray:none;stroke-dashoffset:0;stroke-opacity:1;visibility:visible;display:inline;overflow:visible"
       d="M 81.125,7.25 C 69.613163,17.418132 48.533638,45.893195 38.71875,58.5 C 38.617656,58.64504 38.504183,58.795009 38.40625,58.9375 C 36.132936,62.003499 34.460049,65.58224 33.5625,69.15625 C 33.459201,69.806882 33.446549,70.387137 33.46875,70.9375 C 33.916543,72.558466 35.504745,74.560036 37.75,76.125 C 40.236385,77.858037 42.909453,78.622705 44.59375,78.25 C 44.971386,78.125741 45.30528,77.899896 45.65625,77.71875 C 49.129001,75.598234 51.55229,72.361757 53.9375,69.125 C 62.273923,55.984542 81.866503,26.154188 87.40625,11.6875 C 86.564162,12.175197 84.94419,11.87499 83.375,10.78125 C 82.06616,9.8689738 81.267114,8.6968376 81.125,7.78125 C 81.099094,7.5990075 81.096689,7.4100328 81.125,7.25 z"
       id="path2540"
       sodipodi:nodetypes="cccccsccccssc" />
    <path
       style="opacity:1;fill:none;fill-opacity:1;fill-rule:nonzero;stroke:#72612e;stroke-width:4;stroke-linecap:round;stroke-linejoin:round;marker:none;marker-start:none;marker-mid:none;marker-end:none;stroke-miterlimit:4;stroke-dasharray:none;stroke-dashoffset:0;stroke-opacity:1;visibility:visible;display:inline;overflow:visible"
       d="M 81.121915,7.2376905 C 80.933245,8.2055625 81.776815,9.6605925 83.372355,10.772702 C 84.953895,11.875056 86.590845,12.187197 87.427105,11.682903 C 87.431805,11.670629 87.446085,11.661223 87.450765,11.648968 C 89.010405,7.5606195 89.182455,6.8382345 87.066885,5.3636575 C 84.894735,3.8496455 84.397775,4.3465905 81.121915,7.2376905 z"
       id="path4278"
       sodipodi:nodetypes="cscszc" />
    <path
       style="opacity:1;fill:#d2c398;fill-opacity:1;fill-rule:nonzero;stroke:none;stroke-width:1;stroke-linecap:round;stroke-linejoin:round;marker:none;marker-start:none;marker-mid:none;marker-end:none;stroke-miterlimit:4;stroke-dasharray:none;stroke-dashoffset:0;stroke-opacity:1;visibility:visible;display:inline;overflow:visible"
       d="M 81.121915,7.2376905 C 80.933245,8.2055625 81.776815,9.6605925 83.372355,10.772702 C 84.656254,11.803091 85.856413,12.059699 87.362377,11.693162 C 88.922017,7.6048137 89.182455,6.8382345 87.066885,5.3636575 C 84.894735,3.8496455 84.397775,4.3465905 81.121915,7.2376905 z"
       id="path4076"
       sodipodi:nodetypes="ccczc" />
    <path
       style="opacity:1;fill:url(#linearGradient4090);fill-opacity:1;fill-rule:nonzero;stroke:none;stroke-width:1;stroke-linecap:round;stroke-linejoin:round;marker:none;marker-start:none;marker-mid:none;marker-end:none;stroke-miterlimit:4;stroke-dasharray:none;stroke-dashoffset:0;stroke-opacity:1;visibility:visible;display:inline;overflow:visible"
       d="M 81.656025,7.5369103 C 81.74234,8.3300014 82.343768,9.3842082 83.669395,10.308185 C 84.781434,11.16387 86.544229,11.54538 86.980531,11.268235 C 88.276331,7.8715015 88.592693,7.0442891 86.705786,5.8031258 C 84.831665,4.5703731 84.377716,5.1348901 81.656025,7.5369103 z"
       id="path2397"
       sodipodi:nodetypes="ccczc" />
    <path
       style="fill:none;fill-rule:nonzero;stroke:#ffffff;stroke-width:1;stroke-linecap:round;stroke-linejoin:round;stroke-opacity:0.51495013999999995;opacity:1;color:#000000;fill-opacity:1;marker:none;marker-start:none;marker-mid:none;marker-end:none;stroke-miterlimit:4;stroke-dasharray:none;stroke-dashoffset:0;visibility:visible;display:inline;overflow:visible;filter:url(#filter4126);enable-background:accumulate"
       d="M 85.007493,11.216896 C 85.165729,10.874066 86.492176,8.3448425 87.32714,6.7962314 C 87.6326,6.2296942 87.455925,5.9079241 87.405028,5.8362552"
       id="path4134"
       sodipodi:nodetypes="csc" />
    <g
       transform="matrix(0.4651945,0,0,0.4651945,64.702724,-26.808282)"
       id="g4078">
      <path
         d="M 38.806746,70.352249 C 37.985672,72.019314 38.555127,74.717084 41.106952,76.972953 C 43.507,79.094648 48.556801,80.674026 49.685586,79.686223 M 37.661336,71.84595 C 36.862414,73.467846 37.624768,75.922126 40.107748,78.116873 C 42.443047,80.181082 47.545942,81.925929 48.644275,80.96489"
         style="fill:none;fill-opacity:1;fill-rule:nonzero;stroke:#ccbc90;stroke-width:1.07481933;stroke-linecap:round;stroke-linejoin:round;marker:none;marker-start:none;marker-mid:none;marker-end:none;stroke-miterlimit:4;stroke-dasharray:none;stroke-dashoffset:0;stroke-opacity:1;visibility:visible;display:inline;overflow:visible"
         id="path4080" />
      <path
         id="path4082"
         style="fill:none;fill-opacity:1;fill-rule:nonzero;stroke:#877135;stroke-width:0.64489168;stroke-linecap:round;stroke-linejoin:round;marker:none;marker-start:none;marker-mid:none;marker-end:none;stroke-miterlimit:4;stroke-dasharray:none;stroke-dashoffset:0;stroke-opacity:1;visibility:visible;display:inline;overflow:visible"
         d="M 38.806746,70.352249 C 37.985672,72.019314 38.555127,74.717084 41.106952,76.972953 C 43.507,79.094648 48.556801,80.674026 49.685586,79.686223 M 37.661336,71.84595 C 36.862414,73.467846 37.624768,75.922126 40.107748,78.116873 C 42.443047,80.181082 47.545942,81.925929 48.644275,80.96489" />
    </g>
    <path
       sodipodi:nodetypes="cscszc"
       id="path4074"
       d="M 81.121915,7.2376905 C 80.933245,8.2055625 81.776815,9.6605925 83.372355,10.772702 C 84.953895,11.875056 86.590845,12.187197 87.427105,11.682903 C 87.431805,11.670629 87.446085,11.661223 87.450765,11.648968 C 89.010405,7.5606195 89.182455,6.8382345 87.066885,5.3636575 C 84.894735,3.8496455 84.397775,4.3465905 81.121915,7.2376905 z"
       style="opacity:1;fill:none;fill-opacity:1;fill-rule:nonzero;stroke:#9f8741;stroke-width:1;stroke-linecap:round;stroke-linejoin:round;marker:none;marker-start:none;marker-mid:none;marker-end:none;stroke-miterlimit:4;stroke-dasharray:none;stroke-dashoffset:0;stroke-opacity:1;visibility:visible;display:inline;overflow:visible" />
  </g>
</svg>
