<?xml version="1.0" encoding="UTF-8" standalone="no"?>
<!-- Created with Inkscape (http://www.inkscape.org/) -->

<svg
   width="128"
   height="128"
   id="svg2376"
   sodipodi:version="0.32"
   inkscape:version="1.3.2 (1:1.3.2+202311252150+091e20ef0f)"
   version="1.0"
   sodipodi:docname="edit.svg"
   inkscape:output_extension="org.inkscape.output.svg.inkscape"
   inkscape:export-filename="edit_48.png"
   inkscape:export-xdpi="36"
   inkscape:export-ydpi="36"
   xmlns:inkscape="http://www.inkscape.org/namespaces/inkscape"
   xmlns:sodipodi="http://sodipodi.sourceforge.net/DTD/sodipodi-0.dtd"
   xmlns:xlink="http://www.w3.org/1999/xlink"
   xmlns="http://www.w3.org/2000/svg"
   xmlns:svg="http://www.w3.org/2000/svg"
   xmlns:rdf="http://www.w3.org/1999/02/22-rdf-syntax-ns#"
   xmlns:cc="http://creativecommons.org/ns#"
   xmlns:dc="http://purl.org/dc/elements/1.1/">
  <defs
     id="defs2378">
    <linearGradient
       id="linearGradient4084">
      <stop
         style="stop-color:#d2c090;stop-opacity:1;"
         offset="0"
         id="stop4086" />
      <stop
         style="stop-color:#9e8541;stop-opacity:1;"
         offset="1"
         id="stop4088" />
    </linearGradient>
    <linearGradient
       id="linearGradient3786">
      <stop
         style="stop-color:#ffffff;stop-opacity:0.51590109;"
         offset="0"
         id="stop3788" />
      <stop
         style="stop-color:#ffffff;stop-opacity:0;"
         offset="1"
         id="stop3790" />
    </linearGradient>
    <linearGradient
       id="linearGradient3335">
      <stop
         id="stop3337"
         offset="0"
         style="stop-color:#eaeaea;stop-opacity:1;" />
      <stop
         style="stop-color:#8b8b8b;stop-opacity:1;"
         offset="0.48433134"
         id="stop3339" />
      <stop
         id="stop3341"
         offset="0.70068479"
         style="stop-color:#b3b3b3;stop-opacity:1;" />
      <stop
         id="stop3343"
         offset="1"
         style="stop-color:#696969;stop-opacity:1;" />
    </linearGradient>
    <linearGradient
       id="linearGradient2817">
      <stop
         style="stop-color:#2f648f;stop-opacity:1;"
         offset="0"
         id="stop2819" />
      <stop
         style="stop-color:#3c83bc;stop-opacity:1;"
         offset="1"
         id="stop2821" />
    </linearGradient>
    <linearGradient
       id="linearGradient2619">
      <stop
         style="stop-color:#ffffff;stop-opacity:0.32508835;"
         offset="0"
         id="stop2621" />
      <stop
         style="stop-color:#ffffff;stop-opacity:0;"
         offset="1"
         id="stop2623" />
    </linearGradient>
    <linearGradient
       id="linearGradient2590">
      <stop
         style="stop-color:#ffffff;stop-opacity:1;"
         offset="0"
         id="stop2592" />
      <stop
         style="stop-color:#ffffff;stop-opacity:0;"
         offset="1"
         id="stop2594" />
    </linearGradient>
    <linearGradient
       id="linearGradient2449">
      <stop
         style="stop-color:#cca37e;stop-opacity:1;"
         offset="0"
         id="stop2451" />
      <stop
         style="stop-color:#a4674c;stop-opacity:1;"
         offset="1"
         id="stop2453" />
    </linearGradient>
    <linearGradient
       inkscape:collect="always"
       xlink:href="#linearGradient2449"
       id="linearGradient3233"
       gradientUnits="userSpaceOnUse"
       x1="57.49057"
       y1="42.624237"
       x2="57.696693"
       y2="59.206181"
       gradientTransform="matrix(0.378447,-0.542958,0.542958,0.378447,4.6740724,57.996933)" />
    <linearGradient
       inkscape:collect="always"
       xlink:href="#linearGradient2590"
       id="linearGradient3295"
       gradientUnits="userSpaceOnUse"
       gradientTransform="matrix(0.378447,-0.542958,0.542958,0.378447,4.9494354,57.562033)"
       x1="-57.380222"
       y1="54.185951"
       x2="-38.549038"
       y2="56.019894" />
    <linearGradient
       inkscape:collect="always"
       xlink:href="#linearGradient2619"
       id="linearGradient3318"
       gradientUnits="userSpaceOnUse"
       x1="-13.818747"
       y1="56.9337"
       x2="-0.18365819"
       y2="56.9337"
       gradientTransform="matrix(0.378447,-0.542958,0.542958,0.378447,10.68448,57.64338)" />
    <linearGradient
       inkscape:collect="always"
       xlink:href="#linearGradient3335"
       id="linearGradient3333"
       gradientUnits="userSpaceOnUse"
       gradientTransform="matrix(0.378447,-0.542958,0.542958,0.378447,4.1905572,57.692206)"
       x1="-36.828953"
       y1="49.873875"
       x2="-36.666954"
       y2="63.037922" />
    <filter
       inkscape:collect="always"
       id="filter3496"
       x="-0.21466544"
       width="1.4293309"
       y="-0.24686525"
       height="1.4937305">
      <feGaussianBlur
         inkscape:collect="always"
         stdDeviation="0.038949019"
         id="feGaussianBlur3498" />
    </filter>
    <filter
       inkscape:collect="always"
       id="filter3586"
       x="-0.095193692"
       y="-0.12805474"
       width="1.1531336"
       height="1.2877221">
      <feGaussianBlur
         inkscape:collect="always"
         stdDeviation="0.20919217"
         id="feGaussianBlur3588" />
    </filter>
    <linearGradient
       inkscape:collect="always"
       xlink:href="#linearGradient4084"
       id="linearGradient3616"
       gradientUnits="userSpaceOnUse"
       gradientTransform="matrix(0.378447,-0.542958,0.542958,0.378447,4.4893864,58.065134)"
       x1="-6.5617447"
       y1="47.728737"
       x2="-7.0802598"
       y2="64.701637" />
    <linearGradient
       inkscape:collect="always"
       xlink:href="#linearGradient2817"
       id="linearGradient3719"
       x1="17.306355"
       y1="112.55618"
       x2="126.4403"
       y2="112.55618"
       gradientUnits="userSpaceOnUse"
       gradientTransform="translate(-6.098796,-0.8838835)" />
    <linearGradient
       inkscape:collect="always"
       xlink:href="#linearGradient3786"
       id="linearGradient3792"
       x1="87.5"
       y1="105.29688"
       x2="101.04022"
       y2="109.04688"
       gradientUnits="userSpaceOnUse" />
    <filter
       inkscape:collect="always"
       id="filter3820"
       x="-0.0073793242"
       y="-0.032099749"
       width="1.0147586"
       height="1.0641995">
      <feGaussianBlur
         inkscape:collect="always"
         stdDeviation="0.33555611"
         id="feGaussianBlur3822" />
    </filter>
    <filter
       inkscape:collect="always"
       id="filter4006"
       x="-0.028350386"
       width="1.0567008"
       y="-0.18193925"
       height="1.3638785">
      <feGaussianBlur
         inkscape:collect="always"
         stdDeviation="1.3647067"
         id="feGaussianBlur4008" />
    </filter>
    <linearGradient
       inkscape:collect="always"
       xlink:href="#linearGradient4084"
       id="linearGradient4090"
       x1="83.136536"
       y1="6.2973952"
       x2="87.484299"
       y2="9.413085"
       gradientUnits="userSpaceOnUse" />
    <filter
       inkscape:collect="always"
       id="filter4126"
       x="-0.51848943"
       y="-0.24038654"
       width="2.0323068"
       height="1.4807731">
      <feGaussianBlur
         inkscape:collect="always"
         stdDeviation="0.33059735"
         id="feGaussianBlur4128" />
    </filter>
    <filter
       inkscape:collect="always"
       id="filter4272"
       x="-0.07841807"
       y="-0.060466381"
       width="1.1568361"
       height="1.1209328">
      <feGaussianBlur
         inkscape:collect="always"
         stdDeviation="1.7042675"
         id="feGaussianBlur4274" />
    </filter>
  </defs>
  <sodipodi:namedview
     id="base"
     pagecolor="#ffffff"
     bordercolor="#666666"
     borderopacity="1.0"
     inkscape:pageopacity="0.0"
     inkscape:pageshadow="2"
     inkscape:zoom="2.8284271"
     inkscape:cx="12.020815"
     inkscape:cy="106.59635"
     inkscape:document-units="px"
     inkscape:current-layer="layer2"
     inkscape:window-width="1868"
     inkscape:window-height="1016"
     inkscape:window-x="52"
     inkscape:window-y="27"
     showguides="true"
     inkscape:guide-bbox="true"
     showgrid="false"
     inkscape:window-maximized="1"
     inkscape:showpageshadow="2"
     inkscape:pagecheckerboard="0"
     inkscape:deskcolor="#d1d1d1" />
  <metadata
     id="metadata2381">
    <rdf:RDF>
      <cc:Work
         rdf:about="">
        <dc:format>image/svg+xml</dc:format>
        <dc:type
           rdf:resource="http://purl.org/dc/dcmitype/StillImage" />
        <cc:license
           rdf:resource="http://creativecommons.org/licenses/by-sa/4.0/" />
      </cc:Work>
      <cc:License
         rdf:about="http://creativecommons.org/licenses/by-sa/4.0/">
        <cc:permits
           rdf:resource="http://creativecommons.org/ns#Reproduction" />
        <cc:permits
           rdf:resource="http://creativecommons.org/ns#Distribution" />
        <cc:requires
           rdf:resource="http://creativecommons.org/ns#Notice" />
        <cc:requires
           rdf:resource="http://creativecommons.org/ns#Attribution" />
        <cc:permits
           rdf:resource="http://creativecommons.org/ns#DerivativeWorks" />
        <cc:requires
           rdf:resource="http://creativecommons.org/ns#ShareAlike" />
      </cc:License>
    </rdf:RDF>
  </metadata>
  <g
     inkscape:groupmode="layer"
     id="layer3"
     inkscape:label="ink shadow"
     style="display:inline">
    <path
       sodipodi:nodetypes="cccsccccssscsscssczscssccssccszscccscsscscsccczcsccscscscccsc"
       id="path3795"
       d="M 95.721285,100.09245 C 92.481412,100.40166 94.287626,103.3824 94.8217,105.83107 C 93.639563,107.45103 90.803975,105.97694 89.283787,105.68619 C 87.212101,105.01715 84.470071,104.16731 82.783787,105.77994 C 81.174395,107.31807 84.789682,107.63875 86.443828,107.38312 C 88.039455,107.19652 89.638364,107.56164 90.940037,108.71744 C 78.449231,108.50662 65.631737,110.1889 54.377537,115.87369 C 50.073853,117.96832 45.442905,119.13795 40.846287,120.34244 C 37.615651,120.84191 33.251698,122.27345 30.940037,119.81119 C 27.944693,116.62071 33.242693,114.02382 36.283787,112.81119 C 39.391637,111.57194 43.787239,109.90624 44.127537,106.12369 C 44.324463,103.93477 40.062742,104.09331 38.346287,103.87369 C 29.841803,104.0019 21.700621,107.06284 13.690037,109.56119 C 12.546534,109.91783 11.620738,110.23503 11.471287,111.09244 C 11.382938,111.5993 12.268642,111.65379 12.752537,111.62369 C 20.71215,110.12499 29.883424,104.49121 36.815037,107.56119 C 39.404959,108.70825 34.167985,112.26233 31.440037,113.12369 C 28.333633,114.10455 25.201252,116.46231 24.190037,119.81119 C 23.724302,123.09024 25.409884,124.17472 31.440037,123.93619 C 37.47019,123.69766 47.890405,120.10453 56.315037,116.59244 C 62.189229,114.14359 78.477406,110.4181 84.67727,110.61887 C 81.770834,111.68079 75.694121,113.05049 75.971287,114.15494 C 76.474981,116.16206 86.391074,111.24761 91.908787,111.90494 C 92.944708,112.02835 94.425055,112.59043 94.690035,113.31119 C 94.662395,114.12701 94.06762,114.10647 93.377537,114.37369 C 91.27746,114.62003 89.258714,115.10299 87.221287,115.81119 C 84.6144,116.71733 84.829181,120.06157 87.658787,120.06119 C 89.921342,120.06088 92.411877,119.73964 93.940037,117.90494 C 95.413535,116.66985 95.591615,114.4034 97.315035,113.46744 C 99.148185,112.58402 101.88277,112.63685 103.12753,114.15494 C 104.67406,116.04108 106.65903,118.14632 108.78378,118.12369 C 110.90852,118.10106 114.92163,119.43604 114.03378,116.99869 C 113.23722,114.81194 110.25878,114.00335 107.94003,113.68619 C 106.53378,113.38482 104.93335,113.38319 103.75253,112.49869 C 103.42011,110.54239 104.90256,110.34396 106.53378,109.71744 C 105.66283,109.29306 104.33988,108.78766 104.62753,108.02301 C 105.69819,105.17689 110.56552,106.16287 113.34628,105.62369 C 114.57792,105.23015 116.31939,104.37076 115.72128,103.71744 C 113.60903,101.41023 107.53743,105.20493 104.22128,106.09244 C 102.33602,106.59699 99.305135,106.6036 98.752535,104.18619 C 98.726675,101.76883 98.166125,99.859118 95.721285,100.09245 z M 104.37753,102.71744 C 105.5526,102.73731 107.78791,101.91191 107.06503,100.84245 C 106.31796,99.737193 104.73413,101.98723 104.37753,102.71744 z M 75.047651,104.90494 C 75.109048,106.19382 78.142142,105.91759 79.585945,105.29154 C 78.480844,104.29043 74.986313,103.6173 75.047651,104.90494 z M 110.86248,109.81341 C 114.00257,110.11498 118.32943,113.43384 120.21159,111.14801 C 122.62362,108.21867 113.07469,109.47077 110.86248,109.81341 z M 95.377535,122.68619 C 95.476545,122.92143 95.957605,122.48854 96.190035,122.31119 C 96.938145,121.74035 96.500955,120.12856 96.908785,119.12369 C 95.576295,119.91892 95.102425,122.03252 95.377535,122.68619 z M 72.627537,119.71744 C 71.520777,119.78481 70.305609,119.85583 70.158787,120.27994 C 69.454199,122.3152 74.479869,120.44486 75.440037,119.90494 C 74.574113,119.71398 73.559546,119.6607 72.627537,119.71744 z M 115.40878,122.06119 C 115.95586,123.44594 116.48345,125.86338 118.09628,124.96744 C 119.35846,124.26629 116.76718,122.8455 115.40878,122.06119 z"
       style="fill:#1e3e5a;fill-opacity:0.27906979;fill-rule:nonzero;stroke:none;stroke-width:1;stroke-linecap:butt;stroke-linejoin:miter;stroke-miterlimit:10;stroke-dasharray:none;stroke-opacity:1;display:inline;filter:url(#filter3820)" />
  </g>
  <g
     inkscape:groupmode="layer"
     id="layer2"
     inkscape:label="ink"
     style="display:inline">
    <path
       style="display:inline;fill:url(#linearGradient3719);fill-opacity:1;fill-rule:nonzero;stroke:none;stroke-width:1;stroke-linecap:butt;stroke-linejoin:miter;stroke-miterlimit:10;stroke-dasharray:none;stroke-opacity:1"
       d="m 95.463702,99.147366 c -3.239873,0.30921 -1.433659,3.289954 -0.899585,5.738624 -1.182137,1.61996 -4.017725,0.14587 -5.537913,-0.14488 -2.071686,-0.66904 -4.813716,-1.51888 -6.5,0.0937 -1.609392,1.53813 2.005895,1.85881 3.660041,1.60318 1.595627,-0.1866 3.194536,0.17852 4.496209,1.33432 -12.490806,-0.21082 -25.3083,1.47146 -36.5625,7.15625 -4.303684,2.09463 -8.934632,3.26426 -13.53125,4.46875 -3.230636,0.49947 -7.594589,1.93101 -9.90625,-0.53125 -2.995344,-3.19048 2.302656,-5.78737 5.34375,-7 3.10785,-1.23925 7.503452,-2.90495 7.84375,-6.6875 0.196926,-2.18892 -4.064795,-2.03038 -5.78125,-2.25 -8.504484,0.12821 -16.645666,3.18915 -24.65625,5.6875 -1.143503,0.35664 -2.069299,0.67384 -2.21875,1.53125 -0.08835,0.50686 0.797355,0.56135 1.28125,0.53125 7.959613,-1.4987 17.130887,-7.13248 24.0625,-4.0625 2.589922,1.14706 -2.647052,4.70114 -5.375,5.5625 -3.106404,0.98086 -6.238785,3.33862 -7.25,6.6875 -0.465735,3.27905 1.219847,4.36353 7.25,4.125 6.030153,-0.23853 16.450368,-3.83166 24.875,-7.34375 5.874192,-2.44885 22.162369,-6.17434 28.362233,-5.97357 -2.906436,1.06192 -8.983149,2.43162 -8.705983,3.53607 0.503694,2.00712 10.419787,-2.90733 15.9375,-2.25 1.035921,0.12341 2.516268,0.68549 2.781248,1.40625 -0.02764,0.81582 -0.622415,0.79528 -1.312498,1.0625 -2.100077,0.24634 -4.118823,0.7293 -6.15625,1.4375 -2.606887,0.90614 -2.392106,4.25038 0.4375,4.25 2.262555,-3.1e-4 4.75309,-0.32155 6.28125,-2.15625 1.473498,-1.23509 1.651578,-3.50154 3.374998,-4.4375 1.83315,-0.88342 4.567738,-0.83059 5.812498,0.6875 1.54653,1.88614 3.5315,3.99138 5.65625,3.96875 2.12474,-0.0226 6.13785,1.31235 5.25,-1.125 -0.79656,-2.18675 -3.775,-2.99534 -6.09375,-3.3125 -1.40625,-0.30137 -3.00668,-0.303 -4.1875,-1.1875 -0.33242,-1.9563 1.15003,-2.15473 2.78125,-2.78125 -0.87095,-0.42438 -2.1939,-0.92978 -1.90625,-1.69443 1.07066,-2.84612 5.93799,-1.86014 8.71875,-2.39932 1.23164,-0.39354 2.97311,-1.25293 2.375,-1.90625 -2.11225,-2.30721 -8.18385,1.48749 -11.5,2.375 -1.88526,0.50455 -4.916148,0.51116 -5.468748,-1.90625 -0.02586,-2.41736 -0.58641,-4.327075 -3.03125,-4.093744 z m 9.341258,1.321264 c 1.17507,0.0199 3.41038,-0.805528 2.6875,-1.874992 -0.74707,-1.105256 -2.3309,1.144784 -2.6875,1.874992 z m -30.014892,3.49123 c 0.0614,1.28888 3.094491,1.01265 4.538294,0.3866 -1.105101,-1.00111 -4.599632,-1.67424 -4.538294,-0.3866 z m 37.317432,4.90847 c 3.14009,0.30157 7.46695,3.62043 9.34911,1.3346 2.41203,-2.92934 -7.1369,-1.67724 -9.34911,-1.3346 z m -16.987548,12.87278 c 0.09901,0.23524 0.58007,-0.19765 0.8125,-0.375 0.74811,-0.57084 0.31092,-2.18263 0.71875,-3.1875 -1.33249,0.79523 -1.80636,2.90883 -1.53125,3.5625 z m -22.749998,-2.96875 c -1.10676,0.0674 -2.321928,0.13839 -2.46875,0.5625 -0.704588,2.03526 4.321082,0.16492 5.28125,-0.375 -0.865924,-0.19096 -1.880491,-0.24424 -2.8125,-0.1875 z m 42.781246,2.34375 c 0.54708,1.38475 1.07467,3.80219 2.6875,2.90625 1.26218,-0.70115 -1.3291,-2.12194 -2.6875,-2.90625 z"
       id="path2752"
       sodipodi:nodetypes="cccsccccssscsscssczscssccssccszscccscsscscsccczcsccscscscccsc"
       inkscape:label="colorfill" />
    <path
       style="display:inline;fill:#000000;fill-opacity:0.212625;fill-rule:nonzero;stroke:none;stroke-width:1;stroke-linecap:butt;stroke-linejoin:miter;stroke-miterlimit:10;stroke-dasharray:none;stroke-opacity:1"
       d="m 96.633542,99.615466 c 1.53846,0.778574 0.64055,2.796384 1.14691,4.209374 0.47527,1.32624 1.94305,1.65033 2.18693,1.36476 -0.79315,-0.38278 -1.3075,-1.14592 -1.49453,-2.54511 -0.23508,-1.75869 -0.07356,-2.56616 -1.83931,-3.029024 z m 8.679928,0.295376 c 0.90677,0.130278 1.96567,-0.84913 2.1954,-1.3589 -0.44016,0.38087 -1.35345,1.02889 -2.1954,1.3589 z m -1.00602,5.783398 c -1.02211,0.88273 -0.74812,2.13696 -0.20312,2.24999 0.28923,-0.66101 0.50568,-1.64751 0.71875,-1.79687 2.48996,-1.7455 5.50467,-0.8521 8.26562,-1.46875 0.87133,-0.19461 2.11836,-1.19212 2.10938,-1.82812 -1.35298,1.53803 -8.98215,1.19551 -10.89063,2.84375 z m -29.343746,-1.73438 c 0.542616,0.76672 2.50272,0.53088 3.6875,0.21875 -1.108357,0.0168 -2.53443,0.25387 -3.6875,-0.21875 z m -31.71875,0.6875 c 0.223229,0.74412 -1.022016,2.72319 -3.4375,4.3125 -2.936126,1.93188 -6.842439,3.21414 -8.21875,4.15625 -1.376309,0.94211 -2.570911,1.88482 -2.625,3.40625 -0.06198,1.74331 0.712865,2.18903 1.875,2.78125 -3.295091,-4.46651 2.650069,-6.3724 5.1875,-7.4375 4.161172,-1.74667 9.128791,-3.32115 7.21875,-7.21875 z m -11.4375,0.21875 c -1.79526,0.0309 -3.584334,0.34676 -5.40625,0.875 -3.784682,1.09733 -11.366433,3.9683 -15.28125,4.4375 2.539036,1.43901 12.480873,-4.22223 20.75,-4.25 2.018645,-0.007 4.087112,0.98411 5.75,1.65625 0.657109,-1.13542 -0.479966,-2.06835 -2.5625,-2.4375 -1.097738,-0.23232 -2.172844,-0.29977 -3.25,-0.28125 z m 50.8125,0.71875 c 0.239058,1.30296 2.295922,0.90857 3.5625,0.84375 2.902536,-0.12294 3.827063,0.85302 5.34375,1.5 -0.330332,-0.85903 -1.712257,-1.62977 -2.6875,-1.96875 -1.118034,-0.3886 -2.415399,-0.30468 -3.8125,-0.21875 -0.838261,0.0516 -1.508728,0.0897 -2.40625,-0.15625 z m 22.531246,3.125 c -1.7328,0.0572 -3.15528,1.34673 -2.03125,3.09375 0.27037,-0.6978 0.80709,-2.32329 2.78125,-3.03125 -0.25396,-0.043 -0.50246,-0.0707 -0.75,-0.0625 z m 16.61845,0.32544 c -0.91523,1.80594 -4.72347,1.01532 -7.28125,0.46875 2.70983,1.15544 7.12957,3.2218 7.28125,-0.46875 z m -40.055946,-0.0129 c -7.813803,0.22363 -20.364215,3.55143 -27.34375,6.625 -4.378785,1.92828 -8.86321,3.54968 -13.46875,4.71875 -3.140967,0.79731 -9.783587,2.12257 -12.71875,1.53125 -2.935162,-0.59131 -3.292254,-1.26408 -3.84375,-2.625 -0.301381,0.65885 -0.442131,1.4831 -0.0625,2.03125 1.466436,2.11739 4.368821,1.71413 6.90625,1.6875 6.030153,-0.23853 16.516438,-3.67719 24.875,-7.34375 4.800139,-2.10562 22.476101,-5.99259 30,-6.28125 -0.799013,-0.19718 -1.756368,-0.31253 -2.84375,-0.34375 -0.47573,-0.0137 -0.97908,-0.0149 -1.5,0 z m 8.1875,0.90625 c -2.388775,-0.0244 -4.222158,0.70195 -5.40625,1.03125 -2.555779,0.71079 -6.889092,1.92908 -8.53125,2.46875 2.150678,0.54944 13.186569,-3.78255 18.187498,-1.75 -0.54269,-1.22475 -2.774871,-1.64553 -4.249998,-1.75 z m 9.031248,1.15625 c -1.00292,0.0296 -1.99014,0.19837 -3.03125,1.25 -1.59487,1.61097 -2.420947,4.20984 -4.499998,5.09375 -1.993087,0.84735 -4.254464,0.80396 -6,0.5 0.336987,0.58203 0.997848,1.18763 2,1.1875 2.262555,-3.1e-4 4.618481,-0.45574 6.28125,-2.15625 1.338888,-1.36928 1.651578,-3.50154 3.374998,-4.4375 1.59108,-0.76676 3.864288,-0.8335 5.249998,0.15625 -0.2674,-1.32216 -1.83541,-1.63921 -3.374998,-1.59375 z m 5.062498,3.125 c 1.31732,1.40079 2.92523,2.98586 4.53125,2.96875 1.93158,-0.0206 5.42307,0.91204 5.375,-0.71875 -0.33694,-0.6794 -0.91222,-1.19791 -1.59375,-1.59375 1.58839,2.16441 -0.34982,2.22045 -4.09375,1.28125 -1.18056,-0.29616 -2.51295,-1.18863 -4.21875,-1.9375 z m -29.874996,4.71875 c -0.812433,0.20093 -2.996668,0.9107 -4.09375,0.78125 0.505414,0.53911 3.078763,0.48696 4.09375,-0.78125 z m 22.343748,0.53125 c -0.361832,0.86479 -0.714664,1.91621 -1.268631,2.22411 0.948629,0.084 1.20474,-0.97763 1.268631,-2.22411 z m 19.156248,3.21875 c 0.52495,1.52117 2.22147,1.98438 2.3125,0.46875 -0.85078,0.82001 -1.5679,0.26776 -2.3125,-0.46875 z"
       id="path3639"
       sodipodi:nodetypes="cscsccccccsscsccccssscsccscsccccccsscccccccccssscscscsccsccccsscssccccsccscccccccccc"
       inkscape:label="relief shadow" />
    <path
       style="display:inline;fill:#ffffff;fill-opacity:0.451827;fill-rule:nonzero;stroke:none;stroke-width:1;stroke-linecap:butt;stroke-linejoin:miter;stroke-miterlimit:10;stroke-dasharray:none;stroke-opacity:1"
       d="m 95.46875,99.15625 c -3.23987,0.309207 -1.471574,3.20758 -0.9375,5.65625 -0.452939,1.25536 -3.979812,0.22825 -5.5,-0.0625 -2.071689,-0.66904 -4.813716,-1.51888 -6.5,0.0937 -0.243421,0.23264 -0.358761,0.79528 0.75,0.875 -0.835205,-0.43347 0.628565,-0.93266 1.46875,-1.0625 1.595634,-0.1866 5.514928,1.192 7.09375,1.75 1.504746,0.41321 2.815916,-0.0907 3.40625,-1.28125 0.737289,-1.48697 -2.176757,-4.60887 0.03125,-5.1875 1.100776,-0.288474 2.078295,0.3468 2.28125,1.15625 0.01515,-1.60542 -0.68647,-1.847101 -2.09375,-1.9375 z m 11.96031,-0.597602 c -0.70304,-0.238114 -1.57893,0.93146 -1.87663,1.27844 0.44394,-0.20613 1.34056,-1.23003 1.87663,-1.27844 z M 36.96875,101.875 c -6.735068,0.0848 -16.848459,4.54367 -23.53125,6.75 -1.000565,0.31206 -1.519543,0.95376 -1.8125,1.59375 0.296828,-0.63005 13.063317,-4.80309 22.53125,-6.25 2.642752,-0.40387 7.368764,-0.11369 8.75,0.21875 -1.194192,-1.69757 -3.302038,-2.34568 -5.9375,-2.3125 z m 76.28125,0.15625 c -1.16206,0.0572 -2.87063,0.60977 -4.51562,1.20312 -2.24094,1.13176 -3.64584,1.45313 -5.51563,2.01563 -1.33586,0.3489 -3.0126,0.71326 -4.09375,-0.125 0.555215,0.77948 2.45814,1.1652 4.23438,0.65625 2.4123,-0.6912 6.04669,-2.28348 9.04856,-2.8036 1.25858,-0.21807 1.86509,0.0614 3.09206,0.1786 -0.32848,-0.55699 -1.73529,-1.15032 -2.25,-1.125 z M 75.90625,103.25 c -0.648082,0.0171 -1.031091,0.54092 -1.03125,1 0.750474,-0.50898 1.181385,-0.41907 3.6875,0.0312 -0.677499,-0.40351 -2.03795,-1.04756 -2.65625,-1.03125 z m -39.125,2.1875 c 3.396814,2.66016 -3.039932,5.6499 -5.59375,6.75 -3.106403,0.98086 -5.707535,2.40112 -6.71875,5.75 -0.334075,2.10184 0.519506,2.39087 0.9375,3.03125 0.637119,0.3379 0.866874,0.55615 2.03125,0.65625 -3.950287,-1.90161 -2.168365,-4.82911 0.78125,-7 2.17952,-1.60411 2.350303,-1.40489 6.4375,-3.3125 4.113798,-1.92003 3.862384,-5.48713 2.125,-5.875 z M 91,107.15625 c 0.597262,0.69436 0.466694,0.71085 0.5,0.875 -12.490806,-0.21082 -26.1208,1.22146 -37.375,6.90625 -4.303683,2.09463 -8.912873,3.46866 -13.53125,4.46875 -6.758771,1.46358 -10.463756,1.18126 -11.65625,-2.28125 0.07677,2.08567 1.795023,3.41925 4.25,4 2.449935,0.57955 13.265339,-2.10921 21.59375,-5.84375 2.986782,-1.3393 9.218266,-3.5207 15.28125,-4.875 5.323002,-1.189 10.569657,-1.75365 13.46875,-1.71875 2.548134,0.0307 4.329492,-0.32216 6.5625,-0.15625 2.646166,0.1966 2.840773,0.0154 0.90625,-1.375 z m 27.45841,1.13415 c -1.69157,-0.007 -3.44512,0.3216 -4.84375,0.5 1.20345,0.63428 3.06348,1.29033 3.90625,1.1875 -3.19051,-1.28223 2.08788,-1.19932 4.03125,-0.625 -0.59301,-1.09057 -1.85948,-1.01421 -3.09375,-1.0625 z m -31.36466,0.99085 c -1.618132,0.0881 -1.905798,0.24688 -2.6875,0.40625 -2.58977,0.94622 -10.507811,3.49338 -7.625,3.5625 -0.86279,-0.28857 1.495886,-0.88925 2.53125,-1.25 2.800901,-0.97592 5.547886,-1.46856 7.78125,-2.71875 z m 15.59375,1.5 c -0.36708,0.54466 0.0198,1.14155 0.90625,1.625 1.09972,0.59977 2.7366,0.93357 3.96875,1 1.22113,0.0658 4.5164,1.0004 5.125,2.15625 -0.25319,-0.75554 -0.44144,-1.31226 -0.875,-1.5 -1.09401,-0.47373 -2.37202,-0.66436 -4.125,-1.3125 -1.48701,-0.1667 -3.37265,-0.74664 -4.5625,-1.03125 -0.32813,-0.0956 -0.40781,-0.72987 -0.4375,-0.9375 z m -9.03125,0.28125 c 0.963789,1.04291 0.564849,2.14591 -0.65625,2.375 -2.069901,0.38834 -3.993823,0.7293 -6.03125,1.4375 -1.932441,0.92676 -1.960954,3.37589 -0.40625,3.1875 -2.253536,-1.57912 0.699832,-2.94508 3.71875,-3.375 1.726144,-0.24582 3.461236,-0.49647 4.34375,-1.125 0.933228,-0.66465 0.924259,-1.65877 -0.96875,-2.5 z m -21.71875,7.84375 c -0.902364,0.0746 -1.592652,0.58425 -1.90625,0.84375 0.632946,-0.28736 2.247051,-0.40457 3.46875,-0.5 -0.403228,-0.21386 -0.791625,-0.31996 -1.15625,-0.34375 -0.136734,-0.009 -0.277341,-0.0107 -0.40625,0 z M 95.375,119.75 c -0.0651,0.15514 -0.110403,0.31508 -0.15625,0.46875 0.0701,-0.13385 0.12262,-0.30132 0.15625,-0.46875 z m 19.78125,1.375 c 0.26594,0.67314 0.71012,1.90053 1.09375,2.5625 0.24003,0.0449 0.15449,-0.65355 0.0937,-1.125 0.30998,0.0937 1.20833,0.47917 1.34375,0.25 -0.58792,-0.40161 -2.02185,-1.39338 -2.53125,-1.6875 z"
       id="path3749"
       sodipodi:nodetypes="cccscccsscccccccssccccccsscccccccccccssccccscssssscccccccccsccsscsccccsccssccccsccscccccc"
       inkscape:label="relief light" />
    <path
       style="display:inline;fill:url(#linearGradient3792);fill-opacity:1;fill-rule:evenodd;stroke:none;stroke-width:1px;stroke-linecap:butt;stroke-linejoin:miter;stroke-opacity:1"
       d="m 96.8125,99.28125 c 1.006783,6.35499 -0.849621,9.68176 -3.3125,12.25 0.454202,0.23345 0.819363,0.52241 0.9375,0.84375 -0.02764,0.81582 -0.622417,0.79528 -1.3125,1.0625 -0.665039,0.078 -1.316848,0.18739 -1.96875,0.3125 -1.727052,1.56288 -3.397305,3.10465 -4.28125,5.34375 0.165253,0.028 0.342721,0.0313 0.53125,0.0312 2.262552,-3.1e-4 4.75309,-0.32155 6.28125,-2.15625 1.473495,-1.23509 1.65158,-3.50154 3.375,-4.4375 1.833153,-0.88342 4.56774,-0.83059 5.8125,0.6875 1.54653,1.88614 3.5315,3.99138 5.65625,3.96875 2.12474,-0.0226 6.13785,1.31235 5.25,-1.125 -0.79656,-2.18675 -3.775,-2.99534 -6.09375,-3.3125 -1.40625,-0.30137 -3.00668,-0.303 -4.1875,-1.1875 -0.33242,-1.9563 1.15003,-2.15473 2.78125,-2.78125 -0.87095,-0.42438 -2.1939,-0.9541 -1.90625,-1.71875 1.07066,-2.84612 5.93799,-1.83582 8.71875,-2.375 1.23164,-0.39354 2.97311,-1.25293 2.375,-1.90625 -2.11225,-2.30721 -8.18385,1.48749 -11.5,2.375 -1.88526,0.50455 -4.91615,0.51116 -5.46875,-1.90625 -0.0202,-1.88856 -0.371059,-3.479692 -1.6875,-3.96875 z m -0.15625,18.90625 c -1.332487,0.79523 -1.80636,2.90883 -1.53125,3.5625 0.09901,0.23524 0.58007,-0.19765 0.8125,-0.375 0.748113,-0.57084 0.31092,-2.18263 0.71875,-3.1875 z m 18.5,2.9375 c 0.43418,1.09898 0.85065,2.83511 1.8125,3.0625 l 0.46875,-1.625 c -0.65943,-0.53231 -1.61317,-1.05177 -2.28125,-1.4375 z"
       id="path3781"
       sodipodi:nodetypes="ccccccsccssscccscsscccssccccc"
       inkscape:label="reflect" />
    <path
       sodipodi:nodetypes="cscsccccssscsscssczscsscsssscssscccsssscscsccczcsccscscscccsc"
       id="path3637"
       d="m 95.463702,99.324143 c -4.234242,0.441792 0.3115,5.047947 -1.142653,5.937497 -1.801367,1.10195 -3.774657,-0.22978 -5.294845,-0.52053 -2.071686,-0.66904 -4.813716,-1.51888 -6.5,0.0937 -1.609392,1.53813 2.005895,1.85881 3.660041,1.60318 1.595627,-0.1866 3.194536,0.17852 4.496209,1.33432 -12.490806,-0.21082 -25.3083,1.47146 -36.5625,7.15625 -4.303684,2.09463 -8.934632,3.26426 -13.53125,4.46875 -3.230636,0.49947 -7.594589,1.93101 -9.90625,-0.53125 -2.995344,-3.19048 2.302656,-5.78737 5.34375,-7 3.10785,-1.23925 7.503452,-2.90495 7.84375,-6.6875 0.196926,-2.18892 -4.064795,-2.03038 -5.78125,-2.25 -8.504484,0.12821 -16.645666,3.18915 -24.65625,5.6875 -1.143503,0.35664 -2.069299,0.67384 -2.21875,1.53125 -0.08835,0.50686 0.797355,0.56135 1.28125,0.53125 7.959613,-1.4987 17.130887,-7.13248 24.0625,-4.0625 2.589922,1.14706 -2.647052,4.70114 -5.375,5.5625 -3.106404,0.98086 -6.238785,3.33862 -7.25,6.6875 -0.465735,3.27905 1.219847,4.36353 7.25,4.125 6.030153,-0.23853 16.450368,-3.83166 24.875,-7.34375 5.874192,-2.44885 22.162369,-6.17434 28.362233,-5.97357 -2.906436,1.06192 -8.983149,2.43162 -8.705983,3.53607 0.503694,2.00712 10.419787,-2.90733 15.9375,-2.25 1.035921,0.12341 2.516268,0.68549 2.781248,1.40625 -0.02764,0.81582 -0.761036,0.89811 -1.484373,1.03125 -2.066823,0.38042 -4.118823,0.7293 -6.15625,1.4375 -2.606887,0.90614 -2.220231,4.28163 0.609375,4.28125 2.262555,-3.1e-4 4.618481,-0.45574 6.28125,-2.15625 1.338888,-1.36928 1.651578,-3.50154 3.374998,-4.4375 1.83315,-0.88342 4.567738,-0.83059 5.812498,0.6875 1.54653,1.88614 3.55835,3.6313 5.65625,3.96875 2.09349,0.33675 6.13785,1.31235 5.25,-1.125 -0.79656,-2.18675 -3.775,-2.99534 -6.09375,-3.3125 -1.40625,-0.30137 -3.00668,-0.303 -4.1875,-1.1875 -0.33242,-1.9563 1.15003,-2.15473 2.78125,-2.78125 -0.87095,-0.42438 -2.1939,-0.92978 -1.90625,-1.69443 1.07066,-2.84612 5.96388,-1.75892 8.71875,-2.39932 1.25753,-0.29232 2.97311,-1.25293 2.375,-1.90625 -2.11225,-2.30721 -8.2151,1.38478 -11.53125,2.21875 -1.89267,0.47599 -4.884898,0.66741 -5.437498,-1.75 -0.02586,-2.41736 -0.588561,-4.171833 -3.03125,-3.916967 z m 9.499998,0.854467 c 1.17507,0.0199 3.41038,-0.80553 2.6875,-1.874994 -0.74707,-1.105256 -2.3309,1.144784 -2.6875,1.874994 z m -30.173632,3.78125 c 0.0614,1.28888 3.094491,1.01265 4.538294,0.3866 -1.105101,-1.00111 -4.599632,-1.67424 -4.538294,-0.3866 z m 37.538402,4.90847 c 3.14009,0.30157 7.46695,3.62043 9.34911,1.3346 2.41203,-2.92934 -7.1369,-1.67724 -9.34911,-1.3346 z m -17.208518,12.87278 c 0.09901,0.23524 0.778944,0.0454 1.011374,-0.13193 0.74811,-0.57084 0.112046,-2.4257 0.519876,-3.43057 -1.33249,0.79523 -1.80636,2.90883 -1.53125,3.5625 z m -22.749998,-2.96875 c -1.10676,0.0674 -2.321928,0.13839 -2.46875,0.5625 -0.704588,2.03526 4.321082,0.16492 5.28125,-0.375 -0.865924,-0.19096 -1.880491,-0.24424 -2.8125,-0.1875 z m 42.781246,2.34375 c 0.54708,1.38475 1.07467,3.80219 2.6875,2.90625 1.26218,-0.70115 -1.3291,-2.12194 -2.6875,-2.90625 z"
       style="display:inline;fill:none;fill-opacity:1;fill-rule:nonzero;stroke:#26557b;stroke-width:1;stroke-linecap:butt;stroke-linejoin:miter;stroke-miterlimit:10;stroke-dasharray:none;stroke-opacity:1"
       inkscape:label="outline" />
  </g>
  <g
     inkscape:groupmode="layer"
     id="layer4"
     inkscape:label="pen shadow"
     style="display:inline">
    <path
       style="fill:#000000;fill-opacity:0.12956806;fill-rule:evenodd;stroke:none;stroke-width:1px;stroke-linecap:butt;stroke-linejoin:miter;stroke-opacity:1;display:inline;filter:url(#filter4006)"
       d="M 127.55267,126.35225 C 124.40174,125.01582 119.19674,124.23334 114.84169,123.28645 C 98.821903,120.23077 82.013652,117.58175 65.325572,114.88975 C 61.754677,114.26808 57.504468,114.2272 53.841978,113.83981 C 49.501628,113.40682 45.201042,112.92967 40.835644,112.52449 C 38.867087,112.54675 37.502102,111.54097 35.441233,112.00724 C 31.139264,112.01608 26.997642,110.30317 22.158218,110.09126 C 18.946025,110.11686 14.335922,109.16449 12.023513,109.74968 C 14.438825,110.10717 16.397833,110.52606 16.596119,111.36359 C 16.576306,111.93738 18.157998,112.13281 19.590291,112.36355 C 21.042458,113.39692 24.754131,113.19228 27.455089,113.73436 C 28.553752,114.06582 31.492235,114.10708 30.996301,114.68864 C 30.412232,115.52888 33.42564,115.4228 35.087606,115.60867 C 36.456366,115.85917 37.827426,116.1887 39.323456,116.42059 C 42.489153,116.96966 45.536389,117.59515 48.778312,118.09505 C 54.640171,120.10133 63.699083,120.71027 71.351594,121.84639 C 87.356583,123.87237 103.28066,126.04987 120.11607,127.36034 C 123.41012,127.64453 127.55582,127.85062 127.55267,126.35225 z"
       id="path3825"
       transform="matrix(0.9891802,0,0,0.9583383,0.1300918,4.5644238)" />
  </g>
  <g
     inkscape:label="pen"
     inkscape:groupmode="layer"
     id="layer1"
     style="display:inline">
    <path
       style="fill:#000000;fill-opacity:1;fill-rule:evenodd;stroke:#343434;stroke-width:2;stroke-linecap:butt;stroke-linejoin:miter;stroke-miterlimit:4;stroke-dasharray:none;stroke-opacity:1"
       d="M 31.114976,94.146486 L 20.864284,106.70811 L 16.363438,107.15777 L 27.132564,91.665714 L 31.114976,94.146486 z"
       id="path3331"
       sodipodi:nodetypes="ccccc" />
    <path
       style="fill:none;fill-opacity:1;fill-rule:evenodd;stroke:#6c6c6c;stroke-width:4;stroke-linecap:butt;stroke-linejoin:miter;stroke-miterlimit:4;stroke-dasharray:none;stroke-opacity:1"
       d="M 11.664616,108.89659 L 12.506629,109.59073 C 14.653927,106.57946 17.358084,105.051 19.742799,104.06349 C 22.372747,102.97442 24.643885,102.5499 25.368462,101.53034 C 26.444876,98.372541 29.592498,89.775196 29.592498,89.775196 L 25.356756,86.961601 C 25.356756,86.961601 17.667863,95.814939 15.867444,98.215856 C 14.11006,102.65675 13.478225,104.65565 11.664616,108.89659 z"
       id="path4284"
       sodipodi:nodetypes="ccsccccc" />
    <path
       style="fill:#dadada;fill-opacity:1;fill-rule:evenodd;stroke:none;stroke-width:2.5;stroke-linecap:butt;stroke-linejoin:miter;stroke-miterlimit:4;stroke-dasharray:none;stroke-opacity:1"
       d="M 15.727933,98.276115 C 15.108083,99.642475 14.290937,102.8053 11.785499,109.3204 L 12.453078,109.59073 C 17.054414,103.55769 23.851951,103.74701 25.207811,101.74454 C 26.284225,98.586743 29.592498,89.775196 29.592498,89.775196 L 29.354954,89.609626 L 26.010825,87.354366 L 25.77328,87.188796 C 22.802305,90.585076 18.786216,94.963371 15.727933,98.276115 z"
       id="path2407"
       sodipodi:nodetypes="ccccccccc" />
    <path
       style="fill:url(#linearGradient3333);fill-opacity:1;fill-rule:evenodd;stroke:none;stroke-width:2.5;stroke-linecap:butt;stroke-linejoin:miter;stroke-miterlimit:4;stroke-opacity:1"
       d="M 16.391676,98.553304 C 15.370881,101.40679 14.045532,105.05315 13.034616,107.71967 C 14.431243,106.31138 16.818846,104.55038 19.082686,103.53248 C 21.150073,102.6029 23.609718,102.15701 24.772317,101.28425 C 25.701047,98.164094 28.327236,91.446167 28.684003,90.495275 L 25.124069,88.021944 C 24.288876,88.818037 18.375704,96.230581 16.391676,98.553304 z"
       id="path2529"
       sodipodi:nodetypes="ccscccc" />
    <path
       d="M 26.724069,97.147491 C 24.523797,97.708309 21.972142,98.108794 19.70051,98.098732 C 19.339449,96.756751 19.095791,95.647098 19.221247,94.37029 M 27.63285,95.708588 C 25.432578,96.269406 22.880923,96.669891 20.609291,96.659829 C 20.24823,95.317848 20.004572,94.208195 20.130028,92.931387 M 21.555445,91.457631 C 21.656987,93.209446 25.088714,94.589655 27.236308,95.235501"
       style="fill:none;fill-rule:evenodd;stroke:#dadada;stroke-width:0.5;stroke-linecap:butt;stroke-linejoin:miter;stroke-miterlimit:4;stroke-dasharray:none;stroke-opacity:1"
       id="path3352" />
    <path
       id="path3345"
       style="fill:none;fill-rule:evenodd;stroke:#858585;stroke-width:0.30000001;stroke-linecap:butt;stroke-linejoin:miter;stroke-miterlimit:4;stroke-dasharray:none;stroke-opacity:1"
       d="M 26.724069,97.147491 C 24.523797,97.708309 21.972142,98.108794 19.70051,98.098732 C 19.339449,96.756751 19.095791,95.647098 19.221247,94.37029 M 27.63285,95.708588 C 25.432578,96.269406 22.880923,96.669891 20.609291,96.659829 C 20.24823,95.317848 20.004572,94.208195 20.130028,92.931387 M 21.555445,91.457631 C 21.656987,93.209446 25.088714,94.589655 27.236308,95.235501" />
    <path
       style="fill:url(#linearGradient3295);fill-opacity:1;fill-rule:evenodd;stroke:none;stroke-width:1px;stroke-linecap:butt;stroke-linejoin:miter;stroke-opacity:1"
       d="M 16.068273,98.016406 C 15.453328,99.433808 15.600244,102.24385 11.759512,108.70805 L 13.208763,109.47947 C 16.084598,105.70882 19.810692,104.36533 22.537593,103.40167 C 21.989792,103.18031 21.4801,102.85922 21.025947,102.42367 C 19.140065,100.37734 19.921854,97.420746 19.131929,94.977345 C 18.642652,95.488104 16.567801,97.51706 16.068273,98.016406 z"
       id="path2570"
       sodipodi:nodetypes="ccccccc" />
    <path
       sodipodi:type="arc"
       style="opacity:1;fill:#ffffff;fill-opacity:0.78737542;fill-rule:evenodd;stroke:none;stroke-width:10;stroke-linecap:butt;stroke-linejoin:miter;marker:none;marker-start:none;marker-mid:none;marker-end:none;stroke-miterlimit:4;stroke-dasharray:none;stroke-dashoffset:0;stroke-opacity:1;visibility:visible;display:inline;overflow:visible;filter:url(#filter3496);enable-background:accumulate"
       id="path3354"
       sodipodi:cx="26.837427"
       sodipodi:cy="93.087677"
       sodipodi:rx="0.21772869"
       sodipodi:ry="0.1893293"
       d="M 27.055156,93.087677 A 0.21772869,0.1893293 0 1 1 26.619698,93.087677 A 0.21772869,0.1893293 0 1 1 27.055156,93.087677 z"
       transform="matrix(2.3152174,0,0,2.6037066,-41.193861,-149.28676)" />
    <path
       transform="matrix(3.293338,0,0,3.7037066,-68.731541,-241.53515)"
       d="M 27.055156,93.087677 A 0.21772869,0.1893293 0 1 1 26.619698,93.087677 A 0.21772869,0.1893293 0 1 1 27.055156,93.087677 z"
       sodipodi:ry="0.1893293"
       sodipodi:rx="0.21772869"
       sodipodi:cy="93.087677"
       sodipodi:cx="26.837427"
       id="path3500"
       style="opacity:1;fill:#ffffff;fill-opacity:0.78737542;fill-rule:evenodd;stroke:none;stroke-width:10;stroke-linecap:butt;stroke-linejoin:miter;marker:none;marker-start:none;marker-mid:none;marker-end:none;stroke-miterlimit:4;stroke-dasharray:none;stroke-dashoffset:0;stroke-opacity:1;visibility:visible;display:inline;overflow:visible;filter:url(#filter3496);enable-background:accumulate"
       sodipodi:type="arc" />
    <path
       sodipodi:nodetypes="ccsccccc"
       id="path2521"
       d="M 11.664616,108.89659 L 12.506629,109.59073 C 14.653927,106.57946 17.358084,105.051 19.742799,104.06349 C 22.372747,102.97442 24.643885,102.5499 25.368462,101.53034 C 26.444876,98.372541 29.592498,89.775196 29.592498,89.775196 L 25.356756,86.961601 C 25.356756,86.961601 17.667863,95.814939 15.867444,98.215856 C 14.11006,102.65675 13.478225,104.65565 11.664616,108.89659 z"
       style="fill:none;fill-opacity:1;fill-rule:evenodd;stroke:#9c9c9c;stroke-width:1;stroke-linecap:butt;stroke-linejoin:miter;stroke-miterlimit:4;stroke-dasharray:none;stroke-opacity:1" />
    <path
       style="fill:#575757;fill-opacity:1;fill-rule:evenodd;stroke:#e2e2e2;stroke-width:0.12;stroke-linecap:butt;stroke-linejoin:miter;stroke-miterlimit:4;stroke-dasharray:none;stroke-opacity:1"
       d="M 19.126412,98.266399 C 18.887075,98.272308 18.665738,98.387266 18.590868,98.603421 C 18.536454,98.760516 18.587584,98.934527 18.678698,99.073316 L 11.740994,108.95534 L 12.143664,109.24169 L 19.05012,99.359274 C 19.365612,99.451095 19.676816,99.302739 19.773149,99.024617 C 19.872977,98.736412 19.701884,98.413679 19.375998,98.3008 C 19.294526,98.27258 19.206191,98.264429 19.126412,98.266399 z"
       id="path2474" />
    <path
       sodipodi:nodetypes="ccccscccc"
       style="fill:none;fill-opacity:1;fill-rule:nonzero;stroke:#705d2c;stroke-width:4;stroke-linecap:round;stroke-linejoin:round;marker:none;marker-start:none;marker-mid:none;marker-end:none;stroke-miterlimit:4;stroke-dasharray:none;stroke-dashoffset:0;stroke-opacity:1;visibility:visible;display:inline;overflow:visible"
       d="M 32.985227,69.788743 L 26.359755,82.187881 C 26.272766,82.568196 26.208968,82.948511 26.043507,83.328826 L 23.580028,85.922769 C 22.585577,86.969909 24.742211,89.909359 27.163156,91.596781 C 29.423337,93.172147 32.796047,94.247788 33.708551,93.310186 L 35.385372,89.638512 C 35.614417,89.451948 35.924406,89.231396 36.183901,89.035407 L 45.218749,78.315627"
       id="path4282" />
    <path
       style="fill:#cebc8a;fill-opacity:1;fill-rule:nonzero;stroke:none;stroke-width:3;stroke-linecap:round;stroke-linejoin:round;marker:none;marker-start:none;marker-mid:none;marker-end:none;stroke-miterlimit:4;stroke-dasharray:none;stroke-dashoffset:0;stroke-opacity:1;visibility:visible;display:inline;overflow:visible"
       d="M 32.949747,69.839646 L 26.359755,82.187881 L 26.043507,83.328826 L 23.580028,85.922769 C 22.585577,86.969909 24.742211,89.909359 27.163156,91.596781 C 29.423337,93.172147 32.796047,94.247788 33.708551,93.310186 C 33.738405,93.278235 33.78412,93.239797 33.808303,93.203241 C 33.820032,93.184671 33.82839,93.14329 33.838642,93.123544 C 33.843581,93.113523 33.857733,93.099928 33.862295,93.089609 L 35.385372,89.638512 C 35.395001,89.616731 35.395089,89.598008 35.403884,89.575783 C 35.409053,89.573806 35.41057,89.560824 35.415711,89.558815 C 35.417858,89.553232 35.425442,89.547459 35.427537,89.541848 C 35.727516,89.4216 35.992362,89.262671 36.183901,89.035407 L 45.218749,78.315627 C 46.516903,76.775344 44.568885,73.4256 41.19193,71.07183 C 37.814975,68.718059 34.137072,68.136191 32.985227,69.788743 L 32.949747,69.839646 z"
       id="path2389"
       sodipodi:nodetypes="ccccssssccsssccscc" />
    <path
       style="fill:url(#linearGradient3616);fill-opacity:1.0;fill-rule:nonzero;stroke:none;stroke-width:3;stroke-linecap:round;stroke-linejoin:round;marker:none;marker-start:none;marker-mid:none;marker-end:none;stroke-miterlimit:4;stroke-dashoffset:0;stroke-opacity:1;visibility:visible;display:inline;overflow:visible"
       d="M 33.553152,70.380194 C 31.3497,74.522204 29.129846,78.656063 26.936651,82.803169 C 26.853846,83.29916 26.818339,83.844957 26.373758,84.172448 C 25.598572,84.988688 24.823386,85.804927 24.0482,86.621166 C 24.273355,87.890194 25.226125,88.867823 26.09446,89.754876 C 28.007155,91.534239 31.220018,93.100239 33.100755,92.789838 C 33.54586,91.781626 34.231941,90.585988 34.677046,89.202923 C 34.80717,89.05762 35.253333,88.684854 35.520765,88.634261 C 38.48932,85.232572 41.864255,81.173085 44.956676,77.503952 C 44.045941,72.034925 38.538622,70.430731 33.553152,70.380194 z"
       id="path2515"
       sodipodi:nodetypes="cccccccccc" />
    <path
       style="fill:none;fill-opacity:1;fill-rule:nonzero;stroke:#ffffff;stroke-width:1;stroke-linecap:round;stroke-linejoin:round;marker:none;marker-start:none;marker-mid:none;marker-end:none;stroke-miterlimit:4;stroke-dasharray:none;stroke-dashoffset:0;stroke-opacity:0.51495016;visibility:visible;display:inline;overflow:visible;filter:url(#filter4126)"
       d="M 28.124757,91.689534 C 28.708047,91.829482 29.311822,91.827253 29.638119,91.334638 C 30.151968,90.172906 30.66699,89.007493 31.179503,87.847168 C 31.46506,87.732632 31.717172,87.581252 31.899502,87.364784 L 39.261944,78.624012"
       id="path4092"
       sodipodi:nodetypes="ccccc" />
    <path
       sodipodi:type="arc"
       style="opacity:1;fill:#ffffff;fill-opacity:0.52823917;fill-rule:evenodd;stroke:none;stroke-width:10;stroke-linecap:butt;stroke-linejoin:miter;marker:none;marker-start:none;marker-mid:none;marker-end:none;stroke-miterlimit:4;stroke-dasharray:none;stroke-dashoffset:0;stroke-opacity:1;visibility:visible;display:inline;overflow:visible;filter:url(#filter3496);enable-background:accumulate"
       id="path4130"
       sodipodi:cx="26.837427"
       sodipodi:cy="93.087677"
       sodipodi:rx="0.21772869"
       sodipodi:ry="0.1893293"
       d="M 27.055156,93.087677 A 0.21772869,0.1893293 0 1 1 26.619698,93.087677 A 0.21772869,0.1893293 0 1 1 27.055156,93.087677 z"
       transform="matrix(4.3952587,0,0,5.5759151,-78.009779,-435.70567)" />
    <g
       id="g3631"
       transform="matrix(0.9483511,0,0,1.010831,-4.7625716,0.9076275)">
      <path
         id="path3629"
         style="fill:none;fill-opacity:1;fill-rule:nonzero;stroke:#ccbc90;stroke-width:0.51067686;stroke-linecap:round;stroke-linejoin:round;marker:none;marker-start:none;marker-mid:none;marker-end:none;stroke-miterlimit:4;stroke-dasharray:none;stroke-dashoffset:0;stroke-opacity:1;visibility:visible;display:inline;overflow:visible"
         d="M 38.806746,70.352249 C 37.985672,72.019314 38.555127,74.717084 41.106952,76.972953 C 43.507,79.094648 48.556801,80.674026 49.685586,79.686223 M 37.661336,71.84595 C 36.862414,73.467846 37.624768,75.922126 40.107748,78.116873 C 42.443047,80.181082 47.545942,81.925929 48.644275,80.96489" />
      <path
         d="M 38.806746,70.352249 C 37.985672,72.019314 38.555127,74.717084 41.106952,76.972953 C 43.507,79.094648 48.556801,80.674026 49.685586,79.686223 M 37.661336,71.84595 C 36.862414,73.467846 37.624768,75.922126 40.107748,78.116873 C 42.443047,80.181082 47.545942,81.925929 48.644275,80.96489"
         style="fill:none;fill-opacity:1;fill-rule:nonzero;stroke:#877135;stroke-width:0.30640614;stroke-linecap:round;stroke-linejoin:round;marker:none;marker-start:none;marker-mid:none;marker-end:none;stroke-miterlimit:4;stroke-dasharray:none;stroke-dashoffset:0;stroke-opacity:1;visibility:visible;display:inline;overflow:visible"
         id="path3624" />
    </g>
    <path
       style="opacity:1;fill:url(#linearGradient3318);fill-opacity:1;fill-rule:evenodd;stroke:none;stroke-width:1px;stroke-linecap:butt;stroke-linejoin:miter;stroke-opacity:1;display:none"
       d="M 34.262421,78.287604 C 33.821884,79.729436 31.999372,81.226607 32.518941,82.656325 C 34.560129,85.618317 37.532256,87.982255 40.973531,89.087269 C 42.651276,89.154874 43.128153,87.094766 44.268926,86.218243 C 44.914414,85.129349 46.710673,84.017634 46.607399,82.9208 C 45.150175,81.433497 42.85802,81.28543 40.899441,81.422604 C 39.472773,81.819529 37.963936,81.621286 36.756961,80.740996 C 35.681563,80.181861 34.890352,79.307614 34.262421,78.287604 z"
       id="path2598" />
    <path
       style="fill:none;fill-opacity:0.75;fill-rule:evenodd;stroke:#7f6c31;stroke-width:0.99999982px;stroke-linecap:butt;stroke-linejoin:miter;stroke-opacity:0.38205979;filter:url(#filter3586)"
       d="M 26.171368,83.183024 C 28.156231,85.831977 31.7552,89.076926 35.648838,89.44505"
       id="path2498"
       sodipodi:nodetypes="cc" />
    <path
       transform="matrix(3.3803678,0,0,4.2884037,-65.666155,-313.86549)"
       d="M 27.055156,93.087677 A 0.21772869,0.1893293 0 1 1 26.619698,93.087677 A 0.21772869,0.1893293 0 1 1 27.055156,93.087677 z"
       sodipodi:ry="0.1893293"
       sodipodi:rx="0.21772869"
       sodipodi:cy="93.087677"
       sodipodi:cx="26.837427"
       id="path4132"
       style="opacity:1;fill:#ffffff;fill-opacity:0.52823919;fill-rule:evenodd;stroke:none;stroke-width:10;stroke-linecap:butt;stroke-linejoin:miter;marker:none;marker-start:none;marker-mid:none;marker-end:none;stroke-miterlimit:4;stroke-dasharray:none;stroke-dashoffset:0;stroke-opacity:1;visibility:visible;display:inline;overflow:visible;filter:url(#filter3496);enable-background:accumulate"
       sodipodi:type="arc" />
    <path
       id="path2500"
       d="M 26.359755,82.187881 C 26.272766,82.568196 26.208968,82.948511 26.043507,83.328826 L 23.580028,85.922769 C 22.585577,86.969909 24.742211,89.909359 27.163156,91.596781 C 29.423337,93.172147 32.796047,94.247788 33.708551,93.310186 L 35.385372,89.638512 C 35.614417,89.451948 35.924406,89.231396 36.183901,89.035407 L 45.218749,78.315627 C 43.754767,78.918761 40.458827,78.264862 37.081872,75.911092 C 33.704917,73.557321 33.275286,71.273977 32.985227,69.788743 L 26.359755,82.187881 z"
       style="fill:none;fill-opacity:1;fill-rule:nonzero;stroke:#967e3c;stroke-width:1;stroke-linecap:round;stroke-linejoin:round;marker:none;marker-start:none;marker-mid:none;marker-end:none;stroke-miterlimit:4;stroke-dasharray:none;stroke-dashoffset:0;stroke-opacity:1;visibility:visible;display:inline;overflow:visible"
       sodipodi:nodetypes="cccsccccscc" />
    <path
       sodipodi:nodetypes="cccccsccccssc"
       id="path4276"
       d="M 81.125,7.25 C 69.613163,17.418132 48.533638,45.893195 38.71875,58.5 C 38.617656,58.64504 38.504183,58.795009 38.40625,58.9375 C 36.132936,62.003499 34.460049,65.58224 33.5625,69.15625 C 33.459201,69.806882 33.446549,70.387137 33.46875,70.9375 C 33.916543,72.558466 35.504745,74.560036 37.75,76.125 C 40.236385,77.858037 42.909453,78.622705 44.59375,78.25 C 44.971386,78.125741 45.30528,77.899896 45.65625,77.71875 C 49.129001,75.598234 51.55229,72.361757 53.9375,69.125 C 62.273923,55.984542 81.866503,26.154188 87.40625,11.6875 C 86.564162,12.175197 84.94419,11.87499 83.375,10.78125 C 82.06616,9.8689738 81.267114,8.6968376 81.125,7.78125 C 81.099094,7.5990075 81.096689,7.4100328 81.125,7.25 z"
       style="fill:none;fill-opacity:1;fill-rule:nonzero;stroke:#6a3d29;stroke-width:4;stroke-linecap:round;stroke-linejoin:round;marker:none;marker-start:none;marker-mid:none;marker-end:none;stroke-miterlimit:4;stroke-dasharray:none;stroke-dashoffset:0;stroke-opacity:1;visibility:visible;display:inline;overflow:visible" />
    <path
       sodipodi:nodetypes="czccssccc"
       id="path2644"
       d="M 38.414173,58.925412 C 30.155147,70.942208 34.467464,73.842169 37.764909,76.14052 C 41.209162,78.541198 45.235581,81.582915 53.929626,69.109569 C 62.266049,55.969108 81.875492,26.166499 87.415239,11.699811 C 86.573149,12.187508 84.9415,11.866386 83.37231,10.772646 C 82.063467,9.8603698 81.258307,8.7039047 81.116193,7.7883171 C 81.09029,7.6060747 81.081727,7.4146367 81.110038,7.2546039 C 69.598202,17.422736 48.524722,45.894421 38.709834,58.501226 C 38.608741,58.646265 38.512106,58.782921 38.414173,58.925412 z"
       style="fill:url(#linearGradient3233);fill-opacity:1;fill-rule:nonzero;stroke:none;stroke-width:3;stroke-linecap:round;stroke-linejoin:round;marker:none;marker-start:none;marker-mid:none;marker-end:none;stroke-miterlimit:4;stroke-dasharray:none;stroke-dashoffset:0;stroke-opacity:1;visibility:visible;display:inline;overflow:visible;opacity:1;color:#000000;enable-background:accumulate" />
    <path
       style="fill:#382010;fill-opacity:0.33887043999999999;fill-rule:nonzero;stroke:none;stroke-width:3;stroke-linecap:round;stroke-linejoin:round;marker:none;marker-start:none;marker-mid:none;marker-end:none;stroke-miterlimit:4;stroke-dasharray:none;stroke-dashoffset:0;stroke-opacity:1;visibility:visible;display:inline;overflow:visible;opacity:1;color:#000000;enable-background:accumulate;filter:url(#filter4272)"
       d="M 81.160199,9.1728738 C 81.160199,9.1728738 81.493171,10.630702 83.723378,12.096872 C 80.348992,16.467532 48.187944,73.205879 39.90625,73.1875 C 39.004962,73.1855 37.798263,73.170544 36.953045,72.700626 C 35.480108,71.881712 34.565531,70.345522 34.40533,69.910692 C 33.871836,72.110083 36.294536,74.149175 37.577666,75.077665 C 39.302101,76.325489 41.250875,77.296848 44.031675,76.565958 C 46.735713,75.855243 49.364314,73.023544 52.756932,68.260724 C 61.093355,55.120266 78.761974,26.789911 86.489221,11.510723 C 85.790497,11.91539 82.558829,10.711986 81.160199,9.1728738 z"
       id="path4141"
       sodipodi:nodetypes="ccsscssccc" />
    <path
       style="fill:none;fill-opacity:1;fill-rule:nonzero;stroke:#8b5036;stroke-width:1;stroke-linecap:round;stroke-linejoin:round;marker:none;marker-start:none;marker-mid:none;marker-end:none;stroke-miterlimit:4;stroke-dasharray:none;stroke-dashoffset:0;stroke-opacity:1;visibility:visible;display:inline;overflow:visible"
       d="M 81.125,7.25 C 69.613163,17.418132 48.533638,45.893195 38.71875,58.5 C 38.617656,58.64504 38.504183,58.795009 38.40625,58.9375 C 36.132936,62.003499 34.460049,65.58224 33.5625,69.15625 C 33.459201,69.806882 33.446549,70.387137 33.46875,70.9375 C 33.916543,72.558466 35.504745,74.560036 37.75,76.125 C 40.236385,77.858037 42.909453,78.622705 44.59375,78.25 C 44.971386,78.125741 45.30528,77.899896 45.65625,77.71875 C 49.129001,75.598234 51.55229,72.361757 53.9375,69.125 C 62.273923,55.984542 81.866503,26.154188 87.40625,11.6875 C 86.564162,12.175197 84.94419,11.87499 83.375,10.78125 C 82.06616,9.8689738 81.267114,8.6968376 81.125,7.78125 C 81.099094,7.5990075 81.096689,7.4100328 81.125,7.25 z"
       id="path2540"
       sodipodi:nodetypes="cccccsccccssc" />
    <path
       style="opacity:1;fill:none;fill-opacity:1;fill-rule:nonzero;stroke:#72612e;stroke-width:4;stroke-linecap:round;stroke-linejoin:round;marker:none;marker-start:none;marker-mid:none;marker-end:none;stroke-miterlimit:4;stroke-dasharray:none;stroke-dashoffset:0;stroke-opacity:1;visibility:visible;display:inline;overflow:visible"
       d="M 81.121915,7.2376905 C 80.933245,8.2055625 81.776815,9.6605925 83.372355,10.772702 C 84.953895,11.875056 86.590845,12.187197 87.427105,11.682903 C 87.431805,11.670629 87.446085,11.661223 87.450765,11.648968 C 89.010405,7.5606195 89.182455,6.8382345 87.066885,5.3636575 C 84.894735,3.8496455 84.397775,4.3465905 81.121915,7.2376905 z"
       id="path4278"
       sodipodi:nodetypes="cscszc" />
    <path
       style="opacity:1;fill:#d2c398;fill-opacity:1;fill-rule:nonzero;stroke:none;stroke-width:1;stroke-linecap:round;stroke-linejoin:round;marker:none;marker-start:none;marker-mid:none;marker-end:none;stroke-miterlimit:4;stroke-dasharray:none;stroke-dashoffset:0;stroke-opacity:1;visibility:visible;display:inline;overflow:visible"
       d="M 81.121915,7.2376905 C 80.933245,8.2055625 81.776815,9.6605925 83.372355,10.772702 C 84.656254,11.803091 85.856413,12.059699 87.362377,11.693162 C 88.922017,7.6048137 89.182455,6.8382345 87.066885,5.3636575 C 84.894735,3.8496455 84.397775,4.3465905 81.121915,7.2376905 z"
       id="path4076"
       sodipodi:nodetypes="ccczc" />
    <path
       style="opacity:1;fill:url(#linearGradient4090);fill-opacity:1;fill-rule:nonzero;stroke:none;stroke-width:1;stroke-linecap:round;stroke-linejoin:round;marker:none;marker-start:none;marker-mid:none;marker-end:none;stroke-miterlimit:4;stroke-dasharray:none;stroke-dashoffset:0;stroke-opacity:1;visibility:visible;display:inline;overflow:visible"
       d="M 81.656025,7.5369103 C 81.74234,8.3300014 82.343768,9.3842082 83.669395,10.308185 C 84.781434,11.16387 86.544229,11.54538 86.980531,11.268235 C 88.276331,7.8715015 88.592693,7.0442891 86.705786,5.8031258 C 84.831665,4.5703731 84.377716,5.1348901 81.656025,7.5369103 z"
       id="path2397"
       sodipodi:nodetypes="ccczc" />
    <path
       style="fill:none;fill-rule:nonzero;stroke:#ffffff;stroke-width:1;stroke-linecap:round;stroke-linejoin:round;stroke-opacity:0.51495013999999995;opacity:1;color:#000000;fill-opacity:1;marker:none;marker-start:none;marker-mid:none;marker-end:none;stroke-miterlimit:4;stroke-dasharray:none;stroke-dashoffset:0;visibility:visible;display:inline;overflow:visible;filter:url(#filter4126);enable-background:accumulate"
       d="M 85.007493,11.216896 C 85.165729,10.874066 86.492176,8.3448425 87.32714,6.7962314 C 87.6326,6.2296942 87.455925,5.9079241 87.405028,5.8362552"
       id="path4134"
       sodipodi:nodetypes="csc" />
    <g
       transform="matrix(0.4651945,0,0,0.4651945,64.702724,-26.808282)"
       id="g4078">
      <path
         d="M 38.806746,70.352249 C 37.985672,72.019314 38.555127,74.717084 41.106952,76.972953 C 43.507,79.094648 48.556801,80.674026 49.685586,79.686223 M 37.661336,71.84595 C 36.862414,73.467846 37.624768,75.922126 40.107748,78.116873 C 42.443047,80.181082 47.545942,81.925929 48.644275,80.96489"
         style="fill:none;fill-opacity:1;fill-rule:nonzero;stroke:#ccbc90;stroke-width:1.07481933;stroke-linecap:round;stroke-linejoin:round;marker:none;marker-start:none;marker-mid:none;marker-end:none;stroke-miterlimit:4;stroke-dasharray:none;stroke-dashoffset:0;stroke-opacity:1;visibility:visible;display:inline;overflow:visible"
         id="path4080" />
      <path
         id="path4082"
         style="fill:none;fill-opacity:1;fill-rule:nonzero;stroke:#877135;stroke-width:0.64489168;stroke-linecap:round;stroke-linejoin:round;marker:none;marker-start:none;marker-mid:none;marker-end:none;stroke-miterlimit:4;stroke-dasharray:none;stroke-dashoffset:0;stroke-opacity:1;visibility:visible;display:inline;overflow:visible"
         d="M 38.806746,70.352249 C 37.985672,72.019314 38.555127,74.717084 41.106952,76.972953 C 43.507,79.094648 48.556801,80.674026 49.685586,79.686223 M 37.661336,71.84595 C 36.862414,73.467846 37.624768,75.922126 40.107748,78.116873 C 42.443047,80.181082 47.545942,81.925929 48.644275,80.96489" />
    </g>
    <path
       sodipodi:nodetypes="cscszc"
       id="path4074"
       d="M 81.121915,7.2376905 C 80.933245,8.2055625 81.776815,9.6605925 83.372355,10.772702 C 84.953895,11.875056 86.590845,12.187197 87.427105,11.682903 C 87.431805,11.670629 87.446085,11.661223 87.450765,11.648968 C 89.010405,7.5606195 89.182455,6.8382345 87.066885,5.3636575 C 84.894735,3.8496455 84.397775,4.3465905 81.121915,7.2376905 z"
       style="opacity:1;fill:none;fill-opacity:1;fill-rule:nonzero;stroke:#9f8741;stroke-width:1;stroke-linecap:round;stroke-linejoin:round;marker:none;marker-start:none;marker-mid:none;marker-end:none;stroke-miterlimit:4;stroke-dasharray:none;stroke-dashoffset:0;stroke-opacity:1;visibility:visible;display:inline;overflow:visible" />
  </g>
</svg>
