<?xml version="1.0" encoding="UTF-8" standalone="no"?>
<!-- Created with Inkscape (http://www.inkscape.org/) -->

<svg
   width="128"
   height="128"
   id="svg2"
   version="1.1"
   inkscape:version="1.3.2 (1:1.3.2+202311252150+091e20ef0f)"
   sodipodi:docname="graph.svg"
   inkscape:export-filename="graph_32.png"
   inkscape:export-xdpi="24"
   inkscape:export-ydpi="24"
   xmlns:inkscape="http://www.inkscape.org/namespaces/inkscape"
   xmlns:sodipodi="http://sodipodi.sourceforge.net/DTD/sodipodi-0.dtd"
   xmlns:xlink="http://www.w3.org/1999/xlink"
   xmlns="http://www.w3.org/2000/svg"
   xmlns:svg="http://www.w3.org/2000/svg"
   xmlns:rdf="http://www.w3.org/1999/02/22-rdf-syntax-ns#"
   xmlns:cc="http://creativecommons.org/ns#"
   xmlns:dc="http://purl.org/dc/elements/1.1/">
  <defs
     id="defs4">
    <linearGradient
       id="linearGradient3797">
      <stop
         style="stop-color:#e4e9fb;stop-opacity:0"
         offset="0"
         id="stop3799" />
      <stop
         id="stop3805"
         offset="0.43906772"
         style="stop-color:#e4e9fb;stop-opacity:0.18727915;" />
      <stop
         style="stop-color:#e4e9fb;stop-opacity:0"
         offset="1"
         id="stop3801" />
    </linearGradient>
    <linearGradient
       id="linearGradient3764">
      <stop
         id="stop3766"
         offset="0"
         style="stop-color:#5772e4;stop-opacity:1;" />
      <stop
         style="stop-color:#1e3bb6;stop-opacity:1"
         offset="0.21354167"
         id="stop3768" />
      <stop
         id="stop3770"
         offset="1"
         style="stop-color:#4360e0;stop-opacity:1" />
    </linearGradient>
    <linearGradient
       inkscape:collect="always"
       id="linearGradient3725">
      <stop
         style="stop-color:#1c38ae;stop-opacity:1"
         offset="0"
         id="stop3727" />
      <stop
         id="stop3733"
         offset="0.19815184"
         style="stop-color:#3251d4;stop-opacity:1" />
      <stop
         style="stop-color:#14287c;stop-opacity:1"
         offset="1"
         id="stop3729" />
    </linearGradient>
    <linearGradient
       inkscape:collect="always"
       id="linearGradient3712">
      <stop
         style="stop-color:#5772e4;stop-opacity:1;"
         offset="0"
         id="stop3714" />
      <stop
         id="stop3720"
         offset="0.04153775"
         style="stop-color:#2345d6;stop-opacity:1" />
      <stop
         style="stop-color:#95a6ee;stop-opacity:1"
         offset="1"
         id="stop3716" />
    </linearGradient>
    <filter
       inkscape:collect="always"
       id="filter3708"
       x="-0.047639334"
       width="1.0952787"
       y="-0.12909673"
       height="1.2581935">
      <feGaussianBlur
         inkscape:collect="always"
         stdDeviation="2.2006245"
         id="feGaussianBlur3710" />
    </filter>
    <linearGradient
       inkscape:collect="always"
       xlink:href="#linearGradient3712"
       id="linearGradient3718"
       x1="32.676697"
       y1="1024.7574"
       x2="74.614586"
       y2="931.06586"
       gradientUnits="userSpaceOnUse"
       gradientTransform="matrix(0.9785928,0,0,0.97860967,1.4666112,21.155567)" />
    <linearGradient
       inkscape:collect="always"
       xlink:href="#linearGradient3725"
       id="linearGradient3731"
       x1="73.412827"
       y1="1041.4834"
       x2="81.358414"
       y2="1029.9498"
       gradientUnits="userSpaceOnUse" />
    <linearGradient
       inkscape:collect="always"
       xlink:href="#linearGradient3764"
       id="linearGradient3762"
       x1="71.29467"
       y1="1021.8998"
       x2="69.012238"
       y2="1027.1084"
       gradientUnits="userSpaceOnUse" />
    <linearGradient
       inkscape:collect="always"
       xlink:href="#linearGradient3797"
       id="linearGradient3803"
       x1="21.820528"
       y1="983.95703"
       x2="52.484875"
       y2="959.13562"
       gradientUnits="userSpaceOnUse" />
  </defs>
  <sodipodi:namedview
     id="base"
     pagecolor="#ffffff"
     bordercolor="#666666"
     borderopacity="1.0"
     inkscape:pageopacity="0.0"
     inkscape:pageshadow="2"
     inkscape:zoom="5.6"
     inkscape:cx="46.071429"
     inkscape:cy="67.232143"
     inkscape:document-units="px"
     inkscape:current-layer="layer1"
     showgrid="false"
     inkscape:window-width="1868"
     inkscape:window-height="1016"
     inkscape:window-x="52"
     inkscape:window-y="27"
     inkscape:window-maximized="1"
     inkscape:showpageshadow="2"
     inkscape:pagecheckerboard="0"
     inkscape:deskcolor="#d1d1d1" />
  <metadata
     id="metadata7">
    <rdf:RDF>
      <cc:Work
         rdf:about="">
        <dc:format>image/svg+xml</dc:format>
        <dc:type
           rdf:resource="http://purl.org/dc/dcmitype/StillImage" />
        <cc:license
           rdf:resource="http://creativecommons.org/licenses/by-sa/4.0/" />
      </cc:Work>
      <cc:License
         rdf:about="http://creativecommons.org/licenses/by-sa/4.0/">
        <cc:permits
           rdf:resource="http://creativecommons.org/ns#Reproduction" />
        <cc:permits
           rdf:resource="http://creativecommons.org/ns#Distribution" />
        <cc:requires
           rdf:resource="http://creativecommons.org/ns#Notice" />
        <cc:requires
           rdf:resource="http://creativecommons.org/ns#Attribution" />
        <cc:permits
           rdf:resource="http://creativecommons.org/ns#DerivativeWorks" />
        <cc:requires
           rdf:resource="http://creativecommons.org/ns#ShareAlike" />
      </cc:License>
    </rdf:RDF>
  </metadata>
  <g
     inkscape:label="main"
     inkscape:groupmode="layer"
     id="layer1"
     transform="translate(0,-924.36218)">
    <path
       style="color:#000000;fill:#122573;fill-opacity:0.13962265;stroke:none;stroke-width:4;marker:none;visibility:visible;display:inline;overflow:visible;filter:url(#filter3708);enable-background:accumulate"
       d="m 18.435284,94.917504 -4.545687,3.282996 55.305852,26.26396 c 21.072519,-2.57842 44.757511,-15.1604 55.558391,-29.294422 L 88.135811,83.553288 18.435284,94.917504 z"
       id="path3702"
       transform="matrix(0.9785928,0,0,0.97860967,1.4666112,925.74533)"
       sodipodi:nodetypes="cccccc"
       inkscape:label="shadow" />
    <path
       style="color:#000000;display:inline;overflow:visible;visibility:visible;fill:none;stroke:#0a1643;stroke-width:4;stroke-miterlimit:4;stroke-dasharray:none;stroke-opacity:1;marker:none;enable-background:accumulate"
       d="m 57.919186,927.24383 c -35.714208,44.18272 -47.643586,58.70028 -47.706401,79.32857 -0.01092,3.5855 2.433555,7.0809 5.718651,9.1133 19.145926,8.3988 38.883419,16.7762 57.736979,24.9851 4.509398,1.7681 9.62696,0.2584 12.477058,-3.6392 2.416771,-3.305 2.825407,-7.4227 -1.7737,-9.8778 -4.468513,-1.9634 -12.877925,-5.6112 -18.042805,-7.7065 1.015522,-5.0196 2.972387,-9.7684 5.229355,-14.3429 7.269768,-14.4024 21.511074,-31.92334 45.932697,-62.11106 -21.568423,-4.57599 -40.718566,-8.48528 -59.571834,-15.74951 z"
       id="path3689"
       sodipodi:nodetypes="csccsccccc"
       inkscape:label="big_outline" />
    <path
       style="color:#000000;display:inline;overflow:visible;visibility:visible;fill:url(#linearGradient3731);fill-opacity:1;fill-rule:nonzero;stroke:none;stroke-width:1;marker:none;enable-background:accumulate"
       d="m 63.764528,1018.4162 c 4.368718,1.6601 15.375252,6.433 20.620349,8.7376 4.196602,2.523 3.30813,6.9179 1.747486,9.8734 -1.686024,3.1931 -9.873301,4.4562 -9.873301,4.4562 l -16.863252,-6.9027 z"
       id="path3627"
       sodipodi:nodetypes="ccsccc"
       inkscape:label="back_colorfill" />
    <path
       style="color:#000000;display:inline;overflow:visible;visibility:visible;fill:url(#linearGradient3762);fill-opacity:1;fill-rule:nonzero;stroke:none;stroke-width:1;marker:none;enable-background:accumulate"
       d="m 66.036261,1019.3773 16.164256,6.9464 c -1.728393,0.9659 -3.856983,1.2515 -4.499779,4.0629 l -13.543025,-5.592 z"
       id="path3629"
       sodipodi:nodetypes="ccccc"
       inkscape:label="back_gradient" />
    <path
       sodipodi:nodetypes="csccscc"
       d="m 73.665265,1040.6795 c -4.593257,-1.6548 -8.372645,-6.228 -8.358206,-10.9654 0.06874,-22.5507 13.103213,-38.42887 52.177811,-86.72924 -21.568422,-4.57598 -40.727632,-8.48602 -59.580899,-15.75024 -35.714206,44.18272 -47.627734,58.7072 -47.69055,79.33538 -0.01092,3.5857 2.424141,7.0944 5.709238,9.1268 z"
       style="color:#000000;display:inline;overflow:visible;visibility:visible;fill:url(#linearGradient3718);fill-opacity:1;stroke:none;stroke-width:1;marker:none;enable-background:accumulate"
       id="path3621"
       inkscape:label="colorfill" />
    <path
       id="path3793"
       style="color:#000000;fill:url(#linearGradient3803);fill-opacity:1;stroke:none;stroke-width:1;marker:none;visibility:visible;display:inline;overflow:visible;enable-background:accumulate"
       d="m 73.665265,1040.6795 c -5.664686,-2.0119 -8.372645,-6.228 -8.358206,-10.9654 0.06874,-22.5507 13.103213,-38.42887 52.177811,-86.72924 -21.568422,-4.57598 -40.727632,-8.48602 -59.580899,-15.75024 -35.714206,44.18272 -47.627734,58.7072 -47.69055,79.33538 -0.01092,3.5857 2.424141,7.0944 5.709238,9.1268 l 57.742606,24.9827 z"
       sodipodi:nodetypes="csccscc"
       inkscape:label="reflect" />
    <path
       sodipodi:nodetypes="cscsccscccs"
       d="m 86.869817,1029.6011 c 2.018687,7.1878 -5.135757,11.498 -10.350696,11.7232 m -8.256503,-3.5956 c -2.196409,-2.0329 -3.848883,-5.7707 -3.841804,-8.0929 0.06761,-22.1793 13.072197,-38.71815 51.502866,-86.22305 -21.212985,-4.50071 -39.223566,-7.87826 -57.766144,-15.02281 -35.125658,43.45513 -46.840616,57.52482 -46.902396,77.81346 -0.01074,3.5264 1.84755,7.4825 5.078511,9.4814 m 49.415616,8.9668 11.842576,5.1268 c 0.567746,-1.9415 1.950904,-3.4114 3.640994,-3.3743"
       style="color:#000000;display:inline;overflow:visible;visibility:visible;fill:none;stroke:#b8c3f4;stroke-width:1;stroke-linecap:round;stroke-linejoin:miter;stroke-miterlimit:10;stroke-dasharray:none;stroke-dashoffset:0;stroke-opacity:1;marker:none;enable-background:accumulate"
       id="path3722"
       inkscape:label="light_outline" />
    <path
       style="color:#000000;display:inline;overflow:visible;visibility:visible;fill:none;stroke:#132576;stroke-width:1;stroke-linecap:round;stroke-linejoin:miter;stroke-miterlimit:10;stroke-dasharray:none;stroke-dashoffset:0;stroke-opacity:1;marker:none;enable-background:accumulate"
       d="m 66.472473,1019.4999 c 6.053809,2.5967 12.302154,5.2868 18.251332,7.8835"
       id="path3617"
       sodipodi:nodetypes="cc"
       inkscape:label="back_outline" />
    <path
       id="path3619"
       style="color:#000000;display:inline;overflow:visible;visibility:visible;fill:none;stroke:#132576;stroke-width:1;stroke-linecap:round;stroke-linejoin:miter;stroke-miterlimit:10;stroke-dasharray:none;stroke-dashoffset:0;stroke-opacity:1;marker:none;enable-background:accumulate"
       d="m 73.549382,1040.6372 -57.626726,-24.9405 c -3.285098,-2.0324 -5.720159,-5.5412 -5.709239,-9.1266 0.06282,-20.62839 11.976344,-35.15283 47.69055,-79.33558 18.853268,7.26418 38.012476,11.17422 59.580893,15.75029 -39.074592,48.30033 -52.109065,64.17849 -52.177805,86.72919 -0.01857,6.0939 6.431811,11.9854 12.515625,11.6342 5.133797,-0.2963 9.656439,-4.8485 9.753819,-9.3518 0.114504,-5.2941 -8.247889,-7.9164 -9.762189,-1.371 -4.094578,-1.7535 -8.145512,-3.537 -12.24353,-5.3206"
       sodipodi:nodetypes="ccsccssscc"
       inkscape:label="middle_outline" />
    <path
       style="color:#000000;fill:none;stroke:#ffffff;stroke-width:2;stroke-linecap:round;stroke-linejoin:miter;stroke-miterlimit:10;stroke-opacity:1;stroke-dasharray:none;stroke-dashoffset:0;marker:none;visibility:visible;display:inline;overflow:visible;enable-background:accumulate"
       d="m 84.107163,967.48166 c -0.102426,-3.05261 -8.784992,-4.89089 -11.191385,-5.25541 -16.762745,-2.53919 -21.986135,14.19946 -4.49301,17.96736 4.079916,0.87878 12.087048,-0.18219 15.560155,-3.1903 3.473107,-3.00812 -1.535643,-7.73793 -6.405724,-8.44746"
       id="path3807"
       sodipodi:nodetypes="csszz"
       inkscape:label="round2" />
    <path
       sodipodi:nodetypes="csszz"
       id="path3816"
       d="m 71.216507,950.41261 c -0.928815,-7.75971 -5.143453,-9.19726 -6.748949,-9.82477 -11.183772,-4.37119 -18.049168,5.10857 -6.549415,10.40199 2.682084,1.23458 7.283089,3.59501 12.494095,-1.34087 5.211006,-4.93589 0.986925,-6.60487 -3.128109,-6.56413"
       style="color:#000000;fill:none;stroke:#ffffff;stroke-width:1.99999988;stroke-linecap:round;stroke-linejoin:miter;stroke-miterlimit:10;stroke-opacity:1;stroke-dasharray:none;stroke-dashoffset:0;marker:none;visibility:visible;display:inline;overflow:visible;enable-background:accumulate"
       inkscape:label="round1" />
    <path
       style="color:#000000;fill:none;stroke:#ffffff;stroke-width:2;stroke-linecap:round;stroke-linejoin:miter;stroke-miterlimit:10;stroke-opacity:1;stroke-dasharray:none;stroke-dashoffset:0;marker:none;visibility:visible;display:inline;overflow:visible;enable-background:accumulate"
       d="m 44.266754,995.01695 c 2.456143,-3.5122 -6.224885,-7.16903 -8.01803,-8.28576 -10.476298,-6.5244 -20.728795,9.21724 -6.215911,14.74411 3.384834,1.289 10.393903,1.4408 13.768917,-0.6682 3.375027,-2.1091 0.86011,-7.34389 -3.224881,-8.5928"
       id="path3818"
       sodipodi:nodetypes="csszz"
       inkscape:label="round3" />
    <g
       id="g442"
       inkscape:label="arrow2">
      <path
         style="color:#000000;fill:none;stroke:#ffffff;stroke-width:2;stroke-linecap:round;stroke-linejoin:miter;stroke-miterlimit:10;stroke-opacity:1;stroke-dasharray:none;stroke-dashoffset:0;marker:none;visibility:visible;display:inline;overflow:visible;enable-background:accumulate"
         d="m 48.108515,72.062803 c 11.17703,-0.22722 16.68173,-5.55373 20.960666,-9.722719"
         id="path3820"
         transform="translate(0,924.36218)"
         sodipodi:nodetypes="cc"
         inkscape:label="tail" />
      <path
         style="color:#000000;fill:none;stroke:#ffffff;stroke-width:2;stroke-linecap:round;stroke-linejoin:miter;stroke-miterlimit:10;stroke-opacity:1;stroke-dasharray:none;stroke-dashoffset:0;marker:none;visibility:visible;display:inline;overflow:visible;enable-background:accumulate"
         d="m 58.967655,62.340084 10.85914,-2.020305 0.252538,11.869293"
         id="path3822"
         transform="translate(0,924.36218)"
         inkscape:label="head" />
    </g>
    <g
       id="g438"
       inkscape:label="arrow1">
      <path
         style="color:#000000;fill:none;stroke:#ffffff;stroke-width:2;stroke-linecap:round;stroke-linejoin:miter;stroke-miterlimit:10;stroke-opacity:1;stroke-dasharray:none;stroke-dashoffset:0;marker:none;visibility:visible;display:inline;overflow:visible;enable-background:accumulate"
         d="M 31.567267,57.920667 C 32.547663,46.403641 40.757542,37.457259 51.138972,28.626243"
         id="path3824"
         transform="translate(0,924.36218)"
         sodipodi:nodetypes="cc"
         inkscape:label="tail" />
      <path
         style="color:#000000;fill:none;stroke:#ffffff;stroke-width:2;stroke-linecap:round;stroke-linejoin:miter;stroke-miterlimit:10;stroke-opacity:1;stroke-dasharray:none;stroke-dashoffset:0;marker:none;visibility:visible;display:inline;overflow:visible;enable-background:accumulate"
         d="M 43.562829,27.868629 51.51778,27.74236 51.644049,39.106576"
         id="path3826"
         transform="translate(0,924.36218)"
         inkscape:label="head" />
    </g>
    <g
       id="g446"
       inkscape:label="arrow3">
      <path
         style="color:#000000;fill:none;stroke:#ffffff;stroke-width:2;stroke-linecap:round;stroke-linejoin:miter;stroke-miterlimit:10;stroke-opacity:1;stroke-dasharray:none;stroke-dashoffset:0;marker:none;visibility:visible;display:inline;overflow:visible;enable-background:accumulate"
         d="M 44.067905,101.10469 C 34.830717,97.553512 25.949741,89.882685 29.294423,81.406714"
         id="path3828"
         transform="translate(0,924.36218)"
         sodipodi:nodetypes="cc"
         inkscape:label="tail" />
      <path
         style="color:#000000;fill:none;stroke:#ffffff;stroke-width:2;stroke-linecap:round;stroke-linejoin:miter;stroke-miterlimit:10;stroke-opacity:1;stroke-dasharray:none;stroke-dashoffset:0;marker:none;visibility:visible;display:inline;overflow:visible;enable-background:accumulate"
         d="m 23.738585,86.836284 c 1.136422,-2.146575 1.808104,-3.781659 5.808377,-5.934647 2.370543,5.997781 3.261951,6.439723 6.881664,8.018087"
         id="path3830"
         transform="translate(0,924.36218)"
         sodipodi:nodetypes="ccc"
         inkscape:label="head" />
    </g>
    <path
       id="path3845"
       style="font-size:9.93807602px;font-style:normal;font-variant:normal;font-weight:normal;font-stretch:normal;fill:#ffffff;fill-opacity:1;stroke:none;font-family:Domestic Manners;-inkscape-font-specification:Domestic Manners"
       d="m 72.835152,969.52406 c 0.461085,-0.10236 0.899334,-0.024 1.314753,0.23493 0.417873,0.25517 0.678007,0.6133 0.780405,1.07437 0.140964,0.63478 0.01649,1.24566 -0.37343,1.83265 -0.389926,0.58698 -0.903854,0.95132 -1.54179,1.09298 -0.6032,0.13399 -1.141976,0.0134 -1.616328,-0.36182 -0.02317,-0.0743 -0.04278,-0.14791 -0.05891,-0.22055 -0.164114,-0.739 -0.03243,-1.44427 0.39505,-2.11581 -0.07715,-0.34739 9.75e-4,-0.67458 0.234357,-0.98159 0.223556,-0.29155 0.512192,-0.47659 0.865901,-0.55516 m 1.390385,1.38131 c -0.05261,-0.23686 -0.178544,-0.41601 -0.377833,-0.53744 -0.199995,-0.1246 -0.418417,-0.16059 -0.655275,-0.108 -0.173695,0.0386 -0.313018,0.12749 -0.417948,0.26679 0.125945,0.13441 0.203303,0.26637 0.23206,0.39584 0.04208,0.18949 -0.02602,0.40511 -0.204309,0.64685 -0.168109,0.21297 -0.334638,0.42557 -0.499584,0.63784 -0.167763,0.25929 -0.218677,0.50754 -0.152742,0.74475 l 0.02478,0.0889 c 0.45161,-0.10027 0.781469,-0.19669 0.98956,-0.28931 0.343893,-0.15259 0.606213,-0.3666 0.786963,-0.64202 0.269187,-0.41436 0.360651,-0.81576 0.27439,-1.20422 m -5.923359,-1.55382 c 0.466572,-0.0734 0.899083,0.0321 1.29754,0.31648 0.401143,0.28073 0.638433,0.65438 0.711873,1.12095 0.101095,0.64234 -0.06124,1.24427 -0.487014,1.80579 -0.42578,0.56152 -0.961433,0.89308 -1.606964,0.99468 -0.610382,0.0961 -1.140585,-0.0579 -1.590612,-0.46194 -0.01849,-0.0756 -0.03347,-0.15028 -0.04504,-0.22378 -0.117699,-0.7478 0.05772,-1.44348 0.526254,-2.08706 -0.05533,-0.35152 0.04305,-0.67321 0.295128,-0.96505 0.241307,-0.27705 0.540922,-0.44373 0.898842,-0.50007 m 1.30152,1.46534 c -0.03773,-0.23968 -0.152248,-0.42633 -0.343575,-0.55996 -0.191833,-0.13683 -0.407586,-0.18638 -0.647262,-0.14866 -0.175766,0.0277 -0.320361,0.10772 -0.433775,0.2402 0.117316,0.14201 0.186291,0.27852 0.206917,0.40955 0.03017,0.19174 -0.05124,0.40268 -0.244258,0.63283 -0.181066,0.20207 -0.360531,0.40388 -0.538396,0.60544 -0.18361,0.24832 -0.249909,0.49291 -0.198898,0.73377 l 0.01918,0.0903 c 0.456984,-0.0719 0.792216,-0.14757 1.005678,-0.22702 0.352741,-0.13084 0.627899,-0.32807 0.825477,-0.59168 0.294509,-0.39677 0.410832,-0.79169 0.348969,-1.18476 m -3.609174,-3.41764 c -0.186159,0.29457 -0.589219,0.49064 -1.209182,0.58822 -0.102267,0.0161 -0.24654,0.0358 -0.432975,0.058 -0.18691,0.0193 -0.317036,0.0352 -0.390549,0.0467 -0.466575,0.0734 -0.819071,0.20585 -1.057471,0.39732 l 0.296509,1.88387 c 0.850711,-0.44173 1.541311,-0.70435 2.071802,-0.78784 0.504917,-0.0795 1.006672,-0.0438 1.505264,0.10694 l 0.03697,0.23488 c -1.172179,0.23035 -2.396302,0.76524 -3.672372,1.60468 -0.02533,0.21359 -0.01893,0.53515 0.01921,0.96471 0.03731,0.40348 0.03909,0.70613 0.0054,0.90793 -0.05398,0.32288 -0.201192,0.60477 -0.441641,0.84565 l -0.501679,-0.19121 c 0.284477,-2.22912 0.277832,-4.2896 -0.01993,-6.18146 -0.02766,-0.17576 0.01285,-0.30331 0.121531,-0.38264 0.260513,0.0114 0.66585,-0.0245 1.216012,-0.10788 0.639604,-0.0976 1.079717,-0.15192 1.320231,-0.16356 0.481511,-0.0201 0.859137,0.0384 1.132874,0.17539"
       inkscape:label="text_foo" />
    <path
       id="path3855"
       style="font-style:normal;font-variant:normal;font-weight:normal;font-stretch:normal;font-size:9.93808px;font-family:'Domestic Manners';-inkscape-font-specification:'Domestic Manners';fill:#ffffff;fill-opacity:1;stroke:none"
       d="m 39.536585,992.69946 c -0.149142,0.25927 -0.324375,0.40474 -0.525696,0.43643 -0.0735,0.0116 -0.141538,0.006 -0.204082,-0.017 -0.09728,-0.11895 -0.225928,-0.21823 -0.385825,-0.29787 -0.173692,-0.084 -0.330844,-0.11494 -0.471453,-0.0928 -0.43782,0.0689 -0.739275,0.55683 -0.904365,1.46375 -0.134727,0.72531 -0.157839,1.36918 -0.0693,1.93163 -0.05673,0.0352 -0.110612,0.0567 -0.161742,0.0647 -0.262054,0.0412 -0.451765,-0.12375 -0.569142,-0.49499 -0.05524,-0.24674 -0.137406,-0.60223 -0.246414,-1.06648 -0.130783,-0.47719 -0.214786,-0.83403 -0.252008,-1.07052 -0.06388,-0.40585 -0.06771,-0.77367 -0.01156,-1.10345 0.369631,0.0597 0.564007,0.1503 0.58312,0.27173 0.007,0.0447 0.01143,0.11119 0.01177,0.19956 8.46e-4,0.0883 0.0047,0.15481 0.01177,0.19954 0.0166,0.10547 0.06193,0.18512 0.135907,0.23897 0.377488,-0.51462 0.582886,-0.79093 0.616203,-0.82893 0.278331,-0.31234 0.561303,-0.49114 0.848911,-0.53642 0.278029,-0.0437 0.564411,0.0176 0.859158,0.18408 0.02534,0.0157 0.270339,0.18833 0.734868,0.51802 m -4.938894,-0.48017 c 0.05533,0.35153 0.02808,0.86506 -0.08173,1.54059 -0.11219,0.70211 -0.150358,1.219 -0.114534,1.55067 0.102694,0.11156 0.224272,0.1661 0.364708,0.16365 0.201645,-0.009 0.330308,-0.003 0.385978,0.0179 0.0751,0.10279 0.120943,0.20692 0.137641,0.31236 0.0347,0.22051 -0.126661,0.53737 -0.484071,0.95059 -0.612934,0.14233 -0.956152,0.21923 -1.029647,0.23079 -0.43143,0.0679 -0.818651,0.0421 -1.161689,-0.0775 -0.423571,-0.15275 -0.666797,-0.42885 -0.729671,-0.82833 -0.04778,-0.30358 0.05444,-0.58002 0.306666,-0.82932 0.226481,-0.22559 0.497914,-0.36327 0.814289,-0.41307 0.230088,-0.0362 0.450142,-0.0217 0.660175,0.0435 0.229508,-0.5601 0.315435,-1.21059 0.257773,-1.95146 -0.244922,0.0876 -0.615628,0.32286 -1.112113,0.70557 -0.453594,0.3432 -0.838665,0.54954 -1.155213,0.61902 -0.241275,-0.13887 -0.384039,-0.34892 -0.428303,-0.63014 -0.01107,-0.0703 -0.012,-0.14057 -0.0037,-0.21065 0.211305,-0.13477 0.7059,-0.42549 1.483795,-0.87214 0.844176,-0.48328 1.301417,-0.73044 1.37172,-0.74152 0.294012,-0.0463 0.466663,0.0936 0.517967,0.41953 m -0.558851,3.75255 c -0.126796,-0.0357 -0.255556,-0.17756 -0.386278,-0.42552 -0.140076,-0.0369 -0.28841,-0.043 -0.444993,-0.0183 -0.357923,0.0563 -0.508356,0.22412 -0.451312,0.50332 l 0.01701,0.0759 c 0.182747,0.14153 0.422722,0.18891 0.719924,0.14214 0.24607,-0.0387 0.427999,-0.13124 0.545804,-0.27749 m -3.552519,-3.99961 c 0.110144,0.69986 -0.110261,1.22415 -0.661225,1.57285 0.276745,0.15622 0.528079,0.359 0.753996,0.60836 0.265418,0.29225 0.418745,0.56942 0.459999,0.83146 0.09254,0.58801 -0.171599,1.12573 -0.792424,1.61315 -0.527124,0.41701 -1.108658,0.67555 -1.744599,0.77564 -0.108653,0.0171 -0.272804,0.0249 -0.492453,0.0235 -0.216458,-0.002 -0.377409,0.005 -0.48287,0.0219 -0.345132,0.0543 -0.533606,0.28211 -0.565424,0.68338 -0.115367,-0.005 -0.227347,-0.0608 -0.335945,-0.16818 -0.105351,-0.10786 -0.167401,-0.2209 -0.186012,-0.33915 -0.04879,-0.30998 3e-6,-1.38363 0.146378,-3.22095 0.112017,-1.3898 0.105153,-2.48416 -0.0206,-3.2831 -0.04828,-0.30678 -0.115556,-0.59912 -0.201911,-0.877 1.249519,-0.19666 2.192992,-0.13228 2.830416,0.19312 0.758644,0.3882 1.18952,0.90986 1.292641,1.56497 m -0.69534,0.1389 c -0.09003,-0.57203 -0.429824,-0.96229 -1.019371,-1.1708 -0.461242,-0.16319 -1.007904,-0.20322 -1.639971,-0.12013 0.09418,0.28647 0.162956,0.56711 0.206211,0.84194 0.04125,0.26206 0.05975,0.80604 0.05545,1.63199 0.293447,0.075 0.596754,0.0878 0.909938,0.0385 0.383479,-0.0604 0.718063,-0.18176 1.003725,-0.3643 0.37499,-0.23913 0.536334,-0.52488 0.484023,-0.85724 m -2.458314,4.4494 0.02875,-0.005 c 0.123693,-0.0255 0.30636,-0.0302 0.5482,-0.0126 0.241829,0.0176 0.420271,0.0174 0.535325,-7.4e-4 0.386679,-0.0609 0.775605,-0.25307 1.166796,-0.57662 0.44047,-0.36407 0.632791,-0.72347 0.57697,-1.07819 -0.05081,-0.32277 -0.25807,-0.54722 -0.621778,-0.67338 -0.294771,-0.10423 -0.616324,-0.12895 -0.964656,-0.0741 -0.06707,0.0105 -0.26241,0.0494 -0.585833,0.1168 -0.241316,0.0481 -0.438167,0.0771 -0.590379,0.0879 l -0.09342,2.21542"
       inkscape:label="text_bar" />
  </g>
</svg>
