<?xml version="1.0" encoding="UTF-8" standalone="no"?>
<!-- Created with Inkscape (http://www.inkscape.org/) -->

<svg
   width="128"
   height="128"
   id="svg2"
   sodipodi:version="0.32"
   inkscape:version="1.3.2 (1:1.3.2+202311252150+091e20ef0f)"
   version="1.0"
   sodipodi:docname="link.svg"
   inkscape:output_extension="org.inkscape.output.svg.inkscape"
   inkscape:export-filename="link_48.png"
   inkscape:export-xdpi="36"
   inkscape:export-ydpi="36"
   xmlns:inkscape="http://www.inkscape.org/namespaces/inkscape"
   xmlns:sodipodi="http://sodipodi.sourceforge.net/DTD/sodipodi-0.dtd"
   xmlns:xlink="http://www.w3.org/1999/xlink"
   xmlns="http://www.w3.org/2000/svg"
   xmlns:svg="http://www.w3.org/2000/svg"
   xmlns:rdf="http://www.w3.org/1999/02/22-rdf-syntax-ns#"
   xmlns:cc="http://creativecommons.org/ns#"
   xmlns:dc="http://purl.org/dc/elements/1.1/">
  <defs
     id="defs4">
    <linearGradient
       id="linearGradient3919">
      <stop
         style="stop-color:#b1b9c1;stop-opacity:1"
         offset="0"
         id="stop3921" />
      <stop
         style="stop-color:#9aa4ae;stop-opacity:1"
         offset="1"
         id="stop3923" />
    </linearGradient>
    <filter
       inkscape:collect="always"
       id="filter3841"
       x="-0.029188034"
       y="-0.035561454"
       width="1.0583761"
       height="1.0711229">
      <feGaussianBlur
         inkscape:collect="always"
         stdDeviation="2.5948922"
         id="feGaussianBlur3843" />
    </filter>
    <linearGradient
       inkscape:collect="always"
       xlink:href="#linearGradient3919"
       id="linearGradient3925"
       x1="25.817791"
       y1="56.437923"
       x2="111.13319"
       y2="56.437923"
       gradientUnits="userSpaceOnUse" />
    <filter
       inkscape:collect="always"
       id="filter3931"
       x="-0.032017995"
       y="-0.032104253"
       width="1.064036"
       height="1.0642085">
      <feGaussianBlur
         inkscape:collect="always"
         stdDeviation="1.030785"
         id="feGaussianBlur3933" />
    </filter>
    <filter
       color-interpolation-filters="sRGB"
       inkscape:collect="always"
       id="filter3931-3"
       x="-0.023009697"
       y="-0.024686102"
       width="1.0460194"
       height="1.0493722">
      <feGaussianBlur
         inkscape:collect="always"
         stdDeviation="1.030785"
         id="feGaussianBlur3933-2" />
    </filter>
    <filter
       color-interpolation-filters="sRGB"
       inkscape:collect="always"
       id="filter3931-2"
       x="-0.043594087"
       y="-0.047392502"
       width="1.0871882"
       height="1.094785">
      <feGaussianBlur
         inkscape:collect="always"
         stdDeviation="1.030785"
         id="feGaussianBlur3933-7" />
    </filter>
    <linearGradient
       inkscape:collect="always"
       xlink:href="#linearGradient3919"
       id="linearGradient4080"
       x1="86.403908"
       y1="15.295419"
       x2="150.51785"
       y2="15.295419"
       gradientUnits="userSpaceOnUse" />
    <linearGradient
       inkscape:collect="always"
       xlink:href="#linearGradient3919"
       id="linearGradient4088"
       x1="-62.850998"
       y1="113.54163"
       x2="59.196461"
       y2="113.54163"
       gradientUnits="userSpaceOnUse" />
    <filter
       inkscape:collect="always"
       id="filter4103"
       x="-0.012487243"
       y="-0.013249625"
       width="1.0249745"
       height="1.0264993">
      <feGaussianBlur
         inkscape:collect="always"
         stdDeviation="0.41314347"
         id="feGaussianBlur4105" />
    </filter>
    <filter
       color-interpolation-filters="sRGB"
       inkscape:collect="always"
       id="filter4103-9"
       x="-0.016554655"
       y="-0.019315977"
       width="1.0331093"
       height="1.038632">
      <feGaussianBlur
         inkscape:collect="always"
         stdDeviation="0.41314347"
         id="feGaussianBlur4105-8" />
    </filter>
    <filter
       color-interpolation-filters="sRGB"
       inkscape:collect="always"
       id="filter4103-4"
       x="-0.0088664352"
       y="-0.010559878"
       width="1.0177329"
       height="1.0211198">
      <feGaussianBlur
         inkscape:collect="always"
         stdDeviation="0.41314347"
         id="feGaussianBlur4105-5" />
    </filter>
    <linearGradient
       inkscape:collect="always"
       xlink:href="#linearGradient3919"
       id="linearGradient4219"
       gradientUnits="userSpaceOnUse"
       x1="25.817791"
       y1="56.437923"
       x2="111.13319"
       y2="56.437923" />
    <linearGradient
       inkscape:collect="always"
       xlink:href="#linearGradient3919"
       id="linearGradient4222"
       gradientUnits="userSpaceOnUse"
       x1="25.817791"
       y1="56.437923"
       x2="111.13319"
       y2="56.437923"
       gradientTransform="translate(5.0507627,-4.0406102)" />
    <linearGradient
       inkscape:collect="always"
       xlink:href="#linearGradient3919"
       id="linearGradient4237"
       gradientUnits="userSpaceOnUse"
       x1="-62.850998"
       y1="113.54163"
       x2="59.196461"
       y2="113.54163" />
    <linearGradient
       inkscape:collect="always"
       xlink:href="#linearGradient3919"
       id="linearGradient4240"
       gradientUnits="userSpaceOnUse"
       x1="-62.850998"
       y1="113.54163"
       x2="59.196461"
       y2="113.54163" />
    <filter
       inkscape:collect="always"
       id="filter4248"
       x="-0.034240435"
       y="-0.034331114"
       width="1.0684809"
       height="1.0686622">
      <feGaussianBlur
         inkscape:collect="always"
         stdDeviation="1.6879464"
         id="feGaussianBlur4250" />
    </filter>
    <linearGradient
       inkscape:collect="always"
       xlink:href="#linearGradient3919"
       id="linearGradient4279"
       gradientUnits="userSpaceOnUse"
       x1="25.817791"
       y1="56.437923"
       x2="111.13319"
       y2="56.437923" />
    <linearGradient
       inkscape:collect="always"
       xlink:href="#linearGradient3919"
       id="linearGradient4281"
       gradientUnits="userSpaceOnUse"
       x1="86.403908"
       y1="15.295419"
       x2="150.51785"
       y2="15.295419" />
    <linearGradient
       inkscape:collect="always"
       xlink:href="#linearGradient3919"
       id="linearGradient4283"
       gradientUnits="userSpaceOnUse"
       x1="-62.850998"
       y1="113.54163"
       x2="59.196461"
       y2="113.54163" />
    <linearGradient
       inkscape:collect="always"
       xlink:href="#linearGradient3919"
       id="linearGradient4293"
       gradientUnits="userSpaceOnUse"
       x1="-62.850998"
       y1="113.54163"
       x2="59.196461"
       y2="113.54163" />
    <linearGradient
       inkscape:collect="always"
       xlink:href="#linearGradient3919"
       id="linearGradient4296"
       gradientUnits="userSpaceOnUse"
       x1="86.403908"
       y1="15.295419"
       x2="150.51785"
       y2="15.295419" />
    <linearGradient
       inkscape:collect="always"
       xlink:href="#linearGradient3919"
       id="linearGradient4302"
       gradientUnits="userSpaceOnUse"
       x1="25.817791"
       y1="56.437923"
       x2="111.13319"
       y2="56.437923" />
    <mask
       maskUnits="userSpaceOnUse"
       id="mask4322">
      <path
         style="color:#000000;fill:#ffffff;fill-opacity:1;fill-rule:nonzero;stroke:none;stroke-width:1;marker:none;visibility:visible;display:inline;overflow:visible;filter:url(#filter4248);enable-background:accumulate"
         d="M 26.25,5.03125 C 14.513827,5.03125 5.0625,12.697301 5.0625,22.25 l 0,51.0625 c 2.3315516,-1.233715 4.6661049,-2.454219 7.03125,-3.625 l 0,14.1875 C 9.712318,85.303783 7.380237,86.809076 5.0625,88.34375 l 0,17.4375 c 0,6.6988 4.6768375,12.48624 11.5,15.34375 2.427321,-2.04776 4.834228,-4.12299 7.21875,-6.21875 2.162306,0.70948 4.518328,1.125 7,1.125 l 12.03125,0 c -1.985723,2.08187 -4.019129,4.13545 -6.03125,6.21875 -0.255869,0.25154 -0.524121,0.52802 -0.78125,0.78125 l 66.1875,0 c 11.73617,0 21.1875,-7.6973 21.1875,-17.25 l 0,-71.34375 c -1.01618,0.841344 -2.03867,1.669524 -3.0625,2.4375 -1.24767,1.023806 -2.58201,1.861467 -3.96875,2.5625 l 0,-11.09375 c 2.42288,-1.591016 4.7453,-3.316556 7.03125,-5.09375 l 0,-1 c 0,-6.034406 -3.76445,-11.295951 -9.5,-14.375 -0.11647,0.081091 -0.22722,0.1690859 -0.34375,0.25 -2.51715,1.8143189 -5.06172,3.622576 -7.5625,5.46875 -2.49549,-1.00372 -5.29927,-1.5625 -8.28125,-1.5625 l -3.21875,0 c 2.0349,-1.577528 4.219941,-2.9725861 6.28125,-4.5 1.17656,-0.8249139 2.37069,-1.6322667 3.5625,-2.4375 -0.6941,-0.055396 -1.41243,-0.0625 -2.125,-0.0625 l -75.9375,0 z"
         id="path4324" />
    </mask>
  </defs>
  <sodipodi:namedview
     id="base"
     pagecolor="#ffffff"
     bordercolor="#666666"
     borderopacity="1.0"
     inkscape:pageopacity="0.0"
     inkscape:pageshadow="2"
     inkscape:zoom="5.6"
     inkscape:cx="31.071429"
     inkscape:cy="62.946429"
     inkscape:document-units="px"
     inkscape:current-layer="svg2"
     showgrid="false"
     inkscape:window-width="1868"
     inkscape:window-height="1016"
     inkscape:window-x="52"
     inkscape:window-y="27"
     inkscape:window-maximized="1"
     inkscape:snap-global="false"
     showguides="true"
     inkscape:guide-bbox="true"
     inkscape:showpageshadow="2"
     inkscape:pagecheckerboard="0"
     inkscape:deskcolor="#d1d1d1" />
  <metadata
     id="metadata7">
    <rdf:RDF>
      <cc:Work
         rdf:about="">
        <dc:format>image/svg+xml</dc:format>
        <dc:type
           rdf:resource="http://purl.org/dc/dcmitype/StillImage" />
        <cc:license
           rdf:resource="http://creativecommons.org/licenses/by-sa/4.0/" />
      </cc:Work>
      <cc:License
         rdf:about="http://creativecommons.org/licenses/by-sa/4.0/">
        <cc:permits
           rdf:resource="http://creativecommons.org/ns#Reproduction" />
        <cc:permits
           rdf:resource="http://creativecommons.org/ns#Distribution" />
        <cc:requires
           rdf:resource="http://creativecommons.org/ns#Notice" />
        <cc:requires
           rdf:resource="http://creativecommons.org/ns#Attribution" />
        <cc:permits
           rdf:resource="http://creativecommons.org/ns#DerivativeWorks" />
        <cc:requires
           rdf:resource="http://creativecommons.org/ns#ShareAlike" />
      </cc:License>
    </rdf:RDF>
  </metadata>
  <g
     id="g4305"
     mask="url(#mask4322)"
     style="display:inline"
     inkscape:label="main">
    <path
       style="color:#000000;font-style:normal;font-variant:normal;font-weight:normal;font-stretch:normal;font-size:medium;line-height:normal;font-family:AlArabiya;-inkscape-font-specification:AlArabiya;text-indent:0;text-align:start;text-decoration:none;text-decoration-line:none;letter-spacing:normal;word-spacing:normal;text-transform:none;writing-mode:lr-tb;direction:ltr;text-anchor:start;display:inline;overflow:visible;visibility:visible;fill:#444c53;fill-opacity:0.104167;stroke:none;stroke-width:4;marker:none;filter:url(#filter3841);enable-background:accumulate"
       d="m 89.921479,37.143398 c 0.06973,0.91601 0.212872,1.82188 0.46875,2.71875 1.266953,4.43388 5.838125,8.33793 10.031241,9.8125 0.92737,0.32978 1.86449,0.58324 2.8125,0.8125 -1.21593,2.11819 -2.83132,4.06505 -4.374995,5.875 -6.014339,6.69184 -13.100868,12.31235 -19.937496,18.125 -5.717668,4.69023 -11.423706,9.40228 -17.3125,13.875 -0.248211,-0.8093 -0.506835,-1.62641 -0.84375,-2.40625 -2.866906,-6.00047 -8.142972,-11.03848 -14.5625,-13 -0.43743,-0.12696 -0.904214,-0.21199 -1.34375,-0.3125 1.569095,-3.08013 3.962506,-5.798 6.5,-8.09375 9.409062,-8.65607 20.11068,-15.76491 30.78125,-22.75 1.8716,-1.2062 3.734961,-2.41665 5.625,-3.59375 0.673414,-0.39585 1.419418,-0.72606 2.15625,-1.0625 z m -60.375,49.09375 c 0.712327,6.04874 4.297407,13.139827 9.625,16.312492 2.433627,1.44791 5.1376,2.26215 7.90625,2.59375 -1.137296,1.76936 -2.535732,3.39214 -3.96875,4.8125 -2.205442,2.0768 -4.418968,4.14509 -6.65625,6.1875 -12.897593,11.60672 -25.970216,23.19824 -40.6250002,32.5625 -6.5078578,4.23515 -14.3628838,7.63863 -22.2499998,5.8125 -5.716023,-1.17264 -11.777709,-4.8957 -13.21875,-10.90625 -0.955922,-5.85043 2.149181,-11.69635 6.34375,-15.59375 8.360207,-6.59278 17.023729,-12.82956 25.6562498,-19.0625 10.0213387,-6.9703 19.8905402,-14.293202 30.7812502,-19.874992 2.057771,-0.98804 4.190002,-2.01977 6.40625,-2.84375 z M 141.92147,-1.8878517 c -3.44241,-0.0636 -6.87623,1.09659002 -10,2.46875002 -9.70255,4.55600998 -18.88769,10.19592968 -27.65625,16.34374968 -3.26067,2.41613 -6.842011,4.50706 -9.624991,7.5 -0.650456,0.68426 -1.21363,1.46371 -1.75,2.25 -0.56283,0.10392 -1.137746,0.22206 -1.6875,0.375 -7.01815,1.92773 -13.076191,5.62245 -19.34375,9.125 -9.616861,5.70612 -20.57658,11.93348 -29.375,18.875 -6.252453,4.505 -10.233391,10.96327 -12.03125,18.125 -3.392683,0.86653 -6.738739,2.11997 -9.875,3.5 -18.4573025,8.68196 -35.850735,19.40968 -52.53125,31.124992 -6.202836,4.60419 -12.987146,8.60915 -18.28125,14.3125 -7.257305,7.64767 -11.037833,19.06913 -8.09375,29.40625 2.410145,8.44924 11.054604,15.87754 19.03125,18.6875 15.069828,5.36825 31.9805648,3.84226 44.5624998,-6.5 12.1884052,-9.15836 24.1817962,-21.39659 35.0312502,-32.0625 6.786591,-7.02665 13.740869,-13.71796 18.71875,-22.28125 1.320812,-2.25511 2.318951,-4.71976 2.9375,-7.28125 4.873024,-2.688105 8.894466,-6.609572 13.21875,-10.062492 11.46,-9.65384 22.359437,-20.04372 31.999991,-31.53125 2.28665,-2.86808 4.46756,-6.05745 5.875,-9.5 3.87404,-0.57709 7.59435,-2.10366 10.78125,-4.71875 6.40715,-4.806 12.70295,-11.24662 18.40625,-16.84375 3.56754,-3.68736 7.22701,-7.19377 9.84375,-11.6875 2.1413,-3.64967 2.63107,-8.3679701 0.9375,-12.2812497 -1.50707,-3.14885 -4.28166,-5.81440998 -7.65625,-6.84375 -1.13103,-0.3277 -2.29003,-0.47878 -3.4375,-0.5 z m -1.71875,6.65625 c 0.80926,-0.0554 1.61904,-0.008 2.4375,0.1875 2.30082,0.54736 4.02919,2.53038 4.5,4.8124996 0.69634,3.1604901 -1.25395,6.1516501 -3.40625,8.2812501 -1.15933,1.08984 -2.32391,2.17821 -3.5,3.25 -6.77994,6.09083 -13.6401,12.17969 -21.34375,17.09375 -1.39398,0.9056 -2.91056,1.74248 -4.5,2.34375 -0.76192,-4.08134 -3.10572,-7.85539 -6.25,-10.53125 -1.41305,-1.11298 -2.98052,-1.99161 -4.65625,-2.625 0.0233,-0.022 0.0391,-0.0408 0.0625,-0.0625 4.39476,-3.45967 8.96209,-6.72916 13.5,-10 5.26797,-3.65778 10.46253,-7.50836 16.1875,-10.4374997 2.16345,-1.03698 4.54096,-2.14626 6.96875,-2.3125 z"
       id="path3819"
       sodipodi:nodetypes="cscccccccccccccsccccccccccccccccccccccccccccccccccccccsccccccccccc" />
    <path
       sodipodi:nodetypes="cscccccccccccccsccccccccccccccccccccccccccccccccccccccsccccccccccc"
       id="path3783"
       d="m 86.40625,27.75 c 0.06973,0.91601 0.212872,1.82188 0.46875,2.71875 1.266953,4.43388 5.838125,8.33793 10.03125,9.8125 0.927364,0.32978 1.864487,0.58324 2.8125,0.8125 -1.215926,2.11819 -2.831324,4.06505 -4.375,5.875 -6.014343,6.69184 -13.100872,12.31235 -19.9375,18.125 -5.717668,4.69023 -11.423706,9.40228 -17.3125,13.875 -0.248211,-0.8093 -0.506835,-1.62641 -0.84375,-2.40625 -2.866906,-6.00047 -8.142972,-11.03848 -14.5625,-13 -0.43743,-0.12696 -0.904214,-0.21199 -1.34375,-0.3125 1.569095,-3.08013 3.962506,-5.798 6.5,-8.09375 9.409062,-8.65607 20.11068,-15.76491 30.78125,-22.75 1.8716,-1.2062 3.734961,-2.41665 5.625,-3.59375 0.673414,-0.39585 1.419418,-0.72606 2.15625,-1.0625 z m -60.375,49.09375 c 0.712327,6.04874 4.297407,13.13983 9.625,16.3125 2.433627,1.44791 5.1376,2.26215 7.90625,2.59375 -1.137296,1.76936 -2.535732,3.39214 -3.96875,4.8125 -2.205442,2.0768 -4.418968,4.14509 -6.65625,6.1875 -12.897593,11.60672 -25.9702159,23.19824 -40.625,32.5625 -6.507858,4.23515 -14.362884,7.63863 -22.25,5.8125 -5.716023,-1.17264 -11.777709,-4.8957 -13.21875,-10.90625 -0.955922,-5.85043 2.149181,-11.69635 6.34375,-15.59375 8.360207,-6.59278 17.023729,-12.82956 25.65625,-19.0625 10.0213387,-6.9703 19.8905399,-14.29321 30.78125,-19.875 2.057771,-0.98804 4.190002,-2.01977 6.40625,-2.84375 z m 112.375,-88.125 c -3.44241,-0.0636 -6.87623,1.09659 -10,2.46875 -9.70255,4.55601 -18.88769,10.19593 -27.65625,16.34375 -3.260675,2.41613 -6.84202,4.50706 -9.625,7.5 -0.650456,0.68426 -1.21363,1.46371 -1.75,2.25 -0.56283,0.10392 -1.137746,0.22206 -1.6875,0.375 -7.01815,1.92773 -13.076191,5.62245 -19.34375,9.125 -9.616861,5.70612 -20.57658,11.93348 -29.375,18.875 -6.252453,4.505 -10.233391,10.96327 -12.03125,18.125 -3.392683,0.86653 -6.738739,2.11997 -9.875,3.5 -18.4573023,8.68196 -35.850735,19.40968 -52.53125,31.125 -6.202836,4.60419 -12.987146,8.60915 -18.28125,14.3125 -7.257305,7.64767 -11.037833,19.06913 -8.09375,29.40625 2.410145,8.44924 11.054604,15.87754 19.03125,18.6875 15.069828,5.36825 31.980565,3.84226 44.5625,-6.5 12.188405,-9.15836 24.181796,-21.39659 35.03125,-32.0625 6.786591,-7.02665 13.740869,-13.71796 18.71875,-22.28125 1.320812,-2.25511 2.318951,-4.71976 2.9375,-7.28125 4.873024,-2.68811 8.894466,-6.60958 13.21875,-10.0625 11.46,-9.65384 22.359437,-20.04372 32,-31.53125 2.28665,-2.86808 4.46756,-6.05745 5.875,-9.5 3.87404,-0.57709 7.59435,-2.10366 10.78125,-4.71875 6.40715,-4.806 12.70295,-11.24662 18.40625,-16.84375 3.56754,-3.68736 7.22701,-7.19377 9.84375,-11.6875 2.1413,-3.64967 2.63107,-8.36797 0.9375,-12.28125 -1.50707,-3.14885 -4.28166,-5.81441 -7.65625,-6.84375 -1.13103,-0.3277 -2.29003,-0.47878 -3.4375,-0.5 z M 136.6875,-4.625 c 0.80926,-0.0554 1.61904,-0.008 2.4375,0.1875 2.30082,0.54736 4.02919,2.53038 4.5,4.8125 0.69634,3.16049 -1.25395,6.15165 -3.40625,8.28125 -1.15933,1.08984 -2.32391,2.17821 -3.5,3.25 C 129.93881,17.99708 123.07865,24.08594 115.375,29 c -1.39398,0.9056 -2.91056,1.74248 -4.5,2.34375 -0.76192,-4.08134 -3.10572,-7.85539 -6.25,-10.53125 -1.41305,-1.11298 -2.98052,-1.99161 -4.65625,-2.625 0.02331,-0.022 0.03906,-0.0408 0.0625,-0.0625 4.39476,-3.45967 8.96209,-6.72916 13.5,-10 5.26797,-3.65778 10.46253,-7.50836 16.1875,-10.4375 2.16345,-1.03698 4.54096,-2.14626 6.96875,-2.3125 z"
       style="color:#000000;font-style:normal;font-variant:normal;font-weight:normal;font-stretch:normal;font-size:medium;line-height:normal;font-family:AlArabiya;-inkscape-font-specification:AlArabiya;text-indent:0;text-align:start;text-decoration:none;text-decoration-line:none;letter-spacing:normal;word-spacing:normal;text-transform:none;writing-mode:lr-tb;direction:ltr;text-anchor:start;display:inline;overflow:visible;visibility:visible;fill:none;stroke:#353b42;stroke-width:4;stroke-miterlimit:4;stroke-dasharray:none;stroke-opacity:1;marker:none;enable-background:accumulate" />
    <path
       sodipodi:nodetypes="ccsccccccccccccccccccc"
       id="rect2928"
       d="m 84.26096,28.825343 c 3.652679,-2.147144 8.406808,-3.700002 12.434093,-1.625382 2.919474,1.454765 4.991317,4.513332 4.907847,7.820942 -0.11646,4.707031 -3.364019,8.538123 -6.268241,11.943303 -6.014343,6.691844 -13.079382,12.322628 -19.91601,18.135275 -6.051519,4.964088 -12.091328,9.957347 -18.3471,14.660156 -3.557405,2.248625 -8.311302,3.347644 -12.285715,1.567543 -3.996781,-2.155086 -5.487767,-7.132862 -5.244155,-11.416811 0.188374,-5.950243 4.084017,-10.917443 8.316836,-14.747003 9.409062,-8.656066 20.089382,-15.777792 30.759952,-22.762882 1.8716,-1.206196 3.752454,-2.398041 5.642493,-3.575141 z M 38.972962,45.644414 c -9.713244,6.99856 -13.994235,18.72757 -13.019807,30.450129 0.493391,6.198964 4.162661,13.749376 9.708676,17.052123 6.786091,4.037452 15.599847,3.47716 22.397037,-0.243182 5.04686,-2.690525 9.169837,-6.736701 13.607282,-10.279983 11.46,-9.653836 22.360827,-20.038721 32.00139,-31.526246 3.96764,-4.976505 7.61421,-10.898185 7.46099,-17.486033 -0.1841,-4.932445 -2.78288,-9.636289 -6.50402,-12.803072 -4.688743,-3.693046 -11.227981,-4.745915 -16.933656,-3.158576 -7.01815,1.92773 -13.085643,5.615182 -19.353202,9.117728 -9.616861,5.706117 -20.56627,11.935588 -29.36469,18.877112 z"
       style="color:#000000;font-style:normal;font-variant:normal;font-weight:normal;font-stretch:normal;font-size:medium;line-height:normal;font-family:AlArabiya;-inkscape-font-specification:AlArabiya;text-indent:0;text-align:start;text-decoration:none;text-decoration-line:none;letter-spacing:normal;word-spacing:normal;text-transform:none;writing-mode:lr-tb;direction:ltr;text-anchor:start;display:inline;overflow:visible;visibility:visible;fill:url(#linearGradient4302);fill-opacity:1;stroke:none;stroke-width:1;marker:none;enable-background:accumulate" />
    <path
       sodipodi:nodetypes="ccccccccccccccccsscccccccccc"
       id="path3851"
       d="m 93.008929,18.142855 c -0.631438,-0.0066 -1.24663,0.01 -1.875,0.0625 2.430475,0.618777 5.943737,1.220922 7.918306,2.776174 3.721135,3.166783 5.294915,7.148524 5.479015,12.080969 0.15322,6.587848 -3.50112,12.523495 -7.46875,17.5 -9.640563,11.487525 -20.54,21.877414 -32,31.53125 -1.149574,0.91793 -2.275593,1.859256 -3.40625,2.8125 C 61.62313,82.289594 61.215442,79.692444 60.375,77.21875 59.275277,78.071335 58.174594,78.913978 57.0625,79.75 53.643088,81.223118 46.964321,85.179801 45.03125,81 39.456106,79.602528 38.466889,74.253334 38.710501,69.969385 38.898875,64.019142 42.853317,58.607003 47.086136,54.777443 58.245775,44.737476 71.054256,36.273011 83.744924,28.307424 c 3.008453,-1.936112 6.399823,-2.657503 8.939403,-2.6875 C 87.694866,24.443488 82.116595,26.033014 77.65625,28.28125 64.863896,36.146042 52.596396,44.78319 41.25,54.625 c -4.232819,3.82956 -8.061457,8.80253 -8.3125,14.75 -0.180943,4.286722 1.990246,12.027189 5.8125,14.4375 1.832235,1.155406 5.225232,2.676535 7.53125,2.21875 2.948797,-4.208033 1.135488,4.687475 0.158788,7.397367 -1.451341,1.078535 -5.729543,0.67455 -8.313611,0.08423 6.455012,3.373316 14.113546,1.053147 19.57893,-1.454813 1.020557,-0.55214 1.997267,-1.179532 2.96875,-1.8125 3.755082,-2.520775 6.690774,-5.290968 10.223214,-8.111607 11.46,-9.653836 22.40408,-19.909797 32.044639,-31.397322 3.96764,-4.976505 7.39876,-10.38983 7.24554,-16.977678 -0.1841,-4.932445 -2.01993,-8.574289 -5.74107,-11.741072 -3.22351,-2.538969 -7.336882,-3.831833 -11.437501,-3.875 z"
       style="color:#000000;font-style:normal;font-variant:normal;font-weight:normal;font-stretch:normal;font-size:medium;line-height:normal;font-family:AlArabiya;-inkscape-font-specification:AlArabiya;text-indent:0;text-align:start;text-decoration:none;text-decoration-line:none;letter-spacing:normal;word-spacing:normal;text-transform:none;writing-mode:lr-tb;direction:ltr;text-anchor:start;display:inline;overflow:visible;visibility:visible;fill:#4e5861;fill-opacity:0.6;stroke:none;stroke-width:1;marker:none;filter:url(#filter3931);enable-background:accumulate" />
    <path
       sodipodi:nodetypes="cccccccccccccscccccccccsc"
       id="path4090"
       d="m 93.1875,17.696429 c -1.863918,-0.01962 -3.716977,0.311992 -5.5,0.808035 -7.01815,1.92773 -12.540477,5.220669 -18.808036,8.723215 C 59.262603,32.933796 48.213599,39.339726 39.415179,46.28125 29.701935,53.27981 25.976465,64.728334 26.950893,76.450893 27.366368,81.670923 31.365158,90.612938 38.1875,92.53125 32.963933,89.685839 29.027041,82.661367 28.683036,78.339286 27.708608,66.616727 31.286756,54.77981 41,47.78125 c 8.79842,-6.941524 19.726889,-13.168883 29.34375,-18.875 6.267559,-3.502546 12.35685,-7.19727 19.375,-9.125 6.519614,-1.787318 13.02656,-0.2535 16.48661,4.013393 -3.36128,-4.509131 -7.67364,-5.887234 -13.01786,-6.098214 z m 7.03125,12.616071 c 0.91064,1.380506 1.41771,3.026375 1.375,4.71875 -0.11646,4.707031 -3.345778,8.53232 -6.25,11.9375 -6.014343,6.691844 -13.100872,12.312353 -19.9375,18.125 -6.051519,4.964088 -12.087978,9.953441 -18.34375,14.65625 -3.557405,2.248625 -8.306837,3.342601 -12.28125,1.5625 -0.35194,-0.189768 -0.686392,-0.362609 -1,-0.59375 0.783116,1.117455 1.782256,2.076536 3.03125,2.75 3.974413,1.780101 8.723845,0.686125 12.28125,-1.5625 C 65.349522,77.203441 71.385981,72.214088 77.4375,67.25 84.274128,61.437353 91.329407,55.816844 97.34375,49.125 c 2.90422,-3.40518 6.16479,-7.261719 6.28125,-11.96875 0.0682,-2.702559 -1.30996,-5.212718 -3.40625,-6.84375 z"
       style="color:#000000;font-style:normal;font-variant:normal;font-weight:normal;font-stretch:normal;font-size:medium;line-height:normal;font-family:AlArabiya;-inkscape-font-specification:AlArabiya;text-indent:0;text-align:start;text-decoration:none;text-decoration-line:none;letter-spacing:normal;word-spacing:normal;text-transform:none;writing-mode:lr-tb;direction:ltr;text-anchor:start;display:inline;overflow:visible;visibility:visible;fill:#f6f7f8;fill-opacity:0.790698;stroke:none;stroke-width:1;marker:none;filter:url(#filter4103);enable-background:accumulate" />
    <path
       style="color:#000000;font-style:normal;font-variant:normal;font-weight:normal;font-stretch:normal;font-size:medium;line-height:normal;font-family:AlArabiya;-inkscape-font-specification:AlArabiya;text-indent:0;text-align:start;text-decoration:none;text-decoration-line:none;letter-spacing:normal;word-spacing:normal;text-transform:none;writing-mode:lr-tb;direction:ltr;text-anchor:start;display:inline;overflow:visible;visibility:visible;fill:none;stroke:#505a63;stroke-width:1;stroke-linecap:butt;stroke-linejoin:miter;stroke-miterlimit:4;stroke-dasharray:none;stroke-dashoffset:0;stroke-opacity:1;marker:none;enable-background:accumulate"
       d="m 84.26096,28.825343 c 3.652679,-2.147144 8.406808,-3.700002 12.434093,-1.625382 2.919474,1.454765 4.991317,4.513332 4.907847,7.820942 -0.11646,4.707031 -3.364019,8.538123 -6.268241,11.943303 -6.014343,6.691844 -13.079382,12.322628 -19.91601,18.135275 -6.051519,4.964088 -12.091328,9.957347 -18.3471,14.660156 -3.557405,2.248625 -8.311302,3.347644 -12.285715,1.567543 -3.996781,-2.155086 -5.487767,-7.132862 -5.244155,-11.416811 0.188374,-5.950243 4.084017,-10.917443 8.316836,-14.747003 9.409062,-8.656066 20.089382,-15.777792 30.759952,-22.762882 1.8716,-1.206196 3.752454,-2.398041 5.642493,-3.575141 z M 38.972962,45.644414 c -9.713244,6.99856 -13.994235,18.72757 -13.019807,30.450129 0.493391,6.198964 4.162661,13.749376 9.708676,17.052123 6.786091,4.037452 15.599847,3.47716 22.397037,-0.243182 5.04686,-2.690525 9.169837,-6.736701 13.607282,-10.279983 11.46,-9.653836 22.360827,-20.038721 32.00139,-31.526246 3.96764,-4.976505 7.61421,-10.898185 7.46099,-17.486033 -0.1841,-4.932445 -2.78288,-9.636289 -6.50402,-12.803072 -4.688743,-3.693046 -11.227981,-4.745915 -16.933656,-3.158576 -7.01815,1.92773 -13.085643,5.615182 -19.353202,9.117728 -9.616861,5.706117 -20.56627,11.935588 -29.36469,18.877112 z"
       id="path3845"
       sodipodi:nodetypes="ccsccccccccccccccccccc" />
    <path
       id="path3761"
       d="m 138.3987,-11.269318 c -3.44241,-0.06365 -6.87523,1.094757 -9.999,2.4669216 -9.70255,4.5560137 -18.89534,10.1871964 -27.6639,16.335021 -3.260675,2.4161345 -6.816057,4.5078314 -9.599037,7.5007754 -0.650456,0.684257 -1.23012,1.447276 -1.76649,2.233564 1.257618,-0.228249 2.545293,-0.346922 3.83295,-0.333368 2.311834,0.02433 4.609265,0.450888 6.76599,1.266798 0.02331,-0.02198 0.04322,-0.04492 0.06666,-0.06667 4.39476,-3.459673 8.96074,-6.730189 13.49865,-10.0010334 5.26797,-3.6577838 10.47341,-7.50526718 16.19838,-10.4344116 2.8846,-1.382641 6.12522,-2.9141059 9.39906,-2.1335537 2.30082,0.547357 4.02874,2.5183807 4.49955,4.80049602 0.69634,3.16049198 -1.24736,6.17126068 -3.39966,8.30085778 -1.15933,1.0898385 -2.32356,2.1618759 -3.49965,3.2336679 -6.77994,6.090831 -13.66088,12.187706 -21.36453,17.101767 -3.42102,2.22247 -7.58609,3.991938 -11.73216,3.033647 -2.62917,-0.538447 -5.377974,-2.107687 -6.532656,-4.600475 -0.133691,-0.07618 -0.261549,-0.164389 -0.39996,-0.233358 -3.288091,-1.693831 -7.037385,-0.960096 -10.29897,0.533389 0.06973,0.916013 0.210742,1.836741 0.46662,2.733615 1.266953,4.433881 5.839205,8.326442 10.03233,9.801013 7.921816,2.817087 16.783636,2.026937 23.397636,-3.400351 6.40715,-4.805998 12.72819,-11.23794 18.43149,-16.835073 3.56754,-3.687361 7.21561,-7.207477 9.83235,-11.7012097 2.1413,-3.6496699 2.62681,-8.35465548 0.93324,-12.2679343 -1.50707,-3.1488514 -4.29131,-5.8046964 -7.6659,-6.834039 -1.13103,-0.327699 -2.28552,-0.478836 -3.43299,-0.500052 z"
       style="color:#000000;font-style:normal;font-variant:normal;font-weight:normal;font-stretch:normal;font-size:medium;line-height:normal;font-family:AlArabiya;-inkscape-font-specification:AlArabiya;text-indent:0;text-align:start;text-decoration:none;text-decoration-line:none;letter-spacing:normal;word-spacing:normal;text-transform:none;writing-mode:lr-tb;direction:ltr;text-anchor:start;display:inline;overflow:visible;visibility:visible;fill:url(#linearGradient4296);fill-opacity:1;fill-rule:nonzero;stroke:none;stroke-width:1;marker:none;enable-background:accumulate" />
    <path
       id="path3763"
       d="m 41.341743,63.238381 c -1.052068,2.056218 -1.724342,4.283212 -1.79982,6.667356 -0.1354,2.381026 0.294728,4.959209 1.36653,7.167407 2.638838,1.736111 4.521773,4.571984 5.16615,7.700796 1.324641,6.022647 -2.371684,11.743464 -6.46602,15.80163 -2.205442,2.0768 -4.428718,4.1249 -6.666,6.16731 -12.897593,11.60672 -25.9744857,23.20578 -40.6292698,32.57004 -6.5078582,4.23515 -14.3773242,7.62672 -22.2644402,5.80059 -5.716023,-1.17264 -11.757639,-4.89057 -13.19868,-10.90112 -0.955922,-5.85043 2.138131,-11.70421 6.3327,-15.60161 8.360207,-6.59278 17.031579,-12.80237 25.6641,-19.035311 10.0213387,-6.970298 19.8728799,-14.320264 30.76359,-19.902056 2.057771,-0.988038 4.216442,-2.00965 6.43269,-2.833626 -0.02855,-0.243606 -0.08089,-0.493465 -0.09999,-0.733409 -0.34781,-4.184211 -0.0015,-8.360939 0.9999,-12.334608 -3.392683,0.866527 -6.729419,2.120327 -9.86568,3.500361 -18.4573023,8.681962 -35.880895,19.421229 -52.56141,31.136551 -6.202836,4.604188 -12.970736,8.598138 -18.26484,14.301488 -7.257305,7.64767 -11.043273,19.06591 -8.09919,29.40303 2.410145,8.44924 11.054784,15.89198 19.03143,18.70194 15.069828,5.36825 31.980275,3.84159 44.56221,-6.50067 12.188405,-9.15836 24.180376,-21.40408 35.02983,-32.06999 6.786591,-7.02665 13.753579,-13.70568 18.73146,-22.268969 4.073422,-6.954831 4.954879,-15.945255 1.73316,-23.402418 -2.866906,-6.000466 -8.145682,-11.039822 -14.56521,-13.001344 -0.43743,-0.126958 -0.893664,-0.232855 -1.3332,-0.333368 z"
       style="color:#000000;font-style:normal;font-variant:normal;font-weight:normal;font-stretch:normal;font-size:medium;line-height:normal;font-family:AlArabiya;-inkscape-font-specification:AlArabiya;text-indent:0;text-align:start;text-decoration:none;text-decoration-line:none;letter-spacing:normal;word-spacing:normal;text-transform:none;writing-mode:lr-tb;direction:ltr;text-anchor:start;display:inline;overflow:visible;visibility:visible;fill:url(#linearGradient4293);fill-opacity:1;fill-rule:nonzero;stroke:none;stroke-width:1;marker:none;enable-background:accumulate" />
    <path
       style="color:#000000;font-style:normal;font-variant:normal;font-weight:normal;font-stretch:normal;font-size:medium;line-height:normal;font-family:AlArabiya;-inkscape-font-specification:AlArabiya;text-indent:0;text-align:start;text-decoration:none;text-decoration-line:none;letter-spacing:normal;word-spacing:normal;text-transform:none;writing-mode:lr-tb;direction:ltr;text-anchor:start;display:inline;overflow:visible;visibility:visible;fill:none;stroke:#505a63;stroke-width:1;stroke-linecap:butt;stroke-linejoin:miter;stroke-miterlimit:4;stroke-dasharray:none;stroke-dashoffset:0;stroke-opacity:1;marker:none;enable-background:accumulate"
       d="m 138.3987,-11.269318 c -3.44241,-0.06365 -6.87523,1.094757 -9.999,2.4669216 -9.70255,4.5560137 -18.89534,10.1871964 -27.6639,16.335021 -3.260675,2.4161345 -6.816057,4.5078314 -9.599037,7.5007754 -0.650456,0.684257 -1.23012,1.447276 -1.76649,2.233564 1.257618,-0.228249 2.545293,-0.346922 3.83295,-0.333368 2.311834,0.02433 4.609265,0.450888 6.76599,1.266798 0.02331,-0.02198 0.04322,-0.04492 0.06666,-0.06667 4.39476,-3.459673 8.96074,-6.730189 13.49865,-10.0010334 5.26797,-3.6577838 10.47341,-7.50526718 16.19838,-10.4344116 2.8846,-1.382641 6.12522,-2.9141059 9.39906,-2.1335537 2.30082,0.547357 4.02874,2.5183807 4.49955,4.80049602 0.69634,3.16049198 -1.24736,6.17126068 -3.39966,8.30085778 -1.15933,1.0898385 -2.32356,2.1618759 -3.49965,3.2336679 -6.77994,6.090831 -13.66088,12.187706 -21.36453,17.101767 -3.42102,2.22247 -7.58609,3.991938 -11.73216,3.033647 -2.62917,-0.538447 -5.377974,-2.107687 -6.532656,-4.600475 -0.133691,-0.07618 -0.261549,-0.164389 -0.39996,-0.233358 -3.288091,-1.693831 -7.037385,-0.960096 -10.29897,0.533389 0.06973,0.916013 0.210742,1.836741 0.46662,2.733615 1.266953,4.433881 5.839205,8.326442 10.03233,9.801013 7.921816,2.817087 16.783636,2.026937 23.397636,-3.400351 6.40715,-4.805998 12.72819,-11.23794 18.43149,-16.835073 3.56754,-3.687361 7.21561,-7.207477 9.83235,-11.7012097 2.1413,-3.6496699 2.62681,-8.35465548 0.93324,-12.2679343 -1.50707,-3.1488514 -4.29131,-5.8046964 -7.6659,-6.834039 -1.13103,-0.327699 -2.28552,-0.478836 -3.43299,-0.500052 z"
       id="path3847" />
    <path
       sodipodi:nodetypes="cccccccccccccccccccccccccccccc"
       id="path3950"
       d="m 41.154346,63.628807 c -1.129268,2.075641 -1.432772,3.946566 -1.623096,6.277443 -0.1354,2.381026 0.303198,4.253572 1.375,6.46177 1.706737,1.122875 4.100596,3.458875 5.041403,5.288865 -0.363605,-1.653418 -1.249905,-4.150218 -1.166403,-6.063135 0.08066,-2.547949 1.551767,-5.377541 3.10073,-6.807424 1.610288,1.819312 2.26968,3.358149 3.30552,5.526174 3.221719,7.457163 2.323422,16.420169 -1.75,23.375 -4.977881,8.56328 -11.932159,15.2546 -18.71875,22.28125 -10.849454,10.66591 -22.842845,22.90414 -35.03125,32.0625 -11.777471,9.681 -27.353243,11.66109 -41.65625,7.46875 1.053092,0.51943 2.110567,0.94413 3.15625,1.3125 15.069828,5.36825 31.980565,3.84226 44.5625,-6.5 12.188405,-9.15836 23.171643,-21.83853 34.021097,-32.50444 6.786591,-7.02665 13.551466,-13.40229 18.529347,-21.965579 C 58.373866,92.88765 59.461566,84.39847 56.239847,76.941307 54.281252,72.841947 51.8313,69.596998 48.027443,67.070114 45.907629,65.549049 43.656562,64.287897 41.154346,63.628807 Z M 25.65625,71.40625 c -2.216248,0.823976 -10.035979,5.011962 -12.09375,6 -10.8907093,5.581792 -20.7599105,12.935952 -30.78125,19.90625 -8.632521,6.23293 -17.296043,12.43847 -25.65625,19.03125 -4.194569,3.8974 -7.299672,9.74332 -6.34375,15.59375 1.438595,6.00035 7.480088,9.72698 13.1875,10.90625 -3.390549,-1.90261 -6.204572,-4.78592 -7.125,-8.625 -0.955922,-5.85043 2.149181,-11.69635 6.34375,-15.59375 8.360207,-6.59278 16.266115,-13.71344 24.898636,-19.946383 10.0213383,-6.970298 20.4587503,-14.293208 31.34946,-19.875 2.057771,-0.988038 4.253137,-2.019774 6.469385,-2.84375 z"
       style="color:#000000;font-style:normal;font-variant:normal;font-weight:normal;font-stretch:normal;font-size:medium;line-height:normal;font-family:AlArabiya;-inkscape-font-specification:AlArabiya;text-indent:0;text-align:start;text-decoration:none;text-decoration-line:none;letter-spacing:normal;word-spacing:normal;text-transform:none;writing-mode:lr-tb;direction:ltr;text-anchor:start;display:inline;overflow:visible;visibility:visible;fill:#4e5861;fill-opacity:0.6;fill-rule:nonzero;stroke:none;stroke-width:1;marker:none;filter:url(#filter3931-3);enable-background:accumulate" />
    <path
       sodipodi:nodetypes="ccccccccccccccccccccccccccc"
       id="path4179"
       d="m 40.71875,64.008929 c -0.267534,0.522882 -0.503903,1.049005 -0.71875,1.59375 3.395085,-0.143777 6.156085,0.88167 9.09375,2.4375 -2.475667,-1.938127 -5.310701,-3.346622 -8.375,-4.03125 z M 26.803571,64.71875 c -3.392683,0.866527 -6.336953,1.852109 -9.473214,3.232143 -18.4573022,8.681962 -35.761449,19.632892 -52.441964,31.348214 -6.202836,4.604193 -12.451432,8.073433 -17.745536,13.776783 -7.257305,7.64767 -11.93069,18.71199 -8.986607,29.04911 1.807609,6.33693 7.121822,12.10647 13.03125,15.78125 -4.87096,-3.63668 -8.981294,-8.66007 -10.53125,-14.09375 -2.944083,-10.33712 1.729302,-21.22287 8.986607,-28.87054 5.294104,-5.70335 11.422164,-9.61903 17.625,-14.22321 16.680515,-11.71532 33.8373401,-23.068038 52.294643,-31.75 2.193601,-0.96524 4.503455,-1.841337 6.84375,-2.59375 0.15473,-0.874797 0.181138,-0.798412 0.397321,-1.65625 z m 16.169643,13.754464 c 1.67304,1.676674 2.606003,3.961427 3.089286,6.308036 1.324641,6.022647 -1.660128,12.258798 -5.754464,16.31696 -14.994694,13.47222 -30.5808056,27.18443 -47.5044646,38.92858 -6.5078584,4.23515 -14.8539554,6.92434 -22.7410714,5.09821 -2.100045,-0.43082 -4.243852,-1.23833 -6.1875,-2.34375 2.487294,2.0375 5.605526,3.4054 8.65625,4.03125 7.887116,1.82613 16.041249,-1.22021 22.5491071,-5.45536 17.0269159,-11.2736 32.8612529,-25.1377 47.0133929,-39.07589 4.094336,-4.058165 7.793391,-9.789853 6.46875,-15.8125 -0.680748,-3.604343 -2.685706,-6.120424 -5.589286,-7.995536 z"
       style="color:#000000;font-style:normal;font-variant:normal;font-weight:normal;font-stretch:normal;font-size:medium;line-height:normal;font-family:AlArabiya;-inkscape-font-specification:AlArabiya;text-indent:0;text-align:start;text-decoration:none;text-decoration-line:none;letter-spacing:normal;word-spacing:normal;text-transform:none;writing-mode:lr-tb;direction:ltr;text-anchor:start;display:inline;overflow:visible;visibility:visible;fill:#f6f7f8;fill-opacity:0.790698;fill-rule:nonzero;stroke:none;stroke-width:1;marker:none;filter:url(#filter4103-4);enable-background:accumulate" />
    <path
       style="color:#000000;font-style:normal;font-variant:normal;font-weight:normal;font-stretch:normal;font-size:medium;line-height:normal;font-family:AlArabiya;-inkscape-font-specification:AlArabiya;text-indent:0;text-align:start;text-decoration:none;text-decoration-line:none;letter-spacing:normal;word-spacing:normal;text-transform:none;writing-mode:lr-tb;direction:ltr;text-anchor:start;display:inline;overflow:visible;visibility:visible;fill:none;stroke:#505a63;stroke-width:1;stroke-linecap:butt;stroke-linejoin:miter;stroke-miterlimit:4;stroke-dasharray:none;stroke-dashoffset:0;stroke-opacity:1;marker:none;enable-background:accumulate"
       d="m 41.341743,63.238381 c -1.052068,2.056218 -1.724342,4.283212 -1.79982,6.667356 -0.1354,2.381026 0.294728,4.959209 1.36653,7.167407 2.638838,1.736111 4.521773,4.571984 5.16615,7.700796 1.324641,6.022647 -2.371684,11.743464 -6.46602,15.80163 -2.205442,2.0768 -4.428718,4.1249 -6.666,6.16731 -12.897593,11.60672 -25.9744857,23.20578 -40.6292698,32.57004 -6.5078582,4.23515 -14.3773242,7.62672 -22.2644402,5.80059 -5.716023,-1.17264 -11.757639,-4.89057 -13.19868,-10.90112 -0.955922,-5.85043 2.138131,-11.70421 6.3327,-15.60161 8.360207,-6.59278 17.031579,-12.80237 25.6641,-19.035311 10.0213387,-6.970298 19.8728799,-14.320264 30.76359,-19.902056 2.057771,-0.988038 4.216442,-2.00965 6.43269,-2.833626 -0.02855,-0.243606 -0.08089,-0.493465 -0.09999,-0.733409 -0.34781,-4.184211 -0.0015,-8.360939 0.9999,-12.334608 -3.392683,0.866527 -6.729419,2.120327 -9.86568,3.500361 -18.4573023,8.681962 -35.880895,19.421229 -52.56141,31.136551 -6.202836,4.604188 -12.970736,8.598138 -18.26484,14.301488 -7.257305,7.64767 -11.043273,19.06591 -8.09919,29.40303 2.410145,8.44924 11.054784,15.89198 19.03143,18.70194 15.069828,5.36825 31.980275,3.84159 44.56221,-6.50067 12.188405,-9.15836 24.180376,-21.40408 35.02983,-32.06999 6.786591,-7.02665 13.753579,-13.70568 18.73146,-22.268969 4.073422,-6.954831 4.954879,-15.945255 1.73316,-23.402418 -2.866906,-6.000466 -8.145682,-11.039822 -14.56521,-13.001344 -0.43743,-0.126958 -0.893664,-0.232855 -1.3332,-0.333368 z"
       id="path3849" />
    <path
       sodipodi:nodetypes="ccccccccccccccccccccccccccccccc"
       id="path4032"
       d="m 140.125,-11.125 c 2.205,1.3319741 3.98965,3.3806163 5.09375,5.6875 1.69357,3.9132789 1.2038,8.6003301 -0.9375,12.25 -2.61674,4.493732 -6.27621,8.031389 -9.84375,11.71875 -5.7033,5.597133 -12.03035,12.006502 -18.4375,16.8125 -0.25958,0.213003 -0.51502,0.426269 -0.78125,0.625 -0.22518,-2.045647 -0.66454,-3.037987 -1.62054,-4.84375 -3.76623,1.890689 -7.70031,2.650526 -11.59821,1.370536 2.07086,1.256974 3.25645,2.38963 3.75,4.785714 0.20025,0.91025 0.22205,1.802977 0.125,2.6875 -3.51038,0.620582 -6.719374,-0.328825 -10.272321,-1.227679 4.681471,2.48784 9.621521,2.682437 14.674111,1.982143 3.64396,-0.628593 6.62659,-2.517297 9.58928,-4.651785 6.40715,-4.805998 12.88152,-11.246617 18.58482,-16.84375 3.56754,-3.687361 6.42344,-6.390196 9.04018,-10.883929 2.1413,-3.6496699 3.0775,-8.18939975 1.38393,-12.1026786 -1.50707,-3.1488514 -3.65666,-5.9929788 -7.03125,-7.0223214 -0.56552,-0.16385 -1.14532,-0.262351 -1.71875,-0.34375 z m -7.71875,4.96875 c -2.42779,0.1662403 -4.8053,1.3067693 -6.96875,2.34375 -5.72497,2.92914453 -10.91953,6.7797162 -16.1875,10.4375 -4.53791,3.2708449 -9.10524,6.540327 -13.5,10 l 3.772321,1.116071 c 4.130619,-3.400346 9.162289,-6.993705 13.294639,-9.9732139 5.26797,-3.6577838 11.22146,-8.13335553 16.94643,-11.0625 2.35761,-1.1300431 6.26264,-2.2378529 9.14286,-2 -2.0219,-0.8589339 -4.31352,-1.0172147 -6.5,-0.8616071 z M 93,26.25 c 1.240067,2.291465 3.838908,3.768265 6.34375,4.28125 C 97.547463,29.674636 96.527652,28.184828 96.6875,27.1875 95.503861,26.577759 94.258904,26.308393 93,26.25 Z"
       style="color:#000000;font-style:normal;font-variant:normal;font-weight:normal;font-stretch:normal;font-size:medium;line-height:normal;font-family:AlArabiya;-inkscape-font-specification:AlArabiya;text-indent:0;text-align:start;text-decoration:none;text-decoration-line:none;letter-spacing:normal;word-spacing:normal;text-transform:none;writing-mode:lr-tb;direction:ltr;text-anchor:start;display:inline;overflow:visible;visibility:visible;fill:#4e5861;fill-opacity:0.6;fill-rule:nonzero;stroke:none;stroke-width:1;marker:none;filter:url(#filter3931-2);enable-background:accumulate" />
    <path
       sodipodi:nodetypes="cccccccccscsccccccccccccscccscccc"
       id="path4145"
       d="m 138.58482,-10.566964 c -3.44241,-0.06365 -6.87623,1.0965847 -10,2.4687497 -9.70255,4.5560137 -17.90555,9.704854 -26.67411,15.8526786 -3.260671,2.4161347 -6.842016,4.5070557 -9.624996,7.4999997 -0.650456,0.684257 -1.21363,1.195855 -1.75,1.982143 1.044529,-0.189575 2.118734,-0.287081 3.1875,-0.3125 0.342126,-0.450316 0.676195,-0.638263 1.0625,-1.044643 2.78298,-2.992944 6.364326,-5.083865 9.624996,-7.4999997 8.76856,-6.1478246 16.97156,-11.2966649 26.67411,-15.8526786 3.12377,-1.3721646 6.30505,-2.4376982 9.74746,-2.3740482 0.55348,0.010233 4.76474,1.374586 6.13881,4.4809656 -0.81082,-3.0922414 -4.69944,-4.6246164 -4.94877,-4.7006671 -1.13103,-0.327699 -2.29003,-0.478784 -3.4375,-0.5 z m 2.45404,6.1565895 c 1.71421,0.8349393 2.95552,2.7456834 3.34375,4.62753817 0.69634,3.16049203 -1.31708,6.65672913 -3.46938,8.78632623 -1.15933,1.0898381 -2.32391,2.1782081 -3.5,3.2500001 -6.77994,6.090831 -13.75422,12.412806 -21.45787,17.326867 -3.15561,2.050045 -7.67265,3.903479 -11.49554,3.397322 0.5093,0.18271 1.15226,0.39942 1.66518,0.504464 4.14607,0.958291 8.46291,-1.366816 11.88393,-3.589286 7.70365,-4.914061 14.42988,-11.270776 21.20982,-17.361607 1.17609,-1.071792 2.34067,-2.160162 3.5,-3.25 2.1523,-2.1295976 3.78692,-5.3417289 3.09058,-8.50222087 -0.47081,-2.28211533 -1.1259,-4.20200843 -3.42672,-4.74936543 -0.4512,-0.1075761 -0.89465,-0.4138512 -1.34375,-0.4400382 z M 89.325893,26.294643 c -0.763999,0.238778 -1.523876,0.542507 -2.25,0.875 0.06973,0.916013 0.212872,1.821876 0.46875,2.71875 1.266953,4.433881 5.838125,8.337929 10.03125,9.8125 1.273718,0.452947 2.878427,0.889629 3.874997,1.0625 -5.155539,-2.126202 -9.087942,-5.064267 -11.406247,-10.25 -0.108762,-0.381221 -0.610939,-2.078334 -0.71875,-4.21875 z"
       style="color:#000000;font-style:normal;font-variant:normal;font-weight:normal;font-stretch:normal;font-size:medium;line-height:normal;font-family:AlArabiya;-inkscape-font-specification:AlArabiya;text-indent:0;text-align:start;text-decoration:none;text-decoration-line:none;letter-spacing:normal;word-spacing:normal;text-transform:none;writing-mode:lr-tb;direction:ltr;text-anchor:start;display:inline;overflow:visible;visibility:visible;fill:#f6f7f8;fill-opacity:0.790698;fill-rule:nonzero;stroke:none;stroke-width:1;marker:none;filter:url(#filter4103-9);enable-background:accumulate" />
    <path
       style="color:#000000;font-style:normal;font-variant:normal;font-weight:normal;font-stretch:normal;font-size:medium;line-height:normal;font-family:AlArabiya;-inkscape-font-specification:AlArabiya;text-indent:0;text-align:start;text-decoration:none;text-decoration-line:none;letter-spacing:normal;word-spacing:normal;text-transform:none;writing-mode:lr-tb;direction:ltr;text-anchor:start;display:inline;overflow:visible;visibility:visible;fill:none;stroke:#505a63;stroke-width:1;stroke-linecap:butt;stroke-linejoin:miter;stroke-miterlimit:4;stroke-dasharray:none;stroke-dashoffset:0;stroke-opacity:1;marker:none;enable-background:accumulate"
       d="m 138.3987,-11.269318 c -3.44241,-0.06365 -6.87523,1.094757 -9.999,2.4669216 -9.70255,4.5560137 -18.89534,10.1871964 -27.6639,16.335021 -3.260675,2.4161345 -6.816057,4.5078314 -9.599037,7.5007754 -0.650456,0.684257 -1.23012,1.447276 -1.76649,2.233564 1.257618,-0.228249 2.545293,-0.346922 3.83295,-0.333368 2.311834,0.02433 4.609265,0.450888 6.76599,1.266798 0.02331,-0.02198 0.04322,-0.04492 0.06666,-0.06667 4.39476,-3.459673 8.96074,-6.730189 13.49865,-10.0010334 5.26797,-3.6577838 10.47341,-7.50526718 16.19838,-10.4344116 2.8846,-1.382641 6.12522,-2.9141059 9.39906,-2.1335537 2.30082,0.547357 4.02874,2.5183807 4.49955,4.80049602 0.69634,3.16049198 -1.24736,6.17126068 -3.39966,8.30085778 -1.15933,1.0898385 -2.32356,2.1618759 -3.49965,3.2336679 -6.77994,6.090831 -13.66088,12.187706 -21.36453,17.101767 -3.42102,2.22247 -7.58609,3.991938 -11.73216,3.033647 -2.62917,-0.538447 -5.377974,-2.107687 -6.532656,-4.600475 -0.133691,-0.07618 -0.261549,-0.164389 -0.39996,-0.233358 -3.288091,-1.693831 -7.037385,-0.960096 -10.29897,0.533389 0.06973,0.916013 0.210742,1.836741 0.46662,2.733615 1.266953,4.433881 5.839205,8.326442 10.03233,9.801013 7.921816,2.817087 16.783636,2.026937 23.397636,-3.400351 6.40715,-4.805998 12.72819,-11.23794 18.43149,-16.835073 3.56754,-3.687361 7.21561,-7.207477 9.83235,-11.7012097 2.1413,-3.6496699 2.62681,-8.35465548 0.93324,-12.2679343 -1.50707,-3.1488514 -4.29131,-5.8046964 -7.6659,-6.834039 -1.13103,-0.327699 -2.28552,-0.478836 -3.43299,-0.500052 z"
       id="path4120" />
  </g>
</svg>
