<?xml version="1.0" encoding="UTF-8" standalone="no"?>
<!-- Created with Inkscape (http://www.inkscape.org/) -->

<svg
   width="128"
   height="128"
   id="svg7396"
   sodipodi:version="0.32"
   inkscape:version="1.3.2 (1:1.3.2+202311252150+091e20ef0f)"
   version="1.0"
   sodipodi:docname="listview.svg"
   inkscape:export-filename="listview_64.png"
   inkscape:export-xdpi="48"
   inkscape:export-ydpi="48"
   inkscape:output_extension="org.inkscape.output.svg.inkscape"
   style="display:inline"
   xmlns:inkscape="http://www.inkscape.org/namespaces/inkscape"
   xmlns:sodipodi="http://sodipodi.sourceforge.net/DTD/sodipodi-0.dtd"
   xmlns:xlink="http://www.w3.org/1999/xlink"
   xmlns="http://www.w3.org/2000/svg"
   xmlns:svg="http://www.w3.org/2000/svg"
   xmlns:rdf="http://www.w3.org/1999/02/22-rdf-syntax-ns#"
   xmlns:cc="http://creativecommons.org/ns#"
   xmlns:dc="http://purl.org/dc/elements/1.1/">
  <defs
     id="defs7398">
    <linearGradient
       id="linearGradient9-3"
       inkscape:label="paper 4">
      <stop
         style="stop-color:#b5c6d9;stop-opacity:1;"
         offset="0"
         id="stop31" />
      <stop
         style="stop-color:#a4b4c2;stop-opacity:1;"
         offset="0.07333579"
         id="stop32" />
      <stop
         style="stop-color:#90aabb;stop-opacity:1;"
         offset="0.34967685"
         id="stop33" />
      <stop
         style="stop-color:#96aabc;stop-opacity:1;"
         offset="0.64527124"
         id="stop34" />
      <stop
         style="stop-color:#94abbe;stop-opacity:1;"
         offset="0.93138528"
         id="stop35" />
      <stop
         style="stop-color:#a1b9cb;stop-opacity:1;"
         offset="1"
         id="stop36" />
    </linearGradient>
    <linearGradient
       id="linearGradient9-2"
       inkscape:label="paper 3">
      <stop
         style="stop-color:#8ca8c2;stop-opacity:1;"
         offset="0"
         id="stop25" />
      <stop
         style="stop-color:#b1bec8;stop-opacity:1;"
         offset="0.5184412"
         id="stop26" />
      <stop
         style="stop-color:#a8bccd;stop-opacity:1;"
         offset="0.64527124"
         id="stop27" />
      <stop
         style="stop-color:#93abbf;stop-opacity:1;"
         offset="0.97854787"
         id="stop28" />
      <stop
         style="stop-color:#a4b9c8;stop-opacity:1;"
         offset="1"
         id="stop29" />
    </linearGradient>
    <linearGradient
       id="linearGradient9-1"
       inkscape:label="paper 2">
      <stop
         style="stop-color:#e9eef2;stop-opacity:1;"
         offset="0"
         id="stop20" />
      <stop
         style="stop-color:#b7c5d1;stop-opacity:1;"
         offset="0.20723532"
         id="stop21" />
      <stop
         style="stop-color:#9fb6c8;stop-opacity:1;"
         offset="0.51874113"
         id="stop22" />
      <stop
         style="stop-color:#abbac8;stop-opacity:1;"
         offset="0.95794904"
         id="stop23" />
      <stop
         style="stop-color:#bbc1c6;stop-opacity:1;"
         offset="1"
         id="stop24" />
    </linearGradient>
    <linearGradient
       id="linearGradient9"
       inkscape:label="paper 1">
      <stop
         style="stop-color:#d1d9e0;stop-opacity:1;"
         offset="0"
         id="stop15" />
      <stop
         style="stop-color:#becad5;stop-opacity:1;"
         offset="0.07626285"
         id="stop16" />
      <stop
         style="stop-color:#f0f2f4;stop-opacity:1;"
         offset="0.41495499"
         id="stop17" />
      <stop
         style="stop-color:#b3c4cf;stop-opacity:1;"
         offset="0.79794651"
         id="stop64" />
      <stop
         style="stop-color:#a0b3c4;stop-opacity:1;"
         offset="0.97152412"
         id="stop18" />
      <stop
         style="stop-color:#cacfd3;stop-opacity:1;"
         offset="1"
         id="stop19" />
    </linearGradient>
    <linearGradient
       id="linearGradient9-4"
       inkscape:label="paper 5">
      <stop
         style="stop-color:#81a3c0;stop-opacity:1;"
         offset="0"
         id="stop9" />
      <stop
         style="stop-color:#a1b9cb;stop-opacity:1;"
         offset="1"
         id="stop10" />
    </linearGradient>
    <inkscape:perspective
       sodipodi:type="inkscape:persp3d"
       inkscape:vp_x="0 : 64 : 1"
       inkscape:vp_y="0 : 1000 : 0"
       inkscape:vp_z="128 : 64 : 1"
       inkscape:persp3d-origin="64 : 42.666667 : 1"
       id="perspective57" />
    <linearGradient
       id="linearGradient3471">
      <stop
         style="stop-color:#ffffff;stop-opacity:0;"
         offset="0"
         id="stop3473" />
      <stop
         id="stop3479"
         offset="0.5"
         style="stop-color:#ffffff;stop-opacity:0.20848057;" />
      <stop
         style="stop-color:#ffffff;stop-opacity:0;"
         offset="1"
         id="stop3475" />
    </linearGradient>
    <linearGradient
       id="linearGradient3444">
      <stop
         style="stop-color:#000000;stop-opacity:0.06007067;"
         offset="0"
         id="stop3446" />
      <stop
         style="stop-color:#000000;stop-opacity:0;"
         offset="1"
         id="stop3448" />
    </linearGradient>
    <linearGradient
       id="linearGradient3395">
      <stop
         style="stop-color:#a39c1a;stop-opacity:1;"
         offset="0"
         id="stop3397" />
      <stop
         style="stop-color:#c4bb1f;stop-opacity:1;"
         offset="1"
         id="stop3399" />
    </linearGradient>
    <linearGradient
       id="linearGradient3387">
      <stop
         style="stop-color:#c3b920;stop-opacity:1;"
         offset="0"
         id="stop3389" />
      <stop
         style="stop-color:#dad024;stop-opacity:1;"
         offset="1"
         id="stop3391" />
    </linearGradient>
    <linearGradient
       id="linearGradient3379">
      <stop
         style="stop-color:#bdb31f;stop-opacity:1;"
         offset="0"
         id="stop3381" />
      <stop
         style="stop-color:#888116;stop-opacity:1;"
         offset="1"
         id="stop3383" />
    </linearGradient>
    <linearGradient
       id="linearGradient3361">
      <stop
         style="stop-color:#bbb21f;stop-opacity:1;"
         offset="0"
         id="stop3363" />
      <stop
         id="stop3373"
         offset="0.43739367"
         style="stop-color:#e8e275;stop-opacity:1;" />
      <stop
         id="stop3369"
         offset="0.80298358"
         style="stop-color:#e8e275;stop-opacity:1;" />
      <stop
         style="stop-color:#b5ac1e;stop-opacity:1;"
         offset="0.97175151"
         id="stop3371" />
      <stop
         style="stop-color:#e4dc5d;stop-opacity:1;"
         offset="1"
         id="stop3365" />
    </linearGradient>
    <linearGradient
       inkscape:collect="always"
       xlink:href="#linearGradient9"
       id="linearGradient10"
       x1="51.475563"
       y1="6.2581763"
       x2="32.745781"
       y2="107.60154"
       gradientUnits="userSpaceOnUse"
       gradientTransform="matrix(1,0,0,1.0358829,-1.7036739,0.32636778)" />
    <linearGradient
       inkscape:collect="always"
       xlink:href="#linearGradient9-1"
       id="linearGradient19"
       gradientUnits="userSpaceOnUse"
       x1="81.405098"
       y1="16.579538"
       x2="61.717426"
       y2="111.24336"
       gradientTransform="matrix(1,0,0,1.0358829,-1.7036739,0.32636778)" />
    <linearGradient
       inkscape:collect="always"
       xlink:href="#linearGradient9-2"
       id="linearGradient20"
       gradientUnits="userSpaceOnUse"
       x1="98.156281"
       y1="19.36845"
       x2="83.386719"
       y2="102.90003"
       gradientTransform="matrix(1,0,0,1.0358829,-1.7036739,0.32636778)" />
    <linearGradient
       inkscape:collect="always"
       xlink:href="#linearGradient9-3"
       id="linearGradient29"
       gradientUnits="userSpaceOnUse"
       x1="108.0038"
       y1="37.662739"
       x2="95.188507"
       y2="105.01419"
       gradientTransform="matrix(1,0,0,1.0358829,-1.7036739,0.32636778)" />
    <linearGradient
       inkscape:collect="always"
       xlink:href="#linearGradient9-4"
       id="linearGradient36"
       gradientUnits="userSpaceOnUse"
       x1="117.98672"
       y1="39.824402"
       x2="117.54077"
       y2="43.309345"
       gradientTransform="matrix(1,0,0,1.0358829,-1.7036739,0.32636778)" />
    <filter
       inkscape:collect="always"
       style="color-interpolation-filters:sRGB"
       id="filter42"
       x="-0.013068759"
       y="-0.040220611"
       width="1.0261375"
       height="1.0804412">
      <feGaussianBlur
         inkscape:collect="always"
         stdDeviation="0.6211777"
         id="feGaussianBlur42" />
    </filter>
  </defs>
  <sodipodi:namedview
     id="base"
     pagecolor="#ffffff"
     bordercolor="#666666"
     borderopacity="1.0"
     inkscape:pageopacity="0"
     inkscape:pageshadow="2"
     inkscape:zoom="1.4142136"
     inkscape:cx="28.991378"
     inkscape:cy="3.8890873"
     inkscape:document-units="px"
     inkscape:current-layer="layer4"
     inkscape:window-width="1868"
     inkscape:window-height="1016"
     inkscape:window-x="52"
     inkscape:window-y="27"
     showguides="true"
     inkscape:guide-bbox="true"
     showgrid="false"
     inkscape:showpageshadow="2"
     inkscape:pagecheckerboard="0"
     inkscape:deskcolor="#d1d1d1"
     inkscape:window-maximized="1" />
  <metadata
     id="metadata7401">
    <rdf:RDF>
      <cc:Work
         rdf:about="">
        <dc:format>image/svg+xml</dc:format>
        <dc:type
           rdf:resource="http://purl.org/dc/dcmitype/StillImage" />
        <cc:license
           rdf:resource="http://creativecommons.org/licenses/by-sa/4.0/" />
      </cc:Work>
      <cc:License
         rdf:about="http://creativecommons.org/licenses/by-sa/4.0/">
        <cc:permits
           rdf:resource="http://creativecommons.org/ns#Reproduction" />
        <cc:permits
           rdf:resource="http://creativecommons.org/ns#Distribution" />
        <cc:requires
           rdf:resource="http://creativecommons.org/ns#Notice" />
        <cc:requires
           rdf:resource="http://creativecommons.org/ns#Attribution" />
        <cc:permits
           rdf:resource="http://creativecommons.org/ns#DerivativeWorks" />
        <cc:requires
           rdf:resource="http://creativecommons.org/ns#ShareAlike" />
      </cc:License>
    </rdf:RDF>
  </metadata>
  <path
     style="color:#000000;display:inline;mix-blend-mode:normal;fill:#2e3a3e;fill-opacity:0.0965594;stroke-width:0.665402;stroke-linecap:round;stroke-miterlimit:10;-inkscape-stroke:none;filter:url(#filter42)"
     d="m 2.3847656,103.34234 c -0.1886537,2.71826 0.3583198,5.69085 2.3144531,8.19948 1.9561334,2.50863 5.2839853,5.80969 11.0382513,6.36143 0.01119,0.0207 33.586886,11.08883 66.796277,2.17229 13.680384,-5.02789 34.490863,5.22465 33.878413,-11.89542 -0.1028,-2.00054 -5.81128,-9.210315 -7.5503,-8.93489 C 69.034625,72.5424 30.409989,94.671618 2.3847656,103.34234 Z"
     id="path37"
     inkscape:label="shadow"
     transform="matrix(0.99936971,0.06696614,-0.07571206,0.88392706,16.54748,10.617378)"
     sodipodi:nodetypes="csccscc" />
  <g
     inkscape:groupmode="layer"
     id="layer4"
     inkscape:label="Main"
     style="display:inline">
    <path
       id="path8"
       style="font-variation-settings:normal;display:inline;fill:none;fill-opacity:1;stroke:#526770;stroke-width:4;stroke-linecap:round;stroke-linejoin:miter;stroke-miterlimit:10;stroke-dasharray:none;stroke-dashoffset:0;stroke-opacity:1;stop-color:#000000"
       d="m 67.893019,8.9092543 c 0,0 3.226259,5.8987257 3.306346,9.1447927 0.660316,26.763932 -20.000136,43.502941 -21.116044,70.212877 -0.547984,13.116346 2.320531,27.720116 12.565073,29.974746 9.682038,2.13084 15.485372,-6.66674 17.042475,-18.616263 1.702216,-13.06315 -7.547297,-29.614701 -5.795836,-46.11964 0.690371,-6.505721 6.340668,-33.335012 22.044018,-33.310393 13.035379,0.02043 -3.785917,42.664158 -4.505484,56.01188 -0.58082,10.773999 2.540724,36.347616 11.281653,35.389756 10.63304,-1.16519 11.93681,-10.50703 11.69667,-21.277394 -0.20411,-9.154454 -8.56713,-18.358772 -8.59469,-28.48783 -0.0276,-10.137011 10.93167,-30.33276 14.17185,-15.590069 l -8.38092,-1.258108 M 100.92844,111.49408 78.29226,106.6459 M 116.45648,41.044895 99.791776,38.555468 M 96.41051,20.189013 71.057861,16.703269 M 62.615366,118.26508 16.416803,107.97431 C 6.6120038,105.80768 4.0168734,91.360122 4.383472,79.186569 5.1562822,53.524045 25.296489,37.460196 24.662352,11.757343 24.58544,8.6399703 21.501523,2.9757577 21.501523,2.9757577 l 46.376184,5.8619202"
       inkscape:label="big outline" />
    <path
       style="font-variation-settings:normal;display:inline;opacity:1;fill:url(#linearGradient36);stroke:none;stroke-width:0.882;stroke-linecap:round;stroke-linejoin:miter;stroke-miterlimit:10;stroke-dasharray:none;stroke-dashoffset:0;stroke-opacity:1"
       d="m 116.66223,41.15983 c 1.49715,0.112164 3.29082,3.481353 3.21524,4.993449 l -8.25416,-1.355418 c 2.02984,-2.817475 3.7551,-4.177326 5.03892,-3.638031 z"
       id="path24"
       sodipodi:nodetypes="cccc"
       inkscape:label="fill5" />
    <path
       style="font-variation-settings:normal;display:inline;opacity:1;fill:url(#linearGradient29);fill-opacity:1;stroke:none;stroke-width:0.882;stroke-linecap:round;stroke-linejoin:miter;stroke-miterlimit:10;stroke-dasharray:none;stroke-dashoffset:0;stroke-opacity:1"
       d="m 91.618919,74.216796 c 1.97463,-11.311969 3.404026,-15.86014 8.360647,-35.691727 l 15.698644,2.574145 c -2.04686,0.973966 -2.82236,1.821408 -4.0549,3.698647 -4.2044,5.816758 -5.08573,12.361959 -5.89098,18.308977 1.36803,9.220333 6.65947,16.093522 8.73797,26.218666 -0.0373,8.583561 -0.24333,16.922686 -7.31358,21.225546 -2.25281,1.53785 -4.84131,1.02792 -7.369394,0.88656 -8.256394,-10.16359 -8.263919,-24.430332 -8.168407,-37.220814 z"
       id="path30"
       sodipodi:nodetypes="ccccccccc"
       inkscape:label="fill4" />
    <path
       style="font-variation-settings:normal;display:inline;opacity:1;fill:url(#linearGradient20);stroke:none;stroke-width:0.882;stroke-linecap:round;stroke-linejoin:miter;stroke-miterlimit:10;stroke-dasharray:none;stroke-dashoffset:0;stroke-opacity:1"
       d="m 73.510105,62.088662 c 0.236838,-19.11637 8.610584,-44.260241 24.202105,-41.674616 4.91285,3.364546 2.59288,11.235563 2.267356,18.111023 -6.585631,26.836605 -8.865176,30.472813 -8.402279,40.916638 0.764895,23.966893 4.352439,26.002733 8.210039,31.995903 L 78.300798,106.75672 C 82.896359,91.300496 76.285192,76.87016 73.510105,62.088662 Z"
       id="path14"
       sodipodi:nodetypes="ccccccc"
       inkscape:label="fill3" />
    <path
       style="font-variation-settings:normal;display:inline;opacity:1;fill:url(#linearGradient19);fill-opacity:1;stroke:none;stroke-width:0.882;stroke-linecap:round;stroke-linejoin:miter;stroke-miterlimit:10;stroke-dasharray:none;stroke-dashoffset:0;stroke-opacity:1"
       d="m 67.665498,8.8776547 c 1.516665,2.7115763 2.46652,5.3280253 3.483767,7.9557833 L 97.71221,20.414046 C 85.386325,18.562473 75.16843,35.738712 73.918365,55.748685 72.841635,69.945836 80.024185,84.87103 79.629101,99.203463 78.627723,112.01084 71.288474,118.85341 64.419543,118.59096 34.417661,111.93803 53.06396,64.828691 67.665498,8.8776547 Z"
       id="path19"
       sodipodi:nodetypes="ccccccc"
       inkscape:label="fill2" />
    <path
       style="font-variation-settings:normal;display:inline;opacity:1;fill:url(#linearGradient10);stroke:none;stroke-width:0.882;stroke-linecap:round;stroke-linejoin:miter;stroke-miterlimit:10;stroke-dasharray:none;stroke-dashoffset:0;stroke-opacity:1"
       d="m 21.922853,3.0188867 45.742645,5.858768 c 1.516665,2.7115763 6.984736,8.0264593 0.105335,30.0272843 0,0 -16.61104,34.751108 -17.463402,44.85936 -1.926143,22.842331 6.269136,34.974001 14.112112,34.826661 L 13.54212,107.04606 C 8.6139101,104.38721 2.7827811,91.196834 4.5531679,76.501211 6.5957762,59.545933 16.688471,46.176523 23.566614,23.603525 25.010886,12.700445 25.485424,11.101196 21.922853,3.0188867 Z"
       id="path9"
       sodipodi:nodetypes="cccsccscc"
       inkscape:label="fill1" />
    <g
       inkscape:groupmode="layer"
       id="layer5"
       inkscape:label="Texts"
       style="display:inline">
      <path
         id="path55"
         style="font-variation-settings:normal;display:inline;opacity:1;vector-effect:none;fill:none;fill-opacity:1;stroke:#000000;stroke-width:0.999994px;stroke-linecap:round;stroke-linejoin:round;stroke-miterlimit:4;stroke-dasharray:none;stroke-dashoffset:0;stroke-opacity:0.312059;-inkscape-stroke:none;stop-color:#000000;stop-opacity:1"
         inkscape:label="text2"
         d="m 84.348049,26.809742 c 0.812123,0.05484 1.628219,0.07863 2.417013,-0.11396 0.460097,-0.119323 0.872487,-0.200048 0.315334,0.186445 -0.568489,0.575021 -1.416103,0.953961 -1.779961,1.659869 -0.467755,0.661344 0.231978,1.302637 1.062912,1.257501 0.968065,0.392782 0.529604,-1.006203 1.344484,-0.981554 0.695711,-0.303844 1.525076,-0.556683 1.899373,-1.174802 0.183118,-0.571149 1.566886,-1.361533 1.488058,-0.319357 -0.227786,0.784982 -0.388979,1.59682 0.106227,2.343178 0.408662,0.820645 0.939341,-0.2286 1.372128,-0.425527 0.593546,-0.165407 1.276314,0.114527 1.486184,0.574896 -0.0051,0.04303 -0.04503,0.200583 0.09793,0.09843 M 79.666659,36.13992 c 1.429514,1.966244 -0.461084,3.378557 -1.140532,4.90954 -0.241912,1.561408 2.383542,1.543169 2.023194,2.05e-4 0.104005,-0.695243 1.135358,-2.94822 1.669355,-1.457632 -0.503131,1.015063 -0.455822,2.10932 1.08519,2.077974 1.59134,0.473969 3.238191,0.785912 4.770724,1.414144 -0.382431,-0.242623 -1.469487,-1.72758 -1.878675,-2.606702 -1.111117,-1.1839 0.122701,-2.931007 1.632966,-1.821659 1.405759,0.716807 -0.7363,2.652961 1.411862,2.625017 1.209535,0.38389 2.46941,0.689518 3.650261,1.17282 0.282958,-0.150144 0.551885,0.573843 0.274987,0.544578 m -18.257649,5.969068 c 0.175729,1.143982 0.05695,2.294827 0.144878,3.443092 0.02493,0.882369 0.897429,1.910477 1.978167,1.530375 0.971592,-0.277975 1.706376,-1.088539 2.101595,-1.902918 0.277481,-0.743643 0.587324,-2.532978 -0.830134,-1.761285 -0.805731,0.445717 -1.264138,1.071087 -1.585865,1.793096 -0.163931,0.841164 -0.455476,1.687007 -0.427189,2.543596 0.04444,0.920764 1.041874,1.413926 1.983097,1.277875 1.305769,-0.06814 2.269418,-1.00224 3.468045,-1.329784 0.764132,-0.338785 1.327155,-1.115327 1.169747,-1.943143 0.36624,-1.273493 -1.381473,-1.396903 -1.531599,-0.199062 -0.467562,0.905981 0.01974,1.864468 0.394858,2.688948 -0.151559,1.058949 1.583423,1.636111 2.08916,0.610186 0.212114,-1.066548 1.052404,-1.181022 1.386138,-0.09775 0.294553,0.592881 1.060987,2.122054 1.720105,0.892567 0.03435,-0.03923 0.372674,-0.499901 0.153073,-0.307542 M 75.021121,69.758719 c -0.17717,0.837118 0.662801,2.051618 1.697071,1.653222 1.006518,-0.38769 1.667705,-1.417004 1.950978,-2.351472 0.149266,-1.030059 -1.338681,-1.521073 -1.095063,-2.500059 0.452944,-0.606009 0.530042,-1.869026 1.603492,-1.672338 0.75929,0.336956 2.159333,0.501634 1.980486,1.569799 -0.180249,1.095733 -0.476676,2.203043 -1.164629,3.1227 -0.397372,0.715892 -0.295452,1.799009 0.426919,2.301958 0.663571,0.361192 1.314599,-0.250025 1.952016,-0.352844 m -3.651615,13.031427 c 0.721791,-0.383706 1.140707,-1.160675 1.642869,-1.793005 0.393438,-0.366267 0.252536,-1.379763 0.972425,-0.874072 0.83115,0.245725 1.269257,1.628334 0.45038,2.154482 -0.572314,0.602534 -1.250209,1.116686 -1.753322,1.784739 -0.526933,0.782659 -0.639676,1.458537 -0.895152,2.363502 -0.201206,0.935299 0.734306,1.216498 1.343625,1.253757 0.768061,0.135915 1.486317,-0.0609 1.781597,-0.828534 0.63861,-0.155557 1.480326,-0.398119 1.323388,-1.236214 0.50106,-0.516186 1.734271,-0.19033 1.585783,0.68386 0.05563,0.811516 -0.610003,1.26695 -0.807132,1.979863 m -4.370757,9.480637 c 0.407576,-0.324237 1.765151,-0.577761 1.703824,0.07964 -0.247992,0.756453 -0.370534,1.534493 -0.454457,2.326283 -0.237347,1.21083 1.143415,0.95802 1.866018,1.03318 1.29471,0.13816 0.624841,-1.24152 0.285449,-1.89941 -0.233417,-1.03171 -0.28443,-2.14558 -0.0451,-3.175824 0.398436,-0.587373 1.893482,-0.419142 1.887077,0.345778 -0.267419,0.781169 -0.06053,1.595306 -0.09738,2.403716 0.373322,0.50761 1.181797,0.72882 1.76063,0.93533 0.280179,-0.68563 0.123898,-1.615853 0.388082,-2.364277" />
      <path
         id="path50"
         style="display:inline;opacity:1;fill:none;stroke:#000000;stroke-width:1px;stroke-linecap:round;stroke-linejoin:round;stroke-opacity:0.590039"
         inkscape:label="text1"
         d="m 41.910394,20.107725 c -1.458894,-0.683794 -0.921527,-2.816434 -0.640296,-4.07398 0.80115,-1.17425 2.964022,-2.905556 3.917793,-1.13033 0.775107,1.287903 0.0178,2.685204 -0.202589,3.944416 -0.396973,1.632663 -1.870074,3.018288 -1.368718,4.822429 0.499616,0.841845 3.31322,2.12546 2.709876,-0.05753 -0.237182,-1.557346 0.508147,-2.78991 1.858626,-3.505883 0.886061,-0.812002 2.685461,-1.115387 2.870409,0.640454 0.717302,1.226151 1.880214,2.277227 1.510655,3.901715 0.40928,0.677176 0.44338,3.262595 -0.168143,2.483541 -0.375035,-1.434985 0.684513,-2.457454 1.327075,-3.561059 0.551161,-0.600603 1.320294,-2.292813 1.903186,-0.824039 1.054777,-0.32655 2.571457,-0.45372 3.894662,-0.350787 1.29304,-0.935874 1.282143,1.285571 2.670047,1.428412 1.148425,0.230748 2.57003,-0.334275 3.862444,-0.286747 M 33.711008,46.476343 c 0.02626,1.641472 1.880769,2.545894 3.172532,1.643455 2.017171,-0.892444 3.505987,-2.617566 5.204521,-3.99116 1.597114,-0.974459 1.049387,-3.91996 -0.797567,-2.044519 -1.344041,1.42354 -2.137448,3.225495 -2.345909,5.209384 -0.820794,2.159926 1.465889,2.59159 2.831305,1.521938 1.164263,-0.613817 2.638956,-2.052313 3.19404,0.103705 -0.180994,2.033614 1.80484,1.980979 3.400784,1.615584 1.644374,0.295978 -0.217741,-2.279454 0.171776,-3.390909 0.132659,-0.65197 -2.089843,-1.644361 -0.303063,-1.886435 1.043157,-0.413684 3.396785,-0.345643 3.508078,-0.642755 1.630377,-0.691385 3.72707,0.603759 2.666347,2.505374 -0.700289,1.213887 -2.094515,2.493291 -1.42501,4.047108 0.0014,1.229301 0.800246,1.704834 1.596951,0.908114 l 0.116395,0.142989 M 23.005525,73.600361 c 0.595789,-1.32324 1.100404,-2.703662 1.251617,-4.156354 0.345288,-1.64218 2.204057,-0.229844 3.141407,-0.05319 -0.308953,1.417817 -1.949453,2.639153 -1.644755,4.12042 0.797266,0.396291 2.14941,1.986219 2.841375,1.337963 0.180193,-0.972287 0.476813,-2.202795 0.749902,-3.057451 0.856551,0.555036 2.639046,-0.100252 1.966639,1.548739 -1.007783,1.685471 1.489895,2.387406 2.238855,0.891351 1.227837,-0.957429 1.395832,-2.79448 1.073579,-4.184097 -0.02161,-1.674339 1.110483,-3.123876 2.09249,-4.329807 1.356615,-0.498593 2.313947,1.821676 1.380758,2.798878 -1.072649,1.076541 -2.015525,2.265906 -3.374361,2.979386 -0.971689,0.389359 -1.723159,1.43764 -0.445265,1.863253 0.893251,0.923674 -0.931806,3.106281 1.019781,2.64622 1.95418,-0.02223 3.92225,0.136113 5.847519,-0.284523 0.974004,-0.02735 2.112655,-0.495299 2.723159,-0.978377 0.232877,1.365527 -0.511951,2.764908 0.539261,3.978306 -0.0641,0.526886 0.518947,0.374536 0.806004,0.396904 m -8.391936,12.347612 c 0.350904,1.171455 -0.348862,2.296502 -0.416456,3.460253 -0.165144,1.218282 -0.434638,2.498518 -0.122185,3.707901 0.510138,0.961249 1.669144,1.640142 1.522201,2.888382 0.15279,0.87025 -0.67193,1.75576 -0.229828,2.53507 0.796454,-0.063 2.226056,0.41689 2.326747,-0.82577 -0.101236,-0.9367 0.426745,-1.77945 0.2842,-2.69394 0.03229,-0.831371 1.416504,-1.752792 2.073718,-0.991797 0.303873,0.774507 0.860929,1.632287 0.609789,2.500077 -0.278593,0.39822 -0.880363,1.30576 0.09899,1.19751 0.813123,-1.1e-4 0.954923,1.17542 1.548514,1.6383 0.03373,0.63263 0.807166,0.14684 1.014036,0.58068 m -21.6387,-8.950644 c 0.906229,-0.05831 2.271654,0.215921 2.772117,0.787113 -0.520909,0.974938 -1.741129,1.297691 -2.184543,2.374694 -0.275546,0.725967 -0.750714,1.718077 -0.551155,2.422047 0.869965,0.12427 2.146727,0.75652 2.74407,0.003 0.616409,-0.80388 0.487243,-2.38037 1.602744,-2.633367 0.810404,-0.497654 1.641188,-0.06338 2.310741,0.465973 0.469811,0.447024 -0.793859,1.116964 -0.112242,1.556844" />
      <g
         id="g50"
         inkscape:label="numbers"
         style="display:inline;stroke-width:0.982527"
         transform="matrix(1,0,0,1.0358829,0,-0.07689973)">
        <path
           d="m 23.708134,15.578411 c -0.12846,0 -0.248891,-0.04817 -0.361293,-0.144518 -0.112402,-0.09634 -0.168603,-0.232833 -0.168603,-0.409465 0,-0.176632 0.04014,-0.329178 0.120431,-0.457638 0.09634,-0.144517 0.264948,-0.345236 0.50581,-0.602155 0.240862,-0.272977 0.465666,-0.553982 0.674413,-0.843017 l 0.794845,-1.059793 c 0.112402,-0.144517 0.31312,-0.465666 0.602155,-0.963448 0.289035,-0.513839 0.562012,-0.939361 0.818931,-1.2765683 0.272977,-0.3532643 0.513839,-0.5298964 0.722586,-0.5298964 0.337207,0 0.800562,0.4972527 0.912964,1.5249307 0.09634,0.867103 0.474273,2.59929 0.771189,5.092291 0.301309,2.529878 0.224133,4.854708 -0.297567,6.546089 -0.326063,1.057114 -0.530301,1.642164 -0.612715,1.755149 -0.19803,0.230822 -0.367514,0.317701 -0.508455,0.260633 -0.197316,-0.0799 -0.292753,-0.438691 -0.286309,-1.076386 0.0024,-0.67593 0.701929,-2.709866 0.693959,-6.128374 -0.0081,-3.470166 -1.12268,-4.891299 -1.299309,-4.891299 -0.12846,0 -0.38538,0.264948 -0.770759,0.794845 -0.385379,0.529896 -0.802873,1.067821 -1.252482,1.613775 -0.433552,0.529897 -0.786816,0.794845 -1.059793,0.794845 z"
           id="text42"
           style="font-size:24.0862px;line-height:1.25;font-family:Purisa;-inkscape-font-specification:Purisa;letter-spacing:0px;word-spacing:0px;display:inline;stroke-width:0.591633"
           transform="matrix(1.0436097,-0.00959953,0.20716274,0.95630707,0,0)"
           aria-label="1"
           sodipodi:nodetypes="sssccccccscsscscssscss" />
        <path
           d="m 54.369564,29.109418 c 0.509444,0 0.83527,0.08561 1.057335,0.137862 0.235128,0.05225 0.372286,0.117567 0.411474,0.19594 0.05225,0.06531 0.07838,0.182877 0.07838,0.352692 0,0.209003 -0.111033,0.326567 -0.333098,0.352692 -0.209003,0.02613 -0.705384,0.05878 -1.489144,0.09797 -0.78376,0.03919 -1.613239,0.143688 -2.488438,0.313504 -0.613945,0.117564 -1.27361,0.222065 -1.978994,0.313504 -0.705384,0.104501 -1.221359,0.182877 -1.547926,0.235128 -0.326567,0.06531 -0.535569,0.143689 -0.627008,0.235128 -0.104501,0.09144 -0.248191,0.137158 -0.431068,0.137158 -0.209003,0 -0.404943,-0.05878 -0.58782,-0.176346 -0.169815,-0.117564 -0.254722,-0.254722 -0.254722,-0.411474 0,-0.169815 0.215534,-0.535569 0.646602,-1.097264 0.444131,-0.574757 0.849073,-1.025419 1.214828,-1.351986 0.470256,-0.39188 1.123389,-1.423831 1.9594,-3.095852 0.849073,-1.685083 1.27361,-3.056663 1.27361,-4.114739 0,-0.431068 -0.124095,-0.724978 -0.372286,-0.88173 -0.235128,-0.156752 -0.646602,-0.235128 -1.234422,-0.235128 -1.410768,0 -2.828067,0.718447 -4.251898,2.15534 -0.888261,0.862135 -1.358517,1.293203 -1.410768,1.293203 -0.06531,0 -0.09797,-0.222065 -0.09797,-0.666195 0,-0.457193 0.169815,-0.777229 0.509444,-0.960106 0.352692,-0.169815 0.529038,-0.346161 0.529038,-0.529038 0,-0.06531 0.02613,-0.137158 0.07838,-0.215534 0.06531,-0.09144 0.156752,-0.182877 0.274316,-0.274316 0.130627,-0.104501 0.248191,-0.19594 0.352692,-0.274316 0.117564,-0.09144 0.274316,-0.202471 0.470256,-0.333098 0.19594,-0.143689 0.352692,-0.261253 0.470256,-0.352692 0.261253,-0.222065 0.68579,-0.444131 1.27361,-0.666196 0.600883,-0.235128 1.254016,-0.352692 1.9594,-0.352692 1.188703,0 2.041622,0.279301 2.394314,0.932434 0.14369,0.248191 0.382658,0.758119 0.382658,1.345939 0,1.071138 -0.146671,2.157984 -0.538551,3.163809 -0.287379,0.679258 -0.751952,1.631752 -1.52265,2.885768 -0.757634,1.240953 -1.434087,1.811253 -1.812905,2.163945 -0.06072,0.120158 -0.226136,0.236804 -0.215534,0.274316 0.0037,0.01322 0.295469,-0.0449 0.347723,-0.0449 0.01306,0 0.07028,0.0057 0.710357,-0.111851 0.640071,-0.117564 1.31987,-0.184527 2.273445,-0.302091 0.807691,-0.105657 1.691214,-0.144096 2.527684,-0.138783 z"
           id="text43"
           style="font-size:19.594px;line-height:1.25;font-family:Purisa;-inkscape-font-specification:Purisa;letter-spacing:0px;word-spacing:0px;stroke-width:0.48129"
           transform="matrix(0.84882145,0.34873085,-0.58631201,0.93722292,0,0)"
           aria-label="2&#10;"
           sodipodi:nodetypes="cccscsccccscscccscscsscsccccccscscccssscc" />
        <path
           d="m 47.444282,45.291826 q -0.528893,0 -2.115573,0.251854 -1.561495,0.226668 -2.946692,0.478522 -1.360012,0.251854 -1.410382,0.251854 -0.327411,0 -0.327411,-0.32741 0,-0.453337 -0.302224,-0.453337 -0.27704,0 -0.27704,-0.251854 0,-0.176298 0.805933,-0.428152 0.831118,-0.251854 2.065203,-0.503708 1.234084,-0.251854 2.417798,-0.478522 1.208899,-0.226669 2.19113,-0.377781 1.007416,-0.176298 1.108158,-0.201484 0.277039,-0.05037 0.554078,-0.100741 0.302225,-0.07556 0.428152,-0.100742 0.151113,-0.02519 0.201483,-0.02519 0.251854,0 0.528894,0.377781 0.302225,0.377781 0.302225,0.680006 0,0.302224 -1.737793,2.266686 -1.712607,1.939275 -1.712607,2.040017 0,0.151112 0.831118,0.151112 0.705191,0 1.637051,0.906675 0.93186,0.881489 1.158528,1.762978 0.100742,0.377781 0.100742,0.957045 0,2.115574 -1.082972,3.828181 -0.881489,1.385197 -2.51854,2.266686 -1.637051,0.856303 -3.097804,0.856303 -1.637051,0 -2.090389,-1.032601 -0.352595,-0.705191 -0.352595,-1.561495 0,-1.032601 0.478522,-1.032601 0.428152,0 0.805933,0.503708 0.402967,0.503708 0.402967,1.082972 0.02519,0.428152 0.201483,0.528893 0.201483,0.100742 0.957045,0.100742 1.032601,0 2.165944,-0.60445 1.133343,-0.629635 1.813349,-1.561494 0.60445,-0.831119 0.60445,-2.594097 0,-1.561494 -0.402967,-2.191129 -0.377781,-0.654821 -1.360011,-0.654821 -0.93186,0 -1.58668,0.27704 -0.629635,0.277039 -1.032602,0.579264 -0.402966,0.277039 -0.755562,0.277039 -0.377781,0 -0.604449,-0.226668 -0.226669,-0.226669 -0.226669,-0.60445 0,-0.478523 0.302225,-0.478523 0.32741,0 1.032601,-0.755562 2.997063,-3.450399 2.997063,-3.82818 0,-0.05037 -0.151113,-0.05037 z"
           id="text46"
           style="font-size:25.1854px;line-height:1.25;font-family:Purisa;-inkscape-font-specification:Purisa;letter-spacing:0px;word-spacing:0px;stroke-width:0.618633"
           transform="matrix(0.8870077,0.38538758,-0.47097882,0.92275479,0,0)"
           aria-label="3&#10;&#10;" />
        <path
           d="m -21.640841,88.177334 c 0.189264,0 0.346984,-0.110404 0.47316,-0.331212 0.141948,-0.220808 0.291782,-0.331212 0.449502,-0.331212 0.15772,0 0.291782,0.07097 0.402186,0.212922 0.126176,0.126176 0.189264,0.252352 0.189264,0.378528 0,0.331212 -0.173492,0.67031 -0.520476,1.017294 -0.268124,0.299668 -0.43373,0.599336 -0.496818,0.899004 -0.04731,0.299668 -0.411426,1.176493 -0.411426,2.280533 0,0.899004 -0.14734,1.636518 -0.100027,2.062362 0.04731,0.410072 0.09463,0.654538 0.141948,0.733398 0.06309,0.06309 0.165605,0.09463 0.307554,0.09463 0.220808,0 0.559906,-0.07886 1.017294,-0.23658 0.457388,-0.15772 0.741284,-0.27601 0.851688,-0.35487 0.06309,-0.06309 0.173491,-0.09463 0.331212,-0.09463 0.252352,0 0.496818,0.07886 0.733398,0.23658 0.252352,0.141948 0.378528,0.323326 0.378528,0.544134 0,0.15772 -0.07097,0.307554 -0.212922,0.449502 -0.141948,0.126176 -0.339098,0.19715 -0.59145,0.212922 -0.47316,0.06309 -1.056724,0.205035 -1.750692,0.425844 l -1.06461,0.35487 0.138401,2.004174 c 0.03155,0.725512 0.562317,1.057884 0.656946,1.531043 0.09463,0.47316 0.181378,0.80437 0.260238,0.99364 0.07886,0.18926 0.11829,0.32332 0.11829,0.40218 0,0.15772 -0.08675,0.31544 -0.260238,0.47316 -0.173492,0.17349 -0.339098,0.26024 -0.496818,0.26024 -0.55202,0 -1.39823,-0.97902 -1.603266,-3.470999 -0.07886,-0.741284 -0.185719,-1.231346 -0.233035,-1.436382 -0.04731,-0.205036 -0.134059,-0.307554 -0.260238,-0.307554 l -1.868982,0.402186 c -1.26176,0.268124 -1.617768,0.152125 -2.090928,0.152125 -0.567792,0 -0.851688,-0.173492 -0.851688,-0.520476 0,-0.346984 0.299668,-0.977864 0.899004,-1.89264 1.151357,-1.719148 2.302713,-3.335778 3.454069,-4.84989 1.167128,-1.514112 1.837438,-2.279054 2.01093,-2.294826 z m -2.60238,7.830798 c 0.883232,-0.189264 0.908027,-0.08904 1.097291,-0.199441 0.189264,-0.126176 0.283896,-0.386414 0.283896,-0.780714 0,-0.346984 0.123681,-1.052954 0.02905,-1.96773 l 0.17485,-1.760057 -0.993636,1.206558 c -0.457388,0.567792 -0.977864,1.309076 -1.561428,2.223852 -0.583564,0.899004 -0.875346,1.427366 -0.875346,1.585086 0,0.01577 0.0079,0.02366 0.02366,0.02366 0.15772,0 0.764942,-0.110404 1.821666,-0.331212 z"
           id="text50"
           style="font-size:23.658px;line-height:1.25;font-family:Purisa;-inkscape-font-specification:Purisa;letter-spacing:0px;word-spacing:0px;display:inline;stroke-width:0.581114"
           transform="matrix(1.1060665,0.29258092,0.41607267,1.0141659,0,0)"
           aria-label="4&#10;&#10;"
           sodipodi:nodetypes="scscsccsccsscscscccccssscscsccssccssscsccccssss" />
      </g>
    </g>
    <path
       id="path64"
       style="display:inline;font-variation-settings:normal;opacity:1;fill:#45575e;fill-opacity:0.114194;stroke:none;stroke-width:0.9;stroke-linecap:round;stroke-linejoin:round;stroke-miterlimit:4;stroke-dasharray:none;stroke-dashoffset:0;stroke-opacity:0.422594"
       d="m 111.83355,44.6816 6.25519,1.017691 c 0.37192,-0.920726 -0.24907,-3.579506 -2.08813,-4.510179 -1.88871,1.039503 -3.2366,2.213927 -4.16706,3.492488 z m -16.042281,12.602959 7.239251,1.331682 c -1.33452,7.045804 -0.27757,11.335225 4.62336,24.810723 4.83064,13.282266 1.73824,26.413246 -7.63854,26.959876 -6.248143,-4.89117 -7.677149,-21.731389 -9.146055,-34.884834 z m 2.595073,-35.505176 c 0.968839,14.486184 -5.556051,35.048449 -10.213506,48.964309 -2.583462,7.719041 -0.584751,28.413987 8.148623,39.837038 l -17.999302,-4.16657 c 0.57334,-3.16659 1.401202,-4.55619 1.718511,-9.510313 C 79.347316,83.818262 71.682771,65.141649 74.808804,48.329277 76.400075,39.771133 78.449801,33.11337 87.69786,23.359611 92.423973,20.042887 95.622733,18.64041 98.386342,21.779383 Z m -28.211632,9.12393 5.636015,0.87308 c -7.091908,17.584741 -7.300596,23.525393 -7.526211,32.042929 -0.482917,18.231311 12.058311,35.785056 2.790194,49.086778 -2.712163,3.89253 -9.466986,4.8233 -9.466986,4.8233 C 51.712964,115.99658 47.856727,96.727922 51.215242,79.794501 53.534384,68.101532 64.687638,47.169211 70.17471,30.903313 Z"
       inkscape:label="shadow" />
    <path
       id="path36"
       style="font-variation-settings:normal;display:inline;fill:none;fill-opacity:1;stroke:#fcfcfc;stroke-width:0.9;stroke-linecap:round;stroke-linejoin:miter;stroke-miterlimit:10;stroke-dasharray:none;stroke-dashoffset:0;stroke-opacity:1;stop-color:#000000"
       d="M 15.874222,107.70684 C 8.4990551,105.48749 4.6825832,91.314591 5.0491818,79.141038 5.821992,53.478513 26.215444,37.460196 25.581307,11.757343 25.504395,8.6399703 22.424467,3.5072225 22.424467,3.5072225 L 67.43257,9.5245491 c 0,0 3.208058,6.1175679 3.275744,9.3639379 0.553901,26.56648 -20.577006,42.695396 -21.145596,69.332657 -0.28017,13.125416 2.272384,27.552466 12.516926,29.807096 m 2.699526,0.47996 c 7.106597,0.38743 12.867822,-6.7189 14.424925,-18.668429 C 80.906311,86.77662 71.625573,68.742347 73.377034,52.237408 74.067405,45.731687 80.255296,22.524934 91.873784,20.463705 L 71.272283,17.7031 m 26.114743,2.732107 c 9.167294,4.071787 -5.414021,42.665883 -6.343462,55.999686 -0.779832,11.187494 3.368832,33.880107 9.145326,34.742857 m 1.90125,0.39757 c 8.84107,-1.19448 11.90666,-7.26068 11.91557,-19.062157 0.008,-10.856285 -8.4918,-21.078883 -8.51938,-31.207941 -0.0189,-6.926719 4.89537,-18.302648 9.26715,-19.999436 l -14.75214,-2.149498 m 16.17801,1.925012 c 2.07395,0.278241 3.2455,2.70638 3.54573,4.939078 l -7.38983,-1.119814"
       inkscape:label="light lines"
       sodipodi:nodetypes="cssccssccsscccsccssccccc" />
    <path
       id="path60"
       style="font-variation-settings:normal;display:inline;vector-effect:none;fill:none;fill-opacity:1;stroke:#607681;stroke-width:1;stroke-linecap:round;stroke-linejoin:miter;stroke-miterlimit:10;stroke-dasharray:none;stroke-dashoffset:0;stroke-opacity:1;-inkscape-stroke:none;stop-color:#000000"
       d="m 67.893019,8.9092543 c 0,0 3.226259,5.8987257 3.306346,9.1447927 0.660316,26.763932 -20.000136,43.502941 -21.116044,70.212877 -0.547984,13.116346 2.320531,27.720116 12.565073,29.974746 9.682038,2.13084 15.485372,-6.66674 17.042475,-18.616263 1.702216,-13.06315 -7.547297,-29.614701 -5.795836,-46.11964 0.690371,-6.505721 6.340668,-33.335012 22.044018,-33.310393 13.035379,0.02043 -3.785917,42.664158 -4.505484,56.01188 -0.58082,10.773999 2.540724,36.347616 11.281653,35.389756 10.63304,-1.16519 11.93681,-10.50703 11.69667,-21.277394 -0.20411,-9.154454 -8.56713,-18.358772 -8.59469,-28.48783 -0.0276,-10.137011 10.93167,-30.33276 14.17185,-15.590069 l -8.38092,-1.258108 M 100.92844,111.49408 78.29226,106.6459 M 116.45648,41.044895 99.791776,38.555468 M 96.41051,20.189013 71.057861,16.703269 M 62.615366,118.26508 16.416803,107.97431 C 6.6120038,105.80768 4.0168734,91.360122 4.383472,79.186569 5.1562822,53.524045 25.296489,37.460196 24.662352,11.757343 24.58544,8.6399703 21.501523,2.9757577 21.501523,2.9757577 l 46.376184,5.8619202"
       inkscape:label="small outline" />
  </g>
</svg>
