<?xml version="1.0" encoding="UTF-8" standalone="no"?>
<!-- Created with Inkscape (http://www.inkscape.org/) -->

<svg
   width="128"
   height="128"
   id="svg2301"
   sodipodi:version="0.32"
   inkscape:version="1.2.1 (1:1.2.1+202210291244+9c6d41e410)"
   version="1.0"
   sodipodi:docname="training.svg"
   inkscape:output_extension="org.inkscape.output.svg.inkscape"
   xmlns:inkscape="http://www.inkscape.org/namespaces/inkscape"
   xmlns:sodipodi="http://sodipodi.sourceforge.net/DTD/sodipodi-0.dtd"
   xmlns:xlink="http://www.w3.org/1999/xlink"
   xmlns="http://www.w3.org/2000/svg"
   xmlns:svg="http://www.w3.org/2000/svg"
   xmlns:rdf="http://www.w3.org/1999/02/22-rdf-syntax-ns#"
   xmlns:cc="http://creativecommons.org/ns#"
   xmlns:dc="http://purl.org/dc/elements/1.1/">
  <defs
     id="defs2303">
    <linearGradient
       id="linearGradient3964">
      <stop
         style="stop-color:#f3ed9c;stop-opacity:1;"
         offset="0"
         id="stop3966" />
      <stop
         id="stop3972"
         offset="0.2154889"
         style="stop-color:#e3d61f;stop-opacity:1;" />
      <stop
         style="stop-color:#ebdf5a;stop-opacity:1;"
         offset="1"
         id="stop3968" />
    </linearGradient>
    <linearGradient
       id="linearGradient3954">
      <stop
         id="stop3956"
         offset="0"
         style="stop-color:#d1c41a;stop-opacity:1;" />
      <stop
         id="stop3958"
         offset="1"
         style="stop-color:#ebdf5a;stop-opacity:1;" />
    </linearGradient>
    <linearGradient
       id="linearGradient3946">
      <stop
         style="stop-color:#eae15e;stop-opacity:1;"
         offset="0"
         id="stop3948" />
      <stop
         style="stop-color:#f9f6d2;stop-opacity:1;"
         offset="1"
         id="stop3950" />
    </linearGradient>
    <linearGradient
       inkscape:collect="always"
       id="linearGradient3758">
      <stop
         style="stop-color:#ffffff;stop-opacity:1;"
         offset="0"
         id="stop3760" />
      <stop
         style="stop-color:#ffffff;stop-opacity:0;"
         offset="1"
         id="stop3762" />
    </linearGradient>
    <linearGradient
       id="linearGradient3353">
      <stop
         style="stop-color:#f1d762;stop-opacity:1;"
         offset="0"
         id="stop3355" />
      <stop
         style="stop-color:#e5bc09;stop-opacity:1;"
         offset="1"
         id="stop3357" />
    </linearGradient>
    <linearGradient
       id="linearGradient3337">
      <stop
         style="stop-color:#000000;stop-opacity:0.21201414;"
         offset="0"
         id="stop3339" />
      <stop
         style="stop-color:#000000;stop-opacity:0;"
         offset="1"
         id="stop3341" />
    </linearGradient>
    <linearGradient
       id="linearGradient3309">
      <stop
         style="stop-color:#ffffff;stop-opacity:0;"
         offset="0"
         id="stop3311" />
      <stop
         id="stop3317"
         offset="0.5"
         style="stop-color:#ffffff;stop-opacity:0.09187279;" />
      <stop
         style="stop-color:#ffffff;stop-opacity:0;"
         offset="1"
         id="stop3313" />
    </linearGradient>
    <linearGradient
       id="linearGradient3257">
      <stop
         style="stop-color:#727272;stop-opacity:1;"
         offset="0"
         id="stop3259" />
      <stop
         style="stop-color:#252525;stop-opacity:1;"
         offset="1"
         id="stop3261" />
    </linearGradient>
    <linearGradient
       id="linearGradient3220">
      <stop
         id="stop3222"
         offset="0"
         style="stop-color:#727272;stop-opacity:1;" />
      <stop
         id="stop3224"
         offset="0.95717156"
         style="stop-color:#252525;stop-opacity:1;" />
      <stop
         id="stop3226"
         offset="1"
         style="stop-color:#4e4e4e;stop-opacity:1;" />
    </linearGradient>
    <linearGradient
       inkscape:collect="always"
       xlink:href="#linearGradient3220"
       id="linearGradient3218"
       gradientUnits="userSpaceOnUse"
       gradientTransform="matrix(1.2447813,0,0,1.1822429,-4.8016004,2.5712365)"
       x1="6.4722676"
       y1="59.371811"
       x2="84.698235"
       y2="60.788795" />
    <filter
       inkscape:collect="always"
       id="filter3248"
       x="-0.012343855"
       y="-0.040019157"
       width="1.0246877"
       height="1.0800383">
      <feGaussianBlur
         inkscape:collect="always"
         stdDeviation="0.44135711"
         id="feGaussianBlur3250" />
    </filter>
    <linearGradient
       inkscape:collect="always"
       xlink:href="#linearGradient3257"
       id="linearGradient3265"
       gradientUnits="userSpaceOnUse"
       gradientTransform="matrix(1.2447813,0,0,1.1822429,-4.8016004,2.5712365)"
       x1="9.4258709"
       y1="43.462215"
       x2="111.45006"
       y2="63.554596" />
    <filter
       inkscape:collect="always"
       id="filter3291"
       x="-0.022765662"
       width="1.0455313"
       y="-0.097669171"
       height="1.1953383">
      <feGaussianBlur
         inkscape:collect="always"
         stdDeviation="0.51654569"
         id="feGaussianBlur3293" />
    </filter>
    <linearGradient
       inkscape:collect="always"
       xlink:href="#linearGradient3309"
       id="linearGradient3315"
       x1="37.547501"
       y1="52.768871"
       x2="50.981544"
       y2="56.470325"
       gradientUnits="userSpaceOnUse" />
    <linearGradient
       inkscape:collect="always"
       xlink:href="#linearGradient3309"
       id="linearGradient3321"
       gradientUnits="userSpaceOnUse"
       x1="37.547501"
       y1="52.768871"
       x2="50.981544"
       y2="56.470325"
       gradientTransform="matrix(0.7770822,-0.1878117,0.1881322,0.7757584,45.652449,42.687573)" />
    <radialGradient
       inkscape:collect="always"
       xlink:href="#linearGradient3337"
       id="radialGradient3343"
       cx="59.345821"
       cy="51.057468"
       fx="59.345821"
       fy="51.057468"
       r="59.328125"
       gradientTransform="matrix(0.5895286,0.145775,-7.932843e-2,0.3208122,30.892972,32.365539)"
       gradientUnits="userSpaceOnUse" />
    <linearGradient
       inkscape:collect="always"
       xlink:href="#linearGradient3353"
       id="linearGradient3359"
       x1="101.65099"
       y1="84.173958"
       x2="119.41079"
       y2="88.839622"
       gradientUnits="userSpaceOnUse"
       gradientTransform="matrix(0.7995314,0,0,0.7981694,16.013255,14.652713)" />
    <radialGradient
       inkscape:collect="always"
       xlink:href="#linearGradient3353"
       id="radialGradient3367"
       cx="109.48462"
       cy="69.371643"
       fx="109.48462"
       fy="69.371643"
       r="3.0003161"
       gradientUnits="userSpaceOnUse" />
    <radialGradient
       inkscape:collect="always"
       xlink:href="#linearGradient3353"
       id="radialGradient3369"
       gradientUnits="userSpaceOnUse"
       cx="55.544483"
       cy="67.901146"
       fx="55.544483"
       fy="67.901146"
       r="3.0003161"
       gradientTransform="matrix(0.9899032,-0.134112,8.6889999e-2,0.5741333,-5.3391076,36.366018)" />
    <filter
       inkscape:collect="always"
       id="filter3540"
       x="-0.079021708"
       y="-0.12033533"
       width="1.1580434"
       height="1.2406707">
      <feGaussianBlur
         inkscape:collect="always"
         stdDeviation="0.20805865"
         id="feGaussianBlur3542" />
    </filter>
    <filter
       inkscape:collect="always"
       id="filter3592"
       x="-0.0049505987"
       y="-0.015871939"
       width="1.0099012"
       height="1.0317439">
      <feGaussianBlur
         inkscape:collect="always"
         stdDeviation="0.098641188"
         id="feGaussianBlur3594" />
    </filter>
    <filter
       inkscape:collect="always"
       id="filter3667"
       x="-0.067518215"
       y="-0.068335745"
       width="1.1350364"
       height="1.1366715">
      <feGaussianBlur
         inkscape:collect="always"
         stdDeviation="0.15814843"
         id="feGaussianBlur3669" />
    </filter>
    <linearGradient
       inkscape:collect="always"
       xlink:href="#linearGradient3758"
       id="linearGradient3764"
       x1="103.21245"
       y1="95.335052"
       x2="110.6119"
       y2="90.346138"
       gradientUnits="userSpaceOnUse"
       gradientTransform="matrix(0.7995314,0,0,0.7981694,16.013255,14.652713)" />
    <filter
       inkscape:collect="always"
       id="filter3920"
       x="-0.19714285"
       width="1.3942857"
       y="-0.20294117"
       height="1.4058823">
      <feGaussianBlur
         inkscape:collect="always"
         stdDeviation="0.16358279"
         id="feGaussianBlur3922" />
    </filter>
    <linearGradient
       inkscape:collect="always"
       xlink:href="#linearGradient3946"
       id="linearGradient3952"
       x1="58.492661"
       y1="58.084774"
       x2="55.118774"
       y2="36.69099"
       gradientUnits="userSpaceOnUse"
       gradientTransform="matrix(0.7995314,0,0,0.7981694,16.013255,14.652713)" />
    <filter
       inkscape:collect="always"
       id="filter4026"
       x="-0.047613539"
       width="1.0952271"
       y="-0.10100143"
       height="1.2020029">
      <feGaussianBlur
         inkscape:collect="always"
         stdDeviation="2.9165286"
         id="feGaussianBlur4028" />
    </filter>
    <linearGradient
       inkscape:collect="always"
       xlink:href="#linearGradient3954"
       id="linearGradient4030"
       gradientUnits="userSpaceOnUse"
       x1="-8.113081"
       y1="43.97398"
       x2="-3.6422913"
       y2="64.002205"
       gradientTransform="matrix(0.6147042,0,0,0.7981694,13.462203,14.834371)" />
    <linearGradient
       inkscape:collect="always"
       xlink:href="#linearGradient3964"
       id="linearGradient4032"
       gradientUnits="userSpaceOnUse"
       x1="-15.230017"
       y1="56.687675"
       x2="-8.1402922"
       y2="72.370712"
       gradientTransform="matrix(0.6147042,0,0,0.7981694,13.462203,14.834371)" />
    <linearGradient
       inkscape:collect="always"
       xlink:href="#linearGradient3946"
       id="linearGradient4034"
       gradientUnits="userSpaceOnUse"
       x1="58.492661"
       y1="58.084774"
       x2="55.118774"
       y2="36.69099"
       gradientTransform="matrix(0.7995315,0,0,0.7981694,16.013255,14.652714)" />
    <filter
       inkscape:collect="always"
       id="filter4153"
       x="-0.091870923"
       width="1.1837418"
       y="-0.14745283"
       height="1.2949057">
      <feGaussianBlur
         inkscape:collect="always"
         stdDeviation="0.38399175"
         id="feGaussianBlur4155" />
    </filter>
  </defs>
  <sodipodi:namedview
     id="base"
     pagecolor="#ffffff"
     bordercolor="#666666"
     borderopacity="1.0"
     inkscape:pageopacity="0.0"
     inkscape:pageshadow="2"
     inkscape:zoom="4"
     inkscape:cx="74.375"
     inkscape:cy="89.875"
     inkscape:document-units="px"
     inkscape:current-layer="layer3"
     inkscape:window-width="1868"
     inkscape:window-height="1016"
     inkscape:window-x="52"
     inkscape:window-y="27"
     showgrid="false"
     showguides="true"
     inkscape:guide-bbox="true"
     inkscape:showpageshadow="2"
     inkscape:pagecheckerboard="0"
     inkscape:deskcolor="#d1d1d1"
     inkscape:window-maximized="1" />
  <metadata
     id="metadata2306">
    <rdf:RDF>
      <cc:Work
         rdf:about="">
        <dc:format>image/svg+xml</dc:format>
        <dc:type
           rdf:resource="http://purl.org/dc/dcmitype/StillImage" />
      </cc:Work>
    </rdf:RDF>
  </metadata>
  <g
     inkscape:groupmode="layer"
     id="layer4"
     inkscape:label="shadow"
     style="display:inline">
    <path
       style="fill:#000000;fill-opacity:0.14617938;fill-rule:evenodd;stroke:none;stroke-width:1px;stroke-linecap:butt;stroke-linejoin:miter;stroke-opacity:1;filter:url(#filter4026)"
       d="M 117.481,46.567968 C 116.19353,46.567968 -11.909032,73.60469 -11.909032,73.60469 L 0.32186574,85.513722 L 6.1154491,84.869991 L 1.287463,88.088648 L 84.092582,115.87064 L 99.517929,104.28348 C 106.95935,108.34077 112.79393,109.17889 118.76846,110.29738 L 121.02152,80.685736 L 135.10102,68.617616 L 123.19387,61.695657 L 132.12447,51.388572 L 117.481,46.567968 z"
       id="path3984"
       transform="matrix(0.7995314,0,0,0.7981694,16.013255,14.652713)"
       sodipodi:nodetypes="ccccccccccccc" />
  </g>
  <g
     inkscape:groupmode="layer"
     id="layer3"
     inkscape:label="diploma"
     style="display:inline">
    <path
       style="opacity:1;fill:url(#linearGradient4034);fill-opacity:1;fill-rule:evenodd;stroke:#a1991b;stroke-width:3.99999976;stroke-linecap:butt;stroke-linejoin:miter;marker:none;marker-start:none;marker-mid:none;marker-end:none;stroke-miterlimit:30;stroke-dasharray:none;stroke-dashoffset:0;stroke-opacity:1;visibility:visible;display:inline;overflow:visible;enable-background:accumulate"
       d="M 106.31034,33.883608 C 106.03345,33.871486 105.74635,33.880168 105.46083,33.908551 C 75.641454,42.739076 41.636326,46.024283 8.9174137,47.128233 C 6.355934,47.193357 4.376131,52.758952 4.3201078,59.574688 L 2.870957,59.849058 C 3.2995451,61.115999 3.4234085,63.206066 3.570547,64.288876 C 4.3189677,69.796588 6.5951362,73.841964 8.9174137,73.841966 C 9.2588384,73.864447 9.554126,73.68947 9.8668573,73.592538 C 41.386192,64.652555 73.0421,58.02842 105.83562,57.554321 C 109.85799,56.73686 113.58108,53.030764 113.58108,45.656608 C 113.58108,38.743338 110.46363,34.065458 106.31034,33.883608 z"
       id="path3974"
       sodipodi:nodetypes="cccccscccsc" />
    <path
       style="opacity:1;fill:url(#linearGradient3952);fill-opacity:1;fill-rule:evenodd;stroke:none;stroke-width:0.80000001;stroke-linecap:butt;stroke-linejoin:miter;marker:none;marker-start:none;marker-mid:none;marker-end:none;stroke-miterlimit:30;stroke-dasharray:none;stroke-dashoffset:0;stroke-opacity:1;visibility:visible;display:inline;overflow:visible;enable-background:accumulate"
       d="M 106.31034,33.883606 C 106.03345,33.871484 105.74636,33.880166 105.46083,33.908549 C 75.641453,42.739074 41.636326,46.02428 8.9174134,47.12823 C 11.756989,47.128231 14.064398,53.09847 14.064398,60.472624 C 14.064398,67.060098 12.208587,72.523488 9.7919009,73.617476 C 41.262466,65.962695 75.348873,55.829147 105.83562,57.554318 C 109.85799,56.736857 113.58108,53.03076 113.58108,45.656605 C 113.58108,38.743336 110.46363,34.065456 106.31034,33.883606 z"
       id="path3929" />
    <path
       sodipodi:nodetypes="ccsscs"
       id="path3941"
       d="M 13.98931,58.409933 C 14.029488,59.064396 14.045651,59.766807 14.055759,60.481308 C 14.055759,67.855463 11.751177,73.840285 8.911601,73.840285 C 6.5893232,73.840285 4.3236595,69.794446 3.5752387,64.286733 C 3.4281001,63.203925 3.2894904,61.114071 2.8609021,59.84713 L 4.3464625,59.582147"
       style="opacity:1;fill:url(#linearGradient4032);fill-opacity:1;fill-rule:evenodd;stroke:none;stroke-width:0.91237777;stroke-linecap:butt;stroke-linejoin:miter;marker:none;marker-start:none;marker-mid:none;marker-end:none;stroke-miterlimit:30;stroke-dasharray:none;stroke-dashoffset:0;stroke-opacity:1;visibility:visible;display:inline;overflow:visible;enable-background:accumulate" />
    <path
       style="fill:#000000;fill-rule:evenodd;stroke:none;stroke-width:1px;stroke-linecap:butt;stroke-linejoin:miter;stroke-opacity:1;fill-opacity:0.09966777;filter:url(#filter4153)"
       d="M 13.9375 63.3125 L 3.90625 66.03125 C 4.1755144 67.336999 4.4866396 68.5225 4.90625 69.5625 L 13.28125 67.5 C 13.586972 66.222078 13.811811 64.829522 13.9375 63.3125 z "
       id="path4036" />
    <path
       sodipodi:nodetypes="cccsc"
       id="path3939"
       d="M 14.055759,60.481308 C 13.980111,62.350181 13.896122,64.213503 13.568509,65.914685 C 9.9150765,66.678187 8.6098859,67.105707 5.2220225,67.96278 C 2.8625913,58.007462 5.3391458,47.213162 8.911601,47.122332 C 11.750232,47.049229 14.055759,53.107154 14.055759,60.481308 z"
       style="opacity:1;fill:url(#linearGradient4030);fill-opacity:1;fill-rule:evenodd;stroke:none;stroke-width:0.91237777;stroke-linecap:butt;stroke-linejoin:miter;marker:none;marker-start:none;marker-mid:none;marker-end:none;stroke-miterlimit:30;stroke-dasharray:none;stroke-dashoffset:0;stroke-opacity:1;visibility:visible;display:inline;overflow:visible;enable-background:accumulate" />
    <path
       style="opacity:1;fill:none;fill-opacity:1;fill-rule:evenodd;stroke:#f8f5d1;stroke-width:0.99999994;stroke-linecap:round;stroke-linejoin:miter;marker:none;marker-start:none;marker-mid:none;marker-end:none;stroke-miterlimit:30;stroke-dasharray:none;stroke-dashoffset:0;stroke-opacity:1;visibility:visible;display:inline;overflow:visible;enable-background:accumulate"
       d="M 9.9243656,47.065437 C 12.762997,46.992334 14.681641,53.107157 14.681641,60.481312 C 14.681641,67.855467 12.621695,73.140674 10.641298,73.220019"
       id="path4165"
       sodipodi:nodetypes="csc" />
    <path
       style="opacity:1;fill:none;fill-opacity:1;fill-rule:evenodd;stroke:#f8f5d1;stroke-width:0.8;stroke-linecap:round;stroke-linejoin:miter;marker:none;marker-start:none;marker-mid:none;marker-end:none;stroke-miterlimit:30;stroke-dasharray:none;stroke-dashoffset:0;stroke-opacity:1;visibility:visible;display:inline;overflow:visible;enable-background:accumulate"
       d="M 9.4629542,73.655199 C 7.0036851,73.796474 5.1202365,69.79445 4.3718159,64.286737 C 4.2246773,63.203928 4.0860682,61.114074 3.6574793,59.847133 L 4.0410888,59.722966"
       id="path4167"
       sodipodi:nodetypes="cscc" />
    <path
       style="opacity:1;fill:none;fill-opacity:1;fill-rule:evenodd;stroke:#f8f5d1;stroke-width:0.8;stroke-linecap:round;stroke-linejoin:miter;marker:none;marker-start:none;marker-mid:none;marker-end:none;stroke-miterlimit:30;stroke-dasharray:none;stroke-dashoffset:0;stroke-opacity:1;visibility:visible;display:inline;overflow:visible;enable-background:accumulate"
       d="M 14.324853,65.150258 C 10.671421,65.91376 9.36623,66.34128 5.9783664,67.198352 C 3.6189355,57.243033 5.3611703,47.270062 8.999083,47.182182"
       id="path4157"
       sodipodi:nodetypes="ccc" />
    <path
       id="path3943"
       style="opacity:1;fill:none;fill-opacity:1;fill-rule:evenodd;stroke:#c1b821;stroke-width:0.99999994;stroke-linecap:round;stroke-linejoin:miter;marker:none;marker-start:none;marker-mid:none;marker-end:none;stroke-miterlimit:30;stroke-dasharray:none;stroke-dashoffset:0;stroke-opacity:1;visibility:visible;display:inline;overflow:visible;enable-background:accumulate"
       d="M 8.9570934,47.122335 C 11.795725,47.049232 14.055759,53.107157 14.055759,60.481312 C 14.055759,67.855467 11.796669,73.738106 8.9343473,73.87435 M 13.568509,65.914689 C 9.9150768,66.678191 8.6098861,67.105711 5.2220225,67.962783 C 2.8625916,58.007464 5.2140432,47.213164 8.8519559,47.125284 C 41.636326,46.024283 75.641454,42.739076 105.46083,33.908551 C 105.74635,33.880168 106.03345,33.871486 106.31034,33.883608 C 110.46363,34.065458 113.58108,38.743338 113.58108,45.656608 C 113.58108,53.030764 109.85799,56.73686 105.83562,57.554321 C 75.348873,55.82915 40.454982,66.201125 8.9480096,73.876482 C 6.5893236,73.897057 4.3236594,69.79445 3.5752388,64.286737 C 3.4281002,63.203928 3.2894911,61.114074 2.8609022,59.847133 L 4.1899923,59.58215"
       sodipodi:nodetypes="csscccccsccscc" />
  </g>
  <g
     inkscape:label="hat main"
     inkscape:groupmode="layer"
     id="layer1"
     style="display:inline">
    <path
       style="opacity:1;fill:none;fill-opacity:1;fill-rule:nonzero;stroke:#171717;stroke-width:3.99999976;stroke-linecap:butt;stroke-linejoin:miter;marker:none;marker-start:none;marker-mid:none;marker-end:none;stroke-miterlimit:4;stroke-dasharray:none;stroke-dashoffset:0;stroke-opacity:1;visibility:visible;display:inline;overflow:visible"
       d="M 56.189711,43.361871 C 43.954915,51.509438 29.8225,58.005163 16.138183,64.862559 C 21.79467,67.013024 27.487115,68.956208 33.228167,70.774002 L 33.627933,75.762561 C 34.006586,80.489974 47.906404,87.809931 66.433707,87.809931 C 84.961017,87.809928 100.32788,81.514316 100.78858,75.762561 L 101.41321,67.930524 C 106.4288,64.183533 111.60079,60.468907 116.92912,56.806037 C 96.606433,52.630359 76.276428,48.479781 56.189711,43.361871 z"
       id="path3743" />
    <path
       sodipodi:nodetypes="cssscc"
       id="path2357"
       d="M 32.900932,66.674707 L 33.628805,75.762059 C 34.007458,80.48947 47.906248,87.811061 66.433552,87.811061 C 84.96086,87.811061 100.32164,81.513814 100.78235,75.762059 L 101.51022,66.674707 L 32.900932,66.674707 z"
       style="opacity:1;fill:#696969;fill-opacity:1;fill-rule:nonzero;stroke:none;stroke-width:1.25;stroke-linecap:butt;stroke-linejoin:miter;marker:none;marker-start:none;marker-mid:none;marker-end:none;stroke-miterlimit:4;stroke-dasharray:none;stroke-dashoffset:0;stroke-opacity:1;visibility:visible;display:inline;overflow:visible" />
    <path
       style="opacity:1;fill:url(#linearGradient3218);fill-opacity:1;fill-rule:nonzero;stroke:none;stroke-width:1.25;stroke-linecap:butt;stroke-linejoin:miter;marker:none;marker-start:none;marker-mid:none;marker-end:none;stroke-miterlimit:4;stroke-dasharray:none;stroke-dashoffset:0;stroke-opacity:1;visibility:visible;display:inline;overflow:visible;enable-background:accumulate"
       d="M 33.781978,67.31051 L 34.491156,75.733995 C 34.860084,80.116051 48.583881,86.357797 66.635348,86.357797 C 84.686819,86.357797 99.471129,81.065561 99.919995,75.733995 L 100.62917,67.31051 L 33.781978,67.31051 z"
       id="path3216"
       sodipodi:nodetypes="cssscc" />
    <path
       style="opacity:1;fill:#000000;fill-opacity:0.10963452;fill-rule:nonzero;stroke:none;stroke-width:1.25;stroke-linecap:butt;stroke-linejoin:miter;marker:none;marker-start:none;marker-mid:none;marker-end:none;stroke-miterlimit:4;stroke-dasharray:none;stroke-dashoffset:0;stroke-opacity:1;visibility:visible;display:inline;overflow:visible;filter:url(#filter3248)"
       d="M 21.125,65.1875 L 21.15625,65.4375 C 28.222906,73.730362 33.251804,82.896548 44.1875,89.53125 C 49.773297,90.833296 56.152136,91.65625 63.0625,91.65625 C 86.235208,91.656246 105.45504,83.768683 106.03125,76.5625 L 106.9375,65.1875 L 21.125,65.1875 z"
       id="path3230"
       sodipodi:nodetypes="cccsccc"
       transform="matrix(0.7995314,0,0,0.7981694,16.013255,14.652713)" />
    <path
       style="opacity:1;fill:url(#linearGradient3321);fill-opacity:1;fill-rule:nonzero;stroke:none;stroke-width:1.25;stroke-linecap:butt;stroke-linejoin:miter;marker:none;marker-start:none;marker-mid:none;marker-end:none;stroke-miterlimit:4;stroke-dasharray:none;stroke-dashoffset:0;stroke-opacity:1;visibility:visible;display:inline;overflow:visible;enable-background:accumulate"
       d="M 85.297652,66.68338 L 84.098355,67.75592 L 84.198296,85.78956 C 93.075085,83.661045 99.38111,80.140039 100.5887,76.68544 L 100.51373,66.68338 L 85.297652,66.68338 z"
       id="path3319" />
    <path
       style="opacity:1;fill:none;fill-opacity:1;fill-rule:nonzero;stroke:#202020;stroke-width:0.99999994;stroke-linecap:butt;stroke-linejoin:miter;marker:none;marker-start:none;marker-mid:none;marker-end:none;stroke-miterlimit:4;stroke-dasharray:none;stroke-dashoffset:0;stroke-opacity:1;visibility:visible;display:inline;overflow:visible"
       d="M 32.900932,66.67471 L 33.628805,75.762063 C 34.007458,80.489475 47.906248,87.811067 66.433552,87.811067 C 84.960861,87.811067 100.32165,81.513818 100.78235,75.762063 L 101.51022,66.67471"
       id="path3214"
       sodipodi:nodetypes="csssc" />
    <path
       sodipodi:nodetypes="ccccc"
       id="path2347"
       d="M 56.190032,43.371242 L 116.93055,56.806783 C 105.0243,65.680713 93.18112,74.634399 81.501275,83.794624 C 60.199012,78.419015 38.542558,72.363431 16.128589,64.853569 C 29.927865,58.093026 44.030496,51.605037 56.190032,43.371242 z"
       style="fill:#717171;fill-opacity:1;fill-rule:nonzero;stroke:none;stroke-width:1.25;stroke-linecap:butt;stroke-linejoin:miter;marker:none;marker-start:none;marker-mid:none;marker-end:none;stroke-miterlimit:4;stroke-dashoffset:0;stroke-opacity:1;visibility:visible;display:inline;overflow:visible" />
    <path
       style="opacity:1;fill:url(#linearGradient3265);fill-opacity:1;fill-rule:nonzero;stroke:none;stroke-width:1.25;stroke-linecap:butt;stroke-linejoin:miter;marker:none;marker-start:none;marker-mid:none;marker-end:none;stroke-miterlimit:4;stroke-dasharray:none;stroke-dashoffset:0;stroke-opacity:1;visibility:visible;display:inline;overflow:visible;enable-background:accumulate"
       d="M 56.300273,44.312822 C 45.029051,51.913248 32.025992,58.497828 19.286337,64.795203 C 39.229048,71.878744 59.963596,76.869917 80.60667,82.086812 C 91.150919,73.421591 102.57975,65.242053 114.0914,57.301152 C 94.96049,53.226707 75.8973,49.082498 56.300273,44.312822 z"
       id="path3254"
       sodipodi:nodetypes="ccccc" />
    <path
       sodipodi:nodetypes="ccccc"
       id="path2339"
       d="M 53.532094,61.558176 L 115.80754,76.300274 L 79.863564,99.049218 L 17.588114,81.242182 L 53.532094,61.558176 z"
       style="fill:none;fill-opacity:1;fill-rule:nonzero;stroke:#2f2f2f;stroke-width:0;stroke-linecap:butt;stroke-linejoin:miter;marker:none;marker-start:none;marker-mid:none;marker-end:none;stroke-miterlimit:4;stroke-dasharray:none;stroke-dashoffset:0;stroke-opacity:1;visibility:visible;display:inline;overflow:visible" />
    <path
       style="opacity:1;fill:url(#linearGradient3315);fill-opacity:1;fill-rule:nonzero;stroke:none;stroke-width:1.25;stroke-linecap:butt;stroke-linejoin:miter;marker:none;marker-start:none;marker-mid:none;marker-end:none;stroke-miterlimit:4;stroke-dasharray:none;stroke-dashoffset:0;stroke-opacity:1;visibility:visible;overflow:visible;enable-background:accumulate"
       d="M 50.25,35.96875 L 39.34375,41.84375 L 32.15625,72.1875 L 51.96875,77.9375 L 61.28125,38.40625 L 50.25,35.96875 z"
       id="rect3301" />
    <path
       style="fill:none;fill-opacity:1;fill-rule:nonzero;stroke:#202020;stroke-width:0.99999994;stroke-linecap:butt;stroke-linejoin:miter;marker:none;marker-start:none;marker-mid:none;marker-end:none;stroke-miterlimit:4;stroke-dasharray:none;stroke-dashoffset:0;stroke-opacity:1;visibility:visible;display:inline;overflow:visible"
       d="M 56.190033,43.371244 C 76.276751,48.489155 96.607873,52.631108 116.93055,56.806786 C 104.19484,65.561741 92.297411,74.555809 81.501275,83.79463 C 59.443945,78.320905 37.444547,72.957402 16.128589,64.853573 C 29.812908,57.996176 43.955236,51.518812 56.190033,43.371244 z"
       id="path3228"
       sodipodi:nodetypes="ccccc" />
    <path
       style="fill:#000000;fill-opacity:0.26910299;fill-rule:evenodd;stroke:none;stroke-width:2.5;stroke-linecap:butt;stroke-linejoin:miter;stroke-miterlimit:4;stroke-dasharray:none;stroke-opacity:1;filter:url(#filter3291)"
       d="M 61.84375,53.40625 C 60.269608,53.52042 57.307643,54.098726 56.609039,55.511133 C 54.596493,60.467402 64.103453,63.293514 67.510896,60.881978 L 107.11334,66.099198 L 110.78747,63.107416 L 67.8125,56.78125 C 67.111484,54.099348 64.332984,53.531299 61.84375,53.40625 z"
       id="path2474"
       sodipodi:nodetypes="ccccccc"
       transform="matrix(0.7995314,0,0,0.7981694,16.013255,14.652713)" />
    <path
       id="path3335"
       d="M 50.46875,37.5625 L 4.09375,62.5 L 81.59375,84.96875 L 122.75,53.59375 C 97.94566,48.859077 72.967095,44.76144 50.46875,37.5625 z"
       style="opacity:1;fill:url(#radialGradient3343);fill-opacity:1;fill-rule:nonzero;stroke:none;stroke-width:1.25;stroke-linecap:butt;stroke-linejoin:miter;marker:none;marker-start:none;marker-mid:none;marker-end:none;stroke-miterlimit:4;stroke-dasharray:none;stroke-dashoffset:0;stroke-opacity:1;visibility:visible;overflow:visible;enable-background:accumulate"
       sodipodi:nodetypes="ccccc" />
  </g>
  <g
     inkscape:groupmode="layer"
     id="layer2"
     inkscape:label="hat up"
     style="display:inline">
    <path
       style="display:inline;overflow:visible;visibility:visible;opacity:1;fill:none;fill-opacity:1;fill-rule:evenodd;stroke:#b38409;stroke-width:4;stroke-linecap:butt;stroke-linejoin:miter;stroke-miterlimit:30;stroke-dasharray:none;stroke-dashoffset:0;stroke-opacity:1;marker:none;marker-start:none;marker-mid:none;marker-end:none;enable-background:accumulate"
       d="m 65.059512,56.681323 c -1.209584,0.0593 -2.13921,0.560197 -2.273667,1.297025 -0.179275,0.982439 1.11366,2.04501 2.898302,2.369566 1.293866,0.235302 2.496214,0.01209 3.123169,-0.498856 l 36.428654,5.612129 c 0.13922,0.0316 0.21957,0.308402 0.19988,0.548741 l -0.025,4.215333 c -0.99716,0.394441 -1.69901,1.377415 -1.69901,2.519222 0,0.689969 0.24883,1.317263 0.6746,1.795881 -0.42197,1.545507 -1.38629,5.351079 -1.02439,7.058811 -4.945561,2.355273 -7.071339,5.812401 -13.242243,8.779864 l 2.09877,1.197254 c 2.502144,-1.466067 1.049874,0.144635 2.640422,-1.321432 -1.311247,1.920956 -0.263923,0.364139 -1.79092,2.069716 l 0.799531,0.773226 c 2.923607,-2.23295 2.930874,-1.608025 5.293226,-3.865597 -0.966865,2.364543 -1.271423,2.403105 -4.268826,4.68871 l 1.299239,0.972769 2.998243,-2.569108 -1.998829,2.94325 1.674019,0.673456 c 1.183718,-1.503507 2.123168,-1.10628 3.193168,-2.768725 -0.56118,1.734225 -0.64083,1.583243 -1.71902,3.317465 0.44499,0.115416 0.81847,0.2128 1.07436,0.274371 0.21462,-0.438203 0.53091,-0.784393 1.09935,-1.446681 -0.11368,0.757238 -0.10703,1.518668 -0.17489,1.745995 0.17097,0.04566 0.40629,0.03227 0.82451,0.199542 2.03052,-3.094996 1.81648,-3.797785 3.04421,-7.236245 -0.44325,3.532701 -0.008,4.252285 -1.42016,7.784987 0.93669,0.109477 2.28555,0.776204 2.77338,0.997712 0.089,-4.661463 1.3575,-11.937041 2.49853,-15.539361 0.10948,-4.916785 -1.2301,-6.949787 -1.84891,-8.505494 0.56014,-0.496608 0.92446,-1.214227 0.92446,-2.020366 0,-1.195855 -0.7945,-2.188859 -1.87391,-2.544165 v -5.312816 c 0.004,-0.295262 -0.25802,-0.724015 -0.54967,-0.773226 L 69.232067,58.676747 c -0.221404,-0.831464 -1.394741,-1.622216 -2.898301,-1.895653 -0.44616,-0.08114 -0.871058,-0.119537 -1.274254,-0.09977 z"
       id="path3724"
       sodipodi:nodetypes="cssccccsccccccccccccccccccccccccsccccsc" />
    <path
       style="fill:url(#linearGradient3359);fill-opacity:1;fill-rule:evenodd;stroke:none;stroke-width:1;stroke-linecap:butt;stroke-linejoin:miter;stroke-miterlimit:30;stroke-dasharray:none;stroke-opacity:1"
       d="m 108.23282,74.66932 -3.82257,0.21782 c -0.41303,1.505854 -1.34513,4.99028 -0.97865,6.719645 -4.945565,2.35527 -7.071032,5.816354 -13.241936,8.783817 l 2.104291,1.178331 c 2.502143,-1.466067 4.321824,-2.867909 5.912372,-4.333976 -1.311247,1.920955 -3.540513,3.375051 -5.067509,5.080629 l 0.789453,0.787947 c 2.92361,-2.232949 5.629872,-4.620593 7.992229,-6.878164 -0.96687,2.364543 -3.978922,5.410629 -6.976329,7.696233 l 1.299147,0.969714 3.011562,-2.562275 -2.003841,2.935779 1.67884,0.666088 c 1.183711,-1.503508 3.161371,-3.667704 4.231351,-5.330152 -0.56117,1.734222 -1.6772,4.149659 -2.7554,5.883882 0.47193,0.107593 0.82596,0.189246 1.18389,0.259909 l 0.51303,-0.630172 0.0118,0.768335 c 0.31244,0.09174 0.6606,0.211778 1.10759,0.390552 2.03051,-3.094997 3.04369,-6.625249 4.27142,-10.063708 -0.44325,3.532697 -1.22507,7.065396 -2.63677,10.598098 0.93669,0.109477 2.28282,0.786636 2.77063,1.008144 0.089,-4.661464 1.34644,-11.933508 2.48746,-15.535828 0.11168,-5.015288 -1.28101,-7.042805 -1.88201,-8.610648 z"
       id="path2373"
       sodipodi:nodetypes="ccccccccccccccccccccccccc" />
    <path
       style="fill:#e9ac0c;fill-opacity:0.671096;fill-rule:evenodd;stroke:none;stroke-width:1px;stroke-linecap:butt;stroke-linejoin:miter;stroke-opacity:1"
       d="m 108.40757,75.354927 1.27378,4.268966 -1.7742,-3.769406 0.0455,1.680339 -0.45492,-1.49868 c 0,0 -0.22746,3.587747 -0.18198,3.360675 0.0455,-0.227072 -0.63688,-3.360675 -0.63688,-3.360675 l -0.77337,3.179017 v -3.315261 l -0.86434,3.179017 0.31844,-3.406089 -0.68238,1.589509 0.18197,-1.08995 -0.90985,2.4978 0.36394,-4.041893 z"
       id="path3351" />
    <path
       style="fill:#dca30c;fill-opacity:0.478405;fill-rule:evenodd;stroke:none;stroke-width:1px;stroke-linecap:butt;stroke-linejoin:miter;stroke-opacity:1;filter:url(#filter3540)"
       d="m 114.41839,75.348433 -3.92725,-0.230255 c 0.0186,1.810467 1.86877,2.158958 3.05084,2.583909 0.0646,2.928628 0.37945,5.705816 -0.783,8.48503 0.52687,0.110237 1.74324,0.586512 2.74516,0.508126 l -1.72501,15.185227 c 1.0073,-5.317228 1.25098,-10.481732 3.02324,-15.951953 0.13967,-6.283492 -1.63229,-8.615786 -2.38398,-10.580084 z"
       id="path3371"
       sodipodi:nodetypes="cccccccc"
       transform="matrix(0.7995314,0,0,0.7981694,16.013255,14.652713)" />
    <path
       style="fill:none;fill-opacity:1;fill-rule:evenodd;stroke:#ffffff;stroke-width:0.8;stroke-linecap:butt;stroke-linejoin:miter;stroke-miterlimit:30;stroke-dasharray:none;stroke-opacity:0.631229"
       d="m 104.77419,74.605921 c -0.41303,1.505853 -1.48989,5.504087 -1.12341,7.233451 -4.94556,2.355271 -6.556345,5.736073 -12.72725,8.703536 l 1.396601,0.889314 c 2.502143,-1.466068 4.434408,-2.723401 6.024956,-4.189468 -1.311248,1.920955 -3.267085,3.455334 -4.794081,5.160911 l 0.499943,0.514987 c 2.923612,-2.23295 5.404703,-4.347633 7.767061,-6.605204 0.159,1.304817 -3.432075,5.458799 -6.429483,7.744403 l 0.913133,0.680701 3.502124,-2.899464 -2.011885,3.481705 1.083732,0.465381 c 1.183719,-1.503513 3.273959,-3.595456 4.343949,-5.257903 -0.56117,1.734222 -1.35553,4.189809 -2.43374,5.924032 0.44501,0.115415 0.34928,0.153998 0.60516,0.215569 0.21461,-0.438204 0.84016,-1.045961 1.4086,-1.70825 -0.009,0.72512 -0.0913,1.864459 -0.15913,2.091787 0.17097,0.04566 0.17348,0.03027 0.59171,0.197538 1.77317,-3.207392 3.10803,-6.464685 4.33575,-9.903146 -0.44325,3.5327 -0.76667,6.92089 -2.17837,10.453596 0.93669,0.109477 1.76813,0.690296 2.25594,0.911804"
       id="path3555"
       sodipodi:nodetypes="cccccccccccccccccccccc" />
    <circle
       style="display:inline;overflow:visible;visibility:visible;opacity:1;fill:url(#radialGradient3367);fill-opacity:1;fill-rule:evenodd;stroke:none;stroke-width:0.770163;stroke-linecap:butt;stroke-linejoin:miter;stroke-miterlimit:30;stroke-dasharray:none;stroke-dashoffset:0;stroke-opacity:1;marker:none;marker-start:none;marker-mid:none;marker-end:none;enable-background:accumulate"
       id="path2367"
       transform="matrix(1.0381332,0,0,1.0363647,-8.5189546,0.1766181)"
       cx="110.71161"
       cy="70.028961"
       r="2.6152349" />
    <ellipse
       style="display:inline;overflow:visible;visibility:visible;opacity:1;fill:url(#radialGradient3369);fill-opacity:1;fill-rule:evenodd;stroke:none;stroke-width:0.608726;stroke-linecap:butt;stroke-linejoin:miter;stroke-miterlimit:30;stroke-dasharray:none;stroke-dashoffset:0;stroke-opacity:1;marker:none;marker-start:none;marker-mid:none;marker-end:none;enable-background:accumulate"
       id="path2363"
       transform="matrix(1.2569082,0.2285806,-0.242003,1.3261856,10.993379,-45.005564)"
       cx="56.924397"
       cy="68.279709"
       rx="2.5722222"
       ry="1.342029" />
    <path
       style="display:inline;overflow:visible;visibility:visible;fill:#ffffff;fill-opacity:0.631229;fill-rule:evenodd;stroke:none;stroke-width:0.608726;stroke-linecap:butt;stroke-linejoin:miter;stroke-miterlimit:30;stroke-dashoffset:0;stroke-opacity:1;marker:none;enable-background:accumulate"
       d="m 62.785845,58.078117 c 0.01409,1.856905 3.234496,2.774153 5.022057,2.219908 -1.397738,0.233016 -2.561851,-0.233806 -3.747804,-0.872998 -0.4628,-0.376783 -0.714042,-0.801083 -0.574664,-1.047597 0.627994,-1.110711 1.934746,-0.963035 3.12317,-0.848055 1.257297,0.209826 2.07504,0.733245 2.573492,1.820823 -4.1e-4,-1.661054 -1.350676,-2.157323 -2.84833,-2.569107 -1.508885,-0.273213 -3.376346,0.02668 -3.547921,1.297026 z"
       id="path3557"
       sodipodi:nodetypes="cccscccc" />
    <ellipse
       transform="matrix(1.2569082,0.2285806,-0.242003,1.3261856,10.993379,-45.005564)"
       id="path3544"
       style="display:inline;overflow:visible;visibility:visible;opacity:1;fill:none;fill-opacity:1;fill-rule:evenodd;stroke:#c4910a;stroke-width:0.762003;stroke-linecap:butt;stroke-linejoin:miter;stroke-miterlimit:30;stroke-dasharray:none;stroke-dashoffset:0;stroke-opacity:1;marker:none;marker-start:none;marker-mid:none;marker-end:none;enable-background:accumulate"
       cx="56.924397"
       cy="68.279709"
       rx="2.5722222"
       ry="1.342029" />
    <path
       style="display:inline;overflow:visible;visibility:visible;opacity:1;fill:#dca30c;fill-opacity:0.478405;fill-rule:evenodd;stroke:none;stroke-width:0.608726px;stroke-linecap:butt;stroke-linejoin:miter;stroke-miterlimit:4;stroke-dasharray:none;stroke-dashoffset:0;stroke-opacity:1;marker:none;marker-start:none;marker-mid:none;marker-end:none;filter:url(#filter3540);enable-background:accumulate"
       d="m 64.4375,53.21875 c 0.25032,0.370521 0.382115,0.774104 0.3125,1.15625 -0.224224,1.230864 -2.23664,1.906623 -4.46875,1.5 -0.53287,-0.09707 -1.021582,-0.249178 -1.46875,-0.4375 0.561823,0.815545 1.784364,1.534118 3.3125,1.8125 2.23211,0.406623 4.244523,-0.269134 4.46875,-1.5 0.170601,-0.936497 -0.731683,-1.930618 -2.15625,-2.53125 z"
       id="path3546"
       transform="matrix(0.7995314,0,0,0.7981694,16.013255,14.652713)" />
    <path
       style="display:inline;overflow:visible;visibility:visible;opacity:1;fill:#ffffff;fill-opacity:0.631229;fill-rule:evenodd;stroke:none;stroke-width:0.770163;stroke-linecap:butt;stroke-linejoin:miter;stroke-miterlimit:30;stroke-dasharray:none;stroke-dashoffset:0;stroke-opacity:1;marker:none;enable-background:accumulate"
       d="m 106.56019,70.0756 c -1.68976,0.148682 -2.57532,1.105374 -2.84833,2.668878 0,1.394169 1.04194,2.543663 2.39859,2.693823 -1.06071,-0.212596 -1.8739,-1.124698 -1.8739,-2.244852 0,-1.280172 1.04128,-2.294737 2.32364,-2.294737 z"
       id="path3671"
       sodipodi:nodetypes="cccscc" />
    <path
       style="fill:#725406;fill-opacity:0.186047;fill-rule:evenodd;stroke:none;stroke-width:1;stroke-linecap:butt;stroke-linejoin:miter;stroke-miterlimit:30;stroke-dasharray:none;stroke-opacity:1"
       d="m 105.43585,66.049461 -0.025,4.175795 c -1.00172,0.398997 -1.699,1.377414 -1.699,2.519222 0,0.755094 0.29995,1.428972 0.79953,1.920596 -0.42912,1.566272 -1.43334,5.240162 -1.07437,6.934096 -4.945556,2.355273 -7.071334,5.812401 -13.242238,8.779863 l 2.09877,1.197254 c 2.502143,-1.466066 4.330982,-2.873978 5.92153,-4.340046 -1.311247,1.920956 -3.545031,3.382754 -5.072028,5.08833 l 0.774546,0.773227 c 2.923615,-2.232951 5.632964,-4.62664 7.99532,-6.884211 -0.96687,2.364542 -3.973517,5.421719 -6.97092,7.707324 l 1.299239,0.972768 3.023228,-2.569108 -2.023814,2.94325 1.699004,0.673455 c 1.183713,-1.503506 3.152533,-3.67531 4.222523,-5.337758 -0.56118,1.734225 -1.67018,4.152277 -2.74838,5.8865 0.47193,0.107593 0.81638,0.178765 1.17431,0.249428 l 0.52469,-0.62357 v 0.773227 c 0.31244,0.09174 0.65236,0.195368 1.09935,0.374142 2.03053,-3.094997 3.04477,-6.613486 4.27249,-10.051947 -0.44325,3.532702 -1.21175,7.067986 -2.62345,10.600688 0.93669,0.109476 2.28555,0.776204 2.77337,0.997712 0.089,-4.661462 1.33252,-11.93704 2.47355,-15.53936 0.10799,-4.850018 -1.21687,-6.998852 -1.84891,-8.555379 0.52958,-0.494705 0.87448,-1.189864 0.87448,-1.970481 0,-1.195855 -0.79666,-2.184624 -1.8739,-2.544164 v -3.333392 c -0.57142,-0.12923 -1.39718,-0.305901 -1.82393,-0.817461 z"
       id="path3714"
       sodipodi:nodetypes="ccsccccccccccccccccccccccccsccc" />
    <path
       style="display:inline;overflow:visible;visibility:visible;opacity:1;fill:#dca30c;fill-opacity:0.478405;fill-rule:evenodd;stroke:none;stroke-width:1px;stroke-linecap:butt;stroke-linejoin:miter;stroke-miterlimit:4;stroke-dasharray:none;stroke-dashoffset:0;stroke-opacity:1;marker:none;marker-start:none;marker-mid:none;marker-end:none;filter:url(#filter3667);enable-background:accumulate"
       d="m 114.42799,70.1222 c -0.47821,0.253539 -2.13845,-0.126808 -2.94795,0.07452 0.24313,1.211272 2.60686,1.2502 3.00975,1.027291 0.26373,1.019057 0.32504,3.966495 -2.33354,3.86974 -0.77517,-0.02821 -1.36254,-0.462616 -1.93448,-0.900869 0.57524,1.058493 2.292,1.508622 2.89763,1.482534 1.38978,-0.05987 2.75192,-1.36113 2.72347,-2.695021 -0.0225,-1.098512 -0.60473,-2.237413 -1.41488,-2.858194 z"
       id="path3598"
       sodipodi:nodetypes="cccscssc"
       transform="matrix(0.7995314,0,0,0.7981694,16.013255,14.652713)" />
    <ellipse
       style="display:inline;overflow:visible;visibility:visible;opacity:1;fill:#ffffff;fill-opacity:0.627907;fill-rule:evenodd;stroke:none;stroke-width:0.8;stroke-linecap:butt;stroke-linejoin:miter;stroke-miterlimit:30;stroke-dasharray:none;stroke-dashoffset:0;stroke-opacity:1;marker:none;marker-start:none;marker-mid:none;marker-end:none;filter:url(#filter3920);enable-background:accumulate"
       id="path3766"
       transform="matrix(0.4830782,0,0,0.4822553,52.717373,38.096708)"
       cx="114.764"
       cy="74.856934"
       rx="0.99572134"
       ry="0.96727216" />
    <g
       id="g3728"
       style="stroke:#c4910a;stroke-width:1.2518;stroke-opacity:1"
       transform="matrix(0.7995314,0,0,0.7981694,16.013255,14.652713)">
      <circle
         style="display:inline;overflow:visible;visibility:visible;opacity:1;fill:none;fill-opacity:1;fill-rule:evenodd;stroke:#c4910a;stroke-width:0.964089;stroke-linecap:butt;stroke-linejoin:miter;stroke-miterlimit:30;stroke-dasharray:none;stroke-dashoffset:0;stroke-opacity:1;marker:none;marker-start:none;marker-mid:none;marker-end:none;enable-background:accumulate"
         id="path3596"
         transform="matrix(1.298427,0,0,1.298427,-30.683232,-18.13662)"
         cx="110.71161"
         cy="70.028961"
         r="2.6152349" />
    </g>
    <path
       style="display:inline;overflow:visible;visibility:visible;fill:url(#linearGradient3764);fill-opacity:1;fill-rule:evenodd;stroke:none;stroke-width:0.8;stroke-linecap:butt;stroke-linejoin:miter;stroke-miterlimit:30;stroke-dashoffset:0;stroke-opacity:1;marker:none;marker-start:none;marker-mid:none;marker-end:none;enable-background:accumulate"
       d="m 102.71245,81.973312 c -2.21565,1.165621 -3.887374,2.560134 -5.72165,4.01579 1.347162,0.40312 2.412953,1.01061 3.34804,1.721052 0.54247,-0.498129 1.06257,-1.007743 1.57408,-1.496567 -0.24172,0.591136 -0.60919,1.241855 -1.07437,1.895652 1.64423,1.375298 2.93183,3.049222 4.74721,4.439818 0.69073,-1.75475 1.26384,-3.559186 1.89888,-5.337759 -0.24662,1.965617 -0.59291,3.920885 -1.09935,5.8865 0.49951,0.327465 1.02574,0.627085 1.62405,0.89794 0.3565,-2.965974 0.9261,-6.081489 1.52411,-8.530435 z"
       id="rect3748" />
    <path
       sodipodi:nodetypes="cccccccccccccccccccccccc"
       id="path3345"
       d="m 104.41025,74.469677 c -0.41303,1.505853 -1.40947,5.407748 -1.043,7.137113 -4.945552,2.35527 -7.071019,5.816355 -13.241921,8.783817 l 2.104291,1.178331 c 2.502143,-1.466067 4.321822,-2.867908 5.912369,-4.333975 -1.311247,1.920954 -3.540509,3.375051 -5.067506,5.080628 l 0.789453,0.787948 c 2.923607,-2.23295 5.629869,-4.620593 7.992224,-6.878165 -0.96686,2.364543 -3.978919,5.410629 -6.976324,7.696234 l 1.299144,0.969714 3.011563,-2.562275 -2.003841,2.935779 1.67884,0.666088 c 1.183718,-1.503509 3.161358,-3.667705 4.231358,-5.330153 -0.56117,1.734222 -1.67722,4.14966 -2.75541,5.883883 0.445,0.115415 0.82373,0.210198 1.07962,0.271769 0.21461,-0.438204 0.52652,-0.781033 1.09496,-1.443322 -0.11368,0.757239 -0.0993,1.527282 -0.16717,1.754608 0.17097,0.04566 0.39062,0.0383 0.80885,0.205568 2.03052,-3.094996 3.04369,-6.625248 4.27142,-10.063709 -0.44325,3.532699 -1.22506,7.065398 -2.63677,10.598099 0.9367,0.109477 2.28281,0.786637 2.77064,1.008145 0.089,-4.661464 1.34643,-11.933508 2.48746,-15.535829 0.11167,-5.015288 -1.28101,-7.042806 -1.88201,-8.610649"
       style="fill:none;fill-opacity:1;fill-rule:evenodd;stroke:#c4910a;stroke-width:1;stroke-linecap:butt;stroke-linejoin:miter;stroke-miterlimit:30;stroke-dasharray:none;stroke-opacity:1" />
    <path
       style="display:inline;overflow:visible;visibility:visible;opacity:1;fill:#ecc82a;fill-opacity:1;fill-rule:evenodd;stroke:none;stroke-width:1;stroke-linecap:butt;stroke-linejoin:miter;stroke-miterlimit:30;stroke-dasharray:none;stroke-dashoffset:0;stroke-opacity:1;marker:none;marker-start:none;marker-mid:none;marker-end:none;enable-background:accumulate"
       d="m 68.801126,59.842348 36.436324,5.629327 c 0.13922,0.0316 0.22417,0.288001 0.20448,0.52834 l -0.0409,4.406401 c 0.37603,0.727424 1.70237,0.520447 1.85874,0.06423 v -5.583143 c 0.004,-0.295263 -0.25353,-0.731074 -0.5452,-0.780284 l -37.738556,-5.46212 c -0.683536,-0.02215 -0.737297,1.091645 -0.174898,1.197253 z"
       id="path2365"
       sodipodi:nodetypes="ccccccccc" />
    <path
       style="fill:none;fill-rule:evenodd;stroke:#c4910a;stroke-width:1px;stroke-linecap:round;stroke-linejoin:miter;stroke-opacity:1"
       d="m 103.38079,81.654749 c -0.10484,0.322563 0.67388,0.993179 1.54406,1.09184"
       id="path3347"
       sodipodi:nodetypes="cc" />
    <path
       style="display:inline;overflow:visible;visibility:visible;opacity:1;fill:none;fill-opacity:1;fill-rule:evenodd;stroke:#ffffff;stroke-width:1;stroke-linecap:butt;stroke-linejoin:miter;stroke-miterlimit:30;stroke-dasharray:none;stroke-dashoffset:0;stroke-opacity:0.631229;marker:none;marker-start:none;marker-mid:none;marker-end:none;enable-background:accumulate"
       d="m 107.25977,65.250819 c 0.0287,-0.395542 -0.4355,-0.946792 -0.72716,-0.996004 L 68.828177,58.804048 m 36.488883,6.82658 c 0.13921,0.03161 0.37201,0.356124 0.35234,0.596464 l -0.0409,4.406401"
       id="path3682"
       sodipodi:nodetypes="cccccc" />
    <path
       id="path3684"
       style="fill:none;fill-rule:evenodd;stroke:#dca718;stroke-width:0.5;stroke-linecap:butt;stroke-linejoin:miter;stroke-miterlimit:4;stroke-dasharray:none;stroke-opacity:1"
       d="m 69.168878,59.823145 c 1.048987,-0.573742 2.152305,-0.451713 3.24199,-0.50428 m -0.07554,0.952553 c 1.048987,-0.573745 2.152306,-0.451714 3.241991,-0.504281 m -0.07555,0.952551 c 1.048986,-0.573742 2.152306,-0.451712 3.24199,-0.50428 m -0.07554,0.952551 c 1.048986,-0.573742 2.152304,-0.451712 3.241989,-0.50428 m -0.07554,0.952553 c 1.048987,-0.573743 2.152306,-0.451712 3.241991,-0.50428 m -0.05946,1.04889 c 1.048988,-0.573742 2.136223,-0.548051 3.225908,-0.600619 m -0.139881,1.129174 c 1.048987,-0.573744 2.216641,-0.628335 3.306325,-0.680903 m -0.107712,1.161287 c 1.048987,-0.573743 2.184474,-0.660447 3.274158,-0.713014 m -0.252469,1.193398 c 1.048988,-0.573744 2.329235,-0.692559 3.418924,-0.745127 m -0.204225,1.161285 c 1.048993,-0.573742 2.280967,-0.660446 3.370673,-0.713013 m -0.13989,1.209455 c 1.04899,-0.573743 2.21663,-0.708616 3.30632,-0.761183 m -0.49372,1.273681 c 0.82095,-1.00375 2.86585,-0.904501 3.628,-0.440054 m -1.78045,1.016777 c 0.87208,-0.02782 1.54114,0.591957 1.87488,1.358269 m -1.78521,0.578792 c 0.94586,0.482755 1.55609,1.57434 1.63772,2.350203"
       sodipodi:nodetypes="cccccccccccccccccccccccccccc" />
    <path
       style="display:inline;overflow:visible;visibility:visible;opacity:1;fill:#dca30c;fill-opacity:0.478405;fill-rule:evenodd;stroke:none;stroke-width:1px;stroke-linecap:butt;stroke-linejoin:miter;stroke-miterlimit:4;stroke-dasharray:none;stroke-dashoffset:0;stroke-opacity:1;marker:none;marker-start:none;marker-mid:none;marker-end:none;filter:url(#filter3592);enable-background:accumulate"
       d="m 66.235186,55.495627 c -0.634918,-0.01082 -0.581441,0.850005 -0.334384,1.152715 l 45.773418,6.786625 c 0.6138,0.176208 1.04342,0.559341 1.08008,2.033783 l -0.10273,4.928517 c 0.58357,0.04948 0.77597,-0.02576 0.89005,-0.359184 v -6.210067 c 0.032,-0.30668 -0.032,-0.664418 -0.40233,-0.836999 -15.607874,-2.308862 -30.65248,-4.440145 -46.823615,-6.926586 -0.161901,-0.102564 -0.10607,-0.305541 -0.08049,-0.568804 z"
       id="path3571"
       sodipodi:nodetypes="cccccccccc"
       transform="matrix(0.7995314,0,0,0.7981694,16.013255,14.652713)" />
    <path
       sodipodi:nodetypes="ccccccccc"
       id="path3569"
       d="m 68.801128,59.842352 36.436322,5.629326 c 0.13922,0.03161 0.22417,0.288002 0.20448,0.528341 l -0.0409,4.406401 c 0.37603,0.727424 1.70237,0.520447 1.85873,0.06423 v -5.583143 c 0.004,-0.295262 -0.25354,-0.731073 -0.5452,-0.780284 l -37.738556,-5.46212 c -0.683535,-0.02215 -0.737295,1.091646 -0.174896,1.197254 z"
       style="display:inline;overflow:visible;visibility:visible;opacity:1;fill:none;fill-opacity:1;fill-rule:evenodd;stroke:#c4910a;stroke-width:1;stroke-linecap:butt;stroke-linejoin:miter;stroke-miterlimit:30;stroke-dasharray:none;stroke-dashoffset:0;stroke-opacity:1;marker:none;marker-start:none;marker-mid:none;marker-end:none;enable-background:accumulate" />
    <g
       id="g3731"
       style="display:inline;overflow:visible;visibility:visible;opacity:1;fill:#fadc90;fill-opacity:1;fill-rule:evenodd;stroke:none;stroke-width:1;stroke-linecap:butt;stroke-linejoin:miter;stroke-miterlimit:30;stroke-dasharray:none;stroke-dashoffset:0;stroke-opacity:1;marker:none;marker-start:none;marker-mid:none;marker-end:none;enable-background:accumulate" />
  </g>
</svg>
