<?xml version="1.0" encoding="UTF-8" standalone="no"?>
<!-- Created with Inkscape (http://www.inkscape.org/) -->

<svg
   width="128"
   height="128"
   id="svg2"
   sodipodi:version="0.32"
   inkscape:version="1.3.2 (1:1.3.2+202311252150+091e20ef0f)"
   version="1.0"
   sodipodi:docname="unlink.svg"
   inkscape:output_extension="org.inkscape.output.svg.inkscape"
   inkscape:export-filename="unlink_64.png"
   inkscape:export-xdpi="48"
   inkscape:export-ydpi="48"
   xmlns:inkscape="http://www.inkscape.org/namespaces/inkscape"
   xmlns:sodipodi="http://sodipodi.sourceforge.net/DTD/sodipodi-0.dtd"
   xmlns:xlink="http://www.w3.org/1999/xlink"
   xmlns="http://www.w3.org/2000/svg"
   xmlns:svg="http://www.w3.org/2000/svg"
   xmlns:rdf="http://www.w3.org/1999/02/22-rdf-syntax-ns#"
   xmlns:cc="http://creativecommons.org/ns#"
   xmlns:dc="http://purl.org/dc/elements/1.1/">
  <defs
     id="defs4">
    <linearGradient
       id="linearGradient3919">
      <stop
         style="stop-color:#b1b9c1;stop-opacity:1"
         offset="0"
         id="stop3921" />
      <stop
         style="stop-color:#9aa4ae;stop-opacity:1"
         offset="1"
         id="stop3923" />
    </linearGradient>
    <linearGradient
       inkscape:collect="always"
       xlink:href="#linearGradient3919"
       id="linearGradient3661"
       gradientUnits="userSpaceOnUse"
       gradientTransform="matrix(1.0221439,-0.13551808,0.13551206,1.0221893,-31.956869,28.406847)"
       x1="25.817791"
       y1="56.437923"
       x2="90.490318"
       y2="54.771111" />
    <filter
       color-interpolation-filters="sRGB"
       inkscape:collect="always"
       id="filter3931-3"
       x="-0.047311204"
       y="-0.04220051"
       width="1.0946224"
       height="1.084401">
      <feGaussianBlur
         inkscape:collect="always"
         stdDeviation="1.030785"
         id="feGaussianBlur3933-1" />
    </filter>
    <filter
       color-interpolation-filters="sRGB"
       inkscape:collect="always"
       id="filter3931-3-7"
       x="-0.05378658"
       y="-0.052137589"
       width="1.1075732"
       height="1.1042752">
      <feGaussianBlur
         inkscape:collect="always"
         stdDeviation="1.030785"
         id="feGaussianBlur3933-1-1" />
    </filter>
    <filter
       color-interpolation-filters="sRGB"
       inkscape:collect="always"
       id="filter4103-9"
       x="-0.018433724"
       y="-0.01770458"
       width="1.0368674"
       height="1.0354092">
      <feGaussianBlur
         inkscape:collect="always"
         stdDeviation="0.41314347"
         id="feGaussianBlur4105-7" />
    </filter>
    <linearGradient
       inkscape:collect="always"
       xlink:href="#linearGradient3919"
       id="linearGradient3948"
       gradientUnits="userSpaceOnUse"
       gradientTransform="matrix(1.0110344,0.20237284,-0.20236384,1.0110793,18.469871,-20.945966)"
       x1="43.602818"
       y1="56.123249"
       x2="101.7023"
       y2="49.852268" />
    <filter
       color-interpolation-filters="sRGB"
       inkscape:collect="always"
       id="filter4103-9-0"
       x="-0.021110723"
       y="-0.023944236"
       width="1.0422214"
       height="1.0478885">
      <feGaussianBlur
         inkscape:collect="always"
         stdDeviation="0.41314347"
         id="feGaussianBlur4105-7-8" />
    </filter>
    <filter
       color-interpolation-filters="sRGB"
       inkscape:collect="always"
       id="filter3841-9"
       x="-0.053398205"
       y="-0.060673692"
       width="1.1067964"
       height="1.1213474">
      <feGaussianBlur
         inkscape:collect="always"
         stdDeviation="2.5948922"
         id="feGaussianBlur3843-3" />
    </filter>
    <filter
       inkscape:collect="always"
       id="filter4181"
       x="-0.051662911"
       y="-0.04396438"
       width="1.1033258"
       height="1.0879288">
      <feGaussianBlur
         inkscape:collect="always"
         stdDeviation="0.15270157"
         id="feGaussianBlur4183" />
    </filter>
    <filter
       inkscape:collect="always"
       id="filter4215"
       x="-0.09310863"
       y="-0.073969332"
       width="1.1862173"
       height="1.1479387">
      <feGaussianBlur
         inkscape:collect="always"
         stdDeviation="1.6633469"
         id="feGaussianBlur4217" />
    </filter>
    <filter
       inkscape:collect="always"
       id="filter4223"
       x="-0.2064989"
       width="1.4129978"
       y="-0.20571631"
       height="1.4114326">
      <feGaussianBlur
         inkscape:collect="always"
         stdDeviation="2.1964503"
         id="feGaussianBlur4225" />
    </filter>
    <filter
       inkscape:collect="always"
       id="filter4419"
       x="-0.034823626"
       y="-0.029506654"
       width="1.069445"
       height="1.0959877">
      <feGaussianBlur
         inkscape:collect="always"
         stdDeviation="0.47076725"
         id="feGaussianBlur4421" />
    </filter>
  </defs>
  <sodipodi:namedview
     id="base"
     pagecolor="#ffffff"
     bordercolor="#666666"
     borderopacity="1.0"
     inkscape:pageopacity="0.0"
     inkscape:pageshadow="2"
     inkscape:zoom="5.6568544"
     inkscape:cx="53.033007"
     inkscape:cy="75.395259"
     inkscape:document-units="px"
     inkscape:current-layer="layer1"
     showgrid="false"
     inkscape:window-width="1868"
     inkscape:window-height="1016"
     inkscape:window-x="52"
     inkscape:window-y="27"
     inkscape:window-maximized="1"
     inkscape:snap-global="false"
     showguides="true"
     inkscape:guide-bbox="true"
     inkscape:showpageshadow="2"
     inkscape:pagecheckerboard="0"
     inkscape:deskcolor="#d1d1d1" />
  <metadata
     id="metadata7">
    <rdf:RDF>
      <cc:Work
         rdf:about="">
        <dc:format>image/svg+xml</dc:format>
        <dc:type
           rdf:resource="http://purl.org/dc/dcmitype/StillImage" />
        <cc:license
           rdf:resource="http://creativecommons.org/licenses/by-sa/4.0/" />
      </cc:Work>
      <cc:License
         rdf:about="http://creativecommons.org/licenses/by-sa/4.0/">
        <cc:permits
           rdf:resource="http://creativecommons.org/ns#Reproduction" />
        <cc:permits
           rdf:resource="http://creativecommons.org/ns#Distribution" />
        <cc:requires
           rdf:resource="http://creativecommons.org/ns#Notice" />
        <cc:requires
           rdf:resource="http://creativecommons.org/ns#Attribution" />
        <cc:permits
           rdf:resource="http://creativecommons.org/ns#DerivativeWorks" />
        <cc:requires
           rdf:resource="http://creativecommons.org/ns#ShareAlike" />
      </cc:License>
    </rdf:RDF>
  </metadata>
  <g
     inkscape:label="main"
     inkscape:groupmode="layer"
     id="layer1"
     style="opacity:1;display:inline">
    <path
       id="path3982"
       style="font-size:medium;font-style:normal;font-variant:normal;font-weight:normal;font-stretch:normal;text-indent:0;text-align:start;text-decoration:none;line-height:normal;letter-spacing:normal;word-spacing:normal;text-transform:none;direction:ltr;block-progression:tb;writing-mode:lr-tb;text-anchor:start;color:#000000;fill:#444c53;fill-opacity:0.10416667;fill-rule:nonzero;stroke:none;stroke-width:4;marker:none;visibility:visible;display:inline;overflow:visible;filter:url(#filter3841-9);enable-background:accumulate;font-family:AlArabiya;-inkscape-font-specification:AlArabiya"
       d="m 35.525735,59.514087 -1.5,0.65625 -0.0312,-0.40625 -1.09375,0.5 c -5.329692,4.310699 -10.610968,8.791764 -15.125004,13.437498 -8.7091957,8.21443 -11.3816287,20.413437 -8.8749997,31.906255 1.3038177,6.08034 5.9117747,13.11105 11.8437497,15.65625 7.257857,3.11057 15.938224,1.39391 22.187504,-3.1875 4.64948,-3.33048 8.19173,-7.87301 12.125,-11.96875 4.8035,-5.27206 9.44641,-10.715568 13.875,-16.312505 l 0.3125,-1.28125 -0.625,-0.15625 0.25,-1.21875 -0.59375,-0.1875 -0.25,-1.53125 -0.96875,0.0312 -0.25,-1.09375 -0.9375,-0.34375 -0.71875,-0.6875 -0.96875,0.40625 -0.59375,-0.59375 -1.0625,0.34375 -0.34375,-0.34375 -0.8125,0.59375 -0.1875,-0.28125 -0.875,0.53125 c -1.2839,1.40893 -2.53747,2.83771 -3.8125,4.25 -5.34662,5.71636 -10.69782,11.453311 -16.28125,16.937505 -3.23103,2.69665 -7.79486,4.39856 -11.968754,3.15625 -4.245343,-1.61111 -6.397225,-6.34619 -6.71875,-10.625004 -0.595279,-5.923381 2.650951,-11.366101 6.34375,-15.718751 4.209684,-5.04638 8.808984,-9.72251 13.593754,-14.218748 l -0.0312,-0.03125 1,-1.5625 -0.78125,0.125 0.9375,-1.5 -0.71875,0.0625 0.125,-1.1875 -1.25,0.03125 0.3125,-1.21875 -1.40625,0.0625 0.40625,-1.375 -1.28125,0.6875 0.15625,-0.90625 -1,0.1875 -0.25,-1.125 -1.03125,0.53125 -0.3125,-0.8125 -0.96875,0.25 0.15625,-0.46875 z m 70.187495,-39.3125 c -0.37242,0.0078 -0.75586,0.03521 -1.125,0.0625 -7.260015,0.512838 -13.916915,2.920661 -20.749995,5.125 -3.37894,1.187532 -6.91099,2.416124 -10.46875,3.6875 -0.0841,0.03004 -0.1659,0.06365 -0.25,0.09375 l -3.09375,1.09375 0,0.03125 -0.375,0.625 0.21875,0.34375 -0.8125,1.1875 0.375,0.09375 -0.40625,0.875 0.71875,0.5 -0.25,0.84375 0.5625,0.53125 -0.34375,0.9375 0.90625,0.03125 -0.65625,0.96875 1.1875,0 -0.15625,1.03125 1.0625,0.28125 -0.25,1.1875 1.15625,0.09375 0,0.5625 1.46875,-0.46875 0,0.65625 1.21875,-0.4375 4,-1.78125 c 4.35244,-1.885467 8.7604,-3.639952 13.15625,-5.40625 2.07193,-0.815412 4.13444,-1.654237 6.21875,-2.4375 4.003035,-1.388502 8.989465,-1.980926 12.531245,0.84375 2.57719,1.999457 3.981,5.42935 3.25,8.65625 -1.03801,4.592629 -4.95271,7.731036 -8.46875,10.5 -5.67456,4.234866 -11.862155,7.68669 -18.062495,11.09375 l -0.125,0.5625 0.28125,0.1875 -0.5625,0.8125 0.34375,0.3125 -0.28125,1.0625 0.59375,0.59375 -0.34375,0.96875 0.6875,0.71875 0.21875,0.5 0.375,0.4375 0.90625,0.1875 0,0.875 0.0937,0.09375 1.4375,0.1875 0.21875,0.59375 1.1875,-0.3125 0.1875,0.625 1.125,-0.3125 0.46875,-0.21875 c 6.407785,-4.146893 12.665865,-8.542188 18.624995,-13.3125 4.86717,-4.101019 9.57605,-9.197705 10.71875,-15.6875 0.78754,-4.872647 -0.8165,-9.976987 -3.84375,-13.8125 -2.90456,-3.406084 -7.11274,-5.570015 -11.53125,-6.25 -1.10462,-0.169996 -2.22648,-0.242221 -3.34375,-0.21875 z"
       transform="matrix(1.0310876,0,0,1.0311334,-1.0009702,-2.226627)" />
    <path
       id="path3842"
       d="m 32.361174,55.11934 -1.565519,0.695134 -0.02311,-0.4195 -1.135272,0.50807 C 24.141902,60.34795 18.707949,64.978058 14.053582,69.768432 5.0736391,78.238604 2.3100413,90.824374 4.8945952,102.675 c 1.3443512,6.26964 6.0978058,13.50381 12.2141908,16.12825 7.483486,3.20742 16.424979,1.43205 22.868532,-3.29199 4.79402,-3.43417 8.445992,-8.12832 12.501535,-12.35158 4.952838,-5.436199 9.748463,-11.046418 14.314725,-16.817603 l 0.313975,-1.309319 -0.640776,-0.175083 0.258561,-1.23696 -0.613069,-0.211263 -0.239445,-1.560991 -1.002907,0.03545 -0.280218,-1.133024 -0.957898,-0.360572 -0.744708,-0.713887 -0.984031,0.423009 -0.631944,-0.598818 -1.092561,0.339882 -0.338295,-0.345206 -0.830854,0.59773 -0.197824,-0.266316 -0.903208,0.542312 c -1.323811,1.45279 -2.625564,2.901718 -3.940236,4.35798 -5.51283,5.894329 -11.038785,11.816676 -16.795795,17.471609 -3.331468,2.78061 -8.037812,4.54248 -12.341467,3.2615 -4.37732,-1.66127 -6.580418,-6.535856 -6.911939,-10.947877 -0.613784,-6.107802 2.722111,-11.719862 6.52971,-16.208021 4.340556,-5.203495 9.08151,-10.028845 14.015028,-14.665061 l -0.03618,-0.02771 1.055174,-1.602616 -0.830492,0.110108 0.963583,-1.557968 -0.738901,0.06546 0.130792,-1.22002 -1.262677,0.03739 0.322444,-1.245431 -1.454328,0.0628 0.397097,-1.417852 -1.30575,0.693196 0.168904,-0.93253 -1.045616,0.203639 -0.252511,-1.1692 -1.062919,0.563486 -0.337932,-0.832827 -0.973263,0.259057 0.160072,-0.508796 z"
       style="font-size:medium;font-style:normal;font-variant:normal;font-weight:normal;font-stretch:normal;text-indent:0;text-align:start;text-decoration:none;line-height:normal;letter-spacing:normal;word-spacing:normal;text-transform:none;direction:ltr;block-progression:tb;writing-mode:lr-tb;text-anchor:start;color:#000000;fill:none;stroke:#353b42;stroke-width:3.99999976;stroke-linecap:butt;stroke-linejoin:miter;stroke-miterlimit:4;stroke-opacity:1;stroke-dasharray:none;stroke-dashoffset:0;marker:none;visibility:visible;display:inline;overflow:visible;enable-background:accumulate;font-family:AlArabiya;-inkscape-font-specification:AlArabiya" />
    <path
       id="path3731"
       d="m 104.70193,14.599427 c -0.384,0.008 -0.77936,0.03631 -1.15998,0.06445 -7.485703,0.528804 -14.349558,3.011591 -21.395065,5.284559 -3.483981,1.224503 -7.125835,2.491345 -10.794198,3.802304 -0.08668,0.03098 -0.171056,0.06564 -0.257772,0.09667 l -3.189927,1.127802 0,0.03222 -0.483322,0.628347 0.322215,0.370564 -0.86998,1.160024 0.418879,0.161115 -0.563876,1.063356 0.886091,0.354452 -0.370547,1.015023 0.692762,0.402786 -0.354436,0.966687 0.934423,0.03223 -0.312108,0.95334 0.859873,0.04556 -0.161107,1.063357 1.09553,0.290007 -0.144996,1.079467 1.079419,0.241672 0.08056,0.515567 1.433857,-0.418898 0.03222,0.692792 1.224416,-0.467232 4.124351,-1.836707 c 4.48775,-1.944168 9.032738,-3.753275 13.565245,-5.574564 2.136342,-0.840798 4.262978,-1.705739 6.412076,-2.513388 4.127487,-1.43173 9.268937,-2.042599 12.920827,0.870019 2.65731,2.061707 4.10476,5.598384 3.35103,8.925749 -1.07028,4.735613 -5.10667,7.971729 -8.73202,10.8269 -5.85097,4.366712 -12.230927,7.926002 -18.624029,11.439136 l -0.338325,0.338341 0.499432,0.435009 -0.579986,0.837796 0.354437,0.322229 -0.289994,1.095579 0.612208,0.612235 -0.354437,0.998911 0.708874,0.741127 -0.112776,0.692793 0.724984,0.273895 0.934423,0.193337 0,0.902242 -0.03222,0.257783 1.611075,0.03222 0.04833,0.580012 1.401635,-0.290007 0.193328,0.644459 1.063309,-0.402787 0.579987,-0.145003 c 6.606985,-4.275999 13.059615,-8.808135 19.204005,-13.726963 5.01848,-4.228698 9.87375,-9.484061 11.05197,-16.175905 0.81202,-5.024349 -0.84189,-10.287604 -3.96324,-14.24253 -2.99486,-3.512127 -7.33386,-5.743428 -11.88973,-6.444583 -1.13897,-0.175289 -2.2957,-0.249762 -3.4477,-0.225561 z"
       style="color:#000000;fill:none;stroke:#353b42;stroke-width:3.99999976;stroke-linecap:butt;stroke-linejoin:miter;stroke-miterlimit:4;stroke-opacity:1;stroke-dasharray:none;stroke-dashoffset:0;marker:none;visibility:visible;display:inline;overflow:visible;enable-background:accumulate"
       sodipodi:nodetypes="cscscccccccccccccccccccccccccccsccccccccccccccccccccccccsc" />
    <path
       style="color:#000000;fill:#6f7c8e;fill-opacity:1;fill-rule:nonzero;stroke:none;stroke-width:1;marker:none;visibility:visible;display:inline;overflow:visible;enable-background:accumulate"
       d="m 71.35269,23.750737 -3.457472,1.236031 -0.376885,0.665121 0.225551,0.354452 -0.837759,1.224471 0.386658,0.09666 -0.41888,0.902242 0.741095,0.515566 -0.257772,0.870019 0.579986,0.54779 -0.354435,0.966688 0.934423,0.03222 -0.676652,0.998911 1.224417,0 -0.161107,1.063356 1.09553,0.290006 -0.257772,1.224471 1.192195,0.09667 0,0.580013 1.51441,-0.483344 0,0.676681 1.248583,-0.451121 4.116295,-1.836706 -6.460409,-9.570207 z"
       id="path3688"
       sodipodi:nodetypes="cccccccccccccccccccccccc" />
    <path
       style="color:#000000;fill:#6f7c8e;fill-opacity:1;fill-rule:nonzero;stroke:none;stroke-width:1;marker:none;visibility:visible;display:inline;overflow:visible;enable-background:accumulate"
       d="m 90.975576,54.942523 -4.249209,2.344217 -0.132913,0.588069 0.289993,0.193337 -0.579986,0.837796 0.354435,0.322229 -0.289993,1.095579 0.612209,0.612236 -0.354437,0.998911 0.708872,0.741126 0.225551,0.515568 0.386658,0.45112 0.934423,0.193337 0,0.902242 0.09666,0.09667 1.482188,0.193338 0.22555,0.612235 1.224417,-0.322229 0.193329,0.644458 1.321081,-0.354452 c -0.127538,0.10879 -0.258921,0.213657 -0.386658,0.32223 l 2.609941,-1.86893 -4.672116,-9.119086 z"
       id="path3708"
       sodipodi:nodetypes="ccccccccccccccccccccccc" />
    <path
       style="font-size:medium;font-style:normal;font-variant:normal;font-weight:normal;font-stretch:normal;text-indent:0;text-align:start;text-decoration:none;line-height:normal;letter-spacing:normal;word-spacing:normal;text-transform:none;direction:ltr;block-progression:tb;writing-mode:lr-tb;text-anchor:start;color:#000000;fill:url(#linearGradient3948);fill-opacity:1;stroke:none;stroke-width:1;marker:none;visibility:visible;display:inline;overflow:visible;enable-background:accumulate;font-family:AlArabiya;-inkscape-font-specification:AlArabiya"
       d="m 108.14687,14.820076 c -1.51862,-0.233718 -3.07785,-0.277557 -4.60032,-0.164994 -7.4857,0.528804 -14.351942,3.006885 -21.397449,5.279853 -4.590425,1.613383 -9.442178,3.286612 -14.288362,5.059734 l 0.939371,-0.09055 0.185395,0.381411 1.476041,-0.128397 -0.08587,0.406659 1.004735,0.06966 0.05042,0.897366 0.888829,0.201872 0.16,0.796755 1.055278,0.145506 -0.461422,0.827776 1.229607,-0.09551 -0.604157,1.075108 0.982196,0.410973 -0.293629,1.074198 1.206902,0.373027 -0.518337,1.112143 0.467188,0.292134 -1.162495,1.047482 0.593626,0.359729 -1.288932,0.979887 0.02527,0.03793 c 5.831435,-2.639094 11.758509,-5.052528 17.688421,-7.435334 2.136342,-0.840798 4.265215,-1.68757 6.414313,-2.495219 4.127483,-1.431731 9.251713,-2.038609 12.903593,0.874009 2.65731,2.061706 4.12683,5.59618 3.3731,8.923545 -1.07028,4.735613 -5.10934,7.949756 -8.73468,10.804928 -5.858472,4.372311 -12.254557,7.930498 -18.65587,11.448031 l 1.030056,-0.221026 0.101057,0.315986 0.979513,-0.296867 0.208466,0.436073 1.143763,0.03177 0.40431,0.771032 1.06795,-0.08199 0.473799,0.916388 0.789798,0.65102 -0.101284,1.16276 0.960468,0.290838 -0.278274,1.55454 0.511791,0.398201 -0.644715,1.086845 0.549711,0.37293 -0.720554,1.13739 c 6.811805,-4.386167 13.455315,-9.050632 19.781075,-14.114663 5.01848,-4.228698 9.88271,-9.496896 11.06093,-16.188741 0.81203,-5.024348 -0.8639,-10.283353 -3.98525,-14.238279 -2.99486,-3.512127 -7.3295,-5.752762 -11.88537,-6.453918 z"
       id="rect2928"
       sodipodi:nodetypes="ccccccccccccccccccccccccccccscccccccccccccccccccccc" />
    <path
       style="font-size:medium;font-style:normal;font-variant:normal;font-weight:normal;font-stretch:normal;text-indent:0;text-align:start;text-decoration:none;line-height:normal;letter-spacing:normal;word-spacing:normal;text-transform:none;direction:ltr;block-progression:tb;writing-mode:lr-tb;text-anchor:start;color:#000000;fill:url(#linearGradient3661);fill-opacity:1;stroke:none;stroke-width:1;marker:none;visibility:visible;display:inline;overflow:visible;enable-background:accumulate;font-family:AlArabiya;-inkscape-font-specification:AlArabiya"
       d="m 32.361176,55.119342 -1.56552,0.695133 -0.02311,-0.419499 -1.135272,0.50807 C 24.141903,60.347952 18.707949,64.978061 14.053583,69.768434 5.0736393,78.238607 2.3100414,90.824378 4.8945953,102.675 c 1.3443513,6.26964 6.0978057,13.50382 12.2141917,16.12826 7.483486,3.20741 16.42498,1.43205 22.868533,-3.292 4.79402,-3.43417 8.445992,-8.12833 12.501536,-12.35157 4.952837,-5.436207 9.748462,-11.046425 14.314725,-16.817611 l 0.313974,-1.309318 -0.640775,-0.175084 0.25856,-1.236959 -0.613069,-0.211263 -0.239444,-1.560991 -1.002907,0.03545 -0.280219,-1.133023 -0.957897,-0.360572 -0.744709,-0.713887 -0.98403,0.423009 -0.631945,-0.598818 -1.092562,0.339882 -0.338294,-0.345206 -0.830855,0.59773 -0.197822,-0.266316 -0.903208,0.542312 c -1.323812,1.452789 -2.625565,2.901718 -3.940237,4.357981 -5.512831,5.894327 -11.038786,11.816675 -16.795795,17.47161 -3.331468,2.7806 -8.037813,4.54248 -12.341468,3.2615 -4.37732,-1.66127 -6.580419,-6.535858 -6.911938,-10.947879 -0.613785,-6.107802 2.72211,-11.719863 6.529709,-16.208021 4.340556,-5.203495 9.081511,-10.028845 14.015028,-14.665061 l -0.03618,-0.02771 1.055174,-1.602616 -0.830492,0.110108 0.963583,-1.557968 -0.7389,0.06546 0.130792,-1.22002 -1.262677,0.03739 0.322444,-1.245431 -1.454328,0.0628 0.397096,-1.417853 -1.30575,0.693197 0.168904,-0.93253 -1.045616,0.203639 -0.252511,-1.169201 -1.062918,0.563488 -0.337933,-0.832829 -0.973263,0.259057 0.160073,-0.508795 z"
       id="path3654" />
    <path
       style="font-size:medium;font-style:normal;font-variant:normal;font-weight:normal;font-stretch:normal;text-indent:0;text-align:start;text-decoration:none;line-height:normal;letter-spacing:normal;word-spacing:normal;text-transform:none;direction:ltr;block-progression:tb;writing-mode:lr-tb;text-anchor:start;color:#000000;fill:#4e5861;fill-opacity:0.6;fill-rule:nonzero;stroke:none;stroke-width:1;marker:none;visibility:visible;display:inline;overflow:visible;filter:url(#filter3931-3-7);enable-background:accumulate;font-family:AlArabiya;-inkscape-font-specification:AlArabiya"
       d="m 104.74985,17.087626 c 3.03177,1.077096 5.51961,2.154257 7.60983,4.605393 3.02725,3.835513 4.66254,8.939853 3.875,13.8125 -1.1427,6.489795 -5.85158,11.586481 -10.71875,15.6875 -4.50884,3.609349 -9.215807,7.012566 -14.000003,10.25 l 0.375,0.125 -0.25,1.5 0.5,0.40625 -0.625,1.0625 0.5625,-0.09375 c 3.362662,-1.664557 15.926663,-11.139483 17.750003,-12.5625 4.86717,-4.101019 9.24708,-8.835649 10.38978,-15.325444 0.78754,-4.872647 -0.55133,-9.667628 -3.57858,-13.503141 -3.122,-3.78891 -7.02405,-5.449081 -11.88978,-5.964308 z m -13.921423,8.449143 c -2.084302,0.783263 -4.146819,1.622088 -6.21875,2.4375 -3.611569,1.451166 -6.178515,2.587941 -9.765625,4.109375 l 0.421875,0.1875 -0.46875,1.03125 0.640625,0.28125 -0.992417,0.987056 14.766544,-6.165593 c 2.071931,-0.815412 4.090254,-1.565849 6.174556,-2.349112 1.907245,-0.66155 4.656585,-1.184716 6.743725,-1.200444 -3.67284,-1.050126 -7.695021,-0.463854 -11.301783,0.681218 z"
       id="path3899"
       sodipodi:nodetypes="ccccccccccccccccccccccccc"
       transform="matrix(1.0310876,0,0,1.0311334,-1.0009702,-2.226627)" />
    <path
       style="font-size:medium;font-style:normal;font-variant:normal;font-weight:normal;font-stretch:normal;text-indent:0;text-align:start;text-decoration:none;line-height:normal;letter-spacing:normal;word-spacing:normal;text-transform:none;direction:ltr;block-progression:tb;writing-mode:lr-tb;text-anchor:start;color:#000000;fill:none;stroke:#fefefe;stroke-width:0.99999994;stroke-linecap:butt;stroke-linejoin:miter;stroke-miterlimit:4;stroke-opacity:0.55;stroke-dasharray:none;stroke-dashoffset:0;marker:none;visibility:visible;display:inline;overflow:visible;enable-background:accumulate;font-family:AlArabiya;-inkscape-font-specification:AlArabiya"
       d="m 69.324139,24.630703 0.1854,0.381412 1.476033,-0.128396 -0.08589,0.406658 1.004743,0.06966 0.05042,0.897367 0.88883,0.201872 0.159993,0.796755 1.055277,0.145505 -0.461422,0.827776 1.229613,-0.09551 -0.604155,1.075109 0.982193,0.410973 -0.293633,1.074197 1.206908,0.373027 -0.518337,1.112144 0.467185,0.292134 -1.162499,1.047481 0.593628,0.35973 -1.288932,0.979887 0.02526,0.03793"
       id="path4052"
       sodipodi:nodetypes="ccccccccccccccccccccc" />
    <path
       style="font-size:medium;font-style:normal;font-variant:normal;font-weight:normal;font-stretch:normal;text-indent:0;text-align:start;text-decoration:none;line-height:normal;letter-spacing:normal;word-spacing:normal;text-transform:none;direction:ltr;block-progression:tb;writing-mode:lr-tb;text-anchor:start;color:#000000;fill:none;stroke:#fefefe;stroke-width:0.99999994;stroke-linecap:butt;stroke-linejoin:miter;stroke-miterlimit:4;stroke-opacity:0.55;stroke-dasharray:none;stroke-dashoffset:0;marker:none;visibility:visible;display:inline;overflow:visible;enable-background:accumulate;font-family:AlArabiya;-inkscape-font-specification:AlArabiya"
       d="m 87.223633,57.016376 1.030057,-0.221026 0.101046,0.315987 0.979513,-0.296867 0.208466,0.436072 1.143764,0.03177 0.40431,0.771033 1.067949,-0.08199 0.473795,0.916388 0.789803,0.65102 -0.101253,1.162761 0.960468,0.290837 -0.27828,1.554539 0.511801,0.398201 -0.644718,1.086847 0.549713,0.372928 -0.736664,0.992388"
       id="path4039"
       sodipodi:nodetypes="ccccccccccccccccc" />
    <path
       style="font-size:medium;font-style:normal;font-variant:normal;font-weight:normal;font-stretch:normal;text-indent:0;text-align:start;text-decoration:none;line-height:normal;letter-spacing:normal;word-spacing:normal;text-transform:none;direction:ltr;block-progression:tb;writing-mode:lr-tb;text-anchor:start;color:#000000;fill:#f6f7f8;fill-opacity:0.7906977;fill-rule:nonzero;stroke:none;stroke-width:1;marker:none;visibility:visible;display:inline;overflow:visible;filter:url(#filter4103-9-0);enable-background:accumulate;font-family:AlArabiya;-inkscape-font-specification:AlArabiya"
       d="m 102.5,17.0625 c -0.37242,0.0078 -0.72461,0.03521 -1.09375,0.0625 -7.260012,0.512838 -13.479417,2.858161 -20.3125,5.0625 -4.452023,1.564669 -8.174929,2.749165 -12.875,4.46875 l 1.09375,-0.09375 0.875,0.46875 0.1875,0.75 c 4.300699,-1.559007 8.425452,-3.380495 12.5,-4.8125 6.833083,-2.204339 13.552485,-4.143412 20.8125,-4.65625 1.47656,-0.109164 2.99592,0.08584 4.46875,0.3125 2.32108,0.357201 4.98584,1.825243 7.03125,2.96875 -2.57028,-1.976372 -6.12795,-3.817605 -9.34375,-4.3125 -1.10462,-0.169996 -2.22648,-0.242221 -3.34375,-0.21875 z m 6.96875,10.53125 c 2.29883,2.034385 3.68863,5.991387 3,9.03125 -1.03801,4.592629 -5.29646,7.887286 -8.8125,10.65625 -5.6875,3.854167 -9.571267,6.357089 -17.0625,10.4375 l 1.3125,0.21875 0.75,0.53125 c 5.754682,-3.172794 11.4804,-6.442347 16.75,-10.375 3.51604,-2.768964 7.43074,-5.876121 8.46875,-10.46875 0.731,-3.2269 -0.11031,-6.781793 -2.6875,-8.78125 -0.57486,-0.458467 -1.0789,-0.960194 -1.71875,-1.25 z"
       id="path3965"
       sodipodi:nodetypes="cscccccccscsccscccccscc"
       transform="matrix(1.0310876,0,0,1.0311334,-1.0009702,-2.226627)" />
    <path
       style="color:#000000;fill:#e6e9eb;fill-opacity:0.4125;fill-rule:nonzero;stroke:none;stroke-width:1;marker:none;visibility:visible;display:inline;overflow:visible;filter:url(#filter4181);enable-background:accumulate"
       d="M 68,26.625 66.75,27.25 66.875,27.5 68.1875,26.875 68,26.625 z m 1.59375,0 -3.4375,1.90625 0.53125,-0.0625 2.75,-1.59375 0.15625,-0.25 z M 70,27.375 66.25,29.46875 66.96875,29.875 70.375,27.9375 70,27.375 z m 0.84375,1.03125 -4.09375,2.5 0.53125,0.4375 3.65625,-2.125 -0.09375,-0.8125 z m 1.0625,0.75 -5.03125,2.90625 0.9375,0.09375 3.46875,-1.96875 0.625,-1.03125 z M 72.5,30.0625 67.46875,33 67.8125,33.25 71.59375,31.1875 72.5,30.0625 z M 73.3125,31.21875 68.25,34.125 69.0625,34.5 72.75,32.40625 73.3125,31.21875 z M 74,32.59375 69,35.5625 69.875,35.75 73.40625,33.65625 74,32.59375 z m 0.09375,1 -4.625,2.625 0.65625,0.25 3.5,-2.375 0.46875,-0.5 z"
       id="path4058"
       transform="matrix(1.0310876,0,0,1.0311334,-1.0009702,-2.226627)" />
    <path
       id="path4185"
       d="m 86.46875,57.65625 -1.25,0.625 0.125,0.25 1.3125,-0.625 -0.1875,-0.25 z m 1.054688,0.0625 L 85,59.429688 l 0.398437,0.09375 2.507813,-1.617187 -0.382812,-0.1875 z M 88.25,58.359375 85,60.671875 85.773437,61.1875 88.84375,58.96875 88.25,58.359375 z m 1.453125,0.695313 -4.265625,3.101562 0.554687,0.515625 3.953125,-2.890625 -0.242187,-0.726562 z m 0.9375,1.281249 -4.242188,3.132813 1.1875,0.25 2.929688,-2.125 0.125,-1.257813 z m 0.820312,1.554688 -4.09375,2.773437 1.5,0.179688 2.25,-1.570313 0.34375,-1.382812 z m 0.179688,1.726562 -2.726563,1.742188 1.289063,-0.210937 0.78125,-0.523438 0.65625,-1.007813 z m 0.273438,1.0078 -1.851563,1.117188 0.65625,0.25 1.375,-0.867188 -0.179687,-0.5 z"
       style="color:#000000;fill:#e6e9eb;fill-opacity:0.4125;fill-rule:nonzero;stroke:none;stroke-width:1;marker:none;visibility:visible;display:inline;overflow:visible;filter:url(#filter4181);enable-background:accumulate"
       sodipodi:nodetypes="cccccccccccccccccccccccccccccccccccccccc"
       transform="matrix(1.0310876,0,0,1.0311334,-1.0009702,-2.226627)" />
    <path
       style="color:#000000;fill:none;stroke:#505a63;stroke-width:0.99999994;stroke-linecap:butt;stroke-linejoin:miter;stroke-miterlimit:4;stroke-opacity:1;stroke-dasharray:none;stroke-dashoffset:0;marker:none;visibility:visible;display:inline;overflow:visible;enable-background:accumulate"
       d="m 104.70193,14.599427 c -0.384,0.008 -0.77936,0.03631 -1.15998,0.06445 -7.485703,0.528804 -14.349558,3.011591 -21.395065,5.284559 -3.483981,1.224503 -7.125835,2.491345 -10.794198,3.802304 -0.08668,0.03098 -0.171056,0.06564 -0.257772,0.09667 l -3.189927,1.127802 0,0.03222 -0.386657,0.644458 0.22555,0.354453 -0.837759,1.22447 0.386658,0.09666 -0.418879,0.902241 0.741094,0.515567 -0.257772,0.870019 0.579987,0.54779 -0.354436,0.966687 0.934423,0.03223 -0.676651,0.99891 1.224416,0 -0.161107,1.063356 1.09553,0.290007 -0.257772,1.224471 1.192195,0.09667 0,0.580013 1.51441,-0.483344 0,0.676681 1.256638,-0.45112 4.124351,-1.836708 c 4.48775,-1.944167 9.032738,-3.753275 13.565245,-5.574564 2.136342,-0.840798 4.262978,-1.705739 6.412076,-2.513388 4.127492,-1.43173 9.268932,-2.042598 12.920822,0.870019 2.65731,2.061707 4.10476,5.598384 3.35103,8.925749 -1.07028,4.735613 -5.10667,7.971729 -8.73202,10.8269 -5.850965,4.366712 -12.230922,7.926002 -18.624024,11.439136 l -0.128886,0.580013 0.289993,0.193337 -0.579986,0.837796 0.354437,0.322229 -0.289995,1.095579 0.612209,0.612236 -0.354437,0.998911 0.708874,0.741126 0.22555,0.515567 0.386658,0.451121 0.934423,0.193337 0,0.902242 0.09666,0.09667 1.482189,0.193338 0.22555,0.612235 1.224417,-0.322229 0.193328,0.644458 c 0.285698,-0.195863 0.815074,-0.02811 0.934423,-0.03222 l 0.708873,-0.515568 c 6.606994,-4.275999 13.059624,-8.808135 19.204014,-13.726963 5.01848,-4.228697 9.87375,-9.484061 11.05197,-16.175904 0.81202,-5.02435 -0.84189,-10.287605 -3.96324,-14.24253 -2.99486,-3.512128 -7.33386,-5.743429 -11.88973,-6.444584 -1.13897,-0.175288 -2.2957,-0.249762 -3.4477,-0.225561 z"
       id="path3711"
       sodipodi:nodetypes="cscscccccccccccccccccccccccccccsccccccccccccccccccccccccsc" />
    <path
       style="font-size:medium;font-style:normal;font-variant:normal;font-weight:normal;font-stretch:normal;text-indent:0;text-align:start;text-decoration:none;line-height:normal;letter-spacing:normal;word-spacing:normal;text-transform:none;direction:ltr;block-progression:tb;writing-mode:lr-tb;text-anchor:start;color:#000000;fill:#4e5861;fill-opacity:0.6;fill-rule:nonzero;stroke:none;stroke-width:1;marker:none;visibility:visible;display:inline;overflow:visible;filter:url(#filter3931-3);enable-background:accumulate;font-family:AlArabiya;-inkscape-font-specification:AlArabiya"
       d="m 37.694859,59.306981 -3.96875,3.78125 0.0625,0.03125 c -4.78477,4.496233 -9.384063,9.172366 -13.59375,14.21875 -3.692799,4.352646 -6.939029,9.795363 -6.34375,15.71875 0.321525,4.278807 2.445298,9.690669 6.690641,11.301779 1.214176,0.36138 3.101472,0.8732 4.339308,0.78347 -4.68082,-1.47579 -7.069245,-6.984107 -7.369638,-10.981696 -0.595279,-5.923387 2.695145,-12.029016 6.387944,-16.381662 4.209687,-5.046384 8.979475,-9.850658 13.764245,-14.346891 l 1.59375,-1.125 -0.8125,0.09375 0.9375,-1.5 -0.71875,0.0625 0.125,-1.1875 -1.21875,0.03125 0.125,-0.5 z m 27.15625,22.21875 -0.875,0.03125 -2.71875,3.59375 c -4.428588,5.596934 -9.071492,11.040434 -13.875,16.312499 -3.933268,4.09574 -7.475521,8.63827 -12.125,11.96875 -4.381479,3.21211 -10.371552,3.93543 -15.8125,3.65625 6.737134,1.91981 14.204635,0.48618 19.8125,-3.625 4.649479,-3.33048 7.940431,-7.72878 11.873699,-11.82452 4.803508,-5.272069 9.446412,-10.494598 13.875,-16.091532 l 1.063801,-0.927697 -0.625,-0.15625 0.25,-1.21875 -0.59375,-0.1875 -0.25,-1.53125 z"
       id="path3867"
       sodipodi:nodetypes="ccccccccccccccccccccccccccccccc"
       transform="matrix(1.0310876,0,0,1.0311334,-1.0009702,-2.226627)" />
    <path
       style="font-size:medium;font-style:normal;font-variant:normal;font-weight:normal;font-stretch:normal;text-indent:0;text-align:start;text-decoration:none;line-height:normal;letter-spacing:normal;word-spacing:normal;text-transform:none;direction:ltr;block-progression:tb;writing-mode:lr-tb;text-anchor:start;color:#000000;fill:none;stroke:#505a63;stroke-width:0.99999994;stroke-linecap:butt;stroke-linejoin:miter;stroke-miterlimit:4;stroke-opacity:1;stroke-dasharray:none;stroke-dashoffset:0;marker:none;visibility:visible;display:inline;overflow:visible;enable-background:accumulate;font-family:AlArabiya;-inkscape-font-specification:AlArabiya"
       d="m 67.860734,24.994667 0.939372,-0.09055 0.185401,0.381411 1.476032,-0.128396 -0.08589,0.406658 1.004744,0.06966 0.05042,0.897366 0.888828,0.201873 0.159994,0.796754 1.055277,0.145505 -0.461422,0.827777 1.229614,-0.09551 -0.604156,1.075109 0.982194,0.410973 -0.293634,1.074197 1.206908,0.373027 -0.518338,1.112143 0.467187,0.292133 -1.1625,1.047483 0.593627,0.359729 -1.288931,0.979887 0.02526,0.03793"
       id="path4056" />
    <path
       style="font-size:medium;font-style:normal;font-variant:normal;font-weight:normal;font-stretch:normal;text-indent:0;text-align:start;text-decoration:none;line-height:normal;letter-spacing:normal;word-spacing:normal;text-transform:none;direction:ltr;block-progression:tb;writing-mode:lr-tb;text-anchor:start;color:#000000;fill:none;stroke:#505a63;stroke-width:0.99999994;stroke-linecap:butt;stroke-linejoin:miter;stroke-miterlimit:4;stroke-opacity:1;stroke-dasharray:none;stroke-dashoffset:0;marker:none;visibility:visible;display:inline;overflow:visible;enable-background:accumulate;font-family:AlArabiya;-inkscape-font-specification:AlArabiya"
       d="m 86.699601,57.289797 1.030056,-0.221026 0.101047,0.315986 0.979512,-0.296867 0.208466,0.436073 1.143765,0.03177 0.404309,0.771031 1.067949,-0.08199 0.473795,0.916389 0.789804,0.65102 -0.101254,1.16276 0.960468,0.290837 -0.278279,1.55454 0.5118,0.398201 -0.644718,1.086845 0.549714,0.37293 -0.720554,1.13739"
       id="path3796" />
    <path
       style="font-size:medium;font-style:normal;font-variant:normal;font-weight:normal;font-stretch:normal;text-indent:0;text-align:start;text-decoration:none;line-height:normal;letter-spacing:normal;word-spacing:normal;text-transform:none;direction:ltr;block-progression:tb;writing-mode:lr-tb;text-anchor:start;color:#000000;fill:#f6f7f8;fill-opacity:0.7906977;fill-rule:nonzero;stroke:none;stroke-width:1;marker:none;visibility:visible;display:inline;overflow:visible;filter:url(#filter4103-9);enable-background:accumulate;font-family:AlArabiya;-inkscape-font-specification:AlArabiya"
       d="m 19.682914,108.57536 c -6.698831,-2.54221 -9.906188,-8.56608 -10.359375,-14.17187 -0.637273,-7.624253 1.284989,-15.227139 6.125,-20.71875 3.974644,-4.509742 13.684495,-12.930333 17.875,-17.015625 -0.350666,-0.456151 -0.617968,-0.19284 -1.046875,-0.484375 -4.775798,3.799573 -12.806722,11.304157 -17.203125,15.53125 -7.222603,6.944453 -9.494891,17.388255 -7.300896,27.447648 1.916334,5.892012 6.219374,12.119812 12.636412,12.904252 10.323419,1.26196 18.932511,-7.53182 25.695734,-14.78935 4.157501,-4.520644 10.78548,-12.5747 14.65625,-17.3438 -0.06701,-0.157232 -0.95692,-0.530598 -1.09375,-0.59375 -8.390586,8.213938 -17.148241,22.55059 -29.147623,28.36864 -3.461571,1.54088 -6.580253,2.13262 -10.836752,0.86573 z"
       id="path3945"
       sodipodi:nodetypes="ccsccscsccccc"
       transform="matrix(1.0310876,0,0,1.0311334,-1.0009702,-2.226627)" />
    <path
       style="font-size:medium;font-style:normal;font-variant:normal;font-weight:normal;font-stretch:normal;text-indent:0;text-align:start;text-decoration:none;line-height:normal;letter-spacing:normal;word-spacing:normal;text-transform:none;direction:ltr;block-progression:tb;writing-mode:lr-tb;text-anchor:start;color:#000000;fill:none;stroke:#fefefe;stroke-width:0.99999994;stroke-linecap:butt;stroke-linejoin:miter;stroke-miterlimit:4;stroke-opacity:0.55;stroke-dasharray:none;stroke-dashoffset:0;marker:none;visibility:visible;display:inline;overflow:visible;enable-background:accumulate;font-family:AlArabiya;-inkscape-font-specification:AlArabiya"
       d="m 66.337897,86.774991 0.313975,-1.309317 -0.640776,-0.175083 0.25856,-1.236961 -0.613068,-0.211262 -0.239445,-1.560992 -1.002907,0.03545 -0.280218,-1.133022 -0.957897,-0.360573 -0.744709,-0.713887 -0.984031,0.423009 -0.631944,-0.598818 -1.092561,0.339883 -0.338295,-0.345206 -0.830855,0.597729 -0.197823,-0.266315 -0.903208,0.542312"
       id="path4023" />
    <path
       style="font-size:medium;font-style:normal;font-variant:normal;font-weight:normal;font-stretch:normal;text-indent:0;text-align:start;text-decoration:none;line-height:normal;letter-spacing:normal;word-spacing:normal;text-transform:none;direction:ltr;block-progression:tb;writing-mode:lr-tb;text-anchor:start;color:#000000;fill:none;stroke:#fefefe;stroke-width:0.99999994;stroke-linecap:butt;stroke-linejoin:miter;stroke-miterlimit:4;stroke-opacity:0.55;stroke-dasharray:none;stroke-dashoffset:0;marker:none;visibility:visible;display:inline;overflow:visible;enable-background:accumulate;font-family:AlArabiya;-inkscape-font-specification:AlArabiya"
       d="m 38.007996,64.072068 -0.03618,-0.02771 1.055174,-1.602617 -0.830492,0.110108 0.963583,-1.557968 -0.7389,0.06546 0.130792,-1.22002 -1.262678,0.03738 0.322444,-1.24543 -1.454328,0.0628 0.397097,-1.417853 -1.30575,0.693197 0.168904,-0.93253 -1.045616,0.20364 -0.252511,-1.169202 -1.062918,0.563488 -0.337933,-0.832828 -0.973263,0.259057 0.160072,-0.508797 -1.565518,0.695141 -0.02311,-0.419498 -1.135272,0.50807"
       id="path4019" />
    <path
       id="path3819"
       d="m 32.361174,55.11934 -1.565519,0.695134 -0.02311,-0.4195 -1.135272,0.50807 C 24.141902,60.34795 18.707949,64.978058 14.053582,69.768432 5.0736391,78.238604 2.3100413,90.824374 4.8945952,102.675 c 1.3443512,6.26964 6.0978058,13.50381 12.2141908,16.12825 7.483486,3.20742 16.424979,1.43205 22.868532,-3.29199 4.79402,-3.43417 8.445992,-8.12832 12.501535,-12.35158 4.952838,-5.436199 9.748463,-11.046418 14.314725,-16.817603 l 0.313975,-1.309319 -0.640776,-0.175083 0.258561,-1.23696 -0.613069,-0.211263 -0.239445,-1.560991 -1.002907,0.03545 -0.280218,-1.133024 -0.957898,-0.360572 -0.744708,-0.713887 -0.984031,0.423009 -0.631944,-0.598818 -1.092561,0.339882 -0.338295,-0.345206 -0.830854,0.59773 -0.197824,-0.266316 -0.903208,0.542312 c -1.323811,1.45279 -2.625564,2.901718 -3.940236,4.35798 -5.51283,5.894329 -11.038785,11.816676 -16.795795,17.471609 -3.331468,2.78061 -8.037812,4.54248 -12.341467,3.2615 -4.37732,-1.66127 -6.580418,-6.535856 -6.911939,-10.947877 -0.613784,-6.107802 2.722111,-11.719862 6.52971,-16.208021 4.340556,-5.203495 9.08151,-10.028845 14.015028,-14.665061 l -0.03618,-0.02771 1.055174,-1.602616 -0.830492,0.110108 0.963583,-1.557968 -0.738901,0.06546 0.130792,-1.22002 -1.262677,0.03739 0.322444,-1.245431 -1.454328,0.0628 0.397097,-1.417852 -1.30575,0.693196 0.168904,-0.93253 -1.045616,0.203639 -0.252511,-1.1692 -1.062919,0.563486 -0.337932,-0.832827 -0.973263,0.259057 0.160072,-0.508796 z"
       style="font-size:medium;font-style:normal;font-variant:normal;font-weight:normal;font-stretch:normal;text-indent:0;text-align:start;text-decoration:none;line-height:normal;letter-spacing:normal;word-spacing:normal;text-transform:none;direction:ltr;block-progression:tb;writing-mode:lr-tb;text-anchor:start;color:#000000;fill:none;stroke:#505a63;stroke-width:0.99999994;stroke-linecap:butt;stroke-linejoin:miter;stroke-miterlimit:4;stroke-opacity:1;stroke-dasharray:none;stroke-dashoffset:0;marker:none;visibility:visible;display:inline;overflow:visible;enable-background:accumulate;font-family:AlArabiya;-inkscape-font-specification:AlArabiya" />
    <g
       id="g4272"
       transform="matrix(0.62640506,0.1927872,-0.19277863,0.62643291,45.706556,12.046494)"
       inkscape:label="shard12">
      <path
         sodipodi:nodetypes="ccccc"
         id="path4227"
         d="m 76.721086,99.008622 1.06066,7.446718 2.717942,-0.97227 2.585359,-1.67938 -6.363961,-4.795068 z"
         style="color:#000000;fill:#a3acb5;fill-opacity:1;fill-rule:nonzero;stroke:none;stroke-width:1;marker:none;visibility:visible;display:inline;overflow:visible;enable-background:accumulate" />
      <path
         sodipodi:nodetypes="cccc"
         id="path4254"
         d="m 77.870135,105.77033 c 0.680325,-0.4723 1.957454,-0.34798 2.580282,-0.82028 l 1.551873,-0.99168 -4.596194,-4.110059"
         style="color:#000000;fill:none;stroke:#6e7881;stroke-width:1.52575588;stroke-linecap:butt;stroke-linejoin:miter;stroke-miterlimit:4;stroke-opacity:1;stroke-dasharray:none;stroke-dashoffset:0;marker:none;visibility:visible;display:inline;overflow:visible;enable-background:accumulate" />
      <path
         sodipodi:nodetypes="cccccc"
         id="path4256"
         d="m 76.75,99.3125 1.505362,6.81856 L 78,101.9688 c 1.104839,0.39933 1.99615,0.97883 2.767734,1.37373 L 76.75,99.31255 l 0,-5e-5 z"
         style="font-size:medium;font-style:normal;font-variant:normal;font-weight:normal;font-stretch:normal;text-indent:0;text-align:start;text-decoration:none;line-height:normal;letter-spacing:normal;word-spacing:normal;text-transform:none;direction:ltr;block-progression:tb;writing-mode:lr-tb;text-anchor:start;color:#000000;fill:#e4e7e9;fill-opacity:1;stroke:none;stroke-width:1;marker:none;visibility:visible;display:inline;overflow:visible;enable-background:accumulate;font-family:AlArabiya;-inkscape-font-specification:AlArabiya" />
      <path
         sodipodi:nodetypes="ccccc"
         style="color:#000000;fill:none;stroke:#505a63;stroke-width:1.52575588;stroke-linecap:butt;stroke-linejoin:miter;stroke-miterlimit:4;stroke-opacity:1;stroke-dasharray:none;stroke-dashoffset:0;marker:none;visibility:visible;display:inline;overflow:visible;enable-background:accumulate"
         d="m 76.721086,99.008622 1.06066,7.247848 2.757718,-0.67175 2.545583,-1.9799 -6.363961,-4.596198 z"
         id="path4231" />
    </g>
    <g
       transform="matrix(0.39552367,-0.29139335,0.2913804,0.39554125,36.37464,68.62516)"
       id="g4278"
       inkscape:label="shard11">
      <path
         style="color:#000000;fill:#a3acb5;fill-opacity:1;fill-rule:nonzero;stroke:none;stroke-width:1;marker:none;visibility:visible;display:inline;overflow:visible;enable-background:accumulate"
         d="m 76.721086,99.008622 1.06066,7.446718 2.717942,-0.97227 2.585359,-1.67938 -6.363961,-4.795068 z"
         id="path4280"
         sodipodi:nodetypes="ccccc" />
      <path
         style="color:#000000;fill:none;stroke:#6e7881;stroke-width:2.03551507;stroke-linecap:butt;stroke-linejoin:miter;stroke-miterlimit:4;stroke-opacity:1;stroke-dasharray:none;stroke-dashoffset:0;marker:none;visibility:visible;display:inline;overflow:visible;enable-background:accumulate"
         d="m 77.870135,105.77033 c 0.680325,-0.4723 1.957454,-0.34798 2.580282,-0.82028 l 1.551873,-0.99168 -4.596194,-4.110059"
         id="path4282"
         sodipodi:nodetypes="cccc" />
      <path
         style="font-size:medium;font-style:normal;font-variant:normal;font-weight:normal;font-stretch:normal;text-indent:0;text-align:start;text-decoration:none;line-height:normal;letter-spacing:normal;word-spacing:normal;text-transform:none;direction:ltr;block-progression:tb;writing-mode:lr-tb;text-anchor:start;color:#000000;fill:#e4e7e9;fill-opacity:1;stroke:none;stroke-width:1;marker:none;visibility:visible;display:inline;overflow:visible;enable-background:accumulate;font-family:AlArabiya;-inkscape-font-specification:AlArabiya"
         d="m 76.75,99.3125 1.505362,6.81856 L 78,101.9688 c 1.104839,0.39933 1.99615,0.97883 2.767734,1.37373 L 76.75,99.31255 l 0,-5e-5 z"
         id="path4284"
         sodipodi:nodetypes="cccccc" />
      <path
         id="path4286"
         d="m 76.721086,99.008622 1.06066,7.247848 2.757718,-0.67175 2.545583,-1.9799 -6.363961,-4.596198 z"
         style="color:#000000;fill:none;stroke:#505a63;stroke-width:2.03551507;stroke-linecap:butt;stroke-linejoin:miter;stroke-miterlimit:4;stroke-opacity:1;stroke-dasharray:none;stroke-dashoffset:0;marker:none;visibility:visible;display:inline;overflow:visible;enable-background:accumulate"
         sodipodi:nodetypes="ccccc" />
    </g>
    <g
       id="g4288"
       transform="matrix(0.64826503,0.09643741,-0.09643312,0.64829385,42.578165,23.172727)"
       inkscape:label="shard10">
      <path
         sodipodi:nodetypes="ccccc"
         id="path4290"
         d="m 76.721086,99.008622 1.06066,7.446718 2.717942,-0.97227 2.585359,-1.67938 -6.363961,-4.795068 z"
         style="color:#000000;fill:#a3acb5;fill-opacity:1;fill-rule:nonzero;stroke:none;stroke-width:1;marker:none;visibility:visible;display:inline;overflow:visible;enable-background:accumulate" />
      <path
         sodipodi:nodetypes="cccc"
         id="path4292"
         d="m 77.870135,105.77033 c 0.680325,-0.4723 1.957454,-0.34798 2.580282,-0.82028 l 1.551873,-0.99168 -4.596194,-4.110059"
         style="color:#000000;fill:none;stroke:#6e7881;stroke-width:1.52575588;stroke-linecap:butt;stroke-linejoin:miter;stroke-miterlimit:4;stroke-opacity:1;stroke-dasharray:none;stroke-dashoffset:0;marker:none;visibility:visible;display:inline;overflow:visible;enable-background:accumulate" />
      <path
         sodipodi:nodetypes="cccccc"
         id="path4294"
         d="m 76.75,99.3125 1.505362,6.81856 L 78,101.9688 c 1.104839,0.39933 1.99615,0.97883 2.767734,1.37373 L 76.75,99.31255 l 0,-5e-5 z"
         style="font-size:medium;font-style:normal;font-variant:normal;font-weight:normal;font-stretch:normal;text-indent:0;text-align:start;text-decoration:none;line-height:normal;letter-spacing:normal;word-spacing:normal;text-transform:none;direction:ltr;block-progression:tb;writing-mode:lr-tb;text-anchor:start;color:#000000;fill:#e4e7e9;fill-opacity:1;stroke:none;stroke-width:1;marker:none;visibility:visible;display:inline;overflow:visible;enable-background:accumulate;font-family:AlArabiya;-inkscape-font-specification:AlArabiya" />
      <path
         sodipodi:nodetypes="ccccc"
         style="color:#000000;fill:none;stroke:#505a63;stroke-width:1.52575588;stroke-linecap:butt;stroke-linejoin:miter;stroke-miterlimit:4;stroke-opacity:1;stroke-dasharray:none;stroke-dashoffset:0;marker:none;visibility:visible;display:inline;overflow:visible;enable-background:accumulate"
         d="m 76.721086,99.008622 1.06066,7.247848 2.757718,-0.67175 2.545583,-1.9799 -6.363961,-4.596198 z"
         id="path4296" />
    </g>
    <g
       transform="matrix(0.24918845,-0.38500451,0.3849874,0.24919953,37.10876,79.68801)"
       id="g4298"
       inkscape:label="shard9">
      <path
         style="color:#000000;fill:#a3acb5;fill-opacity:1;fill-rule:nonzero;stroke:none;stroke-width:1;marker:none;visibility:visible;display:inline;overflow:visible;enable-background:accumulate"
         d="m 76.721086,99.008622 1.06066,7.446718 2.717942,-0.97227 2.585359,-1.67938 -6.363961,-4.795068 z"
         id="path4300"
         sodipodi:nodetypes="ccccc" />
      <path
         style="color:#000000;fill:none;stroke:#6e7881;stroke-width:2.18052077;stroke-linecap:butt;stroke-linejoin:miter;stroke-miterlimit:4;stroke-opacity:1;stroke-dasharray:none;stroke-dashoffset:0;marker:none;visibility:visible;display:inline;overflow:visible;enable-background:accumulate"
         d="m 77.870135,105.77033 c 0.680325,-0.4723 1.957454,-0.34798 2.580282,-0.82028 l 1.551873,-0.99168 -4.596194,-4.110059"
         id="path4302"
         sodipodi:nodetypes="cccc" />
      <path
         style="font-size:medium;font-style:normal;font-variant:normal;font-weight:normal;font-stretch:normal;text-indent:0;text-align:start;text-decoration:none;line-height:normal;letter-spacing:normal;word-spacing:normal;text-transform:none;direction:ltr;block-progression:tb;writing-mode:lr-tb;text-anchor:start;color:#000000;fill:#e4e7e9;fill-opacity:1;stroke:none;stroke-width:1;marker:none;visibility:visible;display:inline;overflow:visible;enable-background:accumulate;font-family:AlArabiya;-inkscape-font-specification:AlArabiya"
         d="m 76.75,99.3125 1.505362,6.81856 L 78,101.9688 c 1.104839,0.39933 1.99615,0.97883 2.767734,1.37373 L 76.75,99.31255 l 0,-5e-5 z"
         id="path4304"
         sodipodi:nodetypes="cccccc" />
      <path
         id="path4306"
         d="m 76.721086,99.008622 1.06066,7.247848 2.757718,-0.67175 2.545583,-1.9799 -6.363961,-4.596198 z"
         style="color:#000000;fill:none;stroke:#505a63;stroke-width:2.18052077;stroke-linecap:butt;stroke-linejoin:miter;stroke-miterlimit:4;stroke-opacity:1;stroke-dasharray:none;stroke-dashoffset:0;marker:none;visibility:visible;display:inline;overflow:visible;enable-background:accumulate"
         sodipodi:nodetypes="ccccc" />
    </g>
    <g
       id="g4308"
       transform="matrix(0.3510638,-0.08713172,0.08712785,0.35107939,49.507854,53.865688)"
       inkscape:transform-center-x="-1.8328508"
       inkscape:transform-center-y="-1.7416445"
       inkscape:label="shard8">
      <path
         sodipodi:nodetypes="ccccc"
         id="path4310"
         d="m 76.721086,99.008622 1.06066,7.446718 2.717942,-0.97227 2.585359,-1.67938 -6.363961,-4.795068 z"
         style="color:#000000;fill:#a3acb5;fill-opacity:1;fill-rule:nonzero;stroke:none;stroke-width:1;marker:none;visibility:visible;display:inline;overflow:visible;enable-background:accumulate" />
      <path
         sodipodi:nodetypes="cccc"
         id="path4312"
         d="m 77.870135,105.77033 c 0.680325,-0.4723 1.957454,-0.34798 2.580282,-0.82028 l 1.551873,-0.99168 -4.596194,-4.110059"
         style="color:#000000;fill:none;stroke:#6e7881;stroke-width:2.76455331;stroke-linecap:butt;stroke-linejoin:miter;stroke-miterlimit:4;stroke-opacity:1;stroke-dasharray:none;stroke-dashoffset:0;marker:none;visibility:visible;display:inline;overflow:visible;enable-background:accumulate" />
      <path
         sodipodi:nodetypes="cccccc"
         id="path4314"
         d="m 76.75,99.3125 1.505362,6.81856 L 78,101.9688 c 1.104839,0.39933 1.99615,0.97883 2.767734,1.37373 L 76.75,99.31255 l 0,-5e-5 z"
         style="font-size:medium;font-style:normal;font-variant:normal;font-weight:normal;font-stretch:normal;text-indent:0;text-align:start;text-decoration:none;line-height:normal;letter-spacing:normal;word-spacing:normal;text-transform:none;direction:ltr;block-progression:tb;writing-mode:lr-tb;text-anchor:start;color:#000000;fill:#e4e7e9;fill-opacity:1;stroke:none;stroke-width:1;marker:none;visibility:visible;display:inline;overflow:visible;enable-background:accumulate;font-family:AlArabiya;-inkscape-font-specification:AlArabiya" />
      <path
         sodipodi:nodetypes="ccccc"
         style="color:#000000;fill:none;stroke:#505a63;stroke-width:2.76455331;stroke-linecap:butt;stroke-linejoin:miter;stroke-miterlimit:4;stroke-opacity:1;stroke-dasharray:none;stroke-dashoffset:0;marker:none;visibility:visible;display:inline;overflow:visible;enable-background:accumulate"
         d="m 76.721086,99.008622 1.06066,7.247848 2.757718,-0.67175 2.545583,-1.9799 -6.363961,-4.596198 z"
         id="path4316" />
    </g>
    <g
       inkscape:transform-center-y="-1.7416441"
       inkscape:transform-center-x="-1.8328515"
       transform="matrix(0.3510638,-0.08713172,0.08712785,0.35107939,47.320588,43.840269)"
       id="g4318"
       inkscape:label="shard7">
      <path
         style="color:#000000;fill:#a3acb5;fill-opacity:1;fill-rule:nonzero;stroke:none;stroke-width:1;marker:none;visibility:visible;display:inline;overflow:visible;enable-background:accumulate"
         d="m 76.721086,99.008622 1.06066,7.446718 2.717942,-0.97227 2.585359,-1.67938 -6.363961,-4.795068 z"
         id="path4320"
         sodipodi:nodetypes="ccccc" />
      <path
         style="color:#000000;fill:none;stroke:#6e7881;stroke-width:2.76455331;stroke-linecap:butt;stroke-linejoin:miter;stroke-miterlimit:4;stroke-opacity:1;stroke-dasharray:none;stroke-dashoffset:0;marker:none;visibility:visible;display:inline;overflow:visible;enable-background:accumulate"
         d="m 77.870135,105.77033 c 0.680325,-0.4723 1.957454,-0.34798 2.580282,-0.82028 l 1.551873,-0.99168 -4.596194,-4.110059"
         id="path4322"
         sodipodi:nodetypes="cccc" />
      <path
         style="font-size:medium;font-style:normal;font-variant:normal;font-weight:normal;font-stretch:normal;text-indent:0;text-align:start;text-decoration:none;line-height:normal;letter-spacing:normal;word-spacing:normal;text-transform:none;direction:ltr;block-progression:tb;writing-mode:lr-tb;text-anchor:start;color:#000000;fill:#e4e7e9;fill-opacity:1;stroke:none;stroke-width:1;marker:none;visibility:visible;display:inline;overflow:visible;enable-background:accumulate;font-family:AlArabiya;-inkscape-font-specification:AlArabiya"
         d="m 76.75,99.3125 1.505362,6.81856 L 78,101.9688 c 1.104839,0.39933 1.99615,0.97883 2.767734,1.37373 L 76.75,99.31255 l 0,-5e-5 z"
         id="path4324"
         sodipodi:nodetypes="cccccc" />
      <path
         id="path4326"
         d="m 76.721086,99.008622 1.06066,7.247848 2.757718,-0.67175 2.545583,-1.9799 -6.363961,-4.596198 z"
         style="color:#000000;fill:none;stroke:#505a63;stroke-width:2.76455331;stroke-linecap:butt;stroke-linejoin:miter;stroke-miterlimit:4;stroke-opacity:1;stroke-dasharray:none;stroke-dashoffset:0;marker:none;visibility:visible;display:inline;overflow:visible;enable-background:accumulate"
         sodipodi:nodetypes="ccccc" />
    </g>
    <g
       transform="matrix(-0.48505064,-0.18822128,0.18821292,-0.48507221,69.266616,96.575042)"
       id="g4328"
       inkscape:label="shard6">
      <path
         style="color:#000000;fill:#a3acb5;fill-opacity:1;fill-rule:nonzero;stroke:none;stroke-width:1;marker:none;visibility:visible;display:inline;overflow:visible;enable-background:accumulate"
         d="m 76.721086,99.008622 1.06066,7.446718 2.717942,-0.97227 2.585359,-1.67938 -6.363961,-4.795068 z"
         id="path4330"
         sodipodi:nodetypes="ccccc" />
      <path
         style="color:#000000;fill:none;stroke:#6e7881;stroke-width:1.92197454;stroke-linecap:butt;stroke-linejoin:miter;stroke-miterlimit:4;stroke-opacity:1;stroke-dasharray:none;stroke-dashoffset:0;marker:none;visibility:visible;display:inline;overflow:visible;enable-background:accumulate"
         d="m 77.870135,105.77033 c 0.680325,-0.4723 1.957454,-0.34798 2.580282,-0.82028 l 1.551873,-0.99168 -4.596194,-4.110059"
         id="path4332"
         sodipodi:nodetypes="cccc" />
      <path
         style="font-size:medium;font-style:normal;font-variant:normal;font-weight:normal;font-stretch:normal;text-indent:0;text-align:start;text-decoration:none;line-height:normal;letter-spacing:normal;word-spacing:normal;text-transform:none;direction:ltr;block-progression:tb;writing-mode:lr-tb;text-anchor:start;color:#000000;fill:#e4e7e9;fill-opacity:1;stroke:none;stroke-width:1;marker:none;visibility:visible;display:inline;overflow:visible;enable-background:accumulate;font-family:AlArabiya;-inkscape-font-specification:AlArabiya"
         d="m 76.75,99.3125 1.505362,6.81856 L 78,101.9688 c 1.104839,0.39933 1.99615,0.97883 2.767734,1.37373 L 76.75,99.31255 l 0,-5e-5 z"
         id="path4334"
         sodipodi:nodetypes="cccccc" />
      <path
         id="path4336"
         d="m 76.721086,99.008622 1.06066,7.247848 2.757718,-0.67175 2.545583,-1.9799 -6.363961,-4.596198 z"
         style="color:#000000;fill:none;stroke:#505a63;stroke-width:1.92197454;stroke-linecap:butt;stroke-linejoin:miter;stroke-miterlimit:4;stroke-opacity:1;stroke-dasharray:none;stroke-dashoffset:0;marker:none;visibility:visible;display:inline;overflow:visible;enable-background:accumulate"
         sodipodi:nodetypes="ccccc" />
    </g>
    <g
       id="g4338"
       transform="matrix(-0.32972639,0.20827031,-0.20826106,-0.32974105,75.858231,49.206348)"
       inkscape:label="shard5">
      <path
         sodipodi:nodetypes="ccccc"
         id="path4340"
         d="m 76.721086,99.008622 1.06066,7.446718 2.717942,-0.97227 2.585359,-1.67938 -6.363961,-4.795068 z"
         style="color:#000000;fill:#a3acb5;fill-opacity:1;fill-rule:nonzero;stroke:none;stroke-width:1;marker:none;visibility:visible;display:inline;overflow:visible;enable-background:accumulate" />
      <path
         sodipodi:nodetypes="cccc"
         id="path4342"
         d="m 77.870135,105.77033 c 0.680325,-0.4723 1.957454,-0.34798 2.580282,-0.82028 l 1.551873,-0.99168 -4.596194,-4.110059"
         style="color:#000000;fill:none;stroke:#6e7881;stroke-width:2.56411147;stroke-linecap:butt;stroke-linejoin:miter;stroke-miterlimit:4;stroke-opacity:1;stroke-dasharray:none;stroke-dashoffset:0;marker:none;visibility:visible;display:inline;overflow:visible;enable-background:accumulate" />
      <path
         sodipodi:nodetypes="cccccc"
         id="path4344"
         d="m 76.75,99.3125 1.505362,6.81856 L 78,101.9688 c 1.104839,0.39933 1.99615,0.97883 2.767734,1.37373 L 76.75,99.31255 l 0,-5e-5 z"
         style="font-size:medium;font-style:normal;font-variant:normal;font-weight:normal;font-stretch:normal;text-indent:0;text-align:start;text-decoration:none;line-height:normal;letter-spacing:normal;word-spacing:normal;text-transform:none;direction:ltr;block-progression:tb;writing-mode:lr-tb;text-anchor:start;color:#000000;fill:#e4e7e9;fill-opacity:1;stroke:none;stroke-width:1;marker:none;visibility:visible;display:inline;overflow:visible;enable-background:accumulate;font-family:AlArabiya;-inkscape-font-specification:AlArabiya" />
      <path
         sodipodi:nodetypes="ccccc"
         style="color:#000000;fill:none;stroke:#505a63;stroke-width:2.56411147;stroke-linecap:butt;stroke-linejoin:miter;stroke-miterlimit:4;stroke-opacity:1;stroke-dasharray:none;stroke-dashoffset:0;marker:none;visibility:visible;display:inline;overflow:visible;enable-background:accumulate"
         d="m 76.721086,99.008622 1.06066,7.247848 2.757718,-0.67175 2.545583,-1.9799 -6.363961,-4.596198 z"
         id="path4346" />
    </g>
    <g
       transform="matrix(-0.5078303,-0.11317138,0.11316636,-0.50785287,72.740004,82.292073)"
       id="g4348"
       inkscape:label="shard4">
      <path
         style="color:#000000;fill:#a3acb5;fill-opacity:1;fill-rule:nonzero;stroke:none;stroke-width:1;marker:none;visibility:visible;display:inline;overflow:visible;enable-background:accumulate"
         d="m 76.721086,99.008622 1.06066,7.446718 2.717942,-0.97227 2.585359,-1.67938 -6.363961,-4.795068 z"
         id="path4350"
         sodipodi:nodetypes="ccccc" />
      <path
         style="color:#000000;fill:none;stroke:#6e7881;stroke-width:1.92197454;stroke-linecap:butt;stroke-linejoin:miter;stroke-miterlimit:4;stroke-opacity:1;stroke-dasharray:none;stroke-dashoffset:0;marker:none;visibility:visible;display:inline;overflow:visible;enable-background:accumulate"
         d="m 77.870135,105.77033 c 0.680325,-0.4723 1.957454,-0.34798 2.580282,-0.82028 l 1.551873,-0.99168 -4.596194,-4.110059"
         id="path4352"
         sodipodi:nodetypes="cccc" />
      <path
         style="font-size:medium;font-style:normal;font-variant:normal;font-weight:normal;font-stretch:normal;text-indent:0;text-align:start;text-decoration:none;line-height:normal;letter-spacing:normal;word-spacing:normal;text-transform:none;direction:ltr;block-progression:tb;writing-mode:lr-tb;text-anchor:start;color:#000000;fill:#e4e7e9;fill-opacity:1;stroke:none;stroke-width:1;marker:none;visibility:visible;display:inline;overflow:visible;enable-background:accumulate;font-family:AlArabiya;-inkscape-font-specification:AlArabiya"
         d="m 76.75,99.3125 1.505362,6.81856 L 78,101.9688 c 1.104839,0.39933 1.99615,0.97883 2.767734,1.37373 L 76.75,99.31255 l 0,-5e-5 z"
         id="path4354"
         sodipodi:nodetypes="cccccc" />
      <path
         id="path4356"
         d="m 76.721086,99.008622 1.06066,7.247848 2.757718,-0.67175 2.545583,-1.9799 -6.363961,-4.596198 z"
         style="color:#000000;fill:none;stroke:#505a63;stroke-width:1.92197454;stroke-linecap:butt;stroke-linejoin:miter;stroke-miterlimit:4;stroke-opacity:1;stroke-dasharray:none;stroke-dashoffset:0;marker:none;visibility:visible;display:inline;overflow:visible;enable-background:accumulate"
         sodipodi:nodetypes="ccccc" />
    </g>
    <g
       id="g4358"
       transform="matrix(-0.21917111,0.29070247,-0.29068955,-0.21918084,75.540531,43.5037)"
       inkscape:label="shard3">
      <path
         sodipodi:nodetypes="ccccc"
         id="path4360"
         d="m 76.721086,99.008622 1.06066,7.446718 2.717942,-0.97227 2.585359,-1.67938 -6.363961,-4.795068 z"
         style="color:#000000;fill:#a3acb5;fill-opacity:1;fill-rule:nonzero;stroke:none;stroke-width:1;marker:none;visibility:visible;display:inline;overflow:visible;enable-background:accumulate" />
      <path
         sodipodi:nodetypes="cccc"
         id="path4362"
         d="m 77.870135,105.77033 c 0.680325,-0.4723 1.957454,-0.34798 2.580282,-0.82028 l 1.551873,-0.99168 -4.596194,-4.110059"
         style="color:#000000;fill:none;stroke:#6e7881;stroke-width:2.74677324;stroke-linecap:butt;stroke-linejoin:miter;stroke-miterlimit:4;stroke-opacity:1;stroke-dasharray:none;stroke-dashoffset:0;marker:none;visibility:visible;display:inline;overflow:visible;enable-background:accumulate" />
      <path
         sodipodi:nodetypes="cccccc"
         id="path4364"
         d="m 76.75,99.3125 1.505362,6.81856 L 78,101.9688 c 1.104839,0.39933 1.99615,0.97883 2.767734,1.37373 L 76.75,99.31255 l 0,-5e-5 z"
         style="font-size:medium;font-style:normal;font-variant:normal;font-weight:normal;font-stretch:normal;text-indent:0;text-align:start;text-decoration:none;line-height:normal;letter-spacing:normal;word-spacing:normal;text-transform:none;direction:ltr;block-progression:tb;writing-mode:lr-tb;text-anchor:start;color:#000000;fill:#e4e7e9;fill-opacity:1;stroke:none;stroke-width:1;marker:none;visibility:visible;display:inline;overflow:visible;enable-background:accumulate;font-family:AlArabiya;-inkscape-font-specification:AlArabiya" />
      <path
         sodipodi:nodetypes="ccccc"
         style="color:#000000;fill:none;stroke:#505a63;stroke-width:2.74677324;stroke-linecap:butt;stroke-linejoin:miter;stroke-miterlimit:4;stroke-opacity:1;stroke-dasharray:none;stroke-dashoffset:0;marker:none;visibility:visible;display:inline;overflow:visible;enable-background:accumulate"
         d="m 76.721086,99.008622 1.06066,7.247848 2.757718,-0.67175 2.545583,-1.9799 -6.363961,-4.596198 z"
         id="path4366" />
    </g>
    <g
       inkscape:transform-center-y="1.3212825"
       inkscape:transform-center-x="1.5897156"
       transform="matrix(-0.28292473,0.04905753,-0.04905535,-0.28293731,69.542484,59.600525)"
       id="g4368"
       inkscape:label="shard2">
      <path
         style="color:#000000;fill:#a3acb5;fill-opacity:1;fill-rule:nonzero;stroke:none;stroke-width:1;marker:none;visibility:visible;display:inline;overflow:visible;enable-background:accumulate"
         d="m 76.721086,99.008622 1.06066,7.446718 2.717942,-0.97227 2.585359,-1.67938 -6.363961,-4.795068 z"
         id="path4370"
         sodipodi:nodetypes="ccccc" />
      <path
         style="color:#000000;fill:none;stroke:#6e7881;stroke-width:3.48247147;stroke-linecap:butt;stroke-linejoin:miter;stroke-miterlimit:4;stroke-opacity:1;stroke-dasharray:none;stroke-dashoffset:0;marker:none;visibility:visible;display:inline;overflow:visible;enable-background:accumulate"
         d="m 77.870135,105.77033 c 0.680325,-0.4723 1.957454,-0.34798 2.580282,-0.82028 l 1.551873,-0.99168 -4.596194,-4.110059"
         id="path4372"
         sodipodi:nodetypes="cccc" />
      <path
         style="font-size:medium;font-style:normal;font-variant:normal;font-weight:normal;font-stretch:normal;text-indent:0;text-align:start;text-decoration:none;line-height:normal;letter-spacing:normal;word-spacing:normal;text-transform:none;direction:ltr;block-progression:tb;writing-mode:lr-tb;text-anchor:start;color:#000000;fill:#e4e7e9;fill-opacity:1;stroke:none;stroke-width:1;marker:none;visibility:visible;display:inline;overflow:visible;enable-background:accumulate;font-family:AlArabiya;-inkscape-font-specification:AlArabiya"
         d="m 76.75,99.3125 1.505362,6.81856 L 78,101.9688 c 1.104839,0.39933 1.99615,0.97883 2.767734,1.37373 L 76.75,99.31255 l 0,-5e-5 z"
         id="path4374"
         sodipodi:nodetypes="cccccc" />
      <path
         id="path4376"
         d="m 76.721086,99.008622 1.06066,7.247848 2.757718,-0.67175 2.545583,-1.9799 -6.363961,-4.596198 z"
         style="color:#000000;fill:none;stroke:#505a63;stroke-width:3.48247147;stroke-linecap:butt;stroke-linejoin:miter;stroke-miterlimit:4;stroke-opacity:1;stroke-dasharray:none;stroke-dashoffset:0;marker:none;visibility:visible;display:inline;overflow:visible;enable-background:accumulate"
         sodipodi:nodetypes="ccccc" />
    </g>
    <g
       id="g4378"
       transform="matrix(-0.22299379,0.03866585,-0.03866413,-0.2230037,60.997087,64.08757)"
       inkscape:transform-center-x="1.5897094"
       inkscape:transform-center-y="1.3212833"
       style="display:inline"
       inkscape:label="shard1">
      <path
         sodipodi:nodetypes="ccccc"
         id="path4380"
         d="m 76.721086,99.008622 1.06066,7.446718 2.717942,-0.97227 2.585359,-1.67938 z"
         style="color:#000000;display:inline;overflow:visible;visibility:visible;fill:#a3acb5;fill-opacity:1;fill-rule:nonzero;stroke:none;stroke-width:1;marker:none;enable-background:accumulate" />
      <path
         sodipodi:nodetypes="cccc"
         id="path4382"
         d="m 77.870135,105.77033 c 0.680325,-0.4723 1.957454,-0.34798 2.580282,-0.82028 l 1.551873,-0.99168 -4.596194,-4.110059"
         style="color:#000000;display:inline;overflow:visible;visibility:visible;fill:none;stroke:#6e7881;stroke-width:4.41841;stroke-linecap:butt;stroke-linejoin:miter;stroke-miterlimit:4;stroke-dasharray:none;stroke-dashoffset:0;stroke-opacity:1;marker:none;enable-background:accumulate" />
      <path
         sodipodi:nodetypes="cccccc"
         id="path4384"
         d="m 76.75,99.3125 1.505362,6.81856 L 78,101.9688 c 1.104839,0.39933 1.99615,0.97883 2.767734,1.37373 L 76.75,99.31255 Z"
         style="color:#000000;font-style:normal;font-variant:normal;font-weight:normal;font-stretch:normal;font-size:medium;line-height:normal;font-family:AlArabiya;-inkscape-font-specification:AlArabiya;text-indent:0;text-align:start;text-decoration:none;text-decoration-line:none;letter-spacing:normal;word-spacing:normal;text-transform:none;writing-mode:lr-tb;direction:ltr;text-anchor:start;display:inline;overflow:visible;visibility:visible;fill:#e4e7e9;fill-opacity:1;stroke:none;stroke-width:1;marker:none;enable-background:accumulate" />
      <path
         sodipodi:nodetypes="ccccc"
         style="color:#000000;display:inline;overflow:visible;visibility:visible;fill:none;stroke:#505a63;stroke-width:4.41841;stroke-linecap:butt;stroke-linejoin:miter;stroke-miterlimit:4;stroke-dasharray:none;stroke-dashoffset:0;stroke-opacity:1;marker:none;enable-background:accumulate"
         d="m 76.721086,99.008622 1.06066,7.247848 2.757718,-0.67175 2.545583,-1.9799 z"
         id="path4386" />
    </g>
    <g
       id="g4406"
       style="opacity:0.44573643;display:inline;filter:url(#filter4419)"
       inkscape:label="spark">
      <path
         sodipodi:nodetypes="ccccccccccccccccccccc"
         id="path4187"
         d="m 73.686383,74.956451 -10.495229,-12.449814 -4.346708,8.045729 -1.235698,-8.574673 -10.29065,6.040957 8.752732,-9.383245 -8.065351,-0.842484 7.83746,-1.87057 -13.584905,-6.545954 12.07198,2.565971 -9.252575,-12.034216 12.535698,6.766216 -0.149277,-15.267907 5.708681,17.486302 7.923281,-11.741819 -4.959959,15.846019 14.514678,-4.774214 -12.24584,7.761078 12.530689,5.773099 -9.778211,-0.503783 2.529204,13.703308 z"
         style="color:#000000;fill:#ea462f;fill-opacity:1;fill-rule:nonzero;stroke:#c32914;stroke-width:0.99999994000000003;stroke-opacity:1;marker:none;visibility:visible;display:inline;overflow:visible;enable-background:accumulate" />
      <path
         transform="matrix(0.51853948,0,0,0.5189949,30.116003,25.293201)"
         id="path4192"
         d="m 55.9375,31.1875 c 0.02123,3.422587 0.08644,6.845993 0.0798,10.268062 -0.113819,2.111734 -2.742043,3.439889 -4.513692,2.29162 -3.928285,-2.113644 -7.856569,-4.227288 -11.784854,-6.340932 3.166636,4.127263 6.36896,8.22857 9.513201,12.372121 1.175286,1.741341 -0.09522,4.378659 -2.189479,4.544925 -0.529239,0.03351 0.610303,0.379616 0.856755,0.558428 1.179375,0.597757 2.415872,1.093886 3.549023,1.774061 1.623079,1.133471 1.547888,3.834066 -0.13575,4.875465 1.88537,0.78753 2.322879,3.553982 0.795972,4.900758 -0.911157,0.970581 -1.822315,1.941161 -2.733472,2.911742 1.086262,-0.56074 2.0657,-1.39156 3.284858,-1.630644 1.740522,-0.274473 3.358922,1.226387 3.399339,2.946196 0.344851,2.384399 0.689702,4.768799 1.034553,7.153198 1.41161,-2.602951 2.78234,-5.229478 4.219952,-7.817434 1.080308,-1.706307 3.812412,-1.697675 4.926601,-0.03435 4.274066,5.065179 8.548131,10.130357 12.822197,15.195536 -0.955719,-5.214433 -1.953084,-10.422286 -2.88264,-15.640852 -0.21676,-1.884157 1.63417,-3.534096 3.476883,-3.217755 0.979003,0.04662 1.958005,0.09324 2.937007,0.139857 -3.419408,-1.582458 -6.857613,-3.126749 -10.265131,-4.733348 -1.851662,-0.992429 -1.957477,-3.917909 -0.182353,-5.041519 1.104378,-0.704858 2.215493,-1.399311 3.322484,-2.100133 -1.784731,0.575573 -3.560174,1.181664 -5.350911,1.737497 -2.026283,0.554746 -4.116835,-1.494454 -3.602676,-3.531414 1.143462,-3.753978 2.34874,-7.490211 3.516087,-11.237333 -1.33578,1.95126 -2.635691,3.928358 -3.994509,5.863023 C 64.748368,49.053689 61.846452,48.66832 61.03583,46.730161 59.659667,42.68447 58.374973,38.605263 57.034209,34.546601 56.668639,33.426901 56.30307,32.3072 55.9375,31.1875 z"
         style="color:#000000;fill:#f8c53f;fill-opacity:0.62916667000000004;fill-rule:nonzero;stroke:none;stroke-width:1;marker:none;visibility:visible;display:inline;overflow:visible;filter:url(#filter4215);enable-background:accumulate" />
      <path
         transform="matrix(0.51853948,0,0,0.5189949,30.116003,25.293201)"
         id="path4210"
         d="m 57.03125,46.4375 c -1.30477,0.998908 -2.967572,1.620766 -4.625,1.4375 1.029546,1.584614 1.138707,3.637225 0.5625,5.40625 2.622578,1.25068 3.899238,4.540025 3.104737,7.283675 -0.342104,0.830744 0.335713,1.495869 0.438718,2.28535 0.157486,0.735506 0.183871,1.498442 0.08154,2.243475 0.908438,0.576099 1.721921,1.33576 2.25,2.28125 1.882042,-2.322081 5.453527,-3.051305 8.067549,-1.569728 0.825273,0.446785 1.551907,1.07305 2.119951,1.819728 0.358589,0.102343 0.535468,0.584648 0.825224,0.845204 1.006175,1.197432 2.012351,2.394864 3.018526,3.592296 -0.260371,-1.409666 -0.628311,-2.874427 -0.232406,-4.295565 0.141423,-0.659603 1.030425,-1.676425 -0.142417,-1.861786 C 70.873839,65.21085 69.15541,64.396321 68.21194,62.817501 67.603116,61.873821 67.244887,60.774439 67.15625,59.65625 64.311905,58.708947 62.269748,55.602551 62.822122,52.606359 62.881447,51.74601 61.654293,52.1741 61.169384,51.737271 59.162072,50.917812 57.662408,49.06073 57.196676,46.953084 57.142978,46.780765 57.088529,46.608668 57.03125,46.4375 z M 48.875,57.46875 c -0.359079,0.223704 -1.248671,0.439438 -1.304606,0.575007 0.486475,-0.04052 0.900838,-0.327398 1.304606,-0.575007 z"
         style="color:#000000;fill:#fdecc1;fill-opacity:0.62916667000000004;fill-rule:nonzero;stroke:none;stroke-width:1;marker:none;visibility:visible;display:inline;overflow:visible;filter:url(#filter4223);enable-background:accumulate" />
    </g>
  </g>
</svg>
