<?xml version="1.0" encoding="UTF-8" standalone="no"?>
<!-- Created with Inkscape (http://www.inkscape.org/) -->

<svg
   width="128"
   height="128"
   id="svg2"
   sodipodi:version="0.32"
   inkscape:version="1.3.2 (1:1.3.2+202311252150+091e20ef0f)"
   version="1.0"
   sodipodi:docname="view.svg"
   inkscape:output_extension="org.inkscape.output.svg.inkscape"
   inkscape:export-filename="view_48.png"
   inkscape:export-xdpi="36"
   inkscape:export-ydpi="36"
   xmlns:inkscape="http://www.inkscape.org/namespaces/inkscape"
   xmlns:sodipodi="http://sodipodi.sourceforge.net/DTD/sodipodi-0.dtd"
   xmlns:xlink="http://www.w3.org/1999/xlink"
   xmlns="http://www.w3.org/2000/svg"
   xmlns:svg="http://www.w3.org/2000/svg"
   xmlns:rdf="http://www.w3.org/1999/02/22-rdf-syntax-ns#"
   xmlns:cc="http://creativecommons.org/ns#"
   xmlns:dc="http://purl.org/dc/elements/1.1/">
  <defs
     id="defs4">
    <linearGradient
       inkscape:collect="always"
       id="linearGradient3445">
      <stop
         style="stop-color:#9a0000;stop-opacity:1;"
         offset="0"
         id="stop3447" />
      <stop
         style="stop-color:#9a0000;stop-opacity:0;"
         offset="1"
         id="stop3449" />
    </linearGradient>
    <linearGradient
       id="linearGradient3353">
      <stop
         style="stop-color:#0f6405;stop-opacity:1;"
         offset="0"
         id="stop3355" />
      <stop
         id="stop3193"
         offset="0.31093228"
         style="stop-color:#0f6405;stop-opacity:1;" />
      <stop
         id="stop3177"
         offset="0.62186456"
         style="stop-color:#22b810;stop-opacity:1;" />
      <stop
         style="stop-color:#22b810;stop-opacity:1;"
         offset="0.85229754"
         id="stop3179" />
      <stop
         style="stop-color:#0f6405;stop-opacity:1;"
         offset="1"
         id="stop3357" />
    </linearGradient>
    <filter
       inkscape:collect="always"
       id="filter3349"
       x="-0.099752216"
       y="-0.08948418"
       width="1.1995044"
       height="1.1789684">
      <feGaussianBlur
         inkscape:collect="always"
         stdDeviation="2.9769801"
         id="feGaussianBlur3351" />
    </filter>
    <radialGradient
       inkscape:collect="always"
       xlink:href="#linearGradient3353"
       id="radialGradient3359"
       cx="53.190342"
       cy="67.678963"
       fx="53.190342"
       fy="67.678963"
       r="50.405237"
       gradientUnits="userSpaceOnUse"
       gradientTransform="matrix(1.1595578,3.4756455e-3,-4.269064e-3,1.0610718,-9.1438821,-4.2969761)" />
    <filter
       inkscape:collect="always"
       id="filter3429"
       x="-0.14612069"
       width="1.2922414"
       y="-0.14612069"
       height="1.2922414">
      <feGaussianBlur
         inkscape:collect="always"
         stdDeviation="6.0013851"
         id="feGaussianBlur3431" />
    </filter>
    <filter
       inkscape:collect="always"
       id="filter3242"
       x="-0.045389363"
       y="-0.045389495"
       width="1.0907787"
       height="1.090779">
      <feGaussianBlur
         inkscape:collect="always"
         stdDeviation="1.120048"
         id="feGaussianBlur3244" />
    </filter>
    <linearGradient
       inkscape:collect="always"
       xlink:href="#linearGradient3445"
       id="linearGradient3451"
       x1="111.06706"
       y1="58.07999"
       x2="81.015022"
       y2="58.07999"
       gradientUnits="userSpaceOnUse" />
    <linearGradient
       inkscape:collect="always"
       xlink:href="#linearGradient3445"
       id="linearGradient3457"
       gradientUnits="userSpaceOnUse"
       x1="108.52319"
       y1="83.390373"
       x2="88.393425"
       y2="72.348396" />
    <linearGradient
       inkscape:collect="always"
       xlink:href="#linearGradient3445"
       id="linearGradient3459"
       gradientUnits="userSpaceOnUse"
       x1="91.918808"
       y1="104.76142"
       x2="77.858299"
       y2="95.960709" />
    <linearGradient
       inkscape:collect="always"
       xlink:href="#linearGradient3445"
       id="linearGradient3461"
       gradientUnits="userSpaceOnUse"
       x1="78.738846"
       y1="115.40351"
       x2="69.200523"
       y2="106.79187" />
    <linearGradient
       inkscape:collect="always"
       xlink:href="#linearGradient3445"
       id="linearGradient3463"
       gradientUnits="userSpaceOnUse"
       x1="94.638107"
       y1="28.794275"
       x2="77.979309"
       y2="36.323582" />
    <linearGradient
       inkscape:collect="always"
       xlink:href="#linearGradient3445"
       id="linearGradient3465"
       gradientUnits="userSpaceOnUse"
       x1="88.894676"
       y1="19.550575"
       x2="75.008904"
       y2="25.073582" />
    <filter
       inkscape:collect="always"
       id="filter3483"
       x="-0.048883505"
       y="-0.042176533"
       width="1.097767"
       height="1.0843531">
      <feGaussianBlur
         inkscape:collect="always"
         stdDeviation="0.83254717"
         id="feGaussianBlur3485" />
    </filter>
    <filter
       inkscape:collect="always"
       id="filter3681"
       x="-0.22288825"
       width="1.4457765"
       y="-0.24744711"
       height="1.4948942">
      <feGaussianBlur
         inkscape:collect="always"
         stdDeviation="0.95686427"
         id="feGaussianBlur3683" />
    </filter>
    <filter
       inkscape:collect="always"
       id="filter3758"
       x="-0.076076939"
       width="1.1521539"
       y="-0.17136334"
       height="1.3426835">
      <feGaussianBlur
         inkscape:collect="always"
         stdDeviation="0.41414753"
         id="feGaussianBlur3760" />
    </filter>
    <filter
       inkscape:collect="always"
       id="filter3826"
       x="-0.10844538"
       width="1.2168908"
       y="-0.49394045"
       height="1.9890205">
      <feGaussianBlur
         inkscape:collect="always"
         stdDeviation="0.24638874"
         id="feGaussianBlur3828" />
    </filter>
    <filter
       inkscape:collect="always"
       id="filter3850"
       x="-0.060777443"
       width="1.1215549"
       y="-0.15587107"
       height="1.3111889">
      <feGaussianBlur
         inkscape:collect="always"
         stdDeviation="0.49238731"
         id="feGaussianBlur3852" />
    </filter>
    <filter
       inkscape:collect="always"
       id="filter3890"
       x="-0.070224021"
       y="-0.10354199"
       width="1.140448"
       height="1.207084">
      <feGaussianBlur
         inkscape:collect="always"
         stdDeviation="0.37535754"
         id="feGaussianBlur3892" />
    </filter>
    <filter
       inkscape:collect="always"
       id="filter3930"
       x="-0.0822941"
       y="-0.12455317"
       width="1.1645882"
       height="1.2491063">
      <feGaussianBlur
         inkscape:collect="always"
         stdDeviation="0.30054307"
         id="feGaussianBlur3932" />
    </filter>
    <filter
       inkscape:collect="always"
       id="filter4002"
       x="-0.16935885"
       width="1.3387177"
       y="-0.23137765"
       height="1.4627553">
      <feGaussianBlur
         inkscape:collect="always"
         stdDeviation="0.24777121"
         id="feGaussianBlur4004" />
    </filter>
  </defs>
  <sodipodi:namedview
     id="base"
     pagecolor="#ffffff"
     bordercolor="#666666"
     borderopacity="1.0"
     inkscape:pageopacity="0.0"
     inkscape:pageshadow="2"
     inkscape:zoom="2.8"
     inkscape:cx="21.428571"
     inkscape:cy="73.035714"
     inkscape:document-units="px"
     inkscape:current-layer="layer1"
     showgrid="false"
     inkscape:window-width="1868"
     inkscape:window-height="1016"
     inkscape:window-x="52"
     inkscape:window-y="27"
     inkscape:showpageshadow="2"
     inkscape:pagecheckerboard="0"
     inkscape:deskcolor="#d1d1d1"
     inkscape:window-maximized="1" />
  <metadata
     id="metadata7">
    <rdf:RDF>
      <cc:Work
         rdf:about="">
        <dc:format>image/svg+xml</dc:format>
        <dc:type
           rdf:resource="http://purl.org/dc/dcmitype/StillImage" />
        <cc:license
           rdf:resource="http://creativecommons.org/licenses/by-sa/4.0/" />
      </cc:Work>
      <cc:License
         rdf:about="http://creativecommons.org/licenses/by-sa/4.0/">
        <cc:permits
           rdf:resource="http://creativecommons.org/ns#Reproduction" />
        <cc:permits
           rdf:resource="http://creativecommons.org/ns#Distribution" />
        <cc:requires
           rdf:resource="http://creativecommons.org/ns#Notice" />
        <cc:requires
           rdf:resource="http://creativecommons.org/ns#Attribution" />
        <cc:permits
           rdf:resource="http://creativecommons.org/ns#DerivativeWorks" />
        <cc:requires
           rdf:resource="http://creativecommons.org/ns#ShareAlike" />
      </cc:License>
    </rdf:RDF>
  </metadata>
  <g
     inkscape:groupmode="layer"
     id="layer3"
     inkscape:label="shadow"
     style="opacity:1;display:inline">
    <path
       transform="matrix(1.1325746,0,0,0.2297882,0.5877518,99.78926)"
       d="M 111.42857,66.214287 A 49.285713,49.285713 0 1 1 12.857143,66.214287 A 49.285713,49.285713 0 1 1 111.42857,66.214287 z"
       sodipodi:ry="49.285713"
       sodipodi:rx="49.285713"
       sodipodi:cy="66.214287"
       sodipodi:cx="62.142857"
       id="path3362"
       style="opacity:1;fill:#142d41;fill-opacity:0.16611298;fill-rule:nonzero;stroke:none;stroke-width:1px;stroke-linecap:butt;stroke-linejoin:miter;marker:none;marker-start:none;marker-mid:none;marker-end:none;stroke-miterlimit:4;stroke-dasharray:none;stroke-dashoffset:0;stroke-opacity:1;visibility:visible;display:inline;overflow:visible;filter:url(#filter3429);enable-background:accumulate"
       sodipodi:type="arc" />
  </g>
  <g
     inkscape:label="main"
     inkscape:groupmode="layer"
     id="layer1"
     style="display:inline;opacity:1">
    <circle
       style="display:inline;overflow:visible;visibility:visible;opacity:1;fill:none;fill-opacity:0.813953;fill-rule:nonzero;stroke:#466b8f;stroke-width:3.54009;stroke-linecap:butt;stroke-linejoin:miter;stroke-miterlimit:4;stroke-dasharray:none;stroke-dashoffset:0;stroke-opacity:0.964706;marker:none;marker-start:none;marker-mid:none;marker-end:none;enable-background:accumulate"
       id="path3398"
       transform="matrix(1.1299392,0,0,1.1298926,-10.951409,-16.103372)"
       cx="62.142857"
       cy="66.214287"
       r="49.285713" />
    <circle
       style="display:inline;overflow:visible;visibility:visible;opacity:1;fill:#d9e7f3;fill-opacity:1;fill-rule:nonzero;stroke:none;stroke-width:1px;stroke-linecap:butt;stroke-linejoin:miter;stroke-miterlimit:4;stroke-dasharray:none;stroke-dashoffset:0;stroke-opacity:1;marker:none;marker-start:none;marker-mid:none;marker-end:none;enable-background:accumulate"
       id="path2455"
       transform="matrix(1.1299392,0,0,1.1298926,-10.951409,-16.103372)"
       cx="62.142857"
       cy="66.214287"
       r="49.285713" />
    <path
       style="overflow:visible;visibility:visible;fill:#85b1d9;fill-opacity:0.813953;fill-rule:nonzero;stroke:none;stroke-width:1px;stroke-linecap:butt;stroke-linejoin:miter;stroke-miterlimit:4;stroke-dashoffset:0;stroke-opacity:1;marker:none;marker-start:none;marker-mid:none;marker-end:none;filter:url(#filter3349);enable-background:accumulate"
       d="m 96.1875,32.15625 c 2.321901,6.041428 3.71875,12.556098 3.71875,19.40625 -10e-7,29.894763 -24.291248,54.21875 -54.1875,54.21875 -2.717681,0 -5.356924,-0.29722 -7.96875,-0.6875 C 44.884591,109.43156 53.19742,112 62.15625,112 88.249431,112 109.375,90.874433 109.375,64.78125 c 0,-12.682709 -5.04945,-24.139928 -13.1875,-32.625 z"
       id="path3258"
       transform="matrix(1.1299392,0,0,1.1298926,-10.951409,-14.489239)" />
    <path
       id="path3410"
       style="fill:none;fill-rule:evenodd;stroke:url(#linearGradient3451);stroke-width:0.885022px;stroke-linecap:round;stroke-linejoin:miter;stroke-opacity:1;filter:url(#filter3850)"
       d="m 110.56706,56.722969 c -2.58853,-1.814844 -3.41792,-1.959029 -7.5315,-1.959029 -2.08829,0 -3.469775,3.404016 -4.04061,4.545687 -1.246101,2.492201 -5.868751,-0.817988 -6.060916,-1.010153 -2.423434,-2.991016 -5.075047,-4.738208 -9.091372,-4.04061 m 9.758387,4.679615 c -0.566654,0 -2.62266,0.446059 -3.862039,0.803571 -1.487142,0.428982 -1.783863,2.350258 -4.648977,1.81241 m 16.935377,-6.79052 c -1.03096,-1.487141 -2.497579,-3.553144 -5.555842,-3.535534"
       sodipodi:nodetypes="csscccsccc"
       transform="matrix(1.1299392,0,0,1.1298926,-10.951409,-14.489239)" />
    <path
       id="path3416"
       style="display:inline;overflow:visible;visibility:visible;opacity:1;fill:none;fill-opacity:1;fill-rule:evenodd;stroke:url(#linearGradient3457);stroke-width:0.885022px;stroke-linecap:round;stroke-linejoin:miter;stroke-miterlimit:4;stroke-dasharray:none;stroke-dashoffset:0;stroke-opacity:1;marker:none;marker-start:none;marker-mid:none;marker-end:none;filter:url(#filter3890);enable-background:accumulate"
       d="m 108.02319,82.890376 c -3.32337,-1.883942 -3.76752,-4.499835 -4.48255,-5.398003 -3.20857,-4.030384 -8.59412,-3.86149 -14.647216,-2.525382 M 101.17309,75.4405 c -0.36668,-2.406102 -1.855825,-4.274699 -4.198445,-5.524272"
       sodipodi:nodetypes="csccc"
       transform="matrix(1.1299392,0,0,1.1298926,-10.951409,-14.489239)" />
    <path
       style="display:inline;overflow:visible;visibility:visible;opacity:1;fill:none;fill-opacity:1;fill-rule:evenodd;stroke:url(#linearGradient3461);stroke-width:0.885022px;stroke-linecap:round;stroke-linejoin:miter;stroke-miterlimit:4;stroke-dasharray:none;stroke-dashoffset:0;stroke-opacity:1;marker:none;marker-start:none;marker-mid:none;marker-end:none;filter:url(#filter4002);enable-background:accumulate"
       d="m 75.824575,111.77442 c -1.782713,-1.70717 -3.443999,-4.48255 -6.124049,-4.48255"
       id="path3420"
       sodipodi:nodetypes="cc"
       transform="matrix(1.1299392,0,0,1.1298926,-10.951409,-14.489239)" />
    <path
       id="path3418"
       style="display:inline;overflow:visible;visibility:visible;opacity:1;fill:none;fill-opacity:1;fill-rule:evenodd;stroke:url(#linearGradient3459);stroke-width:0.885022px;stroke-linecap:round;stroke-linejoin:miter;stroke-miterlimit:4;stroke-dasharray:none;stroke-dashoffset:0;stroke-opacity:1;marker:none;marker-start:none;marker-mid:none;marker-end:none;filter:url(#filter3930);enable-background:accumulate"
       d="m 91.418806,104.26142 c -3.189396,-1.48366 -5.113678,-0.0472 -7.071068,-1.51523 -2.45466,-1.4924 -2.581924,-4.678927 -7.071068,-5.050766 m 7.355173,5.113896 c 0.153129,-1.23784 0.257507,-2.50597 -0.220971,-4.198446 -0.409189,-1.447388 -1.338051,-2.63231 -2.399112,-3.69337"
       sodipodi:nodetypes="ccccsc"
       transform="matrix(1.1299392,0,0,1.1298926,-10.951409,-14.489239)" />
    <path
       id="path3412"
       style="display:inline;overflow:visible;visibility:visible;opacity:1;fill:none;fill-opacity:1;fill-rule:evenodd;stroke:url(#linearGradient3463);stroke-width:0.885022px;stroke-linecap:round;stroke-linejoin:miter;stroke-miterlimit:4;stroke-dasharray:none;stroke-dashoffset:0;stroke-opacity:1;marker:none;marker-start:none;marker-mid:none;marker-end:none;filter:url(#filter3758);enable-background:accumulate"
       d="m 94.138106,27.444965 c -1.873983,-0.119374 -4.4794,1.549861 -5.244682,2.570238 -1.156764,1.542353 -4.41097,1.010152 -6.565991,1.010152 -2.956922,0 -4.990654,-0.03005 -7.071068,1.010153 m 11.553619,-0.820749 c -0.08618,-0.08618 -2.612733,1.259703 -2.967322,1.578363 -1.149546,1.033067 -0.597294,2.223869 -3.282996,3.030458"
       sodipodi:nodetypes="cssccsc"
       transform="matrix(1.1299392,0,0,1.1298926,-10.951409,-14.489239)" />
    <path
       style="display:inline;overflow:visible;visibility:visible;opacity:1;fill:none;fill-opacity:1;fill-rule:evenodd;stroke:url(#linearGradient3465);stroke-width:0.885022px;stroke-linecap:round;stroke-linejoin:miter;stroke-miterlimit:4;stroke-dasharray:none;stroke-dashoffset:0;stroke-opacity:1;marker:none;marker-start:none;marker-mid:none;marker-end:none;filter:url(#filter3826);enable-background:accumulate"
       d="m 85.042218,21.302637 c -1.001072,0.500536 -2.647296,2.39455 -4.103745,2.051872 -1.449721,-0.341094 -2.986029,-1.406497 -5.42957,-0.157836"
       id="path3414"
       sodipodi:nodetypes="czc"
       transform="matrix(1.1299392,0,0,1.1298926,-10.951409,-14.489239)" />
    <circle
       transform="matrix(1.1299392,0,0,1.1298926,-10.951409,-16.103372)"
       id="path3256"
       style="display:inline;overflow:visible;visibility:visible;opacity:1;fill:none;fill-opacity:0.813953;fill-rule:nonzero;stroke:#678fb5;stroke-width:0.885022px;stroke-linecap:butt;stroke-linejoin:miter;stroke-miterlimit:4;stroke-dasharray:none;stroke-dashoffset:0;stroke-opacity:0.964706;marker:none;marker-start:none;marker-mid:none;marker-end:none;enable-background:accumulate"
       cx="62.142857"
       cy="66.214287"
       r="49.285713" />
  </g>
  <g
     inkscape:groupmode="layer"
     id="layer4"
     inkscape:label="iris"
     style="display:inline">
    <path
       transform="matrix(0.4688463,0,0,0.5431691,1.4715972,24.360239)"
       d="M 111.42857,66.214287 A 49.285713,49.285713 0 1 1 12.857143,66.214287 A 49.285713,49.285713 0 1 1 111.42857,66.214287 z"
       sodipodi:ry="49.285713"
       sodipodi:rx="49.285713"
       sodipodi:cy="66.214287"
       sodipodi:cx="62.142857"
       id="path3396"
       style="opacity:1;fill:none;fill-opacity:1;fill-rule:nonzero;stroke:#0d2c0a;stroke-width:7.92642212;stroke-linecap:butt;stroke-linejoin:miter;marker:none;marker-start:none;marker-mid:none;marker-end:none;stroke-miterlimit:4;stroke-dasharray:none;stroke-dashoffset:0;stroke-opacity:1;visibility:visible;display:inline;overflow:visible;enable-background:accumulate"
       sodipodi:type="arc" />
    <path
       transform="matrix(0.4688463,0,0,0.5431691,1.4715972,24.360239)"
       d="M 111.42857,66.214287 A 49.285713,49.285713 0 1 1 12.857143,66.214287 A 49.285713,49.285713 0 1 1 111.42857,66.214287 z"
       sodipodi:ry="49.285713"
       sodipodi:rx="49.285713"
       sodipodi:cy="66.214287"
       sodipodi:cx="62.142857"
       id="path2477"
       style="opacity:1;fill:url(#radialGradient3359);fill-opacity:1;fill-rule:nonzero;stroke:none;stroke-width:2.23904753;stroke-linecap:butt;stroke-linejoin:miter;marker:none;marker-start:none;marker-mid:none;marker-end:none;stroke-miterlimit:4;stroke-dasharray:none;stroke-dashoffset:0;stroke-opacity:0.96470588;visibility:visible;display:inline;overflow:visible;enable-background:accumulate"
       sodipodi:type="arc" />
    <path
       style="opacity:1;fill:#b3f20c;fill-opacity:0.25249167;fill-rule:nonzero;stroke:none;stroke-width:0.20550846;stroke-linecap:butt;stroke-linejoin:miter;marker:none;marker-start:none;marker-mid:none;marker-end:none;stroke-miterlimit:4;stroke-dasharray:none;stroke-dashoffset:0;stroke-opacity:0.96470588;visibility:visible;display:inline;overflow:visible;filter:url(#filter3681);enable-background:accumulate"
       d="M 49.305639,61.246159 C 48.43621,60.608897 48.068316,60.330417 47.365899,59.551989 C 46.757537,58.470089 45.666403,57.361526 44.31871,57.545245 C 43.650971,57.546219 42.178273,57.084822 42.231503,58.080206 C 42.831268,58.755221 43.785382,58.926791 44.592763,59.245004 C 45.613553,59.498414 45.536914,59.880238 45.960499,60.951253 C 46.375423,61.84261 46.21431,62.332926 46.465464,63.272873 C 46.416499,64.342422 45.477061,63.710733 44.800606,63.981362 C 43.91829,64.282427 44.246378,65.264929 44.207742,66.014305 C 44.101001,67.281259 42.667774,67.438076 41.778345,67.517001 C 40.440871,68.001939 40.084305,68.942208 38.871752,69.690286 C 38.051502,70.139797 36.969472,70.434044 36.121955,69.894647 C 34.922544,69.325351 35.04757,71.020726 35.454361,71.668348 C 35.879347,72.779337 37.116224,73.209993 38.215057,73.192961 C 38.872818,73.202743 39.535094,73.203038 40.177226,73.342257 C 41.193862,73.244501 41.293086,71.943221 42.136828,71.556039 C 43.067377,71.574251 43.997333,73.381349 44.927658,73.366845 C 45.917379,73.41421 46.840393,72.075597 47.842186,72.034292 C 48.463316,72.029753 49.827775,73.477741 50.423189,73.300674 C 51.250553,72.817408 49.738082,70.447899 49.270521,70.001707 C 48.697268,69.580624 48.330534,68.815579 48.633684,68.124624 C 48.841578,67.512525 51.002609,68.16259 51.609124,68.152435 C 52.545679,67.994478 52.849397,66.256089 52.987688,65.308742 C 53.396923,64.393615 51.640314,62.2126 50.618629,62.30244 C 49.964939,62.109064 49.528365,62.004462 49.305639,61.246159 z"
       id="path3489"
       sodipodi:nodetypes="ccccccccccccccccccccccccc"
       transform="matrix(1.1299392,0,0,1.1298926,-10.951409,-14.489239)" />
    <path
       transform="matrix(0.6955121,0,0,0.7976667,6.3911799,7.6406152)"
       style="opacity:1;fill:#061205;fill-opacity:0.28903653;fill-rule:nonzero;stroke:none;stroke-width:1;stroke-linecap:butt;stroke-linejoin:miter;marker:none;marker-start:none;marker-mid:none;marker-end:none;stroke-miterlimit:4;stroke-dashoffset:0;stroke-opacity:0.96470588;visibility:visible;display:inline;overflow:visible;filter:url(#filter3242);enable-background:accumulate"
       d="M 54.298736,87.293674 C 53.624727,87.837681 34.65308,75.368802 33.952284,75.877837 C 33.259603,76.380977 50.352232,90.313646 49.593928,90.711051 C 48.826739,91.113113 32.556598,76.659033 31.76996,77.021568 C 30.992431,77.379906 45.134088,92.903071 44.312824,93.144902 C 43.481939,93.389567 30.248688,77.515469 29.406438,77.717573 C 28.573941,77.917337 39.511037,94.424731 38.658375,94.501695 C 37.795723,94.579561 27.818042,77.905198 26.952547,77.939104 C 26.097074,77.972618 33.69917,94.82015 32.847877,94.729289 C 31.986609,94.637364 25.358067,77.813243 24.502587,77.677648 C 23.657014,77.543623 27.921834,94.074132 27.104624,93.818938 C 26.27784,93.560754 22.9633,77.243138 22.150711,76.943253 C 21.347532,76.64684 22.401049,92.215347 21.649328,91.805626 C 20.888799,91.391105 20.725769,76.216792 19.987299,75.76414 C 19.25738,75.31673 17.348976,89.315225 16.691631,88.766724 C 16.026584,88.211796 18.731462,74.773645 18.095489,74.185623 C 17.466881,73.60441 12.959762,85.485219 12.422055,84.819015 C 11.878048,84.145006 17.057019,72.969159 16.547984,72.268363 C 16.044843,71.575682 9.4020828,80.872511 9.0046774,80.114207 C 8.6026161,79.347018 15.766788,70.872677 15.404252,70.086039 C 15.045915,69.30851 6.8126581,75.654367 6.5708266,74.833103 C 6.3261619,74.002217 14.910352,68.564767 14.708247,67.722517 C 14.508483,66.89002 5.2909979,70.031316 5.2140338,69.178653 C 5.1361679,68.316001 14.520622,66.134121 14.486716,65.268626 C 14.453203,64.413153 4.8955788,64.219449 4.9864397,63.368155 C 5.0783651,62.506888 14.612577,63.674146 14.748172,62.818666 C 14.882197,61.973093 5.6415966,58.442113 5.8967907,57.624903 C 6.1549747,56.798119 15.182682,61.279379 15.482568,60.46679 C 15.778981,59.663611 7.5003821,52.921328 7.9101026,52.169606 C 8.3246233,51.409078 16.209029,59.041848 16.661681,58.303378 C 17.10909,57.573459 10.400503,47.869255 10.949005,47.211909 C 11.503932,46.546863 17.652176,57.047541 18.240198,56.411568 C 18.821411,55.78296 14.23051,43.480041 14.896714,42.942334 C 15.570723,42.398327 19.456662,55.373098 20.157458,54.864063 C 20.850138,54.360922 18.843218,39.922362 19.601522,39.524956 C 20.368711,39.122895 21.553144,54.082867 22.339782,53.720331 C 23.11731,53.361994 24.061362,37.332937 24.882626,37.091106 C 25.713511,36.846441 23.861054,53.226431 24.703304,53.024326 C 25.535801,52.824562 29.684413,35.811277 30.537075,35.734313 C 31.399727,35.656447 26.2917,52.836701 27.157195,52.802795 C 28.012668,52.769282 35.49628,35.415858 36.347573,35.506719 C 37.208841,35.598644 28.751675,52.928656 29.607154,53.064251 C 30.452728,53.198276 41.273615,36.161876 42.090826,36.41707 C 42.91761,36.675254 31.146442,53.498761 31.959031,53.798647 C 32.76221,54.09506 46.7944,38.020661 47.546122,38.430382 C 48.306651,38.844902 33.383973,54.525108 34.122443,54.97776 C 34.852362,55.425169 51.846474,40.920782 52.503819,41.469284 C 53.168866,42.024211 35.37828,55.968254 36.014252,56.556277 C 36.642861,57.13749 56.235688,44.750789 56.773395,45.416993 C 57.317402,46.091002 37.052723,57.772741 37.561758,58.473537 C 38.064898,59.166217 59.793367,49.363497 60.190772,50.121801 C 60.592834,50.88899 38.342954,59.869223 38.705489,60.655861 C 39.063827,61.433389 62.382792,54.581641 62.624623,55.402905 C 62.869288,56.23379 39.19939,62.177133 39.401494,63.019383 C 39.601258,63.85188 63.904452,60.204692 63.981416,61.057354 C 64.059282,61.920006 39.589119,64.607779 39.623025,65.473274 C 39.656539,66.328747 64.299871,66.016559 64.20901,66.867852 C 64.117085,67.72912 39.497165,67.067754 39.361569,67.923233 C 39.227545,68.768806 63.553853,71.793894 63.298659,72.611105 C 63.040475,73.437889 38.927059,69.462521 38.627174,70.27511 C 38.330761,71.078288 61.695068,77.314679 61.285347,78.066401 C 60.870827,78.82693 37.900713,71.700052 37.448061,72.438522 C 37.000651,73.168441 58.794947,82.366753 58.246445,83.024098 C 57.691517,83.689145 36.457566,73.694359 35.869544,74.330331 C 35.288331,74.95894 54.96494,86.755967 54.298736,87.293674 z"
       id="path3197"
       sodipodi:nodetypes="csssssssssssssssssssssssssssssssssssssssssssssssssssssssssssssssc" />
    <path
       style="opacity:1;fill:#cef20c;fill-opacity:0.25249167;fill-rule:nonzero;stroke:none;stroke-width:0.20550846;stroke-linecap:butt;stroke-linejoin:miter;marker:none;marker-start:none;marker-mid:none;marker-end:none;stroke-miterlimit:4;stroke-dasharray:none;stroke-dashoffset:0;stroke-opacity:0.96470588;visibility:visible;display:inline;overflow:visible;filter:url(#filter3681);enable-background:accumulate"
       d="M 27.274118,67.390846 C 26.508116,67.664184 25.709758,67.928426 24.88521,67.882137 C 24.195258,67.533074 24.272944,66.447629 23.467949,66.243838 C 22.988334,65.765912 21.746835,65.928154 22.057124,66.79685 C 22.099877,67.42997 21.854367,68.442075 22.670158,68.661608 C 23.322993,68.73528 23.923782,69.218718 23.712039,69.923529 C 23.687733,70.628733 23.886088,71.331294 23.864817,72.028325 C 23.658271,72.777456 22.447429,72.391001 22.685395,71.663422 C 22.622926,70.886404 21.80113,70.488013 21.108539,70.427657 C 20.357272,70.128842 20.183801,71.185119 20.790977,71.46613 C 21.205484,72.156742 20.632824,72.903675 20.085937,73.310533 C 19.41898,73.643259 19.243457,74.325377 19.47972,74.987644 C 19.374296,75.74086 19.777428,76.464733 20.57745,76.555984 C 21.028814,76.770901 21.732651,76.43708 21.066788,76.072108 C 20.509103,75.622245 21.361598,75.202092 21.753457,75.075344 C 22.309128,74.867248 22.944246,74.890548 23.47425,75.160982 C 24.046724,75.305712 24.623373,74.786147 25.170304,75.06064 C 25.489824,75.454083 25.179085,75.981159 25.219412,76.436546 C 25.20245,76.994258 25.171237,77.56654 25.284506,78.113305 C 25.515288,78.80805 26.328715,78.777602 26.924839,78.778553 C 27.434899,78.822008 28.496203,78.989618 28.174827,78.122822 C 27.799673,77.400062 28.147563,76.628007 28.115074,75.878937 C 27.894413,75.285258 27.329297,74.803656 27.373804,74.109507 C 27.382474,73.397015 27.183238,72.556302 27.722055,71.973411 C 28.21065,71.416023 29.214105,71.693927 29.557602,70.966733 C 29.799716,70.01379 29.662602,69.006723 29.392095,68.074544 C 28.853732,67.479132 27.866665,68.085367 27.353611,67.444914 L 27.274118,67.390846 L 27.274118,67.390846 z"
       id="path3685"
       transform="matrix(1.1299392,0,0,1.1298926,-10.951409,-14.489239)" />
    <path
       sodipodi:type="arc"
       style="opacity:1;fill:#000000;fill-opacity:1;fill-rule:nonzero;stroke:none;stroke-width:1px;stroke-linecap:butt;stroke-linejoin:miter;marker:none;marker-start:none;marker-mid:none;marker-end:none;stroke-miterlimit:4;stroke-dasharray:none;stroke-dashoffset:0;stroke-opacity:1;visibility:visible;display:inline;overflow:visible;enable-background:accumulate"
       id="path3249"
       sodipodi:cx="62.142857"
       sodipodi:cy="66.214287"
       sodipodi:rx="49.285713"
       sodipodi:ry="49.285713"
       d="M 111.42857,66.214287 A 49.285713,49.285713 0 1 1 12.857143,66.214287 A 49.285713,49.285713 0 1 1 111.42857,66.214287 z"
       transform="matrix(0.1679567,0,0,0.1888192,14.673071,47.318847)" />
    <path
       style="opacity:1;fill:#184e12;fill-opacity:0.48837208;fill-rule:nonzero;stroke:none;stroke-width:2.23904753;stroke-linecap:butt;stroke-linejoin:miter;marker:none;marker-start:none;marker-mid:none;marker-end:none;stroke-miterlimit:4;stroke-dasharray:none;stroke-dashoffset:0;stroke-opacity:0.96470588;visibility:visible;display:inline;overflow:visible;filter:url(#filter3483);enable-background:accumulate"
       d="M 36.78125,42.53125 C 25.492767,42.53125 16.34375,53.140245 16.34375,66.21875 C 16.34375,79.297252 25.492766,89.906254 36.78125,89.90625 C 48.069733,89.90625 57.21875,79.297249 57.21875,66.21875 C 57.21875,53.140248 48.069732,42.531249 36.78125,42.53125 z M 38.924107,45.709821 L 38.816142,49.567733 L 41.362615,46.443087 C 45.358188,48.155155 47.626044,50.680267 49.623539,53.332607 L 46.935863,57.421268 L 51.75015,56.471002 C 53.778446,60.761918 53.920033,65.052834 53.464286,69.34375 L 51.137658,70.342551 L 53.089435,71.859355 C 52.431217,74.71586 50.949385,77.24292 49.748363,79.882303 L 46.141396,79.908465 L 46.13478,83.372407 C 44.740532,84.644871 43.427596,86.056728 41.228685,85.94977 L 38.905428,84.119766 L 38.34375,86.459821 C 35.75203,87.209694 33.0211,86.776279 30.191445,85.503695 L 30.052147,82.914057 L 26.167833,83.372408 L 25.173337,79.015608 L 21.337419,77.78409 C 20.24329,75.809179 19.196049,73.834267 19.152055,71.859356 L 21.189578,69.494337 L 18.28125,68.763393 C 18.263835,65.885816 18.485583,63.00824 19.180649,60.130663 L 22.410983,58.92636 L 21.337418,54.653411 C 23.042155,51.878044 25.07397,49.666451 27.908904,48.038307 L 30.364646,49.121659 L 31.218229,46.710591 C 34.614421,45.549436 36.499935,45.898957 38.924107,45.709821 z"
       id="path3246"
       sodipodi:nodetypes="csssccccccccccccccccccccccccccccccc"
       transform="matrix(1.1299392,0,0,1.1298926,-10.951409,-14.489239)" />
    <path
       sodipodi:type="arc"
       style="opacity:1;fill:#ffffff;fill-opacity:1;fill-rule:nonzero;stroke:none;stroke-width:1;stroke-linecap:butt;stroke-linejoin:miter;marker:none;marker-start:none;marker-mid:none;marker-end:none;stroke-miterlimit:4;stroke-dasharray:none;stroke-dashoffset:0;stroke-opacity:0.96470588;visibility:visible;display:inline;overflow:visible;enable-background:accumulate"
       id="path3388"
       sodipodi:cx="46.42857"
       sodipodi:cy="55.142857"
       sodipodi:rx="11.428572"
       sodipodi:ry="11.428572"
       d="M 57.467722,58.100789 A 11.428572,11.428572 0 1 1 57.762328,56.611929"
       sodipodi:start="0.26179939"
       sodipodi:end="6.4120858"
       sodipodi:open="true"
       transform="matrix(0.4883732,7.7601355e-2,-8.8684805e-2,0.5580794,0.3203106,15.255123)" />
    <path
       sodipodi:type="arc"
       style="opacity:1;fill:#ffffff;fill-opacity:1;fill-rule:nonzero;stroke:none;stroke-width:1;stroke-linecap:butt;stroke-linejoin:miter;marker:none;marker-start:none;marker-mid:none;marker-end:none;stroke-miterlimit:4;stroke-dasharray:none;stroke-dashoffset:0;stroke-opacity:0.96470588;visibility:visible;display:inline;overflow:visible;enable-background:accumulate"
       id="path3394"
       sodipodi:cx="46.42857"
       sodipodi:cy="55.142857"
       sodipodi:rx="11.428572"
       sodipodi:ry="11.428572"
       d="M 57.467722,58.100789 A 11.428572,11.428572 0 1 1 57.762328,56.611929"
       sodipodi:start="0.26179939"
       sodipodi:end="6.4120858"
       sodipodi:open="true"
       transform="matrix(0.2935773,7.873938e-3,-8.9985322e-3,0.3354804,32.613661,55.383079)" />
    <path
       style="opacity:1;fill:#cef20c;fill-opacity:0.25249167;fill-rule:nonzero;stroke:none;stroke-width:0.20550846;stroke-linecap:butt;stroke-linejoin:miter;marker:none;marker-start:none;marker-mid:none;marker-end:none;stroke-miterlimit:4;stroke-dasharray:none;stroke-dashoffset:0;stroke-opacity:0.96470588;visibility:visible;display:inline;overflow:visible;filter:url(#filter3681);enable-background:accumulate"
       d="M 37.40625,42.71875 C 37.119045,42.751577 36.845027,42.852064 36.65625,43.125 C 36.297408,44.175172 37.693424,44.273995 38.21875,44.75 C 38.523833,45.477015 38.749183,46.21446 39.375,46.75 C 39.844481,47.219032 39.637033,48.001584 38.90625,47.84375 C 37.917587,47.766366 36.899236,47.401307 35.90625,47.625 C 35.387624,47.843318 35.636996,48.590336 35.59375,49.0625 C 35.698301,49.886671 35.485445,50.761531 35.75,51.5625 C 36.161409,52.376099 37.213219,51.831121 37.875,51.6875 C 38.623356,51.436885 39.372574,51.826455 40.125,51.71875 C 41.025172,51.321588 40.226371,50.079512 40.65625,49.375 C 41.084957,48.7472 41.270407,47.778381 42.125,47.59375 C 42.855373,47.485541 44.028541,47.736962 43.8125,48.71875 C 43.587955,49.544718 44.184067,50.299982 45.03125,50.25 C 46.007064,50.163043 45.539889,49.033723 45.59375,48.40625 C 45.570179,47.65107 46.347006,47.275498 46.96875,47.125 C 47.43927,46.964449 47.731354,47.283824 48.185279,47.158154 C 45.140416,44.747361 41.610284,43.587103 37.40625,42.71875 z"
       id="path3691"
       sodipodi:nodetypes="cccccccccccccccccc"
       transform="matrix(1.1299392,0,0,1.1298926,-10.951409,-14.489239)" />
    <path
       sodipodi:type="arc"
       style="opacity:1;fill:none;fill-opacity:1;fill-rule:nonzero;stroke:#184e12;stroke-width:1.98160553;stroke-linecap:butt;stroke-linejoin:miter;marker:none;marker-start:none;marker-mid:none;marker-end:none;stroke-miterlimit:4;stroke-dasharray:none;stroke-dashoffset:0;stroke-opacity:0.96470588;visibility:visible;display:inline;overflow:visible;enable-background:accumulate"
       id="path3384"
       sodipodi:cx="62.142857"
       sodipodi:cy="66.214287"
       sodipodi:rx="49.285713"
       sodipodi:ry="49.285713"
       d="M 111.42857,66.214287 A 49.285713,49.285713 0 1 1 12.857143,66.214287 A 49.285713,49.285713 0 1 1 111.42857,66.214287 z"
       transform="matrix(0.4688463,0,0,0.5431691,1.4715972,24.360239)" />
    <path
       transform="matrix(0.1700419,4.560636e-3,-5.2120083e-3,0.1943124,19.173735,58.680685)"
       sodipodi:open="true"
       sodipodi:end="6.4120858"
       sodipodi:start="0.26179939"
       d="M 57.467722,58.100789 A 11.428572,11.428572 0 1 1 57.762328,56.611929"
       sodipodi:ry="11.428572"
       sodipodi:rx="11.428572"
       sodipodi:cy="55.142857"
       sodipodi:cx="46.42857"
       id="path3392"
       style="opacity:1;fill:#ffffff;fill-opacity:1;fill-rule:nonzero;stroke:none;stroke-width:1;stroke-linecap:butt;stroke-linejoin:miter;marker:none;marker-start:none;marker-mid:none;marker-end:none;stroke-miterlimit:4;stroke-dasharray:none;stroke-dashoffset:0;stroke-opacity:0.96470588;visibility:visible;display:inline;overflow:visible;enable-background:accumulate"
       sodipodi:type="arc" />
  </g>
</svg>
